<svg xmlns="http://www.w3.org/2000/svg" viewBox="0 0 1000 256.33"><defs><style>.cls-1{fill:#d1d1d1;}.cls-2{fill:#f5f5f5;}</style></defs><g id="Layer_2" data-name="Layer 2"><g id="Layer_1-2" data-name="Layer 1"><path class="cls-1" d="M121.15,60.25c-5-15.48,25.37-53.61,40.11-33.53,1.17-13.63,8.92-19.3,22.83-23.43,15.39-4.58,21,.61,30.61,11.07C229-12.53,272.07,1.74,273.57,29.23c12.68-11.23,41.89,7,35.36,24,51.77-11,30.29,66.5-10.41,70-13,1.11-23-10.35-34.3-15.76-18.12-8.66-36.63-8.42-56-10.81C193.55,94.8,122.81,102,120,84.28a15,15,0,0,1,1.14-8Z"/><path class="cls-1" d="M899,69.19c4.27-12.42,39.15-32.29,46.26-10.32,7.8-9.32,24.62-5.09,23.92,8.19,30.75-7.47,23.27,31.18,5.85,43.41-9.42,6.61-26.45,10-34.3.82-7.72-9.06-10.29-23-19.73-30.1Z"/><path class="cls-1" d="M773,44.19c3-12,28.93-34.82,36-14.35,9.06-22.68,28.27-8.09,40,.45,12.56-13.73,52-5.21,43.13,16.73,23.63-2.64,24.24,47.53-2.08,50.17-24.23,2.43-55.9-4.28-79.09-11.25-14.92-4.48-28.3-13.3-34.83-26.65.15,2.64,1.73.92,2.87,1.9Z"/><path class="cls-1" d="M22.14,68.19C13.82,50.65,46.7,21.71,56.9,46.12c3.68-8.92,20.57-6,19.39,4.92C95.55,48.2,97,73.24,83.2,81.19c-13.45,7.77-38.92-4.33-45.06,0Z"/><path class="cls-1" d="M330.14,113.19c-3.25-11.93-3.68-28.78,8-39.77,10.39-9.78,26.42-14,33,1.47,2.56-17.52,27.86-41.79,43-20,2-28.85,40.59-35.82,40.1-.72,12.81-7.7,46.75-1.59,30.2,17.69,15.3-6.83,38.19-1.18,35.85,19.28,16.17-11.7,62.47,11.83,43.57,33.9-8.62,10.07-31.71,14.47-43.56,21-15.65,8.61-31.57,21.43-48.39,26.95-48.78,16-101.1-14.32-137.6-42.95a38.08,38.08,0,0,1-5.23-4.78Z"/><path class="cls-2" d="M953,106.93c-.6-9-15.87-43.13-40.43-44.92s-35,22.46-35,22.46S880.2,71.24,858,65.85s-32.34,4.2-32.34,4.2-3-18-15.58-22.17-20.36,0-20.36,0,0-10.18-4.79-15-12-3-15.58.6c0,0,.8-12.58-8.78-13.78S747,22.53,747,22.53s-2.48-11.14-9.58-12.78c-10.38-2.4-16.37,6.39-16.37,6.39-2.8-3.2-9.09-4.69-17.57-3-12,2.4-11.38,19.17-11.38,19.17s-8-28.15-35.94-27.55c-28.16.6-33.55,23.36-33.55,23.36s-10.78-3-18,1.8-7.78,17.37-7.78,17.37-10.18-10.79-28.15,3.59S559.15,85,559.15,85,548.37,75.44,528,80.23,502.25,106,502.25,106s-12-13.17-31.75-6.58-18,30.54-18,30.54-15-16.17-32.34-6c-.49.29-1,.6-1.43.93-1.53-11.85-6.42-22.8-18-30.51C385.44,84.15,359.82,84,346.2,96.09c.74-35.57-39.91-46.48-59.95-19-7.58-17.29-20.57-40-40.17-46.21-21.15-6.69-43.27,17.08-51.85,34C192.88,51.72,176.23,47,165,50.42c-14.6,4.49-17.36,16.66-23.76,27.69-5-10.33-22.19-26.22-34.25-27-13-.81-33.55,13.74-37.15,25.92C60,73.57,53.91,60.41,45,54.14a52.42,52.42,0,0,0-28.25-10A52,52,0,0,0,0,46.85V256.33H1000v-179C967.65,73.09,965.6,99.14,953,106.93Z"/><path class="cls-1" d="M690,166.54c-27.86-28.75-65.38-2.83-68.58,25.92-11-6.84-27.78-5.5-40.28.23-7.89-13.43-30.4-12.67-41.18,3.5-23.71-17.58-40.83,10.51-40.45,21,10.06-8.33,22.86-12.66,31.3-3.21,10.36-9.45,26.64-12.74,35.51-1.68,14.49-17.27,54.1-5.67,72.61,9.91,3.8-28.69,27-54.39,56.54-45.19,9.32-14.88,29.3-23.79,47.93-24C727,145.89,701,156.26,690,166.54Z"/><path class="cls-1" d="M791.64,130.19c9.74-20.46,35.25-30.27,44.75-4.07,5.36-21.84,58.49-14.1,61.3,9.12,1.84,15.17-8.86,26.17-17.65,37.09,10.37-11.08,1.48-30.15-11.23-37.14-13.33-7.33-28.13-1.06-42,7.9C827.48,110.53,791.64,130.19,791.64,130.19Z"/><path class="cls-1" d="M336.14,214.19c-10.58-18.46,8.72-45,29.8-33.1-.55-23.22,16.92-44,37.21-21.8,15.59-7.91,32.22,4,36.09,19.53-13.75-6-31.4-3.23-41.87,7.27-8.38-15-26.29,3.47-25.16,15.8-8.44-10.14-26.62-2.18-33.07,7.3Z"/><path class="cls-1" d="M592.14,140.53c-15.8-7.46,4.34-36.34,24.34-28.34-1-20.36-.55-35,21.89-44.46,16.77-7.05,31.75,3.14,32.59,20.44-29.77-20.57-40.05,20.46-39.77,42C597.14,112.19,592.14,140.53,592.14,140.53Z"/><path class="cls-1" d="M20.7,143.71c9.4-21.43,47.08-32.2,52.72-1.65,19.33-11.77,37.39-1,37.51,20.91,29.77-4.91,37.55,12,37.2,38.71,16.74-19.42,68.78-19.93,64.56,14.24-9.71-22.11-58.67-2.5-72.1,8.22.79-21.45-20.45-42.66-41.66-35.59,1.95-28-17.86-38.6-40.42-25.5C59.48,131.19,20.7,143.71,20.7,143.71Z"/></g></g></svg>