<svg xmlns="http://www.w3.org/2000/svg" viewBox="0 0 1000 562.65"><defs><style>.cls-1{fill:#a8605b;}.cls-2{fill:#784441;}.cls-3{fill:#453945;}.cls-4{fill:#d1afd1;}.cls-5{fill:#806b80;}.cls-6{fill:#ffd6ff;}.cls-7{fill:#7a687c;}.cls-8{fill:#e8c3e8;}.cls-9{fill:#9c829c;}.cls-10{fill:#c2a1c2;}.cls-11{fill:#a17461;}.cls-12{fill:#f5f5f5;}.cls-13{fill:#d1d1d1;}</style></defs><g id="Layer_2" data-name="Layer 2"><g id="Layer_1-2" data-name="Layer 1"><path class="cls-1" d="M821.08,21.31C817.35,7.06,807.24-2.46,789.36.56h0a.8.8,0,0,0-.15,0l-.17,0h0C771.2,3.91,765,16.31,766.35,31s7.15,26.71,18,49.13S803.74,129,803.74,129l8.13.9a.66.66,0,0,0,0,.09l.15-.07.17,0a.67.67,0,0,0,0-.1l7.34-3.63S818.48,98.41,821,73.63,824.82,35.65,821.08,21.31Z"/><path class="cls-2" d="M805.81,126.31c-.3-.92-.72-2.16-1.24-3.66-.26-.75-.52-1.54-.69-2.18-1.72-5.86-4.45-11.49-6.37-17-.51-1.29-1-2.62-1.57-4-2.7-6.7-5.78-13.86-9.05-20.63-10.56-21.8-16.38-33.81-17.72-48.1-.71-7.45.46-16.27,7.81-22a8.51,8.51,0,0,1,2.77-1.56c1.26-1.45,2.44-1.64,3.53-2.42-5.6,14.24,2.6,27.49,7.75,40.61,1.06,2.86,1,6.51,1.61,9.57a34.7,34.7,0,0,0,.7,4.6c.33,1,.66,2,1,3s.6,2.06.86,3.13c1.12,8.55-.41,17.9,4.18,23.83,6.94,9.2,6.88,20.13,8.31,30.7a21.34,21.34,0,0,0,.32,3.61c.17,1,.33,1.89.47,2.71Z"/><path class="cls-3" d="M824.94,126.9v-.06h0c-.64-2.18-6.63-3-13.61-1.72s-12.34,4-12.19,6.28h0l0,.06v.09a1.5,1.5,0,0,0,.15.42l6.45,21h0c.59,1.36,3.89,1.93,10.61.74s9.63-2.85,9.71-4.33h0l-1.16-22a1.19,1.19,0,0,0,0-.46A.24.24,0,0,1,824.94,126.9Z"/><path class="cls-4" d="M825,126.72h0c-.63-2.18-6.63-3-13.61-1.72s-12.34,4-12.19,6.28h0l0,.06v.09a1.4,1.4,0,0,0,.16.43l6.44,21h0a2,2,0,0,1-.08-.26c-.27-1.54,2.57-3.34,9.7-4.6s10.42-.54,10.69,1a.82.82,0,0,1,0,.27h0l-1.16-22a1.14,1.14,0,0,0,0-.45.29.29,0,0,1,0-.09Z"/><path class="cls-3" d="M816.16,151.39c-10.61,1.71-18.92,4.94-18.55,7.23h0l1.65,10.25h0c.37,2.29,9.27,2.75,19.88,1s18.93-4.95,18.56-7.23l-1.65-10.25C835.68,150.15,826.78,149.68,816.16,151.39Z"/><path class="cls-4" d="M816.13,151.19c-10.61,1.71-18.92,4.95-18.55,7.23h0l1.65,10.24c-.36-2.29,7.94-5.52,18.55-7.23s19.52-1.24,19.89,1.05L836,152.24C835.65,150,826.75,149.48,816.13,151.19Z"/><path class="cls-5" d="M816.13,151.19c-10.61,1.71-18.92,4.95-18.55,7.23h0l1.65,10.24c-.36-2.29,7.94-5.52,18.55-7.23l.4-.06-1.65-10.25Z"/><path class="cls-3" d="M801.41,131.41h0c.41-.8,3.29-2.78,9-4l4.08,19.34a27.84,27.84,0,0,0-7.05,2.16l-.55.3Z"/><path class="cls-5" d="M819.82,158.2s0-.08,0-.13c0,.1-.05.19-.07.28s0,0,0,0l-.49.29a.94.94,0,0,0,.4-.13c.53-.22.26-1.12-.3-1.08a1,1,0,0,0-.24,0,.6.6,0,0,0-.41.73,1.15,1.15,0,0,0,.06.17.53.53,0,0,0,1-.14Z"/><path class="cls-5" d="M824.36,155.22a.53.53,0,0,0,0-1.05.53.53,0,0,0,0,1.05Z"/><path class="cls-5" d="M826,158.47a.41.41,0,0,0,0-.81.41.41,0,0,0,0,.81Z"/><path class="cls-5" d="M833.42,156.48a1.09,1.09,0,0,0,0-.18.67.67,0,1,0-1.31.18,1.09,1.09,0,0,1,0,.17c.2.69,1.32.58,1.27-.17Z"/><path class="cls-5" d="M833.81,152.46c-.07,0-.1,0,0,0-.47-.19-.92.37-.8.81a.66.66,0,0,0,1.09.28l0,0-.27.16.12-.05a.6.6,0,0,0-.16-1.18Z"/><path class="cls-5" d="M827.16,156.19a.56.56,0,0,0,0-1.12.56.56,0,0,0,0,1.12Z"/><path class="cls-5" d="M831,158.5c0-.06,0-.12,0-.18a.55.55,0,1,0-1.08.15c0,.05,0,.11.05.17.14.57,1.1.47,1-.14Z"/><path class="cls-5" d="M819.8,154.48a.42.42,0,0,0,0-.83.42.42,0,0,0,0,.83Z"/><path class="cls-5" d="M828.32,152.07a.6.6,0,0,0-.45.9.48.48,0,0,0,.87-.12.19.19,0,0,0,0-.08,2.53,2.53,0,0,1-.13.22l-.18.09a.51.51,0,1,0-.13-1Z"/><path class="cls-5" d="M823.07,158.2a.45.45,0,0,0,0-.9.45.45,0,0,0,0,.9Z"/><path class="cls-5" d="M823.37,152.72a.29.29,0,0,0,0-.58.29.29,0,0,0,0,.58Z"/><path class="cls-5" d="M835.48,158.81a.77.77,0,0,0,0-1.53.77.77,0,0,0,0,1.53Z"/><path class="cls-5" d="M830,155.29a.53.53,0,1,0-1-.27c0,.5.77.78,1,.27Z"/><path class="cls-5" d="M821.11,159.77a.47.47,0,0,0,0-.93.47.47,0,0,0,0,.93Z"/><path class="cls-5" d="M817.74,156h.06c.66-.14.38-1.14-.28-1l-.21,0a.52.52,0,0,0-.36.64.53.53,0,0,0,.64.36l.21,0c-.09-.34-.19-.68-.28-1h-.06a.53.53,0,0,0,.28,1Z"/><path class="cls-5" d="M817.8,159.66a.84.84,0,0,0,.66-.49.68.68,0,0,0-.1-.78.83.83,0,0,0-.77-.28.8.8,0,0,0-.79.79.79.79,0,0,0,1,.76Z"/><path class="cls-4" d="M816.48,153.64l.08.08a.66.66,0,0,0,1-.14l0-.09a.73.73,0,1,0-1.15.15Z"/><path class="cls-4" d="M813.64,156.5a.57.57,0,0,0,0-1.13.57.57,0,0,0,0,1.13Z"/><path class="cls-4" d="M816,159.44s0,0,0,.06a.66.66,0,1,0,1.28-.36c0-.07,0-.14,0-.21-.16-.71-1.38-.56-1.29.17l0,.22h1.33v0a.68.68,0,0,0-.67-.67.67.67,0,0,0-.64.84Z"/><path class="cls-4" d="M807.59,160.31c0-.13,0-.1-.05.07l-.18.18h0a.5.5,0,0,0-.27-1,.59.59,0,0,0-.43.83.5.5,0,0,0,1-.13Z"/><path class="cls-4" d="M811.38,158.72a.57.57,0,0,0,0-1.14.57.57,0,0,0,0,1.14Z"/><path class="cls-4" d="M812.91,161.81a.69.69,0,0,0,0-1.37.69.69,0,0,0,0,1.37Z"/><path class="cls-4" d="M815.81,155.5a1.19,1.19,0,0,0-.32-.05c-.87,0-.62,1.41.15,1.12a1.3,1.3,0,0,0,.29-.14.51.51,0,0,0-.12-.93Z"/><path class="cls-4" d="M806.85,157.33a.89.89,0,0,0,.47-.34.58.58,0,0,0-.21-.78.71.71,0,0,0-.43-.1.62.62,0,0,0-.62.62.63.63,0,0,0,.79.6Z"/><path class="cls-4" d="M811.76,154.87a.44.44,0,0,0,0-.87.44.44,0,0,0,0,.87Z"/><path class="cls-4" d="M814.31,153.87l.06,0a.41.41,0,0,0,.64-.08l0-.07a.47.47,0,1,0-.73.1Z"/><path class="cls-4" d="M802.51,162.47c0-.09,0-.1,0,0l-.06.25v0c.28-.47-.41-1-.77-.59a.64.64,0,0,0-.16.53.5.5,0,1,0,1-.13Z"/><path class="cls-4" d="M802.69,160a.54.54,0,0,0,0-1.07.54.54,0,0,0,0,1.07Z"/><path class="cls-4" d="M804.85,158.24a.39.39,0,0,0,0-.77.39.39,0,0,0,0,.77Z"/><path class="cls-4" d="M799.28,160.27a.64.64,0,0,0,0-1.28.64.64,0,0,0,0,1.28Z"/><path class="cls-4" d="M804.72,162a.13.13,0,0,1,0,.06l.83-.23a1.42,1.42,0,0,1,0-.22c-.1-.44-.88-.35-.82.12,0,.11,0,.22,0,.33.07.47.9.36.84-.12a.11.11,0,0,0,0,0,.43.43,0,1,0-.84.11Z"/><path class="cls-4" d="M810.57,162.17a.63.63,0,0,0-.24-.91.67.67,0,0,0-1,.75.68.68,0,0,0,1.22.16Z"/><path class="cls-4" d="M809.4,156.5a.44.44,0,0,0,0-.88.44.44,0,0,0,0,.88Z"/><path class="cls-4" d="M814.42,158.73a.3.3,0,0,0,0-.6.3.3,0,0,0,0,.6Z"/><path class="cls-2" d="M799.11,26.17a17.77,17.77,0,0,0-.51,4.95,13.4,13.4,0,0,0,1.2,5.19.63.63,0,0,0,1.08,0,7.89,7.89,0,0,0,.36-4.49c-.11-.81-.26-1.61-.44-2.41-.25-1.13-.85-2.14-1.12-3.24-.07-.27-.52-.29-.57,0Z"/><path class="cls-2" d="M811,31.09a38.73,38.73,0,0,0,0,6.81c.07,2-.82,4.18,0,6a.58.58,0,0,0,.79.2c1.68-1.21,1.4-3.51,1.29-5.4a28.58,28.58,0,0,0-1.55-7.65c-.08-.23-.5-.3-.54,0Z"/><path class="cls-2" d="M797.73,50.53a14.77,14.77,0,0,0,.51,8c.52,1.8,1.6,5.59,3.91,5.63a.64.64,0,0,0,.64-.63c.18-1.66-1.75-3.63-2.45-5.08a23.74,23.74,0,0,1-2.18-7.84c0-.23-.37-.31-.43-.06Z"/><path class="cls-2" d="M809.66,61.46a21.89,21.89,0,0,0-.88,6.19c-.11,2.19-1,4.6-.61,6.73.07.37.52.39.76.2,1.52-1.2,1.42-3.42,1.48-5.21.09-2.6-.11-5.22-.06-7.82a.35.35,0,0,0-.69-.09Z"/><path class="cls-2" d="M804.14,50.93c0,.6,0,1.22,0,1.81a2.25,2.25,0,0,0,.38,1.72.45.45,0,0,0,.53.07c1.13-.73.87-2.92.24-3.89-.3-.47-1.14-.32-1.1.29Z"/><path class="cls-2" d="M817.79,53.42c-2.58,4.25-2.91,10.22-3.44,15.09a.51.51,0,0,0,.87.36c3.28-4,2.73-10.35,3.23-15.27,0-.37-.49-.45-.66-.18Z"/><path class="cls-2" d="M802.85,81.72a29.2,29.2,0,0,0,.45,7.15c.22,1.76.47,4.2,2.14,5.17a.5.5,0,0,0,.74-.42,5.07,5.07,0,0,0-.47-2.18,19.11,19.11,0,0,1-.78-4c-.22-2-.1-4.16-1.1-6a.53.53,0,0,0-1,.27Z"/><path class="cls-2" d="M812.47,89.87a17,17,0,0,0-.1,6.43c.2,1.89-.24,4.44.82,6a.48.48,0,0,0,.74.1c1.2-1.31.85-3.13.58-4.81-.39-2.55-.85-5.08-1.14-7.65a.46.46,0,0,0-.9-.12Z"/><path class="cls-2" d="M788.76,25.85c-.38,2.48-1.08,6,.67,8.1.23.29.66.09.76-.2.87-2.43-1-5.34-1-7.84,0-.25-.42-.32-.46-.06Z"/><path class="cls-2" d="M791.26,7.74c-.16,2.32.07,4.68,0,7,0,1.94-.57,4,.22,5.78.2.46.83.34,1.06,0,1.14-1.64.78-3.87.65-5.78a39.11,39.11,0,0,0-.93-7.15.52.52,0,0,0-1,.14Z"/><path class="cls-2" d="M804.13,11.3a50.4,50.4,0,0,1,1.14,5.54,20.66,20.66,0,0,0,.7,4.65.4.4,0,0,0,.77,0c1-3.08,0-7.87-1.61-10.61a.55.55,0,0,0-1,.42Z"/><path class="cls-2" d="M814.14,21.9a13,13,0,0,0,1.16,3.8c.5,1.39.63,3,1.39,4.32.16.26.65.33.79,0,.6-1.38.13-2.89-.33-4.26a13.64,13.64,0,0,0-2-4.28.59.59,0,0,0-1,.42Z"/><path class="cls-2" d="M814.73,75.64a8.46,8.46,0,0,0-.31,5,.34.34,0,0,0,.62.08,8.64,8.64,0,0,0,.77-5.08c-.1-.62-.9-.45-1.08,0Z"/><path class="cls-2" d="M801.1,70.17a9.93,9.93,0,0,0-.29,2.6,3,3,0,0,0,.61,2.25.44.44,0,0,0,.69-.09,2.69,2.69,0,0,0,0-2,14,14,0,0,1-.41-2.65.33.33,0,0,0-.64-.08Z"/><path class="cls-2" d="M809.36,108a19.72,19.72,0,0,0,.14,5.89c.24,1.74.37,4.17,1.74,5.41a.76.76,0,0,0,1.29-.53c.07-1.55-.9-3.14-1.33-4.62-.59-2-.71-4.11-1.11-6.15a.38.38,0,0,0-.73,0Z"/><path class="cls-2" d="M815.3,112.69a25,25,0,0,0-.26,5.6c.1,1.94-.15,4.06.53,5.9a.47.47,0,0,0,.85.11c1.86-3.19.25-8.23-.44-11.61a.36.36,0,0,0-.68,0Z"/><path class="cls-2" d="M791.65,42.75c-.21,1.9.45,5.24,2.28,6.19a.43.43,0,0,0,.64-.37,7.25,7.25,0,0,0-.71-2.83c-.35-1-.46-2.14-.8-3.18a.72.72,0,0,0-1.41.19Z"/><path class="cls-2" d="M800.22,42.3c-.32.91-.59,3.07.58,3.45.78.25.78-1,.75-1.44-.06-.61,0-1.23-.08-1.84a.64.64,0,0,0-1.25-.17Z"/><path class="cls-2" d="M817.5,44.34c-.12,1.57-1,3.32-.54,4.88a.44.44,0,0,0,.64.26c1.69-1.17,1.23-3.58.69-5.25a.4.4,0,0,0-.79.11Z"/><path class="cls-1" d="M778.21,18.56c-1.5,3.17-1.43,8.6.79,11.46.28.36.79,0,.81-.34.13-1.85-.58-3.71-.78-5.55s-.06-3.6-.15-5.39c0-.32-.5-.52-.67-.18Z"/><path class="cls-1" d="M772.63,32.5a22.34,22.34,0,0,0,.34,6.77c.33,2.26.44,5.42,1.85,7.28a.83.83,0,0,0,1.53-.42c.24-2.08-.89-4.41-1.39-6.44-.58-2.39-.83-4.86-1.61-7.19-.11-.32-.65-.39-.72,0Z"/><path class="cls-1" d="M780.54,45.43c-.71,2.9-.3,7.23,2.34,9.11.32.22.65-.15.59-.46A23.87,23.87,0,0,0,782,50.41a18.54,18.54,0,0,1-.92-4.9c0-.32-.49-.41-.57-.08Z"/><path class="cls-1" d="M782.66,36.51c.07.77.14,1.54.2,2.32a2.93,2.93,0,0,0,.66,2,.36.36,0,0,0,.55-.08,2.8,2.8,0,0,0,0-1.85,24.78,24.78,0,0,0-.7-2.52c-.12-.35-.73-.32-.69.1Z"/><path class="cls-1" d="M787.53,58.24a5.4,5.4,0,0,0,.24,3.45,8,8,0,0,0,1.5,3.52.39.39,0,0,0,.64-.17,5.44,5.44,0,0,0-.42-3.38,12.71,12.71,0,0,0-1.35-3.5.33.33,0,0,0-.61.08Z"/><path class="cls-1" d="M785.1,70.56A35.31,35.31,0,0,0,786.33,75c.46,1.27,1.09,2.94,2.35,3.55a.44.44,0,0,0,.66-.38c0-1.35-1.05-2.56-1.69-3.73-.71-1.33-1.42-2.67-2.14-4-.12-.23-.46-.07-.41.17Z"/><path class="cls-1" d="M794,87.62c.4,1.38.56,2.82.91,4.21.31,1.2.54,2.61,1.46,3.5a.41.41,0,0,0,.69-.29c.14-1.34-.52-2.8-.9-4.08a15.29,15.29,0,0,0-1.67-3.54.27.27,0,0,0-.49.2Z"/><path class="cls-1" d="M798.35,102.2c.36.88.57,1.82.84,2.73a3.7,3.7,0,0,0,1.22,2.19.47.47,0,0,0,.67-.28,3.72,3.72,0,0,0-.56-2.47,20.94,20.94,0,0,0-1.44-2.47c-.23-.38-.91-.13-.73.3Z"/><path class="cls-1" d="M774.74,14.86A6.08,6.08,0,0,0,772.53,17a4.09,4.09,0,0,0-.56,3.14.4.4,0,0,0,.73.1,13.47,13.47,0,0,0,1-2.53,9.4,9.4,0,0,1,1.37-2.39c.25-.25-.08-.71-.38-.5Z"/><path class="cls-6" d="M810.45,127.75c-.2,3,.81,6.18,1.54,9.08.63,2.54.78,6.07,2.4,8.15.19.25.56.08.64-.17.75-2.29-.57-5.14-1.16-7.4-.84-3.26-1.36-6.58-2.16-9.83-.18-.73-1.21-.52-1.26.17Z"/><path class="cls-6" d="M821.91,127.67a25.14,25.14,0,0,0-.51,8.65c.15,2.69.11,6.44,1.41,8.85.15.28.51.12.54-.14.34-2.78-.61-5.9-.78-8.71s0-5.7,0-8.56a.34.34,0,0,0-.67-.09Z"/><path class="cls-3" d="M934.5,138.79c-26.63,0-48.22,8.84-48.22,14.58h0v21.52h0c0,5.74,21.59,10.39,48.22,10.39s48.22-4.65,48.22-10.39V153.37C982.72,147.63,961.13,138.79,934.5,138.79Z"/><path class="cls-4" d="M934.5,138.3c-26.63,0-48.22,7.64-48.22,13.38v22.71c0-5.73,21.6-10.38,48.22-10.38s48.22,4.65,48.22,10.39V153.47C982.72,147.74,961.13,138.3,934.5,138.3Z"/><path class="cls-4" d="M982.72,177V395.12H886.28V177a2.44,2.44,0,0,1,.26-1.07c2.48-5.24,23-9.32,48-9.32s45.48,4.08,48,9.32A2.44,2.44,0,0,1,982.72,177Z"/><path class="cls-7" d="M892.57,148.55c5.25-2.57,13.59-4.79,22.76-6.05v19.25c-9.27.79-17.1,2.15-22.76,3.94Z"/><path class="cls-7" d="M915.33,170.4l-.18,14L915,198.7l0,2.23-.11,8.12v.82l-.33,25.64v.61l0,1.55v1.26l0,1.46-.09,6.82,0,1.7v1.28l-1.86,144.93H892.57V174.66C897.64,172.76,905.69,171.25,915.33,170.4Z"/><path class="cls-3" d="M915,248.94S900.66,274.39,895.27,275s-9-15.87-7.49-25.75C895.27,248,915,248.94,915,248.94Z"/><path class="cls-8" d="M964.94,163.12a190.9,190.9,0,0,0-29.35-2.1h-2.4V141.31l2.4,0a105.81,105.81,0,0,1,29.35,4.06Z"/><path class="cls-8" d="M964.94,171.83,964.8,183l-.46,35.34-.2,16.21-2.07,160.6H930.3l1.88-146.9.56-43.36.25-19.59.2-15.61,2.4,0q3.25,0,6.45.1c5.78.17,11.33.56,16.4,1.16,1.44.17,2.84.36,4.19.56l.47.07Z"/><path class="cls-9" d="M915.73,200a89.94,89.94,0,0,1,16,4.39c8.38,3.2,11.17,12.78,10,23.56s-5.59,24-20,22.36-14.37-.79-14.37-.79S928.91,230.77,915.73,200Z"/><path class="cls-9" d="M937.29,214s18.77-.4,28,4.79c4,6,4.39,14-.4,15.57s-18.77-7.19-28-3.59A26.9,26.9,0,0,0,937.29,214Z"/><path class="cls-9" d="M946.88,229.17l2.79,26s1.2,7.58,8,6,5.19-10.79,5.19-10.79l-1.6-18.76Z"/><path class="cls-6" d="M868,203.32,793.4,189.64a9.93,9.93,0,0,0-4.33-1c-6.87,0-12.44,7.13-12.44,15.92,0,8.46,5.15,15.37,11.65,15.89l10.09,1.87c4.2,1.92,10.54,5.8,13,12.54,3.89,10.48-7.19,34.44-7.19,34.44l0,0a6.39,6.39,0,0,0-.58,1.34c-1.61,5.36,4,11.78,12.51,14.34s16.74.3,18.35-5.05a6.41,6.41,0,0,0,.27-1.68c.54-3.28,5.37-31.76,10.73-37.12,5-5,10.45-6.93,18.12-6.76l.64.12a10,10,0,0,0,3.52.65c6.87,0,12.43-7.13,12.43-15.92S874.76,203.4,868,203.32Z"/><path class="cls-5" d="M801.5,204.76c0,8.79-5.57,15.92-12.43,15.92s-12.44-7.13-12.44-15.92,5.57-15.92,12.44-15.92S801.5,196,801.5,204.76Z"/><path class="cls-3" d="M905.64,195.32l0,0c-7.45-.79-11.16-1.17-13-1.35-.41-.05-.83-.09-1.25-.12l-.33,0v0l-.76,0c-12.31,0-22.3,12.78-22.3,28.55,0,14.21,8.11,26,18.72,28.19h0l.15,0a17.25,17.25,0,0,0,2.6.31l13.57,1.62a1.42,1.42,0,0,0,.07-.14c.42,0,.84,0,1.27,0,12.31,0,22.29-12.79,22.29-28.56C926.68,208.6,917.37,196.15,905.64,195.32Z"/><path class="cls-6" d="M905.64,195.32l0,0c-7.45-.79-11.16-1.17-13-1.35a18.49,18.49,0,0,1,6.45,2.16c6.82,3.74,11.87,11.71,13.17,21.33a36,36,0,0,1,.34,4.91,33.81,33.81,0,0,1-4.71,17.54,22.71,22.71,0,0,1-12.31,10.21,17.92,17.92,0,0,1-5.28.81c-.28,0-.56,0-.83,0l13.57,1.62a1.42,1.42,0,0,0,.07-.14c.42,0,.84,0,1.27,0,12.31,0,22.29-12.79,22.29-28.56C926.68,208.6,917.37,196.15,905.64,195.32Z"/><path class="cls-3" d="M886.47,193.12l0,0c-7.45-.79-11.15-1.17-12.94-1.34-.42-.06-.84-.1-1.26-.13l-.32,0v0l-.77,0c-12.31,0-22.29,12.78-22.29,28.56,0,14.21,8.1,26,18.72,28.18v0l.16,0a19.92,19.92,0,0,0,2.59.31l13.58,1.61.06-.14c.42,0,.84.05,1.27.05,12.31,0,22.3-12.79,22.3-28.56C907.52,206.4,898.2,194,886.47,193.12Z"/><path class="cls-6" d="M886.47,193.12l0,0c-7.45-.79-11.15-1.17-12.94-1.34a18.41,18.41,0,0,1,6.45,2.15c6.81,3.75,11.86,11.72,13.17,21.34a37.48,37.48,0,0,1,.33,4.91,33.86,33.86,0,0,1-4.7,17.53,22.71,22.71,0,0,1-12.31,10.21,17.71,17.71,0,0,1-5.29.81l-.83,0,13.58,1.61.06-.14c.42,0,.84.05,1.27.05,12.31,0,22.3-12.79,22.3-28.56C907.52,206.4,898.2,194,886.47,193.12Z"/><path class="cls-3" d="M819.1,166.28c-10.75,0-19.47,1.87-19.47,4.19h0V188h0c0,2.32,8.72,4.19,19.47,4.19s19.46-1.87,19.46-4.19V170.47C838.56,168.15,829.85,166.28,819.1,166.28Z"/><path class="cls-4" d="M819.1,166.08c-10.75,0-19.47,1.88-19.47,4.19h0v17.57c0-2.32,8.72-4.19,19.47-4.19s19.46,1.88,19.46,4.19V170.27C838.56,168,829.85,166.08,819.1,166.08Z"/><path class="cls-3" d="M789.09,190.64c-5.88,0-10.64,6.1-10.64,13.63s4.76,13.62,10.64,13.62,10.64-6.1,10.64-13.62S795,190.64,789.09,190.64Zm0,24.69c-4.46,0-8.08-5-8.08-11.06s3.62-11.07,8.08-11.07,8.08,5,8.08,11.07S793.54,215.33,789.09,215.33Z"/><path class="cls-3" d="M794,218.39s15.87,2.1,19.76,13.48-5.39,32.94-4.49,32.64a17.91,17.91,0,0,1,13.58.4s9-24.36,5.29-36.94c-4.22-14.36-22.36-19.07-26.25-18.17C800.23,217.49,794,218.39,794,218.39Z"/><path class="cls-10" d="M868,203.32l-70.84-13a15.14,15.14,0,0,1,5.6,6.21c12,4.49,33.25,17.07,35,32,1.4,11.6-6.56,41.53-11.33,57.21,4.09-.7,7.2-2.76,8.12-5.83a6.41,6.41,0,0,0,.27-1.68c.54-3.28,5.37-31.76,10.73-37.12,5-5,10.45-6.93,18.12-6.76l.64.12a10,10,0,0,0,3.52.65c6.87,0,12.43-7.13,12.43-15.92S874.76,203.4,868,203.32Z"/><path class="cls-3" d="M845.45,224.38c-1.81-15.07-14.13-25.95-14.57-26.56l37.2,6.7h.15c5.81.07,10.54,6.41,10.54,14.12s-4.78,14.12-10.64,14.12a8.24,8.24,0,0,1-2.88-.53l-.15-.06-1-.17H863c-7.81,0-13.33,2.19-18.44,7.3C838.94,244.92,847,236.87,845.45,224.38Z"/><path class="cls-3" d="M834.27,281.15c-1.61,5.36-9.83,7.62-18.35,5.06s-14.12-9-12.51-14.35,9.83-7.62,18.35-5.05S835.88,275.79,834.27,281.15Z"/><path class="cls-5" d="M799.63,170.27h0v17.57c0-2.32,8.72-4.19,19.47-4.19h.4V166.08h-.4C808.35,166.08,799.63,168,799.63,170.27Z"/><path class="cls-6" d="M830.38,189.56c0-1.2-5.1-2.17-11.38-2.17s-11.38,1-11.38,2.17V194c0,2.32,5.09,4.19,11.38,4.19s11.38-1.87,11.38-4.19v-4.47Z"/><path class="cls-3" d="M815.9,195.83c-3.94-.46-6-1.66-6.27-2.21l-.07-3.71a29.14,29.14,0,0,1,6.34-1Z"/><path class="cls-3" d="M912.15,209.53a29.27,29.27,0,0,0-8.71-12.67l1.31.14,0,0,.73.09c7,.5,13.36,5.77,16.77,13.68Z"/><path class="cls-3" d="M904.39,250.59c-.35,0-.73,0-1.14-.05l-1.24-.08,0,.08-2.24-.27a25.85,25.85,0,0,0,9.71-9.47,31,31,0,0,0,1.85-3.53l10.21,1.26C917.72,246,911.32,250.59,904.39,250.59Z"/><path class="cls-3" d="M885.22,248.39c-.35,0-.72,0-1.14,0l-1.23-.09,0,.09-2.25-.27a25.81,25.81,0,0,0,9.71-9.48,31.68,31.68,0,0,0,1.93-3.71l10.22,1.27C898.65,243.76,892.22,248.39,885.22,248.39Z"/><path class="cls-3" d="M892.92,207.14a29.32,29.32,0,0,0-8.65-12.48l1.32.14,0,0,.73.1c6.93.49,13.26,5.68,16.68,13.48Z"/><path class="cls-11" d="M969.8,144.18a99.82,99.82,0,0,0-27.63-5.62c-.11,7.6.45,16.81,1.21,25.63a163.09,163.09,0,0,1,22.33,2.29Z"/><path class="cls-11" d="M945.28,196.83h13.18l5-27.2a165.57,165.57,0,0,0-21.63-2.2C943.27,183.11,945.28,196.83,945.28,196.83Z"/><path class="cls-9" d="M947.68,215.39s-5.39-5.39-4.2-15,6-7.79,10.19-8.39,10.78,3.6,10.18,12a23.42,23.42,0,0,1-6,13.78Z"/><path class="cls-12" d="M980.51,169.57V152.65a20,20,0,0,0-3-2.16V168A17,17,0,0,1,980.51,169.57Z"/><path class="cls-12" d="M980.51,176.76V395.12h-3v-220A17,17,0,0,1,980.51,176.76Z"/><path class="cls-12" d="M962.65,164c-1.36-.2-2.76-.38-4.19-.54v-21c1.42.3,2.82.63,4.19,1Z"/><path class="cls-12" d="M962.65,170.24l0,1.22,0,2.81-.12,9.08-.17,13.53-.18,14.19-.08,6.26-.22,17.08,0,3.5-.26,20.57-1.74,136.64H955.6l1.7-133.92.35-27.82,0-2.41.17-13.18,0-1.74.25-19.22,0-3.89.12-9,.16-13,0-1.21C959.9,169.86,961.3,170,962.65,170.24Z"/><path class="cls-5" d="M821.89,171.42a.55.55,0,0,0,0-1.1.55.55,0,0,0,0,1.1Z"/><path class="cls-5" d="M828.54,177.09a.89.89,0,0,0-1.48-.86.89.89,0,1,0,1.48.86Z"/><path class="cls-5" d="M828.71,172.47c0,.12,0,.14,0,.07l-.22.38a.79.79,0,0,0,.27-.64c-.14.24-.27.48-.41.71h0a.82.82,0,0,0-.41-1.53l.79.6a.82.82,0,0,0-.79-.6h0l.42.11h0a.86.86,0,0,0-1.26.52,1.35,1.35,0,0,0,0,.4.83.83,0,0,0,1.66,0Z"/><path class="cls-5" d="M822.89,177.15a.49.49,0,0,0,0-1,.49.49,0,0,0,0,1Z"/><path class="cls-5" d="M834.67,178a.76.76,0,0,0,0-1.52.76.76,0,0,0,0,1.52Z"/><path class="cls-5" d="M834.28,173.62a.84.84,0,0,0,.3-.11.75.75,0,0,0,0-1.29,1.08,1.08,0,0,0-.3-.11.78.78,0,1,0,0,1.51Z"/><path class="cls-5" d="M831.87,176.48a.42.42,0,0,0,0-.83.42.42,0,0,0,0,.83Z"/><path class="cls-5" d="M829.68,181.13a.48.48,0,0,0,0-.95.48.48,0,0,0,0,.95Z"/><path class="cls-5" d="M824.48,181.94l.25-.1a.68.68,0,0,0,0-1.17l-.25-.11a.72.72,0,1,0,0,1.38Z"/><path class="cls-5" d="M826.28,173.81a.54.54,0,0,0,0-1.08.54.54,0,0,0,0,1.08Z"/><path class="cls-5" d="M831.68,170.63a.56.56,0,0,0,0-1.12.56.56,0,0,0,0,1.12Z"/><path class="cls-5" d="M825.62,170.17a.15.15,0,0,1-.09,0,.5.5,0,0,0,.29.07.4.4,0,0,0,.39-.31c.11-.38-.25-.67-.59-.73a.51.51,0,1,0,0,1Z"/><path class="cls-5" d="M834.87,182a.71.71,0,0,0,0-1.42.71.71,0,0,0,0,1.42Z"/><path class="cls-5" d="M837.27,178.74a.68.68,0,0,0,0-1.36.68.68,0,0,0,0,1.36Z"/><path class="cls-5" d="M837.5,172.07a.57.57,0,0,0,0-.13.63.63,0,0,0-1.25,0s0,.09,0,.13c-.09.82,1.36.82,1.27,0Z"/><path class="cls-5" d="M821.29,180.75a.5.5,0,0,0,0-1,.5.5,0,0,0,0,1Z"/><path class="cls-5" d="M821.69,174.24a.58.58,0,0,0,0-1.15.58.58,0,0,0,0,1.15Z"/><path class="cls-5" d="M837.25,184.7a.75.75,0,0,0,.39-.21.65.65,0,0,0,0-.88.76.76,0,0,0-.39-.22.68.68,0,1,0,0,1.31Z"/><path class="cls-5" d="M819.61,175.12a1,1,0,0,0,.47-.27.83.83,0,0,0,0-1.17,1,1,0,0,0-.47-.27.89.89,0,1,0,0,1.71Z"/><path class="cls-5" d="M820.6,169l0-.05-.22.23-.2,0-.61-.35a1,1,0,0,0,.33.33.83.83,0,0,0,.82,0l0,0a.75.75,0,0,0,.39-.67.79.79,0,0,0-.57-.76l-.07,0a.77.77,0,0,0-.78.2.83.83,0,0,0-.26.6l.09-.36a.74.74,0,0,0-.08.69.59.59,0,0,0,1.07.14Z"/><path class="cls-5" d="M819.47,180.87a1.15,1.15,0,0,0,.65-.32.72.72,0,0,0,0-1,.92.92,0,0,0-1.14-.12.78.78,0,0,0-.27,1.05.36.36,0,0,0,0,.09.64.64,0,0,0,.72.29Z"/><path class="cls-4" d="M819.73,171.22a.81.81,0,0,0,.45-.55l-.35.46.08,0a.72.72,0,0,0,0-1.23l-.08-.05.35.46a.79.79,0,0,0-.45-.54.86.86,0,1,0,0,1.49Z"/><path class="cls-4" d="M819.51,178a.93.93,0,0,0,.56-.41.72.72,0,0,0,0-.75,1,1,0,0,0-.56-.41.83.83,0,0,0-1,.79.82.82,0,0,0,1,.78Z"/><path class="cls-4" d="M819.5,182.49a.64.64,0,0,0,0-1.28.64.64,0,0,0,0,1.28Z"/><path class="cls-4" d="M812.83,174.82l.12,0a.59.59,0,0,0,0-1l-.12,0a.64.64,0,1,0,0,1.11Z"/><path class="cls-4" d="M814.9,178.93a.68.68,0,0,0,0-1.35.68.68,0,0,0,0,1.35Z"/><path class="cls-4" d="M816.7,173.83a.57.57,0,0,0,0-1.13.57.57,0,0,0,0,1.13Z"/><path class="cls-4" d="M803.86,174.38l.12,0a.49.49,0,0,0,0-.93l-.12-.05a.54.54,0,0,0-.67.51c0,.32.35.65.67.52Z"/><path class="cls-4" d="M808.12,178.33a.47.47,0,0,0,0-.94.47.47,0,0,0,0,.94Z"/><path class="cls-4" d="M813.21,181c0-.06.07-.13,0,0,.27-.36-.1-.87-.5-.87a.58.58,0,0,0-.5.87c-.08-.1,0,0,0,0a.52.52,0,0,0,1,0Z"/><path class="cls-4" d="M808.51,173.14a.67.67,0,0,0,0-1.34.67.67,0,0,0,0,1.34Z"/><path class="cls-4" d="M815.5,170.66a.59.59,0,0,0,0-1.18.59.59,0,0,0,0,1.18Z"/><path class="cls-4" d="M804.39,182.31l.12-.05a.48.48,0,0,0,0-.81l-.12-.06a.53.53,0,1,0,0,.92Z"/><path class="cls-4" d="M808.84,181.9a1.34,1.34,0,0,0,.39-.11.39.39,0,0,0,0-.68,1.32,1.32,0,0,0-.39-.1.46.46,0,1,0,0,.89Z"/><path class="cls-4" d="M818.22,181.2l-.14,0a.49.49,0,1,0,0,.95l.14,0a.48.48,0,0,0,0-.91Z"/><path class="cls-4" d="M802.92,178.34a.49.49,0,0,0,0-1,.49.49,0,0,0,0,1Z"/><path class="cls-4" d="M806.12,176.72a.46.46,0,0,0,0-.92.46.46,0,0,0,0,.92Z"/><path class="cls-4" d="M811.31,169.53a.46.46,0,0,0,0-.91.46.46,0,0,0,0,.91Z"/><path class="cls-4" d="M804.92,171.4a.53.53,0,0,0,0-1.06.53.53,0,0,0,0,1.06Z"/><path class="cls-4" d="M811.64,177.37c0-.05.06-.05,0,0a.73.73,0,1,0-1,0c-.07-.07,0-.07,0,0a.62.62,0,0,0,1.06,0Z"/><path class="cls-4" d="M812.61,171.39a.47.47,0,0,0,0-.94.47.47,0,0,0,0,.94Z"/><path class="cls-4" d="M807.82,169a.37.37,0,0,0,0-.73.37.37,0,0,0,0,.73Z"/><path class="cls-4" d="M801.68,183.63a.44.44,0,0,0,0-.87.44.44,0,0,0,0,.87Z"/><path class="cls-4" d="M817.85,168.12a.5.5,0,0,0,0-1,.5.5,0,0,0,0,1Z"/><path class="cls-6" d="M790.19,194.87c3,2,3.79,5.61,4,9a13.53,13.53,0,0,1-.73,5.13c-.5,1.41-1.65,2.35-2.31,3.66a.63.63,0,0,0,.53.93c4.39.3,4.92-6.79,4.72-9.72-.23-3.3-2-9.11-5.78-10a.51.51,0,0,0-.39.93Z"/><path class="cls-6" d="M840.37,246.22c-1.29,4-2.79,7.93-3.94,12-1.1,3.87-2.83,8.23-2.83,12.27,0,.25.38.38.5.13,1.6-3.35,2.09-7.43,3-11,1.19-4.43,2.2-8.92,3.4-13.34a.09.09,0,0,0-.18-.05Z"/><path class="cls-10" d="M846.16,216a41.88,41.88,0,0,1,1.41,8c.19,2.8-.55,5.56-.4,8.34a.28.28,0,0,0,.54.07c2-4.8,1.13-12-1.38-16.5a.1.1,0,0,0-.17.08Z"/><path class="cls-10" d="M849.32,217.23a25.16,25.16,0,0,1,.75,4.66,36.82,36.82,0,0,0,.21,4.33.17.17,0,0,0,.33,0c.47-2.77.83-6.81-1.08-9.12-.08-.1-.23,0-.21.13Z"/><path class="cls-3" d="M840.18,212.85a39.31,39.31,0,0,1,2.78,7.28c.7,2.6.65,5.27,1.08,7.9a.22.22,0,0,0,.42,0c1-4.88-.9-11.56-4.13-15.3-.08-.09-.2,0-.15.12Z"/><path class="cls-3" d="M838.38,214.64a26.78,26.78,0,0,1,2.36,4.88,28.18,28.18,0,0,1,.88,4.92c0,.25.42.23.48,0,.85-3.62-1.17-7.35-3.57-9.91-.07-.08-.2,0-.15.11Z"/><path class="cls-10" d="M849.22,203.52a127.22,127.22,0,0,0,18.19,3.7c.26,0,.26-.33.06-.41-5.57-2.33-12.3-2.37-18.2-3.5a.11.11,0,0,0,0,.21Z"/><path class="cls-6" d="M826.15,232.8a29.45,29.45,0,0,1-.56,13.07c-.85,3.33-2.42,6.79-2.53,10.25a.23.23,0,0,0,.45.06,80.14,80.14,0,0,0,3.41-13c.72-3.47,1-7.17-.52-10.46-.07-.15-.27,0-.25.1Z"/><path class="cls-3" d="M830.17,238.36c-.26,5.61-2.35,10.84-2.88,16.37,0,.19.29.27.36.1,2.19-5,2.81-11,2.73-16.47a.11.11,0,1,0-.21,0Z"/><path class="cls-3" d="M816.61,189c-.27,2.48-.5,5.64.32,8a.18.18,0,0,0,.35,0c.16-2.49.42-5.66-.49-8a.09.09,0,0,0-.18,0Z"/><path class="cls-10" d="M818.11,189.19a8.15,8.15,0,0,0-.22,2.26,9,9,0,0,0,.2,2.64.22.22,0,0,0,.42,0,8.25,8.25,0,0,0,.2-2.27,9.65,9.65,0,0,0-.22-2.63.2.2,0,0,0-.38,0Z"/><path class="cls-3" d="M892.8,234.2c1.39.27,2.81.38,4.22.54a29.18,29.18,0,0,0,4.84.48c.32,0,.52-.51.18-.67a16.91,16.91,0,0,0-9.24-.82.25.25,0,0,0,0,.47Z"/><path class="cls-3" d="M914.06,236a22,22,0,0,0,2.92.4,8,8,0,0,0,2.92-.11.28.28,0,0,0,0-.54,7.77,7.77,0,0,0-2.5-.18,32.51,32.51,0,0,1-3.27-.14c-.32,0-.39.51-.07.57Z"/><path class="cls-3" d="M915.63,234.72a46.92,46.92,0,0,0,6.89.62.18.18,0,0,0,.05-.36c-2.17-.63-4.69-.34-6.94-.58-.21,0-.2.3,0,.32Z"/><path class="cls-3" d="M895.27,232.38c2.47.33,5,.67,7.48.86.22,0,.22-.28,0-.34-2.3-.92-5.11-.71-7.53-.94-.28,0-.27.38,0,.42Z"/><path class="cls-3" d="M895.27,209.41c2.38.14,4.8.61,7.18.56a.27.27,0,0,0,.14-.5c-2.21-1.14-4.92-.8-7.32-.67a.31.31,0,0,0,0,.61Z"/><path class="cls-3" d="M896.16,211.29a25.29,25.29,0,0,1,3.47.42,9.42,9.42,0,0,0,2.52.32c.21,0,.35-.33.12-.43-1.78-.78-4.21-.53-6.11-.49a.09.09,0,0,0,0,.18Z"/><path class="cls-3" d="M915.58,212.28a53.76,53.76,0,0,0,6,.94c.23,0,.3-.31.12-.42-1.79-1.06-4.12-.71-6.11-.88-.2,0-.25.32,0,.36Z"/><path class="cls-6" d="M914.71,209.17a14.42,14.42,0,0,0,5.46.41.18.18,0,0,0,0-.35c-1.78-.34-3.64,0-5.44-.2-.08,0-.09.13,0,.14Z"/><path class="cls-6" d="M913.21,238.56c1.44.42,3.06,1,4.57.68a.2.2,0,0,0,0-.38,32.85,32.85,0,0,0-4.54-.51c-.13,0-.14.17,0,.21Z"/><path class="cls-6" d="M893.4,236.62a12.17,12.17,0,0,0,3,.78,8.5,8.5,0,0,0,2.51.16A.32.32,0,0,0,899,237a5.28,5.28,0,0,0-2.09-.43,30,30,0,0,1-3.39-.47.27.27,0,0,0-.14.53Z"/><path class="cls-6" d="M897.06,206.54a13,13,0,0,0,3,.3c.13,0,.13-.24,0-.27a13,13,0,0,0-3-.29.13.13,0,0,0,0,.26Z"/><path class="cls-6" d="M827.47,208.92c4.75,5.1,9.37,8.87,10.66,16.12a.24.24,0,0,0,.46,0c1.12-6-6-13.86-10.93-16.37a.16.16,0,0,0-.19.25Z"/><path class="cls-10" d="M783.17,197.07c-2.52,3.77-3.18,9.82-.41,13.65.15.19.49.08.41-.18a21.57,21.57,0,0,1-1.15-6.9,34.46,34.46,0,0,1,1.33-6.49.1.1,0,0,0-.18-.08Z"/><path class="cls-4" d="M895.91,284.88c-1,7.64-.32,15.66-.37,23.36s0,15.62,0,23.43c0,15.74-.16,31.51.42,47.24a.26.26,0,0,0,.51,0c.58-15.73.42-31.5.42-47.24,0-7.81,0-15.62-.05-23.43s.63-15.72-.37-23.36a.25.25,0,0,0-.51,0Z"/><path class="cls-7" d="M918.11,273.49c-.47,12.28-.35,24.56-.36,36.84s-.22,24.57.35,36.84a.23.23,0,0,0,.46,0c.57-12.27.35-24.56.34-36.84s.11-24.56-.36-36.84a.22.22,0,0,0-.43,0Z"/><path class="cls-7" d="M921.24,311.23c-1.12,19.29-.38,38.79-.07,58.1a.15.15,0,0,0,.3,0c.31-19.31,1.06-38.81-.07-58.1a.08.08,0,0,0-.16,0Z"/><path class="cls-12" d="M955.3,230.37c-.63,13.46-.41,27-.44,40.44,0,13.86-.27,27.76.29,41.62a.32.32,0,0,0,.63,0c.55-13.46.33-27,.29-40.44,0-13.87.2-27.76-.44-41.62a.16.16,0,0,0-.33,0Z"/><path class="cls-12" d="M966,213c-1,11.78-.43,23.81-.47,35.64s-.2,23.76.36,35.64a.33.33,0,0,0,.66,0c.55-11.88.4-23.76.35-35.64s.54-23.85-.47-35.64a.22.22,0,0,0-.43,0Z"/><path class="cls-12" d="M955.36,144.12c-.17,5.24-1.1,10.41-.2,15.65a.32.32,0,0,0,.61,0c.89-5.24,0-10.41-.2-15.65a.11.11,0,1,0-.21,0Z"/><path class="cls-4" d="M894.84,149.51c-.32,3.61-.82,7.24-.18,10.86a.32.32,0,0,0,.62,0c.63-3.62.14-7.25-.19-10.86a.13.13,0,1,0-.25,0Z"/><path class="cls-4" d="M896.54,153.1c-.09,2.69-.59,5.82,0,8.46a.29.29,0,0,0,.55,0c.54-2.64,0-5.77,0-8.46a.23.23,0,0,0-.45,0Z"/><path class="cls-7" d="M916.32,145.31c-.17,3.95-.86,8.16-.05,12.06a.27.27,0,0,0,.52,0c.81-3.9.12-8.11,0-12.06a.21.21,0,0,0-.42,0Z"/><path class="cls-7" d="M919.3,147.71a63.82,63.82,0,0,0,0,9.58.24.24,0,0,0,.47,0,63.82,63.82,0,0,0,0-9.58.23.23,0,0,0-.45,0Z"/><path class="cls-7" d="M918.1,180.65a120.76,120.76,0,0,0-.05,15,.28.28,0,0,0,.56,0,122.73,122.73,0,0,0-.06-15,.23.23,0,0,0-.45,0Z"/><path class="cls-7" d="M942.21,343a329.44,329.44,0,0,0-.11,34.14.19.19,0,0,0,.38,0,332.25,332.25,0,0,0-.12-34.14.08.08,0,1,0-.15,0Z"/><path class="cls-7" d="M944.58,351.36c-.75,6.56-.4,13.18-.14,19.77a.25.25,0,0,0,.49,0c.25-6.59.6-13.21-.14-19.77a.11.11,0,0,0-.21,0Z"/><path class="cls-12" d="M768.77,402.64l36.48-126.75A13.44,13.44,0,0,1,819,270.8c9.28,1.8,10.48,8.09,9.58,12S804.3,402.64,804.3,402.64Z"/><path class="cls-12" d="M787.67,306.63s-10.12-27.07-14.18-20.27c-3.58,6,3,6.75,7.5,11.19A42.22,42.22,0,0,1,787.67,306.63Z"/><path class="cls-13" d="M776,345.74s-28.81,2.28-23.38,8.06c4.78,5.09,7.33-1.08,12.82-4.13A41.72,41.72,0,0,1,776,345.74Z"/><path class="cls-12" d="M826.41,325.49s9.21-15.31,10.91-10.71c1.49,4.05-2.62,3.75-5.82,6A25.8,25.8,0,0,0,826.41,325.49Z"/><path class="cls-13" d="M808.76,277.88c-3.3,11.91-6.35,23.85-9.32,35.84-1.53,6.21-3,12.43-4.42,18.66-1.49,6.51-3.29,13.19-3.76,19.88,0,.61.82.65,1,.14,2.23-6.26,3.35-13,4.82-19.46,1.41-6.23,2.91-12.44,4.38-18.66,2.86-12,5.75-24,8.06-36.19a.39.39,0,0,0-.76-.21Z"/><path class="cls-13" d="M817.17,274.9c-3.38,15.78-6.78,31.56-10.34,47.3-3.74,16.51-7.77,33.05-10.53,49.75-.06.35.44.5.52.15,4-16.45,7.6-33,11.34-49.53,3.55-15.75,7.23-31.52,9.72-47.48.07-.46-.61-.66-.71-.19Z"/><path class="cls-13" d="M823.89,282.72q-2.34,11.82-4.77,23.64c-1.79,8.67-4.13,17.29-5.59,26a.42.42,0,0,0,.8.22c5.16-16.07,7.09-33.19,10-49.76,0-.29-.39-.42-.45-.12Z"/><path class="cls-13" d="M121.15,366.57c-5-15.48,25.37-53.61,40.11-33.53,1.17-13.63,8.92-19.3,22.83-23.43,15.39-4.58,21,.61,30.61,11.07,14.32-26.89,57.37-12.62,58.87,14.87,12.68-11.23,41.89,7,35.36,24,51.77-11,30.29,66.5-10.41,70-13,1.11-23-10.35-34.3-15.76-18.12-8.66-36.63-8.42-56-10.81-14.63-1.81-85.37,5.35-88.17-12.33a15,15,0,0,1,1.14-8Z"/><path class="cls-13" d="M899,375.51c4.27-12.42,39.15-32.29,46.26-10.32,7.8-9.32,24.62-5.09,23.92,8.19,30.75-7.47,23.27,31.18,5.85,43.41-9.42,6.61-26.45,10-34.3.82-7.72-9.06-10.29-23-19.73-30.1Z"/><path class="cls-13" d="M773,350.51c3-12,28.93-34.82,36-14.35,9.06-22.68,28.27-8.09,40,.45,12.56-13.73,52-5.21,43.13,16.73,23.63-2.64,24.24,47.53-2.08,50.17-24.23,2.43-55.9-4.28-79.09-11.25-14.92-4.48-28.3-13.3-34.83-26.65.15,2.64,1.73.92,2.87,1.9Z"/><path class="cls-13" d="M22.14,374.51C13.82,357,46.7,328,56.9,352.44c3.68-8.92,20.57-6,19.39,4.92,19.26-2.84,20.68,22.2,6.91,30.15-13.45,7.77-38.92-4.33-45.06,0Z"/><path class="cls-13" d="M330.14,419.51c-3.25-11.93-3.68-28.78,8-39.77,10.39-9.78,26.42-14,33,1.47,2.56-17.52,27.86-41.79,43-20,2-28.85,40.59-35.82,40.1-.72,12.81-7.7,46.75-1.59,30.2,17.69,15.3-6.83,38.19-1.18,35.85,19.28,16.17-11.7,62.47,11.83,43.57,33.9-8.62,10.07-31.71,14.47-43.56,21-15.65,8.61-31.57,21.43-48.39,26.95-48.78,16-101.1-14.32-137.6-42.95a38.08,38.08,0,0,1-5.23-4.78Z"/><path class="cls-12" d="M953,413.25c-.6-9-15.87-43.13-40.43-44.92s-35,22.46-35,22.46,2.65-13.23-19.51-18.62-32.34,4.2-32.34,4.2-3-18-15.58-22.17-20.36,0-20.36,0,0-10.18-4.79-15-12-3-15.58.6c0,0,.8-12.58-8.78-13.78s-13.58,2.8-13.58,2.8-2.48-11.14-9.58-12.78c-10.38-2.4-16.37,6.39-16.37,6.39-2.8-3.2-9.09-4.69-17.57-3-12,2.4-11.38,19.17-11.38,19.17s-8-28.15-35.94-27.55c-28.16.6-33.55,23.36-33.55,23.36s-10.78-3-18,1.8-7.78,17.37-7.78,17.37-10.18-10.79-28.15,3.59-9.59,34.14-9.59,34.14-10.78-9.58-31.15-4.79-25.75,25.75-25.75,25.75-12-13.17-31.75-6.58-18,30.54-18,30.54-15-16.17-32.34-6c-.49.29-1,.6-1.43.93-1.53-11.85-6.42-22.8-18-30.51-15.33-10.22-40.95-10.36-54.57,1.72.74-35.57-39.91-46.48-59.95-19-7.58-17.29-20.57-40-40.17-46.21-21.15-6.69-43.27,17.08-51.85,34-1.35-13.17-18-17.93-29.22-14.47-14.6,4.49-17.36,16.67-23.76,27.69-5-10.33-22.19-26.22-34.25-27-13-.8-33.55,13.74-37.15,25.92C60,379.89,53.91,366.73,45,360.46a52.42,52.42,0,0,0-28.25-9.95A52,52,0,0,0,0,353.17V562.65H1000v-179C967.65,379.41,965.6,405.46,953,413.25Z"/><path class="cls-13" d="M690,472.87c-27.86-28.75-65.38-2.84-68.58,25.91-11-6.84-27.78-5.5-40.28.23-7.89-13.43-30.4-12.67-41.18,3.5-23.71-17.58-40.83,10.51-40.45,21,10.06-8.33,22.86-12.66,31.3-3.21,10.36-9.45,26.64-12.74,35.51-1.68,14.49-17.27,54.1-5.67,72.61,9.91,3.8-28.69,27-54.39,56.54-45.19,9.32-14.88,29.3-23.79,47.93-24C727,452.21,701,462.58,690,472.87Z"/><path class="cls-13" d="M791.64,436.51c9.74-20.46,35.25-30.27,44.75-4.07,5.36-21.84,58.49-14.1,61.3,9.12,1.84,15.17-8.86,26.17-17.65,37.1,10.37-11.08,1.48-30.16-11.23-37.15-13.33-7.33-28.13-1.06-42,7.9C827.48,416.85,791.64,436.51,791.64,436.51Z"/><path class="cls-13" d="M336.14,520.51c-10.58-18.46,8.72-45,29.8-33.1-.55-23.22,16.92-44,37.21-21.8,15.59-7.91,32.22,4,36.09,19.53-13.75-6-31.4-3.23-41.87,7.27-8.38-15-26.29,3.47-25.16,15.8-8.44-10.14-26.62-2.18-33.07,7.3Z"/><path class="cls-13" d="M592.14,446.85c-15.8-7.46,4.34-36.34,24.34-28.34-1-20.36-.55-35,21.89-44.46,16.77-7.05,31.75,3.14,32.59,20.45-29.77-20.58-40.05,20.45-39.77,42C597.14,418.51,592.14,446.85,592.14,446.85Z"/><path class="cls-13" d="M20.7,450c9.4-21.43,47.08-32.2,52.72-1.65,19.33-11.77,37.39-1,37.51,20.91,29.77-4.91,37.55,12,37.2,38.71,16.74-19.42,68.78-19.93,64.56,14.24-9.71-22.11-58.67-2.5-72.1,8.22.79-21.45-20.45-42.66-41.66-35.59,1.95-28-17.86-38.6-40.42-25.5C59.48,437.51,20.7,450,20.7,450Z"/></g></g></svg>