<svg xmlns="http://www.w3.org/2000/svg" xmlns:xlink="http://www.w3.org/1999/xlink" viewBox="0 0 970.17 623.77"><defs><style>.cls-1{fill:none;}.cls-2{clip-path:url(#clip-path);}.cls-3{fill:#353158;}.cls-4{fill:#353159;}.cls-5{fill:#36315a;}.cls-6{fill:#36305b;}.cls-7{fill:#37305c;}.cls-8{fill:#37305d;}.cls-9{fill:#38305e;}.cls-10{fill:#38305f;}.cls-11{fill:#393060;}.cls-12{fill:#392f61;}.cls-13{fill:#392f62;}.cls-14{fill:#3a2f63;}.cls-15{fill:#3a2f64;}.cls-16{fill:#3b2f65;}.cls-17{fill:#3b2e66;}.cls-18{fill:#3c2e67;}.cls-19{fill:#3c2e68;}.cls-20{fill:#3d2e69;}.cls-21{fill:#3d2e6a;}.cls-22{fill:#3d2e6b;}.cls-23{fill:#3e2d6c;}.cls-24{fill:#3e2d6d;}.cls-25{fill:#3f2d6f;}.cls-26{fill:#3f2d70;}.cls-27{fill:#402d71;}.cls-28{fill:#402c72;}.cls-29{fill:#402c73;}.cls-30{fill:#412c74;}.cls-31{fill:#412c75;}.cls-32{fill:#422c76;}.cls-33{fill:#422c77;}.cls-34{fill:#432b78;}.cls-35{fill:#432b79;}.cls-36{fill:#442b7a;}.cls-37{fill:#442b7b;}.cls-38{fill:#442b7c;}.cls-39{fill:#452b7d;}.cls-40{fill:#452a7e;}.cls-41{fill:#462a7f;}.cls-42{fill:#462a80;}.cls-43{fill:#472a81;}.cls-44{fill:#472a82;}.cls-45{fill:#482983;}.cls-46{fill:#482984;}.cls-47{fill:#482985;}.cls-48{fill:#492986;}.cls-49{fill:#492987;}.cls-50{fill:#4a2988;}.cls-51{fill:#4a2889;}.cls-52{fill:#4b288a;}.cls-53{fill:#4b288b;}.cls-54{fill:#4b298c;}.cls-55{fill:#4b2a8d;}.cls-56{fill:#4b2a8e;}.cls-57{fill:#4b2b8f;}.cls-58{fill:#4b2c90;}.cls-59{fill:#4b2d91;}.cls-60{fill:#4c2d92;}.cls-61{fill:#4c2e93;}.cls-62{fill:#4c2f94;}.cls-63{fill:#4c3095;}.cls-64{fill:#4c3196;}.cls-65{fill:#4c3197;}.cls-66{fill:#4c3298;}.cls-67{fill:#4c3399;}.cls-68{fill:#4c349a;}.cls-69{fill:#4c349b;}.cls-70{fill:#4c359c;}.cls-71{fill:#4c369d;}.cls-72{fill:#4d379e;}.cls-73{fill:#4d379f;}.cls-74{fill:#4d38a0;}.cls-75{fill:#4d39a1;}.cls-76{fill:#4d3aa2;}.cls-77{fill:#4d3ba3;}.cls-78{fill:#4d3ba4;}.cls-79{fill:#4d3ca5;}.cls-80{fill:#4d3da6;}.cls-81{fill:#4d3ea7;}.cls-82{fill:#4d3ea8;}.cls-83{fill:#4d3fa9;}.cls-84{fill:#4e40ab;}.cls-85{fill:#4e41ac;}.cls-86{fill:#4e42ad;}.cls-87{fill:#4e42ae;}.cls-88{fill:#4e43af;}.cls-89{fill:#4e44b0;}.cls-90{fill:#4e45b1;}.cls-91{fill:#4e45b2;}.cls-92{fill:#4e46b3;}.cls-93{fill:#4e47b4;}.cls-94{fill:#4e48b5;}.cls-95{fill:#4e49b6;}.cls-96{fill:#4e49b7;}.cls-97{fill:#4f4ab8;}.cls-98{fill:#4f4bb9;}.cls-99{fill:#4f4cba;}.cls-100{fill:#4f4cbb;}.cls-101{fill:#4f4dbc;}.cls-102{fill:#4f4ebd;}.cls-103{fill:#4f4fbe;}.cls-104{fill:#4f4fbf;}.cls-105{fill:#4f50c0;}.cls-106{fill:#4f51c1;}.cls-107{fill:#4f52c2;}.cls-108{fill:#4f53c3;}.cls-109{fill:#5053c4;}.cls-110{fill:#5054c5;}.cls-111{fill:#5055c6;}.cls-112{fill:#5056c7;}.cls-113{fill:#5056c8;}.cls-114{fill:#5057c9;}.cls-115,.cls-322{fill:#5058ca;}.cls-116{fill:#5059ca;}.cls-117{fill:#4f5acb;}.cls-118,.cls-323{fill:#4f5bcb;}.cls-119{fill:#4f5ccc;}.cls-120{fill:#4f5dcc;}.cls-121{fill:#4e5ecc;}.cls-122,.cls-324{fill:#4e5fcd;}.cls-123{fill:#4e60cd;}.cls-124{fill:#4e61ce;}.cls-125,.cls-325{fill:#4d62ce;}.cls-126{fill:#4d63ce;}.cls-127{fill:#4d64cf;}.cls-128,.cls-326{fill:#4d65cf;}.cls-129{fill:#4c66cf;}.cls-130{fill:#4c67d0;}.cls-131{fill:#4c68d0;}.cls-132{fill:#4c69d1;}.cls-133{fill:#4b6ad1;}.cls-134{fill:#4b6bd1;}.cls-135,.cls-328{fill:#4b6cd2;}.cls-136{fill:#4b6dd2;}.cls-137{fill:#4a6ed3;}.cls-138,.cls-329{fill:#4a6fd3;}.cls-139{fill:#4a70d3;}.cls-140{fill:#4a71d4;}.cls-141{fill:#4972d4;}.cls-142{fill:#4973d5;}.cls-143{fill:#4974d5;}.cls-144{fill:#4875d5;}.cls-145,.cls-331{fill:#4876d6;}.cls-146{fill:#4877d6;}.cls-147{fill:#4878d7;}.cls-148,.cls-332{fill:#4779d7;}.cls-149{fill:#477ad7;}.cls-150{fill:#477bd8;}.cls-151,.cls-333{fill:#477cd8;}.cls-152{fill:#467dd9;}.cls-153{fill:#467ed9;}.cls-154{fill:#467fd9;}.cls-155,.cls-334{fill:#4680da;}.cls-156{fill:#4581da;}.cls-157{fill:#4582da;}.cls-158,.cls-335{fill:#4583db;}.cls-159{fill:#4584db;}.cls-160{fill:#4485dc;}.cls-161,.cls-336{fill:#4486dc;}.cls-162{fill:#4487dc;}.cls-163{fill:#48d;}.cls-164{fill:#4389dd;}.cls-165{fill:#438ade;}.cls-166{fill:#438bde;}.cls-167{fill:#438cde;}.cls-168,.cls-338{fill:#428ddf;}.cls-169{fill:#428edf;}.cls-170{fill:#428fe0;}.cls-171,.cls-339{fill:#4190e0;}.cls-172{fill:#4191e0;}.cls-173{fill:#4192e1;}.cls-174{fill:#4193e1;}.cls-175{fill:#4094e2;}.cls-176{fill:#4095e2;}.cls-177{fill:#4096e2;}.cls-178,.cls-341{fill:#4097e3;}.cls-179{fill:#3f98e3;}.cls-180{fill:#3f99e4;}.cls-181,.cls-342{fill:#3f9ae4;}.cls-182{fill:#3f9be4;}.cls-183{fill:#3e9de5;}.cls-184,.cls-343{fill:#3e9ee5;}.cls-185{fill:#3e9fe5;}.cls-186{fill:#3ea0e6;}.cls-187,.cls-344{fill:#3da1e6;}.cls-188{fill:#3da2e7;}.cls-189{fill:#3da3e7;}.cls-190{fill:#3da4e7;}.cls-191{fill:#3ca5e8;}.cls-192{fill:#3ca6e8;}.cls-193{fill:#3ca7e9;}.cls-194,.cls-346{fill:#3ca8e9;}.cls-195{fill:#3ba9e9;}.cls-196{fill:#3baaea;}.cls-197,.cls-347{fill:#3babea;}.cls-198{fill:#3aaceb;}.cls-199{fill:#3aadeb;}.cls-200{fill:#3aaeeb;}.cls-201{fill:#3aafec;}.cls-202{fill:#39b0ec;}.cls-203{fill:#39b1ed;}.cls-204,.cls-349{fill:#39b2ed;}.cls-205{fill:#39b3ed;}.cls-206{fill:#38b4ee;}.cls-207,.cls-350{fill:#38b5ee;}.cls-208{fill:#38b6ef;}.cls-209{fill:#38b7ef;}.cls-210,.cls-351{fill:#37b8ef;}.cls-211{fill:#37b9f0;}.cls-212{fill:#37baf0;}.cls-213{fill:#37bbf0;}.cls-214,.cls-352{fill:#36bcf1;}.cls-215{fill:#36bdf1;}.cls-216{fill:#36bef2;}.cls-217,.cls-353{fill:#36bff2;}.cls-218{fill:#35c0f2;}.cls-219{fill:#35c1f3;}.cls-220,.cls-354{fill:#35c2f3;}.cls-221{fill:#35c3f4;}.cls-222{fill:#34c4f4;}.cls-223{fill:#34c5f4;}.cls-224{fill:#34c6f5;}.cls-225{fill:#33c7f5;}.cls-226{fill:#33c8f6;}.cls-227,.cls-356{fill:#33c9f6;}.cls-228{fill:#33caf6;}.cls-229{fill:#32cbf7;}.cls-230,.cls-357{fill:#32ccf7;}.cls-231{fill:#32cdf8;}.cls-232{fill:#32cef8;}.cls-233{fill:#31cff8;}.cls-234{fill:#31d0f9;}.cls-235{fill:#31d1f9;}.cls-236{fill:#31d2fa;}.cls-237,.cls-359{fill:#30d3fa;}.cls-238{fill:#30d4fa;}.cls-239{fill:#30d5fb;}.cls-240,.cls-360{fill:#30d6fb;}.cls-241{fill:#2fd7fb;}.cls-242{fill:#2fd8fc;}.cls-243,.cls-361{fill:#2fd9fc;}.cls-244{fill:#2fdafd;}.cls-245{fill:#2edbfd;}.cls-246{fill:#2edcfd;}.cls-247,.cls-362{fill:#2eddfe;}.cls-248{fill:#2edefe;}.cls-249{fill:#2ddfff;}.cls-250{fill:#2de0ff;}.cls-251{opacity:0.5;fill:url(#linear-gradient);}.cls-252,.cls-321{opacity:0.6;}.cls-252{fill:url(#linear-gradient-2);}.cls-253{fill:#2e2d4e;}.cls-254{clip-path:url(#clip-path-2);}.cls-255{fill:#2d2d50;}.cls-256{fill:#2e2d51;}.cls-257{fill:#2f2e52;}.cls-258{fill:#2f2e53;}.cls-259{fill:#302f54;}.cls-260{fill:#312f55;}.cls-261{fill:#322f56;}.cls-262{fill:#333057;}.cls-263{fill:#333058;}.cls-264{fill:#343159;}.cls-265{fill:#35315a;}.cls-266{fill:#36315b;}.cls-267{fill:#37325c;}.cls-268{fill:#37325d;}.cls-269{fill:#38325e;}.cls-270{fill:#39335f;}.cls-271{fill:#3a3360;}.cls-272{fill:#3b3461;}.cls-273{fill:#3c3463;}.cls-274{fill:#3c3464;}.cls-275{fill:#3d3565;}.cls-276{fill:#3e3566;}.cls-277{fill:#3f3667;}.cls-278{fill:#403668;}.cls-279{fill:#403669;}.cls-280{fill:#41376a;}.cls-281{fill:#42376b;}.cls-282{fill:#43386c;}.cls-283{fill:#44386d;}.cls-284{fill:#44386e;}.cls-285{fill:#45396f;}.cls-286{fill:#463970;}.cls-287{fill:#473971;}.cls-288{fill:#483a72;}.cls-289{fill:#483a73;}.cls-290{fill:#493b74;}.cls-291{fill:#4a3b75;}.cls-292{fill:#231c38;}.cls-293,.cls-295,.cls-317{opacity:0.3;}.cls-293{fill:url(#linear-gradient-3);}.cls-294{fill:#f1f1e5;}.cls-296{fill:#352c48;}.cls-296,.cls-322{opacity:0;}.cls-297{fill:#3e354f;opacity:0.05;}.cls-298{fill:#473f57;opacity:0.1;}.cls-299{fill:#50485e;opacity:0.14;}.cls-300{fill:#595266;opacity:0.19;}.cls-301{fill:#625b6d;opacity:0.24;}.cls-302{fill:#6b6475;opacity:0.29;}.cls-303{fill:#746e7c;opacity:0.33;}.cls-304{fill:#7d7784;opacity:0.38;}.cls-305{fill:#86808b;opacity:0.43;}.cls-306{fill:#8f8a93;opacity:0.48;}.cls-307{fill:#97939a;opacity:0.52;}.cls-308{fill:#a09da2;opacity:0.57;}.cls-309{fill:#a9a6a9;opacity:0.62;}.cls-310{fill:#b2afb1;opacity:0.67;}.cls-311{fill:#bbb9b8;opacity:0.71;}.cls-312{fill:#c4c2c0;opacity:0.76;}.cls-313{fill:#cdcbc7;opacity:0.81;}.cls-314{fill:#d6d5cf;opacity:0.86;}.cls-315{fill:#dfded6;opacity:0.9;}.cls-316{fill:#e8e8de;opacity:0.95;}.cls-317{fill:#201a33;}.cls-318,.cls-319{fill:#fff;}.cls-318{opacity:0.8;}.cls-320{fill:url(#linear-gradient-4);}.cls-323{opacity:0.02;}.cls-324{opacity:0.05;}.cls-325{opacity:0.07;}.cls-326{opacity:0.1;}.cls-327{fill:#4c69d0;opacity:0.12;}.cls-328{opacity:0.15;}.cls-329{opacity:0.17;}.cls-330{fill:#4973d4;opacity:0.2;}.cls-331{opacity:0.22;}.cls-332{opacity:0.24;}.cls-333{opacity:0.27;}.cls-334{opacity:0.29;}.cls-335{opacity:0.32;}.cls-336{opacity:0.34;}.cls-337{fill:#438add;opacity:0.37;}.cls-338{opacity:0.39;}.cls-339{opacity:0.41;}.cls-340{fill:#4194e1;opacity:0.44;}.cls-341{opacity:0.46;}.cls-342{opacity:0.49;}.cls-343{opacity:0.51;}.cls-344{opacity:0.54;}.cls-345{fill:#3ca4e8;opacity:0.56;}.cls-346{opacity:0.59;}.cls-347{opacity:0.61;}.cls-348{fill:#3aaeec;opacity:0.63;}.cls-349{opacity:0.66;}.cls-350{opacity:0.68;}.cls-351{opacity:0.71;}.cls-352{opacity:0.73;}.cls-353{opacity:0.76;}.cls-354{opacity:0.78;}.cls-355{fill:#34c5f5;opacity:0.8;}.cls-356{opacity:0.83;}.cls-357{opacity:0.85;}.cls-358{fill:#31cff9;opacity:0.88;}.cls-359{opacity:0.9;}.cls-360{opacity:0.93;}.cls-361{opacity:0.95;}.cls-362{opacity:0.98;}.cls-363{fill:#4793fd;}</style><clipPath id="clip-path" transform="translate(5.09 59.32)"><rect class="cls-1" width="960" height="560"/></clipPath><linearGradient id="linear-gradient" x1="3444" y1="560" x2="3444" y2="265.68" gradientTransform="matrix(-1, 0, 0, 1, 3924, 0)" gradientUnits="userSpaceOnUse"><stop offset="0" stop-color="#2de0ff"/><stop offset="1" stop-color="#5058ca"/></linearGradient><linearGradient id="linear-gradient-2" x1="480" y1="560" x2="480" y2="334.8" gradientTransform="matrix(1, 0, 0, 1, 0, 0)" xlink:href="#linear-gradient"/><clipPath id="clip-path-2" transform="translate(5.09 59.32)"><path class="cls-1" d="M960,194v53.76C809.6,190.16,691.2,491,476.8,494.16,340.34,496.19,131.2,196.56,0,228.3V174.54C131.2,142.8,340.34,442.43,476.8,440.4,691.2,437.2,809.6,136.4,960,194Z"/></clipPath><linearGradient id="linear-gradient-3" x1="199.24" y1="531.8" x2="16.61" y2="682.73" gradientUnits="userSpaceOnUse"><stop offset="0" stop-color="#201a33"/><stop offset="1" stop-color="#2d2d50"/></linearGradient><linearGradient id="linear-gradient-4" x1="204.66" y1="376.7" x2="451.59" y2="279.07" gradientTransform="matrix(1, 0.09, -0.09, 1, 58.95, -164.96)" gradientUnits="userSpaceOnUse"><stop offset="0.01" stop-color="#5affff"/><stop offset="0.15" stop-color="#2de0ff"/><stop offset="0.22" stop-color="#35c1f3"/><stop offset="0.31" stop-color="#3da1e6"/><stop offset="0.41" stop-color="#4486dc"/><stop offset="0.51" stop-color="#4972d4"/><stop offset="0.63" stop-color="#4d63ce"/><stop offset="0.77" stop-color="#4f5bcb"/><stop offset="1" stop-color="#5058ca"/></linearGradient></defs><g id="Layer_2" data-name="Layer 2"><g id="Layer_1-2" data-name="Layer 1"><g class="cls-2"><rect class="cls-3" x="5.09" y="59.32" width="960" height="560"/><path class="cls-3" d="M960.64,395.48V560.56H-.64V76.23H-5c2.92-.9,5.85-1.81,8.79-2.7q8.82-2.69,17.78-5.26Q39.48,63.09,58,58.3q37-9.57,76.08-17.54C238.24,19.55,352.92,7.24,473.45,6S709,14.78,813.67,33.88A1418.83,1418.83,0,0,1,962.44,69.1h-1.8Z" transform="translate(5.09 59.32)"/><path class="cls-4" d="M960.64,395.53v165H-.64V78.09H-2.3c2.9-.91,5.81-1.8,8.74-2.69q8.76-2.67,17.68-5.24Q42,65,60.35,60.26,97.13,50.74,136,42.81C239.6,21.72,353.63,9.48,473.48,8.27S707.66,17,811.78,36A1409.63,1409.63,0,0,1,959.71,71l4.34,1.3h-3.41Z" transform="translate(5.09 59.32)"/><path class="cls-5" d="M960.64,395.58v165H-.64V81.29H-3.88L.43,79.94q4.32-1.35,8.69-2.68,8.72-2.64,17.58-5.2,17.73-5.11,36-9.85Q99.29,52.75,138,44.86c103-21,216.39-33.14,335.56-34.35s232.85,8.67,336.38,27.55A1400.43,1400.43,0,0,1,957,72.88l4.32,1.29h-.66Z" transform="translate(5.09 59.32)"/><path class="cls-6" d="M960.64,395.63V560.56H-.64V83.13h-.49l4.29-1.34,8.64-2.66Q20.47,76.51,29.28,74q17.64-5.08,35.82-9.79,36.36-9.4,74.8-17.25C242.31,26.06,355.05,14,473.54,12.76S705.06,21.38,808,40.15A1391.2,1391.2,0,0,1,954.25,74.78c2.87.85,5.72,1.7,8.56,2.57h-2.17Z" transform="translate(5.09 59.32)"/><path class="cls-7" d="M960.64,395.68V560.56H-.64V86.33h-2A1378,1378,0,0,1,141.84,49C243.67,28.23,355.76,16.2,473.57,15s230.19,8.56,332.54,27.23A1382.59,1382.59,0,0,1,951.52,76.67c2.85.84,5.69,1.7,8.51,2.56l4.23,1.3h-3.62Z" transform="translate(5.09 59.32)"/><path class="cls-8" d="M960.64,395.73V560.56H-.64v-471H-4L.16,88.16A1371.53,1371.53,0,0,1,143.79,51C245,30.4,356.47,18.44,473.6,17.26s228.86,8.51,330.62,27.07A1375.3,1375.3,0,0,1,948.79,78.56q4.26,1.26,8.46,2.54l4.21,1.29h-.82Z" transform="translate(5.09 59.32)"/><path class="cls-9" d="M960.64,395.78V560.56H-.64V91.34h-.6L2.94,90A1362.36,1362.36,0,0,1,145.73,53.07C246.38,32.58,357.18,20.68,473.63,19.5S701.17,28,802.33,46.42a1369.19,1369.19,0,0,1,143.73,34q8.46,2.51,16.75,5.11h-2.17Z" transform="translate(5.09 59.32)"/><path class="cls-10" d="M960.64,395.83V560.56H-.64v-466H-2.58c2.75-.9,5.52-1.8,8.3-2.68a1353.39,1353.39,0,0,1,142-36.72c100.06-20.37,210.21-32.2,326-33.37s226.21,8.42,326.78,26.76A1360.59,1360.59,0,0,1,943.33,82.34q8.4,2.49,16.66,5.08l4.12,1.3h-3.47Z" transform="translate(5.09 59.32)"/><path class="cls-11" d="M960.64,395.88V560.56H-.64V97.69H-3.85l4.1-1.35c2.74-.9,5.48-1.79,8.24-2.67a1348.2,1348.2,0,0,1,141.13-36.5c99.48-20.25,209-32,324.07-33.17s224.88,8.37,324.86,26.6A1353.29,1353.29,0,0,1,940.6,84.23q8.35,2.49,16.56,5l4.09,1.29h-.61Z" transform="translate(5.09 59.32)"/><path class="cls-12" d="M960.64,395.93V560.56H-.64V100.86H-5q8.1-2.72,16.32-5.35a1339.23,1339.23,0,0,1,140.3-36.29c98.88-20.13,207.74-31.81,322.15-33s223.55,8.32,322.94,26.44A1344.66,1344.66,0,0,1,937.87,86.13q8.31,2.46,16.46,5,4.08,1.27,8.12,2.58h-1.81Z" transform="translate(5.09 59.32)"/><path class="cls-13" d="M960.64,396V560.56H-.64V102.66H-2.17q8-2.7,16.22-5.32A1330.76,1330.76,0,0,1,153.51,61.28c98.3-20,206.51-31.63,320.24-32.78s222.22,8.26,321,26.28A1335.46,1335.46,0,0,1,935.14,88q8.25,2.45,16.36,5,4.07,1.26,8.08,2.56l4,1.29h-3Z" transform="translate(5.09 59.32)"/><path class="cls-14" d="M960.64,396V560.56H-.64V105.81H-3.28c1.32-.45,2.65-.9,4-1.34q8-2.68,16.12-5.29A1323,1323,0,0,1,155.46,63.33c97.71-19.9,205.27-31.44,318.32-32.59S694.67,39,792.88,56.87a1329.55,1329.55,0,0,1,139.54,33q16.4,4.88,32.23,10.09h-4Z" transform="translate(5.09 59.32)"/><path class="cls-15" d="M960.64,396.08V560.56H-.64V109H-4.33c2.63-.9,5.26-1.8,7.91-2.69q8-2.67,16-5.25A1314.44,1314.44,0,0,1,157.4,65.38C254.52,45.6,361.44,34.13,473.81,33S693.37,41.16,791,59A1322.85,1322.85,0,0,1,929.69,91.8q16.29,4.85,32,10h-1.09Z" transform="translate(5.09 59.32)"/><path class="cls-16" d="M960.64,396.13V560.56H-.64V110.75H-1.4q3.92-1.35,7.86-2.68,7.89-2.64,15.93-5.22a1308,1308,0,0,1,137-35.42c96.53-19.66,202.8-31.06,314.49-32.19S692.07,43.36,789.1,61.06A1311.78,1311.78,0,0,1,927,93.69q16.2,4.82,31.85,10l3.9,1.3h-2.07Z" transform="translate(5.09 59.32)"/><path class="cls-17" d="M960.64,396.18V560.56H-.64V113.88H-2.36l3.88-1.34c2.59-.9,5.2-1.78,7.81-2.66q7.86-2.64,15.84-5.19A1299.45,1299.45,0,0,1,161.29,69.48c96-19.53,201.57-30.87,312.58-32s216.9,8.07,313.34,25.66a1305.08,1305.08,0,0,1,137,32.43q16.1,4.78,31.65,9.91,3.89,1.29,7.74,2.59h-3Z" transform="translate(5.09 59.32)"/><path class="cls-18" d="M960.64,396.23V560.56H-.64V117H-3.25Q12.07,111.6,28,106.52a1293,1293,0,0,1,135.29-35C258.6,52.12,363.57,40.85,473.9,39.73s215.57,8,311.42,25.51A1295.84,1295.84,0,0,1,921.5,97.48q16,4.74,31.46,9.84l7.69,2.57h0Z" transform="translate(5.09 59.32)"/><path class="cls-19" d="M960.64,396.28V560.56H-.64V120.12H-4.07l3.79-1.34q15.22-5.37,31-10.42A1281.36,1281.36,0,0,1,165.18,73.59C260,54.29,364.28,43.09,473.93,42s214.24,8,309.5,25.35a1287.24,1287.24,0,0,1,135.34,32q15.9,4.72,31.27,9.79c2.56.84,5.1,1.69,7.64,2.55l3.79,1.29h-.83Z" transform="translate(5.09 59.32)"/><path class="cls-20" d="M960.64,396.33V560.56H-.64V123.24H-4.83c2.5-.91,5-1.8,7.53-2.69q15.12-5.34,30.81-10.35A1274.86,1274.86,0,0,1,167.13,75.64C261.31,56.46,365,45.33,474,44.23s212.91,7.92,307.58,25.19A1280,1280,0,0,1,916,101.26Q931.85,106,947.11,111q7.64,2.51,15.12,5.11h-1.59Z" transform="translate(5.09 59.32)"/><path class="cls-21" d="M960.64,396.38V560.56H-.64V125H-1.81q3.72-1.35,7.48-2.67Q20.7,117,36.29,112A1268.83,1268.83,0,0,1,169.07,77.69C262.67,58.63,365.7,47.57,474,46.48s211.58,7.87,305.66,25a1273.84,1273.84,0,0,1,133.66,31.64q15.71,4.66,30.88,9.67,7.57,2.49,15,5.08l3.72,1.29h-2.29Z" transform="translate(5.09 59.32)"/><path class="cls-22" d="M960.64,396.43V560.56H-.64V128.09H-2.48c1.22-.45,2.45-.9,3.69-1.34,2.46-.9,4.94-1.78,7.43-2.66q14.94-5.27,30.42-10.22A1260.7,1260.7,0,0,1,171,79.74c93-18.94,195.39-29.93,303-31S684.27,56.55,777.76,73.6A1264.64,1264.64,0,0,1,910.58,105q15.6,4.63,30.68,9.61,7.54,2.47,14.94,5c2.46.85,4.92,1.71,7.36,2.58h-2.92Z" transform="translate(5.09 59.32)"/><path class="cls-23" d="M960.64,396.48V560.56H-.64V131.18H-3.09q7.28-2.7,14.7-5.32,14.84-5.23,30.23-10.16A1254.68,1254.68,0,0,1,173,81.79C265.38,63,367.12,52.06,474.05,51S683,58.75,775.86,75.69a1255,1255,0,0,1,132,31.25q15.51,4.61,30.49,9.54,7.49,2.46,14.84,5,3.68,1.27,7.31,2.56l3.63,1.3h-3.48Z" transform="translate(5.09 59.32)"/><path class="cls-24" d="M960.64,396.53v164H-.64V134.26h-3L0,132.92q7.25-2.68,14.61-5.29,14.75-5.2,30-10.09a1244.42,1244.42,0,0,1,130.29-33.7C266.74,65.15,367.83,54.3,474.08,53.22S681.68,60.94,774,77.78a1248.91,1248.91,0,0,1,131.15,31.05q30.82,9.15,59.51,19.61h-4Z" transform="translate(5.09 59.32)"/><path class="cls-25" d="M960.64,396.58v164H-.64V137.33H-4.11Q-.56,136,3,134.65q7.19-2.66,14.51-5.25,14.65-5.16,29.85-10A1235.92,1235.92,0,0,1,176.85,85.9C268.1,67.32,368.54,56.54,474.11,55.47s206.27,7.67,298,24.4a1239.11,1239.11,0,0,1,130.31,30.85q30.63,9.09,59.12,19.48h-.87Z" transform="translate(5.09 59.32)"/><path class="cls-26" d="M960.64,396.63V560.56H-.64V139.05H-1q3.53-1.34,7.1-2.66,7.14-2.64,14.42-5.21,14.57-5.15,29.66-10A1227,1227,0,0,1,178.8,88c90.65-18.46,190.45-29.17,295.34-30.23S679.08,65.34,770.19,82a1233,1233,0,0,1,129.47,30.65q30.44,9,58.74,19.36l3.53,1.29h-1.29Z" transform="translate(5.09 59.32)"/><path class="cls-27" d="M960.64,396.68V560.56H-.64V143.46H-4.88Q22.93,132.64,53,123.05A1218.44,1218.44,0,0,1,180.74,90C270.81,71.66,370,61,474.17,60S677.78,67.54,768.3,84.05A1226.31,1226.31,0,0,1,896.93,114.5q30.24,9,58.36,19.24,3.51,1.27,7,2.58h-1.64Z" transform="translate(5.09 59.32)"/><path class="cls-28" d="M960.64,396.73V560.56H-.64V145.16H-1.72q27.63-10.74,57.46-20.28a1212,1212,0,0,1,127-32.83c89.48-18.22,188-28.79,291.51-29.84s202.28,7.53,292.21,23.93A1217.11,1217.11,0,0,1,894.2,116.39q30,8.92,58,19.11c2.33.85,4.64,1.71,7,2.57l3.44,1.29h-1.93Z" transform="translate(5.09 59.32)"/><path class="cls-29" d="M960.64,396.78V560.56H-.64V148.2H-2l3.42-1.34q27.46-10.67,57.09-20.14A1202.8,1202.8,0,0,1,184.63,94.1C273.52,76,371.38,65.5,474.23,64.46s200.95,7.48,290.29,23.77a1207.88,1207.88,0,0,1,127,30.06q29.84,8.85,57.6,19,6.93,2.52,13.73,5.13h-2.16Z" transform="translate(5.09 59.32)"/><path class="cls-30" d="M960.64,396.83V560.56H-.64V151.23H-2.19q3.38-1.33,6.78-2.66,27.27-10.6,56.71-20a1196.33,1196.33,0,0,1,125.28-32.4c88.3-18,185.51-28.41,287.68-29.44s199.62,7.42,288.37,23.61a1201.77,1201.77,0,0,1,126.11,29.86Q918.38,129,946,139q6.88,2.51,13.64,5.09l3.36,1.3h-2.32Z" transform="translate(5.09 59.32)"/><path class="cls-31" d="M960.64,396.88V560.56H-.64V154.26h-1.7L1,152.92q3.35-1.33,6.74-2.65,27.09-10.53,56.33-19.88A1187.83,1187.83,0,0,1,188.52,98.21C276.24,80.35,372.8,70,474.28,69s198.3,7.38,286.46,23.46A1192.57,1192.57,0,0,1,886,122.07q29.44,8.75,56.84,18.73,6.84,2.49,13.54,5.06,3.36,1.29,6.67,2.59h-2.42Z" transform="translate(5.09 59.32)"/><path class="cls-32" d="M960.64,396.93V560.56H-.64V157.27H-2.41q6.59-2.69,13.31-5.3,26.91-10.46,56-19.74a1178.86,1178.86,0,0,1,123.61-32c87.13-17.74,183-28,283.84-29.06s197,7.33,284.54,23.3A1185.87,1185.87,0,0,1,883.28,124q29.25,8.69,56.46,18.61,6.79,2.48,13.45,5c2.22.85,4.43,1.7,6.63,2.57l3.28,1.29h-2.46Z" transform="translate(5.09 59.32)"/><path class="cls-33" d="M960.64,397V560.56H-.64V160.28H-2.43l3.26-1.34q6.56-2.67,13.23-5.26,26.73-10.4,55.57-19.62a1173,1173,0,0,1,122.78-31.75C279,84.69,374.22,74.46,474.34,73.45S670,80.73,757,96.59a1179.78,1179.78,0,0,1,123.59,29.26q29.06,8.63,56.08,18.48,13.5,4.93,26.45,10.14h-2.44Z" transform="translate(5.09 59.32)"/><path class="cls-34" d="M960.64,397V560.56H-.64V163.27H-2.39c2.15-.89,4.3-1.78,6.47-2.66q6.49-2.66,13.14-5.23,26.53-10.32,55.19-19.48a1164.06,1164.06,0,0,1,122-31.54c85.95-17.5,180.57-27.66,280-28.66s194.31,7.23,280.7,23a1170,1170,0,0,1,122.75,29.06q28.86,8.58,55.7,18.36,13.4,4.89,26.27,10.06l3.2,1.3h-2.35Z" transform="translate(5.09 59.32)"/><path class="cls-35" d="M960.64,397.08V560.56H-.64V166.26H-2.28L.9,164.92q3.2-1.33,6.43-2.65,6.45-2.62,13-5.19,26.37-10.25,54.82-19.35A1157.39,1157.39,0,0,1,196.3,106.41C281.67,89,375.64,79,474.4,78s193,7.18,278.78,22.82a1161.34,1161.34,0,0,1,121.91,28.87q28.67,8.51,55.32,18.23,13.3,4.84,26.09,10l6.35,2.59h-2.21Z" transform="translate(5.09 59.32)"/><path class="cls-36" d="M960.64,397.13V560.56H-.64V169.23H-2.11q12.54-5.35,25.64-10.45Q49.71,148.61,78,139.57a1150.9,1150.9,0,0,1,120.28-31.11C283,91.2,376.35,81.19,474.43,80.19s191.65,7.13,276.86,22.68a1152.17,1152.17,0,0,1,121.07,28.66q28.46,8.44,54.94,18.1,13.22,4.83,25.91,9.93l6.31,2.57,3.12,1.3h-2Z" transform="translate(5.09 59.32)"/><path class="cls-37" d="M960.64,397.18V560.56H-.64v-387H-5q3.08-1.35,6.19-2.68,12.46-5.33,25.47-10.37,26-10.11,54.06-19.08a1139.91,1139.91,0,0,1,119.44-30.89c84.19-17.15,176.87-27.09,274.27-28.08S664.78,89.52,749.4,105a1143,1143,0,0,1,120.23,28.46q28.26,8.39,54.56,18,13.13,4.78,25.73,9.86,6.3,2.53,12.46,5.13h-1.74Z" transform="translate(5.09 59.32)"/><path class="cls-38" d="M960.64,397.23V560.56H-.64V175.15h-1q3.06-1.34,6.16-2.66,12.36-5.28,25.28-10.3,25.83-10,53.69-18.95a1133.45,1133.45,0,0,1,118.61-30.67c83.6-17,175.63-26.9,272.35-27.88s189,7,273,22.36A1136.27,1136.27,0,0,1,866.9,135.31q28.07,8.34,54.17,17.86,13,4.74,25.56,9.78,6.25,2.52,12.37,5.11c2,.86,4.07,1.72,6.08,2.6h-4.44Z" transform="translate(5.09 59.32)"/><path class="cls-39" d="M960.64,397.28V560.56H-.64V179.44H-4.26c4-1.8,8.05-3.57,12.15-5.32Q20.17,168.87,33,163.89q25.64-10,53.31-18.81a1124.92,1124.92,0,0,1,117.77-30.46c83-16.9,174.4-26.71,270.44-27.68s187.67,7,271.1,22.2A1130.17,1130.17,0,0,1,864.17,137.2Q892,145.48,918,154.93q13,4.73,25.38,9.72,6.21,2.5,12.28,5.07,3,1.28,6,2.58h-1Z" transform="translate(5.09 59.32)"/><path class="cls-40" d="M960.64,397.33V560.56H-.64V181h-.2q6-2.67,12.06-5.28,12.21-5.2,24.94-10.16,25.46-9.89,52.93-18.68A1117.81,1117.81,0,0,1,206,116.67c82.42-16.78,173.16-26.52,268.52-27.49,190.73-1.93,363.88,31.6,489.62,87.36h-3.53Z" transform="translate(5.09 59.32)"/><path class="cls-41" d="M960.64,397.38V560.56H-.64V185.29H-3.3q2.93-1.35,5.88-2.67,5.93-2.66,12-5.24,12.1-5.17,24.75-10.08,25.27-9.83,52.56-18.55a1109.28,1109.28,0,0,1,116.1-30c81.84-16.66,171.93-26.33,266.61-27.29C664,89.51,835.86,122.8,960.71,178.17h-.07Z" transform="translate(5.09 59.32)"/><path class="cls-42" d="M960.64,397.43V560.56H-.64V188.2h-2.1l2.9-1.34L6,184.21q5.88-2.62,11.89-5.2,12-5.13,24.58-10,25.1-9.75,52.18-18.41a1100.3,1100.3,0,0,1,115.27-29.82c81.25-16.54,170.69-26.14,264.69-27.09,188-1.9,358.68,31.14,482.64,86.11,1.93.86,3.86,1.72,5.77,2.59h-2.38Z" transform="translate(5.09 59.32)"/><path class="cls-43" d="M960.64,397.48V560.56H-.64V191.09H-2.11c121.58-57,290.1-93.27,476.75-95.16s356.09,30.91,479.14,85.48l5.74,2.58,2.84,1.3h-1.72Z" transform="translate(5.09 59.32)"/><path class="cls-44" d="M960.64,397.53v163H-.64V195.32H-4.23c1.86-.9,3.74-1.79,5.62-2.67,120.7-56.63,288-92.6,473.28-94.47S828.16,128.87,950.32,183q5.73,2.53,11.32,5.14h-1Z" transform="translate(5.09 59.32)"/><path class="cls-45" d="M960.64,397.58v163H-.64V196.85h0q2.78-1.33,5.58-2.65C124.7,138,290.77,102.29,474.7,100.42s350.9,30.47,472.16,84.24q5.68,2.52,11.23,5.11c1.85.86,3.69,1.72,5.52,2.6h-3Z" transform="translate(5.09 59.32)"/><path class="cls-46" d="M960.64,397.63V560.56H-.64V201.05h-2c3.62-1.79,7.3-3.55,11-5.29,118.92-55.8,283.76-91.24,466.33-93.09S823,132.91,943.4,186.29q5.64,2.51,11.15,5.06l5.47,2.58,2.71,1.3h-2.09Z" transform="translate(5.09 59.32)"/><path class="cls-47" d="M960.64,397.68V560.56H-.64V205.23H-4.39c1.78-.9,3.57-1.78,5.37-2.67q5.39-2.66,10.93-5.25c118-55.38,281.64-90.56,462.85-92.39s345.71,30,465.17,83q11.21,5,21.87,10.18h-1.16Z" transform="translate(5.09 59.32)"/><path class="cls-48" d="M960.64,397.73V560.56H-.64V206.72H-.76l5.32-2.65q5.36-2.62,10.85-5.21c117.15-55,279.53-89.87,459.38-91.69S817.9,137,936.47,189.54q11.12,4.92,21.7,10.1,2.66,1.29,5.26,2.6h-2.79Z" transform="translate(5.09 59.32)"/><path class="cls-49" d="M960.64,397.78V560.56H-.64V210.88H-2.35Q8,205.53,18.92,200.42c116.26-54.55,277.41-89.2,455.9-91S815.33,139,933,191.16q11,4.89,21.54,10,5.25,2.56,10.36,5.19h-4.27Z" transform="translate(5.09 59.32)"/><path class="cls-50" d="M960.64,397.83V560.56H-.64V215H-3.79q2.54-1.35,5.11-2.67Q11.6,207.06,22.42,202c115.38-54.13,275.3-88.52,452.43-90.31S812.77,141,929.55,192.79q10.94,4.85,21.37,10,5.21,2.53,10.29,5.15h-.57Z" transform="translate(5.09 59.32)"/><path class="cls-51" d="M960.64,397.88V560.56H-.64V219.14H-5.09q5-2.69,10.07-5.32,10.21-5.25,21-10.29c114.49-53.72,273.18-87.84,449-89.62S810.2,143,926.08,194.41q10.88,4.82,21.21,9.87,5.18,2.53,10.21,5.11c1.68.87,3.35,1.73,5,2.6h-1.86Z" transform="translate(5.09 59.32)"/><path class="cls-52" d="M960.64,397.93V560.56H-.64v-340h-.7q4.92-2.65,10-5.27,10.12-5.22,20.78-10.22c113.6-53.3,271.07-87.16,445.48-88.92S807.64,145.05,922.62,196q21.55,9.56,41,20.05h-3Z" transform="translate(5.09 59.32)"/><path class="cls-53" d="M960.64,398V560.56H-.64V224.66H-2.45Q0,223.33,2.4,222q4.89-2.65,9.92-5.24,10-5.18,20.61-10.14c112.72-52.88,269-86.47,442-88.23s330.13,28.67,444.22,79.26q21.39,9.48,40.71,19.9,2.42,1.29,4.79,2.61h-4Z" transform="translate(5.09 59.32)"/><path class="cls-53" d="M960.64,398V560.56H-.64V228.74H-3.42Q15.45,218,36.44,208.19c111.83-52.47,266.84-85.8,438.53-87.54s327.54,28.44,440.73,78.64q21.21,9.41,40.39,19.73,2.4,1.29,4.75,2.6h-.2Z" transform="translate(5.09 59.32)"/><path class="cls-54" d="M960.64,398.07V560.56H-.64V232.72H-4.46l4.65-2.67q18.72-10.62,39.56-20.39c111-52.08,264.85-85.16,435.25-86.88s325.08,28.22,437.42,78q21.08,9.35,40.09,19.59,4.75,2.57,9.37,5.17h-1.24Z" transform="translate(5.09 59.32)"/><path class="cls-55" d="M960.64,398.12V560.56H-.64V234H-.81q2.28-1.34,4.61-2.65,18.59-10.55,39.26-20.24c110.16-51.69,262.85-84.52,432-86.23s322.64,28,434.13,77.46q20.91,9.27,39.79,19.44,4.71,2.53,9.29,5.13l4.55,2.61h-2.14Z" transform="translate(5.09 59.32)"/><path class="cls-56" d="M960.64,398.17V560.56H-.64V238h-1q4.49-2.66,9.09-5.28,18.45-10.45,39-20.09C155.7,161.3,307.23,128.73,475.05,127s320.18,27.8,430.83,76.86q20.75,9.21,39.48,19.3,9.36,5,18.18,10.29h-2.9Z" transform="translate(5.09 59.32)"/><path class="cls-57" d="M960.64,398.21V560.56H-.64V241.89H-2.4c1.45-.88,2.92-1.77,4.4-2.65q4.46-2.64,9-5.24,18.3-10.38,38.67-19.94c108.48-50.9,258.85-83.22,425.39-84.91s317.73,27.59,427.52,76.28q20.6,9.12,39.19,19.15,9.29,5,18,10.21,2.19,1.31,4.34,2.62h-3.53Z" transform="translate(5.09 59.32)"/><path class="cls-58" d="M960.64,398.26V560.15h4l-4.24,2.68v-2.27H-.64V245.81H-3q8.55-5.34,17.63-10.5Q32.79,225,53,215.53C160.65,165,309.85,133,475.11,131.28S790.38,158.65,899.33,207q20.43,9.06,38.88,19,9.22,5,17.91,10.14,4.33,2.58,8.55,5.22h-4Z" transform="translate(5.09 59.32)"/><path class="cls-59" d="M960.64,398.31V556.25H965c-2.73,1.8-5.52,3.58-8.34,5.35v-1H-.64V249.7H-3.45L.75,247q8.49-5.29,17.49-10.41,18-10.22,38.07-19.63c106.81-50.11,254.86-81.94,418.83-83.6S788,160.56,896.06,208.5q20.27,9,38.58,18.85,9.14,4.92,17.76,10.06,4.3,2.57,8.48,5.18h-.24Z" transform="translate(5.09 59.32)"/><path class="cls-60" d="M960.64,398.36v156.7h.58q-4.08,2.67-8.28,5.3c-1.4.88-2.82,1.75-4.24,2.62v-2.42H-.64v-307H-3.78q4.08-2.67,8.28-5.3,8.41-5.26,17.36-10.34,17.87-10.14,37.77-19.47c106-49.72,252.85-81.3,415.54-82.95S785.53,162.47,892.79,210q20.1,8.91,38.27,18.7,9.08,4.89,17.63,10,4.27,2.53,8.41,5.13l4.11,2.61h-.57Z" transform="translate(5.09 59.32)"/><path class="cls-61" d="M960.64,398.4V551.2h.77q-2,1.34-4,2.67-4,2.65-8.21,5.26t-8.48,5.17v-3.74H4.12v3Q0,560.94-4,558.32H-.64V257.44H-4q2-1.33,4-2.67,4-2.66,8.21-5.26,8.34-5.22,17.22-10.25Q43.2,229.2,62.94,219.94c105.13-49.33,250.86-80.66,412.25-82.29s307.92,26.73,414.32,73.92a496.82,496.82,0,0,1,71.89,38.74h-.76Z" transform="translate(5.09 59.32)"/><path class="cls-62" d="M960.64,398.45V547.36h.83q-7.74,5.35-16,10.54Q941.3,560.48,937,563v-2.47H7.9v1.69q-4.08-2.55-8-5.15L-4,554.49H-.64V261.28H-4a487.55,487.55,0,0,1,70.28-39.87c104.3-48.94,248.86-80,409-81.64s305.46,26.53,411,73.34a492.56,492.56,0,0,1,71.32,38.43l3.91,2.61h-.83Z" transform="translate(5.09 59.32)"/><path class="cls-63" d="M960.64,398.5v145h.76q-1.89,1.34-3.81,2.66-7.68,5.32-15.9,10.45c-2.73,1.72-5.52,3.41-8.34,5.09v-1.19H11.68V561c-2.69-1.69-5.35-3.39-7.95-5.11s-5.17-3.45-7.69-5.2H-.64V265.09H-4q1.89-1.33,3.81-2.66a483.29,483.29,0,0,1,69.72-39.55c103.45-48.54,246.85-79.37,405.68-81s303,26.31,407.72,72.74a488.09,488.09,0,0,1,70.74,38.13q3.91,2.58,7.69,5.2h-.76Z" transform="translate(5.09 59.32)"/><path class="cls-64" d="M960.64,398.54V539.75h.56q-3.68,2.68-7.48,5.31-7.62,5.28-15.77,10.37-4.08,2.55-8.28,5.05L925.44,563v-2.41H19.51v1.65q-2-1.25-4.05-2.5-4-2.51-7.89-5.07C5,552.94,2.44,551.22,0,549.48c-1.25-.86-2.49-1.74-3.71-2.61H-.64v-278H-3.76q3.68-2.68,7.48-5.31a479.7,479.7,0,0,1,69.16-39.23C175.5,176.2,317.74,145.62,475.28,144s300.55,26.1,404.41,72.16A484,484,0,0,1,949.87,254q7.75,5.12,15,10.41h-4.21Z" transform="translate(5.09 59.32)"/><path class="cls-65" d="M960.64,398.59v134.7h3.78q-7,5.4-14.58,10.63-15.12,10.46-32.31,20.2v-3.56H27.33v2.82q-8.22-4.89-15.91-10T-3.44,543.09h2.8V272.66h-2.8L.18,270q3.64-2.65,7.42-5.27a477.32,477.32,0,0,1,68.59-38.9C178,178.06,319.05,147.73,475.31,146.15S773.41,172,876.42,217.71A480,480,0,0,1,946,255.22q7.69,5.09,14.86,10.33h-.24Z" transform="translate(5.09 59.32)"/><path class="cls-66" d="M960.64,398.64V529.55h3.23c-1.14.89-2.29,1.79-3.45,2.68q-7,5.35-14.46,10.54-15,10.37-32,20v-2.25H31v1.51q-8.14-4.85-15.78-9.88T.53,542c-1.18-.87-2.36-1.74-3.52-2.62H-.64V276.41H-3q7-5.36,14.46-10.54a474.44,474.44,0,0,1,68-38.59c100.95-47.36,240.86-77.44,395.83-79s295.65,25.67,397.82,71a476.7,476.7,0,0,1,69,37.2q7.62,5,14.73,10.24,3.55,2.61,7,5.25h-3.24Z" transform="translate(5.09 59.32)"/><path class="cls-67" d="M960.64,398.69V525.82h2.55q-3.32,2.7-6.76,5.35-6.91,5.31-14.34,10.45-14.88,10.27-31.78,19.87v-.93H34.76v.2Q26.68,556,19.11,551T4.5,540.81Q1,538.23-2.41,535.6H-.64V280.13H-2.4L1,277.47Q7.93,272.16,15.35,267a469.9,469.9,0,0,1,67.47-38.27c100.1-47,238.86-76.8,392.54-78.35s293.19,25.45,394.52,70.39a471.77,471.77,0,0,1,68.45,36.89q7.57,5,14.61,10.15,3.52,2.58,6.91,5.21c1.13.87,2.25,1.75,3.35,2.64h-2.56Z" transform="translate(5.09 59.32)"/><path class="cls-68" d="M960.64,398.73v123.4h1.75l-3.25,2.68q-3.28,2.67-6.71,5.3-6.85,5.26-14.22,10.36-14.75,10.2-31.52,19.71c-1.39.79-2.8,1.57-4.21,2.36v-2H46.61v3.61q-4.14-2.34-8.14-4.72-8-4.77-15.51-9.71A334.63,334.63,0,0,1-5,529.26H-.64V283.83H-1.7q3.29-2.67,6.71-5.3,6.86-5.26,14.22-10.36a465.1,465.1,0,0,1,66.9-38c99.27-46.57,236.86-76.16,389.26-77.7s290.74,25.25,391.21,69.8a468.92,468.92,0,0,1,67.88,36.58,334.63,334.63,0,0,1,27.92,20.48h-1.76Z" transform="translate(5.09 59.32)"/><path class="cls-69" d="M960.64,398.78V518.46h.83a326,326,0,0,1-27.14,20.86q-14.61,10.11-31.25,19.54-4.14,2.35-8.42,4.66v-3H50.25v2.26q-4.09-2.31-8.06-4.68-7.95-4.73-15.39-9.63A330,330,0,0,1-.88,528.2h.24v-238H-4a326,326,0,0,1,27.14-20.86,461.25,461.25,0,0,1,66.33-37.63c98.43-46.18,234.87-75.51,386-77s288.28,25,387.91,69.21a464.12,464.12,0,0,1,67.31,36.27,330,330,0,0,1,27.68,20.31c2.13,1.75,4.22,3.51,6.25,5.28h-3.93Z" transform="translate(5.09 59.32)"/><path class="cls-70" d="M960.64,398.83V512.12h2.78q-3,2.7-6.06,5.37a322.15,322.15,0,0,1-26.91,20.68q-14.49,10-31,19.37-4.11,2.34-8.35,4.63v-1.61H53.9v.91q-4.07-2.29-8-4.64-7.87-4.68-15.25-9.55A326.08,326.08,0,0,1,3.2,527.15C1.09,525.41-1,523.67-3,521.91H-.64V293.83H-3c1-.9,2-1.79,3.06-2.68A322.15,322.15,0,0,1,27,270.47a457,457,0,0,1,65.76-37.31c97.6-45.79,232.87-74.87,382.7-76.39s285.83,24.82,384.61,68.62a460.71,460.71,0,0,1,66.73,36,324.46,324.46,0,0,1,27.45,20.13c2.11,1.74,4.18,3.48,6.2,5.24,1,.88,2,1.76,3,2.65h-2.8Z" transform="translate(5.09 59.32)"/><path class="cls-71" d="M960.64,398.87V505.81H965q-5.6,5.43-11.74,10.7A319.79,319.79,0,0,1,926.58,537q-14.37,9.94-30.72,19.21-4.08,2.31-8.28,4.58v-.25H61.6v1.83c-1.36-.75-2.72-1.5-4.06-2.26q-4-2.28-7.92-4.6-7.82-4.65-15.13-9.48a324.26,324.26,0,0,1-27.21-20q-6.28-5.15-12-10.46h4.1V297.44H-1.82c2-1.78,4-3.56,6-5.31a319.79,319.79,0,0,1,26.67-20.51,452.45,452.45,0,0,1,65.21-37c96.75-45.4,230.87-74.23,379.4-75.73s283.38,24.6,381.31,68A456,456,0,0,1,923,262.58a326.56,326.56,0,0,1,27.21,20q6.29,5.15,12,10.46h-1.54Z" transform="translate(5.09 59.32)"/><path class="cls-72" d="M960.64,398.92v106h.14c-3.69,3.59-7.58,7.12-11.63,10.61a316.1,316.1,0,0,1-26.45,20.33q-14.25,9.86-30.45,19-8.09,4.59-16.64,9v-3.35H69.28v2.69q-16.41-8.85-30.94-18.42a322.64,322.64,0,0,1-27-19.79Q5.14,519.92-.55,514.67c-.95-.88-1.89-1.76-2.81-2.64H-.64V303.71h-2.7c3.69-3.59,7.58-7.12,11.63-10.61a316.1,316.1,0,0,1,26.45-20.33A448.6,448.6,0,0,1,99.38,236.1c95.92-45,228.87-73.59,376.12-75.08s280.93,24.39,378,67.44a453.06,453.06,0,0,1,65.59,35.35,322.64,322.64,0,0,1,27,19.79Q952.31,288.71,958,294c1.9,1.76,3.75,3.52,5.55,5.3h-2.9Z" transform="translate(5.09 59.32)"/><path class="cls-73" d="M960.64,399v99.72h1.29c-1.74,1.8-3.52,3.59-5.36,5.37q-5.49,5.32-11.53,10.51a316.58,316.58,0,0,1-26.22,20.16q-14.12,9.76-30.18,18.87-8,4.54-16.5,8.92v-2H72.86v1.3q-16.28-8.77-30.68-18.26A318,318,0,0,1,15.44,524Q9.28,518.92,3.63,513.7q-2.82-2.61-5.5-5.25H-.64V310H-4.49c1.74-1.8,3.52-3.59,5.36-5.37q5.49-5.32,11.53-10.51a316.58,316.58,0,0,1,26.22-20.16,445.27,445.27,0,0,1,64.07-36.34c95.08-44.61,226.87-72.95,372.84-74.42S754,187.32,850.24,230c48.12,21.34,87.16,46.93,114.29,75.51h-3.89Z" transform="translate(5.09 59.32)"/><path class="cls-74" d="M960.64,399v93.46h2.08c-13.07,14.44-29.11,28.19-47.77,41.1q-14,9.67-29.92,18.7-7.95,4.51-16.36,8.85v-.57H80.5v2.07c-1.37-.71-2.72-1.43-4.07-2.16q-16.12-8.69-30.4-18.1c-19-12.52-35.4-26-48.84-40.11H-.64V313.46H-2.79c.84-.9,1.69-1.79,2.55-2.68,1.73-1.78,3.5-3.56,5.32-5.32q5.45-5.28,11.43-10.42a314.17,314.17,0,0,1,26-20A442.1,442.1,0,0,1,106,239c94.25-44.22,224.88-72.31,369.56-73.77s276,24,371.41,66.26c47.69,21.15,86.39,46.52,113.28,74.85q1.26,1.33,2.49,2.67h-2.1Z" transform="translate(5.09 59.32)"/><path class="cls-75" d="M960.64,399.06V486.3h2.49c-1.52,1.81-3.1,3.61-4.72,5.4-12.95,14.3-28.84,27.93-47.34,40.73Q897.2,542,881.42,551q-7.89,4.47-16.21,8.76-4.17,2.14-8.44,4.25v-3.42H88.12v2.79Q84,561.24,80,559.08q-16-8.61-30.14-17.93C31,528.73,14.79,515.43,1.47,501.39c-1.67-1.76-3.29-3.52-4.86-5.3H-.64V316.94H-1c25.9-28.61,63.58-54.52,110.29-76.43,93.4-43.83,222.87-71.66,366.27-73.12s273.56,23.76,368.1,65.68C891,254,929.32,279.17,956,307.25c1.67,1.76,3.29,3.52,4.86,5.3h-.19Z" transform="translate(5.09 59.32)"/><path class="cls-76" d="M960.64,399.11v81.05h2.55q-4.26,5.43-9.08,10.75c-12.83,14.18-28.59,27.69-46.92,40.37q-13.74,9.51-29.38,18.37-7.81,4.44-16.07,8.69-4.12,2.13-8.36,4.21v-2H91.62v1.36q-4.08-2.08-8-4.22-15.86-8.55-29.87-17.78c-18.66-12.3-34.77-25.49-48-39.4Q.79,495.3-3.61,490h3V323.07h-.71q2.27-2.69,4.68-5.34c25.67-28.36,63-54,109.3-75.76,92.57-43.43,220.88-71,363-72.45s271.12,23.54,364.81,65.09c46.84,20.77,84.86,45.69,111.27,73.51q5,5.22,9.36,10.57h-.41Z" transform="translate(5.09 59.32)"/><path class="cls-77" d="M960.64,399.16v74.89h2.24q-2,2.73-4.08,5.42-4.21,5.38-9,10.66c-12.72,14.05-28.33,27.44-46.5,40q-13.62,9.42-29.12,18.21-7.73,4.38-15.91,8.6-4.1,2.12-8.29,4.18v-.56H99.18v2q-2-1-4.06-2.06-4-2.07-8-4.18-15.7-8.46-29.59-17.62c-18.5-12.19-34.46-25.26-47.55-39q-4.9-5.17-9.27-10.48c-1.45-1.77-2.86-3.54-4.22-5.33H-.64V329.17h-.72q4.22-5.39,9-10.66c25.44-28.1,62.45-53.55,108.31-75.07,91.73-43,218.88-70.37,359.7-71.8S744.3,195,837.15,236.14c46.42,20.59,84.09,45.28,110.27,72.85a186.07,186.07,0,0,1,17.43,21.21h-4.21Z" transform="translate(5.09 59.32)"/><path class="cls-78" d="M960.64,399.2V468h1.58a182,182,0,0,1-16.71,21.36c-25.21,27.84-61.88,53-107.32,74.38v-3.17H106.73v2.56q-8.2-4-16-8.2-15.57-8.38-29.33-17.45c-18.32-12.09-34.14-25-47.11-38.69A185.42,185.42,0,0,1-3,477.77H-.64V340.65H-4.78a182,182,0,0,1,16.71-21.36c25.21-27.84,61.88-53.05,107.32-74.38,90.9-42.64,216.88-69.73,356.42-71.14s266.21,23.11,358.2,63.91c46,20.4,83.33,44.86,109.27,72.18a185.42,185.42,0,0,1,17.27,21q1.88,2.7,3.62,5.41h-3.39Z" transform="translate(5.09 59.32)"/><path class="cls-79" d="M960.64,399.25V456.5h3.73q-3,5.5-6.6,10.91a180.65,180.65,0,0,1-16.56,21.15c-25,27.59-61.31,52.57-106.34,73.7v-1.7H110.16v1.1q-8.14-4-15.85-8.13-15.42-8.31-29-17.29c-18.16-12-33.83-24.8-46.68-38.34A181.28,181.28,0,0,1,1.47,477.09c-1.24-1.78-2.44-3.56-3.59-5.36H-.64V346.66H-3.77q1.65-2.73,3.44-5.43a180.65,180.65,0,0,1,16.56-21.15c25-27.59,61.31-52.57,106.34-73.7,90.05-42.25,214.88-69.09,353.13-70.49s263.75,22.9,354.9,63.32c45.57,20.21,82.56,44.45,108.26,71.53A181.28,181.28,0,0,1,956,331.55q3.72,5.32,6.89,10.77h-2.22Z" transform="translate(5.09 59.32)"/><path class="cls-80" d="M960.64,399.3v51.23h2.05c-.9,1.84-1.84,3.66-2.84,5.48q-3,5.46-6.54,10.81a179.19,179.19,0,0,1-16.4,21c-24.75,27.33-60.74,52.08-105.35,73v-.23H121.75v3.53q-4.14-1.92-8.16-3.89-8.07-3.94-15.7-8.06Q82.61,543.92,69.1,535c-18-11.86-33.51-24.57-46.24-38A179,179,0,0,1,5.91,476.41q-3.69-5.28-6.83-10.67h.28V352.63H-2.41q3-5.46,6.54-10.81a179.19,179.19,0,0,1,16.4-21c24.75-27.33,60.74-52.08,105.35-73C215.1,206,338.76,179.4,475.73,178s261.3,22.69,351.6,62.73c45.15,20,81.79,44,107.25,70.86C947.3,325,957.24,339.13,964,353.79h-3.4Z" transform="translate(5.09 59.32)"/><path class="cls-81" d="M960.64,399.35v45.28h0c-6.35,14.66-15.82,28.83-28.08,42.37-24.5,27.07-60.16,51.59-104.35,72.32q-4.14,1.95-8.39,3.84v-2.6H125.1v2q-4.09-1.9-8.09-3.86-8-3.9-15.55-8-15.12-8.16-28.51-17C55.13,522,39.75,509.45,27.14,496.16S4.7,468.9-2,454.37h1.4V364h-2.6c6.35-14.66,15.82-28.83,28.08-42.37,24.5-27.07,60.16-51.59,104.35-72.32,88.38-41.47,210.89-67.8,346.57-69.18s258.84,22.48,348.3,62.14c44.72,19.84,81,43.63,106.24,70.2,12.6,13.28,22.44,27.26,29.18,41.79a118.29,118.29,0,0,1,4.47,11h-3.31Z" transform="translate(5.09 59.32)"/><path class="cls-82" d="M960.64,399.39v22.73h2.55a114,114,0,0,1-7.08,22.12c-6.29,14.52-15.67,28.56-27.81,42C904,513,868.71,537.31,824.93,557.85q-4.09,1.92-8.3,3.81v-1.1H128.45v.53q-4-1.89-8-3.82-7.91-3.85-15.4-7.9-15-8.07-28.25-16.81c-17.64-11.64-32.88-24.11-45.37-37.27s-22.23-27-28.91-41.39Q0,448.5-1.91,443H-.64V375.37H-2.8q1.77-5.52,4.13-11c6.29-14.52,15.67-28.57,27.81-42,24.27-26.82,59.59-51.1,103.37-71.64,87.54-41.08,208.88-67.16,343.27-68.52s256.4,22.26,345,61.55C865.08,263.47,901,287,926,313.35c12.49,13.15,22.23,27,28.91,41.39a115.85,115.85,0,0,1,7.66,22h-2Z" transform="translate(5.09 59.32)"/><path class="cls-83" d="M960.75,399.44c.8,60.73-52.42,116.26-139.13,156.94q-8.13,3.81-16.64,7.45v-3.27h-665v2.72C52.17,524.37-2.51,469.93-3.31,409.2c-1.6-121.46,212.9-222.11,479.12-224.81S959.14,278,960.75,399.44Z" transform="translate(5.09 59.32)"/><path class="cls-84" d="M956.09,399.49c.8,60.14-51.91,115.13-137.78,155.42q-8.05,3.78-16.48,7.38v-1.73H143.2v1.19C56.3,523.21,2.14,469.3,1.35,409.15c-1.59-120.29,210.84-220,474.49-222.63S954.5,279.2,956.09,399.49Z" transform="translate(5.09 59.32)"/><path class="cls-85" d="M951.44,399.53c.78,59.56-51.41,114-136.44,153.91q-8,3.75-16.33,7.31v-.19h-644v3.19c-2.75-1.17-5.47-2.34-8.16-3.54C60.42,522.05,6.79,468.66,6,409.11,4.43,290,214.79,191.28,475.87,188.64S949.86,280.42,951.44,399.53Z" transform="translate(5.09 59.32)"/><path class="cls-86" d="M946.78,399.58c.78,59-50.9,112.89-135.1,152.39q-7.89,3.71-16.16,7.24-4.12,1.77-8.36,3.49v-2.14H157.83v1.61c-2.72-1.15-5.42-2.31-8.08-3.49C64.54,520.89,11.44,468,10.66,409.06,9.1,291.12,217.39,193.38,475.9,190.77S945.22,281.64,946.78,399.58Z" transform="translate(5.09 59.32)"/><path class="cls-87" d="M942.12,399.63c.77,58.38-50.39,111.77-133.75,150.88q-7.82,3.66-16,7.16c-2.73,1.16-5.49,2.32-8.27,3.45v-.56H169.21V564q-8.28-3.33-16.19-6.84C68.66,519.73,16.09,467.4,15.32,409,13.77,292.24,220,195.48,475.92,192.89S940.58,282.86,942.12,399.63Z" transform="translate(5.09 59.32)"/><path class="cls-88" d="M937.47,399.68c.76,57.79-49.9,110.64-132.41,149.36q-15.48,7.26-32.4,13.84v-2.32H172.32v1.81q-8.19-3.29-16-6.76C72.78,518.57,20.74,466.76,20,409,18.45,293.37,222.59,197.58,476,195S935.94,284.08,937.47,399.68Z" transform="translate(5.09 59.32)"/><path class="cls-89" d="M932.81,399.72c.76,57.21-49.39,109.52-131.06,147.85q-15.32,7.18-32.07,13.7v-.71H175.43v.21q-8.12-3.25-15.86-6.7C76.9,517.41,25.39,466.13,24.63,408.92,23.12,294.49,225.19,199.68,476,197.14S931.3,285.3,932.81,399.72Z" transform="translate(5.09 59.32)"/><path class="cls-90" d="M928.15,399.77c.75,56.62-48.88,108.4-129.72,146.33q-15.15,7.11-31.74,13.56-4.14,1.61-8.36,3.17v-2.27H186.65v1.79c-2.73-1.05-5.44-2.11-8.11-3.18q-8-3.24-15.7-6.64C81,516.25,30,465.49,29.29,408.87,27.79,295.62,227.79,201.78,476,199.26S926.65,286.52,928.15,399.77Z" transform="translate(5.09 59.32)"/><path class="cls-91" d="M923.5,399.82c.74,56-48.38,107.27-128.38,144.81q-15,7-31.41,13.42-8.21,3.18-16.72,6.19v-3.68H197.87v3.22q-16.56-6-31.76-12.78c-81-35.91-131.42-86.14-132.17-142.18C32.46,296.75,230.39,203.88,476,201.39S922,287.74,923.5,399.82Z" transform="translate(5.09 59.32)"/><path class="cls-92" d="M918.84,399.86c.73,55.46-47.87,106.16-127,143.3q-14.85,7-31.08,13.28-8.12,3.15-16.55,6.13v-2H200.81v1.55q-16.38-6-31.42-12.65C89.26,513.93,39.33,464.23,38.6,408.78,37.13,297.87,233,206,476.06,203.51S917.37,289,918.84,399.86Z" transform="translate(5.09 59.32)"/><path class="cls-93" d="M914.18,399.91c.73,54.87-47.36,105-125.68,141.78q-14.7,6.9-30.76,13.14-8,3.12-16.37,6.06v-.33H211.94v2.79q-4.14-1.44-8.19-2.91-16.2-5.91-31.09-12.51C93.38,512.77,44,463.59,43.26,408.73,41.81,299,235.59,208.07,476.09,205.64S912.73,290.18,914.18,399.91Z" transform="translate(5.09 59.32)"/><path class="cls-94" d="M909.53,400c.71,54.28-46.86,103.9-124.35,140.26q-14.52,6.82-30.42,13-7.93,3.09-16.2,6-4.12,1.46-8.33,2.87v-1.53H223.05v3.88q-8.34-2.75-16.36-5.67-16-5.85-30.76-12.38C97.5,511.61,48.63,463,47.91,408.68,46.48,300.13,238.19,210.17,476.12,207.76S908.09,291.4,909.53,400Z" transform="translate(5.09 59.32)"/><path class="cls-95" d="M904.87,400c.71,53.69-46.35,102.78-123,138.74a520.43,520.43,0,0,1-62.75,24.38v-2.57H225.81v2.15q-8.25-2.72-16.18-5.61-15.85-5.79-30.42-12.24C101.62,510.45,53.28,462.33,52.57,408.63,51.15,301.25,240.79,212.27,476.15,209.89S903.45,292.62,904.87,400Z" transform="translate(5.09 59.32)"/><path class="cls-96" d="M900.21,400.05c.7,53.11-45.84,101.66-121.65,137.23a516.76,516.76,0,0,1-62.07,24.12v-.84H228.57V561q-8.15-2.68-16-5.55-15.69-5.71-30.09-12.11c-76.74-34-124.55-81.63-125.25-134.73C55.82,302.38,243.39,214.37,476.18,212S898.81,293.84,900.21,400.05Z" transform="translate(5.09 59.32)"/><path class="cls-97" d="M895.56,400.1c.69,52.52-45.34,100.54-120.31,135.72a512.46,512.46,0,0,1-61.39,23.84c-2.76.89-5.54,1.75-8.35,2.61v-1.71H247.75v3.82a512.92,512.92,0,0,1-62-22.6C109.86,508.13,62.58,461.06,61.88,408.54,60.5,303.5,246,216.47,476.2,214.14S894.17,295.06,895.56,400.1Z" transform="translate(5.09 59.32)"/><path class="cls-98" d="M890.9,400.15c.69,51.93-44.83,99.41-119,134.2a506.78,506.78,0,0,1-60.69,23.58q-8.19,2.61-16.66,5.06v-2.43H250.33v2A507.4,507.4,0,0,1,189,540.25C114,507,67.23,460.42,66.54,408.49,65.17,304.63,248.59,218.57,476.23,216.26S889.53,296.28,890.9,400.15Z" transform="translate(5.09 59.32)"/><path class="cls-99" d="M886.24,400.19c.68,51.35-44.32,98.29-117.62,132.69a499.76,499.76,0,0,1-60,23.31q-8.1,2.59-16.47,5v-.64H252.91v.25a503.4,503.4,0,0,1-60.61-22.1c-74.19-32.9-120.42-78.92-121.1-130.26-1.36-102.69,180-187.79,405.06-190.06S884.88,297.51,886.24,400.19Z" transform="translate(5.09 59.32)"/><path class="cls-100" d="M881.59,400.24c.67,50.76-43.82,97.17-116.28,131.17A495.45,495.45,0,0,1,706,554.46q-16,5.12-33.09,9.54v-3.44h-401v3.07q-8.34-2.22-16.41-4.61a497.88,497.88,0,0,1-59.92-21.84c-73.34-32.53-119-78-119.72-128.78C74.51,306.88,253.79,222.76,476.29,220.51S880.24,298.73,881.59,400.24Z" transform="translate(5.09 59.32)"/><path class="cls-101" d="M876.93,400.29c.66,50.17-43.31,96-114.94,129.65a487.6,487.6,0,0,1-58.64,22.78q-15.81,5.06-32.71,9.43v-1.59H274.29v1.23q-8.24-2.19-16.22-4.56a492.35,492.35,0,0,1-59.23-21.59C126.35,503.49,81.17,458.52,80.51,408.35,79.18,308,256.39,224.86,476.32,222.63S875.6,300,876.93,400.29Z" transform="translate(5.09 59.32)"/><path class="cls-102" d="M872.27,400.34c.66,49.58-42.8,94.92-113.59,128.13A484.44,484.44,0,0,1,700.73,551q-15.65,5-32.33,9.32-8.34,2.16-16.92,4.14v-3.89H293.22v3.55q-16.79-4-32.57-8.67a486,486,0,0,1-58.53-21.33C130.47,502.33,85.82,457.89,85.17,408.3,83.86,309.14,259,227,476.35,224.76S871,301.17,872.27,400.34Z" transform="translate(5.09 59.32)"/><path class="cls-103" d="M867.62,400.38c.64,49-42.3,93.8-112.25,126.62a476.76,476.76,0,0,1-57.27,22.25q-15.45,4.93-32,9.21-8.24,2.13-16.71,4.09v-2h-354v1.66q-16.57-3.93-32.18-8.57a478.8,478.8,0,0,1-57.84-21.08c-70.8-31.4-114.92-75.32-115.57-124.31-1.29-98,171.77-179.2,386.55-181.38S866.32,302.39,867.62,400.38Z" transform="translate(5.09 59.32)"/><path class="cls-104" d="M863,400.43c.64,48.41-41.79,92.67-110.9,125.1C717.5,541.75,676.27,555,630.42,564.34v-3.78H314.23V564q-8.43-1.75-16.62-3.7-16.39-3.89-31.8-8.46A475,475,0,0,1,208.66,531C138.71,500,95.12,456.62,94.48,408.21,93.2,311.39,264.19,231.16,476.4,229S861.68,303.61,863,400.43Z" transform="translate(5.09 59.32)"/><path class="cls-105" d="M858.3,400.48C858.93,448.3,817,492,748.74,524.06c-34.13,16-74.86,29.12-120.16,38.34v-1.84H316.22v1.53q-8.33-1.74-16.42-3.65-16.19-3.84-31.41-8.36a469.45,469.45,0,0,1-56.46-20.58C142.83,498.85,99.77,456,99.14,408.16c-1.27-95.65,167.65-174.9,377.29-177S857,304.83,858.3,400.48Z" transform="translate(5.09 59.32)"/><path class="cls-106" d="M853.65,400.52c.62,47.24-40.78,90.43-108.22,122.07-33.72,15.83-73.95,28.76-118.69,37.87q-8.38,1.71-17,3.24v-3.14H334.87v2.86c-45-8.21-85.53-20.32-119.66-35.46C147,497.69,104.42,455.35,103.79,408.12c-1.24-94.48,165.6-172.77,372.67-174.86S852.4,306.05,853.65,400.52Z" transform="translate(5.09 59.32)"/><path class="cls-107" d="M849,400.57c.62,46.65-40.27,89.31-106.87,120.56-33.3,15.62-73,28.39-117.22,37.39q-8.28,1.69-16.77,3.2v-1.16H336.65v.88c-44.41-8.1-84.46-20.07-118.17-35-67.41-29.9-109.41-71.71-110-118.36-1.23-93.3,163.54-170.62,368-172.69S847.75,307.27,849,400.57Z" transform="translate(5.09 59.32)"/><path class="cls-108" d="M844.33,400.62c.61,46.06-39.76,88.18-105.52,119-32.89,15.43-72.12,28-115.74,36.92q-16.37,3.33-33.52,5.95v-2H355.08v1.72q-8.41-1.32-16.64-2.82c-43.85-8-83.41-19.81-116.69-34.57-66.56-29.52-108-70.8-108.64-116.87-1.22-92.13,161.48-168.47,363.4-170.51S843.11,308.49,844.33,400.62Z" transform="translate(5.09 59.32)"/><path class="cls-109" d="M839.68,400.67c.6,45.47-39.26,87.05-104.19,117.52C703,533.42,664.3,545.87,621.23,554.64q-16.15,3.3-33.09,5.88-8.46,1.29-17.1,2.39v-2.35H373.46v2.13q-17-2.24-33.23-5.2c-43.3-7.9-82.35-19.56-115.2-34.13C159.31,494.21,118.37,453.45,117.76,408c-1.2-91,159.43-166.32,358.78-168.34S838.47,309.71,839.68,400.67Z" transform="translate(5.09 59.32)"/><path class="cls-110" d="M835,400.71c.59,44.89-38.75,85.94-102.84,116-32,15-70.27,27.33-112.79,36-21.26,4.33-43.59,7.75-66.76,10.15v-2.29H409v3.75c-23.22-1.93-45.64-4.9-67-8.8-42.73-7.79-81.28-19.31-113.71-33.69-64.87-28.76-105.28-69-105.88-113.89-1.19-89.78,157.37-164.18,354.15-166.17S833.83,310.93,835,400.71Z" transform="translate(5.09 59.32)"/><path class="cls-111" d="M830.36,400.76c.59,44.3-38.24,84.81-101.49,114.49-31.63,14.84-69.36,27-111.32,35.51-21,4.28-43,7.65-65.88,10v-.22H409.93v1.66c-22.92-1.91-45-4.84-66.13-8.68-42.18-7.7-80.22-19.06-112.23-33.26-64-28.38-103.91-68.1-104.49-112.4-1.17-88.61,155.31-162,349.52-164S829.19,312.15,830.36,400.76Z" transform="translate(5.09 59.32)"/><path class="cls-112" d="M825.71,400.81c1.15,87.43-153.26,159.88-344.9,161.82-95.81,1-182.79-15.87-246-43.88s-102.53-67.2-103.11-110.92C130.58,320.4,285,248,476.63,246S824.55,313.37,825.71,400.81Z" transform="translate(5.09 59.32)"/><ellipse class="cls-113" cx="478.72" cy="404.32" rx="342.35" ry="156.2" transform="translate(1.34 63.79) rotate(-0.53)"/><ellipse class="cls-114" cx="478.72" cy="404.32" rx="337.69" ry="154.08" transform="translate(1.34 63.79) rotate(-0.53)"/><ellipse class="cls-115" cx="478.72" cy="404.32" rx="333.03" ry="151.95" transform="translate(1.34 63.79) rotate(-0.53)"/><ellipse class="cls-115" cx="478.72" cy="404.32" rx="328.38" ry="149.83" transform="translate(1.34 63.79) rotate(-0.53)"/><ellipse class="cls-116" cx="478.72" cy="404.32" rx="325.96" ry="148.73" transform="translate(1.34 63.79) rotate(-0.53)"/><ellipse class="cls-117" cx="478.72" cy="404.32" rx="323.55" ry="147.62" transform="translate(1.34 63.79) rotate(-0.53)"/><ellipse class="cls-118" cx="478.72" cy="404.32" rx="321.13" ry="146.52" transform="translate(1.34 63.79) rotate(-0.53)"/><ellipse class="cls-119" cx="478.72" cy="404.32" rx="318.72" ry="145.42" transform="translate(1.34 63.79) rotate(-0.53)"/><ellipse class="cls-120" cx="478.72" cy="404.32" rx="316.3" ry="144.32" transform="translate(1.34 63.79) rotate(-0.53)"/><ellipse class="cls-121" cx="478.72" cy="404.32" rx="313.89" ry="143.22" transform="matrix(1, -0.01, 0.01, 1, 1.34, 63.79)"/><ellipse class="cls-122" cx="478.72" cy="404.32" rx="311.47" ry="142.12" transform="translate(1.34 63.79) rotate(-0.53)"/><ellipse class="cls-123" cx="478.72" cy="404.32" rx="309.06" ry="141.01" transform="translate(1.34 63.79) rotate(-0.53)"/><ellipse class="cls-124" cx="478.72" cy="404.32" rx="306.64" ry="139.91" transform="matrix(1, -0.01, 0.01, 1, 1.34, 63.79)"/><ellipse class="cls-125" cx="478.72" cy="404.32" rx="304.23" ry="138.81" transform="translate(1.34 63.79) rotate(-0.53)"/><ellipse class="cls-126" cx="478.72" cy="404.32" rx="301.82" ry="137.71" transform="translate(1.34 63.79) rotate(-0.53)"/><ellipse class="cls-127" cx="478.72" cy="404.32" rx="299.4" ry="136.61" transform="translate(1.34 63.79) rotate(-0.53)"/><ellipse class="cls-128" cx="478.72" cy="404.32" rx="296.99" ry="135.51" transform="translate(1.34 63.79) rotate(-0.53)"/><ellipse class="cls-129" cx="478.72" cy="404.32" rx="294.57" ry="134.4" transform="translate(1.34 63.79) rotate(-0.53)"/><ellipse class="cls-130" cx="478.72" cy="404.32" rx="292.16" ry="133.3" transform="translate(1.34 63.79) rotate(-0.53)"/><ellipse class="cls-131" cx="478.72" cy="404.32" rx="289.74" ry="132.2" transform="translate(1.34 63.79) rotate(-0.53)"/><ellipse class="cls-132" cx="478.72" cy="404.32" rx="287.33" ry="131.1" transform="translate(1.34 63.79) rotate(-0.53)"/><ellipse class="cls-133" cx="478.72" cy="404.32" rx="284.91" ry="130" transform="translate(1.34 63.79) rotate(-0.53)"/><ellipse class="cls-134" cx="478.72" cy="404.32" rx="282.5" ry="128.9" transform="translate(1.34 63.79) rotate(-0.53)"/><ellipse class="cls-135" cx="478.72" cy="404.32" rx="280.09" ry="127.79" transform="translate(1.34 63.79) rotate(-0.53)"/><ellipse class="cls-136" cx="478.72" cy="404.32" rx="277.67" ry="126.69" transform="translate(1.34 63.79) rotate(-0.53)"/><ellipse class="cls-137" cx="478.72" cy="404.32" rx="275.26" ry="125.59" transform="translate(1.34 63.79) rotate(-0.53)"/><ellipse class="cls-138" cx="478.72" cy="404.32" rx="272.84" ry="124.49" transform="translate(1.34 63.79) rotate(-0.53)"/><ellipse class="cls-139" cx="478.72" cy="404.32" rx="270.43" ry="123.39" transform="translate(1.34 63.79) rotate(-0.53)"/><ellipse class="cls-140" cx="478.72" cy="404.32" rx="268.01" ry="122.29" transform="translate(1.34 63.79) rotate(-0.53)"/><ellipse class="cls-141" cx="478.72" cy="404.32" rx="265.6" ry="121.18" transform="translate(1.34 63.79) rotate(-0.53)"/><ellipse class="cls-142" cx="478.72" cy="404.32" rx="263.18" ry="120.08" transform="translate(1.34 63.79) rotate(-0.53)"/><ellipse class="cls-143" cx="478.72" cy="404.32" rx="260.77" ry="118.98" transform="matrix(1, -0.01, 0.01, 1, 1.34, 63.79)"/><ellipse class="cls-144" cx="478.72" cy="404.32" rx="258.35" ry="117.88" transform="translate(1.34 63.79) rotate(-0.53)"/><ellipse class="cls-145" cx="478.72" cy="404.32" rx="255.94" ry="116.78" transform="translate(1.34 63.79) rotate(-0.53)"/><ellipse class="cls-146" cx="478.72" cy="404.32" rx="253.53" ry="115.68" transform="translate(1.34 63.79) rotate(-0.53)"/><ellipse class="cls-147" cx="478.72" cy="404.32" rx="251.11" ry="114.57" transform="translate(1.34 63.79) rotate(-0.53)"/><ellipse class="cls-148" cx="478.72" cy="404.32" rx="248.7" ry="113.47" transform="translate(1.34 63.79) rotate(-0.53)"/><ellipse class="cls-149" cx="478.72" cy="404.32" rx="246.28" ry="112.37" transform="translate(1.34 63.79) rotate(-0.53)"/><ellipse class="cls-150" cx="478.72" cy="404.32" rx="243.87" ry="111.27" transform="translate(1.34 63.79) rotate(-0.53)"/><ellipse class="cls-151" cx="478.72" cy="404.32" rx="241.45" ry="110.17" transform="translate(1.34 63.79) rotate(-0.53)"/><ellipse class="cls-152" cx="478.72" cy="404.32" rx="239.04" ry="109.07" transform="translate(1.34 63.79) rotate(-0.53)"/><ellipse class="cls-153" cx="478.72" cy="404.32" rx="236.62" ry="107.96" transform="translate(1.34 63.79) rotate(-0.53)"/><ellipse class="cls-154" cx="478.72" cy="404.32" rx="234.21" ry="106.86" transform="translate(1.34 63.79) rotate(-0.53)"/><ellipse class="cls-155" cx="478.72" cy="404.32" rx="231.79" ry="105.76" transform="translate(1.34 63.79) rotate(-0.53)"/><ellipse class="cls-156" cx="478.72" cy="404.32" rx="229.38" ry="104.66" transform="translate(1.34 63.79) rotate(-0.53)"/><ellipse class="cls-157" cx="478.72" cy="404.32" rx="226.97" ry="103.56" transform="translate(1.34 63.79) rotate(-0.53)"/><ellipse class="cls-158" cx="478.72" cy="404.32" rx="224.55" ry="102.46" transform="translate(1.34 63.79) rotate(-0.53)"/><ellipse class="cls-159" cx="478.72" cy="404.32" rx="222.14" ry="101.35" transform="translate(1.34 63.79) rotate(-0.53)"/><ellipse class="cls-160" cx="478.72" cy="404.32" rx="219.72" ry="100.25" transform="translate(1.34 63.79) rotate(-0.53)"/><ellipse class="cls-161" cx="478.72" cy="404.32" rx="217.31" ry="99.15" transform="translate(1.34 63.79) rotate(-0.53)"/><ellipse class="cls-162" cx="478.72" cy="404.32" rx="214.89" ry="98.05" transform="translate(1.34 63.79) rotate(-0.53)"/><ellipse class="cls-163" cx="478.72" cy="404.32" rx="212.48" ry="96.95" transform="translate(1.34 63.79) rotate(-0.53)"/><ellipse class="cls-164" cx="478.72" cy="404.32" rx="210.06" ry="95.85" transform="translate(1.34 63.79) rotate(-0.53)"/><ellipse class="cls-165" cx="478.72" cy="404.32" rx="207.65" ry="94.74" transform="translate(1.34 63.79) rotate(-0.53)"/><ellipse class="cls-166" cx="478.72" cy="404.32" rx="205.23" ry="93.64" transform="translate(1.34 63.79) rotate(-0.53)"/><ellipse class="cls-167" cx="478.72" cy="404.32" rx="202.82" ry="92.54" transform="translate(1.34 63.79) rotate(-0.53)"/><ellipse class="cls-168" cx="478.72" cy="404.32" rx="200.41" ry="91.44" transform="translate(1.34 63.79) rotate(-0.53)"/><ellipse class="cls-169" cx="478.72" cy="404.32" rx="197.99" ry="90.34" transform="translate(1.34 63.79) rotate(-0.53)"/><ellipse class="cls-170" cx="478.72" cy="404.32" rx="195.58" ry="89.24" transform="translate(1.34 63.79) rotate(-0.53)"/><ellipse class="cls-171" cx="478.72" cy="404.32" rx="193.16" ry="88.13" transform="translate(1.34 63.79) rotate(-0.53)"/><ellipse class="cls-172" cx="478.72" cy="404.32" rx="190.75" ry="87.03" transform="translate(1.34 63.79) rotate(-0.53)"/><ellipse class="cls-173" cx="478.72" cy="404.32" rx="188.33" ry="85.93" transform="translate(1.34 63.79) rotate(-0.53)"/><ellipse class="cls-174" cx="478.72" cy="404.32" rx="185.92" ry="84.83" transform="translate(1.34 63.79) rotate(-0.53)"/><ellipse class="cls-175" cx="478.72" cy="404.32" rx="183.5" ry="83.73" transform="translate(1.34 63.79) rotate(-0.53)"/><ellipse class="cls-176" cx="478.72" cy="404.32" rx="181.09" ry="82.63" transform="translate(1.34 63.79) rotate(-0.53)"/><ellipse class="cls-177" cx="478.72" cy="404.32" rx="178.67" ry="81.52" transform="translate(1.34 63.79) rotate(-0.53)"/><ellipse class="cls-178" cx="478.72" cy="404.32" rx="176.26" ry="80.42" transform="translate(1.34 63.79) rotate(-0.53)"/><ellipse class="cls-179" cx="478.72" cy="404.32" rx="173.85" ry="79.32" transform="translate(1.34 63.79) rotate(-0.53)"/><ellipse class="cls-180" cx="478.72" cy="404.32" rx="171.43" ry="78.22" transform="matrix(1, -0.01, 0.01, 1, 1.34, 63.79)"/><ellipse class="cls-181" cx="478.72" cy="404.32" rx="169.02" ry="77.12" transform="translate(1.34 63.79) rotate(-0.53)"/><ellipse class="cls-182" cx="478.72" cy="404.32" rx="166.6" ry="76.02" transform="translate(1.34 63.79) rotate(-0.53)"/><ellipse class="cls-183" cx="478.72" cy="404.32" rx="164.19" ry="74.91" transform="translate(1.34 63.79) rotate(-0.53)"/><ellipse class="cls-184" cx="478.72" cy="404.32" rx="161.77" ry="73.81" transform="translate(1.34 63.79) rotate(-0.53)"/><ellipse class="cls-185" cx="478.72" cy="404.32" rx="159.36" ry="72.71" transform="translate(1.34 63.79) rotate(-0.53)"/><ellipse class="cls-186" cx="478.72" cy="404.32" rx="156.94" ry="71.61" transform="translate(1.34 63.79) rotate(-0.53)"/><ellipse class="cls-187" cx="478.72" cy="404.32" rx="154.53" ry="70.51" transform="translate(1.34 63.79) rotate(-0.53)"/><ellipse class="cls-188" cx="478.72" cy="404.32" rx="152.12" ry="69.41" transform="translate(1.34 63.79) rotate(-0.53)"/><ellipse class="cls-189" cx="478.72" cy="404.32" rx="149.7" ry="68.3" transform="translate(1.34 63.79) rotate(-0.53)"/><ellipse class="cls-190" cx="478.72" cy="404.32" rx="147.29" ry="67.2" transform="translate(1.34 63.79) rotate(-0.53)"/><ellipse class="cls-191" cx="478.72" cy="404.32" rx="144.87" ry="66.1" transform="translate(1.34 63.79) rotate(-0.53)"/><ellipse class="cls-192" cx="478.72" cy="404.32" rx="142.46" ry="65" transform="translate(1.34 63.79) rotate(-0.53)"/><ellipse class="cls-193" cx="478.72" cy="404.32" rx="140.04" ry="63.9" transform="matrix(1, -0.01, 0.01, 1, 1.34, 63.79)"/><ellipse class="cls-194" cx="478.72" cy="404.32" rx="137.63" ry="62.8" transform="translate(1.34 63.79) rotate(-0.53)"/><ellipse class="cls-195" cx="478.72" cy="404.32" rx="135.21" ry="61.69" transform="translate(1.34 63.79) rotate(-0.53)"/><ellipse class="cls-196" cx="478.72" cy="404.32" rx="132.8" ry="60.59" transform="translate(1.34 63.79) rotate(-0.53)"/><ellipse class="cls-197" cx="478.72" cy="404.32" rx="130.38" ry="59.49" transform="translate(1.34 63.79) rotate(-0.53)"/><ellipse class="cls-198" cx="478.72" cy="404.32" rx="127.97" ry="58.39" transform="matrix(1, -0.01, 0.01, 1, 1.34, 63.79)"/><ellipse class="cls-199" cx="478.72" cy="404.32" rx="125.56" ry="57.29" transform="matrix(1, -0.01, 0.01, 1, 1.34, 63.79)"/><ellipse class="cls-200" cx="478.72" cy="404.32" rx="123.14" ry="56.19" transform="translate(1.34 63.79) rotate(-0.53)"/><ellipse class="cls-201" cx="478.72" cy="404.32" rx="120.73" ry="55.08" transform="translate(1.34 63.79) rotate(-0.53)"/><ellipse class="cls-202" cx="478.72" cy="404.32" rx="118.31" ry="53.98" transform="translate(1.34 63.79) rotate(-0.53)"/><ellipse class="cls-203" cx="478.72" cy="404.32" rx="115.9" ry="52.88" transform="translate(1.34 63.79) rotate(-0.53)"/><ellipse class="cls-204" cx="478.72" cy="404.32" rx="113.48" ry="51.78" transform="translate(1.34 63.79) rotate(-0.53)"/><ellipse class="cls-205" cx="478.72" cy="404.32" rx="111.07" ry="50.68" transform="translate(1.34 63.79) rotate(-0.53)"/><ellipse class="cls-206" cx="478.72" cy="404.32" rx="108.65" ry="49.58" transform="translate(1.34 63.79) rotate(-0.53)"/><ellipse class="cls-207" cx="478.72" cy="404.32" rx="106.24" ry="48.47" transform="translate(1.34 63.79) rotate(-0.53)"/><ellipse class="cls-208" cx="478.72" cy="404.32" rx="103.82" ry="47.37" transform="translate(1.34 63.79) rotate(-0.53)"/><ellipse class="cls-209" cx="478.72" cy="404.32" rx="101.41" ry="46.27" transform="matrix(1, -0.01, 0.01, 1, 1.34, 63.79)"/><ellipse class="cls-210" cx="478.72" cy="404.32" rx="99" ry="45.17" transform="translate(1.34 63.79) rotate(-0.53)"/><ellipse class="cls-211" cx="478.72" cy="404.32" rx="96.58" ry="44.07" transform="translate(1.34 63.79) rotate(-0.53)"/><ellipse class="cls-212" cx="478.72" cy="404.32" rx="94.17" ry="42.97" transform="translate(1.34 63.79) rotate(-0.53)"/><ellipse class="cls-213" cx="478.72" cy="404.32" rx="91.75" ry="41.86" transform="translate(1.34 63.79) rotate(-0.53)"/><ellipse class="cls-214" cx="478.72" cy="404.32" rx="89.34" ry="40.76" transform="translate(1.34 63.79) rotate(-0.53)"/><ellipse class="cls-215" cx="478.72" cy="404.32" rx="86.92" ry="39.66" transform="translate(1.34 63.79) rotate(-0.53)"/><ellipse class="cls-216" cx="478.72" cy="404.32" rx="84.51" ry="38.56" transform="matrix(1, -0.01, 0.01, 1, 1.34, 63.79)"/><ellipse class="cls-217" cx="478.72" cy="404.32" rx="82.09" ry="37.46" transform="translate(1.34 63.79) rotate(-0.53)"/><ellipse class="cls-218" cx="478.72" cy="404.32" rx="79.68" ry="36.36" transform="matrix(1, -0.01, 0.01, 1, 1.34, 63.79)"/><ellipse class="cls-219" cx="478.72" cy="404.32" rx="77.26" ry="35.25" transform="translate(1.34 63.79) rotate(-0.53)"/><ellipse class="cls-220" cx="478.72" cy="404.32" rx="74.85" ry="34.15" transform="translate(1.34 63.79) rotate(-0.53)"/><ellipse class="cls-221" cx="478.72" cy="404.32" rx="72.44" ry="33.05" transform="translate(1.34 63.79) rotate(-0.53)"/><ellipse class="cls-222" cx="478.72" cy="404.32" rx="70.02" ry="31.95" transform="translate(1.34 63.79) rotate(-0.53)"/><ellipse class="cls-223" cx="478.72" cy="404.32" rx="67.61" ry="30.85" transform="translate(1.34 63.79) rotate(-0.53)"/><ellipse class="cls-224" cx="478.72" cy="404.32" rx="65.19" ry="29.75" transform="translate(1.34 63.79) rotate(-0.53)"/><ellipse class="cls-225" cx="478.72" cy="404.32" rx="62.78" ry="28.64" transform="translate(1.34 63.79) rotate(-0.53)"/><ellipse class="cls-226" cx="478.72" cy="404.32" rx="60.36" ry="27.54" transform="translate(1.34 63.79) rotate(-0.53)"/><ellipse class="cls-227" cx="478.72" cy="404.32" rx="57.95" ry="26.44" transform="translate(1.34 63.79) rotate(-0.53)"/><ellipse class="cls-228" cx="478.72" cy="404.32" rx="55.53" ry="25.34" transform="translate(1.34 63.79) rotate(-0.53)"/><ellipse class="cls-229" cx="478.72" cy="404.32" rx="53.12" ry="24.24" transform="translate(1.34 63.79) rotate(-0.53)"/><ellipse class="cls-230" cx="478.72" cy="404.32" rx="50.71" ry="23.14" transform="matrix(1, -0.01, 0.01, 1, 1.34, 63.79)"/><ellipse class="cls-231" cx="478.72" cy="404.32" rx="48.29" ry="22.03" transform="translate(1.34 63.79) rotate(-0.53)"/><ellipse class="cls-232" cx="478.72" cy="404.32" rx="45.88" ry="20.93" transform="translate(1.34 63.79) rotate(-0.53)"/><ellipse class="cls-233" cx="478.72" cy="404.32" rx="43.46" ry="19.83" transform="translate(1.34 63.79) rotate(-0.53)"/><ellipse class="cls-234" cx="478.72" cy="404.32" rx="41.05" ry="18.73" transform="translate(1.34 63.79) rotate(-0.53)"/><ellipse class="cls-235" cx="478.72" cy="404.32" rx="38.63" ry="17.63" transform="translate(1.34 63.79) rotate(-0.53)"/><ellipse class="cls-236" cx="478.72" cy="404.32" rx="36.22" ry="16.53" transform="translate(1.34 63.79) rotate(-0.53)"/><ellipse class="cls-237" cx="478.72" cy="404.32" rx="33.8" ry="15.42" transform="translate(1.34 63.79) rotate(-0.53)"/><ellipse class="cls-238" cx="478.72" cy="404.32" rx="31.39" ry="14.32" transform="translate(1.34 63.79) rotate(-0.53)"/><ellipse class="cls-239" cx="478.72" cy="404.32" rx="28.97" ry="13.22" transform="translate(1.34 63.79) rotate(-0.53)"/><ellipse class="cls-240" cx="478.72" cy="404.32" rx="26.56" ry="12.12" transform="matrix(1, -0.01, 0.01, 1, 1.34, 63.79)"/><ellipse class="cls-241" cx="478.72" cy="404.32" rx="24.15" ry="11.02" transform="translate(1.35 63.79) rotate(-0.53)"/><ellipse class="cls-242" cx="478.72" cy="404.32" rx="21.73" ry="9.92" transform="translate(1.34 63.79) rotate(-0.53)"/><ellipse class="cls-243" cx="478.72" cy="404.32" rx="19.32" ry="8.81" transform="translate(1.34 63.79) rotate(-0.53)"/><ellipse class="cls-244" cx="478.72" cy="404.32" rx="16.9" ry="7.71" transform="matrix(1, -0.01, 0.01, 1, 1.34, 63.79)"/><path class="cls-245" d="M493.21,404.17c0,3.65-6.4,6.68-14.4,6.76s-14.53-2.81-14.58-6.46,6.4-6.68,14.4-6.76S493.16,400.52,493.21,404.17Z" transform="translate(5.09 59.32)"/><path class="cls-246" d="M490.79,404.2c0,3-5.33,5.56-12,5.63s-12.1-2.35-12.14-5.39,5.33-5.56,12-5.63S490.75,401.16,490.79,404.2Z" transform="translate(5.09 59.32)"/><ellipse class="cls-247" cx="478.72" cy="404.32" rx="9.66" ry="4.41" transform="translate(1.34 63.79) rotate(-0.53)"/><ellipse class="cls-248" cx="478.72" cy="404.32" rx="7.24" ry="3.3" transform="translate(1.34 63.8) rotate(-0.53)"/><path class="cls-249" d="M483.55,404.27c0,1.22-2.13,2.23-4.8,2.25s-4.84-.93-4.86-2.15,2.13-2.23,4.8-2.25S483.53,403.05,483.55,404.27Z" transform="translate(5.09 59.32)"/><path class="cls-250" d="M481.13,404.3c0,.6-1.06,1.11-2.4,1.12s-2.42-.47-2.42-1.08,1.06-1.11,2.4-1.12S481.13,403.69,481.13,404.3Z" transform="translate(5.09 59.32)"/></g><path class="cls-251" d="M220.8,275.28c41.38,4.3,60.8,48,105.6,48s73.6-57.6,115.2-57.6,80,48,118.4,48c14.31,0,76.86-20.52,108.8-22.4C777.6,284.88,960,560,960,560H0S122.18,265,220.8,275.28Z" transform="translate(5.09 59.32)"/><path class="cls-252" d="M691.2,347.6c-41.6,0-41.6,22.4-86.4,22.4s-48-35.2-89.6-35.2-51.2,48-89.6,48c-14.31,0-44.87-26.67-76.8-28.8C300.8,350.8,0,560,0,560H960S758.4,347.6,691.2,347.6Z" transform="translate(5.09 59.32)"/><path class="cls-253" d="M960,560H0V174.54C131.2,142.8,340.34,442.44,476.8,440.4,691.2,437.2,809.6,136.4,960,194Z" transform="translate(5.09 59.32)"/><g class="cls-254"><rect class="cls-255" x="5.09" y="195.72" width="960" height="359.8"/><path class="cls-255" d="M960.64,135.76V294.63h3.47q-11.85,9.45-24.15,18.68a1133.78,1133.78,0,0,1-105.17,70.05c-74.47,43.88-150.28,77.41-223.62,100.49q-27.49,8.65-54.47,15.35v-2.37h-316v2.49q-4.62-1.68-9.14-3.49c-48.11-19.24-86.09-49.19-110.11-90S89.61,317.36,96.09,266c3.24-25.71,10-52.33,20.18-79.47q7.59-20.34,17.65-41,2.51-5.18,5.17-10.34v.64Z" transform="translate(5.09 59.32)"/><path class="cls-256" d="M960.64,135.76V284.45h1l-5.74,4.6q-11.53,9.18-23.5,18.17a1101.94,1101.94,0,0,1-102.33,68.15c-72.46,42.7-146.22,75.33-217.57,97.79a854.76,854.76,0,0,1-104.76,26v-2.36H280v.08a316.94,316.94,0,0,1-36.9-12.1C196.34,466.08,159.38,437,136,397.27s-31-86.11-24.66-136.13c3.15-25,9.78-50.92,19.63-77.32q7.4-19.78,17.18-39.91,2.44-5,5-10.07v1.92Z" transform="translate(5.09 59.32)"/><path class="cls-257" d="M960.64,135.76V270h3.66l-5.48,4.52q-5.49,4.5-11.1,9-11.22,8.92-22.85,17.66a1072.67,1072.67,0,0,1-99.48,66.26c-140.89,83-286.87,126.91-409,130.76-61.06,1.93-116.15-6.15-161.66-24.36s-81.44-46.54-104.16-85.1-30.1-83.73-24-132.36c3.06-24.31,9.5-49.5,19.08-75.17q7.19-19.24,16.7-38.81,2.37-4.87,4.89-9.78v3.19Z" transform="translate(5.09 59.32)"/><path class="cls-258" d="M960.64,135.76V260.37h.25q-21,17.69-43.56,34.67a1042.91,1042.91,0,0,1-96.64,64.37c-136.87,80.65-278.67,123.28-397.3,127S209.31,455,165.16,380.1c-22.07-37.47-29.23-81.33-23.28-128.58,3-23.62,9.23-48.08,18.54-73q7-18.69,16.22-37.7,2.31-4.74,4.75-9.5v4.46Z" transform="translate(5.09 59.32)"/><path class="cls-259" d="M960.64,135.76V246.68h1.48q-5,4.33-10.06,8.62Q931.74,272.46,909.78,289A1011.07,1011.07,0,0,1,816,351.43C683.14,429.7,545.51,471.09,430.37,474.72S222.59,444.24,179.74,371.51c-21.43-36.37-28.38-78.94-22.6-124.79,2.89-22.93,9-46.68,18-70.88q6.78-18.15,15.75-36.59c.75-1.53,1.5-3.07,2.27-4.61v1.12Z" transform="translate(5.09 59.32)"/><path class="cls-260" d="M960.64,135.76v97.69h1.9q-9.45,8.46-19.31,16.78-19.71,16.65-41,32.64a980,980,0,0,1-91,60.58C682.47,419.35,549,459.48,437.35,463s-201.48-29.56-243-100.08c-20.78-35.26-27.52-76.55-21.92-121,2.8-22.23,8.69-45.26,17.45-68.73q6.57-17.6,15.27-35.48c.72-1.49,1.46-3,2.2-4.47v2.53Z" transform="translate(5.09 59.32)"/><path class="cls-261" d="M960.64,135.76v84.91h1.53q-4.47,4.14-9.06,8.23-9.15,8.21-18.7,16.27-19.1,16.11-39.72,31.61a948.69,948.69,0,0,1-88.11,58.69C557,482.53,289.41,491,208.9,354.33c-20.13-34.16-26.66-74.16-21.23-117.23a297.12,297.12,0,0,1,16.9-66.58q6.36-17,14.79-34.37c.7-1.44,1.41-2.89,2.14-4.33v3.94Z" transform="translate(5.09 59.32)"/><path class="cls-262" d="M960.64,135.76v72.61H961c-45.18,42.95-98.76,83.54-159.14,119.12C560.35,469.8,301.39,478,223.47,345.74,204,312.68,197.68,274,202.93,232.29a287.18,287.18,0,0,1,16.36-64.43q6.15-16.5,14.31-33.26v1.16Z" transform="translate(5.09 59.32)"/><path class="cls-263" d="M960.64,135.76v56.87h2.44c-1.32,1.31-2.64,2.62-4,3.92q-4,3.91-8.09,7.81c-43.67,41.51-95.47,80.76-153.84,115.15C563.7,457.08,313.37,465,238.05,337.15c-18.83-32-24.94-69.37-19.86-109.67A278.41,278.41,0,0,1,234,165.2q6-15.94,13.84-32.15v2.71Z" transform="translate(5.09 59.32)"/><path class="cls-264" d="M960.64,135.76v41.83h3.25q-3.67,3.82-7.44,7.63-7.55,7.62-15.45,15.13c-42.17,40.08-92.17,78-148.53,111.18C567,444.35,325.35,452,252.63,328.56c-18.18-30.85-24.08-67-19.18-105.88a268.4,268.4,0,0,1,15.27-60.14q5.75-15.39,13.36-31v4.26Z" transform="translate(5.09 59.32)"/><path class="cls-265" d="M960.64,135.76v27.52h2.84q-1.69,1.86-3.42,3.71-13.8,14.83-29.06,29.35C890.33,235,842.11,271.53,787.77,303.55,570.39,431.63,337.33,439,267.21,320c-17.53-29.75-23.22-64.59-18.49-102.1a259,259,0,0,1,14.72-58q2.78-7.42,6-14.91,1.62-3.75,3.34-7.5c.57-1.25,1.15-2.51,1.75-3.76v2Z" transform="translate(5.09 59.32)"/><path class="cls-266" d="M960.64,135.76v14h1.26q-6.28,7.2-12.93,14.35-13.29,14.28-28,28.26c-39.16,37.22-85.59,72.4-137.92,103.23C573.74,418.9,349.31,426,281.78,311.38c-16.88-28.65-22.35-62.19-17.8-98.32a249.64,249.64,0,0,1,14.17-55.84q2.67-7.14,5.78-14.36,1.54-3.6,3.21-7.22v.12Z" transform="translate(5.09 59.32)"/><path class="cls-267" d="M960.64,135.76l1.41-2.31A592.44,592.44,0,0,1,911,188.32c-37.65,35.79-82.3,69.61-132.62,99.26-201.27,118.6-417.07,125.41-482,15.21-16.23-27.55-21.5-59.8-17.12-94.54a240.23,240.23,0,0,1,13.63-53.69q2.56-6.87,5.55-13.81,1.5-3.47,3.09-6.94v1.95Z" transform="translate(5.09 59.32)"/><path class="cls-268" d="M960.64,135.76H950v-4.13a570.75,570.75,0,0,1-49,52.68c-36.15,34.35-79,66.83-127.32,95.29C580.44,393.45,373.27,400,310.94,294.2c-15.58-26.44-20.64-57.41-16.44-90.75a230.23,230.23,0,0,1,13.09-51.55q2.46-6.6,5.33-13.25c.95-2.22,1.94-4.45,3-6.67v3.78Z" transform="translate(5.09 59.32)"/><path class="cls-269" d="M960.64,135.76H935.31V133c-.88,1.07-1.78,2.14-2.67,3.2q-2.7,3.19-5.48,6.39Q921.6,149,915.72,155.3,904,167.93,891,180.3c-34.64,32.92-75.72,64-122,91.32C583.79,380.73,385.25,387,325.52,285.61c-14.94-25.34-19.78-55-15.75-87a220.38,220.38,0,0,1,12.54-49.4q2.35-6.31,5.1-12.7c.46-1.07.93-2.13,1.4-3.19v2.41Z" transform="translate(5.09 59.32)"/><path class="cls-270" d="M960.64,135.76H920.82v-1.63c-1.72,2-3.47,4.07-5.24,6.11q-5.33,6.09-10.94,12.14Q893.39,164.46,881,176.29c-33.13,31.49-72.42,61.26-116.7,87.35C587.14,368,397.23,374,340.09,277c-14.28-24.24-18.91-52.62-15.06-83.19a211.06,211.06,0,0,1,12-47.25q2.26-6,4.89-12.15v1.33Z" transform="translate(5.09 59.32)"/><path class="cls-271" d="M960.64,135.76H909V132q-2.46,2.92-5,5.83-5.09,5.82-10.45,11.59Q882.83,161,871,172.28c-31.62,30.06-69.13,58.47-111.4,83.38C590.48,355.28,409.21,361,354.67,268.43,341,245.29,336.61,218.2,340.29,189a201.52,201.52,0,0,1,11.45-45.1q2.16-5.78,4.66-11.6v3.44Z" transform="translate(5.09 59.32)"/><path class="cls-272" d="M952.35,135.76H892.42v-.27q-4.84,5.55-9.95,11-10.22,11-21.52,21.74a586.77,586.77,0,0,1-106.1,79.41c-161,94.87-333.66,100.32-385.6,12.17-13-22-17.2-47.85-13.7-75.64a191.71,191.71,0,0,1,10.91-43q1-2.74,2.13-5.51H952.35Z" transform="translate(5.09 59.32)"/><path class="cls-273" d="M937.78,135.76H880.84v-2.64q-4.61,5.26-9.45,10.49-9.72,10.44-20.45,20.65A557.72,557.72,0,0,1,750.15,239.7c-153,90.13-317,95.3-366.32,11.56-12.34-20.94-16.34-45.45-13-71.85a182.75,182.75,0,0,1,10.36-40.81c.65-1.74,1.33-3.49,2-5.23v2.39Z" transform="translate(5.09 59.32)"/><path class="cls-274" d="M923.2,135.76H864.84v0q-2.24,2.47-4.54,5-9.19,9.9-19.37,19.57a528.32,528.32,0,0,1-95.48,71.47C600.53,317.1,445.15,322,398.4,242.67c-11.68-19.84-15.47-43.06-12.32-68.07a172.22,172.22,0,0,1,9.81-38.66c.31-.82.62-1.65.94-2.48v2.3Z" transform="translate(5.09 59.32)"/><path class="cls-275" d="M908.62,135.76H853.51v-2.68q-2.12,2.34-4.29,4.68-8.69,9.35-18.3,18.48a499,499,0,0,1-90.18,67.5C603.88,304.38,457.13,309,413,234.08c-11-18.74-14.62-40.67-11.64-64.29a163.49,163.49,0,0,1,9.27-36.51v2.48Z" transform="translate(5.09 59.32)"/><path class="cls-276" d="M894,135.76h-55.9v-.92q-8.17,8.79-17.22,17.39A469.08,469.08,0,0,1,736,215.75c-128.81,75.9-266.93,80.26-308.48,9.74-10.39-17.63-13.76-38.28-11-60.51A139.82,139.82,0,0,1,419.85,148c.73-2.86,1.55-5.75,2.46-8.65.46-1.45.94-2.91,1.44-4.37v.75Z" transform="translate(5.09 59.32)"/><path class="cls-277" d="M879.47,135.76H827.05v-3.85q-7.66,8.25-16.14,16.31a440,440,0,0,1-79.57,59.55C610.57,278.93,481.09,283,442.14,216.9c-9.74-16.53-12.9-35.88-10.28-56.72a130.54,130.54,0,0,1,3.05-15.89q1-4,2.31-8.12c.43-1.36.88-2.73,1.35-4.09v3.68Z" transform="translate(5.09 59.32)"/><path class="cls-278" d="M864.89,135.76H812.35v-2.94q-1.85,1.92-3.73,3.82-3.76,3.81-7.72,7.56a409.74,409.74,0,0,1-74.26,55.59C613.92,266.21,493.08,270,456.72,208.31c-9.09-15.43-12-33.49-9.59-52.94A120.4,120.4,0,0,1,450,140.54q.94-3.76,2.15-7.58v2.8Z" transform="translate(5.09 59.32)"/><path class="cls-279" d="M850.31,135.76H798.07v-2.59q-3.51,3.54-7.17,7a381.33,381.33,0,0,1-69,51.62C617.27,253.48,505.06,257,471.29,199.72c-8.44-14.33-11.18-31.1-8.9-49.16A112.57,112.57,0,0,1,465,136.79c.29-1.17.61-2.34.94-3.51v2.48Z" transform="translate(5.09 59.32)"/><path class="cls-280" d="M835.73,135.76H784.24V133c-1.11,1.08-2.22,2.16-3.35,3.23a351.82,351.82,0,0,1-63.66,47.65C620.62,240.76,517,244,485.87,191.13c-7.79-13.22-10.32-28.7-8.22-45.38A104.39,104.39,0,0,1,480.09,133v2.72Z" transform="translate(5.09 59.32)"/><path class="cls-281" d="M821.15,135.76H770.88v-3.59a322.77,322.77,0,0,1-58.35,43.68C624,228,529,231,500.45,182.54c-7.14-12.12-9.46-26.31-7.54-41.6.25-1.91.55-3.83.92-5.78v.6Z" transform="translate(5.09 59.32)"/><path class="cls-282" d="M806.58,135.76H755.1v-2.27c-2,1.77-4,3.51-6,5.25q-6.15,5.2-12.81,10.2a307.57,307.57,0,0,1-28.42,18.93C627.32,215.31,541,218,515,174c-6.5-11-8.6-23.92-6.85-37.81.11-.87.23-1.74.37-2.62v2.24Z" transform="translate(5.09 59.32)"/><path class="cls-283" d="M792,135.76H740.24v-2.09q-5.55,4.68-11.53,9.18a276.64,276.64,0,0,1-25.59,17C630.67,202.58,553,205,529.6,165.36c-5.84-9.91-7.74-21.53-6.16-34v4.43Z" transform="translate(5.09 59.32)"/><path class="cls-284" d="M777.42,135.76h-51v-3q-2.57,2-5.22,4a247.38,247.38,0,0,1-22.74,15.15C634,189.86,565,192,544.18,156.77A42.19,42.19,0,0,1,539,142.51a48.87,48.87,0,0,1-.73-7.81v1.06Z" transform="translate(5.09 59.32)"/><path class="cls-285" d="M762.84,135.76h-54v-1.63q-2.42,1.69-4.9,3.36-5,3.31-10.26,6.44c-56.36,33.2-116.78,35.11-135,4.25a37,37,0,0,1-4.56-12.48v.06Z" transform="translate(5.09 59.32)"/><path class="cls-286" d="M748.27,135.76H693.48v-2.53c-1.47.92-3,1.83-4.46,2.71-48.31,28.47-100.1,30.1-115.68,3.65a30.39,30.39,0,0,1-2.44-5.16v1.33Z" transform="translate(5.09 59.32)"/><path class="cls-287" d="M733.69,135.76h-57v-3.61q-3.79,2-7.59,3.66a138.53,138.53,0,0,1-15,5.73,105.94,105.94,0,0,1-28.21,5.1c-8.72.28-16.6-.88-23.1-3.48a33.24,33.24,0,0,1-8.66-5,26.94,26.94,0,0,1-3.44-3.31v.9Z" transform="translate(5.09 59.32)"/><path class="cls-288" d="M719.11,135.76h0Z" transform="translate(5.09 59.32)"/><path class="cls-289" d="M704.53,135.76h0Z" transform="translate(5.09 59.32)"/><path class="cls-290" d="M690,135.76h0Z" transform="translate(5.09 59.32)"/><path class="cls-291" d="M675.38,135.76h0Z" transform="translate(5.09 59.32)"/></g><polygon class="cls-292" points="247.23 509.63 207.7 482.92 204.85 480.99 201.99 482.92 162.47 509.63 164.26 512.28 172.85 506.48 172.85 528.79 236.85 528.79 236.85 506.48 245.44 512.28 247.23 509.63"/><polygon class="cls-293" points="215.73 553.11 122.52 590.59 138.93 546.71 143.14 544.15 141.87 551.83 172.85 528.79 236.85 528.79 209.79 551.83 220.48 548.63 215.73 553.11"/><rect class="cls-294" x="201.65" y="506.39" width="6.4" height="12.8"/><g class="cls-295"><circle class="cls-296" cx="204.85" cy="512.79" r="35.2"/><circle class="cls-297" cx="199.76" cy="453.47" r="33.83" transform="translate(-159.1 176.51) rotate(-23.49)"/><circle class="cls-298" cx="199.76" cy="453.47" r="32.46" transform="translate(-281.77 606.25) rotate(-77.1)"/><circle class="cls-299" cx="204.85" cy="512.79" r="31.09"/><circle class="cls-300" cx="204.85" cy="512.79" r="29.71"/><circle class="cls-301" cx="199.76" cy="453.47" r="28.34" transform="translate(-281.74 606.44) rotate(-77.12)"/><circle class="cls-302" cx="199.76" cy="453.47" r="26.97" transform="translate(-274.31 639.06) rotate(-80.99)"/><circle class="cls-303" cx="204.85" cy="512.79" r="25.6"/><circle class="cls-304" cx="199.76" cy="453.47" r="24.23" transform="translate(-159.97 177.46) rotate(-23.64)"/><circle class="cls-305" cx="199.76" cy="453.47" r="22.86" transform="translate(-281.69 606.69) rotate(-77.15)"/><circle class="cls-306" cx="204.85" cy="512.79" r="21.49"/><circle class="cls-307" cx="204.85" cy="512.79" r="20.11"/><circle class="cls-308" cx="199.76" cy="453.47" r="18.74" transform="translate(-281.65 606.88) rotate(-77.17)"/><circle class="cls-309" cx="199.76" cy="453.47" r="17.37" transform="translate(-274.25 639.28) rotate(-81.02)"/><circle class="cls-310" cx="204.85" cy="512.79" r="16"/><circle class="cls-311" cx="199.76" cy="453.47" r="14.63" transform="translate(-160.85 178.42) rotate(-23.79)"/><circle class="cls-312" cx="199.76" cy="453.47" r="13.26" transform="translate(-281.6 607.13) rotate(-77.2)"/><circle class="cls-313" cx="204.85" cy="512.79" r="11.89"/><circle class="cls-314" cx="204.85" cy="512.79" r="10.51"/><circle class="cls-315" cx="199.76" cy="453.47" r="9.14" transform="translate(-281.57 607.32) rotate(-77.22)"/><circle class="cls-316" cx="199.76" cy="453.47" r="7.77" transform="translate(-274.19 639.5) rotate(-81.04)"/><circle class="cls-294" cx="204.85" cy="512.79" r="6.4"/></g><polygon class="cls-292" points="246.5 584.84 253.47 558.51 260.45 584.84 246.5 584.84"/><polygon class="cls-317" points="260.45 584.84 227.03 609.99 246.5 584.84 260.45 584.84"/><polygon class="cls-292" points="42.98 515.08 49.95 488.75 56.93 515.08 42.98 515.08"/><polygon class="cls-317" points="56.93 515.08 20.59 531.47 42.98 515.08 56.93 515.08"/><polygon class="cls-292" points="313.06 561.8 320.03 535.47 327.01 561.8 313.06 561.8"/><polygon class="cls-317" points="327.01 561.8 299.74 585.41 313.06 561.8 327.01 561.8"/><polygon class="cls-292" points="347.62 451.08 354.59 424.75 361.57 451.08 347.62 451.08"/><polygon class="cls-317" points="361.57 451.08 330.99 470.29 347.62 451.08 361.57 451.08"/><polygon class="cls-292" points="451.94 499.08 458.91 472.75 465.89 499.08 451.94 499.08"/><polygon class="cls-317" points="465.89 499.08 439.99 525.09 451.94 499.08 465.89 499.08"/><polygon class="cls-292" points="36.58 235.4 43.55 209.07 50.53 235.4 36.58 235.4"/><polygon class="cls-317" points="50.53 235.4 12.77 248.84 36.58 235.4 50.53 235.4"/><polygon class="cls-292" points="836.58 528.52 843.55 502.19 850.53 528.52 836.58 528.52"/><polygon class="cls-317" points="850.53 528.52 858.98 554 836.58 528.52 850.53 528.52"/><polygon class="cls-292" points="922.98 246.92 929.95 220.59 936.93 246.92 922.98 246.92"/><polygon class="cls-317" points="936.93 246.92 958.69 269.32 922.98 246.92 936.93 246.92"/><polygon class="cls-292" points="862.82 263.56 869.79 237.23 876.77 263.56 862.82 263.56"/><polygon class="cls-317" points="876.77 263.56 903.75 283.06 862.82 263.56 876.77 263.56"/><polygon class="cls-292" points="901.86 567.56 908.83 541.23 915.81 567.56 901.86 567.56"/><polygon class="cls-317" points="915.81 567.56 926.69 592.52 901.86 567.56 915.81 567.56"/><polygon class="cls-292" points="360.91 591.39 366.28 571.1 371.66 591.39 360.91 591.39"/><polygon class="cls-317" points="371.66 591.39 353.02 607.23 360.91 591.39 371.66 591.39"/><polygon class="cls-292" points="590.17 578.33 595.55 558.04 600.93 578.33 590.17 578.33"/><polygon class="cls-317" points="600.93 578.33 589.72 601.24 590.17 578.33 600.93 578.33"/><polygon class="cls-292" points="478.81 499.72 484.19 479.43 489.57 499.72 478.81 499.72"/><polygon class="cls-317" points="489.57 499.72 468.71 523.76 478.81 499.72 489.57 499.72"/><polygon class="cls-292" points="781.53 572.68 786.91 552.39 792.29 572.68 781.53 572.68"/><polygon class="cls-317" points="792.29 572.68 792.41 593.37 781.53 572.68 792.29 572.68"/><polygon class="cls-292" points="537.7 491.4 543.07 471.11 548.45 491.4 537.7 491.4"/><polygon class="cls-317" points="548.45 491.4 530.26 518.49 537.7 491.4 548.45 491.4"/><polygon class="cls-292" points="885.22 253.96 890.59 233.67 895.97 253.96 885.22 253.96"/><polygon class="cls-317" points="895.97 253.96 920.29 275.72 885.22 253.96 895.97 253.96"/><polygon class="cls-292" points="87.78 550.92 93.15 530.63 98.53 550.92 87.78 550.92"/><polygon class="cls-317" points="98.53 550.92 66.1 567.26 87.78 550.92 98.53 550.92"/><polygon class="cls-292" points="61.53 596.36 66.91 576.07 72.29 596.36 61.53 596.36"/><polygon class="cls-317" points="72.29 596.36 41.15 615.64 61.53 596.36 72.29 596.36"/><polygon class="cls-292" points="154.34 463.88 159.71 443.59 165.09 463.88 154.34 463.88"/><polygon class="cls-317" points="165.09 463.88 132.66 480.22 154.34 463.88 165.09 463.88"/><polygon class="cls-292" points="64.09 241.8 69.47 221.51 74.85 241.8 64.09 241.8"/><polygon class="cls-317" points="74.85 241.8 37.09 255.24 64.09 241.8 74.85 241.8"/><path class="cls-318" d="M252.16,44.55a1.6,1.6,0,0,0,0,3.19A1.6,1.6,0,0,0,252.16,44.55Z" transform="translate(5.09 59.32)"/><path class="cls-318" d="M622.72,45.71a1.47,1.47,0,0,0,0,2.93A1.47,1.47,0,0,0,622.72,45.71Z" transform="translate(5.09 59.32)"/><path class="cls-318" d="M842.71,145.47h-.43a1.54,1.54,0,0,0,0,3.08h.43a1.54,1.54,0,0,0,0-3.07Z" transform="translate(5.09 59.32)"/><path class="cls-318" d="M898.38,53.37l-.42,0c-1.94-.07-1.94,3.08,0,3h.42a1.49,1.49,0,0,0,0-3Z" transform="translate(5.09 59.32)"/><path class="cls-318" d="M97.28,152.27a1.46,1.46,0,0,0,0,2.92A1.46,1.46,0,0,0,97.28,152.27Z" transform="translate(5.09 59.32)"/><path class="cls-318" d="M69.76,37.07a1.47,1.47,0,0,0,0,2.93A1.47,1.47,0,0,0,69.76,37.07Z" transform="translate(5.09 59.32)"/><path class="cls-319" d="M179.2,75.34c-3.84,0-3.84,5.11,0,5.11C182.4,80.45,182.4,75.34,179.2,75.34Z" transform="translate(5.09 59.32)"/><path class="cls-319" d="M769.28,99.33c-3.2,0-3.2,5.12,0,5.12S772.48,99.33,769.28,99.33Z" transform="translate(5.09 59.32)"/><path class="cls-319" d="M425,33.1c-3.84,0-3.84,5.11,0,5.11C428.16,38.21,428.16,33.1,425,33.1Z" transform="translate(5.09 59.32)"/><path class="cls-319" d="M293.12,140.61c-3.84,0-3.84,5.12,0,5.12C296.32,145.73,296.32,140.61,293.12,140.61Z" transform="translate(5.09 59.32)"/><path class="cls-319" d="M188.16,184.77c-1.92,0-1.92,3.2,0,3.2S190.08,184.77,188.16,184.77Z" transform="translate(5.09 59.32)"/><path class="cls-319" d="M222.08,115.33a1,1,0,0,0,0,1.92A1,1,0,1,0,222.08,115.33Z" transform="translate(5.09 59.32)"/><path class="cls-319" d="M384.64,96.13a1,1,0,1,0,0,1.92A1,1,0,1,0,384.64,96.13Z" transform="translate(5.09 59.32)"/><path class="cls-319" d="M410.24,212.29a1,1,0,1,0,0,1.91A1,1,0,1,0,410.24,212.29Z" transform="translate(5.09 59.32)"/><path class="cls-319" d="M746.24,24.14a1,1,0,1,0,0,1.91A1,1,0,1,0,746.24,24.14Z" transform="translate(5.09 59.32)"/><path class="cls-319" d="M924.8,93.25a1,1,0,0,0,0,1.92A1,1,0,1,0,924.8,93.25Z" transform="translate(5.09 59.32)"/><path class="cls-319" d="M819.2,210.37a1,1,0,1,0,0,1.91A1,1,0,1,0,819.2,210.37Z" transform="translate(5.09 59.32)"/><path class="cls-319" d="M138.88,26.06a1,1,0,1,0,0,1.91A1,1,0,1,0,138.88,26.06Z" transform="translate(5.09 59.32)"/><path class="cls-319" d="M50.56,91.33a1,1,0,1,0,0,1.92A1,1,0,0,0,50.56,91.33Z" transform="translate(5.09 59.32)"/><path class="cls-319" d="M28.16,14.54a1,1,0,1,0,0,1.91A1,1,0,1,0,28.16,14.54Z" transform="translate(5.09 59.32)"/><path class="cls-319" d="M317.44,24.14a1,1,0,1,0,0,1.91A1,1,0,1,0,317.44,24.14Z" transform="translate(5.09 59.32)"/><path class="cls-319" d="M318.08,77.9a1,1,0,1,0,0,1.91A1,1,0,1,0,318.08,77.9Z" transform="translate(5.09 59.32)"/><path class="cls-319" d="M517.12,32.78a1,1,0,1,0,0,1.91A1,1,0,1,0,517.12,32.78Z" transform="translate(5.09 59.32)"/><path class="cls-319" d="M515.2,84.62a1,1,0,1,0,0,1.91A1,1,0,1,0,515.2,84.62Z" transform="translate(5.09 59.32)"/><path class="cls-319" d="M836.48,15.5a1,1,0,1,0,0,1.91A1,1,0,1,0,836.48,15.5Z" transform="translate(5.09 59.32)"/><path class="cls-319" d="M928.64,23.18a1,1,0,1,0,0,1.91A1,1,0,1,0,928.64,23.18Z" transform="translate(5.09 59.32)"/><path class="cls-319" d="M842.24,66.38a1,1,0,1,0,0,1.91A1,1,0,1,0,842.24,66.38Z" transform="translate(5.09 59.32)"/><path class="cls-319" d="M928.64,142.21a1,1,0,0,0,0,1.92A1,1,0,1,0,928.64,142.21Z" transform="translate(5.09 59.32)"/><path class="cls-319" d="M384.64,15.5a1,1,0,1,0,0,1.91A1,1,0,1,0,384.64,15.5Z" transform="translate(5.09 59.32)"/><path class="cls-319" d="M488.32,85.58a1,1,0,1,0,0,1.91A1,1,0,1,0,488.32,85.58Z" transform="translate(5.09 59.32)"/><path class="cls-320" d="M436.37,166.47l-204.5,63.69a2.35,2.35,0,1,1-1.35-4.51C231.77,225.28,436.37,166.47,436.37,166.47Z" transform="translate(5.09 59.32)"/><g class="cls-2"><g class="cls-321"><ellipse class="cls-322" cx="753.09" cy="179.76" rx="205.44" ry="179.76"/><ellipse class="cls-323" cx="753.09" cy="179.75" rx="201.46" ry="176.28"/><ellipse class="cls-324" cx="753.09" cy="179.73" rx="197.48" ry="172.79"/><ellipse class="cls-325" cx="753.09" cy="179.72" rx="193.5" ry="169.31"/><ellipse class="cls-326" cx="753.09" cy="179.71" rx="189.52" ry="165.83"/><ellipse class="cls-327" cx="753.09" cy="179.69" rx="185.54" ry="162.35"/><ellipse class="cls-328" cx="753.09" cy="179.68" rx="181.56" ry="158.86"/><ellipse class="cls-329" cx="753.09" cy="179.66" rx="177.58" ry="155.38"/><ellipse class="cls-330" cx="753.09" cy="179.65" rx="173.6" ry="151.9"/><ellipse class="cls-331" cx="753.09" cy="179.64" rx="169.62" ry="148.41"/><ellipse class="cls-332" cx="753.09" cy="179.62" rx="165.64" ry="144.93"/><ellipse class="cls-333" cx="753.09" cy="179.61" rx="161.65" ry="141.45"/><ellipse class="cls-334" cx="753.09" cy="179.6" rx="157.67" ry="137.96"/><ellipse class="cls-335" cx="753.09" cy="179.58" rx="153.69" ry="134.48"/><ellipse class="cls-336" cx="753.09" cy="179.57" rx="149.71" ry="131"/><ellipse class="cls-337" cx="753.09" cy="179.56" rx="145.73" ry="127.52"/><ellipse class="cls-338" cx="753.09" cy="179.54" rx="141.75" ry="124.03"/><ellipse class="cls-339" cx="753.09" cy="179.53" rx="137.77" ry="120.55"/><ellipse class="cls-340" cx="753.09" cy="179.51" rx="133.79" ry="117.07"/><ellipse class="cls-341" cx="753.09" cy="179.5" rx="129.81" ry="113.58"/><ellipse class="cls-342" cx="753.09" cy="179.49" rx="125.83" ry="110.1"/><ellipse class="cls-343" cx="753.09" cy="179.47" rx="121.85" ry="106.62"/><ellipse class="cls-344" cx="753.09" cy="179.46" rx="117.87" ry="103.14"/><ellipse class="cls-345" cx="753.09" cy="179.45" rx="113.89" ry="99.65"/><ellipse class="cls-346" cx="753.09" cy="179.43" rx="109.91" ry="96.17"/><ellipse class="cls-347" cx="753.09" cy="179.42" rx="105.93" ry="92.69"/><ellipse class="cls-348" cx="753.09" cy="179.4" rx="101.95" ry="89.2"/><ellipse class="cls-349" cx="753.09" cy="179.39" rx="97.97" ry="85.72"/><ellipse class="cls-350" cx="753.09" cy="179.38" rx="93.99" ry="82.24"/><ellipse class="cls-351" cx="753.09" cy="179.36" rx="90.01" ry="78.76"/><ellipse class="cls-352" cx="753.09" cy="179.35" rx="86.03" ry="75.27"/><ellipse class="cls-353" cx="753.09" cy="179.34" rx="82.04" ry="71.79"/><ellipse class="cls-354" cx="753.09" cy="179.32" rx="78.06" ry="68.31"/><ellipse class="cls-355" cx="753.09" cy="179.31" rx="74.08" ry="64.82"/><ellipse class="cls-356" cx="753.09" cy="179.3" rx="70.1" ry="61.34"/><ellipse class="cls-357" cx="753.09" cy="179.28" rx="66.12" ry="57.86"/><ellipse class="cls-358" cx="753.09" cy="179.27" rx="62.14" ry="54.37"/><ellipse class="cls-359" cx="753.09" cy="179.25" rx="58.16" ry="50.89"/><ellipse class="cls-360" cx="753.09" cy="179.24" rx="54.18" ry="47.41"/><ellipse class="cls-361" cx="753.09" cy="179.23" rx="50.2" ry="43.93"/><ellipse class="cls-362" cx="753.09" cy="179.21" rx="46.22" ry="40.44"/><ellipse class="cls-250" cx="753.09" cy="179.2" rx="42.24" ry="36.96"/></g></g><circle class="cls-319" cx="753.09" cy="179.76" r="51.2"/><circle class="cls-294" cx="733.57" cy="193.52" r="14.4"/><circle class="cls-294" cx="774.21" cy="195.76" r="9.6"/><circle class="cls-294" cx="742.21" cy="157.36" r="6.4"/><polygon class="cls-363" points="484.75 591.84 479.5 585.82 481 584.51 484.75 588.8 488.5 584.51 490.01 585.82 484.75 591.84"/><rect class="cls-363" x="484.09" y="563.32" width="2" height="26"/><rect class="cls-363" x="484.09" y="546.32" width="2" height="10"/></g></g></svg>