<?xml version="1.0" encoding="utf-8"?>
<!-- Generator: Adobe Illustrator 27.6.1, SVG Export Plug-In . SVG Version: 6.00 Build 0)  -->
<svg version="1.1" id="Layer_1" xmlns="http://www.w3.org/2000/svg" xmlns:xlink="http://www.w3.org/1999/xlink" x="0px" y="0px"
	 viewBox="0 0 2044 224" style="enable-background:new 0 0 2044 224;" xml:space="preserve">
<style type="text/css">
	.st0{fill:#D3E0EB;}
	.st1{fill:#94AFC6;}
	.st2{fill:#003C70;}
	.st3{fill:#FFFFFF;}
	.st4{fill:#FFFFFF;stroke:#000000;stroke-width:0.75;stroke-linecap:round;stroke-linejoin:round;}
	.st5{clip-path:url(#SVGID_00000120518727172269417710000005173214666836957340_);}
	.st6{clip-path:url(#SVGID_00000070807505648188323310000002349380915589811101_);}
	.st7{clip-path:url(#SVGID_00000102525492393711095890000015976101834794796693_);}
</style>
<polygon class="st0" points="2044,89.7 2044,115 0,115 0,89.7 1022,0 "/>
<polygon class="st1" points="2044,105.7 2044,131 0,131 0,105.7 1022,16 "/>
<polygon class="st2" points="2044,121.7 2044,147 0,147 0,121.8 77.4,115 1022.5,32 1967.6,115 "/>
<rect y="145" class="st2" width="2044" height="79"/>
<g id="Group_47" transform="translate(629.862 -2028)">
	<g id="Group_32" transform="translate(192.138 2127.335)">
		<path id="Path_66" class="st3" d="M-254.7,42h7.1v4.7h-2.1v16h-3v-16h-2V42z"/>
		<path id="Path_67" class="st4" d="M-254.7,42h7.1v4.7h-2.1v16h-3v-16h-2V42z"/>
		<g id="Group_31">
			<g>
				<defs>
					<rect id="SVGID_1_" x="-288" y="0" width="135.9" height="107.7"/>
				</defs>
				<clipPath id="SVGID_00000112600070739624608610000004924119983683625361_">
					<use xlink:href="#SVGID_1_"  style="overflow:visible;"/>
				</clipPath>
				<g id="Group_30" style="clip-path:url(#SVGID_00000112600070739624608610000004924119983683625361_);">
					<path id="Path_68" class="st3" d="M-245.1,42h3.5c1.3,0,2.6,0.6,3.3,1.7c0.9,1.4,1.3,3,1.2,4.7c0,1-0.2,2-0.5,2.9
						c-0.2,0.8-0.7,1.6-1.3,2.1l2.4,9.4h-3.1l-2.4-9.5h0v9.5h-3V42z M-242.1,46v4.9c1.3,0,2-0.8,2-2.2c0.1-0.7-0.1-1.4-0.5-2.1
						C-240.9,46.2-241.5,46-242.1,46"/>
					<path id="Path_69" class="st4" d="M-245.1,42h3.5c1.3,0,2.6,0.6,3.3,1.7c0.9,1.4,1.3,3,1.2,4.7c0,1-0.2,2-0.5,2.9
						c-0.2,0.8-0.7,1.6-1.3,2.1l2.4,9.4h-3.1l-2.4-9.5h0v9.5h-3V42z M-242.1,46v4.9c1.3,0,2-0.8,2-2.2c0.1-0.7-0.1-1.4-0.5-2.1
						C-240.9,46.2-241.5,46-242.1,46z"/>
					<path id="Path_70" class="st3" d="M-234.2,42h3.1v14.6c0,0.6,0.1,1.1,0.3,1.6c0.2,0.4,0.5,0.6,0.9,0.6c0.4,0,0.8-0.3,0.9-0.6
						c0.3-0.5,0.4-1.2,0.3-1.8V42h3v13.6c0,1.5-0.1,3-0.5,4.5c-0.2,0.9-0.7,1.8-1.4,2.5c-0.7,0.6-1.6,0.8-2.5,0.8
						c-1.4,0.1-2.7-0.7-3.3-1.9c-0.6-1.3-1-3.5-1-6.5V42z"/>
					<path id="Path_71" class="st4" d="M-234.2,42h3.1v14.6c0,0.6,0.1,1.1,0.3,1.6c0.2,0.4,0.5,0.6,0.9,0.6c0.4,0,0.8-0.3,0.9-0.6
						c0.3-0.5,0.4-1.2,0.3-1.8V42h3v13.6c0,1.5-0.1,3-0.5,4.5c-0.2,0.9-0.7,1.8-1.4,2.5c-0.7,0.6-1.6,0.8-2.5,0.8
						c-1.4,0.1-2.7-0.7-3.3-1.9c-0.6-1.3-1-3.5-1-6.5V42z"/>
					<path id="Path_72" class="st3" d="M-222.2,62.3v-4.8c0.6,0.7,1.5,1.2,2.4,1.3c0.4,0,0.7-0.2,0.9-0.5c0.2-0.4,0.3-0.8,0.3-1.3
						c0-0.4-0.1-0.8-0.3-1.2c-0.2-0.5-0.6-0.9-0.9-1.3c-0.9-1-1.7-2.2-2.2-3.5c-0.5-1.1-0.7-2.4-0.7-3.6c-0.1-1.5,0.3-3.1,1.1-4.4
						c0.5-1,1.6-1.7,2.8-1.7c0.9,0,1.8,0.3,2.5,0.9v4.7c-0.6-0.6-1.3-1-2.1-1.2c-0.3,0-0.7,0.1-0.9,0.4c-0.2,0.3-0.3,0.8-0.3,1.2
						c0.1,1.1,0.6,2.2,1.5,2.9c0.7,0.8,1.3,1.7,1.8,2.7c0.6,1.3,0.9,2.6,0.9,4.1c0.1,1.6-0.4,3.1-1.2,4.5c-0.6,1.1-1.8,1.7-3,1.8
						C-220.6,63.2-221.5,62.9-222.2,62.3"/>
					<path id="Path_73" class="st4" d="M-222.2,62.3v-4.8c0.6,0.7,1.5,1.2,2.4,1.3c0.4,0,0.7-0.2,0.9-0.5c0.2-0.4,0.3-0.8,0.3-1.3
						c0-0.4-0.1-0.8-0.3-1.2c-0.2-0.5-0.6-0.9-0.9-1.3c-0.9-1-1.7-2.2-2.2-3.5c-0.5-1.1-0.7-2.4-0.7-3.6c-0.1-1.5,0.3-3.1,1.1-4.4
						c0.5-1,1.6-1.7,2.8-1.7c0.9,0,1.8,0.3,2.5,0.9v4.7c-0.6-0.6-1.3-1-2.1-1.2c-0.3,0-0.7,0.1-0.9,0.4c-0.2,0.3-0.3,0.8-0.3,1.2
						c0.1,1.1,0.6,2.2,1.5,2.9c0.7,0.8,1.3,1.7,1.8,2.7c0.6,1.3,0.9,2.6,0.9,4.1c0.1,1.6-0.4,3.1-1.2,4.5c-0.6,1.1-1.8,1.7-3,1.8
						C-220.6,63.2-221.5,62.9-222.2,62.3z"/>
					<path id="Path_74" class="st3" d="M-213.6,42h7.1v4.7h-2.1v16h-3v-16h-2V42z"/>
					<path id="Path_75" class="st4" d="M-213.6,42h7.1v4.7h-2.1v16h-3v-16h-2V42z"/>
					<path id="Path_76" class="st3" d="M-204,42h6v4.4h-3v3.8h2.6v4.3h-2.6v3.8h3.1v4.4h-6V42z"/>
					<path id="Path_77" class="st4" d="M-204,42h6v4.4h-3v3.8h2.6v4.3h-2.6v3.8h3.1v4.4h-6V42z"/>
					<path id="Path_78" class="st3" d="M-194.9,42h2.8c1.8,0,3.5,1,4.4,2.6c1,1.7,1.5,4.3,1.5,7.6c0.1,2.1-0.2,4.1-0.7,6.1
						c-0.3,1.3-1.1,2.5-2.1,3.4c-0.8,0.7-1.9,1-2.9,1h-2.9L-194.9,42z M-191.9,46.4v11.9c0.9-0.1,1.6-0.7,1.9-1.5
						c0.4-1.4,0.6-2.9,0.6-4.4c0-1-0.1-2-0.2-3.1c-0.1-0.7-0.3-1.3-0.6-1.9c-0.2-0.3-0.4-0.6-0.8-0.8
						C-191.3,46.5-191.6,46.4-191.9,46.4"/>
					<path id="Path_79" class="st4" d="M-194.9,42h2.8c1.8,0,3.5,1,4.4,2.6c1,1.7,1.5,4.3,1.5,7.6c0.1,2.1-0.2,4.1-0.7,6.1
						c-0.3,1.3-1.1,2.5-2.1,3.4c-0.8,0.7-1.9,1-2.9,1h-2.9L-194.9,42z M-191.9,46.4v11.9c0.9-0.1,1.6-0.7,1.9-1.5
						c0.4-1.4,0.6-2.9,0.6-4.4c0-1-0.1-2-0.2-3.1c-0.1-0.7-0.3-1.3-0.6-1.9c-0.2-0.3-0.4-0.6-0.8-0.8
						C-191.3,46.5-191.6,46.4-191.9,46.4L-191.9,46.4z"/>
					<path id="Path_80" class="st3" d="M-229.6,107.2c0.2-1.4,0.4-2.8,0.7-4.3c0.3-2,0.7-4,1-5.9c0.1-0.4-0.2-0.6-0.4-0.8
						c-2.4-2.2-4.7-4.5-7.1-6.8c-0.3-0.3-0.2-0.5,0.1-0.6c0.6-0.2,1.1-0.2,1.7-0.3c2.7-0.4,5.3-0.8,8-1.2c0.6-0.1,1.2-0.5,1.4-1.1
						c1.3-2.8,2.6-5.5,4-8.3c0.1-0.1,0.1-0.2,0.2-0.4c0.3-0.3,0.5-0.5,0.7,0.1c1.2,2.8,2.7,5.6,4,8.3c0.3,0.8,1.1,1.4,2,1.4
						c2.1,0.2,4.2,0.6,6.2,1c0.8,0.1,1.7,0.2,2.5,0.3c0.6,0.1,0.7,0.4,0.3,0.7c-1.4,1.2-2.6,2.7-3.9,4c-0.9,0.8-1.7,1.7-2.7,2.4
						c-0.6,0.4-0.9,1.1-0.7,1.8c0.7,3.1,1.2,6.2,1.6,9.4c0,0.2,0.2,0.5-0.1,0.7c-0.2,0.2-0.4-0.1-0.6-0.2c-2.8-1.6-5.8-2.9-8.6-4.5
						c-0.4-0.2-1-0.2-1.4,0.1c-2.8,1.4-5.7,2.9-8.4,4.4C-229.5,107.8-229.6,107.8-229.6,107.2"/>
					<path id="Path_81" class="st3" d="M-178.5,82.5c0.1,2.1-0.2,4.2-0.9,6.2c-0.1,0.1-0.2,0.3,0,0.5c0.2,0.2,0.3-0.1,0.5-0.2
						c0.6-0.5,1.3-1.1,1.9-1.6c1.9-1.6,4.2-2.7,6.6-3.4c2.4-0.7,5-0.4,7.3,0.7c0.3,0.2,0.7,0.3,1,0.5c0.4,0.2,0.5,0.4,0.2,0.8
						c-2.6,3.3-6,5.7-10,7.2c-2.1,0.8-4.4,0.8-6.4-0.1c-1.5-0.6-2.8-1.4-4.1-2.3c-2.3-1.6-3.8-4.2-4.1-7c-0.4-3.7,0.1-7.4,1.5-10.8
						c0.4-1,0.5-1,1.4-0.4c2.5,1.6,4.2,4.1,4.9,7C-178.6,80.5-178.5,81.5-178.5,82.5"/>
					<path id="Path_82" class="st3" d="M-189.6,98.7c1.2-0.9,2.4-1.7,3.8-2.4c2.2-1.1,4.7-1.7,7.2-1.7c2.7,0.1,5.4,1.2,7.3,3.1
						c0.4,0.4,0,0.5-0.2,0.7c-2.1,1.6-4.3,2.9-6.8,3.8c-1.6,0.7-3.2,1.1-4.9,1.2c-1.9,0.2-3.8-0.3-5.4-1.3c-2.9-1.8-5.2-4-6.2-7.3
						c-0.5-1.6-0.5-3.2-0.3-4.8c0.5-3.3,1.7-6.5,3.5-9.3c0.2-0.4,0.5-0.7,0.9-0.3c1.8,1.3,3,3.2,3.5,5.4c0.4,2,0.3,4-0.1,5.9
						c-0.4,2.1-1.1,4.1-2.1,6C-189.6,98.1-189.7,98.4-189.6,98.7"/>
					<path id="Path_83" class="st3" d="M-250.3,98.5c-1-1.9-1.8-3.8-2.3-5.9c-1.2-3.8-0.5-7.9,2-11c0.3-0.4,0.7-0.7,1-1.1
						c0.4-0.4,0.7-0.3,1,0.1c2.4,3.4,3.7,7.5,3.6,11.7c0,3.1-1.4,6-3.8,7.8c-1.3,1.2-2.8,2.2-4.5,2.8c-2.1,0.7-4.3,0.7-6.4,0
						c-3.1-1-6.1-2.6-8.7-4.5c-0.5-0.4-0.5-0.6-0.1-1c3.3-3.1,7.2-3.4,11.3-2.3c2.2,0.6,4.2,1.6,6.1,2.9
						C-250.8,98.4-250.6,98.5-250.3,98.5"/>
					<path id="Path_84" class="st3" d="M-271.6,83.6c2,0.1,4.3,1.1,6.6,2.4c1.4,0.9,2.7,2,3.9,3.1c0.2,0.1,0.3,0.4,0.5,0.3
						s0.1-0.4,0-0.6c-0.8-2.4-1.1-4.9-0.9-7.4c0.3-3.4,1.5-6.4,4.5-8.5c0.3-0.2,0.6-0.5,0.9-0.7c0.5-0.3,0.8-0.2,1,0.4
						c0.9,2.4,1.4,4.9,1.6,7.5c0.2,2.3-0.2,4.7-1.1,6.9c-0.6,1.6-1.8,3-3.3,3.9c-1.6,1.1-3.5,2-5.4,2.6c-2.3,0.5-4.8,0.1-6.9-1.1
						c-3.1-1.4-5.8-3.5-7.9-6.2c-0.5-0.6-0.4-0.7,0.2-1.1C-275.8,84.1-273.7,83.6-271.6,83.6"/>
					<path id="Path_85" class="st3" d="M-259.8,69.3c0.2,2-0.1,3.9-0.8,5.8c-1,2.7-3.2,4.9-5.9,6c-2.2,0.8-4.6,1.1-6.9,0.6
						c-1.3-0.3-2.6-1-3.6-1.9c-2.4-1.8-4.3-4.1-5.8-6.7c-0.3-0.5-0.2-0.6,0.4-0.9c1.4-0.5,2.9-0.6,4.4-0.5c1.8,0,3.5,0.6,4.9,1.8
						c1.8,1.3,3.4,2.9,4.8,4.7c0.1,0.1,0.2,0.3,0.3,0.2c0.1-0.1,0.1-0.2,0.1-0.4c0-1,0-1.9,0-2.9c-0.1-3.8,1.6-7.4,4.6-9.7
						c0.7-0.5,1.5-1,2.3-1.3c0.5-0.2,0.6,0,0.7,0.4C-259.9,66-259.7,67.7-259.8,69.3"/>
					<path id="Path_86" class="st3" d="M-172.6,79.2c0.6-0.6,1.1-1.3,1.6-2c1.4-1.8,3.2-3.3,5.1-4.4c1.2-0.7,2.5-1.1,3.9-1.1
						c1.5-0.1,3.1,0.1,4.6,0.6c0.4,0.1,0.5,0.3,0.3,0.7c-2.1,3.2-4.4,6.3-7.9,8.1c-1.7,0.8-3.7,1.1-5.6,0.8
						c-2.6-0.3-4.9-1.5-6.8-3.4c-0.7-0.8-1.3-1.7-1.7-2.7c-1.1-2.8-1.5-5.9-1.1-8.8c0.1-0.8,0.2-1.6,0.3-2.3c0.1-0.7,0.4-0.8,1-0.5
						c2.5,1.1,4.4,3,5.5,5.4c1.2,2.9,1.6,6.1,1,9.2C-172.6,78.8-172.6,78.9-172.6,79.2"/>
					<path id="Path_87" class="st3" d="M-164.4,70.8c-3.2-0.1-5.8-0.8-7.9-2.7c-1.4-1.3-2.4-2.9-2.9-4.7c-0.7-2.2-1.1-4.6-1.1-6.9
						c0-1.1,0.2-1.3,1.3-1c2.7,0.8,5,2.7,6.2,5.2c1.1,2.2,1.7,4.5,2,7c0,0.2-0.1,0.4,0.2,0.5c0.3,0,0.3-0.3,0.3-0.4
						c1.3-3.2,3.8-5.9,6.9-7.6c1.8-0.8,3.7-1.1,5.6-0.8c0.6,0,0.8,0.3,0.5,0.9c-1.2,3.3-3.1,6.2-5.8,8.5
						C-160.5,70-162.4,70.8-164.4,70.8"/>
					<path id="Path_88" class="st3" d="M-284.8,59.3c3.4-0.1,5.9,1.5,8.1,3.9c1.2,1.3,2.2,2.8,3,4.3c0.1,0.2,0.1,0.4,0.4,0.4
						c0.2-0.1,0.2-0.3,0.2-0.5c0.1-2.4,0.7-4.8,1.9-7c1.4-2.5,3.8-4.3,6.5-5.1c0.5-0.1,0.9-0.2,0.9,0.5c0.2,3-0.4,6-1.6,8.8
						c-1.7,3.7-5.3,6-9.3,6.1c-2.4,0.1-4.7-0.8-6.5-2.4c-1.6-1.4-3-3-4-4.8c-0.6-1.2-1-2.4-1.5-3.7c-0.2-0.4,0.1-0.6,0.4-0.6
						C-285.9,59.3-285.3,59.4-284.8,59.3"/>
					<path id="Path_89" class="st3" d="M-164.3,57.4c0.8-2.2,2-4.2,3.5-6c2-2.4,5.1-3.7,8.3-3.4c0.3,0,0.6,0.1,0.5,0.5
						c-0.6,1.9-1.4,3.8-2.4,5.6c-1.1,2-2.8,3.6-4.8,4.6c-0.9,0.4-1.9,0.7-3,0.6c-1.3,0-2.5-0.1-3.8-0.3c-2.1-0.5-4-1.8-5.2-3.6
						c-1.9-2.7-2.9-5.9-2.9-9.2c0-0.8,0.1-0.9,0.9-0.7c3.4,0.7,6.2,3.1,7.5,6.4c0.6,1.6,1.1,3.3,1.3,5
						C-164.5,57.1-164.5,57.2-164.3,57.4"/>
					<path id="Path_90" class="st3" d="M-275.8,57.4c0.2-1,0.3-1.9,0.5-2.7c0.8-2.7,1.8-5.3,4.1-7.1c1.3-1,2.9-1.7,4.5-2.1
						c0.5-0.1,0.8,0.1,0.7,0.6c-0.1,3.1-1,6.1-2.4,8.8c-1.2,2-3.1,3.5-5.4,4.1c-1.5,0.4-3.1,0.6-4.7,0.5c-1.6-0.2-3-0.9-4.2-1.9
						c-2.3-1.7-3.5-4.2-4.5-6.7c-0.3-0.7-0.5-1.4-0.8-2.1c-0.2-0.7-0.2-0.8,0.6-0.8c3.3-0.1,6.5,1.4,8.4,4c1.1,1.3,1.9,2.8,2.5,4.4
						C-276.3,56.8-276.1,57.1-275.8,57.4"/>
					<path id="Path_91" class="st3" d="M-163.7,45.8c0.2-1.9,0.8-3.8,1.7-5.5c1.1-2,2.8-3.5,5-4.2c0.5-0.1,1-0.2,1.4-0.2
						c0.3,0,0.4,0.2,0.4,0.4c-0.3,2.7-0.7,5.4-2.3,7.7c-1.4,2.1-3.8,3.4-6.3,3.5c-2,0.2-4-0.3-5.5-1.6c-1.8-1.6-3.2-3.6-4-5.9
						c-0.2-0.6-0.4-1.2-0.6-1.9c-0.2-0.5,0-0.7,0.5-0.7c2.2,0,4.3,0.8,5.9,2.2c1.5,1.4,2.6,3.1,3.3,5
						C-164.2,45.1-164,45.5-163.7,45.8"/>
					<path id="Path_92" class="st3" d="M-275.3,47.5c-4.5,0.2-7.1-2.5-8.6-6c-0.6-1.5-1-3.1-1.1-4.8c-0.1-0.9,0-0.9,0.9-0.8
						c3.6,0.6,5.5,3,6.8,6.1c0.4,1,0.6,2,0.7,3.1c0,0.2,0,0.4,0.2,0.4c0.2,0,0.3-0.2,0.3-0.4c0.7-1.8,1.6-3.4,2.9-4.9
						c1.7-1.9,4.2-2.9,6.7-2.8c0.4,0,0.5,0.2,0.4,0.5c-1.1,3.5-2.6,6.7-5.9,8.7C-272.9,47.4-274.1,47.6-275.3,47.5"/>
					<path id="Path_93" class="st3" d="M-275.3,36.2c0.3-0.2,0.5-0.5,0.6-0.9c0.8-1.8,2.1-3.3,3.8-4.4c1.6-1,3.5-1.3,5.3-0.9
						c0.3,0.1,0.5,0.2,0.4,0.6c-1,2.3-2.5,4.3-4.5,5.9c-3.9,3-9.9,0.5-11.3-3.5c-0.6-2-0.8-4.1-0.7-6.2c0-0.5,0.3-0.4,0.6-0.4
						c2.6,0.6,4.1,2.4,5,4.8C-275.6,32.9-275.3,34.5-275.3,36.2"/>
					<path id="Path_94" class="st3" d="M-158.2,27.4c-0.1,2.5-0.3,5-1.8,7.2c-1,1.4-2.4,2.5-4,3c-3.8,1.2-6.4-0.6-8.7-3.3
						c-0.8-1-1.4-2.1-1.9-3.3c-0.4-0.8-0.3-0.9,0.5-1c2.4-0.4,4.9,0.4,6.6,2.2c0.8,0.9,1.5,1.9,2.1,2.9c0.1,0.2,0.1,0.5,0.4,0.5
						c0.3-0.1,0.3-0.4,0.3-0.6c0-1.4,0.3-2.8,0.9-4.1c0.8-2,2.5-3.6,4.6-4.4C-158.3,26.3-158.2,26.3-158.2,27.4"/>
					<path id="Path_95" class="st3" d="M-277.4,21.8c0-0.4,0.1-1.2,0.2-1.9c0-0.6,0.2-0.7,0.8-0.4c2,1,3.4,2.9,3.6,5.2
						c0.2,0.7,0.2,1.5,0,2.3c0,0.2-0.1,0.5,0.1,0.6c0.3,0.1,0.4-0.2,0.5-0.4c0.8-1.1,1.8-1.9,3-2.6c1.3-0.8,2.8-1,4.3-0.6
						c1,0.2,1,0.5,0.5,1.3c-0.9,1.3-2,2.4-3.3,3.4c-2.8,1.9-6.6,1.1-8.5-1.7c-0.3-0.4-0.5-0.8-0.6-1.3
						C-277.3,24.3-277.4,23-277.4,21.8"/>
					<path id="Path_96" class="st3" d="M-167.2,27.8c-0.1-1.3-0.1-2.5,0.1-3.8c0.3-1.9,1.5-3.6,3.1-4.5c0.7-0.4,0.9-0.3,1.1,0.5
						c0.4,2,0.2,4-0.5,5.9c-1.4,3-5,4.4-8,3c-0.4-0.2-0.7-0.4-1.1-0.6c-1.2-1-2.3-2.1-3.2-3.4c-0.4-0.6-0.4-0.7,0.3-0.9
						c2.1-0.6,4.4-0.1,5.9,1.5C-168.7,26.2-168,26.9-167.2,27.8"/>
					<path id="Path_97" class="st3" d="M-171.8,22.7c-1.8,0-3.6-0.7-5-2c-0.6-0.5-1.2-1.1-1.7-1.7c-0.3-0.4-0.2-0.5,0.2-0.7
						c2.2-1.1,4.2-0.5,6.1,0.9c0.6,0.4,1.1,0.9,1.7,1.4c0.1,0.1,0.2,0.3,0.5,0.2c0.2-0.1,0-0.3,0-0.4c-0.4-1.7-0.3-3.5,0.2-5.1
						c0.5-1,1.2-1.9,2.2-2.5c0.2-0.2,0.5-0.3,0.7,0.1c0.8,2,0.9,4.2,0.3,6.3C-167.5,21.1-169.5,22.5-171.8,22.7"/>
					<path id="Path_98" class="st3" d="M-269.9,20.9c0.8-0.9,1.7-1.7,2.7-2.4c1.6-1,3.6-1.1,5.3-0.3c0.3,0.1,0.5,0.3,0.2,0.6
						c-1.2,1.5-2.8,2.7-4.6,3.5c-3,0.9-6.1-0.6-7.2-3.5c-0.5-2-0.4-4.1,0.2-6c0.2-0.6,0.5-0.4,0.8-0.2c1.5,1,2.5,2.7,2.6,4.6
						c0.1,1,0,2.1-0.2,3.1C-270,20.5-270.1,20.7-269.9,20.9"/>
					<path id="Path_99" class="st3" d="M-173.7,14.7c0-0.5-0.1-1-0.3-1.4c-0.7-2.2-0.1-4.6,1.6-6.1c0.6-0.6,0.8-0.6,1.1,0.2
						c0.7,1.6,1,3.3,0.8,5.1c-0.3,2.5-3,4.3-5.2,4.3c-2.5,0-4.3-1.3-5.9-2.9c-0.3-0.3-0.1-0.5,0.2-0.7c1.1-0.5,2.4-0.7,3.6-0.5
						c1.3,0.2,2.5,0.8,3.5,1.8C-174.1,14.5-173.9,14.7-173.7,14.7"/>
					<path id="Path_100" class="st3" d="M-266.1,11.4c0,0.9-0.1,1.8-0.4,2.7c-0.1,0.2-0.2,0.4-0.1,0.6c0.2,0.2,0.4-0.1,0.6-0.3
						c1-0.9,2.2-1.5,3.5-1.8c1.2-0.2,2.3,0,3.4,0.4c0.7,0.3,0.8,0.6,0.2,1.1c-1,1-2.1,1.7-3.4,2.3c-1.8,0.8-3.9,0.5-5.4-0.8
						c-1.6-1.2-2.3-3.2-2-5.1c0.1-1.1,0.4-2.1,0.8-3.1c0.3-0.8,0.5-0.8,1.1-0.2C-266.6,8.2-266,9.8-266.1,11.4"/>
					<path id="Path_101" class="st3" d="M-259.5,7.4c-1.3,0-1.4-0.1-1.1-1.1c1.1-3,2.9-5.2,6.2-6c0.7-0.2,1.4-0.3,2.1-0.2
						c0.4,0,0.6,0.2,0.4,0.6c-1.5,2.5-2.9,5-5.6,6.3C-258.1,7.1-258.8,7.3-259.5,7.4"/>
					<path id="Path_102" class="st3" d="M-180.4,7.4c-1.3-0.1-2.5-0.6-3.5-1.5c-1.8-1.4-3.2-3.2-4.2-5.2c-0.3-0.6,0-0.7,0.5-0.7
						c2.5,0,4.9,1.1,6.4,3.1c0.8,1,1.4,2.1,1.8,3.2C-179.1,7.2-179.2,7.4-180.4,7.4"/>
					<path id="Path_103" class="st3" d="M-180.7,8.5c1,0.1,1.9,0.3,2.7,0.9c0.2,0.1,0.4,0.3,0.6,0.1c0.3-0.2,0-0.5-0.1-0.7
						c-0.9-1.6-0.8-3.6,0.4-5.1c0.4-0.5,0.6-0.5,0.9,0.1c0.5,0.9,0.9,1.9,1.1,3c0.3,2.3-1.3,4.5-3.7,4.8c-0.7,0.1-1.3,0-1.9-0.2
						c-0.9-0.3-1.7-0.7-2.5-1.3c-0.4-0.3-0.4-0.6,0.1-0.9C-182.4,8.7-181.6,8.5-180.7,8.5"/>
					<path id="Path_104" class="st3" d="M-263,9.6c1-0.2,1.8-0.8,2.7-1c1.1-0.3,2.3-0.1,3.3,0.5c0.7,0.4,0.7,0.8,0,1.1
						c-0.9,0.5-1.9,1-3,1.3c-2.2,0.7-4.8-1.6-5-3.6c-0.1-1.5,0.3-3,1.1-4.2c0.3-0.6,0.6-0.3,0.9,0.1c1,1.3,1.2,3,0.5,4.5
						C-262.6,8.7-262.8,9.1-263,9.6"/>
				</g>
			</g>
		</g>
	</g>
	<g id="Group_29" transform="translate(1028.783 2127.335)">
		<path id="Path_29" class="st3" d="M-255.3,42h7.1v4.7h-2.1v16h-3v-16h-2V42z"/>
		<path id="Path_30" class="st4" d="M-255.3,42h7.1v4.7h-2.1v16h-3v-16h-2V42z"/>
		<g id="Group_28" transform="translate(0)">
			<g>
				<defs>
					<rect id="SVGID_00000155846183941760109160000011361446721760725183_" x="-288" y="0" width="135.9" height="107.7"/>
				</defs>
				<clipPath id="SVGID_00000007386349681671142510000005022710723461210258_">
					<use xlink:href="#SVGID_00000155846183941760109160000011361446721760725183_"  style="overflow:visible;"/>
				</clipPath>
				<g id="Group_27" style="clip-path:url(#SVGID_00000007386349681671142510000005022710723461210258_);">
					<path id="Path_31" class="st3" d="M-245.6,42h3.5c1.3,0,2.6,0.6,3.3,1.7c0.9,1.4,1.3,3,1.2,4.7c0,1-0.2,2-0.5,2.9
						c-0.2,0.8-0.7,1.6-1.3,2.1l2.4,9.4h-3.1l-2.4-9.5h0v9.5h-3V42z M-242.6,46v4.9c1.3,0,2-0.8,2-2.2c0.1-0.7-0.1-1.4-0.5-2.1
						C-241.5,46.2-242.1,46-242.6,46"/>
					<path id="Path_32" class="st4" d="M-245.6,42h3.5c1.3,0,2.6,0.6,3.3,1.7c0.9,1.4,1.3,3,1.2,4.7c0,1-0.2,2-0.5,2.9
						c-0.2,0.8-0.7,1.6-1.3,2.1l2.4,9.4h-3.1l-2.4-9.5h0v9.5h-3V42z M-242.6,46v4.9c1.3,0,2-0.8,2-2.2c0.1-0.7-0.1-1.4-0.5-2.1
						C-241.5,46.2-242.1,46-242.6,46z"/>
					<path id="Path_33" class="st3" d="M-225.5,62.7h-3.1l-0.5-3.5h-3.1l-0.5,3.5h-3l3.5-20.8h3.3L-225.5,62.7z M-229.7,55.5
						c-0.4-3.1-0.8-6-1-8.8h0c-0.2,2.9-0.6,5.8-1,8.8H-229.7z"/>
					<path id="Path_34" class="st4" d="M-225.5,62.7h-3.1l-0.5-3.5h-3.1l-0.5,3.5h-3l3.5-20.8h3.3L-225.5,62.7z M-229.7,55.5
						c-0.4-3.1-0.8-6-1-8.8h0c-0.2,2.9-0.6,5.8-1,8.8H-229.7z"/>
					<rect id="Rectangle_38" x="-223.2" y="42" class="st3" width="3" height="20.8"/>
					<rect id="Rectangle_39" x="-223.2" y="42" class="st4" width="3" height="20.8"/>
					<path id="Path_35" class="st3" d="M-216.6,42h3l3.8,12l-0.1-2.2V42h3v20.8h-3.1l-3.7-11.8l0.1,2.6v9.2h-3V42z"/>
					<path id="Path_36" class="st4" d="M-216.6,42h3l3.8,12l-0.1-2.2V42h3v20.8h-3.1l-3.7-11.8l0.1,2.6v9.2h-3V42z"/>
					<path id="Path_37" class="st3" d="M-203.4,42h6v4.4h-3v3.8h2.6v4.3h-2.6v3.8h3.1v4.4h-6L-203.4,42z"/>
					<path id="Path_38" class="st4" d="M-203.4,42h6v4.4h-3v3.8h2.6v4.3h-2.6v3.8h3.1v4.4h-6L-203.4,42z"/>
					<path id="Path_39" class="st3" d="M-194.3,42h2.8c1.8,0,3.5,1,4.4,2.6c1,1.7,1.5,4.3,1.5,7.6c0.1,2.1-0.2,4.1-0.7,6.1
						c-0.3,1.3-1.1,2.5-2.1,3.4c-0.8,0.7-1.9,1-2.9,1h-2.9L-194.3,42z M-191.4,46.4v11.9c0.9-0.1,1.6-0.7,1.9-1.5
						c0.4-1.4,0.6-2.9,0.6-4.4c0-1-0.1-2-0.2-3.1c-0.1-0.7-0.3-1.3-0.6-1.9c-0.2-0.3-0.4-0.6-0.8-0.8
						C-190.7,46.5-191.1,46.4-191.4,46.4"/>
					<path id="Path_40" class="st4" d="M-194.3,42h2.8c1.8,0,3.5,1,4.4,2.6c1,1.7,1.5,4.3,1.5,7.6c0.1,2.1-0.2,4.1-0.7,6.1
						c-0.3,1.3-1.1,2.5-2.1,3.4c-0.8,0.7-1.9,1-2.9,1h-2.9L-194.3,42z M-191.4,46.4v11.9c0.9-0.1,1.6-0.7,1.9-1.5
						c0.4-1.4,0.6-2.9,0.6-4.4c0-1-0.1-2-0.2-3.1c-0.1-0.7-0.3-1.3-0.6-1.9c-0.2-0.3-0.4-0.6-0.8-0.8
						C-190.7,46.5-191.1,46.4-191.4,46.4L-191.4,46.4z"/>
					<path id="Path_41" class="st3" d="M-229.6,107.2c0.2-1.4,0.4-2.8,0.7-4.3c0.3-2,0.7-4,1-5.9c0.1-0.4-0.2-0.6-0.4-0.8
						c-2.4-2.2-4.7-4.5-7.1-6.8c-0.3-0.3-0.2-0.5,0.1-0.6c0.6-0.2,1.1-0.2,1.7-0.3c2.7-0.4,5.3-0.8,8-1.2c0.6-0.1,1.2-0.5,1.4-1.1
						c1.3-2.8,2.6-5.5,4-8.3c0.1-0.1,0.1-0.2,0.2-0.4c0.3-0.3,0.5-0.5,0.7,0.1c1.2,2.8,2.7,5.6,4,8.3c0.3,0.8,1.1,1.4,2,1.4
						c2.1,0.2,4.2,0.6,6.2,1c0.8,0.1,1.7,0.2,2.5,0.3c0.6,0.1,0.7,0.4,0.3,0.7c-1.4,1.2-2.6,2.7-3.9,4c-0.9,0.8-1.7,1.7-2.7,2.4
						c-0.6,0.4-0.9,1.1-0.7,1.8c0.7,3.1,1.2,6.2,1.6,9.4c0,0.2,0.2,0.5-0.1,0.7c-0.2,0.2-0.4-0.1-0.6-0.2c-2.8-1.6-5.8-2.9-8.6-4.5
						c-0.4-0.2-1-0.2-1.4,0.1c-2.8,1.4-5.7,2.9-8.4,4.4C-229.5,107.8-229.6,107.8-229.6,107.2"/>
					<path id="Path_42" class="st3" d="M-178.5,82.5c0.1,2.1-0.2,4.2-0.9,6.2c-0.1,0.1-0.2,0.3,0,0.5c0.2,0.2,0.3-0.1,0.5-0.2
						c0.6-0.5,1.3-1.1,1.9-1.6c1.9-1.6,4.2-2.7,6.6-3.4c2.4-0.7,5-0.4,7.3,0.7c0.3,0.2,0.7,0.3,1,0.5c0.4,0.2,0.5,0.4,0.2,0.8
						c-2.6,3.3-6,5.7-10,7.2c-2.1,0.8-4.4,0.8-6.4-0.1c-1.5-0.6-2.8-1.4-4.1-2.3c-2.3-1.6-3.8-4.2-4.1-7c-0.4-3.7,0.1-7.4,1.5-10.8
						c0.4-1,0.5-1,1.4-0.4c2.5,1.6,4.2,4.1,4.9,7C-178.6,80.5-178.5,81.5-178.5,82.5"/>
					<path id="Path_43" class="st3" d="M-189.6,98.7c1.2-0.9,2.4-1.7,3.8-2.4c2.2-1.1,4.7-1.7,7.2-1.7c2.7,0.1,5.4,1.2,7.3,3.1
						c0.4,0.4,0,0.5-0.2,0.7c-2.1,1.6-4.3,2.9-6.8,3.8c-1.6,0.7-3.2,1.1-4.9,1.2c-1.9,0.2-3.8-0.3-5.4-1.3c-2.9-1.8-5.2-4-6.2-7.3
						c-0.5-1.6-0.5-3.2-0.3-4.8c0.5-3.3,1.7-6.5,3.5-9.3c0.2-0.4,0.5-0.7,0.9-0.3c1.8,1.3,3,3.2,3.5,5.4c0.4,2,0.3,4-0.1,5.9
						c-0.4,2.1-1.1,4.1-2.1,6C-189.6,98.1-189.7,98.4-189.6,98.7"/>
					<path id="Path_44" class="st3" d="M-250.3,98.5c-1-1.9-1.8-3.8-2.3-5.9c-1.2-3.8-0.5-7.9,2-11c0.3-0.4,0.7-0.7,1-1.1
						c0.4-0.4,0.7-0.3,1,0.1c2.4,3.4,3.7,7.5,3.6,11.7c0,3.1-1.4,6-3.8,7.8c-1.3,1.2-2.8,2.2-4.5,2.8c-2.1,0.7-4.3,0.7-6.4,0
						c-3.1-1-6.1-2.6-8.7-4.5c-0.5-0.4-0.5-0.6-0.1-1c3.3-3.1,7.2-3.4,11.3-2.3c2.2,0.6,4.2,1.6,6.1,2.9
						C-250.8,98.4-250.6,98.5-250.3,98.5"/>
					<path id="Path_45" class="st3" d="M-271.6,83.6c2,0.1,4.3,1.1,6.6,2.4c1.4,0.9,2.7,2,3.9,3.1c0.2,0.1,0.3,0.4,0.5,0.3
						s0.1-0.4,0-0.6c-0.8-2.4-1.1-4.9-0.9-7.4c0.3-3.4,1.5-6.4,4.5-8.5c0.3-0.2,0.6-0.5,0.9-0.7c0.5-0.3,0.8-0.2,1,0.4
						c0.9,2.4,1.4,4.9,1.6,7.5c0.2,2.3-0.2,4.7-1.1,6.9c-0.6,1.6-1.8,3-3.3,3.9c-1.6,1.1-3.5,2-5.4,2.6c-2.3,0.5-4.8,0.1-6.9-1.1
						c-3.1-1.4-5.8-3.5-7.9-6.2c-0.5-0.6-0.4-0.7,0.2-1.1C-275.8,84.1-273.7,83.6-271.6,83.6"/>
					<path id="Path_46" class="st3" d="M-259.8,69.3c0.2,2-0.1,3.9-0.8,5.8c-1,2.7-3.2,4.9-5.9,6c-2.2,0.8-4.6,1.1-6.9,0.6
						c-1.3-0.3-2.6-1-3.6-1.9c-2.4-1.8-4.3-4.1-5.8-6.7c-0.3-0.5-0.2-0.6,0.4-0.9c1.4-0.5,2.9-0.6,4.4-0.5c1.8,0,3.5,0.6,4.9,1.8
						c1.8,1.3,3.4,2.9,4.8,4.7c0.1,0.1,0.2,0.3,0.3,0.2c0.1-0.1,0.1-0.2,0.1-0.4c0-1,0-1.9,0-2.9c-0.1-3.8,1.6-7.4,4.6-9.7
						c0.7-0.5,1.5-1,2.3-1.3c0.5-0.2,0.6,0,0.7,0.4C-259.9,66-259.7,67.7-259.8,69.3"/>
					<path id="Path_47" class="st3" d="M-172.6,79.2c0.6-0.6,1.1-1.3,1.6-2c1.4-1.8,3.2-3.3,5.1-4.4c1.2-0.7,2.5-1.1,3.9-1.1
						c1.5-0.1,3.1,0.1,4.6,0.6c0.4,0.1,0.5,0.3,0.3,0.7c-2.1,3.2-4.4,6.3-7.9,8.1c-1.7,0.8-3.7,1.1-5.6,0.8
						c-2.6-0.3-4.9-1.5-6.8-3.4c-0.7-0.8-1.3-1.7-1.7-2.7c-1.1-2.8-1.5-5.9-1.1-8.8c0.1-0.8,0.2-1.6,0.3-2.3c0.1-0.7,0.4-0.8,1-0.5
						c2.5,1.1,4.4,3,5.5,5.4c1.2,2.9,1.6,6.1,1,9.2C-172.6,78.8-172.6,78.9-172.6,79.2"/>
					<path id="Path_48" class="st3" d="M-164.4,70.8c-3.2-0.1-5.8-0.8-7.9-2.7c-1.4-1.3-2.4-2.9-2.9-4.7c-0.7-2.2-1.1-4.6-1.1-6.9
						c0-1.1,0.2-1.3,1.3-1c2.7,0.8,5,2.7,6.2,5.2c1.1,2.2,1.7,4.5,2,7c0,0.2-0.1,0.4,0.2,0.5c0.3,0,0.3-0.3,0.3-0.4
						c1.3-3.2,3.8-5.9,6.9-7.6c1.8-0.8,3.7-1.1,5.6-0.8c0.6,0,0.8,0.3,0.5,0.9c-1.2,3.3-3.1,6.2-5.8,8.5
						C-160.5,70-162.4,70.8-164.4,70.8"/>
					<path id="Path_49" class="st3" d="M-284.8,59.3c3.4-0.1,5.9,1.5,8.1,3.9c1.2,1.3,2.2,2.8,3,4.3c0.1,0.2,0.1,0.4,0.4,0.4
						c0.2-0.1,0.2-0.3,0.2-0.5c0.1-2.4,0.7-4.8,1.9-7c1.4-2.5,3.8-4.3,6.5-5.1c0.5-0.1,0.9-0.2,0.9,0.5c0.2,3-0.4,6-1.6,8.8
						c-1.7,3.7-5.3,6-9.3,6.1c-2.4,0.1-4.7-0.8-6.5-2.4c-1.6-1.4-3-3-4-4.8c-0.6-1.2-1-2.4-1.5-3.7c-0.2-0.4,0.1-0.6,0.4-0.6
						C-285.9,59.3-285.3,59.4-284.8,59.3"/>
					<path id="Path_50" class="st3" d="M-164.3,57.4c0.8-2.2,2-4.2,3.5-6c2-2.4,5.1-3.7,8.3-3.4c0.3,0,0.6,0.1,0.5,0.5
						c-0.6,1.9-1.4,3.8-2.4,5.6c-1.1,2-2.8,3.6-4.8,4.6c-0.9,0.4-1.9,0.7-3,0.6c-1.3,0-2.5-0.1-3.8-0.3c-2.1-0.5-4-1.8-5.2-3.6
						c-1.9-2.7-2.9-5.9-2.9-9.2c0-0.8,0.1-0.9,0.9-0.7c3.4,0.7,6.2,3.1,7.5,6.4c0.6,1.6,1.1,3.3,1.3,5
						C-164.5,57.1-164.5,57.2-164.3,57.4"/>
					<path id="Path_51" class="st3" d="M-275.8,57.4c0.2-1,0.3-1.9,0.5-2.7c0.8-2.7,1.8-5.3,4.1-7.1c1.3-1,2.9-1.7,4.5-2.1
						c0.5-0.1,0.8,0.1,0.7,0.6c-0.1,3.1-1,6.1-2.4,8.8c-1.2,2-3.1,3.5-5.4,4.1c-1.5,0.4-3.1,0.6-4.7,0.5c-1.6-0.2-3-0.9-4.2-1.9
						c-2.3-1.7-3.5-4.2-4.5-6.7c-0.3-0.7-0.5-1.4-0.8-2.1c-0.2-0.7-0.2-0.8,0.6-0.8c3.3-0.1,6.5,1.4,8.4,4c1.1,1.3,1.9,2.8,2.5,4.4
						C-276.3,56.8-276.1,57.1-275.8,57.4"/>
					<path id="Path_52" class="st3" d="M-163.7,45.8c0.2-1.9,0.8-3.8,1.7-5.5c1.1-2,2.8-3.5,5-4.2c0.5-0.1,1-0.2,1.4-0.2
						c0.3,0,0.4,0.2,0.4,0.4c-0.3,2.7-0.7,5.4-2.3,7.7c-1.4,2.1-3.8,3.4-6.3,3.5c-2,0.2-4-0.3-5.5-1.6c-1.8-1.6-3.2-3.6-4.1-5.9
						c-0.2-0.6-0.4-1.2-0.6-1.9c-0.2-0.5,0-0.7,0.5-0.7c2.2,0,4.3,0.8,5.9,2.2c1.5,1.4,2.6,3.1,3.3,5
						C-164.2,45.1-164,45.5-163.7,45.8"/>
					<path id="Path_53" class="st3" d="M-275.3,47.5c-4.5,0.2-7.1-2.5-8.6-6c-0.6-1.5-1-3.1-1.1-4.8c-0.1-0.9,0-0.9,0.9-0.8
						c3.6,0.6,5.5,3,6.8,6.1c0.4,1,0.6,2,0.7,3.1c0,0.2,0,0.4,0.2,0.4c0.2,0,0.3-0.2,0.3-0.4c0.7-1.8,1.6-3.4,2.9-4.9
						c1.7-1.9,4.2-2.9,6.7-2.8c0.4,0,0.5,0.2,0.4,0.5c-1.1,3.5-2.6,6.7-5.9,8.7C-272.9,47.4-274.1,47.6-275.3,47.5"/>
					<path id="Path_54" class="st3" d="M-275.3,36.2c0.3-0.2,0.5-0.5,0.6-0.9c0.8-1.8,2.1-3.3,3.8-4.4c1.6-1,3.5-1.3,5.3-0.9
						c0.3,0.1,0.5,0.2,0.4,0.6c-1,2.3-2.5,4.3-4.5,5.9c-3.9,3-9.9,0.5-11.3-3.5c-0.6-2-0.8-4.1-0.7-6.2c0-0.5,0.3-0.4,0.6-0.4
						c2.6,0.6,4.1,2.4,5,4.8C-275.6,32.9-275.3,34.5-275.3,36.2"/>
					<path id="Path_55" class="st3" d="M-158.2,27.4c-0.1,2.5-0.3,5-1.8,7.2c-1,1.4-2.4,2.5-4,3c-3.8,1.2-6.4-0.6-8.7-3.3
						c-0.8-1-1.4-2.1-1.9-3.3c-0.4-0.8-0.3-0.9,0.5-1c2.4-0.4,4.9,0.4,6.6,2.2c0.8,0.9,1.5,1.9,2.1,2.9c0.1,0.2,0.1,0.5,0.4,0.5
						c0.3-0.1,0.3-0.4,0.3-0.6c0-1.4,0.3-2.8,0.9-4.1c0.8-2,2.5-3.6,4.6-4.4C-158.3,26.3-158.2,26.3-158.2,27.4"/>
					<path id="Path_56" class="st3" d="M-277.4,21.8c0-0.4,0.1-1.2,0.2-1.9c0-0.6,0.2-0.7,0.8-0.4c2,1,3.4,2.9,3.6,5.2
						c0.2,0.7,0.2,1.5,0,2.3c0,0.2-0.1,0.5,0.1,0.6c0.3,0.1,0.4-0.2,0.5-0.4c0.8-1.1,1.8-1.9,3-2.6c1.3-0.8,2.8-1,4.3-0.6
						c1,0.2,1,0.5,0.5,1.3c-0.9,1.3-2,2.4-3.3,3.4c-2.8,1.9-6.6,1.1-8.5-1.7c-0.3-0.4-0.5-0.8-0.6-1.3
						C-277.3,24.3-277.4,23-277.4,21.8"/>
					<path id="Path_57" class="st3" d="M-167.2,27.8c-0.1-1.3-0.1-2.5,0.1-3.8c0.3-1.9,1.5-3.6,3.1-4.5c0.7-0.4,0.9-0.3,1.1,0.5
						c0.4,2,0.2,4-0.5,5.9c-1.4,3-5,4.4-8,3c-0.4-0.2-0.7-0.4-1.1-0.6c-1.2-1-2.3-2.1-3.2-3.4c-0.4-0.6-0.4-0.7,0.3-0.9
						c2.1-0.6,4.4-0.1,5.9,1.5C-168.7,26.2-168,26.9-167.2,27.8"/>
					<path id="Path_58" class="st3" d="M-171.8,22.7c-1.8,0-3.6-0.7-5-2c-0.6-0.5-1.2-1.1-1.7-1.7c-0.3-0.4-0.2-0.5,0.2-0.7
						c2.2-1.1,4.2-0.5,6.1,0.9c0.6,0.4,1.1,0.9,1.7,1.4c0.1,0.1,0.2,0.3,0.5,0.2c0.2-0.1,0-0.3,0-0.4c-0.4-1.7-0.3-3.5,0.2-5.1
						c0.5-1,1.2-1.9,2.2-2.5c0.2-0.2,0.5-0.3,0.7,0.1c0.8,2,0.9,4.2,0.3,6.3C-167.5,21.1-169.5,22.5-171.8,22.7"/>
					<path id="Path_59" class="st3" d="M-269.9,20.9c0.8-0.9,1.7-1.7,2.7-2.4c1.6-1,3.6-1.1,5.3-0.3c0.3,0.1,0.5,0.3,0.2,0.6
						c-1.2,1.5-2.8,2.7-4.6,3.5c-3,0.9-6.1-0.6-7.2-3.5c-0.5-2-0.4-4.1,0.2-6c0.2-0.6,0.5-0.4,0.8-0.2c1.5,1,2.5,2.7,2.6,4.6
						c0.1,1,0,2.1-0.2,3.1C-270,20.5-270.1,20.7-269.9,20.9"/>
					<path id="Path_60" class="st3" d="M-173.7,14.7c0-0.5-0.1-1-0.3-1.4c-0.7-2.2-0.1-4.6,1.6-6.1c0.6-0.6,0.8-0.6,1.1,0.2
						c0.7,1.6,1,3.3,0.8,5.1c-0.3,2.5-3,4.3-5.2,4.3c-2.5,0-4.3-1.3-5.9-2.9c-0.3-0.3-0.1-0.5,0.2-0.7c1.1-0.5,2.4-0.7,3.6-0.5
						c1.3,0.2,2.5,0.8,3.5,1.8C-174.1,14.5-173.9,14.7-173.7,14.7"/>
					<path id="Path_61" class="st3" d="M-266.1,11.4c0,0.9-0.1,1.8-0.4,2.7c-0.1,0.2-0.2,0.4-0.1,0.6c0.2,0.2,0.4-0.1,0.6-0.3
						c1-0.9,2.2-1.5,3.5-1.8c1.2-0.2,2.3,0,3.4,0.4c0.7,0.3,0.8,0.6,0.2,1.1c-1,1-2.1,1.7-3.4,2.3c-1.8,0.8-3.9,0.5-5.4-0.8
						c-1.6-1.2-2.3-3.2-2-5.1c0.1-1.1,0.4-2.1,0.8-3.1c0.3-0.8,0.5-0.8,1.1-0.2C-266.6,8.2-266,9.8-266.1,11.4"/>
					<path id="Path_62" class="st3" d="M-259.5,7.4c-1.3,0-1.4-0.1-1.1-1.1c1.1-3,2.9-5.2,6.2-6c0.7-0.2,1.4-0.3,2.1-0.2
						c0.4,0,0.6,0.2,0.4,0.6c-1.5,2.5-2.9,5-5.6,6.3C-258.1,7.1-258.8,7.3-259.5,7.4"/>
					<path id="Path_63" class="st3" d="M-180.4,7.4c-1.3-0.1-2.5-0.6-3.5-1.5c-1.8-1.4-3.2-3.2-4.2-5.2c-0.3-0.6,0-0.7,0.5-0.7
						c2.5,0,4.9,1.1,6.4,3.1c0.8,1,1.4,2.1,1.8,3.2C-179.1,7.2-179.2,7.4-180.4,7.4"/>
					<path id="Path_64" class="st3" d="M-180.7,8.5c1,0.1,1.9,0.3,2.7,0.9c0.2,0.1,0.4,0.3,0.6,0.1c0.3-0.2,0-0.5-0.1-0.7
						c-0.9-1.6-0.8-3.6,0.4-5.1c0.4-0.5,0.6-0.5,0.9,0.1c0.5,0.9,0.9,1.9,1.1,3c0.3,2.3-1.3,4.5-3.7,4.8c-0.7,0.1-1.3,0-1.9-0.2
						c-0.9-0.3-1.7-0.7-2.5-1.3c-0.4-0.3-0.4-0.6,0.1-0.9C-182.4,8.7-181.6,8.5-180.7,8.5"/>
					<path id="Path_65" class="st3" d="M-263,9.6c1-0.2,1.8-0.8,2.7-1c1.1-0.3,2.3-0.1,3.3,0.5c0.7,0.4,0.7,0.8,0,1.1
						c-0.9,0.5-1.9,1-3,1.3c-2.2,0.7-4.8-1.6-5-3.6c-0.1-1.5,0.3-3,1.1-4.2c0.3-0.6,0.6-0.3,0.9,0.1c1,1.3,1.2,3,0.5,4.5
						C-262.6,8.7-262.8,9.1-263,9.6"/>
				</g>
			</g>
		</g>
	</g>
	<g id="Group_34" transform="translate(577.765 2076.605)">
		<g>
			<defs>
				<rect id="SVGID_00000112609478221532179680000006258300014417100161_" x="-288" y="0" width="202.2" height="160.2"/>
			</defs>
			<clipPath id="SVGID_00000018924392326557625840000001855568559561535616_">
				<use xlink:href="#SVGID_00000112609478221532179680000006258300014417100161_"  style="overflow:visible;"/>
			</clipPath>
			<g id="Group_33" transform="translate(0)" style="clip-path:url(#SVGID_00000018924392326557625840000001855568559561535616_);">
				<path id="Path_105" class="st3" d="M-235,77.1v3.8c0.1,2.4-0.3,4.8-1.3,7c-0.6,1.5-2.1,2.5-3.7,2.5c-1.7,0-3.1-1-4.1-3.1
					s-1.4-5.1-1.4-8.9c0-3.9,0.5-6.8,1.4-8.9c0.9-2,2.3-3,4.2-3c2,0,3.5,1.7,4.4,5.2l-3.1,2c-0.2-0.6-0.4-1.1-0.7-1.6
					c-0.2-0.3-0.5-0.5-0.9-0.5c-0.7,0-1.1,0.5-1.4,1.6c-0.3,1.8-0.5,3.5-0.4,5.3c-0.1,1.7,0.1,3.4,0.5,5c0.3,1.1,0.8,1.6,1.5,1.6
					c1.1,0,1.7-1.2,1.7-3.7h-1.5v-4.4L-235,77.1z"/>
				<path id="Path_106" class="st4" d="M-235,77.1v3.8c0.1,2.4-0.3,4.8-1.3,7c-0.6,1.5-2.1,2.5-3.7,2.5c-1.7,0-3.1-1-4.1-3.1
					s-1.4-5.1-1.4-8.9c0-3.9,0.5-6.8,1.4-8.9c0.9-2,2.3-3,4.2-3c2,0,3.5,1.7,4.4,5.2l-3.1,2c-0.2-0.6-0.4-1.1-0.7-1.6
					c-0.2-0.3-0.5-0.5-0.9-0.5c-0.7,0-1.1,0.5-1.4,1.6c-0.3,1.8-0.5,3.5-0.4,5.3c-0.1,1.7,0.1,3.4,0.5,5c0.3,1.1,0.8,1.6,1.5,1.6
					c1.1,0,1.7-1.2,1.7-3.7h-1.5v-4.4L-235,77.1z"/>
				<path id="Path_107" class="st3" d="M-232,67.1h3.3v16c0,0.6,0.1,1.2,0.4,1.8c0.2,0.4,0.6,0.6,1,0.7c0.5,0,0.9-0.3,1-0.7
					c0.3-0.6,0.4-1.3,0.4-1.9V67.1h3.3V82c0,1.6-0.1,3.3-0.5,4.9c-0.2,1-0.7,2-1.5,2.7c-0.8,0.6-1.8,0.9-2.7,0.9
					c-1.5,0.1-3-0.7-3.7-2.1c-0.7-1.4-1.1-3.8-1.1-7.1V67.1z"/>
				<path id="Path_108" class="st4" d="M-232,67.1h3.3v16c0,0.6,0.1,1.2,0.4,1.8c0.2,0.4,0.6,0.6,1,0.7c0.5,0,0.9-0.3,1-0.7
					c0.3-0.6,0.4-1.3,0.4-1.9V67.1h3.3V82c0,1.6-0.1,3.3-0.5,4.9c-0.2,1-0.7,2-1.5,2.7c-0.8,0.6-1.8,0.9-2.7,0.9
					c-1.5,0.1-3-0.7-3.7-2.1c-0.7-1.4-1.1-3.8-1.1-7.1V67.1z"/>
				<path id="Path_109" class="st3" d="M-208.9,89.8h-3.4l-0.5-3.8h-3.4l-0.6,3.8h-3.3l3.8-22.7h3.7L-208.9,89.8z M-213.5,81.9
					c-0.5-3.4-0.9-6.6-1.1-9.7h0c-0.3,3.1-0.6,6.4-1.1,9.7H-213.5z"/>
				<path id="Path_110" class="st4" d="M-208.9,89.8h-3.4l-0.5-3.8h-3.4l-0.6,3.8h-3.3l3.8-22.7h3.7L-208.9,89.8z M-213.5,81.9
					c-0.5-3.4-0.9-6.6-1.1-9.7h0c-0.3,3.1-0.6,6.4-1.1,9.7H-213.5z"/>
				<path id="Path_111" class="st3" d="M-206.5,67.1h3.8c1.5,0,2.8,0.7,3.6,1.9c1,1.5,1.4,3.3,1.3,5.1c0,1.1-0.2,2.2-0.5,3.2
					c-0.3,0.9-0.8,1.7-1.5,2.3l2.6,10.2h-3.4l-2.6-10.4h-0.1v10.4h-3.3V67.1z M-203.3,71.5v5.4c1.4,0,2.2-0.8,2.2-2.4
					c0.1-0.8-0.1-1.6-0.5-2.3C-202,71.7-202.6,71.5-203.3,71.5"/>
				<path id="Path_112" class="st4" d="M-206.5,67.1h3.8c1.5,0,2.8,0.7,3.6,1.9c1,1.5,1.4,3.3,1.3,5.1c0,1.1-0.2,2.2-0.5,3.2
					c-0.3,0.9-0.8,1.7-1.5,2.3l2.6,10.2h-3.4l-2.6-10.4h-0.1v10.4h-3.3V67.1z M-203.3,71.5v5.4c1.4,0,2.2-0.8,2.2-2.4
					c0.1-0.8-0.1-1.6-0.5-2.3C-202,71.7-202.6,71.5-203.3,71.5L-203.3,71.5z"/>
				<path id="Path_113" class="st3" d="M-184.5,89.8h-3.4l-0.5-3.8h-3.4l-0.6,3.8h-3.3l3.8-22.7h3.7L-184.5,89.8z M-189.1,81.9
					c-0.5-3.4-0.9-6.6-1.1-9.7h0c-0.3,3.1-0.6,6.4-1.1,9.7H-189.1z"/>
				<path id="Path_114" class="st4" d="M-184.5,89.8h-3.4l-0.5-3.8h-3.4l-0.6,3.8h-3.3l3.8-22.7h3.7L-184.5,89.8z M-189.1,81.9
					c-0.5-3.4-0.9-6.6-1.1-9.7h0c-0.3,3.1-0.6,6.4-1.1,9.7H-189.1z"/>
				<path id="Path_115" class="st3" d="M-182.1,67.1h3.3l4.1,13.1l-0.1-2.5V67.1h3.3v22.7h-3.3l-4.1-12.9l0.1,2.8v10.1h-3.3
					L-182.1,67.1z"/>
				<path id="Path_116" class="st4" d="M-182.1,67.1h3.3l4.1,13.1l-0.1-2.5V67.1h3.3v22.7h-3.3l-4.1-12.9l0.1,2.8v10.1h-3.3
					L-182.1,67.1z"/>
				<path id="Path_117" class="st3" d="M-168.7,67.1h7.8v5.2h-2.2v17.5h-3.3V72.3h-2.2L-168.7,67.1z"/>
				<path id="Path_118" class="st4" d="M-168.7,67.1h7.8v5.2h-2.2v17.5h-3.3V72.3h-2.2L-168.7,67.1z"/>
				<path id="Path_119" class="st3" d="M-158.2,67.1h6.6v4.8h-3.3v4.2h2.9v4.7h-2.9V85h3.4v4.9h-6.6V67.1z"/>
				<path id="Path_120" class="st4" d="M-158.2,67.1h6.6v4.8h-3.3v4.2h2.9v4.7h-2.9V85h3.4v4.9h-6.6V67.1z"/>
				<path id="Path_121" class="st3" d="M-148.2,67.1h6.6v4.8h-3.3v4.2h2.9v4.7h-2.9V85h3.4v4.9h-6.6L-148.2,67.1z"/>
				<path id="Path_122" class="st4" d="M-148.2,67.1h6.6v4.8h-3.3v4.2h2.9v4.7h-2.9V85h3.4v4.9h-6.6L-148.2,67.1z"/>
				<path id="Path_123" class="st3" d="M-138.3,67.1h3c2-0.1,3.9,1.1,4.8,2.9c1.1,1.9,1.6,4.7,1.6,8.3c0.1,2.3-0.2,4.5-0.8,6.7
					c-0.4,1.4-1.2,2.7-2.3,3.7c-0.9,0.7-2,1.1-3.2,1.1h-3.2L-138.3,67.1z M-135,71.9v13c1-0.1,1.8-0.8,2.1-1.7
					c0.5-1.5,0.7-3.2,0.6-4.8c0-1.1-0.1-2.2-0.2-3.3c-0.1-0.7-0.3-1.5-0.6-2.1c-0.2-0.4-0.5-0.7-0.8-0.9
					C-134.3,72-134.7,71.9-135,71.9"/>
				<path id="Path_124" class="st4" d="M-138.3,67.1h3c2-0.1,3.9,1.1,4.8,2.9c1.1,1.9,1.6,4.7,1.6,8.3c0.1,2.3-0.2,4.5-0.8,6.7
					c-0.4,1.4-1.2,2.7-2.3,3.7c-0.9,0.7-2,1.1-3.2,1.1h-3.2L-138.3,67.1z M-135,71.9v13c1-0.1,1.8-0.8,2.1-1.7
					c0.5-1.5,0.7-3.2,0.6-4.8c0-1.1-0.1-2.2-0.2-3.3c-0.1-0.7-0.3-1.5-0.6-2.1c-0.2-0.4-0.5-0.7-0.8-0.9
					C-134.3,72-134.7,71.9-135,71.9L-135,71.9z"/>
				<path id="Path_125" class="st3" d="M-201.2,159.5c0.3-2,0.6-4.2,1-6.4c0.5-2.9,1-5.9,1.5-8.8c0.1-0.6-0.3-0.9-0.6-1.2
					c-3.6-3.2-7-6.7-10.5-10.1c-0.5-0.4-0.3-0.7,0.2-0.9c0.8-0.2,1.7-0.4,2.5-0.4c3.9-0.6,7.9-1.2,11.9-1.7c0.9-0.1,1.7-0.7,2-1.6
					c1.9-4.1,3.9-8.2,5.9-12.3c0.1-0.2,0.2-0.4,0.3-0.5c0.4-0.5,0.7-0.7,1.1,0.1c1.8,4.2,4,8.3,5.9,12.4c0.5,1.2,1.7,2,3,2.1
					c3.1,0.4,6.2,1,9.3,1.4c1.3,0.2,2.5,0.3,3.8,0.5c0.8,0.1,1,0.6,0.4,1.1c-2.2,1.7-3.8,4-5.8,5.9c-1.3,1.3-2.6,2.5-4,3.6
					c-0.9,0.6-1.3,1.7-1,2.7c1,4.6,1.8,9.2,2.4,13.9c0,0.3,0.2,0.7-0.1,1c-0.3,0.3-0.6-0.1-0.9-0.3c-4.1-2.4-8.6-4.3-12.7-6.7
					c-0.7-0.3-1.4-0.3-2.1,0.1c-4.2,2.1-8.4,4.3-12.5,6.6C-201,160.4-201.1,160.3-201.2,159.5"/>
				<path id="Path_126" class="st3" d="M-125.2,122.7c-0.1,3.5-0.2,6.4-1.3,9.2c-0.1,0.2-0.2,0.5,0,0.7c0.3,0.3,0.5-0.1,0.7-0.2
					c0.9-0.8,1.9-1.6,2.8-2.4c2.9-2.3,6.2-4,9.8-5c3.6-1,7.5-0.6,10.9,1c0.5,0.2,1,0.5,1.5,0.7c0.7,0.3,0.8,0.6,0.3,1.1
					c-3.9,4.9-9,8.5-14.8,10.7c-3.1,1.2-6.5,1.1-9.6-0.2c-2.2-0.9-4.2-2-6.2-3.4c-3.5-2.4-5.7-6.3-6.1-10.5
					c-0.6-5.5,0.1-11,2.2-16.1c0.6-1.4,0.8-1.5,2.1-0.6c3.7,2.4,6.3,6.1,7.3,10.4C-125.3,119.7-125.2,121.2-125.2,122.7"/>
				<path id="Path_127" class="st3" d="M-141.7,146.8c1.8-1.3,3.6-2.5,5.6-3.5c3.3-1.7,7-2.6,10.7-2.5c4.3,0,7.8,1.8,10.8,4.7
					c0.6,0.6,0,0.7-0.3,1c-3.1,2.3-6.5,4.3-10,5.7c-2.3,1-4.8,1.6-7.3,1.8c-2.8,0.2-5.6-0.4-8-2c-4.3-2.6-7.8-5.9-9.3-10.9
					c-0.7-2.3-0.8-4.8-0.4-7.2c0.7-4.9,2.5-9.6,5.2-13.8c0.4-0.5,0.7-1,1.4-0.4c2.5,2.2,4.6,4.7,5.2,8c0.5,2.9,0.5,5.9-0.2,8.8
					c-0.6,3.1-1.7,6.1-3.2,8.9C-141.7,145.8-141.8,146.3-141.7,146.8"/>
				<path id="Path_128" class="st3" d="M-231.9,146.6c-1.5-2.8-2.6-5.7-3.5-8.7c-1.7-6-0.9-11.4,3-16.4c0.5-0.6,1-1.1,1.5-1.7
					c0.6-0.7,1-0.4,1.5,0.2c3.6,5.1,5.5,11.2,5.4,17.5c0,4.6-2.1,8.9-5.7,11.7c-2.1,1.7-4.1,3.4-6.7,4.1c-3.1,1-6.4,1-9.5,0
					c-4.7-1.5-9-3.8-13-6.7c-0.7-0.5-0.7-0.8-0.1-1.5c4.9-4.6,10.7-5,16.8-3.4c3.2,1,6.2,2.4,9,4.3
					C-232.7,146.3-232.3,146.5-231.9,146.6"/>
				<path id="Path_129" class="st3" d="M-263.6,124.4c2.9,0.1,6.4,1.6,9.8,3.5c2.2,1.2,3.9,3.1,5.8,4.7c0.2,0.2,0.4,0.6,0.7,0.4
					c0.3-0.2,0.1-0.6,0-1c-1.2-3.5-1.6-7.3-1.3-11c0.5-5.1,2.3-9.6,6.6-12.6c0.4-0.3,0.9-0.7,1.3-1c0.7-0.5,1.2-0.2,1.5,0.5
					c1.3,3.6,2.1,7.4,2.3,11.2c0.3,3.5-0.3,7-1.6,10.2c-0.9,2.4-2.7,4.5-4.9,5.8c-2.6,1.5-5,3.1-8,3.8c-3.7,0.9-7-0.1-10.2-1.7
					c-4.6-2.1-8.6-5.2-11.7-9.2c-0.7-0.9-0.7-1.1,0.4-1.6C-269.9,125-266.8,124.3-263.6,124.4"/>
				<path id="Path_130" class="st3" d="M-246.1,103c0.3,2.9-0.2,5.8-1.3,8.6c-1.5,4.1-4.7,7.3-8.8,8.9c-3.3,1.3-6.8,1.6-10.2,0.9
					c-2-0.5-3.8-1.5-5.3-2.9c-3.5-2.7-6.4-6.1-8.6-9.9c-0.4-0.8-0.3-0.9,0.6-1.3c2.1-0.9,4.3-0.7,6.5-0.7c2.7,0,5.3,0.9,7.4,2.6
					c2.7,2,5.1,4.3,7.1,7c0.1,0.2,0.2,0.4,0.5,0.3c0.2-0.1,0.2-0.4,0.2-0.6c0-1.4,0-2.9,0-4.3c0.1-5.9,2.2-10.8,6.9-14.5
					c1.1-0.8,2.3-1.5,3.5-2c0.7-0.3,1-0.1,1.1,0.7C-246.1,98.2-246,100.6-246.1,103"/>
				<path id="Path_131" class="st3" d="M-116.4,117.8c0.9-0.9,1.7-1.9,2.4-3c2.1-2.6,4.7-4.8,7.6-6.6c1.7-1.1,3.7-1.6,5.8-1.6
					c2.3-0.1,4.6,0.1,6.8,0.9c0.6,0.2,0.8,0.5,0.4,1c-3.1,4.8-6.5,9.3-11.8,12c-2.6,1.3-5.5,1.7-8.3,1.2c-3.8-0.5-7.4-2.3-10.1-5
					c-1.1-1.1-2-2.5-2.6-4c-1.9-4.2-2.1-8.7-1.6-13.2c0.1-1.2,0.3-2.3,0.5-3.5c0.2-1,0.5-1.2,1.4-0.8c3.6,1.6,6.6,4.5,8.1,8.1
					c1.8,4.3,2.3,9.1,1.4,13.7C-116.3,117.3-116.3,117.4-116.4,117.8"/>
				<path id="Path_132" class="st3" d="M-104.2,105.3c-4.8-0.2-8.6-1.2-11.8-4c-2.1-1.9-3.6-4.3-4.3-7c-1.1-3.3-1.6-6.8-1.6-10.3
					c0-1.6,0.3-1.9,1.9-1.4c4,1.1,7.4,3.9,9.3,7.7c1.6,3.3,2.6,6.8,2.9,10.4c0,0.3-0.1,0.7,0.2,0.7c0.4,0.1,0.4-0.4,0.5-0.7
					c2-4.8,5.6-8.8,10.2-11.2c2.6-1.4,5.5-1.4,8.4-1.2c0.8,0.1,1.1,0.4,0.8,1.3c-1.7,4.9-4.7,9.2-8.6,12.6
					C-98.7,104.2-101.6,105.5-104.2,105.3"/>
				<path id="Path_133" class="st3" d="M-283.3,88.3c5-0.2,8.8,2.2,12,5.8c1.7,1.9,3.2,4.1,4.4,6.4c0.1,0.3,0.2,0.7,0.6,0.6
					c0.3-0.1,0.2-0.5,0.3-0.7c0.1-3.6,1.1-7.2,2.8-10.3c2.1-3.7,5.6-6.4,9.7-7.6c0.7-0.2,1.3-0.2,1.4,0.8c0.1,4.5-0.4,8.9-2.4,13.1
					c-2.8,5.8-7.6,8.6-13.9,9.1c-3.6,0.2-7-1.1-9.6-3.6c-2.4-2-4.4-4.4-6-7.2c-1-1.7-1.5-3.6-2.2-5.4c-0.3-0.6,0.1-0.8,0.6-0.9
					C-284.8,88.2-284,88.3-283.3,88.3"/>
				<path id="Path_134" class="st3" d="M-104,85.3c1.2-3.2,3-6.2,5.1-8.9c3.2-3.9,7.4-5.3,12.3-5.1c0.5,0,0.9,0.1,0.7,0.8
					c-0.9,2.9-2.1,5.7-3.6,8.3c-1.8,2.9-3.9,5.5-7.2,6.9c-1.4,0.7-2.9,1-4.4,0.9c-1.9,0-3.8-0.1-5.7-0.4c-3.2-0.7-5.9-2.6-7.7-5.4
					c-2.8-4-4.3-8.8-4.4-13.7c-0.1-1.3,0.1-1.4,1.4-1.1c5.1,1.1,9.2,4.6,11.1,9.5c1,2.4,1.6,4.9,2,7.5
					C-104.3,84.9-104.3,85.1-104,85.3"/>
				<path id="Path_135" class="st3" d="M-269.8,85.4c0.3-1.5,0.4-2.8,0.8-4c1.2-4,2.6-7.9,6.1-10.6c2-1.5,4.3-2.6,6.7-3.2
					c0.7-0.2,1.1,0.1,1,0.8c-0.4,4.6-1.2,9.1-3.6,13.1c-1.8,3-4.6,5.2-8,6.1c-2.3,0.6-4.6,0.8-7,0.7c-2.3-0.1-4.3-1.4-6.2-2.8
					c-3.4-2.5-5.2-6.2-6.7-10c-0.4-1-0.8-2.1-1.1-3.1c-0.4-1-0.2-1.1,0.8-1.2c4.9-0.2,9.6,2,12.6,6c1.6,1.9,2.9,4.1,3.7,6.5
					C-270.6,84.4-270.3,85-269.8,85.4"/>
				<path id="Path_136" class="st3" d="M-103.1,68.1c0.3-2.8,1.2-5.6,2.5-8.1c1.6-3,4.2-5.2,7.4-6.3c0.7-0.2,1.4-0.3,2.1-0.3
					c0.5-0.1,0.6,0.3,0.5,0.7c-0.4,4-1.1,8.1-3.5,11.4c-2.1,3.1-5.6,5.1-9.4,5.2c-3.1,0.2-5.8-0.3-8.2-2.4c-2.7-2.4-4.8-5.4-6-8.8
					c-0.3-0.9-0.6-1.8-0.9-2.8c-0.2-0.7-0.1-1.1,0.8-1.1c3.2,0,6.4,1.2,8.8,3.3c2.2,2,3.9,4.6,4.9,7.4
					C-103.9,67.1-103.6,67.7-103.1,68.1"/>
				<path id="Path_137" class="st3" d="M-269.1,70.7c-6.6,0.3-10.5-3.7-12.7-9c-0.9-2.3-1.5-4.7-1.7-7.1c-0.1-1.3,0-1.4,1.3-1.2
					c5.3,0.9,8.2,4.5,10,9.1c0.6,1.5,0.9,3,1.1,4.6c0,0.3-0.1,0.6,0.3,0.7c0.3,0,0.4-0.3,0.5-0.6c1-2.7,2.4-5.1,4.3-7.2
					c2.6-2.8,6.2-4.3,10-4.2c0.6,0,0.7,0.2,0.6,0.8c-1.6,5.2-3.8,10-8.7,13C-265.6,70.5-267.4,70.9-269.1,70.7"/>
				<path id="Path_138" class="st3" d="M-269.1,53.8c0.4-0.3,0.7-0.8,0.9-1.3c1.3-2.6,3.2-4.9,5.6-6.5c2.3-1.4,5.2-1.9,7.8-1.3
					c0.5,0.1,0.8,0.3,0.6,0.9c-1.5,3.4-3.8,6.4-6.6,8.8c-5.8,4.5-14.7,0.7-16.8-5.3c-0.9-3-1.2-6.1-1-9.2c0-0.7,0.4-0.6,0.9-0.5
					c3.9,0.9,6,3.6,7.4,7.1C-269.6,48.9-269.1,51.4-269.1,53.8"/>
				<path id="Path_139" class="st3" d="M-95,40.8c-0.1,3.7-0.4,7.4-2.6,10.7c-1.4,2.1-3.6,3.7-6,4.4c-5.6,1.8-9.5-0.9-12.9-4.8
					c-1.2-1.5-2.1-3.1-2.9-4.9c-0.5-1.1-0.5-1.3,0.7-1.5c3.8-0.4,7.1,0.4,9.8,3.3c1.2,1.3,2.3,2.8,3.1,4.4c0.1,0.3,0.2,0.8,0.6,0.7
					c0.5-0.1,0.4-0.6,0.4-0.9c0-2.1,0.5-4.2,1.3-6.1c1.3-3,3.7-5.4,6.8-6.5C-95.1,39-95,39.1-95,40.8"/>
				<path id="Path_140" class="st3" d="M-272.2,32.4c-0.1-0.7,0.2-1.7,0.2-2.8c0-0.8,0.4-1,1.1-0.7c3.3,1.5,4.8,4.3,5.3,7.7
					c0.2,1.1,0.3,2.3,0.1,3.4c-0.1,0.3-0.2,0.8,0.2,0.9s0.5-0.3,0.7-0.6c1.2-1.6,2.7-2.9,4.4-3.8c1.9-1.1,4.2-1.5,6.4-0.9
					c1.4,0.3,1.5,0.7,0.7,1.9c-1.3,1.9-3,3.6-4.9,5c-4.2,2.8-9.9,1.6-12.6-2.6c-0.4-0.6-0.7-1.2-1-1.9
					C-272,36.1-272.2,34.2-272.2,32.4"/>
				<path id="Path_141" class="st3" d="M-108.3,41.3c-0.2-1.9-0.1-3.7,0.1-5.6c0.4-2.8,2.2-5.3,4.7-6.7c1.1-0.6,1.4-0.5,1.6,0.7
					c0.6,3,0.3,6-0.8,8.8c-2,4.5-7.4,6.5-11.9,4.5c-0.6-0.3-1.1-0.6-1.6-0.9c-1.8-1.4-3.4-3.1-4.7-5c-0.6-0.8-0.5-1.1,0.4-1.4
					c3.4-1,6.2,0,8.8,2.2C-110.6,38.9-109.6,40.1-108.3,41.3"/>
				<path id="Path_142" class="st3" d="M-115.1,33.7c-2.7,0-5.4-1.1-7.4-2.9c-0.9-0.8-1.8-1.7-2.5-2.6c-0.5-0.6-0.4-0.8,0.3-1.1
					c3.3-1.6,6.3-0.7,9.1,1.3c0.9,0.6,1.6,1.4,2.5,2c0.2,0.2,0.4,0.5,0.7,0.3c0.2-0.2,0-0.4-0.1-0.7c-0.5-2.6-0.7-5.1,0.4-7.6
					c0.7-1.6,1.8-2.9,3.3-3.8c0.4-0.3,0.8-0.4,1,0.2c0.9,3.1,1.5,6.2,0.5,9.3S-112.7,33.9-115.1,33.7"/>
				<path id="Path_143" class="st3" d="M-261.1,31.1c1.1-1.4,2.5-2.6,4-3.5c2.4-1.5,5.4-1.6,7.9-0.4c0.5,0.2,0.8,0.4,0.3,1
					c-1.8,2.3-4.1,4.1-6.8,5.2c-4.1,1.6-9.5-1.2-10.8-5.2c-1-3-0.4-6,0.4-8.9c0.2-0.9,0.8-0.6,1.2-0.3c2.3,1.5,3.7,4,3.8,6.8
					c0.1,1.5,0,3.1-0.2,4.6C-261.2,30.5-261.4,30.8-261.1,31.1"/>
				<path id="Path_144" class="st3" d="M-117.9,21.8c0-0.7-0.2-1.4-0.4-2.1c-1-3.2-0.1-6.8,2.4-9.1c0.9-0.9,1.2-0.8,1.6,0.3
					c1,2.4,1.4,5,1.2,7.5c-0.5,3.7-4.5,6.4-7.7,6.4c-3.7,0-6.3-2-8.8-4.4c-0.5-0.5-0.1-0.8,0.4-1c1.6-0.8,3.5-1.1,5.3-0.8
					c2,0.3,3.8,1.2,5.1,2.6C-118.6,21.6-118.3,21.8-117.9,21.8"/>
				<path id="Path_145" class="st3" d="M-255.4,16.9c0,1.4-0.2,2.7-0.6,4c-0.1,0.3-0.3,0.7-0.1,0.9c0.4,0.3,0.6-0.2,0.8-0.4
					c1.5-1.3,3.3-2.3,5.3-2.7c1.7-0.2,3.5-0.1,5.1,0.6c1.1,0.4,1.2,0.9,0.3,1.7c-1.5,1.4-3.2,2.6-5,3.4c-2.9,1-5.6,0.9-8.1-1.2
					c-2.3-1.8-3.5-4.7-3-7.6c0.2-1.6,0.6-3.1,1.2-4.6c0.5-1.1,0.8-1.2,1.6-0.3C-256.1,12.2-255.2,14.6-255.4,16.9"/>
				<path id="Path_146" class="st3" d="M-245.6,10.9c-1.9,0-2.1-0.2-1.6-1.6c1.6-4.5,4.3-7.8,9.2-9c1-0.3,2.1-0.4,3.2-0.3
					c0.6,0,0.9,0.3,0.6,0.8c-2.2,3.7-4.3,7.4-8.4,9.4C-243.6,10.6-244.6,10.9-245.6,10.9"/>
				<path id="Path_147" class="st3" d="M-128,11c-1.9-0.2-3.7-0.9-5.2-2.2c-2.7-2.1-4.8-4.7-6.3-7.8c-0.4-0.9-0.1-1,0.7-1
					c3.7,0,7.2,1.7,9.5,4.6c1.2,1.4,2.1,3.1,2.7,4.8C-126,10.7-126.2,11-128,11"/>
				<path id="Path_148" class="st3" d="M-128.5,12.6c1.4,0.1,2.8,0.5,4,1.3c0.3,0.1,0.6,0.5,0.9,0.2c0.4-0.3,0-0.7-0.2-1
					c-1.3-2.6-1.2-5.2,0.6-7.6c0.6-0.8,0.9-0.8,1.4,0.1c0.8,1.4,1.3,2.9,1.6,4.4c0.5,3.5-2,6.7-5.5,7.2c-1,0.1-1.9,0-2.9-0.3
					c-1.3-0.5-2.5-1.1-3.6-1.9c-0.7-0.5-0.6-0.9,0.1-1.3C-131,13-129.8,12.6-128.5,12.6"/>
				<path id="Path_149" class="st3" d="M-250.8,14.3c1.6-0.3,2.7-1.2,4-1.5c1.7-0.4,3.4-0.1,4.8,0.8c1,0.6,1,1.1,0,1.7
					c-1.4,0.8-2.9,1.5-4.4,2c-3.2,1-7.1-2.4-7.4-5.4c-0.1-2.2,0.5-4.4,1.6-6.3c0.5-0.9,1-0.4,1.3,0.1c1.4,1.9,1.8,4.4,0.8,6.6
					C-250.2,12.9-250.5,13.5-250.8,14.3"/>
			</g>
		</g>
	</g>
</g>
</svg>
