<svg id="Group_39" data-name="Group 39" xmlns="http://www.w3.org/2000/svg" xmlns:xlink="http://www.w3.org/1999/xlink" width="69.541" height="69.55" viewBox="0 0 69.541 69.55">
  <defs>
    <clipPath id="clip-path">
      <rect id="Rectangle_44" data-name="Rectangle 44" width="69.541" height="69.55" fill="#0b7d52"/>
    </clipPath>
  </defs>
  <g id="Group_38" data-name="Group 38" clip-path="url(#clip-path)">
    <path id="Path_153" data-name="Path 153" d="M25.631,70.075a10.429,10.429,0,0,1-2.626-.28.285.285,0,0,1-.054-.014c-.136-.052-.326-.05-.367-.216-.035-.143.122-.218.212-.308q3.114-3.127,6.232-6.25c.251-.252.516-.491.761-.75a1.581,1.581,0,0,0,.1-1.921,2.993,2.993,0,0,0-.276-.318q-2.662-2.665-5.33-5.325a2.19,2.19,0,0,0-1.06-.7,1.511,1.511,0,0,0-1.251.251,5.97,5.97,0,0,0-.784.723c-1.883,1.893-3.73,3.822-5.642,5.686-.268.261-.537.522-.8.788-.141.142-.206.12-.25-.077a12.327,12.327,0,0,1-.282-3.955,11.625,11.625,0,0,1,8.316-9.981,11.171,11.171,0,0,1,5.088-.261.517.517,0,0,0,.444-.113c2.088-1.649,4.186-3.284,6.211-5.012,1.1-.942,2.232-1.855,3.305-2.831,1.4-1.273,2.8-2.55,4.138-3.884,1.873-1.863,3.767-3.705,5.539-5.667a104.613,104.613,0,0,0,7.488-9.3c.12-.168.223-.347.349-.51a.68.68,0,0,0,.123-.5c-.039-.532-.09-1.064-.1-1.6a11.323,11.323,0,0,1,3.966-8.887,10.986,10.986,0,0,1,5.682-2.7A9.93,9.93,0,0,1,67.869,6.1c.518.077,1.038.135,1.548.258.114.027.275,0,.323.127.054.147-.118.194-.2.273q-2.182,2.191-4.373,4.374c-.8.8-1.6,1.613-2.427,2.382a1.886,1.886,0,0,0-.562,1.736,1.168,1.168,0,0,0,.316.585c.485.6,1.1,1.075,1.633,1.624,1.31,1.34,2.631,2.67,3.947,4a2.4,2.4,0,0,0,.743.544,1.467,1.467,0,0,0,1.446-.121,3.262,3.262,0,0,0,.563-.464L76.1,16.154q.666-.666,1.332-1.331a2.241,2.241,0,0,1,.277-.237c.076-.054.154-.076.171.069a19.614,19.614,0,0,1,.318,3.207,11.632,11.632,0,0,1-9.307,11.023,10.655,10.655,0,0,1-3.3.172c-.26-.028-.522-.041-.783-.066a.5.5,0,0,0-.356.139q-2.058,1.542-4.054,3.165c-1.727,1.41-3.425,2.854-5.057,4.376-.781.728-1.6,1.418-2.361,2.164-1.613,1.58-3.232,3.155-4.79,4.789q-2.4,2.522-4.709,5.138c-1.451,1.656-2.869,3.34-4.291,5.02-.659.779-1.271,1.6-1.918,2.389a.81.81,0,0,0-.167.679,11.6,11.6,0,0,1-8.836,12.944,8.493,8.493,0,0,1-2.636.281" transform="translate(-10.974 -4.655)" fill="#0b7d52"/>
    <path id="Path_154" data-name="Path 154" d="M126.478,158.338q-3.57,0-7.14,0c-.192,0-.266-.045-.249-.257.028-.354.024-.711.025-1.067q0-3.471,0-6.943c0-.482,0-.482-.472-.628-.338-.1-.355-.129-.184-.444a12.54,12.54,0,0,0,1.487-6.605,2.386,2.386,0,0,1,.727-2.141,3.913,3.913,0,0,0,.492-.612.274.274,0,0,1,.346-.084,14.159,14.159,0,0,0,3.153.638,19.178,19.178,0,0,0,2.159.1,16.938,16.938,0,0,0,3.315-.361,17.654,17.654,0,0,0,5.465-2.284,16.274,16.274,0,0,0,5.836-6.474,13.842,13.842,0,0,0,1.127-2.842c.188-.727.376-1.455.5-2.2a7.637,7.637,0,0,0,.086-.837,20.506,20.506,0,0,0-.039-3.925,16.209,16.209,0,0,0-.681-3.007.377.377,0,0,1,.132-.462c.777-.694,1.629-1.291,2.453-1.925.238-.183.482-.358.708-.555a.816.816,0,0,1,.644-.2,12.675,12.675,0,0,0,5.125-.575l.027-.008c.544-.156.542-.155.7.362.09.286.2.567.278.855a.332.332,0,0,0,.38.278q3.991-.012,7.983-.007c.4,0,.4,0,.4.392q-.006,1.813-.006,3.626c0,2.257-.029,4.514.011,6.77.022,1.237-.057,2.471-.012,3.707.012.344-.02.368-.364.368-2.689,0-5.378,0-8.067-.008-.233,0-.311.1-.366.293a26.072,26.072,0,0,1-1.547,4.005c-.207.43-.433.852-.666,1.268a.262.262,0,0,0,.056.382c1.617,1.522,3.137,3.142,4.73,4.689.35.339.67.709,1.027,1.04.193.179.191.286.006.469q-2.424,2.406-4.833,4.827-2.584,2.584-5.165,5.17c-.181.182-.287.189-.471,0q-2.83-2.854-5.674-5.7c-.158-.159-.288-.231-.509-.106a23.862,23.862,0,0,1-5.175,2.153.375.375,0,0,0-.314.436q.009,3.978,0,7.955c0,.458-.007.457-.477.457h-6.971Z" transform="translate(-91.736 -88.791)" fill="#0b7d52"/>
    <path id="Path_155" data-name="Path 155" d="M34.78.005c2.361,0,4.722,0,7.084-.007.268,0,.335.085.334.336-.006,2.624,0,5.247-.006,7.87,0,.263-.024.5.338.555.2.029.15.223.1.347a8.1,8.1,0,0,0-.33,1.331,12.41,12.41,0,0,0-.183,3.52.918.918,0,0,1-.11.673c-.926,1.26-1.835,2.533-2.83,3.742-.139.169-.249.159-.45.1a8.268,8.268,0,0,0-1.506-.315,22.586,22.586,0,0,0-3.057-.128A16.152,16.152,0,0,0,31,18.4a16.978,16.978,0,0,0-11.729,9.948,14.478,14.478,0,0,0-1.107,4.11,19.825,19.825,0,0,0-.063,3.812c.063.749.186,1.483.308,2.221a.335.335,0,0,1-.139.361c-.574.452-1.139.916-1.7,1.378a.534.534,0,0,1-.388.13c-.308-.02-.616-.048-.925-.052a13.9,13.9,0,0,0-3.846.358A13.537,13.537,0,0,0,8.052,42.02a1.232,1.232,0,0,1-.637.185c-2.37,0-4.741,0-7.111.009-.3,0-.3-.182-.3-.389Q0,39.9,0,37.976q0-5.031,0-10.063c0-.037,0-.075,0-.112,0-.427.022-.448.441-.448l5.2-.006c.918,0,1.836,0,2.754,0a.32.32,0,0,0,.359-.265,28.988,28.988,0,0,1,2.219-5.274.324.324,0,0,0-.075-.459Q8.4,18.862,5.915,16.36c-.231-.232-.456-.471-.7-.692-.176-.161-.189-.285-.012-.462q3.242-3.236,6.476-6.481,1.738-1.739,3.482-3.473c.258-.258.264-.267.531,0q2.84,2.824,5.674,5.654a.29.29,0,0,0,.424.05,26.137,26.137,0,0,1,5.2-2.174.457.457,0,0,0,.4-.525c-.018-2.661-.014-5.322-.024-7.983,0-.214.072-.274.277-.274q3.57.008,7.14,0Z" transform="translate(0 0.001)" fill="#0b7d52"/>
  </g>
</svg>
