<svg id="Group_41" data-name="Group 41" xmlns="http://www.w3.org/2000/svg" xmlns:xlink="http://www.w3.org/1999/xlink" width="58.917" height="69.55" viewBox="0 0 58.917 69.55">
  <defs>
    <clipPath id="clip-path">
      <rect id="Rectangle_45" data-name="Rectangle 45" width="58.918" height="69.55" fill="#0b7d52"/>
    </clipPath>
  </defs>
  <g id="Group_40" data-name="Group 40" clip-path="url(#clip-path)">
    <path id="Path_156" data-name="Path 156" d="M29.749.015c1.481.115,3.448-.2,5.4.18.931.182,1.2.626,1.163,1.58-.139,3.967-.978,7.849-1.329,11.788a2.728,2.728,0,0,0,4,3.062c1.3-.544,1.568-1.734,1.718-2.959.269-2.2.507-4.4.773-6.6.129-1.063.4-1.216,1.35-.638a25.819,25.819,0,0,1,7.606,7.2,5.437,5.437,0,0,0,1.58,1.866.62.62,0,0,1,.285.464c-.121,1.552,1,2.7,1.317,4.112.2.889.569,1.746.694,2.658a1.224,1.224,0,0,0,.906,1.083c2.567.921,3.649,2.833,3.7,5.489a5.562,5.562,0,0,1-.993,3.927c-.168.2-.286.391-.556.445-.962.195-1.92.414-2.885.59a3.668,3.668,0,0,1-2.617-.648,2.518,2.518,0,0,0-1.426-.4c-1.045.015-2.092.021-3.137,0a5.965,5.965,0,0,0-2.871.459,3.912,3.912,0,0,1-1.678.255c-2.843.076-5.7-.269-8.527.334a2.748,2.748,0,0,1-2.051-.612,2.491,2.491,0,0,0-1.5-.44,21.354,21.354,0,0,0-5.923.515c-1.685.494-3.467.129-5.2.185a23.128,23.128,0,0,0-4.916.314,2.889,2.889,0,0,1-2.434-.545,2.321,2.321,0,0,0-1.5-.469c-2.024.019-4.051-.047-6.072.038a28.874,28.874,0,0,1-3.1.3,1.079,1.079,0,0,1-1.153-.861,12.2,12.2,0,0,1-.267-4.8c.167-1.92,1.451-3,3.01-3.875.481-.269,1.219-.264,1.386-.893a5.335,5.335,0,0,0,.21-2.624A3.487,3.487,0,0,1,6.688,16.25a1.546,1.546,0,0,0,.624-.683A26.379,26.379,0,0,1,16.4,6.174c.722-.455.734.109.827.506a54,54,0,0,1,.978,6.951c.186,1.85.772,2.743,2.124,3.138,2.2.641,3.8-.689,3.618-2.975-.161-2.086-.558-4.139-.807-6.212-.222-1.853-.426-3.709-.6-5.567A1.718,1.718,0,0,1,24.332.025c1.647-.039,3.295-.01,5.417-.01" transform="translate(0 0)" fill="#0b7d52"/>
    <path id="Path_157" data-name="Path 157" d="M51.152,94.483c2.661,0,5.322.017,7.983-.011.72-.008,1.032.2,1,.972-.053,1.265.007,2.534-.017,3.8a2.076,2.076,0,0,1-1.771,2.25,43.768,43.768,0,0,1-5.643.713c-.619.082-1.4-.068-1.786.439a7.53,7.53,0,0,0-1.189,2.671c-.095.36.222.641.45.9,1.248,1.433,2.516,2.848,3.746,4.3,1.4,1.646,1.377,2.683-.1,4.223-1.029,1.075-2.073,2.141-3.17,3.146-1.472,1.351-2.251,1.389-3.828.184-1.509-1.154-2.976-2.365-4.434-3.583a1.175,1.175,0,0,0-1.38-.207c-2.582,1.118-2.48.455-2.636,3.51a49.191,49.191,0,0,1-.636,4.989,1.559,1.559,0,0,1-1.48,1.457,26.729,26.729,0,0,1-7,0,1.587,1.587,0,0,1-1.395-1.363c-.347-1.522-.3-3.085-.51-4.622a5.637,5.637,0,0,1-.134-1.032,2.482,2.482,0,0,0-2.211-2.854,1.621,1.621,0,0,0-1.574.224c-1.526,1.235-3.063,2.455-4.594,3.685-1.011.812-1.95.951-2.9.085a33.683,33.683,0,0,1-4.487-4.336,2.075,2.075,0,0,1-.053-2.787c1.046-1.351,2.162-2.649,3.261-3.958a3.1,3.1,0,0,0-.049-4.392,2.075,2.075,0,0,0-1.5-.479c-1.855-.2-3.719-.335-5.566-.593-1.657-.233-2.084-.8-2.115-2.478-.023-1.266,0-2.535-.064-3.8-.031-.571.256-.753.7-.809a17.412,17.412,0,0,1,2.174-.192c4.688-.01,9.377.015,14.065,0,.71,0,.816.27.791.916a10.417,10.417,0,0,0,2.254,7.528c4.347,5.153,13.193,3.974,16.02-2.156a10.525,10.525,0,0,0,.785-5.194c-.051-.852.2-1.184,1.1-1.166,2.628.051,5.258.018,7.888.018" transform="translate(-3.123 -54.916)" fill="#0b7d52"/>
  </g>
</svg>
