<svg id="Group_37" data-name="Group 37" xmlns="http://www.w3.org/2000/svg" xmlns:xlink="http://www.w3.org/1999/xlink" width="69" height="69.546" viewBox="0 0 69 69.546">
  <defs>
    <clipPath id="clip-path">
      <rect id="Rectangle_43" data-name="Rectangle 43" width="69" height="69.546" fill="#0b7d52"/>
    </clipPath>
  </defs>
  <g id="Group_36" data-name="Group 36" clip-path="url(#clip-path)">
    <path id="Path_150" data-name="Path 150" d="M68.644,21.538A24.957,24.957,0,0,0,64,10.872,26.693,26.693,0,0,0,52.55,1.935,28.517,28.517,0,0,0,46.135.257h-.019a.716.716,0,0,1-.251-.044L45.706.189h.1A.6.6,0,0,1,45.7.123Q45.189.079,44.681,0H40.862a.755.755,0,0,1-.257.045h-.029c-.225.055-.451.1-.682.138h.036A32.443,32.443,0,0,0,33.43,1.7a26.784,26.784,0,0,0-9.748,6.376,24.591,24.591,0,0,0-4.873,7.068,26.25,26.25,0,0,0,.807,24.295,1.163,1.163,0,0,1-.24,1.656c-2.08,2.055-4.14,4.13-6.205,6.2q-4.028,4.038-8.054,8.077C3.419,57.07,1.706,58.743,0,60.426v.691l8.138,8.089a.6.6,0,0,1,.148.126.6.6,0,0,1,.3.214h.078a.616.616,0,0,1,.256-.262l-.023-.013a1.64,1.64,0,0,1,.526-.64q4.446-4.495,8.9-8.981,5.046-5.072,10.1-10.136a.62.62,0,0,1,.9-.139A17.883,17.883,0,0,0,31.6,50.516,25.018,25.018,0,0,0,44.5,52.936a26.491,26.491,0,0,0,14.266-5.416,27.531,27.531,0,0,0,5.964-6.377,23.892,23.892,0,0,0,3.813-9.111c.164-.858.306-1.72.458-2.58V23.506c-.119-.656-.24-1.311-.356-1.968M11.127,60.82c-.774.784-1.555,1.562-2.325,2.351-.241.247-.446.271-.7.015q-1.012-1.033-2.043-2.048a.4.4,0,0,1,.014-.648q1.225-1.21,2.444-2.426c.189-.188.383-.245.595-.032.7.7,1.395,1.4,2.088,2.1a1.546,1.546,0,0,1,.17.243.6.6,0,0,1-.248.444m13.82-13.827q-5,5.009-10,10.02c-.319.321-.549.316-.855-.006-.6-.634-1.223-1.251-1.854-1.857-.294-.282-.315-.505-.018-.8,1.537-1.552,3.056-3.123,4.593-4.676,1.731-1.749,3.475-3.486,5.212-5.23.667-.669.667-.672,1.29.072a13.339,13.339,0,0,0,1.582,1.539.771.771,0,0,1,.352.49.8.8,0,0,1-.3.452m17.74,1.67A22.159,22.159,0,1,1,64.84,26.672,22.1,22.1,0,0,1,42.686,48.664" fill="#0b7d52"/>
    <path id="Path_151" data-name="Path 151" d="M194.475,58.852a18.344,18.344,0,1,1-.081,36.688,18.344,18.344,0,0,1,.081-36.688m-.064,4.307a14.048,14.048,0,1,0,14.117,14.015,14.078,14.078,0,0,0-14.117-14.015" transform="translate(-151.746 -50.714)" fill="#0b7d52"/>
    <path id="Path_152" data-name="Path 152" d="M269.213,149.977c-.748.716-1.488,1.442-2.211,2.183-.353.359-.64.278-.931-.05-1.142-1.3-2.464-2.413-3.662-3.653-.061-.063-.22-.219-.353-.346a.283.283,0,0,0-.4.005q-2.017,2.015-4.03,4.034c-.29.293-.536.391-.866.048-.716-.748-1.442-1.488-2.183-2.211-.359-.353-.279-.64.05-.931,1.3-1.142,2.413-2.464,3.652-3.662.056-.054.148-.161.235-.255a.284.284,0,0,0-.009-.392c-1.331-1.336-2.5-2.539-3.852-3.887-.292-.29-.391-.536-.048-.866q1.124-1.074,2.212-2.183c.351-.36.64-.279.929.05,1.144,1.3,2.464,2.413,3.663,3.652.063.067.263.243.42.377a.288.288,0,0,0,.391-.016c1.326-1.334,2.569-2.686,3.9-4.021.292-.293.538-.393.867-.048.716.748,1.442,1.488,2.183,2.211.36.351.278.64-.05.931-1.3,1.142-2.413,2.463-3.653,3.662l-.155.151a.3.3,0,0,0,0,.432c1.316,1.323,2.519,2.591,3.853,3.919.292.292.391.538.048.867" transform="translate(-219.176 -118.553)" fill="#0b7d52"/>
  </g>
</svg>
