<svg id="Group_43" data-name="Group 43" xmlns="http://www.w3.org/2000/svg" xmlns:xlink="http://www.w3.org/1999/xlink" width="73.133" height="69.55" viewBox="0 0 73.133 69.55">
  <defs>
    <clipPath id="clip-path">
      <rect id="Rectangle_46" data-name="Rectangle 46" width="73.133" height="69.55" fill="#0b7d52"/>
    </clipPath>
  </defs>
  <g id="Group_42" data-name="Group 42" clip-path="url(#clip-path)">
    <path id="Path_158" data-name="Path 158" d="M188.093,248.439a3.643,3.643,0,0,0-1.367-.136,22.9,22.9,0,0,1-2.6-.123c-1.183-.171-1.19-.169-.555-1.225a21.065,21.065,0,0,0,3.1-8.824,30.249,30.249,0,0,1-1.639,2.956,21.457,21.457,0,0,1-4.974,5.863,2.528,2.528,0,0,1-1.179.521A1.572,1.572,0,0,1,177,245.79a7.642,7.642,0,0,1,.642-2.5,10.238,10.238,0,0,0-2.124,1.7,4.109,4.109,0,0,1-3.887,1.145,2.627,2.627,0,0,1-2.057-2.083,2.68,2.68,0,0,1,.584-2.87c.868-.879,1.79-1.7,2.689-2.553l-.167-.189c-1.105.61-2.217,1.208-3.314,1.832a25.717,25.717,0,0,1-4.191,1.777,3.686,3.686,0,0,1-3.14-.258,19.713,19.713,0,0,1-4.59-2.907c-.983-.962-.871-1.763.316-2.467a23.048,23.048,0,0,1,4.208-1.5,82.339,82.339,0,0,0,10.508-4.367,42.283,42.283,0,0,0,11.563-8.613c.358-.384.462-.681.013-1.076a2.7,2.7,0,0,1-.673-2.564,11.607,11.607,0,0,1,.713-2.834,2.51,2.51,0,0,1,2.864-1.744c2.366.307,4.728.64,7.089.983a8.539,8.539,0,0,1,1.417.362,2.293,2.293,0,0,1,1.8,2.4,22.678,22.678,0,0,1-.241,3.326,2.093,2.093,0,0,1-1.5,1.767c-.68.257-.659.564-.3,1.14a116.3,116.3,0,0,1,6.344,11.082,59.981,59.981,0,0,1,2.8,7.459v3.42a5.866,5.866,0,0,1-2.957,1.6c-.825.145-1.656.277-2.468.477-.675.166-.852-.041-.823-.717a20.822,20.822,0,0,0-.993-7.2,16.918,16.918,0,0,0-1.6-3.82c.052,1.286.144,2.55.3,3.8a36.707,36.707,0,0,1,.211,5.918c-.069,2.018-.166,2.1-2.03,2.672a.446.446,0,0,0-.072.037h-2.28a8.925,8.925,0,0,0-1.09-2.672c-.069-.1-.186-.238-.291-.248-.211-.02-.217.2-.254.343-.22.857-.431,1.717-.645,2.576Z" transform="translate(-131.248 -178.889)" fill="#0b7d52"/>
    <path id="Path_159" data-name="Path 159" d="M0,53.626a42.208,42.208,0,0,1,1.166-5.974c.644-1.892.4-3.852.928-5.722A9.74,9.74,0,0,1,9.421,34.9a12.171,12.171,0,0,1,7.75.4c.357.138.621.207.882-.216a10.782,10.782,0,0,1,9.357-5.262A10.92,10.92,0,0,1,38.251,37.54c.2.673.425.714,1.016.449a7.829,7.829,0,0,1,6-.56c3.062,1.1,4.495,3.5,5.069,6.534a12.46,12.46,0,0,0,.675,3.318,2.67,2.67,0,0,1,.07,1.763q-2.062,9-4.114,18.01a2.653,2.653,0,0,1-1.062,1.654A39.981,39.981,0,0,1,42.3,71.213c-.157.091-.328.268-.512.124s-.045-.354.005-.527q1.687-5.823,3.381-11.644c.992-3.412,2-6.82,2.971-10.237.291-1.02.171-1.136-.889-1.135l-41.937,0c-1.481,0-1.569.138-1.225,1.618Q6.381,59.24,8.65,69.071c.557,2.4,1.126,4.8,1.683,7.207.247,1.067.561,1.326,1.66,1.419,4.658.391,8.669-1.234,12.345-3.929A23.689,23.689,0,0,0,32.082,63.8a28.978,28.978,0,0,0,1.555-5.471.929.929,0,0,0-.444-1.03,3.666,3.666,0,0,1-.676-5.448,3.774,3.774,0,0,1,5.462-.327,3.663,3.663,0,0,1-.4,5.771,2.69,2.69,0,0,0-1.314,2.037A26.111,26.111,0,0,1,24.2,77.292,19.622,19.622,0,0,1,13.033,80.55c-.271-.006-.544.01-.814-.006-.6-.035-.847.125-.621.794a16.931,16.931,0,0,0,.939,2.51,3.76,3.76,0,0,0,3.481,2.146c1.628.03,3.257.024,4.885,0a1.461,1.461,0,0,1,1.42.721,14.158,14.158,0,0,0,1.254,1.49c.117.137.323.255.216.478-.083.173-.278.152-.434.149-3.145-.072-6.3.241-9.434-.164A4.5,4.5,0,0,1,10.6,86.42a19.529,19.529,0,0,1-2.218-6.259,2.194,2.194,0,0,0-.995-1.47A15.84,15.84,0,0,1,1.1,69.771,33.723,33.723,0,0,1,0,65.19V53.626m26.058-8.664v.011H36.4l10.422,0c.42,0,.847.042.7-.63-.7-3.3-2.562-5.085-6.185-4.132a17.972,17.972,0,0,0-3.284,1.6,1.334,1.334,0,0,1-2.1-1.221,8.359,8.359,0,0,0-5.944-7.618c-3.527-.955-8.546.35-10.142,4.748a1.476,1.476,0,0,1-2.34.861A10,10,0,0,0,9.2,37.91,7.216,7.216,0,0,0,4.591,43.9c-.023,1.006.018,1.058,1.03,1.058q10.219,0,20.438,0M7.032,74.566,2.8,56.417c-.5,6.5-.247,12.814,4.232,18.15" transform="translate(0 -24.959)" fill="#0b7d52"/>
    <path id="Path_160" data-name="Path 160" d="M364.108,0a3.6,3.6,0,0,1,1.84,4.036c-1.025,5.266-2.009,10.54-3.028,15.807-.721,3.726-1.469,7.446-2.214,11.167a3.939,3.939,0,0,1-.928,1.96,2.778,2.778,0,0,1-3.129.988,2.9,2.9,0,0,1-1.854-2.809,15.448,15.448,0,0,1,.573-3.687c1.347-6.806,2.744-13.6,4.071-20.411.254-1.3.456-2.617.747-3.912A3.887,3.887,0,0,1,362.479,0Z" transform="translate(-297.001)" fill="#0b7d52"/>
  </g>
</svg>
