<?xml version="1.0" encoding="UTF-8"?><svg id="Layer_2" xmlns="http://www.w3.org/2000/svg" viewBox="0 0 514.8 261.61"><defs><style>.cls-1{fill:#fff;}</style></defs><g id="Layer_1-2"><path class="cls-1" d="M394.73,110.28h-5.52l-6.61-20.64c-.03,.09-.05,.54-.05,1.36s0,1.82-.02,3.01c-.01,1.19-.02,3.13-.02,5.82,0,2.53,0,4.23,.02,5.09s.02,1.37,.02,1.52h1.67v3.85h-7.15v-3.8h1.95v-8.69c0-.33-.05-.64-.14-.93-.09-.29-.26-.52-.5-.7-.24-.18-.45-.36-.63-.54-.18-.18-.36-.35-.54-.5l-.09-.18,.14-.23c.24-.24,.48-.5,.7-.77,.23-.27,.46-.53,.7-.77,.24-.24,.36-.51,.36-.81v-7.19h-1.95v-3.85h6.15l1.76,5.48c.24,.72,.46,1.45,.66,2.17,.2,.72,.41,1.45,.66,2.17,.24,.72,.48,1.46,.7,2.19s.46,1.47,.7,2.19c.24,.72,.47,1.44,.68,2.15,.21,.71,.42,1.41,.63,2.11l.32,1.04v-15.66h-1.81v-3.85h7.06l.14,.18v3.62c-.21,.03-.47,.05-.77,.05l-.68-.05-.5,.05c0,.06,0,.13-.02,.2-.02,.08-.02,2.29-.02,6.63,0,.54,.17,.98,.5,1.31,.84,.94,1.31,1.48,1.4,1.63l-1.4,1.36c-.33,.33-.5,.71-.5,1.13v8.91l.05,.09h1.85c.15,.09,.23,.24,.23,.45-.06,.3-.09,.54-.09,.72l.05,.09c0,.21,.01,.41,.05,.59,.03,.18,.05,.39,.05,.63l-.05,1.04c-.03,.15-.08,.26-.14,.32Zm-13.67-27.29c.24,0,.39-.01,.45-.04,.06-.03,.11-.12,.14-.27,0-.18-.09-.32-.27-.41l-.36,.18,.05,.54Zm.09,1.4c.42,0,.63-.07,.63-.23,0-.06,0-.12-.02-.18-.02-.06-.1-.14-.25-.23-.15,0-.27,.07-.36,.23v.41Zm1.67-1.36c-.06-.24-.17-.53-.32-.86-.09,.12-.14,.23-.14,.32,0,.03,.01,.05,.05,.05v.32c.06,.03,.12,.05,.18,.07,.06,.02,.14,.05,.23,.11Zm.77,2.4c-.09-.21-.14-.38-.16-.52-.02-.14-.08-.26-.2-.38-.15,.12-.23,.23-.23,.32h.05c0,.18-.01,.32-.05,.41l.59,.18Zm.54,4.53l-.09-.05s.03,.05,.09,.05Zm6.74-4.62c.06,0,.09-.03,.09-.09,0-.03-.03-.08-.09-.14-.06,.06-.09,.11-.09,.14,0,.06,.03,.09,.09,.09Z"/><path class="cls-1" d="M404.19,110.87c-.82-.03-1.55-.12-2.22-.27-1.12-.24-2.02-.8-2.71-1.67-.69-.88-1.13-1.64-1.31-2.31-.24-.82-.44-1.64-.59-2.49-.03-.24-.05-2.46-.05-6.65,0-.57-.23-1.03-.68-1.36-.21-.15-.41-.32-.59-.5-.18-.18-.36-.35-.54-.5-.03-.03-.05-.07-.05-.11s-.01-.08-.05-.11c.24-.3,.48-.59,.72-.86,.24-.27,.5-.54,.77-.81,.27-.27,.41-.62,.41-1.04v-2.04l-.04-.63,.04-1.31c.06-1.84,.51-3.44,1.36-4.8,1.03-1.78,2.85-2.67,5.48-2.67,1.48,0,2.74,.39,3.8,1.18,.75,.66,1.24,1.19,1.45,1.58,.9,1.57,1.36,3.79,1.36,6.65,0,.6-.03,1.03-.09,1.27v.23c.09,.12,.14,.24,.14,.36l-.05,.45c0,.3,.12,.58,.36,.84,.24,.26,.49,.52,.75,.79s.52,.56,.79,.86c-.39,.36-.81,.72-1.24,1.06-.44,.35-.66,.79-.66,1.34l.05,.59c0,.18-.05,.39-.14,.63,.09,.48,.14,.96,.14,1.45l-.05,1.72c0,2.6-.37,4.59-1.11,6-.74,1.4-1.8,2.33-3.19,2.78-.69,.21-1.19,.32-1.49,.32s-.56,.01-.77,.04Zm-7.42-15.93v-.18h-.09l.05,.18h.05Zm1.45,.41c.09-.06,.16-.12,.23-.18,.06-.06,.12-.09,.18-.09s.14,.05,.23,.14c.06-.12,.14-.23,.23-.32,.09-.09,.17-.18,.23-.27-.09-.21-.22-.35-.38-.41-.17-.06-.34-.14-.52-.23-.33-.15-.6-.23-.81-.23l-.23,.23c-.06,.3-.09,.51-.09,.63,.06,.15,.1,.28,.11,.39,.01,.11,.05,.22,.11,.34h.72Zm-.09,4.21c.06-.09,.11-.19,.14-.29,.03-.11,.07-.23,.14-.38,.12,.12,.26,.18,.41,.18l.23-.05c.15,.06,.23,.15,.23,.27s.01,.2,.04,.23c.3,0,.53-.04,.68-.11,.15-.08,.38-.11,.68-.11v-2.72l-.23-.18c.06-.06,.11-.1,.16-.11s.08-.04,.11-.07c-.15-.18-.27-.38-.36-.59l-.41,.14c0-.24-.03-.41-.09-.52-.06-.11-.09-.19-.09-.25,0-.09,.05-.2,.14-.32-.06-.06-.09-.11-.09-.16s-.03-.11-.09-.2c-.06,.24-.1,.45-.11,.61-.02,.17-.05,.34-.11,.52l-.68,.36c0,.12-.02,.2-.05,.23-.15,.06-.41,.14-.77,.23,.06,.3,.09,.53,.09,.68l.18,.09c-.06,.12-.14,.23-.23,.32,.03,.09,.05,.2,.07,.34,.01,.14,.05,.27,.11,.39,0,.09-.02,.15-.05,.18-.09,.15-.14,.3-.14,.45l.05,.18c.03,.21,.05,.44,.05,.68Zm.36,1.9l.32-.32c0-.15-.11-.33-.32-.54h-.41v.86h.41Zm-.27-9.1c.18-.12,.33-.24,.45-.36l.5,.14c-.09-.12-.14-.27-.14-.45l.05-.14c0-.15-.08-.3-.23-.45h-.63l-.09-.32,.09,1.58Zm.72,11.58c.09-.09,.2-.14,.34-.14s.22-.09,.25-.27l-.14-.54c-.09-.36-.29-.54-.59-.54-.18,0-.35,.08-.5,.23v.95l.63,.32Zm.14,2.67c.06-.15,.14-.27,.23-.36,.09-.09,.14-.18,.14-.27l-.05-.23-.86-.32c.06,.24,.11,.46,.16,.66s.17,.37,.38,.52Zm-.32-7.79l-.05-.04s.01-.05,.05-.05v.09Zm.86-9.37l.23-.05-.32-.27v-.59l-.41-.18c-.09,.09-.18,.23-.27,.41l.14,.32c.09,.03,.21,.05,.36,.05l.27,.32Zm-.27,11.13l.27-.04,.18-.32c0-.15-.02-.27-.05-.36h-.68l-.05,.5c.09,.15,.2,.23,.32,.23Zm3.44,9.28c-.06-.12-.12-.3-.18-.54l-.36,.09,.27-.5,.59,.14,.45-.27-.27-.14v-.5c-.24-.21-.38-.32-.41-.32-.06,0-.17,.08-.32,.23,.03,.06,.04,.12,.04,.18s.02,.15,.05,.27l-1.09-.82h-.45l-.14,.23h-.32l.14-.45-.41-.41c-.06,.06-.12,.09-.18,.09l-.09-.05c-.09-.18-.14-.36-.14-.54l.09-.72c0-.18-.03-.36-.09-.54l-.36,1.63c-.21,.06-.36,.18-.45,.36,.72,1.39,1.93,2.25,3.62,2.58Zm-3.44-24.75s.05-.07,.05-.14c-.03,0-.05-.01-.05-.04v.18Zm.41,8.96v-.23l-.05,.09,.05,.14Zm.45-4.57c.15,0,.26-.07,.32-.23-.03-.15-.1-.23-.2-.25-.11-.01-.18-.06-.23-.14-.05-.07-.07-.2-.07-.38l-.09,.04v.91l.27,.04Zm.05,11.45c.18,0,.32-.02,.41-.05v-.27l-.59-.86-.05,.63c0,.21,.07,.39,.23,.54Zm.23-15.57l.05-.09-.27-.18c0,.06-.03,.09-.09,.09l.32,.18Zm.05,8.33l-.05-.09-.05,.04,.09,.05Zm.09-.86v-.59h-.04v.59h.04Zm3.35,13.85c1.72-.09,2.58-1.33,2.58-3.71l-.05-2.72c0-.93,.01-1.85,.05-2.76,0-.48-.18-.91-.54-1.27l-1.36-1.4c.06-.06,.11-.09,.16-.09s.28-.26,.7-.77c.18-.24,.4-.5,.66-.77,.26-.27,.39-.65,.39-1.13l-.05-1.54c0-.54,.01-1.07,.05-1.58,0-1.36-.23-2.41-.68-3.17-.27-.48-.85-.77-1.72-.86-.9,0-1.55,.29-1.95,.86-.24,.3-.45,.9-.63,1.81-.09,.72-.14,2.26-.14,4.62,0,.39,.15,.74,.45,1.04l1.49,1.63c-.24,.24-.49,.47-.75,.7-.26,.23-.52,.48-.79,.75s-.41,.62-.41,1.04l.05,1.67-.05,2.04c0,1.09,.03,2.02,.09,2.81,.24,1.42,.74,2.29,1.49,2.62,.3,.12,.62,.18,.95,.18Zm-.36,3.3l-.32-.45c.03,.06,.05,.15,.05,.27h-.05c0,.09,.11,.15,.32,.18Zm1.13-.18c.15-.06,.3-.1,.45-.14,.15-.03,.26-.15,.32-.36v-.14c0-.18-.09-.35-.27-.5h-.5c-.12,.18-.18,.38-.18,.59,0,.18,.06,.36,.18,.54Zm1.27-.9v-.05h-.18v.05h.18Zm.36-13.53l.18-.45-.36-.18c-.12,0-.23,.03-.32,.09l.5,.54Zm-.27,12.9s.05-.02,.05-.05l-.09,.05h.05Zm.32,.77c0-.06-.02-.09-.05-.09-.12,0-.18,.03-.18,.09h.23Zm.14-2.17c-.03-.09-.05-.26-.05-.5l-.23,.23c.06,.06,.12,.15,.18,.27h.09Zm2.31-1.76c.18-.21,.41-.32,.68-.32-.12-.15-.18-.3-.18-.45s-.07-.27-.23-.36v-.05h.05c-.03,.09-.05,.21-.05,.36-.24,0-.38-.02-.43-.07s-.11-.19-.2-.43l-.09-.09-.23,.09-.09-.14c.09-.12,.21-.24,.36-.36l.45,.14c.24-.12,.42-.24,.54-.36h-.27l-.09,.05c-.06,0-.13-.02-.2-.05s-.17-.06-.27-.09c-.11-.03-.2-.11-.29-.25-.09-.14-.21-.25-.36-.34-.15-.09-.35-.2-.59-.32l.05,.54c0,.24-.02,.48-.07,.72s-.07,.48-.07,.72l.05,.54,.45-.41h.59l.5,.9Zm-.95-14.62c0-.12-.03-.27-.09-.45l-.41,.41c.24,0,.41,.02,.5,.05Zm-.41,8.06v-.54h-.05v.54h.05Zm.36,3.39l.14-.27-.23-.05,.09,.32Zm.23,2.76l.09-.23h-.36s-.02,.05-.05,.05l.32,.18Zm-.23-8.14v-.09l-.05,.04,.05,.05Zm.59,.54c.3,0,.45-.18,.45-.54l-.32-.18c-.06,.06-.13,.1-.2,.11-.08,.02-.16,.05-.25,.11,.06,.09,.11,.18,.16,.27s.1,.17,.16,.23Zm.5,5.47c-.09-.15-.15-.33-.18-.54l-.45,.5c.15,.03,.36,.04,.63,.04Zm-.04,2.85c.06-.06,.09-.11,.09-.14-.03,0-.05-.01-.07-.04-.02-.03-.02-.06-.02-.09l-.09,.18,.09,.09Zm.09,1.36v-.18h-.05v.18h.05Zm.18-9.68l.09-.05-.04-.18h-.05v.23Zm.09,4.3l-.04-.05-.05,.05h.09Zm.5-10.45v-.04h-.09s.03,.04,.09,.04Zm.32,4.89l.18-.05v-.09c0-.15-.09-.27-.27-.36-.06,.06-.1,.11-.11,.14-.02,.03-.05,.06-.11,.09,.06,.18,.17,.27,.32,.27Zm-.23-3.49v-.09h-.05v.04s.01,.05,.05,.05Z"/><path class="cls-1" d="M413.96,110.55h-1.04c-.15-.09-.29-.19-.41-.29s-.26-.22-.41-.34c-.51-.51-.77-1.15-.77-1.9s.3-1.39,.9-1.99c.36-.39,.77-.59,1.22-.59,.57,0,1.07,.24,1.49,.72,.42,.48,.63,1.03,.63,1.63l-.05,.41,.05,.18c0,1.03-.54,1.75-1.63,2.17Zm-.14-2.26v-.14l-.09-.04v.18h.09Z"/><path d="M91.59,114.26v.41c-.14,0-.21-.07-.21-.2v-.21h.21Z"/><path class="cls-1" d="M311.83,120.17c-.76-.81-1.5-1.61-2.21-2.42-.72-.71-1.08-1.51-1.08-2.41,0-.45,.02-.85,.07-1.21,.04-.35-.07-.75-.33-1.2v-.67c.17-.72,.26-1.3,.26-1.74v-3.89c0-1.34-.09-2.64-.26-3.89-.18-1.97-.45-3.98-.81-6.03-.27-1.43-.65-2.8-1.14-4.09-.5-1.3-1.1-2.57-1.82-3.82-.54-.99-1.19-1.84-1.95-2.55-.76-.72-1.55-1.43-2.36-2.15-1.34-.98-2.78-1.74-4.3-2.28-1.53-.53-3.1-.89-4.71-1.07-3.59-.27-6.9,.09-9.95,1.07-3.86,1.26-6.73,3.49-8.61,6.71-1.35,2.14-2.34,4.4-2.96,6.77-.63,2.37-.99,4.85-1.08,7.44-.09,1.97-.11,3.91-.07,5.83,.05,1.92,.07,3.91,.07,5.97,0,1.25-.45,2.32-1.34,3.21-.72,.72-1.43,1.48-2.15,2.28-.71,.81-1.42,1.66-2.14,2.55,.09,.09,.13,.2,.13,.34,0,.13,.05,.24,.14,.33,.54,.45,1.07,.94,1.61,1.48,.53,.53,1.11,1.02,1.74,1.47,1.34,.99,2.01,2.33,2.01,4.02v16.49c-.09,1.08-.05,2.15,.14,3.22,.18,1.07,.35,2.15,.53,3.22,.36,1.43,.74,2.84,1.15,4.22,.4,1.39,1.01,2.71,1.81,3.96,.72,.98,1.44,1.92,2.16,2.81,.71,.9,1.56,1.7,2.55,2.42,1.71,1.25,3.54,2.1,5.52,2.54,1.97,.45,3.99,.72,6.05,.81,.36,.09,.7,.09,1.01,0s.7-.14,1.14-.14c.9,.09,1.75,.03,2.56-.2,.81-.22,1.66-.47,2.56-.74,2.15-.71,3.99-1.74,5.51-3.08,1.53-1.34,2.83-2.99,3.9-4.96,.9-1.7,1.57-3.44,2.02-5.23,.45-1.79,.76-3.62,.94-5.49,.27-2.42,.4-4.83,.4-7.25,0-1.51,.05-3.03,.14-4.55,.09-1.52-.05-3.04-.4-4.56v-.54c.26-.53,.4-1.07,.4-1.61s-.05-1.02-.14-1.47c-.09-.98,.05-1.79,.41-2.41,.35-.63,.89-1.21,1.6-1.75l3.63-3.22c-.81-.89-1.59-1.74-2.35-2.54Zm-15.76-5.9c0,.71-.09,1.34-.26,1.88-.18,.53-.54,1.07-1.07,1.6-.63,.72-1.23,1.44-1.81,2.15-.59,.72-1.19,1.43-1.81,2.15-.1,.08-.19,.13-.27,.13-.09,0-.23,.09-.41,.27,.72,.71,1.39,1.4,2.02,2.07,.62,.67,1.29,1.37,2.01,2.08,1.07,1.08,1.6,2.33,1.6,3.76-.17,5.45-.17,10.86,0,16.22,0,1.97-.26,3.89-.81,5.76-.54,1.61-1.35,2.87-2.43,3.76-1.08,.89-2.57,1.38-4.46,1.47-.46,0-.93-.04-1.43-.13-.49-.09-.97-.22-1.42-.4-1.26-.54-2.25-1.48-2.97-2.82-.72-1.79-1.22-3.44-1.49-4.96-.27-3.13-.36-6.3-.27-9.52,.09-3.22,.09-6.43,0-9.65-.09-1.25,.36-2.37,1.34-3.35,.72-.72,1.45-1.41,2.21-2.08s1.5-1.36,2.22-2.08l-4.43-4.83c-.98-.98-1.43-2.14-1.34-3.48v-6.57c0-2.32,.14-4.56,.4-6.71,.18-.98,.39-1.94,.61-2.88,.23-.94,.66-1.76,1.29-2.48,.81-1.16,2.03-1.96,3.65-2.41,.9-.18,1.74-.22,2.5-.13,.77,.09,1.51,.26,2.23,.53,1.18,.45,2.04,1.12,2.58,2.01,.54,.9,.94,1.88,1.21,2.95,.55,2.06,.81,4.2,.81,6.44-.17,3.13-.17,6.21,0,9.25Z"/><path class="cls-1" d="M257.8,120.17c-.76-.81-1.5-1.61-2.21-2.42-.72-.71-1.08-1.51-1.08-2.41,0-.45,.02-.85,.07-1.21,.04-.35-.07-.75-.33-1.2v-.67c.17-.72,.26-1.3,.26-1.74v-3.89c0-1.34-.09-2.64-.26-3.89-.19-1.97-.45-3.98-.81-6.03-.27-1.43-.65-2.8-1.15-4.09-.49-1.3-1.09-2.57-1.81-3.82-.54-.99-1.19-1.84-1.95-2.55-.76-.72-1.55-1.43-2.36-2.15-1.34-.98-2.78-1.74-4.3-2.28-1.53-.53-3.1-.89-4.71-1.07-3.59-.27-6.9,.09-9.95,1.07-3.86,1.26-6.73,3.49-8.61,6.71-1.35,2.14-2.34,4.4-2.96,6.77-.63,2.37-.99,4.85-1.08,7.44-.09,1.97-.11,3.91-.07,5.83,.05,1.92,.07,3.91,.07,5.97,0,1.25-.45,2.32-1.34,3.21-.72,.72-1.43,1.48-2.15,2.28-.71,.81-1.43,1.66-2.14,2.55,.09,.09,.13,.2,.13,.34,0,.13,.05,.24,.14,.33,.54,.45,1.07,.94,1.61,1.48,.53,.53,1.11,1.02,1.74,1.47,1.34,.99,2.01,2.33,2.01,4.02v16.49c-.09,1.08-.05,2.15,.14,3.22,.18,1.07,.35,2.15,.53,3.22,.36,1.43,.74,2.84,1.15,4.22,.4,1.39,1.01,2.71,1.81,3.96,.72,.98,1.44,1.92,2.15,2.81,.72,.9,1.57,1.7,2.56,2.42,1.71,1.25,3.54,2.1,5.52,2.54,1.97,.45,3.99,.72,6.05,.81,.36,.09,.7,.09,1.01,0s.7-.14,1.14-.14c.9,.09,1.75,.03,2.56-.2,.81-.22,1.66-.47,2.56-.74,2.15-.71,3.99-1.74,5.51-3.08,1.53-1.34,2.83-2.99,3.9-4.96,.9-1.7,1.57-3.44,2.02-5.23,.45-1.79,.76-3.62,.94-5.49,.27-2.42,.4-4.83,.4-7.25,0-1.51,.05-3.03,.14-4.55,.09-1.52-.05-3.04-.4-4.56v-.54c.26-.53,.4-1.07,.4-1.61s-.05-1.02-.14-1.47c-.09-.98,.05-1.79,.41-2.41,.35-.63,.89-1.21,1.6-1.75l3.63-3.22c-.81-.89-1.59-1.74-2.35-2.54Zm-15.76-5.9c0,.71-.09,1.34-.26,1.88-.18,.53-.54,1.07-1.07,1.6-.63,.72-1.23,1.44-1.81,2.15-.59,.72-1.19,1.43-1.82,2.15-.09,.08-.18,.13-.26,.13-.09,0-.23,.09-.41,.27,.72,.71,1.39,1.4,2.02,2.07,.62,.67,1.29,1.37,2.01,2.08,1.07,1.08,1.6,2.33,1.6,3.76-.17,5.45-.17,10.86,0,16.22,0,1.97-.26,3.89-.81,5.76-.54,1.61-1.35,2.87-2.43,3.76-1.08,.89-2.57,1.38-4.47,1.47-.45,0-.92-.04-1.42-.13-.49-.09-.97-.22-1.42-.4-1.26-.54-2.25-1.48-2.97-2.82-.72-1.79-1.22-3.44-1.49-4.96-.27-3.13-.36-6.3-.27-9.52,.09-3.22,.09-6.43,0-9.65-.09-1.25,.36-2.37,1.34-3.35,.72-.72,1.45-1.41,2.21-2.08s1.5-1.36,2.22-2.08l-4.43-4.83c-.98-.98-1.43-2.14-1.34-3.48v-6.57c0-2.32,.14-4.56,.4-6.71,.18-.98,.39-1.94,.61-2.88,.23-.94,.66-1.76,1.29-2.48,.81-1.16,2.03-1.96,3.65-2.41,.9-.18,1.74-.22,2.5-.13,.77,.09,1.51,.26,2.23,.53,1.18,.45,2.04,1.12,2.58,2.01,.54,.9,.94,1.88,1.21,2.95,.55,2.06,.81,4.2,.81,6.44-.17,3.13-.17,6.21,0,9.25Z"/><path class="cls-1" d="M205.44,141.48v26.42c-.18,.09-.35,.18-.53,.26-.18,.09-.36,.14-.54,.14h-42.77c-.26,0-.49-.05-.67-.14v-11.26h5.9v-25.07c0-1.78-.24-3.13-.73-4.02-.5-.89-1.41-1.88-2.75-2.95-.45-.36-.85-.69-1.21-1.01-.36-.31-.76-.69-1.21-1.14,1.35-1.6,2.73-3.12,4.16-4.55,1.07-1.08,1.61-2.37,1.61-3.89,.09-3.4,.13-6.79,.13-10.19v-10.32h-5.9v-11.4h23.6c.09,.18,.18,.33,.27,.47,.09,.13,.13,.29,.13,.47v10.32c-.98,.09-1.97,.11-2.95,.07-.98-.05-1.96-.02-2.95,.07v10.52c0,3-.04,6.06-.13,9.18,0,1.17,.2,2.17,.6,3.02,.4,.85,.96,1.68,1.68,2.48l3.48,3.49c-.44,.62-.96,1.2-1.54,1.74s-1.14,1.03-1.67,1.47c-.36,.45-.7,.81-1.01,1.08-.31,.27-.65,.62-1,1.07-.27,.45-.41,.94-.41,1.47v27.62h1.48c1.16,0,2.3-.02,3.42-.06,1.11-.05,2.25-.03,3.42,.06,.8,0,1.6-.15,2.41-.47,.8-.31,1.56-.78,2.28-1.4,.71-.63,1.31-1.3,1.81-2.02,.49-.71,.82-1.47,1-2.27,.27-.81,.41-1.7,.41-2.69v-6.43c.26-.36,.55-.56,.87-.61,.31-.04,.69-.06,1.14-.06,.8,.09,1.61,.09,2.41,0,.8-.09,1.61,0,2.41,.27h.4c.54-.36,1.06-.45,1.55-.27s.96,.36,1.4,.53Z"/><path d="M91.38,114.26v.21c0,.13,.07,.2,.21,.2v-.41h-.21Zm0,0v.21c0,.13,.07,.2,.21,.2v-.41h-.21Z"/><path class="cls-1" d="M99.6,180.07c-.28-2.12-.62-4.21-1.03-6.26-.69-4.38-2.12-8.42-4.31-12.12-.69-1.09-1.37-2.19-2.05-3.28-.69-1.1-1.37-2.19-2.06-3.29-1.09-1.5-1.44-3.35-1.03-5.54,.14-1.24,.48-2.74,1.03-4.52-.28-.13-.44-.27-.51-.41-.07-.14-.17-.27-.31-.41-1.51-.82-2.98-1.61-4.41-2.36-1.44-.75-2.91-1.54-4.42-2.36-1.09-.55-2.15-1.1-3.18-1.65-1.03-.54-2.09-1.09-3.18-1.64-.28-.27-.55-.51-.83-.72-.27-.2-.54-.44-.82-.72-1.78-1.77-3.46-3.52-5.03-5.23s-3.04-3.53-4.41-5.44c-1.78-2.47-3.08-5-3.9-7.6-.83-2.6-.89-5.41-.21-8.42,.41-1.78,1.1-3.29,2.06-4.52,.95-1.23,2.12-2.39,3.49-3.49,.68-.41,1.43-.75,2.25-1.02,.83-.28,1.65-.28,2.47,0,3.83,.41,6.77,2.39,8.83,5.95,2.32,3.56,3.69,7.53,4.1,11.91,.14,.41,.34,1.16,.62,2.26h13.55v-35.94h-13.55v7.4c-.96-.96-1.82-1.82-2.57-2.57l-2.15-2.15c-2.88-2.33-5.89-3.91-9.04-4.73-3.15-.82-6.5-.68-10.06,.41-2.33,.69-4.31,1.68-5.95,2.98-1.65,1.3-3.22,2.91-4.73,4.83-2.19,2.73-3.79,5.68-4.82,8.82-1.03,3.15-1.68,6.44-1.95,9.86-.28,2.46-.34,4.93-.21,7.39,.14,2.47,.55,5,1.24,7.6,.41,1.51,.82,3.01,1.23,4.52,.41,1.5,.95,3.01,1.64,4.51,.82,1.79,1.23,3.53,1.23,5.24s-.13,3.53-.41,5.44c0,.69-.03,1.27-.1,1.75-.07,.48-.1,.99-.1,1.54,.13,.41,.34,.61,.61,.61,1.78,.82,3.56,1.64,5.34,2.47,1.78,.82,3.56,1.64,5.34,2.46,.82,.28,1.61,.65,2.36,1.13s1.4,1.06,1.95,1.74c1.23,1.24,2.43,2.47,3.6,3.7,1.16,1.23,2.36,2.53,3.59,3.9l6.16,6.78c1.09,1.37,2.12,2.77,3.08,4.21,.95,1.44,1.71,2.97,2.26,4.62,.95,2.6,1.43,5.2,1.43,7.8s-.68,5.13-2.05,7.6c-1.1,2.32-2.81,3.93-5.13,4.82-2.33,.89-4.73,.93-7.19,.1-1.1-.27-2.05-.68-2.87-1.23-3.29-2.74-5.48-5.95-6.57-9.65-1.51-3.83-2.26-7.66-2.26-11.5-.28-1.09-.55-1.98-.83-2.67h-12.31c-.28,0-.55,.07-.83,.21-.27,.14-.54,.28-.82,.41v39.22c0,1.1,.34,1.78,1.03,2.05h12.11v-9.85c1.24,1.37,2.06,2.46,2.47,3.28,2.73,3.97,6.33,6.61,10.78,7.91,4.45,1.3,8.93,1.26,13.45-.11,2.73-.82,5.16-2.08,7.29-3.79,2.12-1.71,4-3.73,5.64-6.06,1.92-3.01,3.32-6.16,4.21-9.45,.89-3.28,1.47-6.7,1.75-10.26,.27-2.19,.27-4.35,0-6.47Zm-8.22-65.81h.21v.41c-.14,0-.21-.07-.21-.2v-.21Z"/><path class="cls-1" d="M156.65,162.6c0-.97,.02-1.92,.06-2.85,.05-.93-.02-1.88-.2-2.85h-3.89c-.18-.53-.26-.85-.26-.94-.19-.8-.36-1.63-.54-2.48-.18-.85-.36-1.73-.54-2.62-.18-.99-.35-1.93-.53-2.83-.18-.89-.4-1.83-.67-2.82-.18-.8-.36-1.63-.54-2.48-.18-.85-.36-1.73-.54-2.62l-.8-4.03c-.18-.72-.36-1.46-.54-2.22-.18-.76-.35-1.54-.53-2.35-.09-.45-.18-.85-.27-1.21-.09-.36-.13-.76-.13-1.21,.17-.53,.35-1.07,.53-1.61s.49-1.03,.94-1.48c.45-.45,.89-.96,1.34-1.55,.45-.58,.94-1.14,1.47-1.67-.71-.63-1.38-1.21-2.01-1.75-.62-.54-1.25-1.07-1.87-1.61-.81-.72-1.54-1.48-2.22-2.29-.67-.8-1.13-1.74-1.4-2.82-.18-.98-.38-2.01-.61-3.09-.22-1.07-.42-2.1-.6-3.09-.18-.98-.38-2.01-.6-3.09-.23-1.07-.43-2.1-.61-3.09-.18-.98-.4-1.97-.67-2.95-.27-.99-.49-1.97-.67-2.96-.09-.45-.15-.85-.2-1.21-.04-.36-.11-.76-.2-1.21h5.9v-11.39c-.72,0-1.43-.03-2.15-.07-.71-.05-1.43-.02-2.14,.07-.72,.09-1.41,.09-2.08,0-.67-.09-1.36-.09-2.08,0h-21.04v11.39h5.89c-.09,.36-.13,.65-.13,.88s-.05,.47-.13,.74c-.19,.98-.38,1.97-.61,2.95-.22,.99-.42,1.97-.6,2.96-.27,1.07-.52,2.12-.74,3.15-.22,1.03-.42,2.09-.6,3.16-.18,.99-.38,1.95-.6,2.89-.23,.94-.43,1.9-.61,2.89-.45,2.51-1.61,4.39-3.48,5.64-.45,.27-.83,.58-1.14,.94-.32,.36-.65,.72-1.01,1.08-.45,.36-.83,.67-1.14,.94-.31,.26-.65,.58-1,.94l3.21,3.62c.45,.45,.69,.92,.74,1.42,.04,.49,.16,.96,.34,1.4-.18,.99-.39,2-.61,3.03-.22,1.03-.47,2.04-.73,3.02-.19,.9-.39,1.75-.61,2.55-.22,.81-.38,1.7-.47,2.69-.18,1.35-.47,2.66-.87,3.96-.4,1.3-.69,2.67-.87,4.1-.18,1.44-.45,2.83-.81,4.17-.35,1.34-.71,2.73-1.07,4.16h-4.29v11.4h20.78c.18-.71,.27-1.15,.27-1.33,0-.61,.05-1.21,.14-1.78,.08-.58,.04-1.13-.14-1.66-.18-.62-.18-1.19,0-1.72,.18-.53,.18-1.06,0-1.59,0-.44-.04-.84-.13-1.2-.09-.35-.05-.75,.13-1.19,.09-.18,.07-.33-.07-.46-.13-.13-.24-.25-.33-.33-.99-.09-1.92-.12-2.82-.07-.89,.05-1.78-.02-2.68-.2,.09-.27,.11-.54,.07-.82-.05-.27-.02-.49,.07-.67,.18-.54,.31-1.06,.4-1.56,.09-.49,.18-.97,.27-1.42,.18-1.17,.35-2.3,.53-3.38,.18-1.09,.4-2.17,.67-3.25,.18-.45,.25-.95,.2-1.49-.04-.54,.16-.99,.61-1.36h16.09c.44,2.08,.87,4.18,1.27,6.3,.4,2.12,.83,4.22,1.27,6.29,.09,.18,.12,.41,.07,.68-.05,.27-.07,.54-.07,.81h-5.76c-.09,.71-.14,1.64-.14,2.79v3.44c0,1.15,.03,2.21,.07,3.18,.05,.97,.11,1.64,.2,1.99,2.33,0,4.7,.02,7.11,.07,2.41,.04,4.64,.04,6.7,0,2.06-.05,3.82-.09,5.3-.14,1.47-.04,2.39-.11,2.75-.2,0-.97,.02-1.87,.06-2.71,.05-.84,.02-1.75-.06-2.72Zm-32.85-29.83v-1.41c0-.49,.09-.96,.27-1.41,.35-1.07,.6-2.14,.73-3.21,.14-1.08,.29-2.19,.47-3.36,.18-.71,.38-1.45,.61-2.21,.22-.76,.38-1.49,.47-2.21,.08-.8,.2-1.58,.33-2.35,.14-.75,.29-1.54,.47-2.34,.27-1.25,.49-2.46,.67-3.62,.18-1.16,.45-2.32,.81-3.49,.17-.8,.31-1.63,.4-2.48,.09-.85,.22-1.67,.4-2.48,.18-.98,.36-1.96,.54-2.95,1.16,5.72,2.21,11.33,3.15,16.83,.94,5.49,1.94,11.06,3.01,16.69h-12.33Z"/><path class="cls-1" d="M370.55,164.57c-.05,.77-.07,1.51-.07,2.24v.81c-.09,.09-.15,.18-.2,.27-.04,.09-.11,.18-.2,.27h-16.35c-3.31-10.36-6.57-20.6-9.79-30.7-3.22-10.1-6.48-20.29-9.79-30.57-.09,.27-.13,1.61-.13,4.03s-.03,5.38-.07,8.91c-.05,3.53-.07,7.36-.07,11.46v11.6c0,3.62,.02,6.71,.07,9.25,.04,2.55,.07,4.05,.07,4.49h4.96v11.53h-21.19v-11.39h5.77v-25.69c0-.98-.14-1.89-.4-2.74-.27-.85-.81-1.58-1.61-2.21-.63-.44-1.21-.93-1.74-1.47-.54-.54-1.08-1.03-1.61-1.47-.09-.09-.14-.18-.14-.27s-.04-.18-.13-.27c.18-.35,.31-.58,.4-.67,.71-.71,1.41-1.47,2.08-2.27,.67-.8,1.36-1.56,2.08-2.27,.71-.72,1.07-1.52,1.07-2.41v-21.27h-5.77v-11.4h18.24c.89,2.68,1.76,5.39,2.61,8.11,.85,2.73,1.72,5.43,2.62,8.11,.71,2.15,1.36,4.29,1.94,6.44,.58,2.14,1.23,4.29,1.94,6.43,.72,2.15,1.41,4.32,2.08,6.51,.67,2.19,1.36,4.35,2.08,6.5,.71,2.14,1.39,4.27,2.01,6.37,.63,2.1,1.25,4.18,1.88,6.23,.18,.45,.33,.92,.47,1.41,.13,.49,.29,1.05,.47,1.67v-46.38h-5.37v-11.4h20.92l.27,.27,.13,.27v10.72c-.98,.18-1.94,.23-2.88,.14-.94-.09-1.9-.09-2.88,0,0,.18-.03,.38-.07,.6-.05,.22-.07,.42-.07,.6v19c0,1.6,.49,2.89,1.48,3.88l3.62,4.01c.08,.09,.26,.36,.53,.8-.71,.72-1.4,1.39-2.08,2.01-.67,.63-1.36,1.3-2.07,2.01-.99,.98-1.48,2.09-1.48,3.34v26.36c.09,.09,.14,.18,.14,.26h5.49c.45,.28,.67,.59,.67,.95v.95c-.18,.73-.24,1.38-.2,1.97,.05,.59,.11,1.2,.2,1.83,.09,.73,.11,1.47,.07,2.24Z"/><path class="cls-1" d="M476.57,170.94c-1.55-1.13-3.03-3.1-4.44-5.93-.42-.56-.64-1.19-.64-1.9,0-3.67-1.27-9.03-3.81-16.09-1.41-3.95-3.7-7.06-6.88-9.32-3.17-2.25-6.53-3.39-10.06-3.39-2.4,0-5.01,.64-7.83,1.91-2.12,.99-3.74,2.4-4.87,4.23l-1.48,1.91,.21-9.32-.21-9.31c0-10.45,.77-17.71,2.33-21.81,1.13-3.39,3.38-5.08,6.77-5.08,.71,.14,1.59,.21,2.65,.21s2.47,.99,4.23,2.96c1.77,1.98,2.65,5.93,2.65,11.86l-.21,3.18c0,.56,.14,1.13,.42,1.69h14.82l.21-5.29c0-14.82-4.51-24.63-13.55-29.43-1.97-.99-5.29-1.84-9.95-2.54-4.66,0-7.97,.56-9.95,1.69-4.66,1.69-8.54,5.22-11.64,10.59-1.7,3.1-3.04,7.62-4.03,13.55-.56,2.82-.92,5.5-1.05,8.04v12.71l-.22,2.75,.22,1.48c0,1.41-.29,2.68-.85,3.81l-8.26,9.11c.85,1.27,2.05,2.54,3.6,3.81l2.33,2.11c2.12,1.7,3.18,4.03,3.18,6.99l-.22,6.14,.22,4.45c0,3.1-.08,5.71-.22,7.83,0,8.47,.6,15.35,1.8,20.64,1.2,5.3,2.58,9.15,4.13,11.54,3.39,6.36,8.47,9.95,15.25,10.8,2.82,.29,5.92,.43,9.31,.43l1.27-.22c9.74-2.68,15.95-10.37,18.63-23.07,.57-2.55,1.2-6.71,1.91-12.5,.56-.7,1.2-1.37,1.9-2.01,.71-.63,1.42-1.3,2.12-2.01,.71-.7,1.52-1.23,2.44-1.59,.91-.35,1.65-1.09,2.22-2.22-1.41-1.13-2.89-2.26-4.45-3.39Zm-21.8,19.48c-.71,3.53-1.42,5.68-2.12,6.46-.71,.78-1.27,1.52-1.69,2.22-1.27,1.13-3.53,1.7-6.78,1.7-2.82-.99-4.66-2.54-5.5-4.66-.57-1.27-1.1-2.65-1.59-4.13-.5-1.48-.74-7.87-.74-19.16,0-12.28,1.9-19.2,5.71-20.75,1.13-.42,2.47-.71,4.03-.85,2.96,0,5.15,1.34,6.56,4.02,1.69,3.25,2.54,6.64,2.54,10.17,0,15.24-.14,23.57-.42,24.98Z"/><path class="cls-1" d="M156.75,41.85c-13.82-2.23-27.74-3.62-41.82-1.03-13.57,2.5-21.01,9.44-19.99,18.67,.48,4.43,3.61,7.79,9.35,10.53-.15,0-.3,.01-.45,.02,1.12,.24,2.25,.52,3.39,.8,3.95,.97,7.19,.94,10.66,.36,1.47-.57,2.84-1.28,4.05-2.17,1.9-2.21,3.62-4.2,5.33-6.18-.36-.16-.73-.31-1.09-.47-.38,.44-.76,.88-1.15,1.32-3.17,3.55-8.04,5.15-13.46,4.42-6.12-.81-9.47-3.2-10.73-7.64-1.73-6.07,1.91-11.64,10.53-15.27,12.19-5.14,25.44-5.32,38.85-3.49,7.22,.99,14.28,2.56,21.42,3.87-4.8-1.65-9.77-2.92-14.88-3.75Z"/><path class="cls-1" d="M91.73,40.06c5.91-5.86,14.33-8.11,23.86-8.77,13.82-.96,27.21,.58,40.37,3.53,1.26,.28,2.51,.58,3.77,.83,.24,.05,.55-.07,1.28-.18-1.06-1.09-2.14-2.03-2.95-3.08-2.17-2.77-2.99-5.72-1.41-8.78,1.27-2.46,4.96-3.85,7.69-2.78,1.22,.48,2.19,1.62,2.64,2.6,.21,.46-1.11,1.27-1.74,1.92l-.99-.43,1.49-2.02c-4.59-1.05-7.28,.41-7.54,3.88-.35,4.49,5.23,9.47,11.96,11.8,16.33,5.66,32.45,11.61,48.66,17.45l-.7,.98c-9.25-3.46-18.45-7.01-27.78-10.37-16.56-5.96-33.52-11.26-52.11-12.97-16.37-1.5-32.68-2.2-46.49,6.37Z"/><path class="cls-1" d="M384.19,41.28c9.26,1.05,17.61,3.34,23.41,8.98,7.11,6.9,2.64,16.69-8.26,17.91-6.24,.7-10.77-1.45-14.03-5.27l-1.05,.68c1.91,1.97,3.83,3.95,5.82,6.01,1.96,.52,3.91,1.07,6.02,1.29,1.38,.14,2.84,.22,4.31,.23,2.09-.26,4.16-.61,6.1-1.25,.7-.23,1.37-.45,2.04-.66,11.7-7.2,10.31-19.99-3.17-25.55-3.98-1.64-8.6-2.83-13.14-3.39-17.71-2.18-34.73,.41-51.41,4.55-2.68,.67-5.26,1.53-7.89,2.31,1.4,.22,2.46-.11,3.55-.38,15.44-3.91,30.98-7.36,47.71-5.46Z"/><path class="cls-1" d="M345.24,22.94c.86,.78,1.44,1.31,2.27,2.06-.86,0-1.74,.15-1.89-.03-.56-.63-1.48-1.62-1.16-2.03,.72-.91,1.93-1.92,3.25-2.25,3.21-.79,6.63,1.19,7.46,4.06,1.23,4.2-1.39,7.54-5.67,11.21,6.17-1.19,11.25-2.34,16.43-3.14,14.07-2.16,28.24-3.23,42.03,.68,4.17,1.18,7.7,3.52,11.21,5.72-17.11-8.8-35.86-7.14-54.54-4.41-20.2,2.95-38.4,9.62-56.34,16.62-2.4,.93-4.85,1.8-7.28,2.7l-.51-.69c8.44-3.35,16.78-6.82,25.34-10,5.33-1.98,10.98-3.51,16.49-5.23,5.63-1.75,10.92-7.14,10.85-11.08-.06-3.65-2.81-5.29-7.94-4.21Z"/><path class="cls-1" d="M298.64,13.39c6.58,6.24-3.61,20.7-30.14,24.22,1.46-1,1.99-1.75,2.98-1.97,18.43-4.02,27.02-11.11,26.31-21.18-.02-.23,.36-.47,.85-1.07Z"/><path class="cls-1" d="M216.4,13.62c.96,4.95,2.15,9.78,7.71,14.1,5.52,4.29,14.09,6.61,22.32,9.22-13.49-.76-22.35-5.22-27.87-10.51-3.71-3.56-6.63-8.28-2.15-12.8Z"/><path class="cls-1" d="M256.19,40.06l-2.13,1.55-.04-.02,.81-2.52-2.15-1.57v-.04h.19c.78,0,1.55,0,2.33,0,.12,0,.17-.04,.21-.16,.24-.76,.49-1.51,.73-2.27,.01-.04,.03-.08,.05-.16,.13,.41,.26,.79,.38,1.18,.14,.42,.27,.83,.4,1.25,.04,.12,.09,.15,.21,.15,.77,0,1.54,0,2.31,0h.18l.02,.04-2.15,1.57,.81,2.52-.03,.02-2.14-1.55Z"/><path class="cls-1" d="M168.79,240.65c-12.41,2.19-24.9,3.55-37.54,1.01-12.18-2.45-18.86-9.26-17.95-18.31,.44-4.34,3.24-7.64,8.39-10.33-.14,0-.27-.01-.4-.02,1.01-.24,2.02-.51,3.04-.78,3.54-.96,6.46-.92,9.57-.36,1.32,.56,2.55,1.25,3.64,2.12,1.71,2.17,3.25,4.12,4.78,6.06-.33,.15-.65,.31-.98,.46-.34-.43-.68-.87-1.03-1.29-2.84-3.48-7.22-5.05-12.08-4.34-5.49,.8-8.5,3.14-9.64,7.49-1.55,5.95,1.72,11.42,9.45,14.98,10.94,5.04,22.84,5.22,34.87,3.43,6.48-.97,12.82-2.51,19.23-3.8-4.31,1.62-8.77,2.87-13.35,3.68Z"/><path class="cls-1" d="M110.42,242.4c5.31,5.74,12.86,7.95,21.42,8.6,12.41,.94,24.43-.57,36.24-3.46,1.13-.28,2.25-.57,3.39-.81,.22-.05,.5,.07,1.15,.18-.95,1.07-1.92,1.99-2.65,3.02-1.94,2.72-2.68,5.61-1.27,8.61,1.14,2.41,4.45,3.78,6.9,2.73,1.09-.47,1.97-1.59,2.37-2.55,.19-.45-1-1.24-1.56-1.88l-.89,.43,1.34,1.98c-4.12,1.03-6.53-.4-6.77-3.81-.31-4.4,4.69-9.29,10.73-11.58,14.66-5.55,29.13-11.39,43.68-17.11l-.63-.96c-8.31,3.4-16.56,6.88-24.94,10.17-14.87,5.85-30.09,11.04-46.78,12.71-14.7,1.47-29.34,2.15-41.74-6.25Z"/><path class="cls-1" d="M372.97,241.21c8.31-1.03,15.81-3.28,21.02-8.8,6.39-6.77,2.37-16.37-7.42-17.57-5.6-.69-9.67,1.42-12.59,5.17l-.95-.66c1.72-1.94,3.44-3.88,5.23-5.89,1.76-.51,3.51-1.05,5.4-1.26,1.24-.14,2.55-.22,3.87-.23,1.88,.25,3.73,.6,5.47,1.22,.63,.23,1.23,.45,1.83,.65,10.5,7.06,9.25,19.6-2.85,25.05-3.57,1.61-7.72,2.77-11.79,3.32-15.9,2.14-31.18-.4-46.15-4.47-2.41-.65-4.73-1.5-7.09-2.26,1.26-.21,2.21,.1,3.18,.37,13.86,3.83,27.81,7.21,42.83,5.35Z"/><path class="cls-1" d="M338.01,259.19c.77-.76,1.29-1.28,2.04-2.02-.77,0-1.56-.15-1.7,.03-.5,.62-1.33,1.59-1.04,1.99,.65,.9,1.73,1.88,2.92,2.2,2.88,.78,5.95-1.17,6.7-3.98,1.1-4.12-1.25-7.39-5.09-11,5.54,1.17,10.1,2.29,14.75,3.07,12.63,2.12,25.35,3.16,37.73-.67,3.74-1.16,6.91-3.45,10.06-5.61-15.36,8.63-32.19,7-48.96,4.32-18.13-2.9-34.47-9.44-50.58-16.29-2.15-.92-4.35-1.76-6.53-2.64l-.46,.67c7.57,3.28,15.06,6.69,22.75,9.8,4.78,1.94,9.85,3.44,14.8,5.13,5.05,1.72,9.8,7,9.74,10.86-.06,3.58-2.53,5.19-7.12,4.13Z"/><g><path d="M269.3,201.99c.05,.2,.07,1.55,.07,4.07,0,1.51-.01,2.51-.04,2.99-.21,.07-2.74,.11-7.59,.11-2.48,0-3.95-.02-4.43-.04,0-.02-.01-.03-.04-.03v-3.03c.15-.02,.36-.03,.65-.03l.47,.03c.17,0,.32,0,.47-.03v-6.95c0-.51-.18-.91-.52-1.21-.35-.3-.59-.51-.71-.63-.04-.05-.1-.1-.16-.14-.06-.05-.1-.13-.12-.25l.07-.11c.19-.19,.37-.4,.54-.61,.17-.22,.36-.43,.57-.64,.22-.2,.33-.47,.33-.81v-5.58h-1.55c-.05-.21-.07-.41-.07-.61l.03-.57-.03-.87,.03-.25v-.72c.15-.07,2.4-.11,6.77-.11,1.78,0,3.02,0,3.73,.02,.7,0,1.23,.02,1.56,.02,.03,.24,.04,2.41,.04,6.52-.05,.02-.09,.04-.13,.07-.03,.02-.07,.03-.12,.03-.12-.02-.27-.03-.44-.03-.33,.04-.79,.07-1.36,.07-.27,0-.51-.04-.72-.11v-1.62l-.04-.14,.04-.36c0-.29-.11-.57-.33-.83-.21-.26-.44-.42-.68-.47-.14-.05-1.3-.07-3.46-.07v6.12l.22,.03c.26,0,.54-.13,.83-.39,.29-.27,.43-.61,.43-1.04,.19-.1,.44-.15,.76-.15s.8,.04,1.47,.11c.1,.22,.15,.43,.15,.65,0,2.28-.02,3.47-.06,3.58-.04,.11-.05,.23-.05,.38,0,.05,.01,.09,.05,.12,.04,.04,.06,.08,.06,.13s-.02,.09-.06,.12c-.04,.04-.05,.07-.05,.09l.03,.08c.05,.12,.08,.23,.08,.32,0,.1-.02,.19-.06,.29s-.05,.2-.05,.32l.03,.26h-2.27c0-.48-.2-.89-.61-1.23-.21-.17-.42-.25-.61-.25l-.29,.03v7.39l.76,.03,.54-.03c.36,0,.67,0,.94,.03h2.19c0-.07,.01-.14,.02-.21,.01-.08,.02-.59,.02-1.54s0-1.46,.02-1.54c.01-.09,.01-.18,.01-.27l-.03-.47,.03-.04h2.67Z"/><path d="M245.29,201.78c.07-.31,.14-.61,.21-.89,.07-.27,.13-.52,.18-.75s.09-.45,.11-.67c.02-.21,.06-.42,.11-.61l.11-.57,1.08-.11v-2.81c-.2-.02-.78-.04-1.77-.04-1.87,0-2.9,.03-3.09,.07v2.16l-.04,.15c0,.19,.02,.39,.07,.61h.58c.24,.17,.39,.31,.47,.43,0,.68-.05,1.19-.15,1.55l-.5,1.48c-.19-.12-.66-.7-1.41-1.73-.6-.84-1.39-1.9-2.37-3.17,.86-.91,1.55-1.89,2.05-2.95,.14-.26,.34-.47,.58-.63,.24-.16,.49-.32,.77-.49,.28-.17,.55-.34,.81-.54-.22-.24-.45-.47-.7-.68-.25-.22-.44-.49-.56-.83,0-2.81-.92-4.46-2.77-4.97-.41-.12-.83-.18-1.26-.18-1.23,0-2.2,.44-2.92,1.3s-1.15,1.7-1.29,2.52c-.1,.48-.17,.96-.22,1.44-.24,.41-.54,.76-.9,1.04l-.4,.36,1.41,.87c.31,.19,.51,.44,.61,.75,.26,.79,.66,1.78,1.19,2.96l-.65,.75c-.91,1.01-1.51,1.91-1.8,2.7-.29,.6-.98,1.25-2.09,1.94l.07,.08c.96,.65,1.47,1.14,1.52,1.47l.07,.61c.12,1.18,.59,2.27,1.4,3.26,.82,1,1.75,1.59,2.81,1.79,.41,.07,.86,.1,1.37,.1l.39-.03c.94-.03,1.97-.49,3.1-1.41,.24-.19,.46-.43,.65-.72l.25-.25,.79,1.19c.29,.48,.79,.74,1.51,.79h2.42v-3.17h-1.77c-.17-.26-.33-.53-.48-.81-.16-.27-.33-.54-.53-.81,.2-.33,.39-.77,.58-1.29,.19-.53,.32-.95,.4-1.26Zm-8.9-12.24c.29-.72,.72-1.08,1.3-1.08,1.03,0,1.55,.71,1.55,2.12s-.28,2.43-.83,3.24c-.12,.19-.26,.4-.41,.61-.16,.22-.38,.47-.67,.76l-.43-1.15c-.07-.12-.23-.71-.47-1.77-.12-.45-.18-.88-.18-1.29,0-.08-.01-.16-.04-.26-.02-.09-.03-.2-.03-.32,0-.24,.07-.53,.21-.86Zm2.2,16.59c-.79,0-1.4-.16-1.84-.5-.74-.55-1.22-1.3-1.44-2.23-.07-.31-.12-.71-.14-1.19,0-1.51,.54-2.81,1.62-3.89,1.56,2.43,2.92,4.56,4.07,6.41-.72,.93-1.48,1.4-2.27,1.4Z"/><path d="M208.49,206.71c0-.24-.02-.47-.07-.68h-1.04l-.36-1.63c-.12-.64-.23-1.17-.33-1.56-.09-.4-.22-1.01-.39-1.86l-.4-1.76c-.02-.12-.05-.23-.07-.32-.02-.1-.04-.21-.04-.33,.15-.43,.28-.7,.4-.83,.12-.11,.24-.25,.36-.41,.12-.15,.25-.3,.4-.45-.2-.17-.55-.48-1.07-.93-.51-.46-.83-.9-.95-1.34-.05-.26-.1-.54-.16-.82-.06-.29-.12-.57-.16-.83-.05-.27-.11-.54-.17-.83-.06-.29-.11-.57-.16-.83-.05-.26-.11-.53-.18-.79-.12-.43-.19-.8-.21-1.12l-.08-.32h1.59v-3.06l-.65-.04-.76,.04-.57-.04-.29,.04h-5.65v3.06h1.58c-.02,.1-.03,.18-.03,.25s-.06,.4-.18,.97c-.29,1.25-.47,2.08-.54,2.49l-.33,1.54c-.12,.68-.43,1.18-.93,1.52-.12,.07-.23,.15-.31,.25-.08,.1-.17,.19-.27,.29-.24,.19-.43,.36-.58,.5,.7,.79,1.05,1.25,1.07,1.37,.01,.12,.04,.24,.09,.36-.17,.89-.34,1.65-.51,2.3-.07,.22-.12,.46-.14,.72-.05,.36-.13,.72-.24,1.07-.1,.34-.18,.71-.23,1.09-.05,.39-.12,.76-.22,1.12-.09,.36-.19,.73-.28,1.12h-1.16v3.09h5.58l.08-.36,.03-.58c0-.14-.01-.26-.03-.36-.03-.09-.04-.18-.04-.25l.07-.43c0-.19-.02-.4-.07-.61l.04-.4-.11-.07c-.17-.02-.37-.03-.61-.03l-.29,.03c-.19,0-.39-.02-.58-.07,.03-.05,.04-.11,.04-.18l-.04-.11c0-.05,.01-.08,.04-.11,.07-.21,.18-.78,.32-1.69l.18-.86c.05-.1,.07-.23,.07-.4l-.03-.04c0-.12,.06-.22,.18-.32h4.32l.68,3.35s.04,.07,.04,.14l-.04,.26h-1.55c-.02,.19-.03,.6-.03,1.22,0,1.05,.02,1.68,.07,1.87h1.91l.93,.04,2.31-.07c.38,0,.62-.02,.72-.04l.03-.87c0-.23,0-.44-.03-.61l.03-.86Zm-8.85-7.13c0-.38,.02-.63,.07-.76,.1-.28,.17-.57,.22-.86,.02-.45,.12-.96,.28-1.51l.11-.58c.05-.38,.12-.8,.22-1.26,.07-.33,.13-.66,.18-.97,.05-.31,.12-.62,.21-.93l.36-2.13c.32,1.54,.6,3.04,.85,4.52,.25,1.47,.52,2.97,.81,4.48h-3.31Z"/><path d="M221.13,206.03c-.05-.34-.07-.81-.07-1.41,0-.53,.02-.9,.05-1.11,.04-.22,.06-.47,.06-.76,0-.12-.03-.27-.08-.43,0-.12,.02-.22,.04-.29,.02-.07,.04-.17,.04-.29-.03-.26-.04-.52-.04-.76s-.02-.49-.07-.75l-.04-.51c0-.86-.45-1.57-1.37-2.12-.24-.14-.5-.24-.79-.29-.14-.04-.31-.12-.5-.21l.9-.36c.69-.27,1.2-.79,1.51-1.59,.17-.43,.26-.87,.27-1.31,0-.45,.04-.88,.09-1.31,.02-.24,.04-.55,.04-.9-.03-.6-.09-1.31-.2-2.11-.11-.8-.44-1.54-.99-2.2-.55-.66-1.71-1.08-3.46-1.27-.36-.03-1.71-.04-4.07-.04-2.18,0-3.31,0-3.38,.04v3.05h1.48v2.63l-.04,.72c0,.48,.01,.95,.04,1.41,0,.62-.07,1.08-.2,1.38-.13,.3-.57,.82-1.32,1.57,.17,.19,.48,.52,.94,.97,.38,.39,.58,.84,.58,1.37v6.91h-1.48v3.03c.19,.02,.95,.03,2.27,.03,2.45,0,3.77-.02,3.96-.07,0-1.25,.01-2.03,.03-2.34,0-.24-.02-.47-.07-.68h-1.37c0-2.19,.02-3.35,.04-3.5,0-.12-.04-.23-.11-.32v-.15c.07-.09,.11-.21,.11-.35-.02-.17-.04-1.24-.04-3.21l.8,.04,.75-.04c.6,0,1.14,.09,1.62,.25,.15,.07,.27,.17,.36,.29,.31,.43,.47,.85,.47,1.26l-.04,1.66,.04,2.52-.04,2.01c0,.92,.21,1.58,.62,2,.4,.42,.92,.63,1.54,.63h2.24c.16,0,.28,0,.36-.03v-3.06h-1.48Zm-3.24-13.94c0,1.28-.11,2.15-.32,2.63-.22,.48-.69,.75-1.41,.79l-.72,.04-.36-.04h-1.11l-.15-.32c0-.07,.02-.13,.06-.18,.03-.05,.05-.11,.05-.18-.02-.1-.04-2.02-.04-5.76,1.16,0,1.89,0,2.2,.03,1.13,0,1.73,.62,1.8,1.84v1.15Z"/><path d="M284.27,206.71c0-.24-.02-.47-.07-.68h-1.04l-.36-1.63c-.12-.64-.23-1.17-.33-1.56-.09-.4-.22-1.01-.39-1.86l-.4-1.76c-.02-.12-.05-.23-.07-.32-.02-.1-.04-.21-.04-.33,.15-.43,.28-.7,.4-.83,.12-.11,.24-.25,.36-.41,.12-.15,.25-.3,.39-.45-.19-.17-.54-.48-1.06-.93-.51-.46-.83-.9-.95-1.34-.05-.26-.1-.54-.16-.82-.06-.29-.12-.57-.16-.83-.05-.27-.11-.54-.17-.83-.06-.29-.11-.57-.16-.83-.05-.26-.11-.53-.18-.79-.12-.43-.19-.8-.21-1.12l-.08-.32h1.59v-3.06l-.65-.04-.76,.04-.57-.04-.29,.04h-5.65v3.06h1.58c-.02,.1-.03,.18-.03,.25s-.06,.4-.18,.97c-.29,1.25-.47,2.08-.54,2.49l-.33,1.54c-.12,.68-.43,1.18-.93,1.52-.12,.07-.23,.15-.31,.25-.09,.1-.17,.19-.27,.29-.24,.19-.43,.36-.58,.5,.7,.79,1.05,1.25,1.07,1.37,.01,.12,.04,.24,.09,.36-.17,.89-.34,1.65-.51,2.3-.07,.22-.12,.46-.14,.72-.05,.36-.13,.72-.24,1.07-.1,.34-.18,.71-.23,1.09-.05,.39-.12,.76-.22,1.12-.09,.36-.19,.73-.28,1.12h-1.16v3.09h5.58l.08-.36,.03-.58c0-.14,0-.26-.03-.36-.03-.09-.04-.18-.04-.25l.07-.43c0-.19-.02-.4-.07-.61l.04-.4-.11-.07c-.17-.02-.38-.03-.61-.03l-.29,.03c-.19,0-.39-.02-.58-.07,.02-.05,.04-.11,.04-.18l-.04-.11c0-.05,.01-.08,.04-.11,.07-.21,.18-.78,.32-1.69l.18-.86c.05-.1,.07-.23,.07-.4l-.03-.04c0-.12,.06-.22,.18-.32h4.32l.68,3.35s.04,.07,.04,.14l-.04,.26h-1.55c-.02,.19-.03,.6-.03,1.22,0,1.05,.02,1.68,.07,1.87h1.91l.93,.04,2.31-.07c.38,0,.62-.02,.72-.04l.03-.87c0-.23-.01-.44-.03-.61l.03-.86Zm-8.85-7.13c0-.38,.02-.63,.07-.76,.1-.28,.17-.57,.22-.86,.02-.45,.12-.96,.28-1.51l.11-.58c.05-.38,.12-.8,.22-1.26,.07-.33,.13-.66,.18-.97s.12-.62,.21-.93l.36-2.13c.32,1.54,.6,3.04,.85,4.52,.25,1.47,.52,2.97,.81,4.48h-3.31Z"/><path d="M294.57,186.05v6.76h-2.23c-.1-.02-.15-.61-.15-1.76l.04-.79c0-.6-.31-1.01-.94-1.23-.07-.02-.42-.03-1.04-.03,0,2.76-.01,4.56-.04,5.4,0,.55,.22,1.04,.65,1.47l.9,.98c-.17,.14-.32,.29-.47,.45-.14,.15-.3,.3-.46,.44-.41,.39-.62,.87-.62,1.44,.03,1.08,.04,3.37,.04,6.85h1.84v3.06h-6.99v-3.03h1.87v-6.88c0-.62-.32-1.2-.97-1.72-.26-.22-.45-.41-.57-.58,.04-.05,.08-.09,.1-.14,.03-.05,.36-.44,1.01-1.15,.27-.27,.4-.63,.4-1.08,.02-.92,.03-2.75,.03-5.51l-.36,.03-.18-.03c-.14,0-.28,.02-.43,.07-.74,.26-1.11,.78-1.11,1.55v2.19c-.32,.05-.65,.08-1.01,.08-.58,0-1-.04-1.26-.11v-6.73h11.95Z"/><path d="M307.64,201.99c.05,.2,.07,1.55,.07,4.07,0,1.51-.01,2.51-.04,2.99-.21,.07-2.74,.11-7.59,.11-2.47,0-3.95-.02-4.43-.04,0-.02-.01-.03-.04-.03v-3.03c.15-.02,.36-.03,.65-.03l.47,.03c.17,0,.32,0,.47-.03v-6.95c0-.51-.18-.91-.52-1.21-.35-.3-.59-.51-.71-.63-.04-.05-.1-.1-.16-.14-.06-.05-.1-.13-.12-.25l.07-.11c.19-.19,.37-.4,.54-.61,.17-.22,.36-.43,.57-.64,.22-.2,.33-.47,.33-.81v-5.58h-1.55c-.05-.21-.07-.41-.07-.61l.03-.57-.03-.87,.03-.25v-.72c.15-.07,2.4-.11,6.77-.11,1.78,0,3.02,0,3.73,.02,.7,0,1.23,.02,1.56,.02,.03,.24,.04,2.41,.04,6.52-.05,.02-.09,.04-.13,.07-.03,.02-.07,.03-.12,.03-.12-.02-.27-.03-.43-.03-.34,.04-.8,.07-1.37,.07-.27,0-.51-.04-.72-.11v-1.62l-.04-.14,.04-.36c0-.29-.11-.57-.33-.83-.21-.26-.44-.42-.68-.47-.14-.05-1.3-.07-3.46-.07v6.12l.22,.03c.26,0,.54-.13,.83-.39,.29-.27,.43-.61,.43-1.04,.19-.1,.44-.15,.76-.15s.8,.04,1.47,.11c.1,.22,.15,.43,.15,.65,0,2.28-.02,3.47-.06,3.58-.03,.11-.05,.23-.05,.38,0,.05,.02,.09,.05,.12,.04,.04,.06,.08,.06,.13s-.02,.09-.06,.12c-.03,.04-.05,.07-.05,.09l.03,.08c.05,.12,.08,.23,.08,.32,0,.1-.02,.19-.06,.29-.03,.1-.05,.2-.05,.32l.03,.26h-2.26c0-.48-.21-.89-.62-1.23-.21-.17-.42-.25-.61-.25l-.29,.03v7.39l.76,.03,.54-.03c.36,0,.67,0,.94,.03h2.19c0-.07,.01-.14,.02-.21,.01-.08,.02-.59,.02-1.54s0-1.46,.02-1.54c.01-.09,.01-.18,.01-.27l-.03-.47,.03-.04h2.67Z"/><path d="M321.14,206.03c-.05-.34-.07-.81-.07-1.41,0-.53,.01-.9,.05-1.11,.04-.22,.05-.47,.05-.76,0-.12-.02-.27-.07-.43,0-.12,.01-.22,.04-.29,.02-.07,.03-.17,.03-.29-.02-.26-.03-.52-.03-.76s-.03-.49-.07-.75l-.04-.51c0-.86-.46-1.57-1.37-2.12-.24-.14-.5-.24-.79-.29-.15-.04-.31-.12-.5-.21l.89-.36c.7-.27,1.21-.79,1.52-1.59,.16-.43,.26-.87,.27-1.31,.01-.45,.04-.88,.09-1.31,.02-.24,.03-.55,.03-.9-.02-.6-.09-1.31-.2-2.11-.1-.8-.43-1.54-.98-2.2-.56-.66-1.71-1.08-3.46-1.27-.36-.03-1.72-.04-4.07-.04-2.18,0-3.31,0-3.38,.04v3.05h1.47v2.63l-.03,.72c0,.48,.01,.95,.03,1.41,0,.62-.06,1.08-.19,1.38-.14,.3-.57,.82-1.32,1.57,.17,.19,.48,.52,.94,.97,.38,.39,.57,.84,.57,1.37v6.91h-1.47v3.03c.19,.02,.94,.03,2.27,.03,2.44,0,3.76-.02,3.96-.07,0-1.25,.01-2.03,.03-2.34,0-.24-.02-.47-.07-.68h-1.37c0-2.19,.01-3.35,.04-3.5,0-.12-.04-.23-.11-.32v-.15c.07-.09,.11-.21,.11-.35-.03-.17-.04-1.24-.04-3.21l.79,.04,.76-.04c.6,0,1.14,.09,1.62,.25,.14,.07,.26,.17,.36,.29,.31,.43,.47,.85,.47,1.26l-.04,1.66,.04,2.52-.04,2.01c0,.92,.2,1.58,.61,2,.41,.42,.93,.63,1.55,.63h2.23c.17,0,.29,0,.36-.03v-3.06h-1.47Zm-3.24-13.94c0,1.28-.11,2.15-.33,2.63-.21,.48-.68,.75-1.4,.79l-.72,.04-.36-.04h-1.12l-.14-.32c0-.07,.02-.13,.05-.18,.04-.05,.06-.11,.06-.18-.03-.1-.04-2.02-.04-5.76,1.15,0,1.89,0,2.2,.03,1.12,0,1.73,.62,1.8,1.84v1.15Z"/><path d="M193,205.9c-.12-.16-.34-.37-.67-.61-.66-.51-.99-1.11-.99-1.8,0-.12-.03-.24-.09-.36-.39-1.53-1.22-2.56-2.48-3.1-.48-.21-.88-.36-1.21-.45,.12-.06,.3-.12,.54-.18,.93-.39,1.6-.9,2.02-1.53,.33-.42,.62-1.05,.86-1.89,.15-.45,.36-.76,.63-.92,.27-.17,.76-.52,1.48-1.06-.33-.39-.67-.74-1.03-1.06-.36-.31-.66-.68-.9-1.1,0-.72-.17-1.55-.5-2.48-.48-1.29-1.35-2.19-2.61-2.7-.72-.36-1.65-.54-2.79-.54h-8.46c-.03,.18-.04,.66-.04,1.44,0,1.38,.03,2.19,.09,2.43h1.75c0,4.92-.03,7.46-.09,7.61-.21,.39-.54,.78-.99,1.17-.27,.24-.48,.48-.63,.72l-.18,.18c.24,.21,.46,.42,.66,.63,.19,.21,.39,.4,.6,.58,.42,.42,.63,.96,.63,1.62v8.69h-1.84v3.82h8.5c2.13,0,3.66-.51,4.59-1.53,1.11-1.23,1.67-3,1.67-5.31,.24-.39,.55-.7,.92-.94,.38-.24,.7-.54,.97-.9-.15-.12-.29-.26-.41-.43Zm-10.39-16.04c1.83,0,2.85,.03,3.06,.09,.63,.18,1.08,.57,1.35,1.17,.18,.42,.27,.81,.27,1.17v2.83c0,1.02-.32,1.77-.95,2.25-.36,.24-.76,.38-1.21,.41h-2.52v-7.92Zm4.95,17.55c0,2.22-.66,3.48-1.98,3.78-.36,.06-.71,.09-1.04,.09h-1.93v-9.86c.27-.06,.64-.09,1.12-.09,1.02,.06,1.83,.2,2.43,.41,.93,.39,1.4,1.54,1.4,3.46l-.05,1.08,.05,1.13Z"/><path d="M338.1,186.17v3.78h-1.3l-.45,1.21c-1.47,3.93-2.21,6.05-2.21,6.35,0,.48,.17,.9,.5,1.26,.09,.12,.16,.24,.2,.36,.05,.12,.13,.3,.25,.54-.15,.15-.29,.28-.43,.38-.13,.11-.28,.22-.43,.34-.54,.39-.96,.67-1.28,.83-.31,.17-.59,.64-.83,1.42-.06,.21-.13,.43-.2,.65-.08,.23-.12,1.58-.12,4.07s.02,3.72,.05,3.78h1.8v3.87h-7.88c-.06-.27-.09-.52-.09-.76l.05-.18v-2.88c.18-.03,.43-.05,.76-.05l.59,.05,.54-.05c0-3.78-.02-6.24-.05-7.38,0-.75-.25-1.54-.76-2.38-.12-.12-.54-.44-1.26-.95l-1.04-.72,.9-1.66c.06-.24,.09-.47,.09-.68,0-.3-.34-1.48-1.03-3.55-.54-1.59-.86-2.54-.95-2.86-.09-.32-.19-.64-.31-.97h-1.35c-.06-.24-.09-1.05-.09-2.43,0-.75,.01-1.21,.04-1.39h7.11v3.78h-1.57c0,.21,.01,.36,.04,.45,.15,.48,.29,.94,.41,1.39,.12,.45,.25,.9,.4,1.35l.59,1.89,1.12,3.83h.14l2.92-8.87c-.21-.03-.43-.04-.67-.04l-.41,.04-.54-.04v-3.78h6.75Z"/><path d="M499.8,151.67l-9.12,6.63-.18-.09,3.48-10.76-9.18-6.7,.05-.16h.75c3.32,0,6.63-.01,9.95,.01,.53,0,.74-.19,.89-.66,1.03-3.24,2.09-6.47,3.14-9.71,.06-.18,.12-.36,.23-.68,.58,1.76,1.11,3.4,1.64,5.03,.58,1.79,1.17,3.57,1.72,5.37,.15,.49,.38,.65,.9,.65,3.29-.03,6.58-.01,9.88-.01h.78l.08,.16-9.19,6.7,3.49,10.78-.15,.1-9.15-6.65Z"/><path d="M15,151.67l-9.12,6.63-.18-.09,3.48-10.76-9.18-6.7,.05-.16H.8c3.32,0,6.63-.01,9.95,.01,.53,0,.74-.19,.89-.66,1.03-3.24,2.09-6.47,3.14-9.71,.06-.18,.12-.36,.23-.68,.58,1.76,1.11,3.4,1.64,5.03,.58,1.79,1.17,3.57,1.72,5.37,.15,.49,.38,.65,.9,.65,3.29-.03,6.58-.01,9.88-.01h.78l.08,.16-9.19,6.7,3.49,10.78-.15,.1-9.15-6.65Z"/><path d="M228.61,16.63c-1.74,0-2.79,0-3.12-.03,0-.02,0-.03-.03-.03v-2.13c.1-.02,.25-.03,.46-.03l.33,.03c.12,0,.23,0,.33-.03v-4.9c0-.36-.12-.64-.37-.85-.25-.21-.41-.36-.5-.44-.03-.03-.07-.07-.11-.1-.04-.03-.07-.09-.09-.18l.05-.08c.13-.13,.26-.28,.38-.43,.12-.15,.25-.3,.41-.44,.15-.14,.23-.33,.23-.57V2.49h-1.09c-.03-.15-.05-.3-.05-.43l.03-.41-.03-.61,.03-.18V.36c.1-.05,1.69-.08,4.77-.08,1.25,0,2.13,0,2.63,.01s.87,.01,1.1,.01c.02,.17,.03,1.7,.03,4.59-.03,.02-.06,.03-.09,.05-.03,.02-.06,.03-.09,.03-.08-.02-.19-.03-.3-.03-.24,.03-.56,.05-.96,.05-.19,0-.36-.03-.51-.08v-1.14l-.03-.1,.03-.25c0-.2-.08-.4-.23-.58s-.31-.3-.48-.33c-.1-.03-.91-.05-2.44-.05V6.78l.15,.03c.19,0,.38-.09,.58-.28,.2-.19,.3-.43,.3-.74,.14-.07,.31-.1,.53-.1s.57,.03,1.04,.08c.07,.15,.1,.3,.1,.46,0,1.61-.01,2.45-.04,2.53s-.04,.17-.04,.27c0,.03,.01,.06,.04,.09s.04,.05,.04,.09-.01,.06-.04,.09-.04,.05-.04,.06l.03,.05c.03,.08,.05,.16,.05,.23s-.01,.14-.04,.2-.04,.14-.04,.23l.03,.18h-1.6c0-.34-.14-.63-.43-.86-.15-.12-.3-.18-.43-.18l-.2,.03v5.2l.53,.03,.38-.03c.25,0,.47,0,.66,.03h1.55c0-.05,0-.1,.01-.15s.01-.41,.01-1.08,0-1.03,.01-1.09c0-.06,.01-.12,.01-.19l-.03-.33,.03-.03h1.88c.03,.14,.05,1.09,.05,2.87,0,1.07,0,1.77-.03,2.11-.15,.05-1.94,.08-5.36,.08Zm-2.34-14.7c.05-.03,.1-.06,.15-.09s.09-.05,.13-.09v-.25c-.05-.05-.13-.11-.23-.18-.05,.05-.13,.11-.23,.18v.25l.18,.18Zm.41,5.86l.2-.03-.25-.18c.02,.12,.03,.19,.05,.2Zm.33-.61c.08-.02,.23-.03,.43-.03,.03-.03,.08-.06,.13-.08,.05-.02,.09-.04,.13-.08l.13,.08c0-.1,.04-.17,.11-.2,.08-.03,.11-.08,.11-.15l-.03-.1c-.19-.03-.34-.1-.47-.19-.13-.09-.26-.14-.39-.14l-.15,.03v.86Zm4.09,2.62v-.91c-.14-.07-.29-.1-.46-.1,0,.05-.02,.13-.05,.23-.05-.05-.11-.09-.18-.13l.15-.15c-.07-.05-.11-.11-.13-.19s-.07-.13-.15-.17l.05-.08c-.05-.02-.1-.03-.15-.04s-.09-.05-.13-.14l.08-.2c-.02-.08-.03-.16-.04-.23,0-.07-.02-.12-.04-.17-.02-.04-.03-.06-.05-.06,0,.15-.03,.24-.08,.27s-.09,.05-.13,.06c-.3-.19-.55-.3-.72-.36-.18-.05-.39-.08-.62-.08-.08-.1-.13-.23-.13-.38l.03-.25-.03-.2-.18,.76c-.14,0-.22,.05-.25,.14-.03,.09-.09,.17-.18,.22l-.3-.08c0,.08,.02,.18,.05,.28-.03,.03-.06,.06-.06,.09,0,.03-.02,.06-.04,.09l.13,.15-.46,.15,.46,.33-.13,.33c.13,.03,.24,.05,.3,.06,.07,0,.12,.05,.15,.14,.13,0,.2,.04,.2,.11s0,.16,.03,.24l.33-.1v-.43c.07-.05,.13-.11,.18-.17s.09-.11,.13-.14h.18c.76,0,1.27,.36,1.52,1.09h.71Zm-4.04-.51l.15-.15h-.1s-.03,.07-.05,.15Zm.03-8.23s0-.03,.03-.03c0-.02,0-.03-.03-.03v.05Zm.33,.48l.05-.3s-.03-.08-.1-.15l-.1,.1,.15,.36Zm.05,9.11l.28-.15v-.25s-.04-.06-.06-.08-.06-.04-.09-.08h-.25l-.08,.38,.2,.18Zm-.15-8.23v-.03l-.03,.03h.03Zm.1,3l.51-.2c0-.07-.02-.19-.05-.36-.07-.07-.14-.1-.2-.1l-.25,.1v.56Zm.61,6.55c.05-.1,.12-.19,.2-.28l.15,.05v-.43l-.23,.2-.25-.18c-.19,.07-.28,.18-.28,.33,0,.05,.01,.1,.04,.15s.05,.1,.06,.15h.3Zm-.3-10.92l.03-.03s0-.03-.03-.03l-.03,.03,.03,.03Zm.2,2.67c.2-.05,.31-.14,.33-.25-.03-.03-.07-.08-.1-.15h-.28c-.03,.07-.07,.12-.1,.15,.03,.03,.06,.08,.08,.13,.02,.05,.04,.09,.08,.13Zm-.05-.91s0-.03,.03-.03l-.03-.03v.05Zm.2,2.31l.03-.03-.03-.03s-.03,0-.03,.03c.02,0,.03,0,.03,.03Zm.13-3.43s.03-.06,.03-.18h-.05l.03,.18Zm.18,10.79v-.3c-.07,.03-.12,.08-.15,.15l.15,.15Zm-.05-7.31s.05-.02,.05-.05c0-.02-.02-.04-.05-.08-.03,.03-.06,.05-.08,.05l.08,.08Zm-.03,4.62l.1-.05s-.06-.05-.08-.05c-.02,0-.04,.02-.08,.05l.05,.05Zm.63-8.96v-.03h-.13v.03h.13Zm-.03,.79l.03-.05-.05,.03,.03,.03Zm.89,6.5l-.08-.08s.03,0,.04-.03c0-.02,.02-.03,.04-.03l.08,.05c-.03,.05-.06,.08-.08,.08Zm1.07-1.19c.12-.12,.18-.22,.18-.3l-.3-.23c-.05,.03-.13,.07-.23,.1l-.1,.28c0,.05,.04,.1,.13,.15h.33Zm.03,1.6l-.03-.03-.03,.03h.05Zm1.93-4.11s.02-.04,.05-.08c-.03-.03-.06-.05-.08-.05l-.08,.08,.1,.05Z"/><path d="M239.35,16.88c-.91,0-1.62-.36-2.13-1.09-.05-.1-.15-.24-.3-.41v1.22h-1.5c-.08-.03-.13-.12-.13-.25v-4.85c.1-.05,.68-.08,1.73-.08l.1,.33c0,.47,.09,.95,.28,1.42,.13,.46,.41,.86,.81,1.19,.24,.15,.5,.23,.79,.23,.51,0,.87-.23,1.09-.69,.17-.3,.25-.62,.25-.94,0-.58-.15-1.09-.46-1.55-.17-.25-.55-.7-1.14-1.35-.3-.34-.6-.65-.89-.94-.12-.14-.52-.36-1.19-.66-.47-.2-.72-.33-.74-.38l.03-.2c.03-.29,.05-.58,.05-.89,0-.2-.05-.41-.14-.61-.09-.2-.17-.4-.22-.58-.19-.68-.29-1.23-.3-1.65,0-.78,.09-1.44,.28-1.98,.22-.68,.61-1.24,1.17-1.7,.42-.32,.91-.48,1.47-.48s1.08,.22,1.62,.66l.58,.58V.33h1.68V4.77h-1.68l-.08-.28c-.05-.54-.22-1.03-.51-1.47-.29-.51-.7-.76-1.24-.76-.27,0-.56,.19-.86,.58-.2,.25-.3,.6-.3,1.04,0,.64,.37,1.36,1.12,2.16,.37,.42,.61,.67,.71,.75s.58,.33,1.45,.77c.37,.2,.56,.32,.57,.34s.03,.05,.06,.06c-.1,.32-.15,.58-.15,.76s.05,.35,.15,.48l.51,.81c.27,.46,.45,.95,.55,1.47s.14,.92,.14,1.19c0,.53-.08,1.08-.23,1.68-.22,.8-.63,1.43-1.22,1.9-.51,.41-1.1,.61-1.78,.61Zm1.68-2.54l-.05-.05-.05,.05h.1Zm.43-3.12c.05,0,.09-.02,.13-.05,0-.12-.05-.19-.15-.23l-.2,.1c.08,.12,.16,.18,.23,.18Zm-.18-.86l.03-.03h-.05s0,.03,.03,.03Zm.2,2.31v-.1h-.03v.1h.03Zm.08-8.45v-.05h-.03v.03s0,.03,.03,.03Zm.28,8.56c.07,0,.12-.03,.15-.1l-.15-.2c-.05,.1-.11,.15-.18,.15l-.03-.05,.03,.05-.05-.02,.05,.02v.1c.07,.03,.13,.05,.18,.05Z"/><path d="M249.63,16.58h-4.92v-2.13h1.32v-4.85c0-.44-.23-.85-.69-1.22-.19-.15-.32-.29-.41-.41,.03-.03,.06-.07,.08-.1,.02-.03,.25-.3,.71-.81,.19-.19,.28-.44,.28-.76,.02-.64,.03-1.94,.03-3.88l-.25,.03-.13-.03c-.1,0-.2,.02-.3,.05-.53,.19-.79,.55-.79,1.09v1.55c-.22,.03-.46,.05-.71,.05-.41,0-.7-.03-.89-.08V.33h8.43V5.1h-1.57c-.07-.02-.1-.43-.1-1.24l.03-.56c0-.42-.22-.71-.66-.86-.05-.02-.3-.03-.74-.03,0,1.95,0,3.22-.03,3.81,0,.39,.15,.74,.46,1.04l.63,.69c-.12,.1-.23,.21-.33,.32s-.21,.22-.33,.32c-.29,.27-.43,.61-.43,1.02,.02,.76,.03,2.37,.03,4.82h1.29v2.16Zm-2.03-3.22v-.03h-.03s0,.03,.03,.03Zm2.21-12.01l.1-.03c-.1-.07-.18-.13-.23-.18,.03,.14,.08,.2,.13,.2Zm.3,.43c-.07-.07-.13-.15-.18-.25,.02,.17,.08,.25,.18,.25Z"/><path d="M252.32,16.73h-.58c-.08-.05-.16-.11-.23-.17-.07-.06-.14-.12-.23-.19-.29-.29-.43-.64-.43-1.07s.17-.78,.51-1.12c.2-.22,.43-.33,.69-.33,.32,0,.6,.14,.84,.41,.24,.27,.36,.58,.36,.91l-.03,.23,.03,.1c0,.58-.3,.98-.91,1.22Zm-.08-1.27v-.08l-.05-.03v.1h.05Z"/><path d="M265.98,16.58h-6.19c-.03-.13-.05-.27-.05-.41l.03-.1v-1.57c1.25-2.44,2.17-4.28,2.77-5.53l-.63-.96c.29-.29,.72-.62,1.29-.99,.2-.15,.38-.56,.53-1.22l.1-.43c0-.39,.03-.63,.08-.71v-.13c-.03-.19-.06-.38-.08-.58-.07-.88-.36-1.32-.89-1.32h-.36c-.41,.14-.67,.48-.79,1.04-.08,.42-.13,1.11-.13,2.06l-.04,.04s-.6,.01-1.76,.01v-.13c-.03-.12-.05-.49-.05-1.12,0-.17,0-.33,.03-.48,.08-.9,.27-1.62,.56-2.16,.51-1.05,1.37-1.57,2.59-1.57,.29,0,.64,.08,1.07,.23,.73,.27,1.25,.84,1.57,1.7,.19,.51,.28,.87,.28,1.09l.03,.81c0,.64-.08,1.33-.25,2.06-.03,.08-.06,.18-.09,.28s-.05,.21-.09,.33l.63,1.17c-.22,.14-.44,.28-.65,.43s-.43,.3-.65,.43c-.14,.08-.26,.21-.38,.38l-2.21,4.57c-.2,.41-.3,.64-.3,.71h1.78c.39,0,.58-.2,.58-.61v-1.62h1.68v4.32Zm-5.61-12.64l.03-.03-.03-.03-.03,.03s0,.03,.03,.03Zm.23,.38v-.25l-.13,.08c.03,.07,.08,.13,.13,.18Zm3.76,.2s.03-.03,.03-.1l-.05,.08s0,.03,.03,.03Z"/><path d="M270.58,16.93s-.06,0-.08-.03c-.19-.03-.37-.05-.56-.06-.19,0-.37-.05-.56-.14-1.07-.49-1.68-1.56-1.85-3.2l-.08-.46c-.05-.44-.08-.88-.08-1.32l.03-.51v-1.8c0-.24-.11-.47-.32-.7-.21-.23-.45-.5-.72-.8l.63-.69c.27-.25,.41-.56,.41-.91,0-1.42,.06-2.42,.18-3,.08-.36,.17-.67,.25-.94,.24-.73,.58-1.24,1.02-1.55,.44-.3,.85-.46,1.22-.46,.08-.02,.16-.03,.22-.05,.06-.02,.12-.03,.19-.03,.73,0,1.37,.23,1.93,.69,.12,.1,.22,.22,.29,.36s.16,.27,.24,.41c.41,.68,.63,1.44,.66,2.28,0,.24,.02,.47,.05,.71,.03,.44,.05,.89,.05,1.35l-.03,.28c0,.08,.01,.17,.04,.24s.05,.16,.08,.25c.03,.09,.19,.28,.5,.57,.22,.24,.36,.41,.41,.51-.05,.1-.19,.25-.43,.46-.12,.1-.22,.19-.3,.28s-.17,.23-.25,.43l.03,.3c0,.1-.02,.2-.05,.3,0,.1,0,.18,.03,.23s.03,.09,.03,.13c0,.07-.03,.13-.08,.18,.03,.05,.05,.1,.05,.15,0,.03,0,.07-.03,.1s-.03,.09-.03,.18l.03,.3-.03,.51,.03,.58c0,.13-.01,.27-.04,.42-.03,.14-.04,.27-.04,.39s0,.23,.03,.33l-.2,1.14c-.29,1.35-1.02,2.18-2.21,2.49-.05,.02-.12,.03-.21,.04-.09,0-.22,.01-.39,.01l-.03,.03Zm-2.67-11.2c.07-.15,.1-.25,.1-.28s-.03-.09-.1-.18v.46Zm.2,1.35l.25-.1v-.38s-.07-.05-.11-.06c-.04,0-.08-.03-.11-.06-.14,.05-.21,.12-.23,.2v.3c.07,.07,.13,.1,.2,.1Zm.15-2.46c.25-.02,.52-.09,.81-.23,0-.71,.05-1.21,.15-1.5,.03-.02,.05-.04,.05-.08,0-.02-.02-.04-.05-.08v.15l-.2,.08-.08-.1,.1-.13-.15-.3s-.07,.03-.1,.03-.08,0-.13,.03l-.1-.51c-.12,.24-.22,.47-.3,.7-.08,.23-.19,.62-.3,1.18,0,.2,.03,.36,.1,.48l.1-.05,.15,.15c0,.05-.02,.11-.05,.18Zm.58,.81c.07-.05,.1-.1,.1-.15,0-.03-.01-.07-.04-.11-.03-.04-.04-.11-.04-.19l-.05-.03c-.05,.03-.08,.06-.08,.08,.02,.14,.05,.27,.1,.41Zm-.05,.86l-.05-.03s.02,.03,.05,.03Zm-.05,1.7s.05,0,.06-.01l.04-.04-.1-.03v.08Zm.15-2.39l.05-.03s-.03-.05-.03-.1h-.05s.03,.08,.03,.13Zm.13,1.12l.05-.05-.05-.05v.1Zm1.45,8.05c.42,0,.71-.2,.86-.61,.12-.24,.18-.51,.18-.81,.02-1.49,.03-3.71,.03-6.68V3.96c-.03-.37-.1-.68-.2-.91-.2-.39-.47-.58-.81-.58l-.1,.03s-.03,0-.03-.03h-.13c-.17,.08-.3,.19-.38,.3-.08,.12-.15,.24-.2,.37s-.08,.24-.09,.34c0,.1-.03,.21-.05,.32-.03,.11-.04,.22-.04,.34l.03,.3s.03,.09,.03,.18c-.03,.14-.05,.24-.05,.3l.05,.91-.03,.41c0,.12,0,.22,.03,.3,.02,.08,.03,.18,.03,.28,0,.08,0,.17-.03,.27-.02,.09-.03,.19-.03,.29l.03,.28c0,.05,0,.1-.03,.14-.02,.04-.03,.08-.03,.11,.05,.15,.08,.48,.08,.99l-.03,.79,.05,1.12c0,.22-.03,.43-.1,.63v.08c.05,.05,.08,.11,.08,.18-.03,.15-.05,.56-.05,1.22,0,.22,.01,.44,.04,.67s.08,.46,.18,.69c.09,.23,.28,.39,.57,.5h.15Zm-.79-13.15v-.25h-.03v.25h.03Zm1.04-.08l.03-.03-.03-.03-.03,.03,.03,.03Zm1.62,5.33l.18-.36s-.06-.07-.09-.1c-.03-.03-.05-.06-.09-.08h-.33v.51c.07,.02,.18,.03,.33,.03Zm.84,3.53v-.41c-.07-.07-.1-.12-.1-.15s-.02-.08-.06-.13-.07-.09-.09-.13v-.18l.08-.03c.07,0,.13,.05,.18,.15v-.28l-.3-.18c-.07-.1-.11-.18-.13-.23l-.13,.05c-.07-.15-.18-.23-.33-.23l-.18,.03v.1l-.1,.08v1.37l.1-.15s.07,.03,.1,.03,.07,.02,.1,.05c.15-.15,.25-.23,.3-.23l.05,.2h.2c-.12-.05-.18-.1-.18-.15,0-.02,.02-.04,.05-.08s.06-.05,.08-.05c.07,0,.12,.04,.15,.11s.07,.14,.1,.2,.07,.13,.1,.22Zm-1.12,5.33v-.03h-.05l.05,.03Zm.13-13.07l.03-.03s-.03,0-.03-.03l-.03,.03s0,.03,.03,.03Zm0,.79s0-.03,.03-.03l-.03-.03s-.03,0-.03,.03l.03,.03Zm.15,3.63v-.1s-.07-.03-.15-.03c.07,.07,.12,.11,.15,.13Zm0,1.37v-.03l-.05,.03h.05Zm.13-4.8s0-.03,.03-.03l-.03-.03-.03,.03,.03,.03Zm.28,2.44s0-.03-.03-.03c0,.02,0,.03,.03,.03Zm.1,3.58s-.04-.04-.08-.13l.15,.08v-.03l-.08,.08Zm.2-3.71l.15-.1c-.02-.07-.03-.17-.03-.3l-.18-.03c-.12,0-.18,.08-.18,.23,0,.05,.08,.12,.23,.2Zm.1,3.07s.07-.09,.1-.18l-.03-.1c-.05,.02-.13,.03-.23,.03,0,.15,.05,.24,.15,.25Zm.56-.84l-.2-.15-.03,.15h.23Z"/><path d="M280.96,16.58h-6.19c-.03-.13-.05-.27-.05-.41l.03-.1v-1.57c1.25-2.44,2.17-4.28,2.77-5.53l-.63-.96c.29-.29,.72-.62,1.29-.99,.2-.15,.38-.56,.53-1.22l.1-.43c0-.39,.03-.63,.08-.71v-.13c-.03-.19-.06-.38-.08-.58-.07-.88-.36-1.32-.89-1.32h-.36c-.41,.14-.67,.48-.79,1.04-.08,.42-.13,1.11-.13,2.06l-.04,.04s-.6,.01-1.76,.01v-.13c-.03-.12-.05-.49-.05-1.12,0-.17,0-.33,.03-.48,.08-.9,.27-1.62,.56-2.16,.51-1.05,1.37-1.57,2.59-1.57,.29,0,.64,.08,1.07,.23,.73,.27,1.25,.84,1.57,1.7,.19,.51,.28,.87,.28,1.09l.03,.81c0,.64-.08,1.33-.25,2.06-.03,.08-.06,.18-.09,.28s-.05,.21-.09,.33l.63,1.17c-.22,.14-.44,.28-.65,.43s-.43,.3-.65,.43c-.14,.08-.26,.21-.38,.38l-2.21,4.57c-.2,.41-.3,.64-.3,.71h1.78c.39,0,.58-.2,.58-.61v-1.62h1.68v4.32Zm-5.61-12.64l.03-.03-.03-.03-.03,.03s0,.03,.03,.03Zm.23,.38v-.25l-.13,.08c.03,.07,.08,.13,.13,.18Zm3.76,.2s.03-.03,.03-.1l-.05,.08s0,.03,.03,.03Z"/><path d="M288.45,16.58h-6.19c-.03-.13-.05-.27-.05-.41l.03-.1v-1.57c1.25-2.44,2.17-4.28,2.77-5.53l-.63-.96c.29-.29,.72-.62,1.29-.99,.2-.15,.38-.56,.53-1.22l.1-.43c0-.39,.03-.63,.08-.71v-.13c-.03-.19-.06-.38-.08-.58-.07-.88-.36-1.32-.89-1.32h-.36c-.41,.14-.67,.48-.79,1.04-.08,.42-.13,1.11-.13,2.06l-.04,.04s-.6,.01-1.76,.01v-.13c-.03-.12-.05-.49-.05-1.12,0-.17,0-.33,.03-.48,.08-.9,.27-1.62,.56-2.16,.51-1.05,1.37-1.57,2.59-1.57,.29,0,.64,.08,1.07,.23,.73,.27,1.25,.84,1.57,1.7,.19,.51,.28,.87,.28,1.09l.03,.81c0,.64-.08,1.33-.25,2.06-.03,.08-.06,.18-.09,.28s-.05,.21-.09,.33l.63,1.17c-.22,.14-.44,.28-.65,.43s-.43,.3-.65,.43c-.14,.08-.26,.21-.38,.38l-2.21,4.57c-.2,.41-.3,.64-.3,.71h1.78c.39,0,.58-.2,.58-.61v-1.62h1.68v4.32Zm-5.61-12.64l.03-.03-.03-.03-.03,.03s0,.03,.03,.03Zm.23,.38v-.25l-.13,.08c.03,.07,.08,.13,.13,.18Zm3.76,.2s.03-.03,.03-.1l-.05,.08s0,.03,.03,.03Z"/></g></g></svg>