<?xml version="1.0" encoding="UTF-8"?><svg id="Layer_2" xmlns="http://www.w3.org/2000/svg" viewBox="0 0 514.8 260.16"><defs><style>.cls-1{fill:#fff;}.cls-2{fill:#b87333;}</style></defs><g id="Layer_1-2"><g><g><path class="cls-2" d="M205.3,207.63l-.94-.04h-1.91c-.05-.19-.07-.82-.07-1.87,0-.62,.01-1.03,.04-1.22h1.55l.04-.25c0-.07-.01-.12-.04-.14l-.68-3.35h-4.32c-.12,.1-.18,.2-.18,.32l.04,.04c0,.17-.02,.3-.07,.4l-.18,.86c-.14,.91-.25,1.48-.32,1.69-.02,.02-.04,.06-.04,.11l.04,.11c0,.07-.01,.13-.04,.18,.19,.05,.38,.07,.58,.07l.29-.04c.24,0,.44,.01,.61,.04l.11,.07-.04,.4c.05,.21,.07,.42,.07,.61l-.07,.43c0,.07,.01,.16,.04,.25,.02,.1,.04,.22,.04,.36l-.04,.58-.07,.36h-5.58v-3.1h1.15c.1-.38,.19-.76,.29-1.12,.1-.36,.17-.73,.22-1.12,.05-.38,.13-.75,.23-1.1,.11-.35,.19-.7,.23-1.06,.02-.26,.07-.5,.14-.72,.17-.65,.34-1.42,.5-2.3-.05-.12-.08-.24-.09-.36-.01-.12-.37-.58-1.06-1.37,.14-.14,.34-.31,.58-.5,.1-.1,.19-.19,.27-.29,.08-.1,.19-.18,.31-.25,.5-.34,.82-.84,.94-1.51l.32-1.55c.07-.41,.25-1.24,.54-2.48,.12-.58,.18-.9,.18-.97s.01-.16,.04-.25h-1.58v-3.06h5.65l.29-.04,.58,.04,.76-.04,.65,.04v3.06h-1.58l.07,.32c.02,.31,.1,.68,.22,1.12,.07,.26,.13,.53,.18,.79s.1,.54,.16,.83c.06,.29,.11,.56,.16,.83s.1,.54,.16,.83c.06,.29,.11,.56,.16,.83,.12,.43,.44,.88,.95,1.33,.52,.46,.87,.77,1.06,.94-.14,.14-.28,.29-.4,.45-.12,.16-.24,.29-.36,.41-.12,.12-.25,.4-.4,.83,0,.12,.01,.23,.04,.32,.02,.1,.05,.21,.07,.32l.4,1.76c.17,.84,.3,1.46,.4,1.85s.2,.92,.32,1.57l.36,1.62h1.04c.05,.21,.07,.44,.07,.68l-.04,.86c.02,.17,.04,.37,.04,.61l-.04,.86c-.1,.02-.34,.04-.72,.04l-2.3,.07Zm-9.25-3.13c.24,0,.38-.02,.41-.05s.05-.17,.05-.41h-.32l-.14,.47Zm.11,1.08c.31,0,.47-.07,.47-.22,0-.05-.02-.1-.05-.14-.04-.05-.07-.1-.09-.14l-.36,.18c.02,.07,.04,.18,.04,.32Zm.65-3.06s.06-.02,.11-.07h-.18l.07,.07Zm1.08-.07c.05-.34,.11-.67,.18-.99,.07-.32,.13-.65,.18-.99,.14-.12,.28-.25,.4-.4l.47-.04-.04-.18-.4,.07-.11-1.44c-.05,.22-.08,.43-.09,.63-.01,.2-.04,.4-.09,.59-.12,.07-.24,.14-.36,.2s-.2,.17-.25,.34c-.24,0-.42,.01-.54,.04l.11,.4-.18,.11,.25,.29s-.11-.04-.18-.04c-.05,0-.1,.02-.16,.05-.06,.04-.14,.07-.23,.09v.18l.54,.32c-.07,.14-.12,.32-.14,.54,.14,0,.33,.02,.58,.07l.07,.14Zm-.61-2.81s.1-.02,.14-.07c.05-.05,.13-.08,.25-.11l.18,.04c.12-.12,.25-.28,.4-.47-.17-.19-.47-.37-.9-.54-.05,.19-.1,.37-.14,.52-.05,.16-.07,.35-.07,.59l.14,.04Zm.22,4.9c.05-.29,.07-.52,.07-.68l-.22-.04c-.07,0-.14,.06-.22,.18v.43l.36,.11Zm.07-7.45c.07-.07,.17-.11,.29-.11,.07,0,.16,.02,.25,.07l-.11-.65c-.1-.1-.18-.14-.25-.14l-.25,.04,.07,.79Zm.36,9.43c.07-.05,.14-.09,.22-.13,.07-.04,.13-.08,.18-.12v-.43l-.29-.25c-.07,.05-.14,.09-.22,.13-.07,.04-.13,.08-.18,.13v.5s.1,.08,.14,.09c.05,.01,.09,.04,.14,.09Zm.18-11.81c.22,0,.32-.08,.32-.25l-.04-.22-.25-.11-.32,.32c.07,.17,.17,.25,.29,.25Zm.47,10.87s.04-.01,.04-.04h-.07l.04,.04Zm.4-10.58s.04-.04,.05-.04,.08-.06,.2-.18l-.4-.25c0-.12-.01-.22-.04-.29h-.04v.61c.1,.1,.17,.14,.22,.14Zm3.85,3.06c-.29-1.51-.56-3.01-.81-4.48s-.53-2.98-.85-4.52l-.36,2.12c-.1,.31-.17,.62-.22,.94-.05,.31-.11,.64-.18,.97-.1,.46-.17,.88-.22,1.26l-.11,.58c-.17,.55-.26,1.06-.29,1.51-.05,.29-.12,.58-.22,.86-.05,.12-.07,.37-.07,.76h3.31Zm-3.06,1.98l.04-.04-.04-.04-.04,.04,.04,.04Zm2.88-13.68l.04-.04-.04-.04-.04,.04s.04,.01,.04,.04Zm.61-.4v-.36h-.04v.36h.04Zm.22,4.18l-.07-.07-.07,.04,.14,.04Zm.18,9.97v-.04s-.04,.01-.04,.04h.04Zm.43-14.33c.12-.12,.18-.2,.18-.25s-.07-.14-.22-.29l-.25,.29c.05,.07,.14,.16,.29,.25Zm-.25,20.63s.07-.04,.14-.04v-.04h-.14v.07Zm.61-10.73l.04-.14c0-.12-.07-.2-.22-.25-.12,.07-.18,.16-.18,.25l.04,.14h.32Zm.04,1.48c.26,0,.4-.11,.4-.32,0-.17-.08-.25-.25-.25s-.29,.12-.36,.36c0,.14,.07,.22,.22,.22Zm.32,1.15l.25-.61-.22-.22-.11,.18-.11-.07-.25,.29c0,.17,.02,.27,.07,.31,.05,.04,.17,.08,.36,.12Zm-.36-12.56v-.04h-.04s.01,.04,.04,.04Zm.11,8.6l-.04-.04s-.01,.04-.04,.04h.07Zm.5,12.53v-.29c-.12,.02-.26,.04-.43,.04-.05,.05-.07,.09-.07,.13,0,.04-.01,.08-.04,.12h.54Zm-.25-3.74l.22-.04c-.14-.07-.26-.14-.36-.22,.05,.17,.09,.25,.14,.25Zm-.07-7.34l.4-.04-.22-.29-.18,.32Zm.29,4.82s.04-.01,.04-.04h-.07l.04,.04Zm.72,1.66c.1,0,.19-.05,.29-.14l-.22-.97c-.07-.07-.28-.11-.61-.11-.1,.14-.14,.28-.14,.4,0,.07,.01,.13,.04,.18l.11,.61,.22-.04c.07,0,.14,.01,.2,.04,.06,.02,.1,.04,.13,.04Zm-.61-7.09s.01-.04,.04-.04l-.04-.04-.04,.04s.01,.04,.04,.04Zm.18,10.01l.14-.11-.04-.07-.14,.11,.04,.07Zm1.37,.4l.32-.04c.31,0,.55-.11,.72-.32h-.68l-.43-.43-.4-1.8-.32-.18s-.08,.07-.11,.07l.11,.29-.22,.25,.22,.25c-.34,.05-.53,.13-.58,.25l.58,.43-.18,.43c.1,0,.17,.02,.22,.05,.05,.04,.1,.05,.14,.05s.11-.02,.18-.07l.11,.29h.29c.02,.12,.04,.28,.04,.47Zm-.36,1.3l.07-.14s-.03-.1-.09-.14c-.06-.05-.13-.11-.2-.18h-.29c-.17,.12-.25,.23-.25,.32l.04,.14h.72Zm-.68-11.59s.01-.04,.04-.04l-.04-.04v.07Zm1.4,10.8v-.25h-.04v.25h.04Zm.47,.61c.12-.07,.18-.16,.18-.25,0-.02-.02-.07-.07-.14-.05-.07-.07-.19-.07-.36l-.29,.18c.07,.07,.11,.17,.11,.31s.05,.22,.14,.27Z"/><path class="cls-2" d="M222.11,207.59h-2.23c-.62,0-1.14-.21-1.55-.63-.41-.42-.61-1.08-.61-2l.04-2.02-.04-2.52,.04-1.66c0-.41-.16-.83-.47-1.26-.1-.12-.22-.22-.36-.29-.48-.17-1.02-.25-1.62-.25l-.76,.04-.79-.04c0,1.97,.01,3.04,.04,3.2,0,.14-.04,.26-.11,.36v.14c.07,.1,.11,.2,.11,.32-.02,.14-.04,1.31-.04,3.49h1.37c.05,.21,.07,.44,.07,.68-.02,.31-.04,1.09-.04,2.34-.19,.05-1.51,.07-3.96,.07-1.32,0-2.08-.01-2.27-.04v-3.02h1.48v-6.91c0-.53-.19-.98-.58-1.37-.46-.46-.77-.78-.94-.97,.74-.74,1.18-1.27,1.31-1.57,.13-.3,.2-.76,.2-1.38-.02-.46-.04-.92-.04-1.4l.04-.72v-2.63h-1.48v-3.06c.07-.02,1.2-.04,3.38-.04,2.35,0,3.71,.01,4.07,.04,1.75,.19,2.9,.62,3.46,1.28,.55,.66,.88,1.39,.99,2.2,.11,.8,.17,1.51,.2,2.11,0,.36-.01,.66-.04,.9-.05,.43-.08,.87-.09,1.31-.01,.44-.1,.88-.27,1.31-.31,.79-.82,1.32-1.51,1.58l-.9,.36c.19,.1,.36,.17,.5,.22,.29,.05,.55,.14,.79,.29,.91,.55,1.37,1.26,1.37,2.12l.04,.5c.05,.26,.07,.52,.07,.76s.01,.49,.04,.76c0,.12-.01,.22-.04,.29-.02,.07-.04,.17-.04,.29,.05,.17,.07,.31,.07,.43,0,.29-.02,.54-.05,.76-.04,.22-.05,.59-.05,1.12,0,.6,.02,1.07,.07,1.4h1.48v3.06c-.07,.02-.19,.04-.36,.04Zm-6.8-13.57l.72-.04c.72-.05,1.19-.31,1.4-.79s.32-1.36,.32-2.63v-1.15c-.07-1.22-.67-1.84-1.8-1.84-.31-.02-1.04-.04-2.2-.04,0,3.74,.01,5.66,.04,5.76,0,.07-.02,.13-.05,.18s-.05,.11-.05,.18l.14,.32h1.12l.36,.04Zm-.58,1.33v-.04h-.04s.01,.04,.04,.04Zm1.51-.58l-.04-.07s-.08,.01-.11,.04v.04h.14Zm2.23,4.14l.04-.22c0-.07-.02-.12-.07-.14,0-.24-.02-.4-.07-.47v.25l-.04,.07c0,.07,.04,.12,.11,.14l.04,.36Zm.11,5.72c.24-.1,.48-.16,.72-.18,.24-.02,.43-.17,.58-.43,.05,0,.12,.02,.22,.07,.05-.05,.12-.1,.22-.14v-1.87l-.36-.11-.22,.25c-.1,0-.17-.01-.22-.04l.11-.32-.18-.36-.29,.11c-.1-.02-.14-.07-.14-.14,0-.02,.01-.05,.04-.07s.04-.06,.04-.11-.01-.09-.04-.12c-.02-.04-.04-.1-.04-.2l.04-.18s-.01-.08-.04-.11l.04-.32c0-.07-.02-.16-.07-.25l-.25,1.33-.29,.04,.04,.79-.04,.94c0,.55,.05,1.03,.14,1.44Zm-.14-3.74l.22-.25-.22-.29v.54Zm.47,4.18v-.14h-.04v.14h.04Zm.58,.65l.04-.14c0-.07-.02-.14-.07-.22-.05-.07-.07-.16-.07-.25-.1,0-.18,.01-.25,.04,.1,.05,.14,.13,.14,.25l-.04,.11c0,.1,.08,.17,.25,.21Zm.43-6.26l.4-.22v-.43c-.07-.1-.25-.14-.54-.14-.17,.1-.25,.23-.25,.4l.04,.18,.36,.22Zm-.04-11.63s.04-.11,.04-.18l-.07,.07,.04,.11Zm.29,13.79s.04-.01,.04-.04c-.02,0-.04-.01-.04-.04v.07Zm1.4,4.18s.01-.04,.04-.04v-.04h-.18v.07h.14Z"/><path class="cls-2" d="M237.85,208.03c-.5,0-.96-.04-1.37-.11-1.06-.19-1.99-.79-2.81-1.78-.82-1-1.28-2.08-1.4-3.26l-.07-.61c-.05-.34-.55-.83-1.51-1.48l-.07-.07c1.1-.7,1.8-1.34,2.09-1.94,.29-.79,.89-1.69,1.8-2.7l.65-.76c-.53-1.18-.92-2.16-1.19-2.95-.1-.31-.3-.56-.61-.76l-1.4-.86,.4-.36c.36-.29,.66-.63,.9-1.04,.05-.48,.12-.96,.22-1.44,.14-.82,.58-1.66,1.3-2.52,.72-.86,1.69-1.29,2.92-1.29,.43,0,.85,.06,1.26,.18,1.85,.5,2.77,2.16,2.77,4.97,.12,.34,.31,.61,.56,.83s.49,.44,.7,.68c-.26,.19-.54,.37-.81,.54-.28,.17-.53,.33-.77,.49-.24,.16-.43,.37-.58,.63-.5,1.06-1.19,2.04-2.05,2.95,.98,1.27,1.78,2.33,2.38,3.17,.74,1.03,1.21,1.61,1.4,1.73l.5-1.48c.1-.36,.14-.88,.14-1.55-.07-.12-.23-.26-.47-.43h-.58c-.05-.22-.07-.42-.07-.61l.04-.14v-2.16c.19-.05,1.22-.07,3.1-.07,.98,0,1.57,.01,1.76,.04v2.81l-1.08,.11-.11,.58c-.05,.19-.08,.4-.11,.61-.02,.22-.06,.44-.11,.67-.05,.23-.11,.48-.18,.76-.07,.28-.14,.57-.22,.88-.07,.31-.2,.73-.4,1.26-.19,.53-.38,.96-.58,1.29,.19,.27,.37,.54,.52,.81,.16,.28,.32,.55,.49,.81h1.76v3.17h-2.41c-.72-.05-1.22-.31-1.51-.79l-.79-1.19-.25,.25c-.19,.29-.41,.53-.65,.72-1.13,.91-2.16,1.38-3.1,1.4l-.4,.04Zm-5.47-6.98c0-.14,.05-.24,.16-.29,.11-.05,.16-.13,.16-.25l-.04-.14-.18-.04c-.19,0-.41,.17-.65,.5l.54,.22Zm3.2,3.38l.07-.25s-.1-.09-.14-.13c-.05-.04-.1-.09-.14-.16-.05-.07-.1-.14-.14-.21-.14-.22-.25-.4-.32-.54-.07-.14-.2-.49-.4-1.04-.05-.14-.16-.24-.32-.29,.02-.07,.04-.13,.04-.18s.01-.1,.04-.14c-.02,0-.04-.01-.04-.04h-.04l-.29,.72-.25-.07,.14-.4c-.17-.17-.36-.25-.58-.25-.07-.29-.11-.53-.11-.72,.05-.14,.07-.35,.07-.61,0-.17-.04-.32-.11-.47l-.43,.43,.4,.29c-.05,.17-.08,.32-.09,.47-.01,.14-.04,.29-.09,.43l-.25,.14c.14,.29,.24,.61,.29,.97,.12,.84,.3,1.49,.54,1.94,.31-.12,.48-.26,.5-.43l.36,.11,.32-.36c.38,0,.6,.03,.65,.07,0,.14,.04,.22,.11,.22,0,.12,.02,.2,.07,.25s.1,.13,.14,.25Zm-2.81-3.42l-.04-.04s-.04,.01-.04,.04h.07Zm1.91-9.36l-.04-.04-.11-.68c-.1-.05-.18-.11-.25-.18,0-.07,.02-.16,.07-.25-.05-.07-.11-.14-.18-.2-.07-.06-.14-.12-.22-.2l-.5,.29c.02,.1,.04,.19,.05,.27,.01,.08,.04,.15,.09,.2,.19,.12,.35,.26,.49,.43,.13,.17,.33,.28,.59,.32v.04Zm-.36,7.6c.1-.12,.14-.25,.14-.4,0-.07-.02-.14-.05-.2s-.07-.11-.09-.16c-.02-.05-.06-.1-.11-.14l-.5,.14-.11,.32c.02,.12,.07,.26,.14,.43h.58Zm.04,1.91v-.83c-.19,.19-.29,.37-.29,.54s.1,.26,.29,.29Zm.07,4.43l.22-.11v-.25c-.26,0-.42,.07-.47,.22,.05,.05,.09,.08,.13,.09s.08,.03,.13,.05Zm.65-15.95s.11-.04,.18-.05c.07-.01,.14-.04,.22-.09-.02-.12-.04-.23-.05-.34-.01-.11-.04-.22-.09-.34-.05,.07-.08,.13-.09,.16-.01,.04-.04,.08-.09,.13l-.29-.36c-.07,.02-.2,.04-.4,.04v.36c.12,.1,.22,.19,.31,.27,.08,.08,.19,.16,.31,.23Zm-.4,16.56l.4-.29h-.61l.22,.29Zm.43-8.5c.19-.26,.38-.53,.56-.81,.18-.28,.4-.51,.67-.7h.76c.05-.1,.09-.15,.13-.16s.08-.03,.13-.05c.12,0,.19,.02,.22,.05,.02,.04,.06,.05,.11,.05l.25-.04,.25,.04c-.07-.14-.13-.24-.18-.29l-.22,.04c-.17,0-.37-.1-.61-.29-.12-.22-.28-.35-.47-.41-.19-.06-.38-.14-.58-.23-.07,.17-.14,.27-.2,.29-.06,.02-.11,.06-.16,.11,0,.31-.08,.55-.25,.72-.17,.17-.47,.5-.9,1.01l.22,.54s.1,.04,.14,.05c.05,.01,.1,.04,.14,.09Zm-.25,6.34l.25-.22c-.12,.02-.28,.04-.47,.04,.1,.1,.17,.16,.22,.18Zm.18-13.43v-.07s-.07,.04-.14,.04v.04h.14Zm3.42,14c.79,0,1.55-.47,2.27-1.4-1.15-1.85-2.51-3.98-4.07-6.41-1.08,1.08-1.62,2.38-1.62,3.89,.02,.48,.07,.88,.14,1.19,.22,.94,.7,1.68,1.44,2.23,.43,.34,1.04,.5,1.84,.5Zm-3.06-10.66l.04-.14c0-.07-.04-.12-.11-.16-.07-.04-.11-.11-.11-.23l-.04,.18s.01,.1,.04,.14c.02,.05,.08,.12,.18,.22Zm.14,10.66l.22-.11-.18-.07c-.07,0-.11,.02-.11,.07,0,.07,.02,.11,.07,.11Zm.36-9.65c-.1-.19-.14-.31-.14-.36,0-.07,.02-.18,.07-.32-.05,.02-.1,.04-.16,.04s-.11,.01-.16,.04c.12,.29,.25,.49,.4,.61Zm-.22,10.84l.07-.04s-.04-.05-.04-.07,0-.05-.02-.09c-.01-.04-.05-.05-.13-.05l-.04,.04,.14,.22Zm-.04-.72l-.04-.04s-.04,.01-.04,.04h.07Zm.22-12.85h-.04v-.36l-.11,.22s.05,.1,.14,.14Zm1.33,1.44c.29-.29,.51-.54,.67-.76s.29-.42,.41-.61c.55-.82,.83-1.89,.83-3.24,0-1.42-.52-2.12-1.55-2.12-.58,0-1.01,.36-1.3,1.08-.14,.34-.22,.62-.22,.86,0,.12,.01,.23,.04,.32,.02,.1,.04,.18,.04,.25,0,.41,.06,.84,.18,1.3,.24,1.06,.4,1.64,.47,1.76l.43,1.15Zm.14,2.84l-.04-.22-.14,.04c.02,.07,.08,.13,.18,.18Zm.29-1.12v-.11c0-.14-.07-.24-.22-.29-.12,.05-.18,.13-.18,.25l.04,.14h.36Zm0-.83l-.04-.04s-.04,.01-.04,.04h.07Zm.47,2.59l-.14-.58-.4,.29,.22,.29h.32Zm-.29-1.58l-.04-.07s-.01,.04-.04,.04l.07,.04Zm-.04,.9l.04-.04s-.01-.04-.04-.04v.07Zm1.19-3.17c.1,0,.18-.06,.25-.18-.1-.1-.17-.16-.22-.18l-.36,.32,.32,.04Zm.22,5.26l-.22-.22s-.08,.12-.18,.22h.4Zm.11-1.3s.01-.04,.04-.04h-.07s.01,.04,.04,.04Zm.32,.43l-.25-.32-.04,.14s0,.05,.02,.09c.01,.04,.1,.07,.27,.09Zm1.22,3.38c.19-.07,.37-.11,.54-.13,.17-.01,.33-.09,.5-.23l-1.8-2.45s-.08,.05-.11,.07c-.02,.02-.04,.05-.04,.07s.02,.05,.05,.07c.04,.02,.05,.05,.05,.07s-.01,.05-.04,.09c-.02,.04-.05,.08-.07,.13-.02,.05-.06,.1-.11,.14,.1,0,.14,.11,.14,.32-.1-.05-.17-.07-.22-.07l-.36,.21c.31,.12,.53,.29,.65,.5-.1,.14-.16,.25-.18,.32,.07,.03,.13,.06,.18,.11,.05,.05,.09,.07,.14,.07l.14-.04c.34,.26,.5,.5,.5,.72Zm-.47-12.06v-.04h-.04l.04,.04Zm.07,12.02l.07-.04s-.04-.07-.04-.14h-.07s.04,.11,.04,.18Zm.14,3.46c.12,0,.22-.04,.31-.11,.08-.07,.13-.14,.13-.21l-.04-.11c-.22,.22-.37,.36-.47,.43h.07Zm.4-14.11l-.04-.04s-.01,.04-.04,.04h.07Zm.22,11.12v-.14s-.07,.05-.07,.14h.07Zm.54,.61c.05-.07,.07-.14,.07-.22,0-.05-.02-.11-.07-.18-.05-.07-.07-.18-.07-.32-.05,.05-.1,.08-.14,.09-.05,.01-.1,.04-.14,.09,.09,.05,.14,.12,.14,.21l-.04,.14c0,.1,.08,.16,.25,.18Zm-.14,1.26v-.04h-.18v.04h.18Zm-.14-13.07l.04-.04-.04-.04v.07Zm2.27,10.84l.22-.5c.14,0,.24-.01,.29-.04-.05-.12-.1-.25-.14-.38s-.11-.27-.18-.41c0,.19-.02,.31-.05,.36-.04,.05-.08,.07-.13,.07s-.1-.02-.14-.07c-.05-.05-.1-.12-.14-.22l-.11,.25c.17,.19,.3,.5,.4,.94Zm-.07-1.58l.4-.22v-.07h-.47l.07,.29Zm1.12-.72c.02-.07,.04-.14,.05-.22,.01-.07,.04-.17,.09-.29-.12,.02-.29,.04-.5,.04-.07,.14-.11,.25-.11,.32,0,.02,.01,.05,.04,.09,.02,.04,.17,.05,.43,.05Zm-.22,.97v-.29c-.1,.12-.14,.19-.14,.22s.05,.05,.14,.07Zm.11-4.93l.18-.18h-.36s.08,.08,.09,.11c.01,.02,.04,.05,.09,.07Zm-.11,1.19s.01-.04,.04-.04l-.04-.04v.07Zm.25,1.62h-.04v-.04s.04,.01,.04,.04Zm1.26-1.58c.1,0,.19-.02,.29-.07v-1.58c-.14,.07-.28,.11-.4,.11l-.25-.04-.14,.14,.11,.25-.14,.21c.02,.07,.08,.18,.18,.32l-.65,.07c.12,.12,.23,.22,.32,.29,.1,.07,.2,.16,.32,.25h.32s.01,.04,.04,.04Zm-.94,.76l.04-.04-.04-.04v.07Zm.54,8.71l-.04-.14h-.04v.14h.07Z"/><path class="cls-2" d="M261.61,207.63c-2.47,0-3.95-.01-4.43-.04,0-.02-.01-.04-.04-.04v-3.02c.14-.02,.36-.04,.65-.04l.47,.04c.17,0,.32-.01,.47-.04v-6.95c0-.5-.17-.91-.52-1.21-.35-.3-.58-.51-.7-.63-.05-.05-.1-.1-.16-.14s-.1-.13-.13-.25l.07-.11c.19-.19,.37-.4,.54-.61,.17-.22,.36-.43,.58-.63,.22-.2,.32-.47,.32-.81v-5.58h-1.55c-.05-.22-.07-.42-.07-.61l.04-.58-.04-.86,.04-.25v-.72c.14-.07,2.4-.11,6.77-.11,1.78,0,3.02,0,3.73,.02,.71,.01,1.23,.02,1.57,.02,.02,.24,.04,2.41,.04,6.52-.05,.02-.09,.05-.13,.07-.04,.02-.08,.04-.13,.04-.12-.02-.26-.04-.43-.04-.34,.05-.79,.07-1.37,.07-.26,0-.5-.04-.72-.11v-1.62l-.04-.14,.04-.36c0-.29-.11-.56-.32-.83-.22-.26-.44-.42-.68-.47-.14-.05-1.3-.07-3.46-.07v6.12l.22,.04c.26,0,.54-.13,.83-.4,.29-.26,.43-.61,.43-1.04,.19-.1,.44-.14,.76-.14s.8,.04,1.48,.11c.1,.22,.14,.43,.14,.65,0,2.28-.02,3.47-.05,3.58-.04,.11-.05,.23-.05,.38,0,.05,.02,.09,.05,.12,.04,.04,.05,.08,.05,.13s-.02,.09-.05,.12c-.04,.04-.05,.07-.05,.09l.04,.07c.05,.12,.07,.23,.07,.32s-.02,.19-.05,.29c-.04,.1-.05,.2-.05,.32l.04,.25h-2.27c0-.48-.2-.89-.61-1.22-.22-.17-.42-.25-.61-.25l-.29,.04v7.38l.76,.04,.54-.04c.36,0,.67,.01,.94,.04h2.2c0-.07,0-.14,.02-.22,.01-.07,.02-.58,.02-1.53s0-1.46,.02-1.55c.01-.08,.02-.17,.02-.27l-.04-.47,.04-.04h2.66c.05,.19,.07,1.55,.07,4.07,0,1.51-.01,2.51-.04,2.99-.22,.07-2.75,.11-7.6,.11Zm-3.31-20.84c.07-.05,.14-.09,.22-.13,.07-.04,.13-.08,.18-.13v-.36c-.07-.07-.18-.16-.32-.25-.07,.07-.18,.16-.32,.25v.36l.25,.25Zm.58,8.32l.29-.04-.36-.25c.02,.17,.05,.26,.07,.29Zm.47-.86c.12-.02,.32-.04,.61-.04,.05-.05,.11-.08,.18-.11s.13-.06,.18-.11l.18,.11c0-.14,.05-.24,.16-.29,.11-.05,.16-.12,.16-.21l-.04-.14c-.26-.05-.49-.14-.67-.27-.18-.13-.37-.2-.56-.2l-.22,.04v1.22Zm5.8,3.71v-1.3c-.19-.1-.41-.14-.65-.14,0,.07-.02,.18-.07,.32-.07-.07-.16-.13-.25-.18l.22-.22c-.1-.07-.16-.16-.18-.27-.02-.11-.1-.19-.22-.23l.07-.11c-.07-.02-.14-.04-.22-.05s-.13-.08-.18-.2l.11-.29c-.02-.12-.04-.23-.05-.32-.01-.1-.03-.17-.05-.23-.02-.06-.05-.09-.07-.09,0,.22-.04,.34-.11,.38-.07,.04-.13,.07-.18,.09-.43-.26-.77-.43-1.03-.5s-.55-.11-.88-.11c-.12-.14-.18-.32-.18-.54l.04-.36-.04-.29-.25,1.08c-.19,0-.31,.07-.36,.2-.05,.13-.13,.23-.25,.3l-.43-.11c0,.12,.02,.25,.07,.4-.05,.05-.08,.09-.09,.12-.01,.04-.03,.08-.05,.13l.18,.22-.65,.22,.65,.47-.18,.47c.19,.05,.34,.08,.43,.09,.1,.01,.17,.08,.22,.2,.19,0,.29,.05,.29,.16s.01,.22,.04,.34l.47-.14v-.61c.1-.07,.18-.15,.25-.23s.13-.15,.18-.2h.25c1.08,0,1.8,.52,2.16,1.55h1.01Zm-5.72-.72l.22-.22h-.14s-.05,.1-.07,.22Zm.04-11.66s.01-.04,.04-.04c0-.02-.01-.04-.04-.04v.07Zm.47,.68l.07-.43s-.05-.12-.14-.22l-.14,.14,.22,.5Zm.07,12.92l.4-.22v-.36s-.05-.08-.09-.11c-.04-.02-.08-.06-.13-.11h-.36l-.11,.54,.29,.25Zm-.22-11.66v-.04l-.04,.04h.04Zm.14,4.25l.72-.29c0-.1-.02-.26-.07-.5-.1-.1-.19-.14-.29-.14l-.36,.14v.79Zm.86,9.29c.07-.14,.17-.28,.29-.4l.22,.07v-.61l-.32,.29-.36-.25c-.26,.1-.4,.25-.4,.47,0,.07,.02,.14,.05,.22,.04,.07,.07,.14,.09,.22h.43Zm-.43-15.48l.04-.04s-.01-.04-.04-.04l-.04,.04,.04,.04Zm.29,3.78c.29-.07,.44-.19,.47-.36-.05-.05-.1-.12-.14-.22h-.4c-.05,.1-.1,.17-.14,.22,.05,.05,.08,.11,.11,.18,.02,.07,.06,.13,.11,.18Zm-.07-1.3s.01-.04,.04-.04l-.04-.04v.07Zm.29,3.28l.04-.04-.04-.04s-.04,.01-.04,.04c.02,0,.04,.01,.04,.04Zm.18-4.86s.04-.08,.04-.25h-.07l.04,.25Zm.25,15.3v-.43c-.1,.05-.17,.12-.22,.21l.22,.22Zm-.07-10.37s.07-.02,.07-.07c0-.02-.02-.06-.07-.11-.05,.05-.08,.07-.11,.07l.11,.11Zm-.04,6.55l.14-.07s-.08-.07-.11-.07-.06,.03-.11,.07l.07,.07Zm.9-12.71v-.04h-.18v.04h.18Zm-.04,1.12l.04-.07-.07,.04,.04,.04Zm1.26,9.22l-.11-.11s.04-.01,.05-.04c.01-.02,.03-.04,.05-.04l.11,.07c-.05,.07-.08,.11-.11,.11Zm1.51-1.69c.17-.17,.25-.31,.25-.43l-.43-.32c-.07,.05-.18,.1-.32,.14l-.14,.4c0,.07,.06,.14,.18,.21h.47Zm.04,2.27l-.04-.04-.04,.04h.07Zm2.74-5.83s.02-.06,.07-.11c-.05-.05-.08-.07-.11-.07l-.11,.11,.14,.07Z"/><path class="cls-2" d="M281.08,207.63l-.94-.04h-1.91c-.05-.19-.07-.82-.07-1.87,0-.62,.01-1.03,.04-1.22h1.55l.04-.25c0-.07-.01-.12-.04-.14l-.68-3.35h-4.32c-.12,.1-.18,.2-.18,.32l.04,.04c0,.17-.02,.3-.07,.4l-.18,.86c-.14,.91-.25,1.48-.32,1.69-.02,.02-.04,.06-.04,.11l.04,.11c0,.07-.01,.13-.04,.18,.19,.05,.38,.07,.58,.07l.29-.04c.24,0,.44,.01,.61,.04l.11,.07-.04,.4c.05,.21,.07,.42,.07,.61l-.07,.43c0,.07,.01,.16,.04,.25,.02,.1,.04,.22,.04,.36l-.04,.58-.07,.36h-5.58v-3.1h1.15c.1-.38,.19-.76,.29-1.12,.1-.36,.17-.73,.22-1.12,.05-.38,.13-.75,.23-1.1,.11-.35,.19-.7,.23-1.06,.02-.26,.07-.5,.14-.72,.17-.65,.34-1.42,.5-2.3-.05-.12-.08-.24-.09-.36-.01-.12-.37-.58-1.06-1.37,.14-.14,.34-.31,.58-.5,.1-.1,.19-.19,.27-.29,.08-.1,.19-.18,.31-.25,.5-.34,.82-.84,.94-1.51l.32-1.55c.07-.41,.25-1.24,.54-2.48,.12-.58,.18-.9,.18-.97s.01-.16,.04-.25h-1.58v-3.06h5.65l.29-.04,.58,.04,.76-.04,.65,.04v3.06h-1.58l.07,.32c.02,.31,.1,.68,.22,1.12,.07,.26,.13,.53,.18,.79s.1,.54,.16,.83c.06,.29,.11,.56,.16,.83s.1,.54,.16,.83c.06,.29,.11,.56,.16,.83,.12,.43,.44,.88,.95,1.33,.52,.46,.87,.77,1.06,.94-.14,.14-.28,.29-.4,.45-.12,.16-.24,.29-.36,.41-.12,.12-.25,.4-.4,.83,0,.12,.01,.23,.04,.32,.02,.1,.05,.21,.07,.32l.4,1.76c.17,.84,.3,1.46,.4,1.85s.2,.92,.32,1.57l.36,1.62h1.04c.05,.21,.07,.44,.07,.68l-.04,.86c.02,.17,.04,.37,.04,.61l-.04,.86c-.1,.02-.34,.04-.72,.04l-2.3,.07Zm-9.25-3.13c.24,0,.38-.02,.41-.05s.05-.17,.05-.41h-.32l-.14,.47Zm.11,1.08c.31,0,.47-.07,.47-.22,0-.05-.02-.1-.05-.14-.04-.05-.07-.1-.09-.14l-.36,.18c.02,.07,.04,.18,.04,.32Zm.65-3.06s.06-.02,.11-.07h-.18l.07,.07Zm1.08-.07c.05-.34,.11-.67,.18-.99,.07-.32,.13-.65,.18-.99,.14-.12,.28-.25,.4-.4l.47-.04-.04-.18-.4,.07-.11-1.44c-.05,.22-.08,.43-.09,.63-.01,.2-.04,.4-.09,.59-.12,.07-.24,.14-.36,.2s-.2,.17-.25,.34c-.24,0-.42,.01-.54,.04l.11,.4-.18,.11,.25,.29s-.11-.04-.18-.04c-.05,0-.1,.02-.16,.05-.06,.04-.14,.07-.23,.09v.18l.54,.32c-.07,.14-.12,.32-.14,.54,.14,0,.33,.02,.58,.07l.07,.14Zm-.61-2.81s.1-.02,.14-.07c.05-.05,.13-.08,.25-.11l.18,.04c.12-.12,.25-.28,.4-.47-.17-.19-.47-.37-.9-.54-.05,.19-.1,.37-.14,.52-.05,.16-.07,.35-.07,.59l.14,.04Zm.22,4.9c.05-.29,.07-.52,.07-.68l-.22-.04c-.07,0-.14,.06-.22,.18v.43l.36,.11Zm.07-7.45c.07-.07,.17-.11,.29-.11,.07,0,.16,.02,.25,.07l-.11-.65c-.1-.1-.18-.14-.25-.14l-.25,.04,.07,.79Zm.36,9.43c.07-.05,.14-.09,.22-.13,.07-.04,.13-.08,.18-.12v-.43l-.29-.25c-.07,.05-.14,.09-.22,.13-.07,.04-.13,.08-.18,.13v.5s.1,.08,.14,.09c.05,.01,.09,.04,.14,.09Zm.18-11.81c.22,0,.32-.08,.32-.25l-.04-.22-.25-.11-.32,.32c.07,.17,.17,.25,.29,.25Zm.47,10.87s.04-.01,.04-.04h-.07l.04,.04Zm.4-10.58s.04-.04,.05-.04,.08-.06,.2-.18l-.4-.25c0-.12-.01-.22-.04-.29h-.04v.61c.1,.1,.17,.14,.22,.14Zm3.85,3.06c-.29-1.51-.56-3.01-.81-4.48s-.53-2.98-.85-4.52l-.36,2.12c-.1,.31-.17,.62-.22,.94-.05,.31-.11,.64-.18,.97-.1,.46-.17,.88-.22,1.26l-.11,.58c-.17,.55-.26,1.06-.29,1.51-.05,.29-.12,.58-.22,.86-.05,.12-.07,.37-.07,.76h3.31Zm-3.06,1.98l.04-.04-.04-.04-.04,.04,.04,.04Zm2.88-13.68l.04-.04-.04-.04-.04,.04s.04,.01,.04,.04Zm.61-.4v-.36h-.04v.36h.04Zm.22,4.18l-.07-.07-.07,.04,.14,.04Zm.18,9.97v-.04s-.04,.01-.04,.04h.04Zm.43-14.33c.12-.12,.18-.2,.18-.25s-.07-.14-.22-.29l-.25,.29c.05,.07,.14,.16,.29,.25Zm-.25,20.63s.07-.04,.14-.04v-.04h-.14v.07Zm.61-10.73l.04-.14c0-.12-.07-.2-.22-.25-.12,.07-.18,.16-.18,.25l.04,.14h.32Zm.04,1.48c.26,0,.4-.11,.4-.32,0-.17-.08-.25-.25-.25s-.29,.12-.36,.36c0,.14,.07,.22,.22,.22Zm.32,1.15l.25-.61-.22-.22-.11,.18-.11-.07-.25,.29c0,.17,.02,.27,.07,.31,.05,.04,.17,.08,.36,.12Zm-.36-12.56v-.04h-.04s.01,.04,.04,.04Zm.11,8.6l-.04-.04s-.01,.04-.04,.04h.07Zm.5,12.53v-.29c-.12,.02-.26,.04-.43,.04-.05,.05-.07,.09-.07,.13,0,.04-.01,.08-.04,.12h.54Zm-.25-3.74l.22-.04c-.14-.07-.26-.14-.36-.22,.05,.17,.09,.25,.14,.25Zm-.07-7.34l.4-.04-.22-.29-.18,.32Zm.29,4.82s.04-.01,.04-.04h-.07l.04,.04Zm.72,1.66c.1,0,.19-.05,.29-.14l-.22-.97c-.07-.07-.28-.11-.61-.11-.1,.14-.14,.28-.14,.4,0,.07,.01,.13,.04,.18l.11,.61,.22-.04c.07,0,.14,.01,.2,.04,.06,.02,.1,.04,.13,.04Zm-.61-7.09s.01-.04,.04-.04l-.04-.04-.04,.04s.01,.04,.04,.04Zm.18,10.01l.14-.11-.04-.07-.14,.11,.04,.07Zm1.37,.4l.32-.04c.31,0,.55-.11,.72-.32h-.68l-.43-.43-.4-1.8-.32-.18s-.08,.07-.11,.07l.11,.29-.22,.25,.22,.25c-.34,.05-.53,.13-.58,.25l.58,.43-.18,.43c.1,0,.17,.02,.22,.05,.05,.04,.1,.05,.14,.05s.11-.02,.18-.07l.11,.29h.29c.02,.12,.04,.28,.04,.47Zm-.36,1.3l.07-.14s-.03-.1-.09-.14c-.06-.05-.13-.11-.2-.18h-.29c-.17,.12-.25,.23-.25,.32l.04,.14h.72Zm-.68-11.59s.01-.04,.04-.04l-.04-.04v.07Zm1.4,10.8v-.25h-.04v.25h.04Zm.47,.61c.12-.07,.18-.16,.18-.25,0-.02-.02-.07-.07-.14-.05-.07-.07-.19-.07-.36l-.29,.18c.07,.07,.11,.17,.11,.31s.05,.22,.14,.27Z"/><path class="cls-2" d="M291.95,207.56h-6.98v-3.02h1.87v-6.88c0-.62-.32-1.2-.97-1.73-.26-.22-.46-.41-.58-.58,.05-.05,.08-.1,.11-.14s.36-.43,1.01-1.15c.26-.26,.4-.62,.4-1.08,.02-.91,.04-2.75,.04-5.51l-.36,.04-.18-.04c-.14,0-.29,.03-.43,.07-.74,.26-1.12,.78-1.12,1.55v2.2c-.31,.05-.65,.07-1.01,.07-.58,0-1-.04-1.26-.11v-6.73h11.95v6.77h-2.23c-.1-.02-.14-.61-.14-1.76l.04-.79c0-.6-.31-1.01-.94-1.22-.07-.02-.42-.04-1.04-.04,0,2.76-.01,4.56-.04,5.4,0,.55,.22,1.04,.65,1.48l.9,.97c-.17,.14-.32,.29-.47,.45-.14,.16-.3,.31-.47,.45-.41,.38-.61,.87-.61,1.44,.02,1.08,.04,3.36,.04,6.84h1.84v3.06Zm-2.88-4.57v-.04h-.04s.01,.04,.04,.04Zm3.13-17.03l.14-.04c-.14-.1-.25-.18-.32-.25,.05,.19,.11,.29,.18,.29Zm.43,.61c-.1-.1-.18-.22-.25-.36,.02,.24,.11,.36,.25,.36Z"/><path class="cls-2" d="M299.95,207.63c-2.47,0-3.95-.01-4.43-.04,0-.02-.01-.04-.04-.04v-3.02c.14-.02,.36-.04,.65-.04l.47,.04c.17,0,.32-.01,.47-.04v-6.95c0-.5-.17-.91-.52-1.21-.35-.3-.58-.51-.7-.63-.05-.05-.1-.1-.16-.14-.06-.05-.1-.13-.13-.25l.07-.11c.19-.19,.37-.4,.54-.61,.17-.22,.36-.43,.58-.63,.22-.2,.32-.47,.32-.81v-5.58h-1.55c-.05-.22-.07-.42-.07-.61l.04-.58-.04-.86,.04-.25v-.72c.14-.07,2.4-.11,6.77-.11,1.78,0,3.02,0,3.73,.02,.71,.01,1.23,.02,1.57,.02,.02,.24,.04,2.41,.04,6.52-.05,.02-.09,.05-.13,.07-.04,.02-.08,.04-.13,.04-.12-.02-.26-.04-.43-.04-.34,.05-.79,.07-1.37,.07-.26,0-.5-.04-.72-.11v-1.62l-.04-.14,.04-.36c0-.29-.11-.56-.32-.83-.22-.26-.44-.42-.68-.47-.14-.05-1.3-.07-3.46-.07v6.12l.22,.04c.26,0,.54-.13,.83-.4,.29-.26,.43-.61,.43-1.04,.19-.1,.44-.14,.76-.14s.8,.04,1.48,.11c.1,.22,.14,.43,.14,.65,0,2.28-.02,3.47-.05,3.58-.04,.11-.05,.23-.05,.38,0,.05,.02,.09,.05,.12,.04,.04,.05,.08,.05,.13s-.02,.09-.05,.12c-.04,.04-.05,.07-.05,.09l.04,.07c.05,.12,.07,.23,.07,.32s-.02,.19-.05,.29c-.04,.1-.05,.2-.05,.32l.04,.25h-2.27c0-.48-.2-.89-.61-1.22-.22-.17-.42-.25-.61-.25l-.29,.04v7.38l.76,.04,.54-.04c.36,0,.67,.01,.94,.04h2.2c0-.07,0-.14,.02-.22s.02-.58,.02-1.53,0-1.46,.02-1.55c.01-.08,.02-.17,.02-.27l-.04-.47,.04-.04h2.66c.05,.19,.07,1.55,.07,4.07,0,1.51-.01,2.51-.04,2.99-.22,.07-2.75,.11-7.6,.11Zm-3.31-20.84c.07-.05,.14-.09,.22-.13s.13-.08,.18-.13v-.36c-.07-.07-.18-.16-.32-.25-.07,.07-.18,.16-.32,.25v.36l.25,.25Zm.58,8.32l.29-.04-.36-.25c.02,.17,.05,.26,.07,.29Zm.47-.86c.12-.02,.32-.04,.61-.04,.05-.05,.11-.08,.18-.11,.07-.02,.13-.06,.18-.11l.18,.11c0-.14,.05-.24,.16-.29,.11-.05,.16-.12,.16-.21l-.04-.14c-.26-.05-.49-.14-.67-.27-.18-.13-.37-.2-.56-.2l-.22,.04v1.22Zm5.8,3.71v-1.3c-.19-.1-.41-.14-.65-.14,0,.07-.02,.18-.07,.32-.07-.07-.16-.13-.25-.18l.22-.22c-.1-.07-.16-.16-.18-.27-.02-.11-.1-.19-.22-.23l.07-.11c-.07-.02-.14-.04-.22-.05-.07-.01-.13-.08-.18-.2l.11-.29c-.02-.12-.04-.23-.05-.32-.01-.1-.03-.17-.05-.23-.02-.06-.05-.09-.07-.09,0,.22-.04,.34-.11,.38-.07,.04-.13,.07-.18,.09-.43-.26-.77-.43-1.03-.5s-.55-.11-.88-.11c-.12-.14-.18-.32-.18-.54l.04-.36-.04-.29-.25,1.08c-.19,0-.31,.07-.36,.2-.05,.13-.13,.23-.25,.3l-.43-.11c0,.12,.02,.25,.07,.4-.05,.05-.08,.09-.09,.12-.01,.04-.03,.08-.05,.13l.18,.22-.65,.22,.65,.47-.18,.47c.19,.05,.34,.08,.43,.09,.1,.01,.17,.08,.22,.2,.19,0,.29,.05,.29,.16s.01,.22,.04,.34l.47-.14v-.61c.1-.07,.18-.15,.25-.23,.07-.08,.13-.15,.18-.2h.25c1.08,0,1.8,.52,2.16,1.55h1.01Zm-5.72-.72l.22-.22h-.14s-.05,.1-.07,.22Zm.04-11.66s.01-.04,.04-.04c0-.02-.01-.04-.04-.04v.07Zm.47,.68l.07-.43s-.05-.12-.14-.22l-.14,.14,.22,.5Zm.07,12.92l.4-.22v-.36s-.05-.08-.09-.11c-.04-.02-.08-.06-.13-.11h-.36l-.11,.54,.29,.25Zm-.22-11.66v-.04l-.04,.04h.04Zm.14,4.25l.72-.29c0-.1-.02-.26-.07-.5-.1-.1-.19-.14-.29-.14l-.36,.14v.79Zm.86,9.29c.07-.14,.17-.28,.29-.4l.22,.07v-.61l-.32,.29-.36-.25c-.26,.1-.4,.25-.4,.47,0,.07,.02,.14,.05,.22,.04,.07,.07,.14,.09,.22h.43Zm-.43-15.48l.04-.04s-.01-.04-.04-.04l-.04,.04,.04,.04Zm.29,3.78c.29-.07,.44-.19,.47-.36-.05-.05-.1-.12-.14-.22h-.4c-.05,.1-.1,.17-.14,.22,.05,.05,.08,.11,.11,.18,.02,.07,.06,.13,.11,.18Zm-.07-1.3s.01-.04,.04-.04l-.04-.04v.07Zm.29,3.28l.04-.04-.04-.04s-.04,.01-.04,.04c.02,0,.04,.01,.04,.04Zm.18-4.86s.04-.08,.04-.25h-.07l.04,.25Zm.25,15.3v-.43c-.1,.05-.17,.12-.22,.21l.22,.22Zm-.07-10.37s.07-.02,.07-.07c0-.02-.02-.06-.07-.11-.05,.05-.08,.07-.11,.07l.11,.11Zm-.04,6.55l.14-.07s-.08-.07-.11-.07-.06,.03-.11,.07l.07,.07Zm.9-12.71v-.04h-.18v.04h.18Zm-.04,1.12l.04-.07-.07,.04,.04,.04Zm1.26,9.22l-.11-.11s.04-.01,.05-.04c.01-.02,.03-.04,.05-.04l.11,.07c-.05,.07-.08,.11-.11,.11Zm1.51-1.69c.17-.17,.25-.31,.25-.43l-.43-.32c-.07,.05-.18,.1-.32,.14l-.14,.4c0,.07,.06,.14,.18,.21h.47Zm.04,2.27l-.04-.04-.04,.04h.07Zm2.74-5.83s.02-.06,.07-.11c-.05-.05-.08-.07-.11-.07l-.11,.11,.14,.07Z"/><path class="cls-2" d="M322.12,207.59h-2.23c-.62,0-1.14-.21-1.55-.63-.41-.42-.61-1.08-.61-2l.04-2.02-.04-2.52,.04-1.66c0-.41-.16-.83-.47-1.26-.1-.12-.22-.22-.36-.29-.48-.17-1.02-.25-1.62-.25l-.76,.04-.79-.04c0,1.97,.01,3.04,.04,3.2,0,.14-.04,.26-.11,.36v.14c.07,.1,.11,.2,.11,.32-.02,.14-.04,1.31-.04,3.49h1.37c.05,.21,.07,.44,.07,.68-.02,.31-.04,1.09-.04,2.34-.19,.05-1.51,.07-3.96,.07-1.32,0-2.08-.01-2.27-.04v-3.02h1.48v-6.91c0-.53-.19-.98-.58-1.37-.46-.46-.77-.78-.94-.97,.74-.74,1.18-1.27,1.31-1.57,.13-.3,.2-.76,.2-1.38-.02-.46-.04-.92-.04-1.4l.04-.72v-2.63h-1.48v-3.06c.07-.02,1.2-.04,3.38-.04,2.35,0,3.71,.01,4.07,.04,1.75,.19,2.9,.62,3.46,1.28,.55,.66,.88,1.39,.99,2.2,.11,.8,.17,1.51,.2,2.11,0,.36-.01,.66-.04,.9-.05,.43-.08,.87-.09,1.31s-.1,.88-.27,1.31c-.31,.79-.82,1.32-1.51,1.58l-.9,.36c.19,.1,.36,.17,.5,.22,.29,.05,.55,.14,.79,.29,.91,.55,1.37,1.26,1.37,2.12l.04,.5c.05,.26,.07,.52,.07,.76s.01,.49,.04,.76c0,.12-.01,.22-.04,.29-.02,.07-.04,.17-.04,.29,.05,.17,.07,.31,.07,.43,0,.29-.02,.54-.05,.76s-.05,.59-.05,1.12c0,.6,.02,1.07,.07,1.4h1.48v3.06c-.07,.02-.19,.04-.36,.04Zm-6.8-13.57l.72-.04c.72-.05,1.19-.31,1.4-.79s.32-1.36,.32-2.63v-1.15c-.07-1.22-.67-1.84-1.8-1.84-.31-.02-1.04-.04-2.2-.04,0,3.74,.01,5.66,.04,5.76,0,.07-.02,.13-.05,.18s-.05,.11-.05,.18l.14,.32h1.12l.36,.04Zm-.58,1.33v-.04h-.04s.01,.04,.04,.04Zm1.51-.58l-.04-.07s-.08,.01-.11,.04v.04h.14Zm2.23,4.14l.04-.22c0-.07-.02-.12-.07-.14,0-.24-.02-.4-.07-.47v.25l-.04,.07c0,.07,.04,.12,.11,.14l.04,.36Zm.11,5.72c.24-.1,.48-.16,.72-.18,.24-.02,.43-.17,.58-.43,.05,0,.12,.02,.22,.07,.05-.05,.12-.1,.22-.14v-1.87l-.36-.11-.22,.25c-.1,0-.17-.01-.22-.04l.11-.32-.18-.36-.29,.11c-.1-.02-.14-.07-.14-.14,0-.02,.01-.05,.04-.07s.04-.06,.04-.11-.01-.09-.04-.12c-.02-.04-.04-.1-.04-.2l.04-.18s-.01-.08-.04-.11l.04-.32c0-.07-.02-.16-.07-.25l-.25,1.33-.29,.04,.04,.79-.04,.94c0,.55,.05,1.03,.14,1.44Zm-.14-3.74l.22-.25-.22-.29v.54Zm.47,4.18v-.14h-.04v.14h.04Zm.58,.65l.04-.14c0-.07-.02-.14-.07-.22s-.07-.16-.07-.25c-.1,0-.18,.01-.25,.04,.1,.05,.14,.13,.14,.25l-.04,.11c0,.1,.08,.17,.25,.21Zm.43-6.26l.4-.22v-.43c-.07-.1-.25-.14-.54-.14-.17,.1-.25,.23-.25,.4l.04,.18,.36,.22Zm-.04-11.63s.04-.11,.04-.18l-.07,.07,.04,.11Zm.29,13.79s.04-.01,.04-.04c-.02,0-.04-.01-.04-.04v.07Zm1.4,4.18s.01-.04,.04-.04v-.04h-.18v.07h.14Z"/></g><path class="cls-2" d="M185.13,213.49h-8.5v-3.83h1.84v-8.68c0-.66-.21-1.2-.63-1.62-.21-.18-.41-.38-.61-.58-.2-.21-.41-.42-.65-.63l.18-.18c.15-.24,.36-.48,.63-.72,.45-.39,.78-.78,.99-1.17,.06-.15,.09-2.68,.09-7.61h-1.75c-.06-.24-.09-1.05-.09-2.43,0-.78,.01-1.26,.04-1.44h8.46c1.14,0,2.07,.18,2.79,.54,1.26,.51,2.13,1.41,2.61,2.7,.33,.93,.5,1.75,.5,2.47,.24,.42,.54,.79,.9,1.1s.71,.67,1.04,1.06c-.72,.54-1.21,.89-1.49,1.06-.27,.17-.48,.47-.63,.92-.24,.84-.53,1.47-.85,1.89-.42,.63-1.1,1.14-2.03,1.53-.24,.06-.42,.12-.54,.18,.33,.09,.74,.24,1.21,.45,1.26,.54,2.08,1.58,2.48,3.11,.06,.12,.09,.24,.09,.36,0,.69,.33,1.29,.99,1.8,.33,.24,.55,.44,.67,.61,.12,.17,.25,.31,.41,.43-.27,.36-.59,.66-.97,.9-.38,.24-.68,.56-.92,.95,0,2.31-.56,4.08-1.67,5.31-.93,1.02-2.46,1.53-4.59,1.53Zm-6.57-2.88s.01-.04,.04-.04h-.09s.01,.04,.04,.04Zm.86-5.49c.12-.12,.18-.22,.18-.31s-.03-.18-.09-.27l-.13,.27,.04,.31Zm.31-3.69l-.04-.32h-.04v.32h.09Zm.27,6.34c.15,0,.27-.09,.36-.27l-.18-.18-.45,.13,.18,.32h.09Zm2.29,4.82s.05-.06,.07-.09c.01-.03,.05-.06,.11-.09-.06-.12-.11-.18-.13-.18-.72-.42-1.25-.63-1.58-.63-.12,0-.21,.07-.27,.22v.77h1.8Zm-.9-2.39c.21-.18,.32-.37,.32-.58l-.04-.31,.04-.41c-.3,.09-.45,.27-.45,.54l.13,.76Zm.18-20.29s.04-.03,.04-.09l-.04,.09Zm3.42,6.34c.45-.03,.85-.16,1.21-.4,.63-.48,.95-1.23,.95-2.25v-2.84c0-.36-.09-.75-.27-1.17-.27-.6-.72-.99-1.35-1.17-.21-.06-1.23-.09-3.06-.09v7.92h2.52Zm-.58,13.5c.33,0,.67-.03,1.04-.09,1.32-.3,1.98-1.56,1.98-3.78l-.04-1.12,.04-1.08c0-1.92-.47-3.08-1.39-3.46-.6-.21-1.41-.35-2.43-.41-.48,0-.85,.03-1.12,.09v9.85h1.94Zm-1.53,2.12s.01-.04,.04-.04v-.04l-.09,.04s.04,.02,.04,.04Zm.04,.72v-.32h-.09v.32h.09Zm1.26-1.71c.06,0,.2-.07,.41-.22h-.81c.21,.15,.34,.22,.4,.22Z"/><path class="cls-2" d="M333.52,213.49h-7.88c-.06-.27-.09-.52-.09-.76l.04-.18v-2.88c.18-.03,.43-.04,.77-.04l.58,.04,.54-.04c0-3.78-.02-6.24-.05-7.38,0-.75-.25-1.54-.76-2.38-.12-.12-.54-.43-1.26-.95l-1.04-.72,.9-1.67c.06-.24,.09-.46,.09-.67,0-.3-.35-1.49-1.04-3.55-.54-1.59-.86-2.54-.95-2.86-.09-.32-.2-.64-.31-.97h-1.35c-.06-.24-.09-1.05-.09-2.43,0-.75,.02-1.21,.04-1.39h7.11v3.78h-1.58c0,.21,.01,.36,.04,.45,.15,.48,.29,.94,.41,1.39,.12,.45,.25,.9,.41,1.35l.58,1.89,1.12,3.82h.13l2.92-8.87c-.21-.03-.44-.04-.67-.04l-.41,.04-.54-.04v-3.78h6.75v3.78h-1.3l-.45,1.21c-1.47,3.93-2.21,6.05-2.21,6.35,0,.48,.17,.9,.5,1.26,.09,.12,.16,.24,.2,.36s.13,.3,.25,.54c-.15,.15-.29,.28-.43,.38s-.28,.22-.43,.34c-.54,.39-.97,.67-1.28,.83-.32,.16-.59,.64-.83,1.42-.06,.21-.13,.43-.2,.65-.08,.23-.11,1.58-.11,4.07s.01,3.72,.04,3.78h1.8v3.87Zm-7.92-24.48v-.04h-.22v.04h.22Zm2.29-3.42l.04-.04s-.01-.04-.04-.04-.04,.01-.04,.04c.03,0,.04,.01,.04,.04Zm.9,26.28s.01-.04,.04-.04l-.04-.04-.04,.04,.04,.04Zm.18-.13l.13-.09-.13-.13-.09,.04,.09,.18Zm1.04-13.05l.36-.36v-.04l-.04,.09h-.41l.09,.31Zm.13,5.94v-.05l-.04,.05h.04Zm5.71-18.81l-.09-.18c-.06,0-.11,.02-.13,.04,.06,.09,.13,.13,.22,.13Z"/></g><path class="cls-1" d="M90.15,143.53c-.55,1.78-.89,3.29-1.03,4.52-.41,2.19-.07,4.04,1.03,5.54,.68,1.1,1.37,2.19,2.05,3.29,.68,1.1,1.37,2.19,2.05,3.28,2.19,3.7,3.62,7.74,4.31,12.12,.41,2.05,.75,4.14,1.03,6.26,.27,2.13,.27,4.28,0,6.47-.28,3.56-.86,6.98-1.75,10.27-.89,3.29-2.29,6.44-4.21,9.45-1.64,2.33-3.53,4.35-5.65,6.06-2.12,1.71-4.55,2.98-7.29,3.8-4.52,1.37-9,1.4-13.45,.1-4.45-1.3-8.04-3.93-10.78-7.9-.41-.82-1.23-1.92-2.46-3.29v9.86h-12.11c-.69-.27-1.03-.96-1.03-2.05v-39.22c.27-.13,.55-.27,.82-.41,.27-.14,.55-.2,.82-.2h12.32c.27,.69,.55,1.58,.82,2.67,0,3.83,.75,7.67,2.26,11.5,1.09,3.7,3.29,6.91,6.57,9.65,.82,.55,1.78,.96,2.87,1.23,2.46,.82,4.86,.79,7.19-.1,2.33-.89,4.04-2.5,5.13-4.82,1.37-2.46,2.05-5,2.05-7.6s-.48-5.2-1.44-7.8c-.55-1.64-1.3-3.18-2.26-4.62-.96-1.44-1.98-2.84-3.08-4.21l-6.16-6.77c-1.23-1.37-2.43-2.67-3.59-3.9-1.17-1.23-2.36-2.46-3.59-3.7-.55-.68-1.2-1.26-1.95-1.75-.75-.48-1.54-.85-2.36-1.13-1.78-.82-3.56-1.64-5.34-2.46-1.78-.82-3.56-1.64-5.34-2.46-.28,0-.48-.2-.62-.62,0-.55,.03-1.06,.1-1.54,.07-.48,.1-1.06,.1-1.75,.27-1.91,.41-3.73,.41-5.44s-.41-3.45-1.23-5.24c-.69-1.5-1.23-3.01-1.64-4.52s-.82-3.01-1.23-4.52c-.69-2.6-1.1-5.13-1.23-7.6-.14-2.46-.07-4.93,.2-7.39,.27-3.42,.92-6.7,1.95-9.86,1.03-3.15,2.63-6.09,4.83-8.83,1.5-1.92,3.08-3.52,4.72-4.83,1.64-1.3,3.62-2.29,5.95-2.98,3.56-1.09,6.91-1.23,10.06-.41,3.15,.82,6.16,2.39,9.04,4.72,.68,.69,1.4,1.4,2.16,2.16,.75,.75,1.61,1.61,2.57,2.57v-7.39h13.55v35.93h-13.55c-.28-1.1-.48-1.85-.62-2.26-.41-4.38-1.78-8.35-4.11-11.91-2.05-3.56-5-5.54-8.83-5.95-.82-.27-1.64-.27-2.47,0-.82,.27-1.58,.61-2.26,1.03-1.37,1.1-2.54,2.26-3.49,3.49-.96,1.23-1.64,2.74-2.05,4.52-.69,3.01-.62,5.82,.2,8.42,.82,2.6,2.12,5.13,3.9,7.6,1.37,1.92,2.84,3.73,4.42,5.44,1.57,1.71,3.25,3.46,5.03,5.24,.27,.27,.55,.51,.82,.72,.27,.2,.55,.44,.82,.72,1.09,.55,2.16,1.1,3.18,1.64,1.03,.55,2.09,1.1,3.18,1.64,1.51,.82,2.98,1.61,4.41,2.36,1.44,.76,2.91,1.54,4.41,2.36,.14,.14,.24,.27,.31,.41,.07,.14,.24,.28,.51,.41Zm-2.87,51.54l-.41-.41-.41,.41h.82Zm1.64-26.69c.96,1.37,1.92,1.71,2.88,1.03,.27-.96-.14-1.57-1.23-1.85-.28,.14-.55,.27-.82,.41s-.55,.28-.82,.41Zm.62-5.75h-.41c0,.14,.07,.21,.2,.21l.21-.21Zm1.23,18.89h.2v-.82h-.2v.82Zm.61-68.79v.21c0,.14,.07,.2,.2,.2v-.41h-.2Zm1.03,68.38c-.14-.14-.2-.24-.2-.31,0-.07,.07,.04,.2,.31-.28-.14-.38-.2-.31-.2s.17,.07,.31,.2v.82c1.37,.55,2.26,.41,2.67-.41-.27-.27-.48-.55-.61-.82-.14-.27-.34-.55-.62-.82-.41,.82-.89,1.23-1.44,1.23Z"/><path class="cls-1" d="M103.82,155.37h4.29c.36-1.43,.71-2.82,1.07-4.16,.36-1.34,.63-2.73,.8-4.17s.47-2.8,.87-4.1c.4-1.3,.69-2.62,.87-3.96,.09-.98,.25-1.88,.47-2.69,.22-.81,.42-1.66,.6-2.55,.27-.98,.51-1.99,.74-3.02,.22-1.03,.42-2.04,.6-3.03-.18-.45-.29-.92-.34-1.41-.05-.49-.29-.96-.74-1.41l-3.22-3.63c.36-.36,.69-.67,1.01-.94,.31-.27,.69-.58,1.14-.94,.36-.36,.69-.72,1.01-1.07,.31-.36,.69-.67,1.14-.94,1.88-1.25,3.04-3.13,3.48-5.64,.18-.98,.38-1.95,.6-2.89,.22-.94,.42-1.9,.6-2.89,.18-1.08,.38-2.13,.6-3.16,.22-1.03,.47-2.08,.74-3.16,.18-.98,.38-1.97,.6-2.96,.22-.98,.42-1.97,.6-2.95,.09-.27,.13-.52,.13-.74s.05-.51,.14-.87h-5.9v-11.4h21.05c.71-.09,1.41-.09,2.08,0,.67,.09,1.36,.09,2.08,0,.72-.09,1.43-.11,2.15-.07,.71,.05,1.43,.07,2.15,.07v11.4h-5.9c.09,.45,.16,.85,.2,1.21,.04,.36,.11,.76,.2,1.21,.18,.99,.4,1.97,.67,2.96,.27,.98,.49,1.97,.67,2.95,.18,.99,.38,2.02,.6,3.09,.22,1.08,.42,2.11,.6,3.09,.18,.98,.38,2.01,.6,3.09,.22,1.08,.42,2.11,.6,3.09,.27,1.08,.74,2.02,1.41,2.82,.67,.81,1.41,1.57,2.21,2.28,.63,.54,1.25,1.08,1.88,1.61,.62,.54,1.29,1.12,2.01,1.74-.54,.54-1.03,1.1-1.47,1.68-.45,.58-.89,1.1-1.34,1.55-.45,.45-.76,.94-.94,1.48-.18,.54-.36,1.08-.54,1.61,0,.45,.04,.85,.13,1.21,.09,.36,.18,.76,.27,1.21,.18,.81,.36,1.59,.54,2.35,.18,.76,.36,1.5,.54,2.22l.8,4.03c.18,.9,.36,1.77,.54,2.62,.18,.85,.36,1.68,.54,2.48,.27,.99,.49,1.93,.67,2.82,.18,.9,.36,1.84,.54,2.82,.18,.9,.36,1.77,.54,2.62,.18,.85,.36,1.68,.54,2.48,0,.09,.09,.4,.27,.94h3.89c.18,.97,.25,1.92,.2,2.85-.05,.93-.07,1.88-.07,2.85,.09,.97,.11,1.88,.07,2.72-.05,.84-.07,1.74-.07,2.71-.36,.09-1.27,.16-2.75,.2-1.47,.04-3.24,.09-5.3,.13-2.06,.05-4.29,.05-6.7,0s-4.78-.07-7.11-.07c-.09-.35-.16-1.02-.2-1.99-.05-.97-.07-2.03-.07-3.18v-3.44c0-1.15,.04-2.08,.13-2.79h5.77c0-.27,.02-.54,.07-.81,.05-.27,.02-.5-.07-.68-.45-2.07-.87-4.17-1.27-6.29-.4-2.12-.83-4.22-1.28-6.3h-16.09c-.45,.36-.65,.81-.6,1.35,.05,.54-.02,1.04-.2,1.49-.27,1.08-.49,2.17-.67,3.25-.18,1.08-.36,2.21-.54,3.38-.09,.45-.18,.93-.27,1.42-.09,.5-.22,1.02-.4,1.56-.09,.18-.11,.41-.07,.68,.04,.27,.02,.54-.07,.81,.89,.18,1.79,.25,2.68,.2,.89-.05,1.83-.02,2.81,.07,.09,.09,.2,.2,.34,.33,.13,.13,.15,.29,.07,.46-.18,.44-.22,.84-.14,1.19,.09,.35,.14,.75,.14,1.19,.18,.53,.18,1.06,0,1.59-.18,.53-.18,1.1,0,1.72,.18,.53,.22,1.08,.13,1.66-.09,.57-.13,1.17-.13,1.79,0,.18-.09,.62-.27,1.32h-20.78v-11.4Zm8.85-1.74h-1.21c-.18,.45-.36,1.03-.54,1.74,.89,0,1.41-.07,1.54-.2s.2-.65,.2-1.54Zm-1.47,4.42c.09,.27,.13,.67,.13,1.21,.71,0,1.18-.04,1.41-.13,.22-.09,.33-.31,.33-.67,0-.18-.07-.35-.2-.54-.13-.18-.25-.36-.34-.54-.27,.18-.52,.31-.74,.4-.22,.09-.43,.18-.6,.27Zm2.28-10.46l.27,.27c.09,0,.22-.09,.4-.27h-.67Zm7.24-9.38c-.09-.98-.16-1.9-.2-2.75-.05-.85-.11-1.72-.2-2.61-.18,.8-.29,1.59-.34,2.35-.05,.76-.16,1.5-.34,2.21-.45,.27-.89,.52-1.34,.74-.45,.22-.76,.65-.94,1.27-.89,0-1.57,.05-2.01,.13,.18,.72,.31,1.21,.4,1.47-.36,.18-.58,.31-.67,.4,.18,.27,.49,.63,.94,1.07-.45-.18-.83-.18-1.14,0-.31,.18-.65,.31-1.01,.4v.67l2.01,1.21c-.27,.54-.45,1.21-.54,2.01,.54,0,1.25,.09,2.15,.27l.27,.54c.18-1.25,.4-2.48,.67-3.69,.27-1.21,.49-2.43,.67-3.69,.54-.45,1.03-.94,1.47-1.47,.36,0,.67-.02,.94-.07,.27-.04,.54-.07,.8-.07,0-.18-.02-.29-.07-.34-.05-.04-.07-.15-.07-.34-.27,.09-.51,.13-.74,.13s-.47,.05-.74,.13Zm-3.75-1.74c.18,0,.31,.02,.4,.07,.09,.05,.18,.07,.27,.07,.27-.27,.51-.54,.74-.8,.22-.27,.47-.58,.74-.94-.45-.45-.96-.83-1.54-1.14-.58-.31-1.19-.6-1.81-.87-.18,.72-.38,1.41-.6,2.08-.22,.67-.29,1.36-.2,2.08,.45,.27,.78,.27,1.01,0,.22-.27,.56-.45,1-.54Zm-.67,19.04c.09-.54,.15-.98,.2-1.34,.05-.36,.07-.76,.07-1.21-.27-.09-.54-.13-.8-.13s-.54,.22-.8,.67v1.61c.18,.09,.4,.16,.67,.2,.27,.05,.49,.11,.67,.2Zm0-30.83c.09,.54,.13,1.03,.13,1.47s.04,.94,.13,1.47c.54-.45,1.21-.49,2.01-.13l-.4-2.41c-.36-.36-.69-.51-1.01-.47-.31,.05-.6,.07-.87,.07Zm3.08,35.53c-.27-.18-.63-.49-1.07-.94-.27,.18-.54,.34-.8,.47-.27,.13-.49,.29-.67,.47v1.88c.18,.18,.36,.29,.54,.34,.18,.05,.36,.16,.54,.34,.27-.18,.54-.34,.8-.47,.27-.13,.49-.29,.67-.47v-1.61Zm-.67-43.57l-1.21,1.21c.36,.89,.94,1.16,1.74,.8,.63-.27,.76-.8,.4-1.61-.36-.18-.67-.31-.94-.4Zm1.74,42.5h-.27l.13,.13c.09,0,.13-.04,.13-.13Zm.67-42.1h-.13v2.28c.44,.36,.74,.52,.87,.47,.13-.04,.42-.29,.87-.74-.54-.36-1.03-.67-1.47-.94,0-.44-.05-.8-.13-1.07Zm15.02,14.21c-1.07-5.63-2.08-11.19-3.02-16.69-.94-5.5-1.99-11.1-3.15-16.83-.18,.98-.36,1.97-.54,2.95-.18,.8-.31,1.63-.4,2.48-.09,.85-.22,1.67-.4,2.48-.36,1.16-.63,2.33-.81,3.49-.18,1.16-.4,2.37-.67,3.62-.18,.81-.34,1.59-.47,2.35-.14,.76-.25,1.54-.34,2.35-.09,.72-.25,1.45-.47,2.21-.22,.76-.42,1.5-.6,2.21-.18,1.16-.34,2.28-.47,3.35-.13,1.07-.38,2.14-.74,3.22-.18,.45-.27,.92-.27,1.41v1.41h12.33Zm-11.26,7.24l-.14-.13-.13,.13,.13,.13,.14-.13Zm10.59-51.08l-.13,.13c.09,0,.13,.05,.13,.13l.14-.13-.14-.13Zm2.28-2.55h-.13v1.34h.13v-1.34Zm.8,16.89l-.27-.27c-.09,.09-.18,.13-.27,.13,.09,0,.15,.02,.2,.07s.16,.07,.34,.07Zm.67,37c-.09,0-.13,.05-.13,.13h.13v-.13Zm1.47-55.24c-.45,.45-.76,.8-.94,1.07,.18,.27,.54,.58,1.07,.94,.45-.44,.67-.76,.67-.94s-.27-.54-.8-1.07Zm-.27,78.7v-.13h-.54v.27c.09-.09,.27-.13,.54-.13Zm.27-44.51l-.13,.13v.13l.13-.13v-.13Zm.8,3.22c-.72,.45-.89,.94-.54,1.47h1.21c.27-.71,.04-1.21-.67-1.47Zm.94,6.97c.36,0,.67-.13,.94-.4,.27-.27,.4-.54,.4-.81,0-.62-.31-.94-.94-.94-.27,0-.54,.16-.8,.47-.27,.31-.45,.6-.54,.87,0,.72,.31,.98,.94,.8Zm1.07,4.29c.18-.45,.34-.85,.47-1.21,.13-.36,.29-.71,.47-1.07l-.8-.8c-.09,.18-.16,.29-.2,.34-.05,.05-.11,.16-.2,.33-.09-.09-.16-.13-.2-.13-.05,0-.11-.04-.2-.13-.45,.45-.76,.8-.94,1.07,0,.63,.09,.98,.27,1.07,.18,.18,.62,.36,1.34,.54Zm-1.34-46.79v-.13h-.13c0,.09,.04,.13,.13,.13Zm.27,31.91c0,.09-.05,.14-.13,.14h.27l-.13-.14Zm2.01,45.75c-.45,.09-.98,.13-1.61,.13-.18,.18-.27,.34-.27,.47s-.05,.29-.13,.47h2.01v-1.07Zm-1.47-13.84c.18,.63,.36,.94,.54,.94s.45-.05,.8-.13c-.54-.27-.98-.54-1.34-.8Zm.94-27.62c-.18,.27-.4,.67-.67,1.21,.27,0,.51-.02,.74-.07,.22-.04,.47-.07,.74-.07-.18-.18-.31-.36-.4-.54-.09-.18-.22-.36-.4-.54Zm.54,19.04h-.27l.13,.14c.09,0,.13-.05,.13-.14Zm.54,1.74c-.54,.72-.69,1.45-.47,2.21,.22,.76,.38,1.5,.47,2.21,.54-.18,1.07-.18,1.61,0,.54,.18,1.03,.05,1.47-.4-.27-1.34-.54-2.55-.8-3.62-.36-.36-.72-.49-1.07-.4-.36,.09-.76,.09-1.21,0Zm-.27-21.85c0-.09,.05-.14,.13-.14l-.13-.13-.13,.13c0,.09,.04,.14,.13,.14Zm1.21,36.87c-.09-.09-.13-.18-.13-.27-.09,.09-.18,.16-.27,.2-.09,.05-.18,.11-.27,.2,.09,.09,.13,.18,.13,.27,.09-.09,.18-.16,.27-.2,.09-.04,.18-.11,.27-.2Zm4.42,.24c.09,.44,.13,1.02,.13,1.74,.45-.09,.83-.13,1.14-.13s.65-.04,1-.13c.36-.09,.65-.18,.87-.27,.22-.09,.51-.35,.87-.8h-2.55l-1.61-1.59c-.27-1.16-.51-2.28-.74-3.35-.22-1.07-.47-2.19-.74-3.35-.18-.09-.36-.18-.54-.27-.18-.09-.36-.18-.54-.27-.09-.09-.18-.09-.27,0s-.18,.14-.27,.14c.09,.18,.16,.36,.2,.54,.04,.18,.11,.36,.2,.54-.18,.18-.31,.34-.4,.47-.09,.13-.22,.29-.4,.47,.36,.36,.62,.67,.8,.94-.98,.18-1.54,.29-1.68,.34-.13,.05-.29,.25-.47,.6,.36,.27,.71,.54,1.07,.8,.35,.27,.71,.54,1.07,.8-.18,.36-.31,.65-.4,.87-.09,.22-.18,.47-.27,.74,.36,0,.67,.11,.94,.33,.27,.22,.63,.16,1.07-.2,.18,.53,.31,.88,.4,1.06h1.07Zm-1.21,6.49c.27-.45,.27-.78,0-1.01-.27-.22-.54-.47-.8-.74h-1.07c-.27,.18-.52,.4-.74,.67-.22,.27-.25,.63-.07,1.07h2.68Zm-2.55-43.2c0-.09,.04-.13,.13-.13l-.13-.13v.27Zm5.09,40.29h.13v-.93h-.13v.93Zm1.88,2.29c.62-.45,.78-.89,.47-1.34-.31-.45-.43-.94-.34-1.47-.54,.36-.89,.58-1.07,.67,.36,.36,.49,.74,.4,1.14-.09,.4,.09,.74,.54,1.01Z"/><path class="cls-1" d="M160.93,121.19c1.34-1.61,2.73-3.13,4.16-4.56,1.07-1.07,1.61-2.37,1.61-3.89,.09-3.39,.13-6.79,.13-10.19v-10.32h-5.9v-11.4h23.6c.09,.18,.18,.34,.27,.47,.09,.14,.13,.29,.13,.47v10.32c-.98,.09-1.97,.11-2.95,.07-.98-.04-1.97-.02-2.95,.07v10.52c0,2.99-.05,6.06-.13,9.18,0,1.16,.2,2.17,.6,3.02,.4,.85,.96,1.67,1.68,2.48l3.48,3.48c-.45,.63-.96,1.21-1.54,1.74-.58,.54-1.14,1.03-1.68,1.47-.36,.45-.69,.8-1,1.07-.31,.27-.65,.63-1.01,1.07-.27,.45-.4,.94-.4,1.47v27.62h1.47c1.16,0,2.3-.02,3.42-.07,1.12-.04,2.26-.02,3.42,.07,.8,0,1.61-.15,2.41-.47,.8-.31,1.56-.78,2.28-1.41,.71-.62,1.32-1.29,1.81-2.01,.49-.71,.83-1.47,1.01-2.28,.27-.81,.4-1.7,.4-2.68v-6.43c.27-.36,.56-.56,.87-.6,.31-.04,.69-.07,1.14-.07,.8,.09,1.61,.09,2.41,0,.8-.09,1.61,0,2.41,.27h.4c.54-.36,1.05-.45,1.54-.27,.49,.18,.96,.36,1.41,.54v26.41l-.54,.27c-.18,.09-.36,.13-.54,.13h-42.77c-.27,0-.49-.04-.67-.13v-11.26h5.9v-25.07c0-1.79-.25-3.13-.74-4.02-.49-.89-1.41-1.88-2.75-2.95-.45-.36-.85-.69-1.21-1.01-.36-.31-.76-.69-1.21-1.14Zm3.22,40.22v-.13c-.27,0-.45,.05-.54,.13v.13c.27,0,.45-.04,.54-.13Zm-.4,2.55l-.13-.14v.27c.09,0,.13-.05,.13-.13Zm5.9-30.97c0-.09-.05-.14-.13-.14v.27l.13-.13Zm.67,25.47c.18,.18,.31,.29,.4,.34,.09,.05,.22,.16,.4,.34,.09-.62-.18-.85-.8-.67Zm1.61-6.43v-.67c-.27,0-.58-.04-.94-.13,.18,.18,.34,.31,.47,.4,.13,.09,.29,.22,.47,.4Zm-.13-11.26h.13l-.13-.14c-.09,0-.13,.05-.13,.14h.13Zm.27-22.39c0-.09-.05-.09-.13,0h.13Zm.54,15.15l-.13,.13h.13v-.13Zm2.68-15.02h-.94c0,.09-.05,.18-.13,.27,0,.09,.04,.18,.13,.27h.94v-.54Zm-.27-6.43h.94v-.54l-.13-.13h-.8v.67Zm.13,24.94v-.13l-.13,.13c.09,0,.13,.05,.13,.13v-.13Zm.8-6.97c0-.09-.05-.13-.13-.13l-.13,.13,.13,.13,.13-.13Zm2.15,33.12c-.09,0-.13,.05-.13,.13h.13v-.13Zm23.33-9.79c-.18,.36-.27,.49-.27,.4,0,.09,.09,.22,.27,.4l.4-.4-.4-.4Zm1.47-4.02c.09-.8,.13-1.32,.13-1.54s-.09-.65-.27-1.27c-.09,.45-.16,.87-.2,1.27-.05,.4-.07,.83-.07,1.27,0,.09,.05,.14,.14,.14,.09,.09,.18,.13,.27,.13Z"/><path class="cls-1" d="M208.93,121.05c.71-.89,1.43-1.74,2.14-2.55s1.43-1.56,2.15-2.28c.89-.89,1.34-1.96,1.34-3.22,0-2.06-.02-4.04-.07-5.97-.05-1.92-.02-3.87,.07-5.83,.09-2.59,.45-5.07,1.08-7.44,.63-2.37,1.62-4.63,2.96-6.77,1.88-3.22,4.75-5.45,8.61-6.7,3.05-.98,6.37-1.34,9.96-1.07,1.61,.18,3.18,.54,4.71,1.07,1.52,.54,2.96,1.3,4.31,2.28,.81,.72,1.59,1.43,2.36,2.14,.76,.72,1.41,1.57,1.95,2.55,.72,1.25,1.32,2.53,1.82,3.82,.49,1.3,.87,2.66,1.14,4.09,.36,2.06,.63,4.07,.81,6.03,.18,1.25,.27,2.55,.27,3.89v3.89c0,.45-.09,1.03-.27,1.74v.67c.27,.45,.38,.85,.34,1.21-.05,.36-.07,.76-.07,1.21,0,.89,.36,1.7,1.07,2.41,.71,.8,1.45,1.61,2.21,2.41,.76,.8,1.54,1.66,2.35,2.55l-3.62,3.22c-.72,.54-1.25,1.12-1.61,1.74-.36,.63-.49,1.43-.4,2.41,.09,.45,.14,.94,.14,1.47s-.14,1.07-.4,1.61v.54c.36,1.52,.49,3.04,.4,4.56-.09,1.52-.14,3.04-.14,4.56,0,2.41-.13,4.83-.4,7.24-.18,1.88-.49,3.71-.94,5.5-.45,1.79-1.12,3.53-2.02,5.23-1.08,1.97-2.38,3.62-3.9,4.96-1.52,1.34-3.36,2.37-5.52,3.08-.9,.27-1.75,.52-2.55,.74-.81,.22-1.66,.29-2.56,.2-.45,0-.83,.05-1.14,.13-.31,.09-.65,.09-1.01,0-2.06-.09-4.08-.36-6.05-.8-1.97-.45-3.81-1.29-5.51-2.55-.99-.71-1.84-1.52-2.56-2.41-.72-.89-1.43-1.83-2.15-2.82-.81-1.25-1.41-2.57-1.82-3.95-.4-1.38-.79-2.79-1.14-4.22-.18-1.07-.36-2.15-.54-3.22-.18-1.07-.22-2.14-.13-3.22v-16.49c0-1.7-.67-3.04-2.01-4.02-.63-.45-1.21-.94-1.74-1.47s-1.07-1.03-1.61-1.47c-.09-.09-.13-.2-.13-.34s-.05-.25-.13-.34Zm4.02-.4h-.27c.09,.18,.14,.36,.14,.54h.13v-.54Zm7.51-.4c-.18-.45-.29-.71-.34-.8-.05-.09-.25-.22-.6-.4-.63-.18-1.23-.4-1.81-.67-.58-.27-1.18-.49-1.81-.67h-.54l-.67,.67c-.09,.45-.16,.83-.2,1.14-.05,.31-.07,.56-.07,.74,.18,.45,.29,.83,.34,1.14,.04,.31,.15,.65,.34,1.01h2.14c.27-.18,.54-.4,.8-.67,.27-.27,.63-.18,1.07,.27,.18-.36,.4-.67,.67-.94s.49-.54,.67-.8Zm-3.49,14.61c.18-.27,.31-.56,.4-.87,.09-.31,.22-.69,.4-1.14,.62,.63,1.25,.76,1.88,.4,.54,.18,.76,.43,.67,.74-.09,.31-.05,.56,.14,.74,.71,.09,1.38-.02,2.01-.34,.62-.31,1.29-.42,2.01-.34v-8.04c-.18-.09-.4-.27-.67-.54,.18-.18,.34-.29,.47-.34,.13-.04,.25-.11,.34-.2-.45-.54-.8-1.12-1.07-1.74-.18,.09-.36,.16-.54,.2-.18,.05-.4,.11-.67,.2,.09-.62-.02-1.18-.34-1.67-.31-.49-.25-1.01,.2-1.54-.18-.18-.27-.34-.27-.47s-.09-.34-.27-.6c-.18,.72-.29,1.32-.34,1.81-.05,.49-.16,1.01-.34,1.54-.36,.18-.69,.36-1.01,.54-.31,.18-.65,.36-1,.54,0,.36-.05,.58-.14,.67-.45,.18-.85,.31-1.21,.4-.36,.09-.72,.18-1.07,.27,.09,.45,.15,.83,.2,1.14,.05,.31,.07,.6,.07,.87l.54,.27c-.18,.36-.4,.67-.67,.94,.09,.27,.15,.56,.2,.87,.05,.31,.11,.6,.2,.87,0,.18,.02,.34,.07,.47,.04,.13,.02,.29-.07,.47-.36,.63-.47,1.25-.34,1.88,.13,.63,.2,1.3,.2,2.01Zm3.08-21.99c-.27-.45-.38-.96-.34-1.54,.04-.58-.16-1.09-.6-1.54h-1.88c-.09-.18-.13-.34-.13-.47s-.05-.29-.13-.47h-.13c.09,.72,.15,1.47,.2,2.28,.04,.8,.11,1.61,.2,2.41,.27-.18,.51-.36,.74-.54,.22-.18,.42-.36,.6-.54,.71,.18,1.21,.31,1.47,.4Zm-3.22,25.07v2.55h1.21c.18-.18,.34-.34,.47-.47l.47-.47c0-.45-.11-.78-.34-1.01-.22-.22-.43-.42-.6-.6h-1.21Zm2.68,5.63c-.8-.18-1.47,0-2.01,.54v2.82l1.88,.94c.27-.27,.6-.4,1.01-.4s.65-.27,.74-.8c-.18-.54-.34-1.07-.47-1.61s-.51-1.03-1.14-1.47Zm1.21,9.65c-.45-.18-.87-.34-1.27-.47-.4-.14-.83-.29-1.27-.47,.18,.72,.34,1.37,.47,1.95,.13,.58,.51,1.09,1.14,1.54,.18-.45,.44-.85,.8-1.21,.36-.35,.4-.8,.13-1.34Zm-1.88-20.65v.13l-.13-.13c0-.09,.05-.13,.13-.13v.13Zm.67-28.69c.27,.09,.63,.13,1.07,.13,.18,.27,.45,.58,.8,.94,0,.09,.22,.05,.67-.13-.18-.18-.34-.31-.47-.4-.13-.09-.29-.22-.47-.4v-1.74c-.18-.09-.36-.18-.54-.27-.18-.09-.4-.18-.67-.27-.18,.18-.34,.38-.47,.6-.13,.22-.25,.42-.34,.6,.09,.27,.22,.58,.4,.94Zm.27,31.91c0,.27-.02,.54-.07,.8-.05,.27-.07,.49-.07,.67,.27,.45,.56,.67,.87,.67s.6-.04,.87-.13c.18-.36,.34-.67,.47-.94,.13-.27,.11-.63-.07-1.07h-2.01Zm5.1,22.52l-1.21-1.21c-.18,.18-.36,.27-.54,.27l-.27-.13c-.45-.8-.56-1.65-.34-2.55,.22-.89,.2-1.83-.07-2.82-.18,.89-.36,1.74-.54,2.55s-.36,1.57-.54,2.28c-.27,.09-.54,.13-.8,.13-.09,.18-.18,.34-.27,.47-.09,.14-.18,.29-.27,.47,1.25,2.41,2.77,4.18,4.57,5.3,1.79,1.12,3.85,1.9,6.18,2.35-.18-.35-.36-.89-.54-1.61-.18,.09-.36,.14-.54,.14s-.36,.05-.54,.13c.18-.27,.31-.51,.4-.74,.09-.22,.22-.47,.4-.74,.72,.18,1.3,.31,1.75,.4,.54-.36,.99-.62,1.35-.8l-.81-.4v-1.47c-.72-.62-1.15-.94-1.28-.94s-.43,.22-.87,.67c.09,.18,.13,.36,.13,.54s.04,.45,.13,.8c-.63-.45-1.19-.85-1.68-1.21-.49-.36-1.01-.76-1.55-1.21h-1.35c-.18,.36-.32,.58-.4,.67h-.94c.09-.36,.22-.8,.4-1.34Zm-4.3-66.23c.09-.09,.13-.18,.13-.27s-.02-.14-.07-.14-.07-.04-.07-.13v.54Zm1.21,25.87c-.18,.18-.22,.27-.13,.27,0,.09,.02,.16,.07,.2,.04,.05,.07,.11,.07,.2v-.67Zm.54-13.01c.89,.36,1.47,.18,1.74-.54-.09-.45-.29-.69-.6-.74-.31-.04-.56-.15-.74-.34-.09-.27-.13-.67-.13-1.21-.09,0-.13,.02-.13,.07,0,.05-.05,.07-.13,.07v2.68Zm.4,30.57c-.09,.72-.13,1.36-.13,1.94s.22,1.1,.67,1.54c.54,0,.94-.04,1.21-.13v-.8c-.36-.45-.65-.87-.87-1.27-.22-.4-.52-.83-.87-1.27Zm.54-43.44c0,.18-.09,.27-.27,.27,.27,.18,.58,.36,.94,.54,.09-.09,.13-.18,.13-.27-.18-.09-.31-.18-.4-.27-.09-.09-.22-.18-.4-.27Zm.8,25.34l-.13-.14-.13,.14c.09,0,.18,.05,.27,.13v-.13Zm.13-2.41h.14v-1.74h-.14v1.74Zm12.2,5.9c.18-.18,.31-.27,.4-.27s.18-.05,.27-.13c.62-.72,1.23-1.43,1.81-2.15,.58-.71,1.18-1.43,1.81-2.15,.54-.54,.89-1.07,1.07-1.61,.18-.54,.27-1.16,.27-1.88-.18-3.04-.18-6.12,0-9.25,0-2.23-.27-4.38-.81-6.44-.27-1.07-.68-2.06-1.22-2.95-.54-.89-1.4-1.56-2.57-2.01-.72-.27-1.46-.45-2.23-.54-.77-.09-1.6-.04-2.5,.13-1.62,.45-2.84,1.25-3.65,2.41-.63,.72-1.06,1.54-1.29,2.48-.23,.94-.43,1.9-.61,2.88-.27,2.15-.4,4.38-.4,6.7v6.57c-.09,1.34,.36,2.5,1.34,3.49l4.42,4.83c-.72,.72-1.45,1.41-2.21,2.08-.76,.67-1.5,1.36-2.21,2.08-.98,.98-1.43,2.1-1.34,3.35,.09,3.22,.09,6.43,0,9.65-.09,3.22,0,6.39,.27,9.52,.27,1.52,.77,3.17,1.49,4.96,.72,1.34,1.71,2.28,2.98,2.82,.45,.18,.93,.31,1.42,.4,.49,.09,.97,.13,1.42,.13,1.89-.09,3.38-.58,4.46-1.47,1.08-.89,1.89-2.14,2.44-3.75,.54-1.88,.81-3.8,.81-5.77-.18-5.36-.18-10.77,0-16.22,0-1.43-.54-2.68-1.61-3.75-.72-.71-1.39-1.41-2.01-2.08-.63-.67-1.3-1.36-2.01-2.08Zm-4.16,43.57c.09,.27,.11,.54,.07,.8-.05,.27,.25,.45,.87,.54-.27-.36-.58-.8-.94-1.34Zm6.57-.67c.18-.71-.09-1.34-.8-1.88h-1.47c-.8,1.16-.8,2.28,0,3.35,.45-.18,.89-.31,1.34-.4,.45-.09,.76-.45,.94-1.07Zm.94-1.34v.13h.54v-.13h-.54Zm.14-41.56c.27,.27,.51,.52,.74,.74,.22,.23,.47,.52,.74,.87,.18-.36,.35-.8,.54-1.34-.36-.18-.67-.34-.94-.47s-.63-.07-1.07,.2Zm.67,39.82c.09,0,.14-.04,.14-.13h-.14l-.13,.13h.13Zm.94,2.28c0-.18-.05-.27-.13-.27-.27,0-.45,.05-.54,.13v.13h.67Zm.27-6.43h.27c-.09-.27-.13-.76-.13-1.47l-.67,.67c.18,.18,.29,.31,.34,.4s.11,.22,.2,.4Zm7.89-8.58v-.13h.14c-.09,.27-.14,.63-.14,1.07-.72,0-1.15-.07-1.28-.2-.13-.13-.34-.56-.61-1.27l-.27-.27c-.18,.09-.29,.13-.34,.13-.05,0-.16,.05-.34,.13-.09-.09-.13-.18-.13-.27l-.13-.13c.27-.36,.63-.71,1.08-1.07,.18,.09,.4,.16,.67,.2,.27,.05,.49,.11,.68,.2l.81-.4c.18-.09,.45-.31,.81-.67-.36,0-.65,.02-.88,.07-.23,.05-.43,.02-.61-.07-.36-.09-.7-.18-1.01-.27-.31-.09-.56-.27-.74-.54-.36-.54-.76-.94-1.21-1.21s-1.03-.58-1.75-.94c.18,1.25,.16,2.5-.07,3.75-.22,1.25-.25,2.5-.07,3.75,.36-.27,.81-.67,1.35-1.21h1.75c.27,.45,.52,.89,.74,1.34,.22,.45,.47,.89,.74,1.34l.4-.4c.09-.09,.22-.22,.4-.4,.18,0,.36-.02,.54-.07s.4-.07,.67-.07c-.36-.45-.54-.89-.54-1.34s-.23-.8-.67-1.07Zm-5.12-40.09c.72,0,1.21,.05,1.48,.13,0-.27-.02-.49-.07-.67s-.11-.4-.2-.67l-1.21,1.21Zm.14,24h.13v-1.61h-.13v1.61Zm1.12,10.06c.27-.45,.4-.69,.4-.74s-.22-.11-.67-.2c.09,.18,.13,.34,.13,.47s.04,.29,.13,.47Zm1.04,7.51h-1.07c0,.09-.05,.13-.13,.13,.18,.09,.34,.18,.47,.27,.14,.09,.29,.18,.47,.27,.09-.18,.18-.4,.27-.67Zm-1.04-23.6v-.13l-.13,.13,.13,.14v-.14Zm.8,.27c.18,.27,.34,.54,.47,.8,.14,.27,.29,.49,.47,.67,.72,0,1.16-.27,1.34-.8v-.8c-.27-.18-.58-.36-.94-.54-.18,.18-.38,.29-.6,.34-.22,.05-.47,.16-.74,.34Zm1.88,16.09c-.27,.27-.49,.51-.67,.74-.18,.22-.4,.47-.67,.74,.45,.09,.78,.14,1.01,.14h.87c-.27-.45-.45-.98-.54-1.61Zm.4,9.25l-.27,.54,.27,.27c.18-.18,.27-.31,.27-.4-.09,0-.14-.04-.14-.13-.09-.09-.13-.18-.13-.27Zm.13,4.83h.14v-.54h-.14v.54Zm.67-28.69c.09,0,.18-.05,.27-.13,0-.09-.02-.16-.07-.2-.05-.05-.07-.15-.07-.34h-.13v.67Zm.27,12.74l-.14-.13-.13,.13h.27Zm1.47-31.1h-.27c0,.09,.09,.13,.27,.13v-.13Zm1.47,14.48c.09-.63-.18-1.07-.8-1.34-.18,.18-.29,.31-.34,.4-.05,.09-.16,.18-.34,.27,.27,.72,.76,.94,1.47,.67Zm-1.34-10.46v.13c0,.09,.04,.14,.13,.14v-.27h-.13Z"/><path class="cls-1" d="M262.96,121.05c.71-.89,1.43-1.74,2.14-2.55,.72-.8,1.43-1.56,2.15-2.28,.89-.89,1.34-1.96,1.34-3.22,0-2.06-.02-4.04-.07-5.97-.05-1.92-.02-3.87,.07-5.83,.09-2.59,.45-5.07,1.08-7.44,.63-2.37,1.62-4.63,2.96-6.77,1.88-3.22,4.75-5.45,8.61-6.7,3.05-.98,6.37-1.34,9.96-1.07,1.61,.18,3.18,.54,4.71,1.07,1.52,.54,2.96,1.3,4.31,2.28,.81,.72,1.59,1.43,2.36,2.14,.76,.72,1.41,1.57,1.95,2.55,.72,1.25,1.32,2.53,1.82,3.82,.49,1.3,.87,2.66,1.14,4.09,.36,2.06,.63,4.07,.81,6.03,.18,1.25,.27,2.55,.27,3.89v3.89c0,.45-.09,1.03-.27,1.74v.67c.27,.45,.38,.85,.34,1.21-.05,.36-.07,.76-.07,1.21,0,.89,.36,1.7,1.07,2.41,.71,.8,1.45,1.61,2.21,2.41,.76,.8,1.54,1.66,2.35,2.55l-3.62,3.22c-.72,.54-1.25,1.12-1.61,1.74-.36,.63-.49,1.43-.4,2.41,.09,.45,.14,.94,.14,1.47s-.14,1.07-.4,1.61v.54c.36,1.52,.49,3.04,.4,4.56-.09,1.52-.14,3.04-.14,4.56,0,2.41-.13,4.83-.4,7.24-.18,1.88-.49,3.71-.94,5.5-.45,1.79-1.12,3.53-2.02,5.23-1.08,1.97-2.38,3.62-3.9,4.96-1.52,1.34-3.36,2.37-5.52,3.08-.9,.27-1.75,.52-2.55,.74-.81,.22-1.66,.29-2.56,.2-.45,0-.83,.05-1.14,.13-.31,.09-.65,.09-1.01,0-2.06-.09-4.08-.36-6.05-.8-1.97-.45-3.81-1.29-5.51-2.55-.99-.71-1.84-1.52-2.56-2.41-.72-.89-1.43-1.83-2.15-2.82-.81-1.25-1.41-2.57-1.82-3.95-.4-1.38-.79-2.79-1.14-4.22-.18-1.07-.36-2.15-.54-3.22-.18-1.07-.22-2.14-.13-3.22v-16.49c0-1.7-.67-3.04-2.01-4.02-.63-.45-1.21-.94-1.74-1.47-.54-.54-1.07-1.03-1.61-1.47-.09-.09-.13-.2-.13-.34s-.05-.25-.13-.34Zm4.02-.4h-.27c.09,.18,.14,.36,.14,.54h.13v-.54Zm7.51-.4c-.18-.45-.29-.71-.34-.8-.05-.09-.25-.22-.6-.4-.63-.18-1.23-.4-1.81-.67-.58-.27-1.18-.49-1.81-.67h-.54l-.67,.67c-.09,.45-.16,.83-.2,1.14-.05,.31-.07,.56-.07,.74,.18,.45,.29,.83,.34,1.14,.04,.31,.15,.65,.34,1.01h2.14c.27-.18,.54-.4,.8-.67,.27-.27,.63-.18,1.07,.27,.18-.36,.4-.67,.67-.94s.49-.54,.67-.8Zm-3.49,14.61c.18-.27,.31-.56,.4-.87,.09-.31,.22-.69,.4-1.14,.62,.63,1.25,.76,1.88,.4,.54,.18,.76,.43,.67,.74-.09,.31-.05,.56,.14,.74,.71,.09,1.38-.02,2.01-.34,.62-.31,1.29-.42,2.01-.34v-8.04c-.18-.09-.4-.27-.67-.54,.18-.18,.34-.29,.47-.34,.13-.04,.25-.11,.34-.2-.45-.54-.8-1.12-1.07-1.74-.18,.09-.36,.16-.54,.2-.18,.05-.4,.11-.67,.2,.09-.62-.02-1.18-.34-1.67-.31-.49-.25-1.01,.2-1.54-.18-.18-.27-.34-.27-.47s-.09-.34-.27-.6c-.18,.72-.29,1.32-.34,1.81-.05,.49-.16,1.01-.34,1.54-.36,.18-.69,.36-1.01,.54-.31,.18-.65,.36-1,.54,0,.36-.05,.58-.14,.67-.45,.18-.85,.31-1.21,.4-.36,.09-.72,.18-1.07,.27,.09,.45,.15,.83,.2,1.14,.05,.31,.07,.6,.07,.87l.54,.27c-.18,.36-.4,.67-.67,.94,.09,.27,.15,.56,.2,.87,.05,.31,.11,.6,.2,.87,0,.18,.02,.34,.07,.47,.04,.13,.02,.29-.07,.47-.36,.63-.47,1.25-.34,1.88,.13,.63,.2,1.3,.2,2.01Zm3.08-21.99c-.27-.45-.38-.96-.34-1.54,.04-.58-.16-1.09-.6-1.54h-1.88c-.09-.18-.13-.34-.13-.47s-.05-.29-.13-.47h-.13c.09,.72,.15,1.47,.2,2.28,.04,.8,.11,1.61,.2,2.41,.27-.18,.51-.36,.74-.54,.22-.18,.42-.36,.6-.54,.71,.18,1.21,.31,1.47,.4Zm-3.22,25.07v2.55h1.21c.18-.18,.34-.34,.47-.47l.47-.47c0-.45-.11-.78-.34-1.01-.22-.22-.43-.42-.6-.6h-1.21Zm2.68,5.63c-.8-.18-1.47,0-2.01,.54v2.82l1.88,.94c.27-.27,.6-.4,1.01-.4s.65-.27,.74-.8c-.18-.54-.34-1.07-.47-1.61s-.51-1.03-1.14-1.47Zm1.21,9.65c-.45-.18-.87-.34-1.27-.47-.4-.14-.83-.29-1.27-.47,.18,.72,.34,1.37,.47,1.95,.13,.58,.51,1.09,1.14,1.54,.18-.45,.44-.85,.8-1.21,.36-.35,.4-.8,.13-1.34Zm-1.88-20.65v.13l-.13-.13c0-.09,.05-.13,.13-.13v.13Zm.67-28.69c.27,.09,.63,.13,1.07,.13,.18,.27,.45,.58,.8,.94,0,.09,.22,.05,.67-.13-.18-.18-.34-.31-.47-.4-.13-.09-.29-.22-.47-.4v-1.74c-.18-.09-.36-.18-.54-.27-.18-.09-.4-.18-.67-.27-.18,.18-.34,.38-.47,.6-.13,.22-.25,.42-.34,.6,.09,.27,.22,.58,.4,.94Zm.27,31.91c0,.27-.02,.54-.07,.8-.05,.27-.07,.49-.07,.67,.27,.45,.56,.67,.87,.67s.6-.04,.87-.13c.18-.36,.34-.67,.47-.94,.13-.27,.11-.63-.07-1.07h-2.01Zm5.1,22.52l-1.21-1.21c-.18,.18-.36,.27-.54,.27l-.27-.13c-.45-.8-.56-1.65-.34-2.55,.22-.89,.2-1.83-.07-2.82-.18,.89-.36,1.74-.54,2.55s-.36,1.57-.54,2.28c-.27,.09-.54,.13-.8,.13-.09,.18-.18,.34-.27,.47-.09,.14-.18,.29-.27,.47,1.25,2.41,2.77,4.18,4.57,5.3,1.79,1.12,3.85,1.9,6.18,2.35-.18-.35-.36-.89-.54-1.61-.18,.09-.36,.14-.54,.14s-.36,.05-.54,.13c.18-.27,.31-.51,.4-.74,.09-.22,.22-.47,.4-.74,.72,.18,1.3,.31,1.75,.4,.54-.36,.99-.62,1.35-.8l-.81-.4v-1.47c-.72-.62-1.15-.94-1.28-.94s-.43,.22-.87,.67c.09,.18,.13,.36,.13,.54s.04,.45,.13,.8c-.63-.45-1.19-.85-1.68-1.21-.49-.36-1.01-.76-1.55-1.21h-1.35c-.18,.36-.32,.58-.4,.67h-.94c.09-.36,.22-.8,.4-1.34Zm-4.3-66.23c.09-.09,.13-.18,.13-.27s-.02-.14-.07-.14-.07-.04-.07-.13v.54Zm1.21,25.87c-.18,.18-.22,.27-.13,.27,0,.09,.02,.16,.07,.2,.04,.05,.07,.11,.07,.2v-.67Zm.54-13.01c.89,.36,1.47,.18,1.74-.54-.09-.45-.29-.69-.6-.74-.31-.04-.56-.15-.74-.34-.09-.27-.13-.67-.13-1.21-.09,0-.13,.02-.13,.07,0,.05-.05,.07-.13,.07v2.68Zm.4,30.57c-.09,.72-.13,1.36-.13,1.94s.22,1.1,.67,1.54c.54,0,.94-.04,1.21-.13v-.8c-.36-.45-.65-.87-.87-1.27-.22-.4-.52-.83-.87-1.27Zm.54-43.44c0,.18-.09,.27-.27,.27,.27,.18,.58,.36,.94,.54,.09-.09,.13-.18,.13-.27-.18-.09-.31-.18-.4-.27-.09-.09-.22-.18-.4-.27Zm.8,25.34l-.13-.14-.13,.14c.09,0,.18,.05,.27,.13v-.13Zm.13-2.41h.14v-1.74h-.14v1.74Zm12.2,5.9c.18-.18,.31-.27,.4-.27s.18-.05,.27-.13c.62-.72,1.23-1.43,1.81-2.15,.58-.71,1.18-1.43,1.81-2.15,.54-.54,.89-1.07,1.07-1.61,.18-.54,.27-1.16,.27-1.88-.18-3.04-.18-6.12,0-9.25,0-2.23-.27-4.38-.81-6.44-.27-1.07-.68-2.06-1.22-2.95-.54-.89-1.4-1.56-2.57-2.01-.72-.27-1.46-.45-2.23-.54-.77-.09-1.6-.04-2.5,.13-1.62,.45-2.84,1.25-3.65,2.41-.63,.72-1.06,1.54-1.29,2.48s-.43,1.9-.61,2.88c-.27,2.15-.4,4.38-.4,6.7v6.57c-.09,1.34,.36,2.5,1.34,3.49l4.42,4.83c-.72,.72-1.45,1.41-2.21,2.08-.76,.67-1.5,1.36-2.21,2.08-.98,.98-1.43,2.1-1.34,3.35,.09,3.22,.09,6.43,0,9.65-.09,3.22,0,6.39,.27,9.52,.27,1.52,.77,3.17,1.49,4.96,.72,1.34,1.71,2.28,2.98,2.82,.45,.18,.93,.31,1.42,.4,.49,.09,.97,.13,1.42,.13,1.89-.09,3.38-.58,4.46-1.47,1.08-.89,1.89-2.14,2.44-3.75,.54-1.88,.81-3.8,.81-5.77-.18-5.36-.18-10.77,0-16.22,0-1.43-.54-2.68-1.61-3.75-.72-.71-1.39-1.41-2.01-2.08-.63-.67-1.3-1.36-2.01-2.08Zm-4.16,43.57c.09,.27,.11,.54,.07,.8-.05,.27,.25,.45,.87,.54-.27-.36-.58-.8-.94-1.34Zm6.57-.67c.18-.71-.09-1.34-.8-1.88h-1.47c-.8,1.16-.8,2.28,0,3.35,.45-.18,.89-.31,1.34-.4,.45-.09,.76-.45,.94-1.07Zm.94-1.34v.13h.54v-.13h-.54Zm.14-41.56c.27,.27,.51,.52,.74,.74,.22,.23,.47,.52,.74,.87,.18-.36,.35-.8,.54-1.34-.36-.18-.67-.34-.94-.47s-.63-.07-1.07,.2Zm.67,39.82c.09,0,.14-.04,.14-.13h-.14l-.13,.13h.13Zm.94,2.28c0-.18-.05-.27-.13-.27-.27,0-.45,.05-.54,.13v.13h.67Zm.27-6.43h.27c-.09-.27-.13-.76-.13-1.47l-.67,.67c.18,.18,.29,.31,.34,.4s.11,.22,.2,.4Zm7.89-8.58v-.13h.14c-.09,.27-.14,.63-.14,1.07-.72,0-1.15-.07-1.28-.2-.13-.13-.34-.56-.61-1.27l-.27-.27c-.18,.09-.29,.13-.34,.13-.05,0-.16,.05-.34,.13-.09-.09-.13-.18-.13-.27l-.13-.13c.27-.36,.63-.71,1.08-1.07,.18,.09,.4,.16,.67,.2,.27,.05,.49,.11,.68,.2l.81-.4c.18-.09,.45-.31,.81-.67-.36,0-.65,.02-.88,.07-.23,.05-.43,.02-.61-.07-.36-.09-.7-.18-1.01-.27-.31-.09-.56-.27-.74-.54-.36-.54-.76-.94-1.21-1.21s-1.03-.58-1.75-.94c.18,1.25,.16,2.5-.07,3.75-.22,1.25-.25,2.5-.07,3.75,.36-.27,.81-.67,1.35-1.21h1.75c.27,.45,.52,.89,.74,1.34,.22,.45,.47,.89,.74,1.34l.4-.4c.09-.09,.22-.22,.4-.4,.18,0,.36-.02,.54-.07s.4-.07,.67-.07c-.36-.45-.54-.89-.54-1.34s-.23-.8-.67-1.07Zm-5.12-40.09c.72,0,1.21,.05,1.48,.13,0-.27-.02-.49-.07-.67s-.11-.4-.2-.67l-1.21,1.21Zm.14,24h.13v-1.61h-.13v1.61Zm1.12,10.06c.27-.45,.4-.69,.4-.74s-.22-.11-.67-.2c.09,.18,.13,.34,.13,.47s.04,.29,.13,.47Zm1.04,7.51h-1.07c0,.09-.05,.13-.13,.13,.18,.09,.34,.18,.47,.27,.14,.09,.29,.18,.47,.27,.09-.18,.18-.4,.27-.67Zm-1.04-23.6v-.13l-.13,.13,.13,.14v-.14Zm.8,.27c.18,.27,.34,.54,.47,.8,.14,.27,.29,.49,.47,.67,.72,0,1.16-.27,1.34-.8v-.8c-.27-.18-.58-.36-.94-.54-.18,.18-.38,.29-.6,.34-.22,.05-.47,.16-.74,.34Zm1.88,16.09c-.27,.27-.49,.51-.67,.74-.18,.22-.4,.47-.67,.74,.45,.09,.78,.14,1.01,.14h.87c-.27-.45-.45-.98-.54-1.61Zm.4,9.25l-.27,.54,.27,.27c.18-.18,.27-.31,.27-.4-.09,0-.14-.04-.14-.13-.09-.09-.13-.18-.13-.27Zm.13,4.83h.14v-.54h-.14v.54Zm.67-28.69c.09,0,.18-.05,.27-.13,0-.09-.02-.16-.07-.2-.05-.05-.07-.15-.07-.34h-.13v.67Zm.27,12.74l-.14-.13-.13,.13h.27Zm1.47-31.1h-.27c0,.09,.09,.13,.27,.13v-.13Zm1.47,14.48c.09-.63-.18-1.07-.8-1.34-.18,.18-.29,.31-.34,.4-.05,.09-.16,.18-.34,.27,.27,.72,.76,.94,1.47,.67Zm-1.34-10.46v.13c0,.09,.04,.14,.13,.14v-.27h-.13Z"/><path class="cls-1" d="M369.68,80.83l.27,.27,.14,.27v10.73c-.98,.18-1.94,.22-2.88,.13-.94-.09-1.9-.09-2.88,0,0,.18-.02,.38-.07,.6-.05,.22-.07,.42-.07,.6v19c0,1.61,.49,2.9,1.47,3.88l3.62,4.01c.09,.09,.27,.36,.54,.8-.72,.71-1.41,1.38-2.08,2.01-.67,.62-1.36,1.29-2.08,2.01-.98,.98-1.47,2.09-1.47,3.34v26.36c.09,.09,.13,.18,.13,.27h5.5c.45,.27,.67,.59,.67,.95v.95c-.18,.72-.25,1.38-.2,1.97s.11,1.2,.2,1.83c.09,.73,.11,1.47,.07,2.24-.05,.77-.07,1.52-.07,2.24v.81c-.09,.09-.16,.18-.2,.27s-.11,.18-.2,.27h-16.36c-3.31-10.37-6.57-20.6-9.79-30.7-3.22-10.1-6.48-20.29-9.79-30.57-.09,.27-.13,1.61-.13,4.02s-.02,5.39-.07,8.92c-.05,3.53-.07,7.35-.07,11.46v11.6c0,3.62,.02,6.7,.07,9.25,.04,2.55,.07,4.04,.07,4.49h4.96v11.53h-21.18v-11.4h5.77v-25.69c0-.98-.14-1.89-.4-2.74-.27-.85-.8-1.58-1.61-2.21-.63-.44-1.21-.93-1.74-1.47-.54-.54-1.07-1.03-1.61-1.47-.09-.09-.13-.18-.13-.27s-.05-.18-.14-.27c.18-.36,.31-.58,.4-.67,.71-.71,1.41-1.47,2.08-2.27s1.36-1.56,2.08-2.28c.71-.71,1.07-1.52,1.07-2.41v-21.27h-5.77v-11.4h18.23c.89,2.68,1.76,5.39,2.61,8.11,.85,2.73,1.72,5.43,2.61,8.11,.72,2.15,1.36,4.29,1.94,6.44,.58,2.14,1.23,4.29,1.94,6.43,.72,2.15,1.41,4.31,2.08,6.5,.67,2.19,1.36,4.36,2.08,6.5,.71,2.14,1.38,4.27,2.01,6.37,.63,2.1,1.25,4.18,1.88,6.23,.18,.45,.34,.92,.47,1.41,.13,.49,.29,1.05,.47,1.68v-46.39h-5.36v-11.4h20.91Zm-40.22,3.35c0,.27,.02,.54,.07,.8,.04,.27,.07,.54,.07,.8,.72,0,1.16-.05,1.34-.13,.18-.09,.31-.31,.4-.67,.09-.63-.18-1.07-.8-1.34-.18,.09-.36,.18-.54,.27-.18,.09-.36,.18-.54,.27Zm.4,5.76c.62,0,1.07-.04,1.34-.13,.54-.18,.67-.54,.4-1.07,0-.18-.22-.4-.67-.67-.45-.09-.8,.13-1.07,.67v1.21Zm3.75-4.56c.18,.09,.36,.16,.54,.2,.18,.05,.4,.16,.67,.34-.18-.71-.49-1.56-.94-2.55-.27,.45-.38,.8-.34,1.07,.04,.27,.07,.58,.07,.94Zm3.48,7.64c-.27-.62-.43-1.14-.47-1.54-.05-.4-.25-.78-.6-1.14-.45,.36-.65,.69-.6,1,.05,.31,.02,.69-.07,1.14,.36,.09,.94,.27,1.74,.54Zm1.61,13.41l-.13-.13h-.13c0,.09,.04,.13,.13,.13h.13Zm19.98-14.34c-.27,.27-.36,.4-.27,.4,0,.18,.09,.27,.27,.27s.27-.09,.27-.27c0-.09-.09-.22-.27-.4Zm2.75,20.24s.11,.05,.2,.13c-.18-.09-.25-.13-.2-.13Z"/><path class="cls-2" d="M15,150.14c-3.07,2.23-6.09,4.43-9.12,6.63-.06-.03-.12-.06-.18-.09,1.15-3.57,2.3-7.13,3.48-10.76-3.05-2.23-6.12-4.46-9.18-6.7l.05-.16H.8c3.32,0,6.63-.01,9.95,.01,.53,0,.74-.19,.89-.66,1.03-3.24,2.09-6.47,3.14-9.71,.06-.18,.12-.36,.23-.68,.58,1.76,1.11,3.4,1.64,5.03,.58,1.79,1.17,3.57,1.72,5.37,.15,.49,.38,.65,.9,.65,3.29-.03,6.58-.01,9.88-.01h.78c.03,.05,.05,.1,.08,.16-3.06,2.23-6.11,4.45-9.19,6.7,1.17,3.61,2.33,7.2,3.49,10.78-.05,.03-.1,.07-.15,.1-3.04-2.21-6.07-4.41-9.15-6.65Z"/><path class="cls-2" d="M499.8,150.14c-3.07,2.23-6.09,4.43-9.12,6.63-.06-.03-.12-.06-.18-.09,1.15-3.57,2.3-7.13,3.48-10.76-3.05-2.23-6.12-4.46-9.18-6.7l.05-.16h.75c3.32,0,6.63-.01,9.95,.01,.53,0,.74-.19,.89-.66,1.03-3.24,2.09-6.47,3.14-9.71,.06-.18,.12-.36,.23-.68,.58,1.76,1.11,3.4,1.64,5.03,.58,1.79,1.17,3.57,1.72,5.37,.15,.49,.38,.65,.9,.65,3.29-.03,6.58-.01,9.88-.01h.78c.03,.05,.05,.1,.08,.16-3.06,2.23-6.11,4.45-9.19,6.7,1.17,3.61,2.33,7.2,3.49,10.78-.05,.03-.1,.07-.15,.1-3.04-2.21-6.07-4.41-9.15-6.65Z"/><path class="cls-1" d="M450.53,216.42c-3.39,0-6.49-.14-9.32-.42-6.78-.85-11.86-4.45-15.24-10.8-1.55-2.4-2.93-6.25-4.13-11.54-1.2-5.29-1.8-12.17-1.8-20.64,.14-2.12,.21-4.73,.21-7.83l-.21-4.45,.21-6.14c0-2.96-1.06-5.29-3.18-6.99l-2.33-2.12c-1.55-1.27-2.75-2.54-3.6-3.81l8.26-9.1c.56-1.13,.85-2.4,.85-3.81l-.21-1.48,.21-2.75v-12.7c.14-2.54,.49-5.22,1.06-8.05,.99-5.93,2.33-10.44,4.02-13.55,3.1-5.36,6.99-8.89,11.64-10.59,1.97-1.13,5.29-1.69,9.95-1.69,4.66,.71,7.97,1.55,9.95,2.54,9.03,4.8,13.55,14.61,13.55,29.43l-.21,5.29h-14.82c-.28-.56-.42-1.13-.42-1.69l.21-3.18c0-5.93-.88-9.88-2.65-11.86-1.77-1.97-3.18-2.96-4.23-2.96s-1.94-.07-2.65-.21c-3.39,0-5.65,1.69-6.78,5.08-1.55,4.1-2.33,11.36-2.33,21.81l.21,9.32-.21,9.32,1.48-1.91c1.13-1.83,2.75-3.25,4.87-4.23,2.82-1.27,5.43-1.91,7.83-1.91,3.53,0,6.88,1.13,10.06,3.39,3.18,2.26,5.47,5.37,6.88,9.32,2.54,7.06,3.81,12.42,3.81,16.09,0,.71,.21,1.34,.64,1.91,1.41,2.82,2.89,4.8,4.45,5.93,1.55,1.13,3.03,2.26,4.45,3.39-.57,1.13-1.31,1.87-2.22,2.22-.92,.35-1.73,.88-2.44,1.59-.71,.71-1.41,1.38-2.12,2.01-.71,.63-1.34,1.31-1.9,2.01-.71,5.79-1.34,9.95-1.91,12.49-2.68,12.7-8.89,20.4-18.63,23.08l-1.27,.21Zm-27.95-70.08c.14,0,.35-.03,.63-.11,.28-.07,.56-.46,.85-1.16-.28-.14-.5-.32-.63-.53-.14-.21-.42-.53-.85-.95v.63c0,.28-.18,.42-.53,.42s-.6,.07-.74,.21l.21,1.27,1.06,.21Zm5.93,25.41l2.12-1.06c.28,.14,.49,.21,.64,.21s.28,.07,.42,.21c.56-.56,.85-1.27,.85-2.12l-.21-2.33c-3.39-1.69-5.44-2.54-6.14-2.54-.71,.14-1.34,.57-1.91,1.27v1.27l-.21,.63,1.06,4.45h3.39Zm3.81,17.15v-15.24c-.28,.28-.63,.85-1.06,1.69-1.27,0-2.26,.07-2.96,.21l.64,1.69-1.27,1.48,1.48,1.69c-.71,.14-1.91,.21-3.6,.21v1.48c.85,.28,1.59,.56,2.22,.85,.64,.28,1.02,.92,1.16,1.91l-1.06,1.27c.56,.71,1.2,1.06,1.91,1.06l1.06-.21c.42,.42,.92,1.06,1.48,1.91Zm-6.78-.21c.56,0,.85-.14,.85-.42h-.85v.42Zm3.18,11.86l2.33-.63v-2.75c-.71-.56-1.34-.85-1.91-.85-.71,0-1.41,.35-2.12,1.06l1.69,3.18Zm-.21-42.56c1.13-1.27,2.61-1.91,4.45-1.91,.14,.28,.21,.63,.21,1.06l.42-.21-.63-.85c0-1.98-.28-3.31-.85-4.02-1.69,0-2.89,.28-3.6,.85v5.08Zm4.23-15.24v-3.18c-.57,.71-.85,1.34-.85,1.91,0,.42,.28,.85,.85,1.27Zm.85,65.21c.14,0,.28-.14,.42-.42h-1.06v-.21c.14,.42,.35,.63,.63,.63Zm10.59-8.68c3.25,0,5.5-.56,6.78-1.69,.42-.7,.99-1.45,1.69-2.22,.7-.77,1.41-2.93,2.12-6.46,.28-1.41,.42-9.74,.42-24.98,0-3.53-.85-6.92-2.54-10.16-1.41-2.68-3.6-4.02-6.56-4.02-1.55,.14-2.89,.42-4.02,.85-3.81,1.56-5.72,8.47-5.72,20.75,0,11.29,.24,17.68,.74,19.16,.49,1.48,1.02,2.86,1.59,4.13,.85,2.12,2.68,3.67,5.5,4.66Zm3.39-107.98c0-.42-.11-.74-.32-.95-.21-.21-.39-.39-.53-.53l-.42,.21c.28,.28,.56,.71,.85,1.27h.42Zm2.33,45.95v-.21h-1.06v.21h1.06Zm4.66,65.64c.42,0,.77-.35,1.06-1.06-.14-.28-.28-.46-.42-.53-.14-.07-.28-.18-.42-.32-.28,.28-.6,.46-.95,.53-.35,.07-.67,.25-.95,.53v.63h1.69v.21Zm.21-53.78l1.91-1.69h2.33l.42,1.06,.42-.21-.85-4.24c-.99-.99-1.69-1.48-2.12-1.48-.57,.14-1.34,.78-2.33,1.91,0,.99,.07,1.69,.21,2.12v2.54Zm3.81,54.2c1.13-.85,1.8-1.48,2.01-1.91,.21-.42,.32-.77,.32-1.06,0-.99-.5-1.69-1.48-2.12h-1.69l-1.48,1.27c.14,.71,.21,1.62,.21,2.75l2.12,1.06Zm4.87-20.96c2.12-1.27,4.02-2.75,5.72-4.45,1.69-1.69,3.46-3.39,5.29-5.08l-5.93-5.5h-.64l-1.06,1.06-1.27-.21c.42-.85,.64-1.41,.64-1.69l-1.91-2.12c-.14,.14-.28,.21-.42,.21s-.35,.14-.64,.42c-.42-1.27-.63-2.61-.63-4.02l.21-1.06c0-1.41-.14-2.82-.42-4.23l-1.48,8.05c-.57,0-1.06,.07-1.48,.21-.42,1.27-.64,6.07-.64,14.4l1.48,4.02c.28,0,.53-.07,.74-.21,.21-.14,.46-.21,.74-.21,.56,0,1.13,.14,1.69,.42Zm-4.66-21.38l1.48-1.69c-.28-.28-.5-.56-.64-.85-.14-.28-.42-.64-.85-1.06v3.6Zm3.39,24.14c-.14-.14-.21-.42-.21-.85h-.21v.85h.42Zm.21-84.48l.21-.21-.21-.21v.42Zm1.91,98.66l.85-2.75-1.91-.85c.14,.42,.21,1.06,.21,1.91l-.21,.21c0,.57,.35,1.06,1.06,1.48Zm.42-10.16c.42-.56,.64-1.27,.64-2.12-.28-.7-.42-1.41-.42-2.12-.42,.42-.92,.78-1.48,1.06l1.27,3.18Z"/><path class="cls-2" d="M228.56,16.63c-1.74,0-2.79,0-3.12-.03,0-.02,0-.03-.03-.03v-2.13c.1-.02,.25-.03,.46-.03l.33,.03c.12,0,.23,0,.33-.03v-4.9c0-.36-.12-.64-.37-.85-.25-.21-.41-.36-.5-.44-.03-.03-.07-.07-.11-.1-.04-.03-.07-.09-.09-.18l.05-.08c.13-.13,.26-.28,.38-.43,.12-.15,.25-.3,.41-.44,.15-.14,.23-.33,.23-.57V2.49h-1.09c-.03-.15-.05-.3-.05-.43l.03-.41-.03-.61,.03-.18V.36c.1-.05,1.69-.08,4.77-.08,1.25,0,2.13,0,2.63,.01s.87,.01,1.1,.01c.02,.17,.03,1.7,.03,4.59-.03,.02-.06,.03-.09,.05-.03,.02-.06,.03-.09,.03-.08-.02-.19-.03-.3-.03-.24,.03-.56,.05-.96,.05-.19,0-.36-.03-.51-.08v-1.14l-.03-.1,.03-.25c0-.2-.08-.4-.23-.58s-.31-.3-.48-.33c-.1-.03-.91-.05-2.44-.05V6.78l.15,.03c.19,0,.38-.09,.58-.28,.2-.19,.3-.43,.3-.74,.14-.07,.31-.1,.53-.1s.57,.03,1.04,.08c.07,.15,.1,.3,.1,.46,0,1.61-.01,2.45-.04,2.53s-.04,.17-.04,.27c0,.03,.01,.06,.04,.09s.04,.05,.04,.09-.01,.06-.04,.09-.04,.05-.04,.06l.03,.05c.03,.08,.05,.16,.05,.23s-.01,.14-.04,.2-.04,.14-.04,.23l.03,.18h-1.6c0-.34-.14-.63-.43-.86-.15-.12-.3-.18-.43-.18l-.2,.03v5.2l.53,.03,.38-.03c.25,0,.47,0,.66,.03h1.55c0-.05,0-.1,.01-.15s.01-.41,.01-1.08,0-1.03,.01-1.09c0-.06,.01-.12,.01-.19l-.03-.33,.03-.03h1.88c.03,.14,.05,1.09,.05,2.87,0,1.07,0,1.77-.03,2.11-.15,.05-1.94,.08-5.36,.08Zm-2.34-14.7c.05-.03,.1-.06,.15-.09s.09-.05,.13-.09v-.25c-.05-.05-.13-.11-.23-.18-.05,.05-.13,.11-.23,.18v.25l.18,.18Zm.41,5.86l.2-.03-.25-.18c.02,.12,.03,.19,.05,.2Zm.33-.61c.08-.02,.23-.03,.43-.03,.03-.03,.08-.06,.13-.08,.05-.02,.09-.04,.13-.08l.13,.08c0-.1,.04-.17,.11-.2,.08-.03,.11-.08,.11-.15l-.03-.1c-.19-.03-.34-.1-.47-.19-.13-.09-.26-.14-.39-.14l-.15,.03v.86Zm4.09,2.62v-.91c-.14-.07-.29-.1-.46-.1,0,.05-.02,.13-.05,.23-.05-.05-.11-.09-.18-.13l.15-.15c-.07-.05-.11-.11-.13-.19s-.07-.13-.15-.17l.05-.08c-.05-.02-.1-.03-.15-.04s-.09-.05-.13-.14l.08-.2c-.02-.08-.03-.16-.04-.23,0-.07-.02-.12-.04-.17-.02-.04-.03-.06-.05-.06,0,.15-.03,.24-.08,.27s-.09,.05-.13,.06c-.3-.19-.55-.3-.72-.36-.18-.05-.39-.08-.62-.08-.08-.1-.13-.23-.13-.38l.03-.25-.03-.2-.18,.76c-.14,0-.22,.05-.25,.14-.03,.09-.09,.17-.18,.22l-.3-.08c0,.08,.02,.18,.05,.28-.03,.03-.06,.06-.06,.09,0,.03-.02,.06-.04,.09l.13,.15-.46,.15,.46,.33-.13,.33c.13,.03,.24,.05,.3,.06,.07,0,.12,.05,.15,.14,.13,0,.2,.04,.2,.11s0,.16,.03,.24l.33-.1v-.43c.07-.05,.13-.11,.18-.17s.09-.11,.13-.14h.18c.76,0,1.27,.36,1.52,1.09h.71Zm-4.04-.51l.15-.15h-.1s-.03,.07-.05,.15Zm.03-8.23s0-.03,.03-.03c0-.02,0-.03-.03-.03v.05Zm.33,.48l.05-.3s-.03-.08-.1-.15l-.1,.1,.15,.36Zm.05,9.11l.28-.15v-.25s-.04-.06-.06-.08-.06-.04-.09-.08h-.25l-.08,.38,.2,.18Zm-.15-8.23v-.03l-.03,.03h.03Zm.1,3l.51-.2c0-.07-.02-.19-.05-.36-.07-.07-.14-.1-.2-.1l-.25,.1v.56Zm.61,6.55c.05-.1,.12-.19,.2-.28l.15,.05v-.43l-.23,.2-.25-.18c-.19,.07-.28,.18-.28,.33,0,.05,.01,.1,.04,.15s.05,.1,.06,.15h.3Zm-.3-10.92l.03-.03s0-.03-.03-.03l-.03,.03,.03,.03Zm.2,2.67c.2-.05,.31-.14,.33-.25-.03-.03-.07-.08-.1-.15h-.28c-.03,.07-.07,.12-.1,.15,.03,.03,.06,.08,.08,.13,.02,.05,.04,.09,.08,.13Zm-.05-.91s0-.03,.03-.03l-.03-.03v.05Zm.2,2.31l.03-.03-.03-.03s-.03,0-.03,.03c.02,0,.03,0,.03,.03Zm.13-3.43s.03-.06,.03-.18h-.05l.03,.18Zm.18,10.79v-.3c-.07,.03-.12,.08-.15,.15l.15,.15Zm-.05-7.31s.05-.02,.05-.05c0-.02-.02-.04-.05-.08-.03,.03-.06,.05-.08,.05l.08,.08Zm-.03,4.62l.1-.05s-.06-.05-.08-.05c-.02,0-.04,.02-.08,.05l.05,.05Zm.63-8.96v-.03h-.13v.03h.13Zm-.03,.79l.03-.05-.05,.03,.03,.03Zm.89,6.5l-.08-.08s.03,0,.04-.03c0-.02,.02-.03,.04-.03l.08,.05c-.03,.05-.06,.08-.08,.08Zm1.07-1.19c.12-.12,.18-.22,.18-.3l-.3-.23c-.05,.03-.13,.07-.23,.1l-.1,.28c0,.05,.04,.1,.13,.15h.33Zm.03,1.6l-.03-.03-.03,.03h.05Zm1.93-4.11s.02-.04,.05-.08c-.03-.03-.06-.05-.08-.05l-.08,.08,.1,.05Z"/><path class="cls-2" d="M239.3,16.88c-.91,0-1.62-.36-2.13-1.09-.05-.1-.15-.24-.3-.41v1.22h-1.5c-.08-.03-.13-.12-.13-.25v-4.85c.1-.05,.68-.08,1.73-.08l.1,.33c0,.47,.09,.95,.28,1.42,.13,.46,.41,.86,.81,1.19,.24,.15,.5,.23,.79,.23,.51,0,.87-.23,1.09-.69,.17-.3,.25-.62,.25-.94,0-.58-.15-1.09-.46-1.55-.17-.25-.55-.7-1.14-1.35-.3-.34-.6-.65-.89-.94-.12-.14-.52-.36-1.19-.66-.47-.2-.72-.33-.74-.38l.03-.2c.03-.29,.05-.58,.05-.89,0-.2-.05-.41-.14-.61-.09-.2-.17-.4-.22-.58-.19-.68-.29-1.23-.3-1.65,0-.78,.09-1.44,.28-1.98,.22-.68,.61-1.24,1.17-1.7,.42-.32,.91-.48,1.47-.48s1.08,.22,1.62,.66l.58,.58V.33h1.68V4.77h-1.68l-.08-.28c-.05-.54-.22-1.03-.51-1.47-.29-.51-.7-.76-1.24-.76-.27,0-.56,.19-.86,.58-.2,.25-.3,.6-.3,1.04,0,.64,.37,1.36,1.12,2.16,.37,.42,.61,.67,.71,.75s.58,.33,1.45,.77c.37,.2,.56,.32,.57,.34s.03,.05,.06,.06c-.1,.32-.15,.58-.15,.76s.05,.35,.15,.48l.51,.81c.27,.46,.45,.95,.55,1.47s.14,.92,.14,1.19c0,.53-.08,1.08-.23,1.68-.22,.8-.63,1.43-1.22,1.9-.51,.41-1.1,.61-1.78,.61Zm1.68-2.54l-.05-.05-.05,.05h.1Zm.43-3.12c.05,0,.09-.02,.13-.05,0-.12-.05-.19-.15-.23l-.2,.1c.08,.12,.16,.18,.23,.18Zm-.18-.86l.03-.03h-.05s0,.03,.03,.03Zm.2,2.31v-.1h-.03v.1h.03Zm.08-8.45v-.05h-.03v.03s0,.03,.03,.03Zm.28,8.56c.07,0,.12-.03,.15-.1l-.15-.2c-.05,.1-.11,.15-.18,.15l-.03-.05,.03,.05-.05-.02,.05,.02v.1c.07,.03,.13,.05,.18,.05Z"/><path class="cls-2" d="M249.58,16.58h-4.92v-2.13h1.32v-4.85c0-.44-.23-.85-.69-1.22-.19-.15-.32-.29-.41-.41,.03-.03,.06-.07,.08-.1,.02-.03,.25-.3,.71-.81,.19-.19,.28-.44,.28-.76,.02-.64,.03-1.94,.03-3.88l-.25,.03-.13-.03c-.1,0-.2,.02-.3,.05-.53,.19-.79,.55-.79,1.09v1.55c-.22,.03-.46,.05-.71,.05-.41,0-.7-.03-.89-.08V.33h8.43V5.1h-1.57c-.07-.02-.1-.43-.1-1.24l.03-.56c0-.42-.22-.71-.66-.86-.05-.02-.3-.03-.74-.03,0,1.95,0,3.22-.03,3.81,0,.39,.15,.74,.46,1.04l.63,.69c-.12,.1-.23,.21-.33,.32s-.21,.22-.33,.32c-.29,.27-.43,.61-.43,1.02,.02,.76,.03,2.37,.03,4.82h1.29v2.16Zm-2.03-3.22v-.03h-.03s0,.03,.03,.03Zm2.21-12.01l.1-.03c-.1-.07-.18-.13-.23-.18,.03,.14,.08,.2,.13,.2Zm.3,.43c-.07-.07-.13-.15-.18-.25,.02,.17,.08,.25,.18,.25Z"/><path class="cls-2" d="M252.27,16.73h-.58c-.08-.05-.16-.11-.23-.17-.07-.06-.14-.12-.23-.19-.29-.29-.43-.64-.43-1.07s.17-.78,.51-1.12c.2-.22,.43-.33,.69-.33,.32,0,.6,.14,.84,.41,.24,.27,.36,.58,.36,.91l-.03,.23,.03,.1c0,.58-.3,.98-.91,1.22Zm-.08-1.27v-.08l-.05-.03v.1h.05Z"/><path class="cls-2" d="M265.93,16.58h-6.19c-.03-.13-.05-.27-.05-.41l.03-.1v-1.57c1.25-2.44,2.17-4.28,2.77-5.53l-.63-.96c.29-.29,.72-.62,1.29-.99,.2-.15,.38-.56,.53-1.22l.1-.43c0-.39,.03-.63,.08-.71v-.13c-.03-.19-.06-.38-.08-.58-.07-.88-.36-1.32-.89-1.32h-.36c-.41,.14-.67,.48-.79,1.04-.08,.42-.13,1.11-.13,2.06l-.04,.04s-.6,.01-1.76,.01v-.13c-.03-.12-.05-.49-.05-1.12,0-.17,0-.33,.03-.48,.08-.9,.27-1.62,.56-2.16,.51-1.05,1.37-1.57,2.59-1.57,.29,0,.64,.08,1.07,.23,.73,.27,1.25,.84,1.57,1.7,.19,.51,.28,.87,.28,1.09l.03,.81c0,.64-.08,1.33-.25,2.06-.03,.08-.06,.18-.09,.28s-.05,.21-.09,.33l.63,1.17c-.22,.14-.44,.28-.65,.43s-.43,.3-.65,.43c-.14,.08-.26,.21-.38,.38l-2.21,4.57c-.2,.41-.3,.64-.3,.71h1.78c.39,0,.58-.2,.58-.61v-1.62h1.68v4.32Zm-5.61-12.64l.03-.03-.03-.03-.03,.03s0,.03,.03,.03Zm.23,.38v-.25l-.13,.08c.03,.07,.08,.13,.13,.18Zm3.76,.2s.03-.03,.03-.1l-.05,.08s0,.03,.03,.03Z"/><path class="cls-2" d="M270.53,16.93s-.06,0-.08-.03c-.19-.03-.37-.05-.56-.06-.19,0-.37-.05-.56-.14-1.07-.49-1.68-1.56-1.85-3.2l-.08-.46c-.05-.44-.08-.88-.08-1.32l.03-.51v-1.8c0-.24-.11-.47-.32-.7-.21-.23-.45-.5-.72-.8l.63-.69c.27-.25,.41-.56,.41-.91,0-1.42,.06-2.42,.18-3,.08-.36,.17-.67,.25-.94,.24-.73,.58-1.24,1.02-1.55,.44-.3,.85-.46,1.22-.46,.08-.02,.16-.03,.22-.05,.06-.02,.12-.03,.19-.03,.73,0,1.37,.23,1.93,.69,.12,.1,.22,.22,.29,.36s.16,.27,.24,.41c.41,.68,.63,1.44,.66,2.28,0,.24,.02,.47,.05,.71,.03,.44,.05,.89,.05,1.35l-.03,.28c0,.08,.01,.17,.04,.24s.05,.16,.08,.25c.03,.09,.19,.28,.5,.57,.22,.24,.36,.41,.41,.51-.05,.1-.19,.25-.43,.46-.12,.1-.22,.19-.3,.28s-.17,.23-.25,.43l.03,.3c0,.1-.02,.2-.05,.3,0,.1,0,.18,.03,.23s.03,.09,.03,.13c0,.07-.03,.13-.08,.18,.03,.05,.05,.1,.05,.15,0,.03,0,.07-.03,.1s-.03,.09-.03,.18l.03,.3-.03,.51,.03,.58c0,.13-.01,.27-.04,.42-.03,.14-.04,.27-.04,.39s0,.23,.03,.33l-.2,1.14c-.29,1.35-1.02,2.18-2.21,2.49-.05,.02-.12,.03-.21,.04-.09,0-.22,.01-.39,.01l-.03,.03Zm-2.67-11.2c.07-.15,.1-.25,.1-.28s-.03-.09-.1-.18v.46Zm.2,1.35l.25-.1v-.38s-.07-.05-.11-.06c-.04,0-.08-.03-.11-.06-.14,.05-.21,.12-.23,.2v.3c.07,.07,.13,.1,.2,.1Zm.15-2.46c.25-.02,.52-.09,.81-.23,0-.71,.05-1.21,.15-1.5,.03-.02,.05-.04,.05-.08,0-.02-.02-.04-.05-.08v.15l-.2,.08-.08-.1,.1-.13-.15-.3s-.07,.03-.1,.03-.08,0-.13,.03l-.1-.51c-.12,.24-.22,.47-.3,.7-.08,.23-.19,.62-.3,1.18,0,.2,.03,.36,.1,.48l.1-.05,.15,.15c0,.05-.02,.11-.05,.18Zm.58,.81c.07-.05,.1-.1,.1-.15,0-.03-.01-.07-.04-.11-.03-.04-.04-.11-.04-.19l-.05-.03c-.05,.03-.08,.06-.08,.08,.02,.14,.05,.27,.1,.41Zm-.05,.86l-.05-.03s.02,.03,.05,.03Zm-.05,1.7s.05,0,.06-.01l.04-.04-.1-.03v.08Zm.15-2.39l.05-.03s-.03-.05-.03-.1h-.05s.03,.08,.03,.13Zm.13,1.12l.05-.05-.05-.05v.1Zm1.45,8.05c.42,0,.71-.2,.86-.61,.12-.24,.18-.51,.18-.81,.02-1.49,.03-3.71,.03-6.68V3.96c-.03-.37-.1-.68-.2-.91-.2-.39-.47-.58-.81-.58l-.1,.03s-.03,0-.03-.03h-.13c-.17,.08-.3,.19-.38,.3-.08,.12-.15,.24-.2,.37s-.08,.24-.09,.34c0,.1-.03,.21-.05,.32-.03,.11-.04,.22-.04,.34l.03,.3s.03,.09,.03,.18c-.03,.14-.05,.24-.05,.3l.05,.91-.03,.41c0,.12,0,.22,.03,.3,.02,.08,.03,.18,.03,.28,0,.08,0,.17-.03,.27-.02,.09-.03,.19-.03,.29l.03,.28c0,.05,0,.1-.03,.14-.02,.04-.03,.08-.03,.11,.05,.15,.08,.48,.08,.99l-.03,.79,.05,1.12c0,.22-.03,.43-.1,.63v.08c.05,.05,.08,.11,.08,.18-.03,.15-.05,.56-.05,1.22,0,.22,.01,.44,.04,.67s.08,.46,.18,.69c.09,.23,.28,.39,.57,.5h.15Zm-.79-13.15v-.25h-.03v.25h.03Zm1.04-.08l.03-.03-.03-.03-.03,.03,.03,.03Zm1.62,5.33l.18-.36s-.06-.07-.09-.1c-.03-.03-.05-.06-.09-.08h-.33v.51c.07,.02,.18,.03,.33,.03Zm.84,3.53v-.41c-.07-.07-.1-.12-.1-.15s-.02-.08-.06-.13-.07-.09-.09-.13v-.18l.08-.03c.07,0,.13,.05,.18,.15v-.28l-.3-.18c-.07-.1-.11-.18-.13-.23l-.13,.05c-.07-.15-.18-.23-.33-.23l-.18,.03v.1l-.1,.08v1.37l.1-.15s.07,.03,.1,.03,.07,.02,.1,.05c.15-.15,.25-.23,.3-.23l.05,.2h.2c-.12-.05-.18-.1-.18-.15,0-.02,.02-.04,.05-.08s.06-.05,.08-.05c.07,0,.12,.04,.15,.11s.07,.14,.1,.2,.07,.13,.1,.22Zm-1.12,5.33v-.03h-.05l.05,.03Zm.13-13.07l.03-.03s-.03,0-.03-.03l-.03,.03s0,.03,.03,.03Zm0,.79s0-.03,.03-.03l-.03-.03s-.03,0-.03,.03l.03,.03Zm.15,3.63v-.1s-.07-.03-.15-.03c.07,.07,.12,.11,.15,.13Zm0,1.37v-.03l-.05,.03h.05Zm.13-4.8s0-.03,.03-.03l-.03-.03-.03,.03,.03,.03Zm.28,2.44s0-.03-.03-.03c0,.02,0,.03,.03,.03Zm.1,3.58s-.04-.04-.08-.13l.15,.08v-.03l-.08,.08Zm.2-3.71l.15-.1c-.02-.07-.03-.17-.03-.3l-.18-.03c-.12,0-.18,.08-.18,.23,0,.05,.08,.12,.23,.2Zm.1,3.07s.07-.09,.1-.18l-.03-.1c-.05,.02-.13,.03-.23,.03,0,.15,.05,.24,.15,.25Zm.56-.84l-.2-.15-.03,.15h.23Z"/><path class="cls-2" d="M280.91,16.58h-6.19c-.03-.13-.05-.27-.05-.41l.03-.1v-1.57c1.25-2.44,2.17-4.28,2.77-5.53l-.63-.96c.29-.29,.72-.62,1.29-.99,.2-.15,.38-.56,.53-1.22l.1-.43c0-.39,.03-.63,.08-.71v-.13c-.03-.19-.06-.38-.08-.58-.07-.88-.36-1.32-.89-1.32h-.36c-.41,.14-.67,.48-.79,1.04-.08,.42-.13,1.11-.13,2.06l-.04,.04s-.6,.01-1.76,.01v-.13c-.03-.12-.05-.49-.05-1.12,0-.17,0-.33,.03-.48,.08-.9,.27-1.62,.56-2.16,.51-1.05,1.37-1.57,2.59-1.57,.29,0,.64,.08,1.07,.23,.73,.27,1.25,.84,1.57,1.7,.19,.51,.28,.87,.28,1.09l.03,.81c0,.64-.08,1.33-.25,2.06-.03,.08-.06,.18-.09,.28s-.05,.21-.09,.33l.63,1.17c-.22,.14-.44,.28-.65,.43s-.43,.3-.65,.43c-.14,.08-.26,.21-.38,.38l-2.21,4.57c-.2,.41-.3,.64-.3,.71h1.78c.39,0,.58-.2,.58-.61v-1.62h1.68v4.32Zm-5.61-12.64l.03-.03-.03-.03-.03,.03s0,.03,.03,.03Zm.23,.38v-.25l-.13,.08c.03,.07,.08,.13,.13,.18Zm3.76,.2s.03-.03,.03-.1l-.05,.08s0,.03,.03,.03Z"/><path class="cls-2" d="M288.4,16.58h-6.19c-.03-.13-.05-.27-.05-.41l.03-.1v-1.57c1.25-2.44,2.17-4.28,2.77-5.53l-.63-.96c.29-.29,.72-.62,1.29-.99,.2-.15,.38-.56,.53-1.22l.1-.43c0-.39,.03-.63,.08-.71v-.13c-.03-.19-.06-.38-.08-.58-.07-.88-.36-1.32-.89-1.32h-.36c-.41,.14-.67,.48-.79,1.04-.08,.42-.13,1.11-.13,2.06l-.04,.04s-.6,.01-1.76,.01v-.13c-.03-.12-.05-.49-.05-1.12,0-.17,0-.33,.03-.48,.08-.9,.27-1.62,.56-2.16,.51-1.05,1.37-1.57,2.59-1.57,.29,0,.64,.08,1.07,.23,.73,.27,1.25,.84,1.57,1.7,.19,.51,.28,.87,.28,1.09l.03,.81c0,.64-.08,1.33-.25,2.06-.03,.08-.06,.18-.09,.28s-.05,.21-.09,.33l.63,1.17c-.22,.14-.44,.28-.65,.43s-.43,.3-.65,.43c-.14,.08-.26,.21-.38,.38l-2.21,4.57c-.2,.41-.3,.64-.3,.71h1.78c.39,0,.58-.2,.58-.61v-1.62h1.68v4.32Zm-5.61-12.64l.03-.03-.03-.03-.03,.03s0,.03,.03,.03Zm.23,.38v-.25l-.13,.08c.03,.07,.08,.13,.13,.18Zm3.76,.2s.03-.03,.03-.1l-.05,.08s0,.03,.03,.03Z"/><path class="cls-1" d="M394.35,108.83h-5.52l-6.61-20.64c-.03,.09-.05,.54-.05,1.36s0,1.82-.02,3.01c-.01,1.19-.02,3.13-.02,5.82,0,2.53,0,4.23,.02,5.09s.02,1.37,.02,1.52h1.67v3.85h-7.15v-3.8h1.95v-8.69c0-.33-.05-.64-.14-.93-.09-.29-.26-.52-.5-.7-.24-.18-.45-.36-.63-.54-.18-.18-.36-.35-.54-.5l-.09-.18,.14-.23c.24-.24,.48-.5,.7-.77,.23-.27,.46-.53,.7-.77,.24-.24,.36-.51,.36-.81v-7.19h-1.95v-3.85h6.15l1.76,5.48c.24,.72,.46,1.45,.66,2.17,.2,.72,.41,1.45,.66,2.17s.48,1.46,.7,2.19,.46,1.47,.7,2.19,.47,1.44,.68,2.15c.21,.71,.42,1.41,.63,2.11l.32,1.04v-15.66h-1.81v-3.85h7.06l.14,.18v3.62c-.21,.03-.47,.05-.77,.05l-.68-.05-.5,.05c0,.06,0,.13-.02,.2-.02,.08-.02,2.29-.02,6.63,0,.54,.17,.98,.5,1.31,.84,.94,1.31,1.48,1.4,1.63l-1.4,1.36c-.33,.33-.5,.71-.5,1.13v8.91l.05,.09h1.85c.15,.09,.23,.24,.23,.45-.06,.3-.09,.54-.09,.72l.05,.09c0,.21,.01,.41,.05,.59,.03,.18,.05,.39,.05,.63l-.05,1.04c-.03,.15-.08,.26-.14,.32Zm-13.67-27.29c.24,0,.39-.01,.45-.04,.06-.03,.11-.12,.14-.27,0-.18-.09-.32-.27-.41l-.36,.18,.05,.54Zm.09,1.4c.42,0,.63-.07,.63-.23,0-.06,0-.12-.02-.18-.02-.06-.1-.14-.25-.23-.15,0-.27,.07-.36,.23v.41Zm1.67-1.36c-.06-.24-.17-.53-.32-.86-.09,.12-.14,.23-.14,.32,0,.03,.01,.05,.05,.05v.32c.06,.03,.12,.05,.18,.07,.06,.02,.14,.05,.23,.11Zm.77,2.4c-.09-.21-.14-.38-.16-.52-.02-.14-.08-.26-.2-.38-.15,.12-.23,.23-.23,.32h.05c0,.18-.01,.32-.05,.41l.59,.18Zm.54,4.53l-.09-.05s.03,.05,.09,.05Zm6.74-4.62c.06,0,.09-.03,.09-.09,0-.03-.03-.08-.09-.14-.06,.06-.09,.11-.09,.14,0,.06,.03,.09,.09,.09Z"/><path class="cls-1" d="M403.81,109.42c-.82-.03-1.55-.12-2.22-.27-1.12-.24-2.02-.8-2.71-1.67-.69-.88-1.13-1.64-1.31-2.31-.24-.82-.44-1.64-.59-2.49-.03-.24-.05-2.46-.05-6.65,0-.57-.23-1.03-.68-1.36-.21-.15-.41-.32-.59-.5-.18-.18-.36-.35-.54-.5-.03-.03-.05-.07-.05-.11s-.01-.08-.05-.11c.24-.3,.48-.59,.72-.86,.24-.27,.5-.54,.77-.81,.27-.27,.41-.62,.41-1.04v-2.04l-.04-.63,.04-1.31c.06-1.84,.51-3.44,1.36-4.8,1.03-1.78,2.85-2.67,5.48-2.67,1.48,0,2.74,.39,3.8,1.18,.75,.66,1.24,1.19,1.45,1.58,.9,1.57,1.36,3.79,1.36,6.65,0,.6-.03,1.03-.09,1.27v.23c.09,.12,.14,.24,.14,.36l-.05,.45c0,.3,.12,.58,.36,.84,.24,.26,.49,.52,.75,.79s.52,.56,.79,.86c-.39,.36-.81,.72-1.24,1.06-.44,.35-.66,.79-.66,1.34l.05,.59c0,.18-.05,.39-.14,.63,.09,.48,.14,.96,.14,1.45l-.05,1.72c0,2.6-.37,4.59-1.11,6-.74,1.4-1.8,2.33-3.19,2.78-.69,.21-1.19,.32-1.49,.32s-.56,.01-.77,.04Zm-7.42-15.93v-.18h-.09l.05,.18h.05Zm1.45,.41c.09-.06,.16-.12,.23-.18,.06-.06,.12-.09,.18-.09s.14,.05,.23,.14c.06-.12,.14-.23,.23-.32,.09-.09,.17-.18,.23-.27-.09-.21-.22-.35-.38-.41-.17-.06-.34-.14-.52-.23-.33-.15-.6-.23-.81-.23l-.23,.23c-.06,.3-.09,.51-.09,.63,.06,.15,.1,.28,.11,.39,.01,.11,.05,.22,.11,.34h.72Zm-.09,4.21c.06-.09,.11-.19,.14-.29,.03-.11,.07-.23,.14-.38,.12,.12,.26,.18,.41,.18l.23-.05c.15,.06,.23,.15,.23,.27s.01,.2,.04,.23c.3,0,.53-.04,.68-.11,.15-.08,.38-.11,.68-.11v-2.72l-.23-.18c.06-.06,.11-.1,.16-.11s.08-.04,.11-.07c-.15-.18-.27-.38-.36-.59l-.41,.14c0-.24-.03-.41-.09-.52-.06-.11-.09-.19-.09-.25,0-.09,.05-.2,.14-.32-.06-.06-.09-.11-.09-.16s-.03-.11-.09-.2c-.06,.24-.1,.45-.11,.61-.02,.17-.05,.34-.11,.52l-.68,.36c0,.12-.02,.2-.05,.23-.15,.06-.41,.14-.77,.23,.06,.3,.09,.53,.09,.68l.18,.09c-.06,.12-.14,.23-.23,.32,.03,.09,.05,.2,.07,.34,.01,.14,.05,.27,.11,.39,0,.09-.02,.15-.05,.18-.09,.15-.14,.3-.14,.45l.05,.18c.03,.21,.05,.44,.05,.68Zm.36,1.9l.32-.32c0-.15-.11-.33-.32-.54h-.41v.86h.41Zm-.27-9.1c.18-.12,.33-.24,.45-.36l.5,.14c-.09-.12-.14-.27-.14-.45l.05-.14c0-.15-.08-.3-.23-.45h-.63l-.09-.32,.09,1.58Zm.72,11.58c.09-.09,.2-.14,.34-.14s.22-.09,.25-.27l-.14-.54c-.09-.36-.29-.54-.59-.54-.18,0-.35,.08-.5,.23v.95l.63,.32Zm.14,2.67c.06-.15,.14-.27,.23-.36,.09-.09,.14-.18,.14-.27l-.05-.23-.86-.32c.06,.24,.11,.46,.16,.66s.17,.37,.38,.52Zm-.32-7.79l-.05-.04s.01-.05,.05-.05v.09Zm.86-9.37l.23-.05-.32-.27v-.59l-.41-.18c-.09,.09-.18,.23-.27,.41l.14,.32c.09,.03,.21,.05,.36,.05l.27,.32Zm-.27,11.13l.27-.04,.18-.32c0-.15-.02-.27-.05-.36h-.68l-.05,.5c.09,.15,.2,.23,.32,.23Zm3.44,9.28c-.06-.12-.12-.3-.18-.54l-.36,.09,.27-.5,.59,.14,.45-.27-.27-.14v-.5c-.24-.21-.38-.32-.41-.32-.06,0-.17,.08-.32,.23,.03,.06,.04,.12,.04,.18s.02,.15,.05,.27l-1.09-.82h-.45l-.14,.23h-.32l.14-.45-.41-.41c-.06,.06-.12,.09-.18,.09l-.09-.05c-.09-.18-.14-.36-.14-.54l.09-.72c0-.18-.03-.36-.09-.54l-.36,1.63c-.21,.06-.36,.18-.45,.36,.72,1.39,1.93,2.25,3.62,2.58Zm-3.44-24.75s.05-.07,.05-.14c-.03,0-.05-.01-.05-.04v.18Zm.41,8.96v-.23l-.05,.09,.05,.14Zm.45-4.57c.15,0,.26-.07,.32-.23-.03-.15-.1-.23-.2-.25-.11-.01-.18-.06-.23-.14-.05-.07-.07-.2-.07-.38l-.09,.04v.91l.27,.04Zm.05,11.45c.18,0,.32-.02,.41-.05v-.27l-.59-.86-.05,.63c0,.21,.07,.39,.23,.54Zm.23-15.57l.05-.09-.27-.18c0,.06-.03,.09-.09,.09l.32,.18Zm.05,8.33l-.05-.09-.05,.04,.09,.05Zm.09-.86v-.59h-.04v.59h.04Zm3.35,13.85c1.72-.09,2.58-1.33,2.58-3.71l-.05-2.72c0-.93,.01-1.85,.05-2.76,0-.48-.18-.91-.54-1.27l-1.36-1.4c.06-.06,.11-.09,.16-.09s.28-.26,.7-.77c.18-.24,.4-.5,.66-.77,.26-.27,.39-.65,.39-1.13l-.05-1.54c0-.54,.01-1.07,.05-1.58,0-1.36-.23-2.41-.68-3.17-.27-.48-.85-.77-1.72-.86-.9,0-1.55,.29-1.95,.86-.24,.3-.45,.9-.63,1.81-.09,.72-.14,2.26-.14,4.62,0,.39,.15,.74,.45,1.04l1.49,1.63c-.24,.24-.49,.47-.75,.7-.26,.23-.52,.48-.79,.75s-.41,.62-.41,1.04l.05,1.67-.05,2.04c0,1.09,.03,2.02,.09,2.81,.24,1.42,.74,2.29,1.49,2.62,.3,.12,.62,.18,.95,.18Zm-.36,3.3l-.32-.45c.03,.06,.05,.15,.05,.27h-.05c0,.09,.11,.15,.32,.18Zm1.13-.18c.15-.06,.3-.1,.45-.14,.15-.03,.26-.15,.32-.36v-.14c0-.18-.09-.35-.27-.5h-.5c-.12,.18-.18,.38-.18,.59,0,.18,.06,.36,.18,.54Zm1.27-.9v-.05h-.18v.05h.18Zm.36-13.53l.18-.45-.36-.18c-.12,0-.23,.03-.32,.09l.5,.54Zm-.27,12.9s.05-.02,.05-.05l-.09,.05h.05Zm.32,.77c0-.06-.02-.09-.05-.09-.12,0-.18,.03-.18,.09h.23Zm.14-2.17c-.03-.09-.05-.26-.05-.5l-.23,.23c.06,.06,.12,.15,.18,.27h.09Zm2.31-1.76c.18-.21,.41-.32,.68-.32-.12-.15-.18-.3-.18-.45s-.07-.27-.23-.36v-.05h.05c-.03,.09-.05,.21-.05,.36-.24,0-.38-.02-.43-.07s-.11-.19-.2-.43l-.09-.09-.23,.09-.09-.14c.09-.12,.21-.24,.36-.36l.45,.14c.24-.12,.42-.24,.54-.36h-.27l-.09,.05c-.06,0-.13-.02-.2-.05s-.17-.06-.27-.09c-.11-.03-.2-.11-.29-.25-.09-.14-.21-.25-.36-.34-.15-.09-.35-.2-.59-.32l.05,.54c0,.24-.02,.48-.07,.72s-.07,.48-.07,.72l.05,.54,.45-.41h.59l.5,.9Zm-.95-14.62c0-.12-.03-.27-.09-.45l-.41,.41c.24,0,.41,.02,.5,.05Zm-.41,8.06v-.54h-.05v.54h.05Zm.36,3.39l.14-.27-.23-.05,.09,.32Zm.23,2.76l.09-.23h-.36s-.02,.05-.05,.05l.32,.18Zm-.23-8.14v-.09l-.05,.04,.05,.05Zm.59,.54c.3,0,.45-.18,.45-.54l-.32-.18c-.06,.06-.13,.1-.2,.11-.08,.02-.16,.05-.25,.11,.06,.09,.11,.18,.16,.27s.1,.17,.16,.23Zm.5,5.47c-.09-.15-.15-.33-.18-.54l-.45,.5c.15,.03,.36,.04,.63,.04Zm-.04,2.85c.06-.06,.09-.11,.09-.14-.03,0-.05-.01-.07-.04-.02-.03-.02-.06-.02-.09l-.09,.18,.09,.09Zm.09,1.36v-.18h-.05v.18h.05Zm.18-9.68l.09-.05-.04-.18h-.05v.23Zm.09,4.3l-.04-.05-.05,.05h.09Zm.5-10.45v-.04h-.09s.03,.04,.09,.04Zm.32,4.89l.18-.05v-.09c0-.15-.09-.27-.27-.36-.06,.06-.1,.11-.11,.14-.02,.03-.05,.06-.11,.09,.06,.18,.17,.27,.32,.27Zm-.23-3.49v-.09h-.05v.04s.01,.05,.05,.05Z"/><path class="cls-1" d="M413.58,109.1h-1.04c-.15-.09-.29-.19-.41-.29s-.26-.22-.41-.34c-.51-.51-.77-1.15-.77-1.9s.3-1.39,.9-1.99c.36-.39,.77-.59,1.22-.59,.57,0,1.07,.24,1.49,.72,.42,.48,.63,1.03,.63,1.63l-.05,.41,.05,.18c0,1.03-.54,1.75-1.63,2.17Zm-.14-2.26v-.14l-.09-.04v.18h.09Z"/><path class="cls-1" d="M91.21,112.82v.41c-.14,0-.21-.07-.21-.2v-.21h.21Z"/><path class="cls-1" d="M91,112.82v.21c0,.13,.07,.2,.21,.2v-.41h-.21Zm0,0v.21c0,.13,.07,.2,.21,.2v-.41h-.21Z"/><path class="cls-1" d="M156.37,40.4c-13.82-2.23-27.74-3.62-41.82-1.03-13.57,2.5-21.01,9.44-19.99,18.67,.48,4.43,3.61,7.79,9.35,10.53-.15,0-.3,.01-.45,.02,1.12,.24,2.25,.52,3.39,.8,3.95,.97,7.19,.94,10.66,.36,1.47-.57,2.84-1.28,4.05-2.17,1.9-2.21,3.62-4.2,5.33-6.18-.36-.16-.73-.31-1.09-.47-.38,.44-.76,.88-1.15,1.32-3.17,3.55-8.04,5.15-13.46,4.42-6.12-.81-9.47-3.2-10.73-7.64-1.73-6.07,1.91-11.64,10.53-15.27,12.19-5.14,25.44-5.32,38.85-3.49,7.22,.99,14.28,2.56,21.42,3.87-4.8-1.65-9.77-2.92-14.88-3.75Z"/><path class="cls-1" d="M91.35,38.62c5.91-5.86,14.33-8.11,23.86-8.77,13.82-.96,27.21,.58,40.37,3.53,1.26,.28,2.51,.58,3.77,.83,.24,.05,.55-.07,1.28-.18-1.06-1.09-2.14-2.03-2.95-3.08-2.17-2.77-2.99-5.72-1.41-8.78,1.27-2.46,4.96-3.85,7.69-2.78,1.22,.48,2.19,1.62,2.64,2.6,.21,.46-1.11,1.27-1.74,1.92-.33-.14-.66-.29-.99-.43,.48-.66,.97-1.31,1.49-2.02-4.59-1.05-7.28,.41-7.54,3.88-.35,4.49,5.23,9.47,11.96,11.8,16.33,5.66,32.45,11.61,48.66,17.45-.23,.33-.47,.65-.7,.98-9.25-3.46-18.45-7.01-27.78-10.37-16.56-5.96-33.52-11.26-52.11-12.97-16.37-1.5-32.68-2.2-46.49,6.37Z"/><path class="cls-1" d="M383.81,39.83c9.26,1.05,17.61,3.34,23.41,8.98,7.11,6.9,2.64,16.69-8.26,17.91-6.24,.7-10.77-1.45-14.03-5.27l-1.05,.68c1.91,1.97,3.83,3.95,5.82,6.01,1.96,.52,3.91,1.07,6.02,1.29,1.38,.14,2.84,.22,4.31,.23,2.09-.26,4.16-.61,6.1-1.25,.7-.23,1.37-.45,2.04-.66,11.7-7.2,10.31-19.99-3.17-25.55-3.98-1.64-8.6-2.83-13.14-3.39-17.71-2.18-34.73,.41-51.41,4.55-2.68,.67-5.26,1.53-7.89,2.31,1.4,.22,2.46-.11,3.55-.38,15.44-3.91,30.98-7.36,47.71-5.46Z"/><path class="cls-1" d="M344.86,21.49c.86,.78,1.44,1.31,2.27,2.06-.86,0-1.74,.15-1.89-.03-.56-.63-1.48-1.62-1.16-2.03,.72-.91,1.93-1.92,3.25-2.25,3.21-.79,6.63,1.19,7.46,4.06,1.23,4.2-1.39,7.54-5.67,11.21,6.17-1.19,11.25-2.34,16.43-3.14,14.07-2.16,28.24-3.23,42.03,.68,4.17,1.18,7.7,3.52,11.21,5.72-17.11-8.8-35.86-7.14-54.54-4.41-20.2,2.95-38.4,9.62-56.34,16.62-2.4,.93-4.85,1.8-7.28,2.7-.17-.23-.34-.46-.51-.69,8.44-3.35,16.78-6.82,25.34-10,5.33-1.98,10.98-3.51,16.49-5.23,5.63-1.75,10.92-7.14,10.85-11.08-.06-3.65-2.81-5.29-7.94-4.21Z"/><path class="cls-1" d="M298.26,11.95c6.58,6.24-3.61,20.7-30.14,24.22,1.46-1,1.99-1.75,2.98-1.97,18.43-4.02,27.02-11.11,26.31-21.18-.02-.23,.36-.47,.85-1.07Z"/><path class="cls-1" d="M216.02,12.17c.96,4.95,2.15,9.78,7.71,14.1,5.52,4.29,14.09,6.61,22.32,9.22-13.49-.76-22.35-5.22-27.87-10.51-3.71-3.56-6.63-8.28-2.15-12.8Z"/><path class="cls-1" d="M255.81,38.61c-.72,.52-1.42,1.04-2.13,1.55-.01,0-.03-.01-.04-.02,.27-.83,.54-1.67,.81-2.52-.71-.52-1.43-1.04-2.15-1.57v-.04h.19c.78,0,1.55,0,2.33,0,.12,0,.17-.04,.21-.16,.24-.76,.49-1.51,.73-2.27,.01-.04,.03-.08,.05-.16,.13,.41,.26,.79,.38,1.18,.14,.42,.27,.83,.4,1.25,.04,.12,.09,.15,.21,.15,.77,0,1.54,0,2.31,0h.18s.01,.02,.02,.04c-.71,.52-1.43,1.04-2.15,1.57,.27,.84,.54,1.68,.81,2.52-.01,0-.02,.02-.03,.02-.71-.52-1.42-1.03-2.14-1.55Z"/><path class="cls-1" d="M168.41,239.2c-12.41,2.19-24.9,3.55-37.54,1.01-12.18-2.45-18.86-9.26-17.95-18.31,.44-4.34,3.24-7.64,8.39-10.33-.14,0-.27-.01-.4-.02,1.01-.24,2.02-.51,3.04-.78,3.54-.96,6.46-.92,9.57-.36,1.32,.56,2.55,1.25,3.64,2.12,1.71,2.17,3.25,4.12,4.78,6.06-.33,.15-.65,.31-.98,.46-.34-.43-.68-.87-1.03-1.29-2.84-3.48-7.22-5.05-12.08-4.34-5.49,.8-8.5,3.14-9.64,7.49-1.55,5.95,1.72,11.42,9.45,14.98,10.94,5.04,22.84,5.22,34.87,3.43,6.48-.97,12.82-2.51,19.23-3.8-4.31,1.62-8.77,2.87-13.35,3.68Z"/><path class="cls-1" d="M110.04,240.95c5.31,5.74,12.86,7.95,21.42,8.6,12.41,.94,24.43-.57,36.24-3.46,1.13-.28,2.25-.57,3.39-.81,.22-.05,.5,.07,1.15,.18-.95,1.07-1.92,1.99-2.65,3.02-1.94,2.72-2.68,5.61-1.27,8.61,1.14,2.41,4.45,3.78,6.9,2.73,1.09-.47,1.97-1.59,2.37-2.55,.19-.45-1-1.24-1.56-1.88-.3,.14-.6,.28-.89,.43,.44,.64,.87,1.29,1.34,1.98-4.12,1.03-6.53-.4-6.77-3.81-.31-4.4,4.69-9.29,10.73-11.58,14.66-5.55,29.13-11.39,43.68-17.11-.21-.32-.42-.64-.63-.96-8.31,3.4-16.56,6.88-24.94,10.17-14.87,5.85-30.09,11.04-46.78,12.71-14.7,1.47-29.34,2.15-41.74-6.25Z"/><path class="cls-1" d="M372.59,239.76c8.31-1.03,15.81-3.28,21.02-8.8,6.39-6.77,2.37-16.37-7.42-17.57-5.6-.69-9.67,1.42-12.59,5.17l-.95-.66c1.72-1.94,3.44-3.88,5.23-5.89,1.76-.51,3.51-1.05,5.4-1.26,1.24-.14,2.55-.22,3.87-.23,1.88,.25,3.73,.6,5.47,1.22,.63,.23,1.23,.45,1.83,.65,10.5,7.06,9.25,19.6-2.85,25.05-3.57,1.61-7.72,2.77-11.79,3.32-15.9,2.14-31.18-.4-46.15-4.47-2.41-.65-4.73-1.5-7.09-2.26,1.26-.21,2.21,.1,3.18,.37,13.86,3.83,27.81,7.21,42.83,5.35Z"/><path class="cls-1" d="M337.63,257.75c.77-.76,1.29-1.28,2.04-2.02-.77,0-1.56-.15-1.7,.03-.5,.62-1.33,1.59-1.04,1.99,.65,.9,1.73,1.88,2.92,2.2,2.88,.78,5.95-1.17,6.7-3.98,1.1-4.12-1.25-7.39-5.09-11,5.54,1.17,10.1,2.29,14.75,3.07,12.63,2.12,25.35,3.16,37.73-.67,3.74-1.16,6.91-3.45,10.06-5.61-15.36,8.63-32.19,7-48.96,4.32-18.13-2.9-34.47-9.44-50.58-16.29-2.15-.92-4.35-1.76-6.53-2.64-.15,.22-.31,.45-.46,.67,7.57,3.28,15.06,6.69,22.75,9.8,4.78,1.94,9.85,3.44,14.8,5.13,5.05,1.72,9.8,7,9.74,10.86-.06,3.58-2.53,5.19-7.12,4.13Z"/></g></svg>