<?xml version="1.0" encoding="UTF-8"?>
<svg id="Layer_2" data-name="Layer 2" xmlns="http://www.w3.org/2000/svg" viewBox="0 0 1988.85 842.79">
  <defs>
    <style>
      .cls-1 {
        fill: #094375;
      }

      .cls-2 {
        fill: #fff;
      }

      .cls-3 {
        fill: #3c3b3b;
      }

      .cls-4 {
        fill: #023e71;
      }

      .cls-5 {
        fill: #0f4879;
      }

      .cls-6 {
        fill: #003c70;
      }

      .cls-7 {
        fill: #7f9db7;
      }

      .cls-8 {
        fill: #043f72;
      }

      .cls-9 {
        fill: #f4f6f9;
      }

      .cls-10 {
        fill: #054073;
      }
    </style>
  </defs>
  <g id="Layer_1-2" data-name="Layer 1">
    <path class="cls-6" d="m590.78,650.67c-.66,1.47-1.32,2.94-1.98,4.41.23.29.46.58.69.88,2.71-2.26,6.42-3.98,7.97-6.86,8.41-15.64,16.75-31.35,24.21-47.45,5.47-11.82,9.89-24.17,14.17-36.49,3.75-10.8,6.62-21.91,10-32.84.46-1.49,1.61-2.77,3.5-3.63-8.94,39.53-20.44,77.96-42.8,112.3.49.36.97.73,1.46,1.09,2.98-3.32,6.56-6.27,8.83-10.01,14.77-24.26,26.04-50.12,33.9-77.41,3.75-13.02,7.21-26.13,10.68-39.23.61-2.31.16-3.86-2.89-4.95-13.11-4.65-26.36-9.15-38.95-14.99-12.79-5.94-24.93-13.28-37.18-20.32-1.44-.83-2.51-3.66-2.44-5.51.36-9.36,1.24-18.69,1.78-28.04.26-4.49.23-8.99.22-13.49-.02-13.66,0-27.33-.18-40.99-.14-10.26-.41-20.52-.93-30.77-.36-7.19-1.22-14.35-1.88-21.52-.26-2.88.72-4.38,3.83-5.14,13.05-3.16,25.92-7.15,39.06-9.79,7.36-1.48,15.14-1.18,22.72-1.07,2.16.03,4.93,1.69,6.34,3.46,16.93,21.18,33.63,42.53,50.45,63.8,4.71,5.95,9.58,11.77,15.63,17.3-.4-7.42-.55-14.86-1.26-22.24-.83-8.75-1.51-17.59-3.38-26.15-3.4-15.57-6.78-31.23-11.67-46.37-10.05-31.09-25.13-59.75-45.73-85.21-10.11-12.49-20.8-24.56-31.92-36.15-9.68-10.09-20.36-19.22-30.54-28.83-4.17-3.93-5.18-9.26-2.47-14.19,1.86-3.39,3.81-6.96,6.55-9.59,3.26-3.14,7.22-5.63,12.34-3.07,5.25,2.63,9.88.07,14.07-2.69,22.04-14.53,43.97-29.23,65.95-43.84,2.55-1.7,5.26-3.17,7.81-4.88,3.66-2.44,6.74-1.37,9.51,1.46,13.37,13.65,26.74,27.3,40.04,41.02,3.68,3.8,3.56,8.7-.27,14.26-6.11,8.87-12.26,17.71-18.54,26.46-9.73,13.55-19.53,27.05-29.41,40.5-4.59,6.25-6.03,12.16-1.58,19.53,7.65,12.68,14.26,25.98,21.58,38.87,7.42,13.05,8.74,10.33,21.99,10.28,5.71-.02,11.41-1.29,17.14-1.71,11.34-.83,22.69-1.56,34.04-2.15,9.25-.48,18.51-.79,27.77-1,6.95-.16,9.19,1.25,11.11,8,3.77,13.18,7.21,26.46,10.64,39.74,1.22,4.72,2.54,9.5,2.93,14.33.56,6.93-1.47,9.08-7.81,11.89-16.02,7.11-31.95,14.43-47.88,21.73-9.83,4.5-19.51,9.32-29.42,13.62-6.18,2.68-8.54,7.45-8.72,13.59-.46,15.26-.5,30.53-1.13,45.78-.32,7.9,3.29,12.78,10.01,15.98,17.03,8.13,34.08,16.19,51.07,24.39,8.7,4.2,17.29,8.63,25.94,12.96,4.53,2.27,6.16,6.15,4.95,10.76-4.67,17.81-9.6,35.56-14.46,53.32-.34,1.23-1.05,2.36-1.36,3.59-1.27,5.15-4.34,7.03-9.67,6.38-12.5-1.53-25.04-2.76-37.57-4.01-7.84-.78-15.7-1.28-23.53-2.08-7.96-.82-15.94-1.6-23.83-2.87-5.95-.96-12.34,1.2-15.62,6.48-8.36,13.47-16.82,26.89-24.78,40.59-4.28,7.36-2.56,14.64,2.1,21.54,14.24,21.11,28.37,42.29,42.47,63.49,7.59,11.41,7.46,12.17-2.11,21.72-10.97,10.95-21.95,21.89-32.93,32.83-.71.71-1.38,1.46-2.15,2.09-6.46,5.32-10.18,5.22-16.86.25-12.3-9.16-24.69-18.21-37.13-27.18-10.21-7.36-20.66-14.41-30.81-21.87-5.46-4.01-10.51-3.84-16.24-.58-13.86,7.88-27.86,15.5-41.86,23.14-6.57,3.59-9.81,10.6-8.48,17.81.95,5.15,1.45,10.4,1.89,15.63,1.36,16.26,2.76,32.51,3.79,48.79.49,7.64.52,15.35-.02,22.97-.13,1.82-3.08,4.29-5.21,4.96-8.62,2.71-17.43,4.86-26.17,7.18-9.39,2.5-18.75,5.14-28.21,7.38-5.84,1.38-9.82,1.68-13.13-5.62-7.83-17.29-15.92-34.46-23.84-51.71-4.08-8.89-8.04-17.84-12.04-26.77-2.81-6.29-7.34-9.34-14.53-9.34-16.09,0-32.19-.48-48.27-.95-5.03-.15-8.9,1.73-11.09,6.02-5.61,10.98-10.84,22.15-16.28,33.21-7.35,14.95-14.57,29.97-22.23,44.76-2.7,5.21-6.6,9.89-13.7,7.99-6.83-1.83-13.56-4.02-20.37-5.93-10.89-3.06-21.8-6.05-32.72-9.02-5.31-1.45-8.81-7.84-7.9-13.41,1-6.11,1.35-12.33,2.05-18.5.9-7.93,1.89-15.86,2.8-23.79.76-6.65,1.53-13.3,2.17-19.97.72-7.48,1.32-14.98,1.93-22.47.57-7.01-3.16-11.52-8.79-14.86-12.88-7.66-25.83-15.22-38.66-22.97-6.34-3.83-12.14-4.12-18.57.23-22.5,15.2-45.21,30.1-67.85,45.09-1.65,1.1-3.41,2.04-5.12,3.04-3.83,2.22-6.94,2.12-10.4-1.43-11.49-11.82-23.29-23.35-35.06-34.89-11.18-10.96-9.57-13.62-1.86-24.8,9.44-13.69,19.55-26.9,29.12-40.5,7.06-10.03,13.63-20.41,20.59-30.52,2.45-3.55,1.76-6.5-.17-9.97-8.99-16.15-18.35-32.12-26.51-48.69-9.52-19.32-16.39-39.78-21.18-60.77-2.96-12.96-5.29-26.2-6.32-39.43-1.49-19.12-2.32-38.36-1.94-57.52.26-13.3,3.07-26.56,4.68-39.84,2.44-20.03,8.29-39.17,15.03-58.09,7.96-22.32,18.51-43.35,31.01-63.48,14.97-24.1,32.85-45.75,53.37-65.28,17.66-16.81,36.9-31.55,57.76-44.21,18.01-10.94,36.72-20.58,56.53-27.58,16.83-5.94,34.19-10.56,51.55-14.79,10.23-2.5,20.89-3.42,31.42-4.47,7.3-.73,8.19-1.35,8.43-8.65.55-17.35,1.18-34.7,2.01-52.04.46-9.64,7.38-12.88,15.37-7.46,23.59,16.01,47.2,32,70.73,48.09,14.59,9.97,28.85,20.44,43.65,30.08,10.71,6.98,5.94,20.07-2.84,24.43-12.33,6.14-24.71,12.19-36.98,18.48-20.47,10.49-40.88,21.09-61.28,31.72-6.31,3.29-12.49,6.83-18.73,10.26-3.37,1.86-6.9,3.4-10.5.9-4.41-3.07-5.82-7.55-5.04-12.78.14-.96.51-1.91.54-2.87.36-14.42.73-28.85,1-43.27.09-4.98-.99-5.48-5.93-4.54-10.52,2.01-21.27,3.02-31.6,5.72-15.1,3.95-30.15,8.38-44.78,13.78-21.95,8.09-42.14,19.72-61.42,32.98-20.76,14.27-39.29,31.11-56.09,49.69-19.92,22.04-35.84,46.99-48.01,74.11-10.59,23.61-19.04,48.02-23.08,73.7-1.72,10.95-3.13,21.99-3.95,33.05-.84,11.22-1.41,22.53-.93,33.76.46,10.56,2.35,21.07,3.79,31.58,1.2,8.69,2.65,17.35,4.03,26.01.64,4.02,2.4,6.4,7.13,6.29,5.58-.14,11.17.78,16.77.85,14.79.19,29.33-1.91,43.3-6.71,11.9-4.09,22.32-1.21,33.01,4.24,16.12,8.21,32.68,15.56,49.01,23.38,3.38,1.62,5.08,1.14,4.76-2.86-.94-11.61-2.05-23.2-2.86-34.82-.31-4.47-.26-9,.17-13.45.13-1.34,1.86-2.89,3.24-3.69,5.72-3.28,11.49-6.49,17.41-9.38,5.25-2.57,6.94-6.93,7.02-12.24.1-6.5-.1-13,.05-19.5.62-27.06,1.25-54.12,2.15-81.18.08-2.26,1.63-5.39,3.47-6.52,11.84-7.29,23.93-14.16,36-21.06,1.41-.81,3.22-.92,5.18-1.43-.88,38.66-1.75,76.66-2.63,115.07,2.35.11,4.78.21,7.57.34.08,1.46.21,2.89.23,4.33.34,20.76.52,41.53,1.06,62.28.41,15.86,1.12,31.72,2,47.56.75,13.47,1.56,26.96,3.05,40.36,1.89,17.08,4.46,34.09,6.79,51.12,1.66,12.18,3.07,24.41,5.19,36.51,3.02,17.15,6.55,34.21,9.96,51.29.7,3.53,4.87,4.92,10.66,3.53-1.89-14.22-3.96-28.47-5.63-42.77-1.28-10.9-2.1-21.86-3.06-32.8-1.37-15.53-2.74-31.05-3.99-46.59-1.09-13.6-2.09-27.21-3-40.82-1.08-16.27-2.03-32.55-3.02-48.82-.69-11.35-1.32-22.7-2.02-34.05-.1-1.58-.49-3.14-.74-4.71,5.08-.96,6.55.09,6.75,5.12.38,9.59.62,19.18,1.03,28.77.61,14.35,1.26,28.7,2.01,43.05.58,11.19,1.26,22.37,2,33.55.94,14.28,1.93,28.55,3.01,42.82.91,11.95,1.94,23.88,2.99,35.82,1.29,14.7,2.53,29.41,4.06,44.09.58,5.52,1.69,11.01,3.08,16.38.32,1.22,2.72,2.59,4.24,2.69,5.3.33,10.63.13,16.36.13.25-4.4.7-8.64.69-12.88-.09-27.32-.2-54.65-.47-81.97-.14-13.76-.6-27.52-.98-41.27-.27-9.93-.66-19.85-.99-29.77-.36-11.09-.58-22.19-1.1-33.27-.51-10.82-1.34-21.63-2.03-32.41,6.65-.63,7.97.26,8.11,5.56.34,13.58.76,27.17.82,40.75.13,27,.08,54,.03,81-.06,31.66-.19,63.32-.33,94.98-.01,2.94-.34,5.88-.52,8.79,7.01.94,6.87.94,7.04-5.74.6-23.35,1.41-46.7,1.95-70.05.52-22.42.97-44.84,1.14-67.27.2-25.64.05-51.27.05-77.11,4.99-.75,6.92.76,6.84,4.8-.34,17.42-.62,34.85-1.02,52.27-.22,9.59-.67,19.18-.97,28.77-.36,11.42-.65,22.85-1.02,34.27-.29,9.09-.64,18.18-.99,27.27-.66,17.02-1.28,34.03-2.03,51.05-.32,7.23-.93,14.46-1.4,21.62,6.36.9,6.9.12,7.51-5.51,1-9.21,2.57-18.35,3.76-27.54.84-6.49,1.5-13,2.15-19.51,1.36-13.69,2.71-27.38,3.95-41.09.49-5.41.81-10.84,1.03-16.27.41-10.09.71-20.18,1.02-30.27.36-11.76.68-23.52,1-35.27.34-12.42.89-24.85.89-37.27,0-4.48,1.72-6.54,5.76-7.69,14.86-4.23,29.64-8.79,44.55-12.83,4.45-1.2,5.64-3.92,5.78-7.76.39-11.09.14-22.23,1.18-33.26.96-10.08-4.07-16.45-10.91-22.38-8.44-7.32-16.76-14.79-25.18-22.14-1.64-1.43-3.49-2.62-5.88-4.38-.7,26.52-1.37,51.97-2.07,78.59-5.47-2.62-10.22-4.81-14.88-7.17-2.74-1.39-5.19-3.48-8.04-4.51-4.16-1.5-5.12-4.49-5.21-8.33-.31-13.77-.65-27.55-1-41.32-.04-1.49-.24-2.98-.37-4.47-.23-1.96-.46-3.93-.69-5.89.68-1.61,2-3.25,1.89-4.81-.19-2.84-1.23-5.62-1.91-8.42.31-3.93.87-7.87.87-11.8,0-4.04-.55-8.09-.86-12.13.34-1.75.93-3.5.99-5.26.14-4.56.05-9.12.05-13.68-.07-.71-.14-1.41-.21-2.12.06-20.29.11-40.57.17-60.86-.32-2.68-.65-5.35-.97-8.03-.04-1.04-.08-2.08-.12-3.12.16-.32.1-.59-.17-.82-1.24-1.54-2.33-3.22-3.74-4.58-4.93-4.78-7.21-9.79-6.21-17.32,1.61-12.08.45-23.98-8.03-34.27-5.22-6.33-9.08-13.78-13.67-20.64-.74-1.1-2.08-1.79-3.57-3.02-.54,5.59-1.21,10.15-1.37,14.73-.15,4.33-1.12,8.86,3.38,12.24,1.26.95,1.42,3.91,1.41,5.94-.22,30.31-.49,60.61-.88,90.91-.16,12.26-.72,24.51-.95,36.77-.4,20.92-.59,41.85-1.06,62.77-.2,8.7-.92,17.39-1.42,26.44-3.87-2.52-7.65-4.89-11.32-7.4-3.95-2.71-4.03-6.97-4.03-11.12-.03-28.33-.63-56.68.29-84.98.35-10.79-3.94-17.32-12.1-22.47-7.33-4.62-10.01-10.42-7.61-19.15,1.41-5.13.9-10.79,1.23-16.22.67-10.85,1.11-21.72,2.16-32.53.26-2.67,2-5.64,3.94-7.62,4.78-4.87,7.87-10.19,7.96-17.21.1-7.43.55-14.85.97-22.27.35-6.26,5.28-9.25,9.66-12.14,11.22-7.4,9.89-10.56,18.81,2.97,5.52,8.39,11.63,16.42,16.7,25.06,2.01,3.42,2.42,8.05,2.65,12.17.28,5.07-.53,10.19-.6,15.29-.06,4.7-.22,9.71,3.87,13.06,8.67,7.09,11.03,16.5,10.93,27.11-.15,15.16-.16,30.33,0,45.5.2,18.92.6,37.85,1.02,56.77.05,2.04.8,4.05,1.39,6.82,6.05-3.03,11.69-5.79,17.27-8.67,3.32-1.72,6.28-1.34,8.98,1.15,13.11,12.09,25.93,24.52,39.41,36.17,7,6.05,6.37,13.08,5.37,20.69-.08.64-.42,1.26-.44,1.9-.36,10.59-.68,21.18-1.03,31.77-.14,4.35,1.6,4.98,5.53,3.49,13.86-5.24,27.83-10.2,41.77-15.24,1.33-.48,2.72-.8,4.92-1.44-.46,8.36-.76,16.06-1.37,23.74-.37,4.7-1.3,9.36-1.84,14.06-1.69,14.61-2.6,29.35-5.14,43.8-4.06,23.11-8.16,46.3-14.18,68.95-5.57,20.97-13.44,41.36-20.79,61.82-3.38,9.39-7.97,18.34-11.96,27.51-.34.78-.32,1.72-.47,2.58.99.02,2.05.28,2.97.02,4.97-1.4,8.45-4.67,10.46-9.31,8.41-19.42,17.58-38.56,24.8-58.42,7.26-19.96,13.05-40.51,18.47-61.07,3.54-13.44,5.36-27.35,7.81-41.07,1.8-10.07,3.28-20.2,5.11-30.26.25-1.39,1.7-2.56,2.59-3.84.99,1.61,3.01,3.36,2.81,4.81-1.95,14.65-3.82,29.33-6.6,43.84-3.53,18.41-6.97,36.93-12.12,54.92-7.56,26.37-17.12,52.12-29.79,76.58-3,5.78-5.98,11.58-9.41,18.22,6.43-.77,10.85-3.56,13.42-8.37,16.76-31.38,33.09-63.03,42.62-97.51,4.35-15.72,7.08-31.89,10.36-47.89,2.18-10.63,4-21.33,6.07-31.98.19-.99.96-1.86,1.53-2.92,5.4,2.86,3.82,7.68,3.22,11.24-2.55,15-5.18,30.04-8.88,44.79-4.27,17.02-9.17,33.93-14.77,50.57-7.18,21.34-17.14,41.48-28.68,60.84-2.62,4.4-4.66,9.16-7.45,14.72,7.94-2.28,12.71-6.6,15.94-12.65,9.07-16.99,18.74-33.71,26.86-51.15,11.12-23.89,19.31-48.89,24.25-74.87,1.84-9.69,3.84-19.36,6.05-28.98.41-1.79,2.17-3.26,4.28-4.37-1.64,29.11-10.05,56.35-19.41,83.33-9.35,26.97-21.96,52.49-36.88,77.77,7.77-1.06,10.55-6.3,13.38-11.03,16.31-27.25,30.44-55.6,39.86-85.97,5.45-17.55,9.15-35.63,13.72-53.46.42-1.64,1.48-3.11,2.4-4.99,4.22,2.87,2.93,6.86,2.27,9.7-2.55,10.99-5.43,21.94-8.83,32.69-5,15.82-9.68,31.83-16.11,47.08-6.57,15.59-15.06,30.37-22.79,45.47-1.54,3-3.44,5.81-5.24,8.82,5.11.57,8.73-2.86,15.43-14.27.94,0,1.87-.01,2.81-.02Zm-394.97-168.42c0,2.57-.26,4.44.04,6.21,1.6,9.44,3.38,18.84,5.03,28.27,3.39,19.37,7.85,38.46,13.7,57.26,10.11,32.53,24.04,63.35,41.14,92.74,1.93,3.31,4.75,6.86,8.05,8.5,14.27,7.11,28.83,13.62,43.37,20.17,3.55,1.6,7.4,2.53,12.27,4.16-1.47-3.28-2.32-5.06-3.08-6.88-7.36-17.55-15.41-34.86-21.85-52.75-5.81-16.14-10.36-32.78-14.5-49.44-3.2-12.86-5.26-26.05-7.13-39.19-1.1-7.72-4.54-12.31-11.79-15.44-13.72-5.92-27.06-12.7-40.51-19.22-2.52-1.22-4.99-2.7-7.15-4.46-.8-.65-1.23-2.72-.79-3.66.36-.76,2.38-1.27,3.47-1.03,2.7.61,5.43,1.43,7.88,2.68,12.74,6.48,25.38,13.15,38.1,19.67,1.89.97,4.03,1.47,6.23,2.24,1.61-12.72-.36-16.42-10.85-21.23-6.56-3-13.24-5.76-19.77-8.82-13.72-6.41-27.39-12.95-41.85-19.8Zm438.67,132c.46.3.91.59,1.37.89,3.38-4.06,6.72-8.16,10.16-12.16,13.92-16.2,25.44-34.08,35.45-52.82,10.78-20.18,19.51-41.36,24.78-63.71,2.77-11.78,4.61-23.8,6.5-35.77,1.12-7.09,1.26-14.33,2.28-21.44,1.22-8.43.05-15.97-6.11-22.33-2.42-2.5-4.66-5.21-6.75-8.01-16.13-21.6-32.2-43.26-48.31-64.88-1.2-1.62-2.59-3.1-3.9-4.64-.43.2-.86.41-1.3.61.39,6.84.55,13.7,1.2,20.52,1.15,12.05,3.4,24.06,3.72,36.12.45,16.54.16,33.16-.97,49.67-1.26,18.5-3.74,36.91-5.85,55.35-.6,5.27,1.06,7.68,6.52,9.07,4.87,1.24,9.7,2.71,14.37,4.53,1.11.43,2.36,2.9,2.08,4.08-2.11,8.93-4.49,17.81-6.98,26.65-6.08,21.57-12.29,43.1-21.91,63.46-2.3,4.86-4.25,9.88-6.36,14.82Z"/>
    <path class="cls-6" d="m1158.19,381.44c-2.45,2.25-4.9,4.5-7.97,7.32,3.54,8.91,7.37,18.64,11.28,28.34,7.33,18.22,14.71,36.42,22.03,54.65.36.9.4,1.94.59,2.91.56.66,1.12,1.32,1.67,1.97.11,1.01.22,2.02.33,3.02l1.67,1.97c3.07,8.35,6.14,16.69,9.21,25.04.6.98,1.2,1.96,1.8,2.93,6.48,16.19,12.96,32.38,19.44,48.57,1.47,3.67,2.91,7.34,4.57,11.5h-21.26c-23.62,0-47.25-.07-70.87.08-3.29.02-4.89-.78-6.11-4.04-3.67-9.79-7.82-19.39-11.78-29.07-.26-.32-.52-.64-.78-.95-3.04-7.99-5.98-16.02-9.14-23.96-5.25-13.21-10.65-26.36-15.97-39.55-4.58-11.37-9.15-22.74-13.68-34.13-.42-1.05-.44-2.25-.65-3.37-.27-.28-.53-.56-.8-.84-.4-1.39-.8-2.77-1.2-4.16l-.8-.84c-5.04-12.05-10.09-24.1-15.13-36.15-.84-2.11-1.69-4.22-2.53-6.32-.45.12-.9.23-1.34.35v5.23c0,46.93-.01,93.87,0,140.8,0,11.98.1,23.96.16,35.94-1.18.33-2.36.95-3.55.96-28.49.05-56.98.04-85.47.03-.65,0-1.29-.09-2.24-.16V166.67h4.74c35.66,0,71.31-.22,106.97.14,10.14.1,20.36,1.27,30.36,2.99,19.23,3.32,37.64,9.16,53.84,20.6.53.38,1.01.83,1.51,1.25.51.13,1.02.27,1.53.4,8.21,8.22,17.16,15.83,24.46,24.79,11.06,13.58,16.77,29.76,19.78,47.02,2.33,13.32,1.58,26.59,1.52,39.96-.04,7.58-3.15,13.86-4.81,20.68-1.78,7.28-5.15,14.18-7.97,21.19-5.57,13.84-16.36,23.42-27.21,32.91-.71.62-1.74.86-2.62,1.28-1.2.52-2.4,1.04-3.6,1.55Zm-107.18-136.96v95.7c1-.18,1.91-.5,2.82-.49,14.85.11,28.84-2.55,41.66-10.81,6.48-4.17,10.61-9.51,13.39-16.5,3.32-8.37,2.29-17.08,1.73-25.48-.87-12.9-5.23-24.69-17-32.15-12.96-8.21-27.65-9.11-42.59-10.28Z"/>
    <path class="cls-6" d="m1691.84,323.65c1.07,3.97,2.13,7.94,3.2,11.91.26,1.04.53,2.07.79,3.11,1.42,5.29,2.85,10.58,4.27,15.87-1.94,1.57-1.66,2.6.76,3.11,1.07,3.97,2.14,7.94,3.21,11.9-1.92,1.58-1.57,2.6.78,3.12l4.28,15.86c.17,1.05.34,2.09.51,3.14,1.15,3.96,2.3,7.92,3.45,11.87-1.92,1.57-1.63,2.6.77,3.11,1.07,3.97,2.14,7.94,3.2,11.91.26,1.04.52,2.08.78,3.11,1.43,5.29,2.85,10.58,4.28,15.86-1.95,1.57-1.67,2.6.75,3.11,1.07,3.97,2.14,7.94,3.21,11.9-1.91,1.57-1.61,2.6.77,3.1,1.07,3.97,2.13,7.94,3.2,11.91.26,1.04.53,2.07.79,3.11,1.43,5.29,2.86,10.58,4.28,15.86-1.95,1.57-1.68,2.6.75,3.11,3.94,14.52,7.95,29.02,11.8,43.57,2.84,10.73,5.49,21.51,8.15,32.29.27,1.09.04,2.31.04,3.82h-93.43c-.65-2.34-1.22-4.89-2.07-7.34-1.09-3.15-2.39-6.22-3.6-9.33.38-.65.77-1.3,1.15-1.95-1.37-7.68-2.74-15.36-4.12-23.04-.65-.69-1.31-1.37-1.96-2.06-1.77-7.55-3.53-15.11-5.35-22.89-.8-.06-1.76-.2-2.73-.2-29.97-.01-59.95.16-89.92-.15-5.96-.06-5.11,4.44-5.8,7.17-3.39,13.36-6.15,26.89-9.22,40.33-1.23,5.37-2.73,10.68-3.98,16.05-.52,2.23-1.07,3.81-3.97,3.8-29.64-.1-59.28-.07-88.92-.1-.3,0-.6-.21-1.26-.46.44-1.49.89-2.99,1.34-4.49,4.3-1.14,3.77-3.99,2.52-7.1,1.07-3.97,2.13-7.95,3.2-11.92,2.37-.51,2.69-1.52.77-3.1,1.07-3.97,2.14-7.94,3.21-11.91,2.42-.51,2.71-1.53.75-3.1,1.43-5.29,2.85-10.58,4.28-15.87l.77-3.11c1.07-3.97,2.14-7.94,3.21-11.91.56-.35,1.12-.7,1.68-1.06-.45-.31-.9-.62-1.36-.92,1.57-5.67,3.14-11.34,4.7-17.01l1.63-.88c-.42-.43-.84-.86-1.26-1.3,1.2-4.27,2.41-8.54,3.61-12.81.56-.36,1.12-.71,1.68-1.07-.45-.31-.9-.62-1.35-.93l3.66-13c.56-.36,1.13-.71,1.69-1.07-.46-.31-.91-.62-1.37-.93,1.57-5.67,3.14-11.34,4.71-17.01.54-.29,1.09-.59,1.63-.88-.42-.43-.85-.86-1.27-1.29,1.21-4.28,2.41-8.55,3.62-12.83.56-.35,1.12-.7,1.68-1.06-.45-.31-.9-.62-1.36-.92.99-4.33,1.98-8.67,2.97-13,.79-.33,1.59-.65,2.38-.98-.45-.34-.91-.68-1.36-1.02,1.57-5.67,3.14-11.33,4.7-17,.55-.3,1.09-.59,1.64-.89-.42-.43-.85-.87-1.27-1.3,1.2-4.27,2.41-8.54,3.61-12.81.56-.36,1.12-.71,1.69-1.07-.45-.31-.91-.62-1.36-.93.99-4.33,1.98-8.67,2.97-13,.79-.33,1.59-.65,2.38-.98l-1.36-1.02c.24-.67.48-1.33.72-2,.54-.3,1.09-.59,1.63-.89-.42-.43-.84-.87-1.26-1.3,1.21-4.27,2.41-8.54,3.62-12.81,2.49-.62,2.66-1.68.61-3.17,1.06-3.98,2.11-7.95,3.16-11.93.66-.29,1.32-.58,1.98-.88-.39-.73-.78-1.47-1.17-2.2,1.41-5.3,2.81-10.61,4.22-15.91,2.45-.3,2.95-1.25.99-3.01,1.07-3.97,2.13-7.94,3.2-11.92,2.38-.51,2.69-1.53.76-3.1,1.07-3.97,2.14-7.94,3.22-11.91,2.42-.51,2.71-1.54.75-3.1,1.43-5.29,2.86-10.58,4.28-15.87l.78-3.11c1.07-3.97,2.14-7.94,3.21-11.91,2.39-.51,2.7-1.53.76-3.1.84-3.96,1.68-7.92,2.52-11.88,2.45-.15,4.07-.67,1.43-3.14,1.43-5.29,2.86-10.58,4.3-15.86.26-1.04.52-2.07.78-3.11,1.07-3.97,2.14-7.94,3.21-11.91,2.38-.51,2.69-1.52.77-3.1.93-3.66,1.86-7.31,2.8-10.97.83-.92,1.66-1.83,2.49-2.75h100.55c.56,2.14,1.15,4.42,1.74,6.71-1.93,1.57-1.64,2.6.77,3.11,1.07,3.97,2.14,7.94,3.21,11.91-1.92,1.58-1.56,2.6.78,3.12,1.43,5.29,2.86,10.57,4.29,15.86.17,1.05.34,2.1.5,3.14,1.15,3.96,2.31,7.91,3.46,11.87-1.93,1.57-1.65,2.6.76,3.11,1.07,3.97,2.14,7.94,3.21,11.9-1.92,1.59-1.57,2.6.78,3.12,1.43,5.29,2.86,10.57,4.28,15.86.17,1.05.34,2.1.5,3.14,1.15,3.96,2.3,7.92,3.46,11.87-1.93,1.57-1.64,2.6.76,3.11,1.07,3.97,2.13,7.94,3.2,11.91.26,1.03.52,2.07.78,3.1,1.43,5.29,2.85,10.58,4.28,15.88-1.95,1.57-1.68,2.6.75,3.11,1.07,3.97,2.14,7.93,3.21,11.9-1.92,1.57-1.62,2.6.77,3.11Zm-86.98-20.01c.52-.7,1.04-1.4,1.56-2.1-.82-.29-1.64-.59-2.46-.88-.28-1.76-.81-3.52-.79-5.27.1-6.67-3.52-12.93-2.1-19.73.53-.45,1.06-.91,1.59-1.36-.59-.55-1.19-1.09-1.78-1.64-.26-1.33-.53-2.67-.79-4,.52-.49,1.04-.98,1.56-1.47-.67-.49-1.35-.98-2.02-1.47-.29-.85-.39-1.84-.91-2.49-.41-.51-1.34-.61-2.05-.89-.43-.09-.85-.17-1.28-.26.14.88.29,1.76.43,2.64-.05,1.31-.09,2.62-.14,3.94-.29,1.02-.57,2.05-.86,3.07-.09,4.47.15,8.97-.36,13.39-.52,4.58-1.76,9.07-2.69,13.6.01.32.02.64.02.96-.05,1.8.17,3.66-.2,5.4-1.57,7.55-3.3,15.06-4.97,22.58-.24.68-.48,1.36-.72,2.04-2.72,15.65-5.44,31.31-8.17,46.96-.3,1-.6,2.01-.91,3.01-1.4,7-2.8,13.99-4.21,20.99-.26,1-.53,2.01-.79,3.01-1.59,8.5-3.19,16.99-4.84,25.83h62.17c-1.09-5.06-2.15-9.95-3.21-14.84.56-.48,1.11-.95,1.67-1.43-.69-.5-1.38-.99-2.06-1.49-2.47-11.69-4.95-23.39-7.42-35.08.5-.5,1-1.01,1.5-1.51-.68-.47-1.37-.95-2.05-1.42-1.23-6.12-2.53-12.23-3.68-18.37-1.04-5.55-1.94-11.14-2.9-16.7.46-.32.91-.64,1.37-.96-.6-.32-1.2-.64-1.79-.97-.19-1.36-.39-2.71-.58-4.07.46-.36.91-.72,1.37-1.08-.51-.31-1.03-.61-1.54-.92l-.2-1.51c-.39-1.56,2.96-4.53-1.69-4.49.05-.35.1-.7.15-1.05.12-1.77,3.89-4.38-1.15-4.95-.03-1.01-.06-2.02-.09-3.03.52-.7,1.04-1.4,1.56-2.1-.82-.29-1.64-.58-2.46-.87-.03-1.01-.07-2.02-.1-3.02.52-.7,1.04-1.4,1.56-2.1l-2.46-.88c-.03-1.01-.07-2.02-.1-3.02Z"/>
    <path class="cls-6" d="m1431.59,483.55v85.85h-185.27V167.01h184.4v85.41h-92.79v74.02h80.49v83.55h-80.47v73.56h93.64Z"/>
    <path class="cls-6" d="m1856.85,561.65c-16.78-8.62-31.58-20.04-44.18-33.89-10.21-11.23-19.31-23.47-26.58-36.97-7.09-13.16-12.93-26.77-17.37-41.06-4.71-15.14-8.66-30.47-9.72-46.26-1.29-19.31-2.48-38.71-1.96-58.03.61-22.6,5.17-44.79,12.85-66.13,3.56-9.89,8.49-19.28,12.41-29.05,4.26-10.61,10.83-19.79,17.84-28.54,9.35-11.67,19.3-22.66,31.62-31.75,10.09-7.45,20.28-14.42,31.35-20.16,10.85-5.63,22.61-8.97,34.54-10.83,12.66-1.98,25.58-2.85,38.41-3.17,15.47-.39,30.7,2.2,45.64,6.33,1.42.39,2.89.58,4.72.94v96.37c-6.55-1.95-12.82-3.92-19.17-5.64-1.69-.46-3.59-.15-5.39-.16-.87,0-1.75.23-2.6.11-7.38-1.05-14.74-2.98-22.14-3.09-18.01-.27-33.85,6.02-46.86,18.54-14.77,14.22-24.61,31.68-30.18,51.2-4.44,15.54-6.32,31.67-5.33,47.92.42,6.81-.51,13.56,1.71,20.48,2.05,6.37.91,13.71,2.46,20.32,5.37,22.85,15.65,43.16,34.24,58.13,5.61,4.52,12.59,7.61,19.35,10.35,6.36,2.58,13.17,4.36,19.95,5.5,5.5.93,11.26.59,16.89.42,1.38-.04,2.71-1.61,3.96-2.41,6.22,2.9,10.9-1.33,16.29-3.11,5.3-1.75,11.16-1.79,16.98-2.61.04.57.2,1.69.2,2.81.01,29.16-.07,58.32.11,87.47.02,4.02-1.26,5.55-5.09,5.18-.7.26-1.4.51-2.1.77-9.9,2.35-19.72,5.31-29.74,6.85-8.24,1.27-16.75,1.02-25.14,1.09-2.45.02-4.91-1.12-7.35-1.8-.44-.12-.94-.94-1.16-.85-8.78,3.79-16.76-1.26-25-2.54-6.98-1.08-13.7-3.85-20.53-5.88-.32-.28-.65-.56-.97-.84-3.35-1.44-6.7-2.88-10.05-4.31-.31-.23-.62-.46-.94-.69-.36-.11-.71-.23-1.07-.34-.3-.22-.6-.44-.9-.67Z"/>
    <path class="cls-6" d="m1395.81,717.66c.06,2,.12,4,.17,6,.46.92.93,1.85,1.39,2.77.37,3.82.77,7.63,1.08,11.46.19,2.28.89,4.78.22,6.8-1.03,3.09-1.07,5.51.68,8.41.79,1.31-.19,3.68-.37,5.57.61,1,1.22,2,1.83,3,.84,4.35,2,8.67,2.43,13.06.32,3.27-.3,6.63-.5,9.95-.68.57-1.36,1.15-2.03,1.72h-40.17c.44-3.33,1.3-6.33,1.12-9.28-.26-4.34-1.46-8.61-1.89-12.95-.34-3.47-.13-6.99-.17-10.49-.59-1.03-1.19-2.05-1.79-3.08-.67-7.69-1.5-15.37-1.94-23.07-.32-5.62.15-11.29-.2-16.91-.31-4.84-1.45-9.62-1.91-14.45-.33-3.47-.13-6.99-.17-10.49-.6-1.02-1.2-2.03-1.8-3.05v-15.61l-2.31-.67c-.9,1.55-2.28,3.01-2.63,4.68-3.96,18.88-7.79,37.79-11.6,56.7-3.91,19.42-7.77,38.85-11.7,58.52h-28.93c-8.82-41.38-17.66-82.84-26.49-124.31-.57.01-1.15.02-1.72.03-.84,10.91-1.69,21.83-2.53,32.74-.64.66-1.28,1.31-1.92,1.97-.26,8.06-.42,16.13-.82,24.18-.28,5.69-.85,11.37-1.39,17.05-.16,1.68-.65,3.33-.99,5-.26.25-.52.5-.78.75.3,3.35.6,6.7.9,10.05-.64.66-1.28,1.31-1.91,1.97v30.72h-40.1c.1-.24.08-.47-.06-.69-1.65-6-.21-11.61,1.43-17.43,1.09-3.87.2-8.25.6-12.36.79-8.14,1.92-16.25,2.79-24.39.51-4.77.57-9.6,1.23-14.35.66-4.74,2.01-9.38,2.66-14.12.43-3.1-.03-6.31.24-9.45.59-7.03,1.35-14.05,2.11-21.06,1.24-11.36,2.7-22.7,3.75-34.09.6-6.54.48-13.14.88-19.7.15-2.41.86-4.79,1.3-7.18.8-4.45,1.59-8.9,2.45-13.74,17.3,0,34.42-.05,51.54.14.99.01,2.55,1.87,2.85,3.1,1.24,5.21,1.96,10.54,3.14,15.77.95,4.22,4.76,7.94,2.06,12.75,4.9,7.54,1.89,16.37,3.94,24.45,2.04,8.04,2.57,16.44,4.08,24.63,1.26,6.83,2.98,13.57,4.69,21.25.92-6.19,2.72-11.71,2.26-17.03-.52-6.05,3.01-10.82,3.2-16.59.2-5.93,2.08-11.8,3.2-17.7,2.87-15.19,5.82-30.36,8.53-45.57.66-3.68,1.98-5.35,6.03-5.29,15.65.24,31.3.16,46.95.2.68.57,1.36,1.15,2.04,1.72l.96,1.04c.69,1.01,1.38,2.01,2.07,3.02.03,2.29.38,4.63.03,6.86-1.13,7.31,2.6,14,2.45,21.15-.09,4.31-.17,8.62-.26,12.93l1.99,1.94c.57,4.6,2.75,9.03.12,13.89-.67,1.23,1.89,3.9,2.15,6,.54,4.35.53,8.78.74,13.17.32.65.64,1.3.96,1.95.72,4.59,1.43,9.19,2.15,13.78.19,1.26.49,2.51.54,3.77.1,2.81.19,5.63.08,8.44-.09,2.36-.48,4.71-.73,7.06.61,1,1.22,2,1.83,3Zm-46.78-56.75c.26.06.52.13.77.19.16-.59.31-1.18.47-1.77-.28-.07-.55-.13-.83-.2-.14.59-.27,1.19-.41,1.78Z"/>
    <path class="cls-6" d="m1749.74,698.57c-2.86-5.35-5.72-10.71-8.96-16.76v104.46h-41.99v-188.05h42.67c17.39,34.99,34.83,70.09,52.28,105.19l1.09-.23v-105.08h41.74v188.41c-13.89,0-27.68.1-41.46-.15-1.44-.03-3.45-1.82-4.18-3.29-13.8-27.77-27.45-55.61-41.13-83.44-.02-.35-.04-.7-.06-1.04Z"/>
    <path class="cls-6" d="m1096.75,778.82c-14.38-10.18-21.39-25.08-25.83-41.37-1.72-6.32-1.81-13.06-3.2-19.49-3.49-16.02-2.51-32.17-1.79-48.31.25-5.65,1.25-11.29,2.31-16.87,3.19-16.79,11.01-31.54,22.4-43.92,6.65-7.23,15.71-12.25,25.65-13.99,6.96-1.22,14.21-.86,21.32-1.2.33-.02.67,0,1,0,25.37.11,42,14.21,51.65,32.26,6.64,12.43,10.15,25.77,11.55,39.73.64,6.37,2.02,12.76,1.79,19.09-.47,12.76-1.29,25.56-2.93,38.22-2.09,16.14-6.43,31.77-16.92,44.73-4,4.94-9.25,8.85-13.93,13.24-1.33.58-2.66,1.15-3.98,1.73-7.05,5.83-17.7,8.61-23.01,7.16-2.86.61-5.72,1.78-8.57,1.75-13.43-.13-25.82-3.76-36.69-11.92-.26-.28-.53-.56-.79-.84Zm59.93-99.11c.03-2.75.47-5.57.02-8.25-1.13-6.77-2.07-13.67-4.17-20.17-3.73-11.56-13.94-17.8-25.35-14.33-6.17,1.88-8.5,8.27-11.22,13.45-1.71,3.26-.88,7.81-2.46,11.18-4.09,8.68-3.05,17.98-3.44,26.91-.51,11.43.61,23,1.93,34.41.55,4.7.18,10.17,4.1,14.03,3.69,3.64,6.93,8.4,11.39,10.48,11.06,5.15,27.67-7.43,28.3-20.66.25-5.28.76-10.55.98-15.83.4-9.75.68-19.5,1.01-29.25-.37-.65-.73-1.31-1.1-1.96Z"/>
    <path class="cls-6" d="m1594.87,597.93c13.83-.03,27.65-.15,41.48.02,1.49.02,3.94,1.48,4.28,2.72,4.56,16.8,8.72,33.71,13.17,50.53,5.01,18.91,10.28,37.74,15.33,56.64,3.97,14.84,7.74,29.73,11.65,44.59,2.95,11.2,5.99,22.39,9.06,33.87h-43.58c-5.59-9.58-5.18-20.63-8.07-31.47-6.48,0-13.1,0-19.72,0s-13.67.24-20.49-.09c-4.19-.2-5.58,1.34-6.33,5.39-1.61,8.7-3.94,17.27-6.03,26.12h-43.15c1.25-5.92,2.3-11.71,3.72-17.41,2.76-11.05,5.66-22.08,8.64-33.07,4.09-15.1,8.41-30.14,12.42-45.26,3.34-12.6,6.24-25.31,9.6-37.9,4.04-15.13,8.33-30.19,12.59-45.26.64-2.26,1.68-4.41,2.53-6.61.97-.94,1.93-1.87,2.9-2.81Zm6.52,122.94h28.09c-4.67-24.83-9.29-49.38-13.91-73.94-.34-.02-.69-.04-1.03-.06-4.35,24.49-8.7,48.97-13.15,74Z"/>
    <path class="cls-6" d="m1526.88,619.34c3.19,6.18,6.45,12.32,9.49,18.57.4.82-.3,2.17-.45,3.03.66,2.02,1.48,4.11,2.03,6.27,1.76,6.82,1.02,13.66-.12,20.47-.39,1.01-.77,2.01-1.16,3.02-.17,8.49-4.13,15.49-9.22,21.8-3.1,3.85-7.09,6.98-10.68,10.43-.36.23-.73.46-1.09.69-7.73,5.83-16.62,8.77-26.08,9.91-7.19.86-14.46,1.08-22.34,1.63v71.08h-42.33v-188.41c16.09,0,32.07-.44,48,.17,9.44.36,18.99,1.66,28.17,3.88,9.59,2.32,17.92,7.53,23.92,15.78.62.56,1.24,1.12,1.85,1.68Zm-59.51,15.17v44.26c9.55-.78,19.4-.9,24.67-10.06,4.62-8.05,4.64-17.4-.17-25.38-5.43-9.02-15.33-7.93-24.5-8.82Z"/>
    <path class="cls-6" d="m1003.83,723.53c3.39,8.72,9.97,14.36,17.82,18.96,10.36,6.07,20.88,5.03,31.6,1.38,1.79-.61,3.66-1.02,6.19-1.71v34.86c0,10.19.06,10.46-9.55,12.55-15.22,3.31-30.24,2.88-44.65-3.85-.43-.2-.98-.14-1.47-.21-.32-.28-.65-.56-.97-.84-11.29-5.76-21.7-12.42-29.32-23.08-7.16-10.02-12.95-20.61-16.64-32.29-4.36-13.83-5.57-28.08-5.13-42.54.13-4.22-1.29-8.56-.72-12.66.77-5.53,2.53-10.97,4.31-16.31,2.7-8.1,5.78-16.07,8.69-24.1.58-.68,1.17-1.35,1.75-2.03,2.34-2.73,4.69-5.46,7.03-8.19.57-.9,1.15-1.81,1.72-2.71,5.36-4.95,11.56-9.26,15.87-15,5.52-7.35,14.68-5.99,21.2-10.72,2.51-1.82,6.95-1.4,10.48-1.27,11.21.43,22.4,1.31,33.61,1.81,3.59.16,3.85,2.13,3.83,4.94-.11,11.98-.09,23.97-.11,35.95-.86.94-1.73,1.88-2.59,2.82-4.33-.38-8.65-1-12.98-1.08-5.33-.1-10.66.18-15.99.45-2.07.1-4.18.42-6.16,1.02-1.07.32-1.89,1.46-2.82,2.23-.29.25-.57.5-.86.75-12.09,9.48-18.41,22.49-19.9,37.21-1.38,13.63-1.78,27.62,3.88,40.79.63.95,1.25,1.91,1.88,2.86Z"/>
    <path class="cls-6" d="m1902.8,620.48c4.4,12.54,8.79,25.08,13.21,37.6.21.58.73,1.05,1.11,1.57.07.26.13.51.19.77.11-.27.21-.54.32-.81,3.38-9.18,6.71-18.37,10.15-27.53,4.06-10.82,8.13-21.64,12.45-32.36.4-1.01,2.61-1.81,3.98-1.82,14.83-.09,29.65,0,44.48.03.05.61.1,1.21.15,1.82-5.02,10.32-10.03,20.64-15.05,30.96-.28.31-.57.62-.85.93-2.39,5.2-4.7,10.45-7.19,15.6-4.93,10.18-9.97,20.32-14.96,30.47-.28.31-.57.62-.85.93-2.54,5.55-5.33,11.01-7.54,16.7-1.39,3.59-2.65,7.51-2.69,11.3-.24,24.66-.12,49.32-.12,73.98v5.61h-43.5c0-1.82,0-3.59,0-5.36,0-22.33-.36-44.66.17-66.98.21-8.98-1.83-16.9-5.81-24.69-4.26-8.34-8.23-16.82-12.3-25.25-9.87-20.46-19.72-40.92-29.57-61.39-.63-1.31-1.19-2.66-2.07-4.62h44.16c1.02.91,2.04,1.82,3.06,2.72.73,1,1.46,2.01,2.19,3.01l.84.96c1.2,3.34,2.4,6.67,3.6,10.01-1.45,2.87.19,4.47,2.4,5.84Z"/>
    <path class="cls-6" d="m1085.54,66.64V22.98h27.15v120.46h-27.15v-48.74c-.26-.29-.52-.58-.78-.86-7.62,0-15.24,0-23.2,0v49.46h-27.21V22.88h27.05v44.63c8.11,0,15.73,0,23.35,0,.26-.29.52-.58.78-.86Z"/>
    <path class="cls-6" d="m1130.33,143.34V23.06h54.44v25.41h-27.63v22.13h24.12v25.82h-24.13v21.04h27.97v25.89h-54.77Z"/>
    <path class="cls-6" d="m1006.62,143.56h-27.61V50.89h-18.53v-27.88h64.75v27.43h-18.61v93.12Z"/>
    <path class="cls-6" d="m423.74,340.69c0,4.56.09,9.12-.05,13.68-.05,1.76-.64,3.51-.98,5.27-3.35,3.37-4.98,7.42-3.85,12.07.97,4.03,2.54,7.91,3.85,11.86.68,2.8,1.72,5.58,1.91,8.42.11,1.55-1.22,3.2-1.89,4.81-4.18.94-1.02,3.95-1.66,5.88-2.04.99-4.06,2.72-6.14,2.81-3.61.16-6.2,1.37-8.08,4.34-.91,1.62-1.81,3.23-2.72,4.85-.13.99-.27,1.98-.4,2.97-.25.68-.51,1.35-.76,2.03,0,1.66,0,3.33,0,4.99.26.67.52,1.35.77,2.02.08,1,.16,1.99.23,2.99.27.34.54.68.81,1.02,1.52,2.04,3.05,4.08,4.57,6.12,2.72,3.82,6.78,2.54,10.44,2.74.44.7.88,1.4,1.31,2.1-.4,3.01-.81,6.03-1.21,9.04-6.34,3.68-12.42,2.73-18.35-1.02-.92-.67-1.84-1.34-2.75-2-2.66-4.81-6.41-9.33-7.74-14.48-2.63-10.12-2.41-20.43,2.9-30.01.79-1.11,1.58-2.23,2.38-3.34.48-.45.99-.88,1.43-1.37.31-.35.53-.78.92-1.37-4.05-.53-5.73-3.16-5.73-6.74.01-18.93.15-37.87.25-56.8.55-1.24,1.09-2.48,1.64-3.72h12.63c0-16.85.16-33.12-.16-49.38-.05-2.66-1.49-6.46-3.53-7.72-8.21-5.06-9-12.34-7.65-20.74,4.03-1.26,7.1.16,10.15,2.96,4.14,3.81,8.7,7.18,13.08,10.74.41.35.82.7,1.23,1.05l2.15,2.94c.32,2.68.65,5.35.97,8.03-6.2,1.82-5.86,6.72-5.73,11.73.17,6.95.11,13.9.02,20.86-.09,7.25,1.76,15.11-5.41,18.86,3.33,3.4,6.31,6.44,9.29,9.49.62.68,1.25,1.36,1.87,2.04Zm-17.97,28.01c-.33-.59-.66-1.18-.99-1.77-.04.57-.08,1.14-.12,1.71v23.99c2.74-.51,5.08-.94,7.54-1.39-2.16-7.57-4.29-15.05-6.43-22.54Zm-1.49-18.81c.49,1.95.53,4.15,1.61,5.55.59.76,4.32.23,4.32.12.25-3.68.23-7.38.24-11.07-1.6.05-3.84-.52-4.66.31-1.08,1.09-1.05,3.28-1.52,5.09Z"/>
    <path class="cls-8" d="m143.26,133.49c3.6,5.37,7.41,10.61,10.75,16.13,2.56,4.24,4.82,8.72,6.61,13.33.5,1.3-.7,4.45-1.89,4.95-1.78.76-4.66.65-6.33-.33-9.1-5.36-17.96-11.12-26.93-16.7-.34-.21-.92-.03-2.67-.03,2.54,3.05,4.49,5.48,6.53,7.83,4.84,5.57,9.78,11.06,14.56,16.68,1.89,2.22,1.11,8.12-1.25,9.87-2.97,2.2-5.53,1.89-8.06-1.15-8.73-10.45-17.64-20.75-26.49-31.1-1.05-1.22-2.05-2.49-3.15-3.66-4.46-4.78-4.81-10.64-.88-15.7,2.25-2.9,12.24-2.37,15.84.41,4.74,3.65,9.79,6.89,14.71,10.3.37-.37.75-.73,1.12-1.1-2.15-3.18-4.27-6.38-6.44-9.54-2.09-3.06-4.71-5.88-6.17-9.21-.95-2.17-1.21-5.69-.05-7.51,2.15-3.36,4.39-7.14,9.52-7.43,4.14-.23,11.28,2.64,13.19,6.15.56,1.04,1.27,2.15,2.21,2.8,7.13,4.96,14.51,9.57,21.44,14.79,3.24,2.44,5.9,5.79,8.39,9.05,2.08,2.74,1.66,6.54-1.3,7.68-3.09,1.19-7.69,1.57-10.35.06-4.99-2.84-9.07-7.29-13.53-11.07-2.63-2.23-5.27-4.45-7.91-6.67-.5.39-.99.79-1.49,1.18Zm-.29.17c.44-.46.88-.92,1.32-1.38-.68-.48-1.35-.96-2.03-1.44-.17.22-.34.43-.51.65.41.72.81,1.45,1.22,2.17Z"/>
    <path class="cls-10" d="m267.86,57.07c1.5,4.42,2.5,7.65,3.68,10.82,1.55,4.15,3.34,8.21,4.83,12.38,1.26,3.55-1,7.61-4.82,9.13-3.24,1.29-7.32-.64-8.7-4.24-1.85-4.82-2.83-10.16-5.53-14.43-4.94-7.81-5.46-17.08-9.48-25.1-1.11-2.22-2.7-4.47-2.93-6.82-.57-5.93,1.67-7.96,7.59-8.17,6.79-.23,11.52,2.82,15.85,7.97,3.95,4.7,9.08,8.42,13.69,12.57.57-.36,1.15-.72,1.72-1.09-2.38-5.51-5.14-10.89-7.01-16.56-1.12-3.42-1.24-7.31-1.09-10.95.13-3.1,3.04-2.73,5.34-2.94,4.02-.38,6.42,1.09,7.87,5.05,3.78,10.35,7.89,20.58,11.88,30.86,1.48,3.82,3.04,7.61,4.41,11.47,1.45,4.09,1.3,7.97-2.89,10.4-4.25,2.47-10.13,1.16-13.45-2.13-5.83-5.8-11.9-11.37-17.9-17-.41-.39-1.12-.46-3.06-1.22Zm15.05-5.41c.45.31.89.61,1.34.92.03-.35.06-.69.09-1.04-.43-.35-.86-.7-1.29-1.05-.04.39-.09.78-.13,1.17Zm-14.77,5.15c-.13.13-.24.24-.36.36.22.11.44.26.67.31.08.02.22-.2.33-.31-.22-.12-.43-.24-.64-.36Z"/>
    <path class="cls-8" d="m86.9,168.39c11.71-.09,20.58,5.98,29.05,12.94,6.39,5.25,10.87,11.35,11.98,20.05,1.52,11.89-13.04,26.05-26.65,21.39-13.31-4.55-24.86-11.05-32.33-23.55-7.48-12.52.96-26.96,10.7-29.84,2.31-.68,4.82-.68,7.24-.99Zm-.38,14.82c-1.56.81-4.25,1.38-5.21,2.98-.69,1.14.51,3.97,1.61,5.54,5.27,7.54,12.48,12.88,20.94,16.17,2.27.88,6.99.3,7.85-1.19,1.29-2.23,1.38-6.85-.14-8.72-6.22-7.63-14.62-12.23-25.04-14.78Z"/>
    <path class="cls-8" d="m78.19,525.66c1.86,1.6,4.89,2.94,5.36,4.9.79,3.27,1.37,7.45-3.48,9.11-3.6,1.23-7.14,2.67-10.67,4.1-4.03,1.64-5.69,5.44-4.08,9.13,1.62,3.71,4.66,4.53,8.96,2.65,3.22-1.41,6.5-2.69,9.81-3.87,5.09-1.81,7.98-.73,9.66,3.44,1.71,4.25.49,7.32-4.15,9.47-4.64,2.15-9.39,4.06-14.12,5.99-9.86,4.01-19.84,7.73-29.56,12.06-4.65,2.07-7.06.17-9.15-3.35-2.06-3.47-1.07-7.03,2.71-9.17,2.44-1.38,5.15-2.29,7.76-3.36,5.14-2.12,7.03-5.46,5.34-9.49-1.04-2.49-6.41-3.52-10.23-1.95-2.42,1-4.78,2.18-7.26,3-3.67,1.2-8.23-1.11-9.22-4.46-1.32-4.49.5-7.36,4.91-9.15,11.14-4.51,22.55-8.58,33.07-14.29,4.54-2.46,9.05-2.26,14.34-4.76Z"/>
    <path class="cls-4" d="m38.22,442.09c4.93-.35,9.86-.88,14.8-.98,2.85-.06,6.29-.27,8.41,1.16,1.84,1.24,3.21,4.78,2.99,7.15-.42,4.52-4.73,5.82-8.42,6.14-10.64.94-21.32,1.31-31.98,1.99-4.09.26-8.19.64-12.26,1.16-5.36.69-9.01-1.21-9.2-6.84-.22-6.46-.5-13.08.63-19.38,2.35-13.08,17.71-15.42,28.47-9.6,2.56,1.39,6.53,1.46,9.43.63,4.55-1.3,8.64-4.14,13.13-5.79,2.05-.75,5.64-1.13,6.63,0,1.43,1.61,2.09,5.14,1.31,7.16-1.03,2.63-3.41,5.22-5.89,6.71-5.87,3.52-12.13,6.37-18.24,9.49.06.33.13.67.19,1Zm-16.6-9.49c-3.06,2.76-6.25,4.27-6.68,6.35-.65,3.15,2.25,4.89,5.49,4.64,3.18-.24,6.74-.96,6.29-5.08-.19-1.74-2.69-3.23-5.1-5.91Z"/>
    <path class="cls-4" d="m71.01,331.09c-1.53,5.31-1.79,9.76-7.38,10.69-4.34.72-7.42,5.7-6.71,11.17.16,1.27,1.63,2.74,2.87,3.42,4.57,2.5,6.57,6.85,4.95,11.53-1.6,4.62-4.55,6.06-9.09,3.98-9.29-4.26-18.46-8.82-27.75-13.09-5.6-2.58-11.31-4.93-17.02-7.26-3.55-1.45-6.01-6.26-5.04-11.19.78-4.01,2.62-7.33,7.44-7.65,4.39-.29,8.79-.58,13.16-1.11,1.16-.14,2.2-1.16,3.32-1.74.77-.4,1.75-1.23,2.34-1.02,9.77,3.45,19.29-1.04,28.94-.83,1.8.04,3.79-.72,5.36-.17,1.83.63,3.3,2.3,4.6,3.27Zm-47.1,12.58c-.07.25-.14.5-.21.75,5.43,1.99,10.8,4.16,16.32,5.87,1.47.46,3.65-.04,4.97-.91.76-.5,1.07-3.12.46-3.91-.82-1.05-2.72-1.68-4.19-1.73-5.78-.19-11.57-.08-17.35-.08Z"/>
    <path class="cls-8" d="m229.51,103.27c.91,6.01-1.19,8.54-4.43,10.44-3.9,2.29-6.95,1.28-8.2-3.12-2.5-8.79-4.74-17.65-7.08-26.48-1.78-6.72-3.48-13.46-5.35-20.15-1.53-5.49-.44-9.96,3.23-12.21,5.17-3.17,9.86-2.74,14.18,1.6,10.93,10.94,21.79,21.96,32.67,32.95,2.52,2.55,5.39,5.57,1.99,8.86-3.57,3.45-7.34,5.52-11.72,1.85-4.21-3.53-7.98-2.45-11.34.31-2.12,1.74-3.19,4.77-3.94,5.96Zm-11.3-37.04l-1.01.85c.78,1.94,1.57,3.88,2.32,5.83,1.54,3.97,2.77,8.11,4.76,11.84.61,1.15,3.29,1.19,5.02,1.74.31-1.78,1.5-4.18.77-5.23-3.68-5.21-7.86-10.06-11.86-15.04Z"/>
    <path class="cls-10" d="m188.5,136.71c-.99-.82-3.49-2.27-5.15-4.37-6.55-8.31-12.9-16.77-19.19-25.28-2.94-3.97-5.74-8.06-8.29-12.29-1.9-3.15-1.76-6.69,1.35-8.92,5.07-3.64,10.17-7.57,15.85-9.96,10.16-4.28,22.63,4.47,24.96,15.37,1.68,7.84-2.34,12.04-6.92,16.61-4.43,4.42-4.28,6.07-.12,10.6,2.46,2.67,4.73,5.67,6.38,8.89,2.24,4.38-1.56,9.23-8.86,9.35Zm-12.66-48.04c-.62.8-3.18,3.23-2.83,3.76,1.94,2.98,4.59,5.49,6.99,8.17,1.33-1.59,3.53-3.03,3.81-4.79.62-3.84-2.78-7.16-7.98-7.14Z"/>
    <path class="cls-4" d="m0,391.52c.85-3.92,1.16-8.09,2.8-11.66.74-1.61,4.38-3.1,6.21-2.65,1.9.47,3.33,3.27,4.71,5.23.49.7-.14,2.22.37,2.86,1.79,2.24,3.85,4.26,5.8,6.36,2-2.13,5.17-3.98,5.75-6.44,1-4.24,3.38-5.63,6.94-5.43,4.01.22,6.21,2.76,6.18,6.89-.02,3.58,1.89,5.78,5.21,5.86,3.56.08,5.41-2.69,5.88-5.92.89-6.13,2.81-8.29,7.46-7.67,4.62.61,6.2,3.74,5.55,9.86-.37,3.45-.05,6.98-.09,10.47-.06,5.22-2.49,8.16-7.74,8.21-6.41.06-12.82-.56-19.23-.81-9.57-.37-19.15-.54-28.71-1.08-3.72-.21-6.55-1.94-6.32-6.44.12-2.49.02-4.99.02-7.48-.27-.05-.54-.11-.81-.16Z"/>
    <path class="cls-4" d="m76.37,508.26c.52,4.79-3.19,6.27-6.1,7.09-15.29,4.28-30.67,8.23-46.07,12.11-4.6,1.16-7.52-1.35-9.35-7.64-1.16-4-2.12-8.07-3.01-12.15-.88-4.07,1.77-6.58,4.97-7.26,2.07-.44,4.85,1.14,6.9,2.45,1.16.75,1.3,2.93,2.24,4.23,1.64,2.27,3.24,4.54,6.87,3.16,3.5-1.33,3.9-3.82,3.26-6.79-.79-3.64.53-6.24,3.85-7.36,3.42-1.15,6.81-.95,8.68,2.98.21.44.34.91.52,1.36,1.24,3.06,3.43,5.37,6.76,4.03,3.38-1.36,4.48-4.66,3.7-8.25-1.35-6.2,1.64-9.71,7.66-8.45,1.48.31,3.45,1.62,3.9,2.92,2,5.76,3.52,11.69,5.22,17.56Z"/>
    <path class="cls-10" d="m81.4,242.6c6.33,1.4,8.87-2.9,11.38-7.25,2.68-4.66,4.8-5.04,10.33-1.85,5.19,2.99,5.46,4.46,2.77,9.43-5.23,9.64-13.21,15.55-24.09,15.53-8.46-.02-16.74-2.87-23.58-8.16-8.12-6.28-14.07-14.15-13.34-25.16.23-3.49,1.07-7.09,2.41-10.31,2.21-5.29,12.49-5.86,15.72-.92.66,1,.24,3.17-.37,4.47-4.07,8.66-3.74,12.48,3.8,18.29,4.23,3.25,9.61,5,14.47,7.43.17-.5.34-1,.51-1.5Z"/>
    <path class="cls-8" d="m48.62,319.45c-9.34-1.47-22.13-4.94-28.82-19.24-3.13-6.68-2.16-13.35-.71-20,.65-2.98,7.04-4.5,10.95-3.19,3.86,1.3,4.31,3.87,3.28,7.47-1.82,6.35.13,10.91,5.52,14.97,7.54,5.69,18.56,7.12,23.51,2.21,1.98-1.97,3.29-4.8,4.36-7.46,2.03-5,3.25-5.65,9.94-3.35,3.69,1.26,5.88,2.99,4.64,8.07-2.79,11.46-13.14,21.49-32.67,20.51Z"/>
    <path class="cls-10" d="m326.12,25.88c2.2-5.67,4.73-11.59,6.78-17.68,1.48-4.4,5.2-3.95,8.37-4.3,1.01-.11,3.29,2.05,3.21,3.01-.34,3.89-1.16,7.78-2.21,11.56-3.2,11.58-7.38,22.95-1.38,35.04,1.53,3.09,1.98,7.44,1.1,10.72-.53,1.98-4.44,3.67-7.11,4.3-4.68,1.1-8.27-3.68-9.1-10.96-1.13-9.95-4.71-18.76-11.66-26.27-3.88-4.19-6.99-9.11-10.33-13.79-1.99-2.79-1.2-4.89,1.99-6.2,4.32-1.78,10.16-.35,12.84,3.42,2.64,3.71,5.08,7.54,7.49,11.14Z"/>
    <path class="cls-4" d="m391.02,496.68c-.08,12.32-.31,24.65-.14,36.97.06,4.2.93,16.4.95,18.3.27,22.93.58,45.86.99,68.79.11,6.11.7,12.2.95,18.31.39,9.76-.24,48.43,2.87,57.8.33.99-.86,2.48-1.34,3.74l-1.63-.16c-.33-6.47-.58-12.94-1.02-19.41-.5-7.35-1.22-14.69-1.72-22.05-.21-2.98-1.49-20.13-1.59-21.54-.32-4.59-2.58-57.99-2.62-59.88-.18-9.27-.52-18.54-.85-27.8-.1-2.67-1.13-11.85-1.17-14.05-.13-6.59-.62-13.17-.92-19.76-.36-7.92-3.16-41-1.78-45.91,8.31,1.99,8.28,2.35,7.9,10.8-.22,4.92.69,9.88,1.1,14.83,0,.34,0,.68.01,1.02Z"/>
    <path class="cls-10" d="m109.48,584.84c-1.74,4.06-.02,8.63-6.48,9.06-3.19.21-6.08,4.1-9.24,6.11-1.26.8-3.04.75-4.34,1.51-5.41,3.19-10.84,6.38-15.99,9.96-1.06.74-1.71,3.4-1.27,4.75,1.82,5.55-2.05,6.94-5.72,8.47-3.7,1.54-5.74-.38-7.47-3.56-3.16-5.81-6.47-11.54-10.03-17.11-2.5-3.92-.65-7.23,2.16-8.74,2.42-1.3,7.07-1.57,8.98-.06,3.63,2.87,5.92,2.51,9.52.3,9.01-5.5,18.22-10.71,27.6-15.55,2.3-1.19,5.83-1.24,8.32-.41,1.77.59,2.75,3.55,3.95,5.27Z"/>
    <path class="cls-5" d="m590.78,650.67c-.94,0-1.87.01-2.81.02,5.43-10.86,11.36-21.51,16.18-32.64,6.42-14.82,12.55-29.83,17.72-45.12,4.45-13.17,7.33-26.86,11.04-40.29.76-2.74,2.13-5.32,3.22-7.97.42.04.83.09,1.25.13,0,3.23.61,6.6-.1,9.66-4.84,20.76-11.67,40.88-19.13,60.87-7.26,19.45-15.85,38.08-27.36,55.34Z"/>
    <path class="cls-4" d="m393.93,701.56c.22-.33.44-.66.65-.99.11.44.22.88.33,1.32-.33-.11-.65-.22-.98-.32Z"/>
    <path class="cls-7" d="m393.93,701.56c.33.11.65.22.98.32-.17.19-.35.37-.52.56-.15-.3-.3-.59-.46-.89Z"/>
    <path class="cls-3" d="m405.77,368.7c-.37-.02-.74-.04-1.11-.06.04-.57.08-1.14.12-1.71.33.59.66,1.18.99,1.77Z"/>
    <path class="cls-9" d="m142.97,133.66c-.41-.72-.81-1.45-1.22-2.17.17-.22.34-.43.51-.65.68.48,1.35.96,2.03,1.44-.44.46-.88.92-1.32,1.38Z"/>
    <path class="cls-9" d="m284.34,51.54c-.03.35-.06.69-.09,1.04-.44-.31-.89-.61-1.34-.92.48-.04.95-.08,1.43-.12Z"/>
    <path class="cls-9" d="m268.14,56.82c.21.12.43.24.64.36-.11.11-.25.33-.33.31-.24-.05-.45-.2-.67-.31.11-.11.22-.22.36-.36Z"/>
    <path class="cls-2" d="m284.34,51.54l-1.43.12c.04-.39.09-.78.13-1.17.43.35.86.7,1.29,1.05Z"/>
    <path class="cls-1" d="m253.1,552.31c-6.14-3.02-11.92-5.79-17.62-8.69-5.31-2.71-10.52-5.62-15.83-8.34-2.71-1.39-5.33-3.12-3.5-6.33.49-.87,4.46-.62,6.27.27,9.21,4.54,18.13,9.66,27.36,14.14,3.76,1.82,4.78,4.1,3.32,8.95Z"/>
    <path class="cls-1" d="m247.02,568.03c-1.62-.56-3.35-.91-4.84-1.71-5.53-2.96-10.99-6.07-16.47-9.14-.72-.4-1.71-.69-2.06-1.32-1.33-2.39-2.45-4.9-3.65-7.37,2.56.33,5.5-.03,7.6,1.13,5.92,3.28,11.65,6.97,17.11,10.96,1.79,1.31,2.55,4.03,3.78,6.11-.49.44-.98.89-1.48,1.33Z"/>
    <path class="cls-5" d="m705.65,420.52c-9.05-5.8-39.9-43.27-39.46-47.73,6.74,2.29,38.85,40.79,39.46,47.73Z"/>
    <path class="cls-5" d="m670.15,401.39c10.16,10.93,20.33,21.86,31.07,33.41-6.69,1.07-32.69-26.81-31.07-33.41Z"/>
    <path class="cls-1" d="m669.8,429.68c6.12,4.99,11.39,9.76,16.22,16.7-9.02-.97-18.03-10.39-16.22-16.7Z"/>
  </g>
</svg>