<svg xmlns="http://www.w3.org/2000/svg" viewBox="0 0 230.78 402.64"><defs><style>.cls-1{fill:#a8605b;}.cls-2{fill:#784441;}.cls-3{fill:#453945;}.cls-4{fill:#d1afd1;}.cls-5{fill:#806b80;}.cls-6{fill:#ffd6ff;}.cls-7{fill:#7a687c;}.cls-8{fill:#e8c3e8;}.cls-9{fill:#9c829c;}.cls-10{fill:#c2a1c2;}.cls-11{fill:#a17461;}.cls-12{fill:#f5f5f5;}.cls-13{fill:#d1d1d1;}</style></defs><g id="Layer_2" data-name="Layer 2"><g id="Layer_1-2" data-name="Layer 1"><path class="cls-1" d="M69.14,21.31C65.41,7.06,55.3-2.46,37.42.56h0a.76.76,0,0,0-.16,0l-.17,0h0C19.26,3.91,13,16.31,14.41,31s7.15,26.71,18,49.13S51.8,129,51.8,129l8.13.9a.66.66,0,0,0,0,.09l.15-.07.18,0,0-.1,7.34-3.63s-1.06-27.79,1.45-52.57S72.89,35.65,69.14,21.31Z"/><path class="cls-2" d="M53.88,126.31c-.31-.92-.73-2.16-1.25-3.66-.26-.75-.52-1.54-.68-2.18-1.73-5.86-4.46-11.49-6.38-17-.51-1.29-1-2.62-1.57-4-2.7-6.7-5.77-13.86-9-20.63-10.56-21.8-16.38-33.81-17.72-48.1-.71-7.45.46-16.27,7.82-22a8.47,8.47,0,0,1,2.76-1.56c1.26-1.45,2.44-1.64,3.53-2.42-5.6,14.24,2.6,27.49,7.75,40.61,1.06,2.86,1,6.51,1.61,9.57a34.7,34.7,0,0,0,.7,4.6q.51,1.52,1,3c.31,1,.6,2.06.86,3.13,1.12,8.55-.41,17.9,4.18,23.83,6.94,9.2,6.88,20.13,8.31,30.7a21.34,21.34,0,0,0,.32,3.61c.17,1,.33,1.89.47,2.71Z"/><path class="cls-3" d="M73,126.9v-.06h0c-.63-2.18-6.63-3-13.61-1.72s-12.34,4-12.19,6.28h0l0,.06a.28.28,0,0,0,0,.09,1.06,1.06,0,0,0,.15.42l6.44,21h0c.59,1.36,3.89,1.93,10.61.74s9.63-2.85,9.71-4.33h0l-1.15-22a1.41,1.41,0,0,0,0-.46A.24.24,0,0,1,73,126.9Z"/><path class="cls-4" d="M73.07,126.72h0c-.63-2.18-6.63-3-13.6-1.72s-12.35,4-12.2,6.28h0l0,.06a.28.28,0,0,0,0,.09,1.16,1.16,0,0,0,.15.43l6.44,21h0a2,2,0,0,1-.08-.26c-.27-1.54,2.57-3.34,9.7-4.6s10.42-.54,10.69,1a.82.82,0,0,1,0,.27h0l-1.16-22a1.14,1.14,0,0,0,0-.45.29.29,0,0,1,0-.09Z"/><path class="cls-3" d="M64.22,151.39c-10.61,1.71-18.92,4.94-18.55,7.23h0l1.65,10.25h0c.37,2.29,9.27,2.75,19.89,1s18.92-4.95,18.55-7.23l-1.65-10.25C83.74,150.15,74.84,149.68,64.22,151.39Z"/><path class="cls-4" d="M64.19,151.19c-10.61,1.71-18.92,4.95-18.55,7.23h0l1.65,10.24c-.36-2.29,7.94-5.52,18.55-7.23s19.52-1.24,19.89,1.05l-1.65-10.25C83.71,150,74.81,149.48,64.19,151.19Z"/><path class="cls-5" d="M64.19,151.19c-10.61,1.71-18.92,4.95-18.55,7.23h0l1.65,10.24c-.36-2.29,7.94-5.52,18.55-7.23l.4-.06-1.65-10.25Z"/><path class="cls-3" d="M49.47,131.41h0c.41-.8,3.29-2.78,9-4L62.5,146.7a27.84,27.84,0,0,0-7,2.16l-.55.3Z"/><path class="cls-5" d="M67.88,158.2s0-.08,0-.13c0,.1,0,.19-.07.28s0,0,0,0l-.49.29a.94.94,0,0,0,.4-.13c.53-.22.26-1.12-.3-1.08a1,1,0,0,0-.24,0,.6.6,0,0,0-.41.73l.06.17a.53.53,0,0,0,1-.14Z"/><path class="cls-5" d="M72.42,155.22a.53.53,0,0,0,0-1.05.53.53,0,0,0,0,1.05Z"/><path class="cls-5" d="M74,158.47a.41.41,0,0,0,0-.81.41.41,0,0,0,0,.81Z"/><path class="cls-5" d="M81.48,156.48a1.09,1.09,0,0,0,0-.18.67.67,0,1,0-1.31.18,1.09,1.09,0,0,1,0,.17c.2.69,1.32.58,1.27-.17Z"/><path class="cls-5" d="M81.87,152.46c-.07,0-.1,0,0,0-.48-.19-.93.37-.81.81a.66.66,0,0,0,1.09.28l0,0-.27.16.12-.05a.6.6,0,0,0-.16-1.18Z"/><path class="cls-5" d="M75.22,156.19a.56.56,0,0,0,0-1.12.56.56,0,0,0,0,1.12Z"/><path class="cls-5" d="M79.08,158.5c0-.06,0-.12,0-.18a.55.55,0,1,0-1.08.15c0,.05,0,.11.05.17.14.57,1.1.47,1-.14Z"/><path class="cls-5" d="M67.86,154.48a.42.42,0,0,0,0-.83.42.42,0,0,0,0,.83Z"/><path class="cls-5" d="M76.38,152.07a.6.6,0,0,0-.45.9.48.48,0,0,0,.87-.12.19.19,0,0,0,0-.08l-.12.22-.19.09a.51.51,0,1,0-.13-1Z"/><path class="cls-5" d="M71.13,158.2a.45.45,0,0,0,0-.9.45.45,0,0,0,0,.9Z"/><path class="cls-5" d="M71.43,152.72a.29.29,0,0,0,0-.58.29.29,0,0,0,0,.58Z"/><path class="cls-5" d="M83.54,158.81a.77.77,0,0,0,0-1.53.77.77,0,0,0,0,1.53Z"/><path class="cls-5" d="M78,155.29a.53.53,0,1,0-1-.27c0,.5.77.78,1,.27Z"/><path class="cls-5" d="M69.17,159.77a.47.47,0,0,0,0-.93.47.47,0,0,0,0,.93Z"/><path class="cls-5" d="M65.81,156h0c.66-.14.38-1.14-.28-1l-.21,0a.52.52,0,0,0-.36.64.53.53,0,0,0,.64.36l.21,0c-.09-.34-.18-.68-.28-1h0a.53.53,0,1,0,.28,1Z"/><path class="cls-5" d="M65.86,159.66a.84.84,0,0,0,.66-.49.66.66,0,0,0-.1-.78.83.83,0,0,0-.77-.28.81.81,0,0,0-.79.79.79.79,0,0,0,1,.76Z"/><path class="cls-4" d="M64.55,153.64l.07.08a.66.66,0,0,0,1-.14.36.36,0,0,0,0-.09.73.73,0,1,0-1.14.15Z"/><path class="cls-4" d="M61.7,156.5a.57.57,0,0,0,0-1.13.57.57,0,0,0,0,1.13Z"/><path class="cls-4" d="M64.06,159.44s0,0,0,.06a.66.66,0,0,0,1.28-.36c0-.07,0-.14,0-.21-.16-.71-1.37-.56-1.29.17l0,.22h1.33v0a.67.67,0,1,0-1.31.17Z"/><path class="cls-4" d="M55.65,160.31c0-.13,0-.1,0,.07l-.18.18h0a.5.5,0,0,0-.27-1,.6.6,0,0,0-.43.83.5.5,0,0,0,1-.13Z"/><path class="cls-4" d="M59.44,158.72a.57.57,0,0,0,0-1.14.57.57,0,0,0,0,1.14Z"/><path class="cls-4" d="M61,161.81a.69.69,0,0,0,0-1.37.69.69,0,0,0,0,1.37Z"/><path class="cls-4" d="M63.87,155.5a1.19,1.19,0,0,0-.32-.05c-.87,0-.61,1.41.15,1.12a1.3,1.3,0,0,0,.29-.14.51.51,0,0,0-.12-.93Z"/><path class="cls-4" d="M54.91,157.33a.89.89,0,0,0,.47-.34.58.58,0,0,0-.2-.78.74.74,0,0,0-.44-.1.62.62,0,0,0-.62.62.63.63,0,0,0,.79.6Z"/><path class="cls-4" d="M59.82,154.87a.44.44,0,0,0,0-.87.44.44,0,0,0,0,.87Z"/><path class="cls-4" d="M62.37,153.87l.06,0a.41.41,0,0,0,.64-.08.25.25,0,0,1,0-.07.47.47,0,1,0-.74.1Z"/><path class="cls-4" d="M50.57,162.47c0-.09,0-.1,0,0l-.06.25v0c.29-.47-.41-1-.77-.59a.64.64,0,0,0-.16.53.5.5,0,1,0,1-.13Z"/><path class="cls-4" d="M50.75,160a.54.54,0,0,0,0-1.07.54.54,0,0,0,0,1.07Z"/><path class="cls-4" d="M52.91,158.24a.39.39,0,0,0,0-.77.39.39,0,0,0,0,.77Z"/><path class="cls-4" d="M47.34,160.27a.64.64,0,0,0,0-1.28.64.64,0,0,0,0,1.28Z"/><path class="cls-4" d="M52.78,162l0,.06.82-.23a1.42,1.42,0,0,1,0-.22c-.1-.44-.88-.35-.82.12,0,.11,0,.22,0,.33.06.47.89.36.83-.12v0a.43.43,0,1,0-.85.11Z"/><path class="cls-4" d="M58.63,162.17a.63.63,0,0,0-.24-.91.67.67,0,0,0-1,.75.68.68,0,0,0,1.22.16Z"/><path class="cls-4" d="M57.46,156.5a.44.44,0,0,0,0-.88.44.44,0,0,0,0,.88Z"/><path class="cls-4" d="M62.48,158.73a.3.3,0,0,0,0-.6.3.3,0,0,0,0,.6Z"/><path class="cls-2" d="M47.17,26.17a17.77,17.77,0,0,0-.51,4.95,13.4,13.4,0,0,0,1.2,5.19.63.63,0,0,0,1.08,0,7.89,7.89,0,0,0,.36-4.49c-.11-.81-.26-1.61-.44-2.41-.25-1.13-.85-2.14-1.12-3.24-.07-.27-.52-.29-.57,0Z"/><path class="cls-2" d="M59.1,31.09a38.73,38.73,0,0,0,0,6.81c.07,2-.82,4.18,0,6a.57.57,0,0,0,.78.2c1.68-1.21,1.4-3.51,1.29-5.4a28.58,28.58,0,0,0-1.55-7.65c-.08-.23-.5-.3-.54,0Z"/><path class="cls-2" d="M45.79,50.53a14.77,14.77,0,0,0,.51,8c.52,1.8,1.6,5.59,3.91,5.63a.64.64,0,0,0,.64-.63c.18-1.66-1.75-3.63-2.45-5.08a23.74,23.74,0,0,1-2.18-7.84c0-.23-.37-.31-.43-.06Z"/><path class="cls-2" d="M57.72,61.46a21.89,21.89,0,0,0-.88,6.19c-.11,2.19-1,4.6-.61,6.73.07.37.52.39.76.2,1.52-1.2,1.42-3.42,1.48-5.21.09-2.6-.11-5.22-.06-7.82a.35.35,0,0,0-.69-.09Z"/><path class="cls-2" d="M52.2,50.93c0,.6,0,1.22-.05,1.81a2.25,2.25,0,0,0,.38,1.72.46.46,0,0,0,.53.07c1.13-.73.87-2.92.24-3.89-.3-.47-1.14-.32-1.1.29Z"/><path class="cls-2" d="M65.85,53.42c-2.58,4.25-2.91,10.22-3.44,15.09a.51.51,0,0,0,.87.36c3.29-4,2.73-10.35,3.23-15.27,0-.37-.49-.45-.66-.18Z"/><path class="cls-2" d="M50.91,81.72a29.2,29.2,0,0,0,.45,7.15c.22,1.76.47,4.2,2.14,5.17a.5.5,0,0,0,.74-.42,5.07,5.07,0,0,0-.47-2.18,19.11,19.11,0,0,1-.78-4c-.22-2-.09-4.16-1.1-6a.53.53,0,0,0-1,.27Z"/><path class="cls-2" d="M60.53,89.87a17,17,0,0,0-.1,6.43c.2,1.89-.24,4.44.82,6a.48.48,0,0,0,.74.1c1.2-1.31.85-3.13.59-4.81-.4-2.55-.86-5.08-1.15-7.65a.46.46,0,0,0-.9-.12Z"/><path class="cls-2" d="M36.82,25.85c-.38,2.48-1.08,6,.67,8.1a.46.46,0,0,0,.76-.2c.88-2.43-1-5.34-1-7.84,0-.25-.42-.32-.46-.06Z"/><path class="cls-2" d="M39.33,7.74c-.17,2.32.06,4.68,0,7,0,1.94-.57,4,.22,5.78.2.46.83.34,1.06,0,1.14-1.64.78-3.87.65-5.78a39.11,39.11,0,0,0-.93-7.15.51.51,0,0,0-1,.14Z"/><path class="cls-2" d="M52.19,11.3a50.4,50.4,0,0,1,1.14,5.54,20.66,20.66,0,0,0,.7,4.65.4.4,0,0,0,.77,0c1-3.08,0-7.87-1.61-10.61a.55.55,0,0,0-1,.42Z"/><path class="cls-2" d="M62.2,21.9a13,13,0,0,0,1.16,3.8c.5,1.39.63,3,1.39,4.32.16.26.65.33.79,0,.6-1.38.13-2.89-.33-4.26a13.84,13.84,0,0,0-2-4.28.6.6,0,0,0-1,.42Z"/><path class="cls-2" d="M62.79,75.64a8.46,8.46,0,0,0-.31,5,.34.34,0,0,0,.62.08,8.56,8.56,0,0,0,.77-5.08c-.1-.62-.9-.45-1.08,0Z"/><path class="cls-2" d="M49.16,70.17a9.93,9.93,0,0,0-.29,2.6A3,3,0,0,0,49.48,75a.44.44,0,0,0,.69-.09,2.69,2.69,0,0,0,0-2,15.87,15.87,0,0,1-.41-2.65.33.33,0,0,0-.64-.08Z"/><path class="cls-2" d="M57.42,108a19.4,19.4,0,0,0,.15,5.89c.24,1.74.36,4.17,1.73,5.41a.76.76,0,0,0,1.29-.53c.07-1.55-.9-3.14-1.33-4.62-.59-2-.7-4.11-1.11-6.15a.38.38,0,0,0-.73,0Z"/><path class="cls-2" d="M63.36,112.69a25,25,0,0,0-.26,5.6c.1,1.94-.15,4.06.53,5.9a.47.47,0,0,0,.85.11c1.86-3.19.25-8.23-.44-11.61a.36.36,0,0,0-.68,0Z"/><path class="cls-2" d="M39.71,42.75c-.21,1.9.45,5.24,2.28,6.19a.43.43,0,0,0,.64-.37,7.25,7.25,0,0,0-.71-2.83c-.35-1-.46-2.14-.8-3.18a.72.72,0,0,0-1.41.19Z"/><path class="cls-2" d="M48.28,42.3c-.32.91-.59,3.07.58,3.45.79.25.78-1,.75-1.44-.06-.61,0-1.23-.08-1.84a.64.64,0,0,0-1.25-.17Z"/><path class="cls-2" d="M65.56,44.34c-.11,1.57-1,3.32-.54,4.88a.44.44,0,0,0,.64.26c1.69-1.17,1.23-3.58.69-5.25a.4.4,0,0,0-.79.11Z"/><path class="cls-1" d="M26.27,18.56c-1.5,3.17-1.43,8.6.79,11.46.28.36.79,0,.81-.34.14-1.85-.57-3.71-.78-5.55s-.06-3.6-.15-5.39c0-.32-.5-.52-.67-.18Z"/><path class="cls-1" d="M20.69,32.5A22.34,22.34,0,0,0,21,39.27c.33,2.26.44,5.42,1.85,7.28a.83.83,0,0,0,1.53-.42c.24-2.08-.89-4.41-1.39-6.44-.58-2.39-.83-4.86-1.61-7.19-.1-.32-.65-.39-.72,0Z"/><path class="cls-1" d="M28.6,45.43c-.71,2.9-.3,7.23,2.34,9.11.32.22.65-.15.59-.46a23.82,23.82,0,0,0-1.43-3.67,18.15,18.15,0,0,1-.93-4.9.29.29,0,0,0-.57-.08Z"/><path class="cls-1" d="M30.72,36.51c.07.77.14,1.54.2,2.32a2.93,2.93,0,0,0,.66,2,.36.36,0,0,0,.55-.08,2.8,2.8,0,0,0,0-1.85,22.44,22.44,0,0,0-.7-2.52c-.12-.35-.73-.32-.69.1Z"/><path class="cls-1" d="M35.59,58.24a5.4,5.4,0,0,0,.24,3.45,8,8,0,0,0,1.5,3.52A.39.39,0,0,0,38,65a5.37,5.37,0,0,0-.42-3.38,12.71,12.71,0,0,0-1.35-3.5.33.33,0,0,0-.61.08Z"/><path class="cls-1" d="M33.16,70.56A35.31,35.31,0,0,0,34.39,75c.46,1.27,1.09,2.94,2.35,3.55a.44.44,0,0,0,.66-.38c0-1.35-1-2.56-1.68-3.73l-2.15-4c-.12-.23-.46-.07-.41.17Z"/><path class="cls-1" d="M42.1,87.62c.4,1.38.56,2.82.92,4.21.3,1.2.53,2.61,1.45,3.5a.41.41,0,0,0,.69-.29c.15-1.34-.52-2.8-.9-4.08a15.29,15.29,0,0,0-1.67-3.54.27.27,0,0,0-.49.2Z"/><path class="cls-1" d="M46.41,102.2c.36.88.57,1.82.84,2.73a3.7,3.7,0,0,0,1.22,2.19.46.46,0,0,0,.67-.28,3.72,3.72,0,0,0-.56-2.47,20.94,20.94,0,0,0-1.44-2.47c-.23-.38-.91-.13-.73.3Z"/><path class="cls-1" d="M22.8,14.86A6.08,6.08,0,0,0,20.59,17,4.09,4.09,0,0,0,20,20.18a.4.4,0,0,0,.73.1,14.2,14.2,0,0,0,1.06-2.53,8.84,8.84,0,0,1,1.37-2.39c.24-.25-.09-.71-.39-.5Z"/><path class="cls-6" d="M58.52,127.75c-.21,3,.8,6.18,1.53,9.08.64,2.54.78,6.07,2.4,8.15.19.25.56.08.64-.17.75-2.29-.57-5.14-1.16-7.4-.84-3.26-1.36-6.58-2.16-9.83a.64.64,0,0,0-1.25.17Z"/><path class="cls-6" d="M70,127.67a24.9,24.9,0,0,0-.52,8.65c.15,2.69.11,6.44,1.42,8.85.14.28.5.12.53-.14.34-2.78-.61-5.9-.78-8.71s0-5.7,0-8.56a.34.34,0,0,0-.66-.09Z"/><path class="cls-3" d="M182.56,138.79c-26.63,0-48.22,8.84-48.22,14.58h0v21.52h0c0,5.74,21.59,10.39,48.22,10.39s48.22-4.65,48.22-10.39V153.37C230.78,147.63,209.19,138.79,182.56,138.79Z"/><path class="cls-4" d="M182.56,138.3c-26.63,0-48.22,7.64-48.22,13.38v22.71c0-5.73,21.6-10.38,48.22-10.38s48.22,4.65,48.22,10.39V153.47C230.78,147.74,209.19,138.3,182.56,138.3Z"/><path class="cls-4" d="M230.78,177V395.12H134.34V177a2.44,2.44,0,0,1,.26-1.07c2.48-5.24,23-9.32,48-9.32s45.48,4.08,48,9.32A2.44,2.44,0,0,1,230.78,177Z"/><path class="cls-7" d="M140.63,148.55c5.25-2.57,13.59-4.79,22.76-6.05v19.25c-9.27.79-17.1,2.15-22.76,3.94Z"/><path class="cls-7" d="M163.39,170.4l-.18,14L163,198.7l0,2.23-.11,8.12v.82l-.33,25.64v.61l0,1.55v1.26l0,1.46-.09,6.82,0,1.7v1.28l-1.86,144.93H140.63V174.66C145.7,172.76,153.75,171.25,163.39,170.4Z"/><path class="cls-3" d="M163.09,248.94S148.72,274.39,143.33,275s-9-15.87-7.49-25.75C143.33,248,163.09,248.94,163.09,248.94Z"/><path class="cls-8" d="M213,163.12a190.9,190.9,0,0,0-29.35-2.1h-2.4V141.31l2.4,0A105.81,105.81,0,0,1,213,145.35Z"/><path class="cls-8" d="M213,171.83,212.86,183l-.46,35.34-.2,16.21-2.07,160.6H178.36l1.88-146.9.56-43.36.25-19.59.2-15.61,2.4,0q3.25,0,6.45.1c5.78.17,11.33.56,16.4,1.16,1.44.17,2.84.36,4.19.56l.47.07Z"/><path class="cls-9" d="M163.79,200a89.94,89.94,0,0,1,16,4.39c8.38,3.2,11.18,12.78,10,23.56s-5.59,24-20,22.36-14.37-.79-14.37-.79S177,230.77,163.79,200Z"/><path class="cls-9" d="M185.36,214s18.76-.4,27.95,4.79c4,6,4.39,14-.4,15.57s-18.77-7.19-27.95-3.59A27,27,0,0,0,185.36,214Z"/><path class="cls-9" d="M194.94,229.17l2.79,26s1.2,7.58,8,6,5.19-10.79,5.19-10.79l-1.6-18.76Z"/><path class="cls-6" d="M116,203.32,41.46,189.64a9.93,9.93,0,0,0-4.33-1c-6.87,0-12.44,7.13-12.44,15.92,0,8.46,5.15,15.37,11.65,15.89l10.09,1.87c4.2,1.92,10.54,5.8,13,12.54,3.89,10.48-7.19,34.44-7.19,34.44l0,0a6.39,6.39,0,0,0-.58,1.34c-1.61,5.36,4,11.78,12.51,14.34S81,285.3,82.61,280a6.41,6.41,0,0,0,.27-1.68c.54-3.28,5.37-31.76,10.73-37.12,5-5,10.45-6.93,18.12-6.76l.64.12a10,10,0,0,0,3.52.65c6.87,0,12.43-7.13,12.43-15.92S122.82,203.4,116,203.32Z"/><path class="cls-5" d="M49.56,204.76c0,8.79-5.57,15.92-12.43,15.92S24.7,213.55,24.7,204.76s5.56-15.92,12.43-15.92S49.56,196,49.56,204.76Z"/><path class="cls-3" d="M153.7,195.32l0,0c-7.45-.79-11.15-1.17-12.94-1.35q-.63-.08-1.26-.12l-.32,0v0l-.76,0c-12.31,0-22.3,12.78-22.3,28.55,0,14.21,8.11,26,18.72,28.19h0l.15,0a17.25,17.25,0,0,0,2.6.31l13.57,1.62.07-.14c.42,0,.84,0,1.27,0,12.31,0,22.29-12.79,22.29-28.56C174.74,208.6,165.43,196.15,153.7,195.32Z"/><path class="cls-6" d="M153.7,195.32l0,0c-7.45-.79-11.15-1.17-12.94-1.35a18.63,18.63,0,0,1,6.45,2.16c6.81,3.74,11.86,11.71,13.16,21.33a36,36,0,0,1,.34,4.91A33.81,33.81,0,0,1,156,239.87a22.71,22.71,0,0,1-12.31,10.21,17.92,17.92,0,0,1-5.28.81c-.28,0-.56,0-.83,0l13.57,1.62.07-.14c.42,0,.84,0,1.27,0,12.31,0,22.29-12.79,22.29-28.56C174.74,208.6,165.43,196.15,153.7,195.32Z"/><path class="cls-3" d="M134.53,193.12l0,0c-7.45-.79-11.15-1.17-12.94-1.34-.42-.06-.84-.1-1.26-.13l-.32,0v0l-.77,0c-12.31,0-22.29,12.78-22.29,28.56,0,14.21,8.1,26,18.72,28.18v0l.15,0a20.13,20.13,0,0,0,2.59.31L132,250.28l.06-.14c.42,0,.84.05,1.27.05,12.31,0,22.3-12.79,22.3-28.56C155.58,206.4,146.26,194,134.53,193.12Z"/><path class="cls-6" d="M134.53,193.12l0,0c-7.45-.79-11.15-1.17-12.94-1.34a18.34,18.34,0,0,1,6.45,2.15c6.81,3.75,11.86,11.72,13.17,21.34a37.48,37.48,0,0,1,.33,4.91,33.86,33.86,0,0,1-4.7,17.53,22.71,22.71,0,0,1-12.31,10.21,17.71,17.71,0,0,1-5.29.81l-.83,0L132,250.28l.06-.14c.42,0,.84.05,1.27.05,12.31,0,22.3-12.79,22.3-28.56C155.58,206.4,146.26,194,134.53,193.12Z"/><path class="cls-3" d="M67.16,166.28c-10.75,0-19.47,1.87-19.47,4.19h0V188h0c0,2.32,8.72,4.19,19.47,4.19s19.46-1.87,19.46-4.19V170.47C86.62,168.15,77.91,166.28,67.16,166.28Z"/><path class="cls-4" d="M67.16,166.08c-10.75,0-19.47,1.88-19.47,4.19h0v17.57c0-2.32,8.72-4.19,19.47-4.19s19.46,1.88,19.46,4.19V170.27C86.62,168,77.91,166.08,67.16,166.08Z"/><path class="cls-3" d="M37.15,190.64c-5.88,0-10.64,6.1-10.64,13.63s4.76,13.62,10.64,13.62,10.64-6.1,10.64-13.62S43,190.64,37.15,190.64Zm0,24.69c-4.45,0-8.08-5-8.08-11.06s3.63-11.07,8.08-11.07,8.08,5,8.08,11.07S41.6,215.33,37.15,215.33Z"/><path class="cls-3" d="M42.1,218.39s15.87,2.1,19.77,13.48-5.39,32.94-4.5,32.64a17.91,17.91,0,0,1,13.58.4s9-24.36,5.29-36.94C72,213.61,53.88,208.9,50,209.8,48.29,217.49,42.1,218.39,42.1,218.39Z"/><path class="cls-10" d="M116,203.32l-70.84-13a15.14,15.14,0,0,1,5.6,6.21c12,4.49,33.25,17.07,35.05,32,1.39,11.6-6.56,41.53-11.33,57.21,4.08-.7,7.19-2.76,8.11-5.83a6.41,6.41,0,0,0,.27-1.68c.54-3.28,5.37-31.76,10.73-37.12,5-5,10.45-6.93,18.12-6.76l.64.12a10,10,0,0,0,3.52.65c6.87,0,12.43-7.13,12.43-15.92S122.82,203.4,116,203.32Z"/><path class="cls-3" d="M93.51,224.38c-1.81-15.07-14.13-25.95-14.57-26.56l37.2,6.7h.15c5.81.07,10.54,6.41,10.54,14.12s-4.77,14.12-10.64,14.12a8.24,8.24,0,0,1-2.88-.53l-.15-.06-1-.17h-1.13c-7.81,0-13.32,2.19-18.44,7.3C87,244.92,95,236.87,93.51,224.38Z"/><path class="cls-3" d="M82.33,281.15c-1.61,5.36-9.83,7.62-18.35,5.06s-14.12-9-12.51-14.35,9.83-7.62,18.35-5.05S83.94,275.79,82.33,281.15Z"/><path class="cls-5" d="M47.69,170.27h0v17.57c0-2.32,8.72-4.19,19.47-4.19h.4V166.08h-.4C56.41,166.08,47.69,168,47.69,170.27Z"/><path class="cls-6" d="M78.44,189.56c0-1.2-5.1-2.17-11.38-2.17s-11.38,1-11.38,2.17V194c0,2.32,5.09,4.19,11.38,4.19s11.38-1.87,11.38-4.19v-4.47Z"/><path class="cls-3" d="M64,195.83c-3.94-.46-6-1.66-6.27-2.21l-.07-3.71a29.14,29.14,0,0,1,6.34-1Z"/><path class="cls-3" d="M160.21,209.53a29.19,29.19,0,0,0-8.71-12.67l1.32.14,0,0,.73.09c7,.5,13.36,5.77,16.77,13.68Z"/><path class="cls-3" d="M152.45,250.59c-.35,0-.72,0-1.14-.05l-1.24-.08,0,.08-2.24-.27a25.85,25.85,0,0,0,9.71-9.47,31,31,0,0,0,1.85-3.53l10.21,1.26C165.78,246,159.38,250.59,152.45,250.59Z"/><path class="cls-3" d="M133.28,248.39c-.35,0-.72,0-1.14,0l-1.23-.09,0,.09-2.25-.27a25.81,25.81,0,0,0,9.71-9.48,31.68,31.68,0,0,0,1.93-3.71l10.22,1.27C146.71,243.76,140.28,248.39,133.28,248.39Z"/><path class="cls-3" d="M141,207.14a29.32,29.32,0,0,0-8.65-12.48l1.32.14,0,0,.73.1c6.93.49,13.26,5.68,16.69,13.48Z"/><path class="cls-11" d="M217.87,144.18a100,100,0,0,0-27.64-5.62c-.1,7.6.45,16.81,1.21,25.63a163.09,163.09,0,0,1,22.33,2.29Z"/><path class="cls-11" d="M193.34,196.83h13.18l5-27.2a165.57,165.57,0,0,0-21.63-2.2C191.34,183.11,193.34,196.83,193.34,196.83Z"/><path class="cls-9" d="M195.74,215.39s-5.39-5.39-4.19-15,6-7.79,10.18-8.39,10.78,3.6,10.18,12a23.42,23.42,0,0,1-6,13.78Z"/><path class="cls-12" d="M228.57,169.57V152.65a20,20,0,0,0-3-2.16V168A17,17,0,0,1,228.57,169.57Z"/><path class="cls-12" d="M228.57,176.76V395.12h-3v-220A17,17,0,0,1,228.57,176.76Z"/><path class="cls-12" d="M210.71,164c-1.36-.2-2.76-.38-4.19-.54v-21c1.42.3,2.82.63,4.19,1Z"/><path class="cls-12" d="M210.71,170.24l0,1.22,0,2.81-.12,9.08-.17,13.53-.18,14.19-.08,6.26-.22,17.08,0,3.5-.26,20.57-1.74,136.64h-4.19l1.7-133.92.35-27.82,0-2.41.17-13.18,0-1.74.25-19.22,0-3.89.12-9,.16-13,0-1.21C208,169.86,209.36,170,210.71,170.24Z"/><path class="cls-5" d="M70,171.42a.55.55,0,0,0,0-1.1.55.55,0,0,0,0,1.1Z"/><path class="cls-5" d="M76.6,177.09a.89.89,0,0,0-1.48-.86.89.89,0,1,0,1.48.86Z"/><path class="cls-5" d="M76.77,172.47c0,.12,0,.14,0,.07l-.22.38a.79.79,0,0,0,.27-.64c-.14.24-.27.48-.41.71h0a.82.82,0,0,0-.41-1.53l.79.6a.82.82,0,0,0-.79-.6h0l.42.11h0a.86.86,0,0,0-1.26.52,1.35,1.35,0,0,0,0,.4.83.83,0,1,0,1.66,0Z"/><path class="cls-5" d="M71,177.15a.49.49,0,0,0,0-1,.49.49,0,0,0,0,1Z"/><path class="cls-5" d="M82.73,178a.76.76,0,0,0,0-1.52.76.76,0,0,0,0,1.52Z"/><path class="cls-5" d="M82.34,173.62a.84.84,0,0,0,.3-.11.75.75,0,0,0,0-1.29,1.08,1.08,0,0,0-.3-.11.78.78,0,1,0,0,1.51Z"/><path class="cls-5" d="M79.94,176.48a.42.42,0,0,0,0-.83.42.42,0,0,0,0,.83Z"/><path class="cls-5" d="M77.74,181.13a.48.48,0,0,0,0-.95.48.48,0,0,0,0,.95Z"/><path class="cls-5" d="M72.54,181.94l.25-.1a.68.68,0,0,0,0-1.17l-.25-.11a.72.72,0,1,0,0,1.38Z"/><path class="cls-5" d="M74.35,173.81a.54.54,0,0,0,0-1.08.54.54,0,0,0,0,1.08Z"/><path class="cls-5" d="M79.74,170.63a.56.56,0,0,0,0-1.12.56.56,0,0,0,0,1.12Z"/><path class="cls-5" d="M73.68,170.17a.16.16,0,0,1-.09,0,.52.52,0,0,0,.29.07.42.42,0,0,0,.4-.31c.1-.38-.26-.67-.6-.73a.51.51,0,1,0,0,1Z"/><path class="cls-5" d="M82.93,182a.71.71,0,0,0,0-1.42.71.71,0,0,0,0,1.42Z"/><path class="cls-5" d="M85.33,178.74a.68.68,0,0,0,0-1.36.68.68,0,0,0,0,1.36Z"/><path class="cls-5" d="M85.56,172.07a.57.57,0,0,0,0-.13.63.63,0,0,0-1.25,0s0,.09,0,.13c-.09.82,1.36.82,1.27,0Z"/><path class="cls-5" d="M69.35,180.75a.5.5,0,0,0,0-1,.5.5,0,0,0,0,1Z"/><path class="cls-5" d="M69.75,174.24a.58.58,0,0,0,0-1.15.58.58,0,0,0,0,1.15Z"/><path class="cls-5" d="M85.31,184.7a.75.75,0,0,0,.39-.21.65.65,0,0,0,0-.88.76.76,0,0,0-.39-.22.68.68,0,1,0,0,1.31Z"/><path class="cls-5" d="M67.67,175.12a1,1,0,0,0,.47-.27.82.82,0,0,0,0-1.17,1,1,0,0,0-.47-.27.89.89,0,1,0,0,1.71Z"/><path class="cls-5" d="M68.66,169l0-.05-.22.23-.2,0-.61-.35a1,1,0,0,0,.33.33.83.83,0,0,0,.82,0l.06,0a.76.76,0,0,0,.38-.67.79.79,0,0,0-.57-.76l-.07,0a.77.77,0,0,0-.78.2.87.87,0,0,0-.26.6l.09-.36a.74.74,0,0,0-.08.69.59.59,0,0,0,1.07.14Z"/><path class="cls-5" d="M67.53,180.87a1.15,1.15,0,0,0,.65-.32.72.72,0,0,0,0-1,.92.92,0,0,0-1.14-.12.78.78,0,0,0-.27,1.05.36.36,0,0,0,0,.09.64.64,0,0,0,.72.29Z"/><path class="cls-4" d="M67.79,171.22a.81.81,0,0,0,.45-.55l-.35.46.08,0a.72.72,0,0,0,0-1.23l-.08-.05.35.46a.79.79,0,0,0-.45-.54.86.86,0,1,0,0,1.49Z"/><path class="cls-4" d="M67.57,178a.93.93,0,0,0,.56-.41.72.72,0,0,0,0-.75,1,1,0,0,0-.56-.41.83.83,0,0,0-1,.79.82.82,0,0,0,1,.78Z"/><path class="cls-4" d="M67.56,182.49a.64.64,0,0,0,0-1.28.64.64,0,0,0,0,1.28Z"/><path class="cls-4" d="M60.89,174.82l.12,0a.59.59,0,0,0,0-1l-.12,0a.64.64,0,1,0,0,1.11Z"/><path class="cls-4" d="M63,178.93a.68.68,0,0,0,0-1.35.68.68,0,0,0,0,1.35Z"/><path class="cls-4" d="M64.76,173.83a.57.57,0,0,0,0-1.13.57.57,0,0,0,0,1.13Z"/><path class="cls-4" d="M51.93,174.38l.11,0a.49.49,0,0,0,0-.93l-.11-.05a.54.54,0,1,0,0,1Z"/><path class="cls-4" d="M56.18,178.33a.47.47,0,0,0,0-.94.47.47,0,0,0,0,.94Z"/><path class="cls-4" d="M61.27,181c0-.06.08-.13,0,0,.27-.36-.1-.87-.5-.87a.58.58,0,0,0-.5.87c-.08-.1,0,0,0,0a.52.52,0,0,0,1,0Z"/><path class="cls-4" d="M56.58,173.14a.67.67,0,0,0,0-1.34.67.67,0,0,0,0,1.34Z"/><path class="cls-4" d="M63.56,170.66a.59.59,0,0,0,0-1.18.59.59,0,0,0,0,1.18Z"/><path class="cls-4" d="M52.45,182.31l.12-.05a.47.47,0,0,0,0-.81l-.12-.06a.53.53,0,1,0,0,.92Z"/><path class="cls-4" d="M56.9,181.9a1.34,1.34,0,0,0,.39-.11.39.39,0,0,0,0-.68,1.32,1.32,0,0,0-.39-.1.46.46,0,1,0,0,.89Z"/><path class="cls-4" d="M66.28,181.2l-.14,0a.49.49,0,1,0,0,.95l.14,0a.47.47,0,0,0,0-.91Z"/><path class="cls-4" d="M51,178.34a.49.49,0,0,0,0-1,.49.49,0,0,0,0,1Z"/><path class="cls-4" d="M54.18,176.72a.46.46,0,0,0,0-.92.46.46,0,0,0,0,.92Z"/><path class="cls-4" d="M59.37,169.53a.46.46,0,0,0,0-.91.46.46,0,0,0,0,.91Z"/><path class="cls-4" d="M53,171.4a.53.53,0,0,0,0-1.06.53.53,0,0,0,0,1.06Z"/><path class="cls-4" d="M59.7,177.37c0-.05.06-.05,0,0a.73.73,0,1,0-1,0c-.08-.07,0-.07,0,0a.62.62,0,0,0,1.06,0Z"/><path class="cls-4" d="M60.67,171.39a.47.47,0,0,0,0-.94.47.47,0,0,0,0,.94Z"/><path class="cls-4" d="M55.88,169a.37.37,0,0,0,0-.73.37.37,0,0,0,0,.73Z"/><path class="cls-4" d="M49.74,183.63a.44.44,0,0,0,0-.87.44.44,0,0,0,0,.87Z"/><path class="cls-4" d="M65.91,168.12a.5.5,0,0,0,0-1,.5.5,0,0,0,0,1Z"/><path class="cls-6" d="M38.25,194.87c3,2,3.8,5.61,4,9a13.53,13.53,0,0,1-.73,5.13c-.5,1.41-1.65,2.35-2.31,3.66a.63.63,0,0,0,.53.93c4.39.3,4.92-6.79,4.72-9.72-.23-3.3-2-9.11-5.78-10a.51.51,0,0,0-.39.93Z"/><path class="cls-6" d="M88.43,246.22c-1.29,4-2.79,7.93-3.94,12-1.09,3.87-2.83,8.23-2.82,12.27a.26.26,0,0,0,.49.13c1.6-3.35,2.09-7.43,3-11,1.19-4.43,2.2-8.92,3.4-13.34a.09.09,0,0,0-.18-.05Z"/><path class="cls-10" d="M94.22,216a42.69,42.69,0,0,1,1.42,8c.18,2.8-.56,5.56-.41,8.34a.28.28,0,0,0,.54.07c2-4.8,1.13-12-1.37-16.5a.1.1,0,0,0-.18.08Z"/><path class="cls-10" d="M97.38,217.23a25.16,25.16,0,0,1,.75,4.66,39.11,39.11,0,0,0,.21,4.33.17.17,0,0,0,.33,0c.47-2.77.84-6.81-1.07-9.12-.09-.1-.24,0-.22.13Z"/><path class="cls-3" d="M88.24,212.85A40.07,40.07,0,0,1,91,220.13c.69,2.6.64,5.27,1.07,7.9a.22.22,0,0,0,.42,0c1-4.88-.9-11.56-4.13-15.3-.08-.09-.2,0-.15.12Z"/><path class="cls-3" d="M86.45,214.64a27.4,27.4,0,0,1,2.35,4.88,28.18,28.18,0,0,1,.88,4.92.25.25,0,0,0,.48,0c.85-3.62-1.17-7.35-3.57-9.91a.09.09,0,0,0-.14.11Z"/><path class="cls-10" d="M97.28,203.52a127.07,127.07,0,0,0,18.2,3.7c.25,0,.25-.33,0-.41-5.57-2.33-12.3-2.37-18.2-3.5a.11.11,0,0,0,0,.21Z"/><path class="cls-6" d="M74.22,232.8a29.45,29.45,0,0,1-.57,13.07c-.85,3.33-2.42,6.79-2.52,10.25,0,.28.35.29.44.06a79.13,79.13,0,0,0,3.41-13c.72-3.47,1-7.17-.52-10.46-.07-.15-.27,0-.24.1Z"/><path class="cls-3" d="M78.23,238.36C78,244,75.88,249.2,75.35,254.73c0,.19.29.27.36.1,2.19-5,2.81-11,2.73-16.47a.11.11,0,1,0-.21,0Z"/><path class="cls-3" d="M64.67,189c-.27,2.48-.5,5.64.32,8a.18.18,0,0,0,.35,0c.16-2.49.42-5.66-.49-8a.09.09,0,0,0-.18,0Z"/><path class="cls-10" d="M66.17,189.19a8.15,8.15,0,0,0-.22,2.26,9,9,0,0,0,.2,2.64.22.22,0,0,0,.42,0,8.25,8.25,0,0,0,.2-2.27,9.65,9.65,0,0,0-.22-2.63.2.2,0,0,0-.38,0Z"/><path class="cls-3" d="M140.87,234.2c1.38.27,2.8.38,4.21.54a29.18,29.18,0,0,0,4.84.48c.32,0,.52-.51.18-.67a16.88,16.88,0,0,0-9.23-.82.24.24,0,0,0,0,.47Z"/><path class="cls-3" d="M162.12,236a22,22,0,0,0,2.92.4,8,8,0,0,0,2.92-.11.28.28,0,0,0,0-.54,7.77,7.77,0,0,0-2.5-.18,32.51,32.51,0,0,1-3.27-.14c-.32,0-.39.51-.07.57Z"/><path class="cls-3" d="M163.69,234.72a47,47,0,0,0,6.89.62.18.18,0,0,0,0-.36c-2.17-.63-4.69-.34-6.94-.58-.21,0-.2.3,0,.32Z"/><path class="cls-3" d="M143.33,232.38c2.47.33,5,.67,7.48.86.22,0,.22-.28.05-.34-2.3-.92-5.1-.71-7.53-.94-.28,0-.27.38,0,.42Z"/><path class="cls-3" d="M143.33,209.41c2.38.14,4.81.61,7.19.56a.27.27,0,0,0,.13-.5c-2.21-1.14-4.92-.8-7.32-.67a.31.31,0,0,0,0,.61Z"/><path class="cls-3" d="M144.23,211.29a25.14,25.14,0,0,1,3.46.42,9.44,9.44,0,0,0,2.53.32c.2,0,.34-.33.11-.43-1.77-.78-4.21-.53-6.1-.49a.09.09,0,0,0,0,.18Z"/><path class="cls-3" d="M163.64,212.28a53.76,53.76,0,0,0,6,.94c.23,0,.3-.31.12-.42-1.79-1.06-4.12-.71-6.11-.88-.2,0-.25.32-.05.36Z"/><path class="cls-6" d="M162.77,209.17a14.42,14.42,0,0,0,5.46.41.18.18,0,0,0,0-.35c-1.78-.34-3.64,0-5.44-.2-.08,0-.09.13,0,.14Z"/><path class="cls-6" d="M161.27,238.56c1.44.42,3.06,1,4.57.68a.2.2,0,0,0,0-.38,32.85,32.85,0,0,0-4.54-.51c-.12,0-.14.17,0,.21Z"/><path class="cls-6" d="M141.46,236.62a12.17,12.17,0,0,0,3,.78,8.5,8.5,0,0,0,2.51.16.32.32,0,0,0,.08-.57,5.27,5.27,0,0,0-2.08-.43,29.88,29.88,0,0,1-3.4-.47.27.27,0,0,0-.14.53Z"/><path class="cls-6" d="M145.12,206.54a13,13,0,0,0,3,.3c.13,0,.13-.24,0-.27a12.9,12.9,0,0,0-3-.29.13.13,0,0,0,0,.26Z"/><path class="cls-6" d="M75.53,208.92c4.75,5.1,9.37,8.87,10.66,16.12a.24.24,0,0,0,.46,0c1.12-6-6-13.86-10.93-16.37a.16.16,0,0,0-.19.25Z"/><path class="cls-10" d="M31.23,197.07c-2.52,3.77-3.18,9.82-.41,13.65.15.19.49.08.42-.18a21.31,21.31,0,0,1-1.16-6.9,34.46,34.46,0,0,1,1.33-6.49.1.1,0,0,0-.18-.08Z"/><path class="cls-4" d="M144,284.88c-1,7.64-.32,15.66-.37,23.36s0,15.62,0,23.43c0,15.74-.16,31.51.42,47.24a.26.26,0,0,0,.51,0c.59-15.73.42-31.5.42-47.24,0-7.81,0-15.62-.05-23.43s.63-15.72-.36-23.36a.26.26,0,0,0-.52,0Z"/><path class="cls-7" d="M166.17,273.49c-.47,12.28-.35,24.56-.36,36.84s-.22,24.57.35,36.84a.23.23,0,0,0,.46,0c.57-12.27.35-24.56.34-36.84s.11-24.56-.35-36.84a.22.22,0,0,0-.44,0Z"/><path class="cls-7" d="M169.31,311.23c-1.13,19.29-.39,38.79-.07,58.1a.15.15,0,0,0,.29,0c.31-19.31,1.06-38.81-.07-58.1a.08.08,0,1,0-.15,0Z"/><path class="cls-12" d="M203.36,230.37c-.63,13.46-.41,27-.44,40.44,0,13.86-.27,27.76.29,41.62a.32.32,0,0,0,.63,0c.55-13.46.33-27,.3-40.44,0-13.87.19-27.76-.45-41.62a.17.17,0,1,0-.33,0Z"/><path class="cls-12" d="M214.09,213c-1,11.78-.43,23.81-.46,35.64s-.21,23.76.35,35.64a.33.33,0,0,0,.66,0c.55-11.88.4-23.76.35-35.64s.54-23.85-.47-35.64a.22.22,0,0,0-.43,0Z"/><path class="cls-12" d="M203.42,144.12c-.17,5.24-1.1,10.41-.2,15.65a.32.32,0,0,0,.61,0c.9-5.24,0-10.41-.2-15.65a.1.1,0,0,0-.21,0Z"/><path class="cls-4" d="M142.9,149.51c-.32,3.61-.82,7.24-.18,10.86a.32.32,0,0,0,.62,0c.63-3.62.14-7.25-.19-10.86a.13.13,0,1,0-.25,0Z"/><path class="cls-4" d="M144.6,153.1c-.09,2.69-.59,5.82,0,8.46a.29.29,0,0,0,.55,0c.54-2.64,0-5.77,0-8.46a.23.23,0,0,0-.45,0Z"/><path class="cls-7" d="M164.38,145.31c-.17,3.95-.86,8.16,0,12.06a.27.27,0,0,0,.52,0c.82-3.9.12-8.11,0-12.06a.21.21,0,0,0-.42,0Z"/><path class="cls-7" d="M167.36,147.71a63.82,63.82,0,0,0,0,9.58.24.24,0,0,0,.47,0,63.82,63.82,0,0,0,0-9.58.23.23,0,0,0-.45,0Z"/><path class="cls-7" d="M166.16,180.65a120.76,120.76,0,0,0,0,15,.28.28,0,0,0,.56,0,122.73,122.73,0,0,0-.06-15,.23.23,0,0,0-.45,0Z"/><path class="cls-7" d="M190.27,343a329.44,329.44,0,0,0-.11,34.14.19.19,0,0,0,.38,0,335.11,335.11,0,0,0-.11-34.14.08.08,0,0,0-.16,0Z"/><path class="cls-7" d="M192.64,351.36c-.75,6.56-.39,13.18-.14,19.77a.25.25,0,0,0,.49,0c.25-6.59.6-13.21-.14-19.77a.11.11,0,0,0-.21,0Z"/><path class="cls-12" d="M16.83,402.64,53.31,275.89a13.44,13.44,0,0,1,13.78-5.09c9.29,1.8,10.48,8.09,9.58,12S52.36,402.64,52.36,402.64Z"/><path class="cls-12" d="M35.73,306.63s-10.12-27.07-14.18-20.27c-3.58,6,3.05,6.75,7.5,11.19A42.22,42.22,0,0,1,35.73,306.63Z"/><path class="cls-13" d="M24.06,345.74S-4.74,348,.68,353.8c4.78,5.09,7.33-1.08,12.82-4.13A41.72,41.72,0,0,1,24.06,345.74Z"/><path class="cls-12" d="M74.47,325.49s9.21-15.31,10.91-10.71c1.5,4.05-2.62,3.75-5.82,6A25.8,25.8,0,0,0,74.47,325.49Z"/><path class="cls-13" d="M56.82,277.88c-3.3,11.91-6.35,23.85-9.31,35.84-1.54,6.21-3,12.43-4.42,18.66-1.5,6.51-3.3,13.19-3.77,19.88,0,.61.82.65,1,.14,2.23-6.26,3.35-13,4.82-19.46,1.41-6.23,2.91-12.44,4.38-18.66,2.86-12,5.75-24,8.06-36.19a.39.39,0,0,0-.76-.21Z"/><path class="cls-13" d="M65.23,274.9c-3.37,15.78-6.77,31.56-10.34,47.3-3.74,16.51-7.77,33.05-10.53,49.75-.06.35.44.5.53.15,4-16.45,7.59-33,11.33-49.53,3.56-15.75,7.23-31.52,9.72-47.48.07-.46-.61-.66-.71-.19Z"/><path class="cls-13" d="M72,282.72q-2.34,11.82-4.77,23.64c-1.79,8.67-4.13,17.29-5.59,26a.42.42,0,0,0,.8.22c5.16-16.07,7.09-33.19,10-49.76,0-.29-.39-.42-.45-.12Z"/></g></g></svg>