<svg xmlns="http://www.w3.org/2000/svg" viewBox="0 0 375.18 120.01"><defs><style>.cls-1{fill:#fff;}</style></defs><g id="Layer_2" data-name="Layer 2"><g id="Layer_1-2" data-name="Layer 1"><path class="cls-1" d="M90.55,76.06,87.47,76H81.2a38,38,0,0,1-.24-5.9,37.88,37.88,0,0,1,.12-3.86h5.09l.12-.79a.71.71,0,0,0-.12-.46L83.92,54.39H69.72a1.26,1.26,0,0,0-.59,1l.12.11A2.7,2.7,0,0,1,69,56.77l-.59,2.73a45.76,45.76,0,0,1-1.07,5.33.44.44,0,0,0-.12.34l.12.34a1.2,1.2,0,0,1-.12.57,8.15,8.15,0,0,0,1.9.22l.94-.11a16.45,16.45,0,0,1,2,.11l.35.23-.12,1.25a8.42,8.42,0,0,1,.24,1.93l-.24,1.36a3.1,3.1,0,0,0,.12.79A4.58,4.58,0,0,1,72.56,73l-.12,1.81L72.2,76H53.86V66.19h3.79c.31-1.21.63-2.38,1-3.52a26.27,26.27,0,0,0,.71-3.51,19.25,19.25,0,0,1,.76-3.47,19.25,19.25,0,0,0,.77-3.34,9.59,9.59,0,0,1,.48-2.27Q62.15,47,63,42.82a4,4,0,0,1-.29-1.14c0-.38-1.21-1.81-3.49-4.31a24.08,24.08,0,0,1,1.89-1.59c.31-.3.61-.6.89-.91a4.21,4.21,0,0,1,1-.79,6.88,6.88,0,0,0,3.08-4.77l1.07-4.87q.34-1.94,1.77-7.83c.39-1.82.59-2.84.59-3.07a3.16,3.16,0,0,1,.12-.79H64.39V3.11H83l1-.12,1.89.12L88.3,3l2.13.12v9.64H85.22l.24,1a17.21,17.21,0,0,0,.71,3.52c.23.83.43,1.66.59,2.49s.33,1.71.53,2.61.37,1.78.53,2.61.34,1.71.54,2.61.37,1.78.53,2.61A9.25,9.25,0,0,0,92,34.42l3.49,2.95a15.72,15.72,0,0,0-1.3,1.42A12.74,12.74,0,0,1,93,40.09a7.24,7.24,0,0,0-1.3,2.61,4,4,0,0,0,.12,1c.07.31.15.65.23,1l1.3,5.56c.56,2.64,1,4.59,1.31,5.84s.67,2.89,1.06,4.93l1.18,5.11h3.44a10,10,0,0,1,.23,2.16l-.12,2.72A13.16,13.16,0,0,1,100.6,73l-.12,2.72a13.67,13.67,0,0,1-2.36.11ZM60.13,66.19A2.86,2.86,0,0,0,61.49,66c.12-.11.18-.55.18-1.3H60.61Zm.36,3.4c1,0,1.54-.22,1.54-.68a.72.72,0,0,0-.18-.45,2.93,2.93,0,0,1-.3-.45l-1.18.56A3.29,3.29,0,0,1,60.49,69.59ZM62.62,60c.08,0,.19-.07.35-.23h-.59Zm3.55-.23c.16-1.06.35-2.1.59-3.12s.43-2.06.59-3.12a9.05,9.05,0,0,0,1.3-1.25l1.54-.11-.12-.57-1.3.23-.35-4.54a12,12,0,0,0-.3,2,10.56,10.56,0,0,1-.29,1.87c-.4.23-.79.44-1.19.62a1.65,1.65,0,0,0-.83,1.08,10.78,10.78,0,0,0-1.77.11l.35,1.25-.59.34.83.91A1.44,1.44,0,0,0,64,55.3a1,1,0,0,0-.53.17,3,3,0,0,1-.77.28v.57l1.77,1A5,5,0,0,0,64,59a10.79,10.79,0,0,1,1.89.23Zm-2-8.85a.7.7,0,0,0,.47-.22,1.54,1.54,0,0,1,.83-.34l.59.11a14,14,0,0,0,1.3-1.48,7.76,7.76,0,0,0-3-1.7c-.16.61-.31,1.16-.47,1.65a6.11,6.11,0,0,0-.24,1.87Zm.71,15.43a14,14,0,0,0,.23-2.15L64.39,64c-.23,0-.47.19-.71.57V66Zm.23-23.48a1.3,1.3,0,0,1,1-.34,2,2,0,0,1,.83.22l-.36-2a1.31,1.31,0,0,0-.82-.45l-.83.11Zm1.19,29.72a5.49,5.49,0,0,1,.71-.39,2.65,2.65,0,0,0,.59-.4V70.39l-1-.8a4.58,4.58,0,0,1-.71.4,2.35,2.35,0,0,0-.59.4V72a1.07,1.07,0,0,0,.47.28A1.1,1.1,0,0,1,66.29,72.54Zm.59-37.21c.71,0,1.06-.27,1.06-.8l-.11-.68L67,33.51l-1.07,1C66.17,35.06,66.48,35.33,66.88,35.33Zm1.54,34.26c.07,0,.12,0,.12-.11H68.3Zm1.3-33.35q.12-.12.18-.12a5,5,0,0,0,.65-.56l-1.3-.8a3.13,3.13,0,0,0-.12-.91H69v1.93C69.32,36.09,69.56,36.24,69.72,36.24Zm12.66,9.64c-.95-4.77-1.83-9.47-2.66-14.13S78,22.36,76.94,17.51l-1.19,6.7A21.07,21.07,0,0,0,75,27.16c-.16,1-.35,2-.59,3.06-.31,1.44-.55,2.76-.71,4L73.39,36a19.16,19.16,0,0,0-1,4.76,18.3,18.3,0,0,1-.71,2.73,7.41,7.41,0,0,0-.24,2.38ZM72.32,52.12l.12-.11-.12-.12L72.2,52ZM81.79,9l.12-.12-.12-.11-.12.11A.11.11,0,0,1,81.79,9Zm2-1.25V6.62h-.12V7.76Zm.71,13.16-.24-.23L84,20.8Zm.59,31.43v-.12a.11.11,0,0,0-.12.12ZM86.52,7.19c.4-.38.59-.64.59-.79s-.23-.46-.71-.91l-.83.91A3.63,3.63,0,0,0,86.52,7.19Zm-.83,65a.76.76,0,0,1,.48-.11V72h-.48Zm2-33.81.11-.45c0-.38-.23-.64-.71-.8a1,1,0,0,0-.59.8l.12.45ZM87.82,43c.87,0,1.3-.34,1.3-1s-.27-.79-.82-.79-1,.38-1.19,1.13C87.11,42.82,87.35,43,87.82,43Zm1.07,3.63.83-1.92L89,44.07l-.36.56-.35-.22-.83.9c0,.53.08.85.24,1A4.23,4.23,0,0,0,88.89,46.67ZM87.71,7.08V7h-.12A.11.11,0,0,0,87.71,7.08Zm.35,27.11-.12-.11c0,.08,0,.11-.12.11Zm1.66,39.49v-.91a7.38,7.38,0,0,1-1.42.11.65.65,0,0,0-.24.4.89.89,0,0,1-.12.4Zm-.83-11.8.71-.12a7.09,7.09,0,0,1-1.19-.68C88.57,61.61,88.73,61.88,88.89,61.88Zm-.24-23.15,1.3-.11-.71-.91Zm.95,15.21a.11.11,0,0,0,.12-.12h-.24ZM92,59.16a1.4,1.4,0,0,0,1-.46l-.71-3.06a3.49,3.49,0,0,0-2-.34,2.19,2.19,0,0,0-.47,1.25,1.33,1.33,0,0,0,.11.56L90.19,59l.71-.11a1.93,1.93,0,0,1,.65.11A1.42,1.42,0,0,0,92,59.16ZM90,36.8c0-.07,0-.11.12-.11L90,36.58l-.12.11C89.83,36.77,89.87,36.8,90,36.8Zm.6,31.55L91,68l-.12-.23-.47.34ZM95,69.59l1.07-.11a2.86,2.86,0,0,0,2.36-1H96.22L94.81,67.1,93.5,61.42l-1.06-.56a.66.66,0,0,1-.36.22l.36.91-.71.8.71.79c-1.11.15-1.74.42-1.89.79l1.89,1.37-.59,1.36a1.18,1.18,0,0,1,.71.17.8.8,0,0,0,.47.17,1.2,1.2,0,0,0,.59-.23l.36.91h.94A7.36,7.36,0,0,1,95,69.59Zm-1.18,4.09.23-.46a.59.59,0,0,0-.29-.45,6.15,6.15,0,0,1-.65-.57h-1c-.55.38-.83.72-.83,1l.12.46ZM91.61,37.14c0-.07,0-.11.12-.11l-.12-.11Zm4.61,34v-.79h-.11v.79Zm1.54,1.93c.4-.23.6-.49.6-.79a1.14,1.14,0,0,0-.24-.46,2,2,0,0,1-.24-1.13l-.95.57a1.25,1.25,0,0,1,.36,1A.85.85,0,0,0,97.76,73.11Z"/><path class="cls-1" d="M121.9,76q-19.29,0-19.52-.12V66.3h5.2V45.09a7,7,0,0,0-.65-3.41,9.19,9.19,0,0,0-2.42-2.49,25.17,25.17,0,0,1-2.13-1.82q1.77-2,3.67-3.86a4.4,4.4,0,0,0,1.42-3.29q.11-4.3.11-17.36h-5.2V3.22H123.2c.08.15.16.28.24.4s.12,3.15.12,9.13a12.51,12.51,0,0,1-1.78.11l-1.18-.11a18.6,18.6,0,0,0-2.25.11c0,8.48,0,14-.12,16.68a5.86,5.86,0,0,0,.6,2.67c.39.79,1.89,2.44,4.49,4.93a21.17,21.17,0,0,1-3.67,3.63,4,4,0,0,0-.88.91q-.42.57-.42,24.62c1.9,0,3.51,0,4.85-.11,1,0,1.78,0,2.49.11a6.37,6.37,0,0,0,4.2-1.64,6.94,6.94,0,0,0,2.43-3.58q.35-1,.35-7.71c.32-.38,1.38-.57,3.2-.57a12.26,12.26,0,0,1,2.84.23h.35a1.58,1.58,0,0,1,.95-.34,8.66,8.66,0,0,1,1.65.57V75.61Q141,75.94,121.9,76ZM105,71.41l.24-.11a.7.7,0,0,0-.48.11Zm-.24,2.27c.08,0,.12,0,.12-.11l-.12-.12ZM110,47.47l.12-.11a.11.11,0,0,0-.12-.12Zm1.42,22c0-.38-.24-.57-.71-.57Zm.71-6V62.9l-.83-.11Zm0-9.53-.12-.12a.11.11,0,0,0-.12.12ZM112.2,35v-.12l-.12.12Zm.47,12.93v-.11l-.12.11ZM115,35.56V35.1h-.83l-.12.23.12.23Zm.59-5.91V29.2l-.12-.11h-.71v.56Zm-.71,21.22v-.22l-.12.11C114.88,50.76,114.92,50.8,114.92,50.87Zm.59-5.9.12-.11c0-.08,0-.11-.12-.11l-.12.11Zm2,28v-.12c-.08,0-.11,0-.11.12Zm20.59-7.72.36-.34-.36-.34-.23.34C137.88,65,138,65.13,138.11,65.28Zm1.31-4.08.11-1.36-.23-1a10.5,10.5,0,0,0-.24,2.16.18.18,0,0,0,.12.17A.53.53,0,0,0,139.42,61.2Z"/><path class="cls-1" d="M163.79,77.31a33.1,33.1,0,0,1-5.8-.68,12.17,12.17,0,0,1-7.1-4.2,16.91,16.91,0,0,1-3.43-5.79,56.83,56.83,0,0,1-1.54-6.24q-.12-.9-.11-16.68a4,4,0,0,0-1.78-3.4,12.36,12.36,0,0,1-1.54-1.25c-.47-.45-.94-.87-1.42-1.25a.36.36,0,0,1-.12-.28.39.39,0,0,0-.11-.28q.94-1.14,1.89-2.16t2-2a3.46,3.46,0,0,0,1.07-2.61V25.34l-.12-1.58.12-3.3a23,23,0,0,1,3.55-12q4-6.69,14.31-6.7a16.72,16.72,0,0,1,9.94,3,17.6,17.6,0,0,1,3.79,4Q181,14.57,181,25.34a14.19,14.19,0,0,1-.24,3.18v.57a1.44,1.44,0,0,1,.36.91L181,31.13a2.91,2.91,0,0,0,1,2.1l1.95,2,2.07,2.16c-1,.91-2.11,1.8-3.25,2.67A4,4,0,0,0,181,43.38l.12,1.48a4.45,4.45,0,0,1-.36,1.59,18.62,18.62,0,0,1,.36,3.63L181,54.39q0,9.77-2.9,15a14,14,0,0,1-8.34,7,16.29,16.29,0,0,1-3.91.8A14.43,14.43,0,0,0,163.79,77.31ZM144.38,37.37v-.45h-.23l.12.45Zm3.79,1a3.78,3.78,0,0,0,.59-.45.72.72,0,0,1,.48-.23,1,1,0,0,1,.59.34,2.91,2.91,0,0,1,.59-.79,5,5,0,0,0,.59-.68,1.73,1.73,0,0,0-1-1c-.44-.16-.89-.35-1.37-.57a5.56,5.56,0,0,0-2.12-.57l-.6.57a8.63,8.63,0,0,0-.23,1.59,4.7,4.7,0,0,1,.29,1,2.64,2.64,0,0,0,.3.85Zm-.24,10.55a2.49,2.49,0,0,0,.36-.73c.08-.27.2-.59.35-1a1.49,1.49,0,0,0,1.07.46l.59-.12c.4.15.59.38.59.68s0,.5.12.57a4.31,4.31,0,0,0,1.78-.28,4.2,4.2,0,0,1,1.77-.29v-6.8L154,41a1.29,1.29,0,0,1,.41-.28.87.87,0,0,0,.3-.17,6,6,0,0,1-1-1.48l-1.06.34a2.62,2.62,0,0,0-.24-1.3,1,1,0,0,1,.12-1.42.6.6,0,0,1-.24-.4,1.15,1.15,0,0,0-.23-.51,10.12,10.12,0,0,0-.3,1.53,5.58,5.58,0,0,1-.3,1.31l-1.77.91c0,.3,0,.49-.12.56a16.36,16.36,0,0,1-2,.57,9.18,9.18,0,0,1,.24,1.7l.47.23a3.14,3.14,0,0,1-.59.79,4.74,4.74,0,0,1,.18.86,2.49,2.49,0,0,0,.29,1,.61.61,0,0,1-.12.45,2.19,2.19,0,0,0-.35,1.14l.12.45A13,13,0,0,1,147.93,48.94Zm.95,4.77.83-.8a2.18,2.18,0,0,0-.83-1.36h-1.06v2.16Zm-.71-22.81a8.19,8.19,0,0,0,1.19-.9l1.3.34a1.81,1.81,0,0,1-.36-1.14l.12-.34a1.62,1.62,0,0,0-.59-1.13h-1.66l-.24-.8ZM150.07,60a1.2,1.2,0,0,1,.88-.34c.36,0,.57-.23.65-.68l-.35-1.36a1.54,1.54,0,0,0-1.54-1.36,1.87,1.87,0,0,0-1.3.56v2.39Zm.35,6.69a2.76,2.76,0,0,1,.59-.9,1,1,0,0,0,.36-.68l-.12-.57-2.25-.8c.16.61.3,1.16.41,1.65A2.25,2.25,0,0,0,150.42,66.64Zm-.83-19.51-.12-.12c0-.07,0-.11.12-.11Zm2.25-23.49.59-.11-.83-.68V21.37l-1.06-.45a4.07,4.07,0,0,0-.71,1l.35.79a3.05,3.05,0,0,0,.95.12Zm-.71,27.91.71-.11.47-.79a2.78,2.78,0,0,0-.12-.91h-1.77L150.3,51A1,1,0,0,0,151.13,51.55Zm9,23.26a6.68,6.68,0,0,1-.47-1.36l-1,.23.71-1.25,1.54.34,1.18-.68-.7-.34V70.5a5.14,5.14,0,0,0-1.07-.79c-.16,0-.43.19-.83.56a1,1,0,0,1,.12.46,2.93,2.93,0,0,0,.12.68l-2.84-2h-1.19l-.35.56h-.83l.36-1.13-1.07-1a.7.7,0,0,1-.47.23l-.24-.12a2.87,2.87,0,0,1-.35-1.36l.23-1.81a4.38,4.38,0,0,0-.23-1.37l-.95,4.09a1.76,1.76,0,0,0-1.18.91Q153.5,73.57,160.12,74.81Zm-9-62.06a.44.44,0,0,0,.12-.34c-.08,0-.12,0-.12-.11Zm1.06,22.46v-.56l-.11.22Zm1.19-11.45a.84.84,0,0,0,.83-.57q-.12-.57-.54-.63a.76.76,0,0,1-.59-.34,1.86,1.86,0,0,1-.18-1l-.23.11v2.27Zm.12,28.7a3.92,3.92,0,0,0,1.06-.11v-.68L153,49.51l-.12,1.59A1.81,1.81,0,0,0,153.5,52.46Zm.59-39,.12-.23-.71-.45a.21.21,0,0,1-.24.23Zm.12,20.88-.12-.23-.12.11Zm.23-2.16V30.68h-.11v1.47Zm8.76,34.72q6.75-.34,6.74-9.3l-.11-6.81c0-2.34,0-4.65.11-6.92a4.27,4.27,0,0,0-1.42-3.18L165,37.14a.66.66,0,0,1,.42-.22A11.11,11.11,0,0,0,167.22,35a23.34,23.34,0,0,1,1.72-1.93,3.88,3.88,0,0,0,1-2.84l-.11-3.86c0-1.36,0-2.68.11-4q0-5.1-1.77-7.94-1.06-1.81-4.5-2.15-3.54,0-5.09,2.15A11.29,11.29,0,0,0,156.93,19a113.25,113.25,0,0,0-.36,11.57,3.5,3.5,0,0,0,1.19,2.61l3.9,4.09c-.63.6-1.28,1.19-1.95,1.76s-1.36,1.19-2.07,1.87a3.46,3.46,0,0,0-1.07,2.61l.12,4.2-.12,5.1q0,4.08.24,7c.63,3.55,1.93,5.75,3.9,6.58A7,7,0,0,0,163.2,66.87Zm-.95,8.28L161.43,74a1.68,1.68,0,0,1,.11.68h-.11C161.43,74.93,161.7,75.08,162.25,75.15Zm3-.45a7.8,7.8,0,0,1,1.18-.34,1.13,1.13,0,0,0,.83-.91v-.34a1.6,1.6,0,0,0-.71-1.25h-1.3a2.6,2.6,0,0,0-.47,1.48A2.4,2.4,0,0,0,165.21,74.7Zm3.31-2.27v-.11h-.47v.11Zm.95-33.92.47-1.14-.94-.45a1.51,1.51,0,0,0-.83.22Zm-.71,32.33c.08,0,.12,0,.12-.11l-.24.11Zm.83,1.93c0-.15,0-.23-.12-.23-.31,0-.47.08-.47.23Zm.35-5.45a4.36,4.36,0,0,1-.11-1.24l-.6.56a2.85,2.85,0,0,1,.48.68Zm6-4.42a2.26,2.26,0,0,1,1.77-.79,1.81,1.81,0,0,1-.47-1.14,1,1,0,0,0-.59-.91V60h.12a2.82,2.82,0,0,0-.12.91,2.08,2.08,0,0,1-1.12-.17,4,4,0,0,1-.54-1.08l-.23-.23-.6.23-.23-.34a5.13,5.13,0,0,1,.94-.91l1.19.34a5.36,5.36,0,0,0,1.42-.91h-.71l-.24.12a1.39,1.39,0,0,1-.53-.12c-.2-.07-.44-.15-.71-.22a1.48,1.48,0,0,1-.77-.63,2.9,2.9,0,0,0-.95-.85c-.39-.23-.9-.49-1.54-.79l.12,1.36a10,10,0,0,1-.17,1.81,9.44,9.44,0,0,0-.18,1.82l.12,1.36,1.18-1h1.54Zm-2.49-36.65a3.76,3.76,0,0,0-.23-1.13l-1.07,1A5.23,5.23,0,0,1,173.49,26.25Zm-1.06,20.2V45.09h-.12v1.36Zm.95,8.51.35-.68-.59-.12Zm.59,6.92.23-.57h-.94c0,.08,0,.11-.12.11Zm-.59-20.42v-.23l-.12.11Zm1.53,1.36c.79,0,1.19-.46,1.19-1.36l-.83-.46a1,1,0,0,1-.53.28,1.92,1.92,0,0,0-.65.29c.15.23.29.45.41.68A2.32,2.32,0,0,0,174.91,42.82Zm1.31,13.73a3.53,3.53,0,0,1-.48-1.37l-1.18,1.25A8.82,8.82,0,0,0,176.22,56.55Zm-.12,7.14c.16-.15.23-.26.23-.34a.18.18,0,0,1-.17-.11.46.46,0,0,1-.06-.23l-.24.46Zm.23,3.41v-.46h-.11v.46Zm.48-24.28.23-.12-.11-.45h-.12ZM177,53.6l-.11-.12-.12.12Zm1.31-26.21v-.12h-.24Q178.11,27.39,178.35,27.39Zm.82,12.25.48-.11V39.3c0-.38-.24-.68-.71-.91a1.76,1.76,0,0,0-.3.34.66.66,0,0,1-.29.23A.85.85,0,0,0,179.17,39.64Zm-.59-8.74v-.22h-.12v.11C178.46,30.87,178.5,30.9,178.58,30.9Z"/><path class="cls-1" d="M210.53,77.31a33.1,33.1,0,0,1-5.8-.68,12.17,12.17,0,0,1-7.1-4.2,16.91,16.91,0,0,1-3.43-5.79,56.83,56.83,0,0,1-1.54-6.24q-.12-.9-.12-16.68a4,4,0,0,0-1.77-3.4,11.67,11.67,0,0,1-1.54-1.25c-.47-.45-.95-.87-1.42-1.25a.36.36,0,0,1-.12-.28.36.36,0,0,0-.12-.28c.64-.76,1.27-1.48,1.9-2.16s1.3-1.36,2-2a3.45,3.45,0,0,0,1.06-2.61V25.34l-.11-1.58.11-3.3a23.18,23.18,0,0,1,3.55-12q4-6.69,14.32-6.7a16.72,16.72,0,0,1,9.94,3,17.6,17.6,0,0,1,3.79,4q3.56,5.91,3.55,16.68a14.19,14.19,0,0,1-.24,3.18v.57a1.44,1.44,0,0,1,.36.91l-.12,1.13a2.91,2.91,0,0,0,.95,2.1l2,2,2.07,2.16c-1,.91-2.11,1.8-3.26,2.67a4,4,0,0,0-1.71,3.34l.12,1.48a4.45,4.45,0,0,1-.36,1.59,18.62,18.62,0,0,1,.36,3.63l-.12,4.31q0,9.77-2.9,15a14,14,0,0,1-8.34,7,16.29,16.29,0,0,1-3.91.8A14.43,14.43,0,0,0,210.53,77.31ZM191.12,37.37v-.45h-.23l.12.45Zm3.79,1a3.78,3.78,0,0,0,.59-.45.72.72,0,0,1,.48-.23,1,1,0,0,1,.59.34,2.72,2.72,0,0,1,.59-.79,5,5,0,0,0,.59-.68,1.75,1.75,0,0,0-1-1c-.43-.16-.88-.35-1.36-.57a5.6,5.6,0,0,0-2.12-.57l-.6.57a8.63,8.63,0,0,0-.23,1.59,4.7,4.7,0,0,1,.29,1,2.64,2.64,0,0,0,.3.85Zm-.24,10.55a2.49,2.49,0,0,0,.36-.73c.08-.27.2-.59.35-1a1.49,1.49,0,0,0,1.07.46l.59-.12c.4.15.59.38.59.68s0,.5.12.57a4.31,4.31,0,0,0,1.78-.28,4.2,4.2,0,0,1,1.77-.29v-6.8l-.59-.46a1.19,1.19,0,0,1,.41-.28.87.87,0,0,0,.3-.17,6,6,0,0,1-.95-1.48l-1.06.34a2.62,2.62,0,0,0-.24-1.3,1,1,0,0,1,.12-1.42.6.6,0,0,1-.24-.4,1.15,1.15,0,0,0-.23-.51,10.12,10.12,0,0,0-.3,1.53,5.58,5.58,0,0,1-.3,1.31l-1.77.91c0,.3,0,.49-.12.56a16.36,16.36,0,0,1-2,.57,9.18,9.18,0,0,1,.24,1.7l.47.23a3.14,3.14,0,0,1-.59.79,4.74,4.74,0,0,1,.18.86,2.49,2.49,0,0,0,.29,1,.61.61,0,0,1-.12.45,2.19,2.19,0,0,0-.35,1.14l.12.45A13,13,0,0,1,194.67,48.94Zm1,4.77.83-.8a2.18,2.18,0,0,0-.83-1.36h-1.06v2.16Zm-.71-22.81a7.55,7.55,0,0,0,1.18-.9l1.31.34A1.81,1.81,0,0,1,197,29.2l.12-.34a1.62,1.62,0,0,0-.59-1.13h-1.66l-.24-.8ZM196.81,60a1.2,1.2,0,0,1,.88-.34c.36,0,.57-.23.65-.68L198,57.57a1.54,1.54,0,0,0-1.54-1.36,1.87,1.87,0,0,0-1.3.56v2.39Zm.35,6.69a2.61,2.61,0,0,1,.59-.9,1,1,0,0,0,.36-.68l-.12-.57-2.25-.8c.16.61.3,1.16.41,1.65A2.25,2.25,0,0,0,197.16,66.64Zm-.83-19.51-.12-.12c0-.07,0-.11.12-.11Zm2.25-23.49.59-.11-.83-.68V21.37l-1.06-.45a4.07,4.07,0,0,0-.71,1l.35.79a3.05,3.05,0,0,0,1,.12Zm-.71,27.91.71-.11.47-.79a2.78,2.78,0,0,0-.12-.91h-1.77L197,51A1,1,0,0,0,197.87,51.55Zm9,23.26a6.68,6.68,0,0,1-.47-1.36l-.95.23.71-1.25,1.54.34,1.18-.68-.71-.34V70.5a5,5,0,0,0-1.06-.79c-.16,0-.44.19-.83.56a1,1,0,0,1,.12.46,2.93,2.93,0,0,0,.12.68l-2.84-2h-1.19l-.35.56h-.83l.36-1.13-1.07-1a.72.72,0,0,1-.47.23l-.24-.12a2.87,2.87,0,0,1-.35-1.36l.23-1.81a4.38,4.38,0,0,0-.23-1.37l-.95,4.09a1.76,1.76,0,0,0-1.18.91Q200.24,73.57,206.86,74.81Zm-9-62.06a.44.44,0,0,0,.12-.34c-.08,0-.12,0-.12-.11Zm1.06,22.46v-.56l-.11.22Zm1.19-11.45a.84.84,0,0,0,.83-.57q-.12-.57-.54-.63a.76.76,0,0,1-.59-.34,1.86,1.86,0,0,1-.18-1l-.23.11v2.27Zm.12,28.7a4,4,0,0,0,1.06-.11v-.68l-1.54-2.16-.12,1.59A1.81,1.81,0,0,0,200.24,52.46Zm.59-39,.12-.23-.71-.45A.21.21,0,0,1,200,13ZM201,34.31l-.12-.23-.12.11Zm.23-2.16V30.68h-.12v1.47Zm8.76,34.72q6.75-.34,6.74-9.3l-.12-6.81q0-3.51.12-6.92a4.27,4.27,0,0,0-1.42-3.18l-3.55-3.52a.66.66,0,0,1,.42-.22A11.11,11.11,0,0,0,214,35a23.34,23.34,0,0,1,1.72-1.93,3.88,3.88,0,0,0,1-2.84l-.12-3.86c0-1.36,0-2.68.12-4q0-5.1-1.77-7.94-1.07-1.81-4.5-2.15-3.54,0-5.09,2.15A11.29,11.29,0,0,0,203.67,19a113.25,113.25,0,0,0-.36,11.57,3.5,3.5,0,0,0,1.19,2.61l3.9,4.09c-.63.6-1.28,1.19-2,1.76s-1.36,1.19-2.07,1.87a3.46,3.46,0,0,0-1.07,2.61l.12,4.2-.12,5.1q0,4.08.24,7c.63,3.55,1.93,5.75,3.9,6.58A7,7,0,0,0,209.94,66.87ZM209,75.15,208.16,74a1.5,1.5,0,0,1,.12.68h-.12C208.16,74.93,208.44,75.08,209,75.15Zm3-.45a7.48,7.48,0,0,1,1.18-.34,1.13,1.13,0,0,0,.83-.91v-.34a1.6,1.6,0,0,0-.71-1.25H212a2.6,2.6,0,0,0-.47,1.48A2.4,2.4,0,0,0,212,74.7Zm3.31-2.27v-.11h-.47v.11Zm1-33.92.47-1.14-.94-.45a1.51,1.51,0,0,0-.83.22Zm-.71,32.33c.08,0,.12,0,.12-.11l-.24.11Zm.83,1.93c0-.15,0-.23-.12-.23-.32,0-.47.08-.47.23Zm.35-5.45a4.25,4.25,0,0,1-.12-1.24l-.59.56a2.85,2.85,0,0,1,.48.68Zm6-4.42a2.27,2.27,0,0,1,1.78-.79A1.78,1.78,0,0,1,224,61a1,1,0,0,0-.59-.91V60h.12a2.82,2.82,0,0,0-.12.91,2.16,2.16,0,0,1-1.13-.17,4.42,4.42,0,0,1-.53-1.08l-.23-.23-.59.23-.24-.34a5.47,5.47,0,0,1,.94-.91l1.19.34a5.36,5.36,0,0,0,1.42-.91h-.71l-.24.12a1.39,1.39,0,0,1-.53-.12c-.2-.07-.44-.15-.71-.22a1.48,1.48,0,0,1-.77-.63,2.9,2.9,0,0,0-1-.85c-.39-.23-.91-.49-1.54-.79l.12,1.36a9.18,9.18,0,0,1-.18,1.81,10.28,10.28,0,0,0-.17,1.82l.12,1.36,1.18-1h1.54Zm-2.49-36.65a3.76,3.76,0,0,0-.23-1.13l-1.07,1A5.23,5.23,0,0,1,220.23,26.25Zm-1.06,20.2V45.09h-.12v1.36Zm.94,8.51.36-.68-.59-.12Zm.6,6.92.24-.57H220c0,.08,0,.11-.12.11Zm-.6-20.42v-.23l-.11.11Zm1.54,1.36c.79,0,1.19-.46,1.19-1.36L222,41a1,1,0,0,1-.53.28,1.92,1.92,0,0,0-.65.29c.15.23.29.45.41.68A2.09,2.09,0,0,0,221.65,42.82ZM223,56.55a3.53,3.53,0,0,1-.48-1.37l-1.18,1.25A8.82,8.82,0,0,0,223,56.55Zm-.12,7.14c.15-.15.23-.26.23-.34a.16.16,0,0,1-.17-.11.46.46,0,0,1-.06-.23l-.24.46Zm.23,3.41v-.46H223v.46Zm.48-24.28.23-.12-.12-.45h-.11Zm.23,10.78-.12-.12-.11.12Zm1.31-26.21v-.12h-.24Q224.85,27.39,225.09,27.39Zm.82,12.25.48-.11V39.3c0-.38-.24-.68-.71-.91a1.76,1.76,0,0,0-.3.34.66.66,0,0,1-.29.23A.85.85,0,0,0,225.91,39.64Zm-.59-8.74v-.22h-.12v.11C225.2,30.87,225.24,30.9,225.32,30.9Z"/><path class="cls-1" d="M280.7,75.83H266.26L249,24.1a22.51,22.51,0,0,0-.12,3.4c0,2,0,4.56-.06,7.54s-.06,7.85-.06,14.58q0,9.54.06,12.77c0,2.15.06,3.42.06,3.8h4.38v9.64h-18.7V66.3h5.09V44.52a7.34,7.34,0,0,0-.36-2.33,3.44,3.44,0,0,0-1.3-1.76,13.92,13.92,0,0,1-1.65-1.36c-.48-.45-1-.87-1.42-1.25l-.24-.45.36-.57a25.94,25.94,0,0,0,1.83-1.93q.88-1,1.83-1.92a2.8,2.8,0,0,0,.95-2.05v-18h-5.09V3.22h16.1L255.26,17c.63,1.81,1.2,3.63,1.71,5.44s1.09,3.63,1.72,5.45,1.24,3.65,1.83,5.5,1.21,3.69,1.84,5.51,1.22,3.61,1.77,5.39l1.66,5.27.83,2.61V12.86h-4.73V3.22h18.46l.35.45v9.08a14.43,14.43,0,0,1-2,.11l-1.78-.11-1.3.11a2.35,2.35,0,0,1-.06.51q-.06.29-.06,16.63a4.36,4.36,0,0,0,1.31,3.29,54.41,54.41,0,0,1,3.66,4.08l-3.66,3.4a3.86,3.86,0,0,0-1.31,2.84V66l.12.23h4.85a1.21,1.21,0,0,1,.6,1.13,9.36,9.36,0,0,0-.24,1.82l.12.23a8.41,8.41,0,0,0,.12,1.47,10.62,10.62,0,0,1,.11,1.59L281.06,75A1.49,1.49,0,0,1,280.7,75.83ZM245,7.42a3.48,3.48,0,0,0,1.19-.12c.16-.07.27-.3.35-.68a1.09,1.09,0,0,0-.71-1l-.94.46Zm.24,3.51c1.11,0,1.66-.18,1.66-.56a1.88,1.88,0,0,0-.06-.46c0-.15-.26-.34-.65-.56a1.09,1.09,0,0,0-1,.56Zm4.38-3.4a13.77,13.77,0,0,0-.83-2.16,1.36,1.36,0,0,0-.35.8.1.1,0,0,0,.11.11v.8a3.06,3.06,0,0,0,.48.17A2.3,2.3,0,0,1,249.58,7.53Zm2,6a4.49,4.49,0,0,1-.41-1.3,1.66,1.66,0,0,0-.53-1c-.4.31-.6.57-.6.8h.12a3.29,3.29,0,0,1-.12,1ZM253,24.89l-.24-.11C252.77,24.85,252.85,24.89,253,24.89Zm17.63-11.57a.21.21,0,0,0,.24-.23c0-.07-.08-.19-.24-.34-.16.15-.23.27-.23.34A.2.2,0,0,0,270.64,13.32Z"/><path class="cls-1" d="M303.09,28.45h-4.9L292.32,9.8a10.23,10.23,0,0,0,0,1.23c0,.73,0,1.64,0,2.72s0,2.83,0,5.25,0,3.83,0,4.6,0,1.24,0,1.37h1.49v3.48h-6.35V25h1.73V17.16a2.84,2.84,0,0,0-.12-.84,1.27,1.27,0,0,0-.44-.63,4.67,4.67,0,0,1-.56-.49l-.49-.45-.08-.16.12-.21c.22-.22.42-.45.63-.69a8.37,8.37,0,0,1,.62-.7,1,1,0,0,0,.32-.74V5.75h-1.73V2.28h5.46l1.57,4.94c.21.66.41,1.31.58,2s.37,1.31.59,2,.42,1.32.62,2,.41,1.33.62,2,.42,1.3.6,1.94.38,1.28.57,1.9l.28.94V5.75H296.7V2.28H303l.13.16V5.71a4.58,4.58,0,0,1-.69,0l-.6,0-.44,0a1.37,1.37,0,0,1,0,.19c0,.06,0,2.06,0,6a1.62,1.62,0,0,0,.44,1.18A18.5,18.5,0,0,1,303,14.59l-1.24,1.22a1.44,1.44,0,0,0-.44,1v8.05l0,.08H303a.45.45,0,0,1,.21.41,3.13,3.13,0,0,0-.08.66l0,.08a2.93,2.93,0,0,0,0,.53,4.78,4.78,0,0,1,0,.57l0,.94A.61.61,0,0,1,303.09,28.45ZM291,3.79a1.12,1.12,0,0,0,.4,0c.05,0,.09-.11.12-.25a.41.41,0,0,0-.24-.37l-.32.17ZM291,5.06c.37,0,.56-.07.56-.21a.88.88,0,0,0,0-.16c0-.06-.09-.12-.22-.21a.35.35,0,0,0-.32.21Zm1.48-1.23a3.94,3.94,0,0,0-.28-.78.53.53,0,0,0-.12.29s0,0,0,0v.29l.16.06A.62.62,0,0,1,292.52,3.83ZM293.21,6a1.68,1.68,0,0,1-.14-.47.61.61,0,0,0-.19-.35c-.13.11-.2.2-.2.29h0a1.11,1.11,0,0,1,0,.36Zm.48,4.09-.08,0S293.63,10.09,293.69,10.09Zm6-4.17c.06,0,.08,0,.08-.09s0-.06-.08-.12-.08.1-.08.12S299.62,5.92,299.67,5.92Z"/><path class="cls-1" d="M311.36,29a10.51,10.51,0,0,1-2-.24A4.06,4.06,0,0,1,307,27.22a6.08,6.08,0,0,1-1.16-2.08,21.62,21.62,0,0,1-.53-2.25c0-.22,0-2.22,0-6a1.45,1.45,0,0,0-.6-1.23,4.54,4.54,0,0,1-.52-.45q-.24-.24-.48-.45a.13.13,0,0,1,0-.1.15.15,0,0,0,0-.1c.21-.28.43-.54.64-.78s.44-.49.68-.74a1.28,1.28,0,0,0,.36-.94V10.25l0-.57,0-1.19a8.74,8.74,0,0,1,1.21-4.33q1.37-2.42,4.86-2.42a5.43,5.43,0,0,1,3.37,1.07A6.12,6.12,0,0,1,316,4.24a12.37,12.37,0,0,1,1.2,6,5.83,5.83,0,0,1-.08,1.15v.2a.56.56,0,0,1,.12.33l0,.41a1.1,1.1,0,0,0,.32.75l.67.72c.22.24.46.5.7.78q-.53.48-1.11,1a1.49,1.49,0,0,0-.58,1.2l0,.54a1.71,1.71,0,0,1-.12.57,7.17,7.17,0,0,1,.12,1.31l0,1.55a12.12,12.12,0,0,1-1,5.42,4.87,4.87,0,0,1-2.83,2.52,5.19,5.19,0,0,1-1.33.28A6.23,6.23,0,0,0,311.36,29Zm-6.59-14.39v-.17h-.08l0,.17Zm1.29.36a1.08,1.08,0,0,0,.2-.16.23.23,0,0,1,.16-.08.34.34,0,0,1,.2.12,1,1,0,0,1,.2-.28,2,2,0,0,0,.2-.25.63.63,0,0,0-.34-.37,3.57,3.57,0,0,1-.46-.2,1.83,1.83,0,0,0-.73-.21l-.2.21a3.87,3.87,0,0,0-.08.57,1.18,1.18,0,0,1,.1.35,1.32,1.32,0,0,0,.1.3ZM306,18.76a1.11,1.11,0,0,0,.12-.27,2.08,2.08,0,0,1,.12-.35.48.48,0,0,0,.36.17l.2,0a.26.26,0,0,1,.2.24c0,.11,0,.18,0,.21a1.31,1.31,0,0,0,.6-.11,1.57,1.57,0,0,1,.61-.1V16.06l-.21-.17a.77.77,0,0,1,.15-.1.21.21,0,0,0,.1-.06,2,2,0,0,1-.33-.53l-.36.12a.94.94,0,0,0-.08-.47.54.54,0,0,1-.08-.22.53.53,0,0,1,.12-.29.23.23,0,0,1-.08-.14.38.38,0,0,0-.08-.19,4,4,0,0,0-.1.56,2.2,2.2,0,0,1-.1.47l-.6.32c0,.11,0,.18,0,.21s-.36.12-.68.2a4,4,0,0,1,.08.62l.16.08a1.18,1.18,0,0,1-.2.28c0,.09,0,.19.06.31a.88.88,0,0,0,.1.35.28.28,0,0,1,0,.16.81.81,0,0,0-.12.41l0,.16A6.06,6.06,0,0,1,306,18.76Zm.32,1.72.28-.29a.81.81,0,0,0-.28-.49h-.36v.78Zm-.24-8.23a2.24,2.24,0,0,0,.4-.32l.44.12a.69.69,0,0,1-.12-.41l0-.12a.61.61,0,0,0-.2-.41h-.56l-.08-.29Zm.64,10.48a.38.38,0,0,1,.3-.13c.12,0,.19-.08.22-.24l-.12-.49c-.08-.33-.25-.49-.52-.49a.58.58,0,0,0-.44.2v.86Zm.12,2.41a.88.88,0,0,1,.2-.33.35.35,0,0,0,.12-.24l0-.21-.76-.29.14.6A.8.8,0,0,0,306.82,25.14Zm-.28-7,0,0a0,0,0,0,1,0,0Zm.76-8.46.2,0-.28-.25V8.82l-.36-.16a1.4,1.4,0,0,0-.24.36l.12.29a1,1,0,0,0,.32,0Zm-.24,10.06.24,0,.16-.29a1.06,1.06,0,0,0,0-.33h-.6l0,.45C306.86,19.63,307,19.7,307.06,19.7Zm3.05,8.38a3.51,3.51,0,0,1-.16-.49l-.32.08.24-.45.52.13.41-.25-.25-.12v-.45a1.68,1.68,0,0,0-.36-.29c-.05,0-.14.07-.28.21a.32.32,0,0,1,0,.16,1.76,1.76,0,0,0,0,.25l-1-.74h-.4l-.12.2h-.28l.12-.4-.37-.37a.23.23,0,0,1-.16.08l-.08,0a1.14,1.14,0,0,1-.12-.49l.08-.66a1.44,1.44,0,0,0-.08-.49l-.32,1.47a.64.64,0,0,0-.4.33A4.33,4.33,0,0,0,310.11,28.08ZM307.06,5.71a.16.16,0,0,0,0-.12,0,0,0,0,1,0,0Zm.36,8.1V13.6l0,.09Zm.4-4.13a.3.3,0,0,0,.29-.21c0-.13-.09-.21-.19-.22a.28.28,0,0,1-.2-.12.76.76,0,0,1-.06-.35l-.08,0v.82Zm0,10.35a1.13,1.13,0,0,0,.37-.05v-.24L307.7,19l0,.57A.7.7,0,0,0,307.86,20ZM308.06,6l.05-.09-.25-.16c0,.06,0,.08-.08.08Zm.05,7.52-.05-.08,0,0Zm.08-.78v-.53h0v.53Zm3,12.52c1.52-.08,2.29-1.2,2.29-3.35l0-2.46c0-.84,0-1.67,0-2.49a1.57,1.57,0,0,0-.49-1.15l-1.2-1.27a.23.23,0,0,1,.14-.08,3.69,3.69,0,0,0,.62-.69,8.15,8.15,0,0,1,.59-.7,1.46,1.46,0,0,0,.34-1l0-1.39c0-.49,0-1,0-1.43a5.62,5.62,0,0,0-.61-2.87,1.83,1.83,0,0,0-1.52-.77,1.94,1.94,0,0,0-1.73.77A4.35,4.35,0,0,0,309,8c-.08.65-.12,2.05-.12,4.17a1.28,1.28,0,0,0,.4.94l1.33,1.48-.67.63c-.23.2-.46.43-.7.67a1.3,1.3,0,0,0-.36.94l0,1.52,0,1.84c0,1,0,1.83.08,2.53.21,1.29.65,2.08,1.32,2.38A2.22,2.22,0,0,0,311.16,25.22Zm-.32,3-.29-.41a.48.48,0,0,1,.05.24h-.05C310.55,28.12,310.65,28.18,310.84,28.21Zm1-.17a3,3,0,0,1,.4-.12c.14,0,.23-.14.28-.33v-.12a.6.6,0,0,0-.24-.45h-.44a.92.92,0,0,0-.16.53A.86.86,0,0,0,311.84,28Zm1.12-.82v0h-.16v0ZM313.29,15l.16-.41-.32-.17a.55.55,0,0,0-.29.08ZM313,26.65s0,0,0,0l-.09,0Zm.29.7c0-.06,0-.09,0-.09s-.16,0-.16.09Zm.12-2a1.53,1.53,0,0,1,0-.45l-.2.21a1.09,1.09,0,0,1,.16.24Zm2-1.59a.79.79,0,0,1,.61-.29.63.63,0,0,1-.16-.41.37.37,0,0,0-.2-.32v0h0a1,1,0,0,0,0,.32.71.71,0,0,1-.39-.06,1.43,1.43,0,0,1-.18-.39l-.08-.08-.2.08-.08-.12a2,2,0,0,1,.32-.33l.4.13A1.88,1.88,0,0,0,316,22h-.24l-.08,0a.46.46,0,0,1-.19,0,1,1,0,0,0-.24-.08.55.55,0,0,1-.26-.23,1.06,1.06,0,0,0-.32-.31l-.52-.28,0,.49a3.49,3.49,0,0,1-.06.65,3.68,3.68,0,0,0-.06.66l0,.49.4-.37h.52Zm-.84-13.21a1.46,1.46,0,0,0-.08-.41l-.36.37A1.5,1.5,0,0,1,314.65,10.58Zm-.36,7.28v-.49h0v.49Zm.32,3.07.12-.25-.2,0Zm.2,2.49.08-.2h-.32a0,0,0,0,1,0,0Zm-.2-7.36V16l0,0Zm.52.49c.27,0,.4-.16.4-.49l-.28-.17a.34.34,0,0,1-.18.11.69.69,0,0,0-.22.1,1.49,1.49,0,0,1,.14.24A.85.85,0,0,0,315.13,16.55Zm.45,4.95a1.24,1.24,0,0,1-.17-.49l-.4.45A3.86,3.86,0,0,0,315.58,21.5Zm-.05,2.57q.09-.08.09-.12a.08.08,0,0,1-.07,0,.24.24,0,0,1,0-.08l-.08.16Zm.09,1.23v-.16h0v.16Zm.16-8.75.08,0,0-.17h0Zm.08,3.88,0,0,0,0ZM316.3,11v0h-.08S316.24,11,316.3,11Zm.28,4.41.16,0v-.08a.39.39,0,0,0-.24-.33.4.4,0,0,0-.1.13.49.49,0,0,1-.1.08C316.35,15.32,316.44,15.4,316.58,15.4Zm-.2-3.15v-.08h0v0S316.35,12.25,316.38,12.25Z"/><path class="cls-1" d="M320.15,28.7h-.92a2.6,2.6,0,0,1-.36-.27l-.36-.31a2.32,2.32,0,0,1-.69-1.71,2.5,2.5,0,0,1,.81-1.8,1.42,1.42,0,0,1,1.08-.54,1.71,1.71,0,0,1,1.33.66,2.23,2.23,0,0,1,.56,1.47l0,.37,0,.16A2,2,0,0,1,320.15,28.7ZM320,26.65v-.12l-.08,0v.16Z"/><path class="cls-1" d="M350.41,120a73.09,73.09,0,0,1-7.57-.36q-8.25-1.11-12.38-9.36c-1.27-2.08-2.38-5.42-3.36-10a89.43,89.43,0,0,1-1.46-17.9q.17-2.74.17-6.79l-.17-3.85.17-5.32a7.55,7.55,0,0,0-2.58-6.06l-1.89-1.83a14.92,14.92,0,0,1-2.92-3.3l6.7-7.9a7.61,7.61,0,0,0,.69-3.3l-.17-1.28.17-2.39v-11a53.59,53.59,0,0,1,.86-7,40.69,40.69,0,0,1,3.27-11.75q3.78-7,9.46-9.17Q341.82,0,347.48,0a28.34,28.34,0,0,1,8.09,2.2q11,6.24,11,25.51l-.17,4.59h-12a3.3,3.3,0,0,1-.35-1.47l.17-2.75q0-7.71-2.15-10.28t-3.44-2.57a10.72,10.72,0,0,1-2.15-.18c-2.75,0-4.59,1.47-5.5,4.4q-1.89,5.32-1.89,18.9l.17,8.08-.17,8.07,1.2-1.65a9.2,9.2,0,0,1,4-3.67,14.81,14.81,0,0,1,6.36-1.65,13.34,13.34,0,0,1,8.17,2.93,16.35,16.35,0,0,1,5.59,8.08q3.11,9.18,3.1,13.94a2.84,2.84,0,0,0,.51,1.66,13.83,13.83,0,0,0,3.62,5.13c1.26,1,2.46,2,3.61,2.94a3.59,3.59,0,0,1-1.81,1.93,5.56,5.56,0,0,0-2,1.37c-.57.62-1.14,1.2-1.72,1.75A14.85,14.85,0,0,0,368.12,89c-.57,5-1.09,8.62-1.54,10.83q-3.27,16.52-15.14,20Zm-22.7-60.74a2.26,2.26,0,0,0,.51-.09c.23-.06.46-.39.69-1a1.3,1.3,0,0,1-.52-.46,5.85,5.85,0,0,0-.68-.82v.55c0,.24-.15.36-.43.36a.84.84,0,0,0-.61.19l.17,1.1Zm4.81,22,1.72-.91a1.27,1.27,0,0,0,.52.18.48.48,0,0,1,.34.18,2.55,2.55,0,0,0,.69-1.83l-.17-2c-2.75-1.47-4.42-2.2-5-2.2a2.64,2.64,0,0,0-1.55,1.1v1.1l-.17.55.86,3.85Zm3.1,14.87V82.94a6.31,6.31,0,0,0-.86,1.47,12.29,12.29,0,0,0-2.41.19l.52,1.46-1,1.29L333,88.82a16.35,16.35,0,0,1-2.93.18v1.28c.69.25,1.29.5,1.81.74a2,2,0,0,1,.95,1.65l-.87,1.1a2,2,0,0,0,1.55.92l.86-.18A10.1,10.1,0,0,1,335.62,96.16ZM330.11,96q.69,0,.69-.36h-.69Zm2.58,10.28,1.89-.55v-2.39a2.56,2.56,0,0,0-1.54-.73,2.41,2.41,0,0,0-1.72.92Zm-.17-36.89a4.48,4.48,0,0,1,3.61-1.65,2.1,2.1,0,0,1,.18.92l.34-.18-.52-.74a6.27,6.27,0,0,0-.68-3.48,4.54,4.54,0,0,0-2.93.73ZM336,56.15V53.4a2.85,2.85,0,0,0-.69,1.65A1.47,1.47,0,0,0,336,56.15Zm.69,56.52c.11,0,.23-.12.34-.36h-.86v-.19C336.25,112.49,336.42,112.67,336.65,112.67Zm8.6-7.52q4,0,5.5-1.47a12.8,12.8,0,0,1,1.38-1.93q.86-1,1.72-5.59.34-1.84.34-21.66a19.81,19.81,0,0,0-2.06-8.81,5.62,5.62,0,0,0-5.33-3.48,12,12,0,0,0-3.27.73q-4.65,2-4.64,18c0,9.78.19,15.32.6,16.6s.83,2.48,1.29,3.58A7,7,0,0,0,345.25,105.15ZM348,11.56a1.11,1.11,0,0,0-.26-.82l-.43-.46-.34.18a4.37,4.37,0,0,1,.69,1.1Zm1.89,39.82V51.2H349v.18Zm3.79,56.89c.34,0,.63-.31.86-.92a1.07,1.07,0,0,0-.35-.46,1.34,1.34,0,0,1-.34-.27,1.59,1.59,0,0,1-.77.46,1.49,1.49,0,0,0-.78.45v.55h1.38Zm.17-46.61,1.55-1.47h1.89l.34.92.35-.19-.69-3.67c-.8-.85-1.38-1.28-1.72-1.28a4.74,4.74,0,0,0-1.89,1.65,6.69,6.69,0,0,0,.17,1.84Zm3.1,47a6.34,6.34,0,0,0,1.63-1.66,2.28,2.28,0,0,0,.26-.91,1.9,1.9,0,0,0-1.21-1.84h-1.37l-1.21,1.1a13,13,0,0,1,.17,2.39Zm3.95-18.17a24,24,0,0,0,4.64-3.86c1.38-1.46,2.81-2.93,4.31-4.4L365,77.44h-.52l-.86.92-1-.19a4.77,4.77,0,0,0,.52-1.46l-1.55-1.84a.5.5,0,0,1-.34.18c-.12,0-.29.13-.52.37a11.43,11.43,0,0,1-.52-3.49l.17-.91a19.74,19.74,0,0,0-.34-3.67l-1.2,7a3.71,3.71,0,0,0-1.21.18q-.51,1.65-.51,12.48l1.2,3.49a1,1,0,0,0,.6-.19,1,1,0,0,1,.61-.18A2.85,2.85,0,0,1,360.9,90.47Zm-3.78-18.54,1.2-1.46a3,3,0,0,1-.52-.74,4,4,0,0,0-.68-.92Zm2.75,20.92a1.06,1.06,0,0,1-.17-.73h-.17v.73ZM360,19.63l.17-.18-.17-.18Zm1.55,85.52.69-2.39-1.55-.73a6.14,6.14,0,0,1,.17,1.65l-.17.18A1.55,1.55,0,0,0,361.59,105.15Zm.34-8.81a3.07,3.07,0,0,0,.52-1.83,5.24,5.24,0,0,1-.34-1.84,4.78,4.78,0,0,1-1.21.92Z"/><path class="cls-1" d="M28.11,119.91a16.89,16.89,0,0,1-14.76-7.71,14.33,14.33,0,0,0-2.11-2.86v8.59H.88c-.59-.23-.88-.83-.88-1.79V81.92q1-.53,12-.53l.7,2.33a27.68,27.68,0,0,0,1.93,10,17.26,17.26,0,0,0,5.63,8.42,9.72,9.72,0,0,0,5.44,1.61,7.79,7.79,0,0,0,7.56-4.84A13.66,13.66,0,0,0,35,92.32,19.51,19.51,0,0,0,31.8,81.39a98.52,98.52,0,0,0-7.9-9.5c-2.11-2.39-4.16-4.59-6.15-6.63q-1.24-1.43-8.26-4.65c-3.28-1.44-5-2.33-5.1-2.69l.18-1.43a55.84,55.84,0,0,0,.35-6.28,10.36,10.36,0,0,0-1-4.3,27.2,27.2,0,0,1-1.49-4.12A55.25,55.25,0,0,1,.35,30.15a44,44,0,0,1,1.93-14,25.36,25.36,0,0,1,8.09-12A16.19,16.19,0,0,1,20.56.77q5.61,0,11.24,4.66l4,4.12V3.1h11.6V34.45H35.84l-.52-2A22.93,22.93,0,0,0,31.8,22.09q-3-5.39-8.61-5.38c-1.87,0-3.86,1.38-6,4.12a11.6,11.6,0,0,0-2.11,7.35q0,6.81,7.73,15.23a54.23,54.23,0,0,0,4.92,5.28q1.05.81,10,5.47a23.13,23.13,0,0,1,4,2.42.82.82,0,0,0,.44.44,19.22,19.22,0,0,0-1.06,5.38,5.53,5.53,0,0,0,1.06,3.4l3.51,5.73a31.42,31.42,0,0,1,3.78,10.39,54.1,54.1,0,0,1,1,8.43,48.14,48.14,0,0,1-1.58,11.82,25.39,25.39,0,0,1-8.43,13.44A18.92,18.92,0,0,1,28.11,119.91ZM39.71,102l-.35-.36L39,102Zm3-22a1.15,1.15,0,0,0,.88-.35,1.53,1.53,0,0,0-1-1.62l-1.41.72C41.7,79.54,42.22,80,42.69,80Zm-1.23-6.09.18-.18h-.35C41.29,73.8,41.35,73.86,41.46,73.86Zm1.41,16.31v-.72h-.18v.72Zm.53-59.66v-.36h-.18v.18A.16.16,0,0,0,43.4,30.51Zm1.93,60.37a1.12,1.12,0,0,0,1.05-.71l-1.05-1.44q-.53,1.08-1.23,1.08l-.18-.36.18.36-.35-.18.35.18v.71A2.79,2.79,0,0,0,45.33,90.88Z"/><path class="cls-1" d="M127.1,115.32h-7.26v-3.27h1.57v-7.4a1.9,1.9,0,0,0-.53-1.38,6.14,6.14,0,0,1-.52-.5c-.17-.18-.36-.36-.56-.54l.15-.15a2.72,2.72,0,0,1,.54-.61,3.74,3.74,0,0,0,.85-1q.07-.19.07-6.49h-1.5a15.07,15.07,0,0,1-.07-2.07,9.92,9.92,0,0,1,0-1.23h7.22a5.45,5.45,0,0,1,2.38.46,3.82,3.82,0,0,1,2.22,2.3,6.28,6.28,0,0,1,.43,2.11,3.49,3.49,0,0,0,.76.94,8.53,8.53,0,0,1,.89.91c-.62.46-1,.76-1.27.9a1.39,1.39,0,0,0-.54.79,4.76,4.76,0,0,1-.73,1.61,3.69,3.69,0,0,1-1.73,1.3,2,2,0,0,0-.46.16,6.52,6.52,0,0,1,1,.38,3.63,3.63,0,0,1,2.11,2.65.67.67,0,0,1,.08.3,1.91,1.91,0,0,0,.85,1.54,2.31,2.31,0,0,1,.57.52,1.71,1.71,0,0,0,.35.36,3.2,3.2,0,0,1-.83.77,2.52,2.52,0,0,0-.79.8A6.53,6.53,0,0,1,131,114,5.08,5.08,0,0,1,127.1,115.32Zm-5.61-2.46s0,0,0,0h-.08S121.46,112.86,121.49,112.86Zm.73-4.68a.35.35,0,0,0,.08-.5l-.12.23Zm.27-3.15,0-.27h0V105Zm.23,5.41a.36.36,0,0,0,.31-.23l-.16-.15-.38.11.15.27Zm2,4.11a.35.35,0,0,0,0-.08.29.29,0,0,1,.1-.07c0-.11-.09-.16-.12-.16a3.18,3.18,0,0,0-1.34-.54c-.1,0-.18.07-.23.2v.65Zm-.77-2a.68.68,0,0,0,.27-.5l0-.27,0-.35a.46.46,0,0,0-.39.46Zm.15-17.31s0,0,0-.08Zm2.92,5.41a2.21,2.21,0,0,0,1-.34,2.25,2.25,0,0,0,.8-1.92V95.94a2.44,2.44,0,0,0-.23-1,1.74,1.74,0,0,0-1.15-1,22.05,22.05,0,0,0-2.61-.07v6.75Zm-.5,11.51a4.5,4.5,0,0,0,.88-.08c1.13-.25,1.69-1.33,1.69-3.22l0-1,0-.92c0-1.63-.39-2.62-1.19-3a7.73,7.73,0,0,0-2.07-.35,4.7,4.7,0,0,0-1,.08v8.4Zm-1.3,1.8a0,0,0,0,1,0,0v0l-.07,0S125.18,113.91,125.18,113.93Zm0,.62v-.27h-.07v.27Zm1.08-1.46a.84.84,0,0,0,.34-.19h-.69A.91.91,0,0,0,126.29,113.09Z"/><path class="cls-1" d="M144.07,110.44l-.83,0h-1.68a11.23,11.23,0,0,1-.06-1.6q0-.8,0-1h1.37l0-.21a.17.17,0,0,0,0-.12l-.61-2.86h-3.81a.33.33,0,0,0-.16.27l0,0a.75.75,0,0,1-.06.33l-.16.74a10.94,10.94,0,0,1-.29,1.44.17.17,0,0,0,0,.1l0,.09a.33.33,0,0,1,0,.15,2.22,2.22,0,0,0,.51.06l.26,0a4.16,4.16,0,0,1,.54,0l.09.07,0,.33a2.53,2.53,0,0,1,.06.53l-.06.36a.89.89,0,0,0,0,.22,1.3,1.3,0,0,1,0,.31l0,.49-.06.31h-4.93v-2.65h1c.08-.32.17-.64.25-1a7.27,7.27,0,0,0,.2-1,5.59,5.59,0,0,1,.2-.94,5.86,5.86,0,0,0,.21-.9,2.35,2.35,0,0,1,.13-.62c.14-.55.29-1.21.44-2a1.11,1.11,0,0,1-.08-.3,5.56,5.56,0,0,0-.94-1.17c.13-.12.3-.27.51-.43a2.83,2.83,0,0,0,.24-.25,1,1,0,0,1,.27-.21,1.91,1.91,0,0,0,.83-1.29l.28-1.32c.06-.35.22-1.06.48-2.12.1-.49.16-.77.16-.83a1,1,0,0,1,0-.22h-1.4V90.68h5l.25,0,.51,0,.67,0,.57,0v2.61h-1.4l.06.28a4.63,4.63,0,0,0,.2,1c.06.23.11.45.15.68s.09.46.15.71.1.48.14.7.09.46.14.71.1.48.15.7a2.42,2.42,0,0,0,.84,1.14l.93.8a4,4,0,0,0-.34.38,4,4,0,0,1-.32.36,1.83,1.83,0,0,0-.35.7,1.14,1.14,0,0,0,0,.28c0,.08,0,.17.06.28l.35,1.5c.15.72.27,1.25.35,1.58s.18.79.29,1.34l.32,1.38h.92a2.81,2.81,0,0,1,.06.59l0,.73a4,4,0,0,1,0,.53l0,.73a4,4,0,0,1-.64,0Zm-8.16-2.68a.78.78,0,0,0,.36,0,.72.72,0,0,0,0-.36H136Zm.09.92q.42,0,.42-.18a.21.21,0,0,0,0-.12.57.57,0,0,1-.08-.13l-.32.16A.91.91,0,0,1,136,108.68Zm.57-2.61s.06,0,.1-.06h-.16Zm1-.06a7.78,7.78,0,0,1,.16-.84c.06-.28.11-.56.15-.85a1.88,1.88,0,0,0,.35-.34l.42,0,0-.15-.35.06-.1-1.23a3.71,3.71,0,0,0-.08.54,3,3,0,0,1-.08.51l-.32.17a.45.45,0,0,0-.22.29,2.67,2.67,0,0,0-.47,0l.09.34-.16.09.22.24a.3.3,0,0,0-.3,0,.76.76,0,0,1-.2.08v.15l.47.28a1.34,1.34,0,0,0-.12.46,2.86,2.86,0,0,1,.5.06Zm-.54-2.39a.15.15,0,0,0,.12-.07.5.5,0,0,1,.23-.09l.16,0a3,3,0,0,0,.34-.4,2.12,2.12,0,0,0-.79-.46,3.52,3.52,0,0,1-.13.45,1.78,1.78,0,0,0-.06.51Zm.19,4.17a3.78,3.78,0,0,0,.06-.58l-.19,0c-.06,0-.13,0-.19.15v.37Zm.06-6.36a.36.36,0,0,1,.26-.09.56.56,0,0,1,.22.06l-.1-.55a.35.35,0,0,0-.22-.12l-.22,0Zm.32,8,.19-.1a.64.64,0,0,0,.16-.11v-.37l-.26-.22a.72.72,0,0,1-.19.11.91.91,0,0,0-.16.11v.43a.38.38,0,0,0,.13.08A.28.28,0,0,1,137.56,109.48Zm.16-10.07c.19,0,.28-.07.28-.22l0-.18-.22-.09-.29.27C137.53,99.34,137.61,99.41,137.72,99.41Zm.41,9.27a0,0,0,0,0,0,0h-.06Zm.35-9,.05,0a.9.9,0,0,0,.17-.15l-.35-.22a.78.78,0,0,0,0-.24h0v.52A.35.35,0,0,0,138.48,99.65Zm3.4,2.61c-.25-1.29-.49-2.56-.72-3.82s-.47-2.54-.74-3.86l-.32,1.82a4.43,4.43,0,0,0-.19.8c0,.26-.1.54-.16.82s-.15.75-.19,1.08l-.1.49a5.61,5.61,0,0,0-.25,1.29,5,5,0,0,1-.19.74,2.15,2.15,0,0,0-.06.64Zm-2.7,1.69,0,0,0,0,0,0Zm2.54-11.67,0,0,0,0,0,0A0,0,0,0,1,141.72,92.28Zm.54-.34v-.3h0v.3Zm.19,3.57-.06-.07-.07,0Zm.16,8.51v0s0,0,0,0ZM143,91.79c.11-.1.16-.17.16-.22s-.06-.12-.19-.24l-.22.24A.7.7,0,0,0,143,91.79Zm-.22,17.6a.19.19,0,0,1,.13,0v0h-.13Zm.54-9.15,0-.13c0-.1-.06-.17-.19-.21s-.16.13-.16.21l0,.13Zm0,1.26c.23,0,.35-.1.35-.28a.2.2,0,0,0-.22-.22c-.15,0-.26.11-.32.31A.17.17,0,0,0,143.34,101.5Zm.29,1,.22-.52-.19-.19-.1.16-.09-.07-.23.25a.35.35,0,0,0,.07.26A1.08,1.08,0,0,0,143.63,102.48Zm-.32-10.72v0h0A0,0,0,0,0,143.31,91.76Zm.09,7.34,0,0a0,0,0,0,1,0,0Zm.45,10.69v-.25a1.48,1.48,0,0,1-.38,0c-.05,0-.07.07-.07.1a.26.26,0,0,1,0,.11Zm-.22-3.19.19,0a2.7,2.7,0,0,1-.32-.19C143.54,106.52,143.58,106.6,143.63,106.6Zm-.07-6.27.35,0-.19-.25Zm.26,4.12s0,0,0,0h-.07Zm.63,1.41a.35.35,0,0,0,.25-.12l-.19-.83c-.06-.07-.24-.1-.54-.1a.67.67,0,0,0-.12.34.41.41,0,0,0,0,.16l.09.52.2,0a.47.47,0,0,1,.17,0Zm-.54-6a0,0,0,0,1,0,0l0,0,0,0A0,0,0,0,0,143.91,99.81Zm.16,8.54.13-.1,0-.06-.13.1Zm1.21.33.28,0a.78.78,0,0,0,.64-.27h-.6l-.39-.37-.35-1.54-.28-.15a.18.18,0,0,1-.1.06l.1.25-.19.21.19.22q-.45.06-.51.21l.51.37-.16.37a.27.27,0,0,1,.19,0,.2.2,0,0,0,.13,0,.35.35,0,0,0,.16-.06l.09.25h.26A2.06,2.06,0,0,1,145.28,108.68Zm-.32,1.11.06-.12a.17.17,0,0,0-.08-.13l-.17-.15h-.26c-.14.1-.22.2-.22.28l0,.12Zm-.6-9.89a0,0,0,0,1,0,0l0,0Zm1.24,9.21v-.21h0v.21Zm.41.53a.28.28,0,0,0,.16-.22.41.41,0,0,0-.07-.12A.58.58,0,0,1,146,109l-.25.16a.34.34,0,0,1,.09.26A.23.23,0,0,0,146,109.64Z"/><path class="cls-1" d="M158.9,110.41h-2a1.84,1.84,0,0,1-1.36-.54,2.34,2.34,0,0,1-.54-1.71l0-1.72,0-2.15,0-1.41a1.85,1.85,0,0,0-.41-1.08,1,1,0,0,0-.32-.24,4.25,4.25,0,0,0-1.43-.22l-.67,0-.7,0c0,1.68,0,2.59,0,2.74a.49.49,0,0,1-.1.3v.13a.45.45,0,0,1,.1.27c0,.13,0,1.12,0,3h1.21a2.81,2.81,0,0,1,.06.59c0,.26,0,.93,0,2-.17,0-1.33.07-3.49.07-1.17,0-1.83,0-2,0v-2.58h1.3V101.9a1.58,1.58,0,0,0-.51-1.17c-.4-.39-.68-.67-.82-.83a6.43,6.43,0,0,0,1.16-1.34,3.13,3.13,0,0,0,.17-1.18q0-.59,0-1.2l0-.61V93.32h-1.3V90.71c.06,0,1.06,0,3,0,2.08,0,3.28,0,3.59,0a4.76,4.76,0,0,1,3.05,1.09,3.54,3.54,0,0,1,.87,1.88,17.06,17.06,0,0,1,.18,1.8c0,.3,0,.56,0,.76,0,.37-.07.75-.08,1.12a3.23,3.23,0,0,1-.24,1.13,2.27,2.27,0,0,1-1.33,1.35l-.8.3a2.59,2.59,0,0,0,.45.19,2.15,2.15,0,0,1,.7.24,2.1,2.1,0,0,1,1.2,1.82l0,.43a3.63,3.63,0,0,1,.06.64c0,.21,0,.42,0,.65a.78.78,0,0,1,0,.24.85.85,0,0,0,0,.25,1.41,1.41,0,0,1,.06.37,4,4,0,0,1,0,.64,7.15,7.15,0,0,0,0,1,9,9,0,0,0,.06,1.19h1.3v2.61A.82.82,0,0,1,158.9,110.41Zm-6-11.59.64,0a1.31,1.31,0,0,0,1.23-.67,6,6,0,0,0,.29-2.25v-1a1.45,1.45,0,0,0-1.59-1.57c-.27,0-.92,0-1.94,0,0,3.2,0,4.84,0,4.92a.25.25,0,0,1,0,.15.28.28,0,0,0-.05.16l.13.27h1Zm-.51,1.14v0h0A0,0,0,0,0,152.39,100Zm1.34-.49,0-.06a.12.12,0,0,0-.09,0v0Zm2,3.53,0-.18a.14.14,0,0,0-.07-.13.81.81,0,0,0-.06-.39v.21l0,.06a.12.12,0,0,0,.09.12Zm.09,4.89a2.08,2.08,0,0,1,.64-.16.62.62,0,0,0,.5-.37.37.37,0,0,1,.19.07.7.7,0,0,1,.19-.13v-1.6l-.31-.09-.19.22a.44.44,0,0,1-.19,0l.09-.28-.16-.31-.25.1c-.09,0-.13-.07-.13-.13a.09.09,0,0,1,0-.06.13.13,0,0,0,0-.09.21.21,0,0,0,0-.11.34.34,0,0,1,0-.17l0-.15a.12.12,0,0,0,0-.09l0-.28a.48.48,0,0,0-.06-.21l-.22,1.13-.26,0,0,.68,0,.8A5.52,5.52,0,0,0,155.79,107.89Zm-.13-3.2.19-.21-.19-.25Zm.42,3.56v-.12h0v.12Zm.5.56,0-.13a.34.34,0,0,0-.07-.18.37.37,0,0,1-.06-.21.69.69,0,0,0-.22,0,.21.21,0,0,1,.12.21l0,.09C156.36,108.71,156.44,108.77,156.58,108.81Zm.39-5.35.34-.18v-.37c-.06-.08-.22-.12-.47-.12a.36.36,0,0,0-.22.33l0,.16Zm0-9.92a.33.33,0,0,0,0-.15l-.07.06Zm.26,11.77s0,0,0,0a0,0,0,0,1,0,0Zm1.24,3.56a0,0,0,0,1,0,0v0h-.16v.06Z"/><path class="cls-1" d="M171.78,110.77a7.33,7.33,0,0,1-1.2-.09,4.13,4.13,0,0,1-2.48-1.52,5.11,5.11,0,0,1-1.24-2.78l-.06-.52c-.05-.29-.49-.71-1.34-1.26l-.06-.06a4.85,4.85,0,0,0,1.84-1.66,7.25,7.25,0,0,1,1.59-2.31l.57-.64a25,25,0,0,1-1.05-2.52,1.08,1.08,0,0,0-.54-.64L166.57,96l.35-.31a3.25,3.25,0,0,0,.8-.89,10.46,10.46,0,0,1,.19-1.23,4.67,4.67,0,0,1,1.14-2.15,3.22,3.22,0,0,1,2.57-1.11,4.08,4.08,0,0,1,1.11.16c1.64.43,2.45,1.84,2.45,4.24a1.68,1.68,0,0,0,.49.7,5.81,5.81,0,0,1,.62.59c-.23.16-.47.32-.71.46s-.47.28-.68.41a1.46,1.46,0,0,0-.51.54,10,10,0,0,1-1.81,2.52c.86,1.09,1.56,2,2.09,2.7a8.7,8.7,0,0,0,1.24,1.48l.45-1.26a5.58,5.58,0,0,0,.12-1.32,1.4,1.4,0,0,0-.41-.37h-.51a2.52,2.52,0,0,1-.06-.52l0-.13V98.7q.25-.06,2.73-.06,1.31,0,1.56,0v2.4l-.95.09-.1.49c0,.16-.07.34-.1.52a5.62,5.62,0,0,1-.09.57c0,.2-.1.41-.16.65s-.13.48-.19.75a9.11,9.11,0,0,1-.35,1.07,7.4,7.4,0,0,1-.51,1.11,7.52,7.52,0,0,1,.46.69c.14.24.28.47.43.69h1.56v2.71h-2.13a1.59,1.59,0,0,1-1.33-.68l-.7-1-.23.21a2.23,2.23,0,0,1-.57.61,4.76,4.76,0,0,1-2.73,1.2Zm-4.82-6a.23.23,0,0,1,.14-.24.22.22,0,0,0,.14-.22l0-.12-.16,0c-.17,0-.36.14-.57.43Zm2.82,2.89.06-.21-.12-.11a.6.6,0,0,1-.13-.14l-.13-.18c-.12-.19-.22-.34-.28-.46a8.51,8.51,0,0,1-.35-.9.38.38,0,0,0-.29-.24.49.49,0,0,0,0-.15.2.2,0,0,1,0-.13s0,0,0,0h0l-.25.62-.22-.07.12-.33a.68.68,0,0,0-.5-.22,2.25,2.25,0,0,1-.1-.61,1.81,1.81,0,0,0,.06-.52.87.87,0,0,0-.09-.4l-.38.36.35.25a1.57,1.57,0,0,0-.08.4,1.63,1.63,0,0,1-.08.37l-.22.12a2.68,2.68,0,0,1,.25.83,4.78,4.78,0,0,0,.48,1.66c.27-.1.42-.23.44-.37l.32.09.28-.3a1.43,1.43,0,0,1,.58.06q0,.18.09.18a.32.32,0,0,0,.06.22A.51.51,0,0,1,169.78,107.7Zm-2.48-2.92,0,0a0,0,0,0,0,0,0Zm1.69-8,0,0-.1-.59a.71.71,0,0,1-.22-.15.56.56,0,0,1,.06-.22.83.83,0,0,0-.16-.17l-.19-.16-.44.24c0,.08,0,.16.05.23a.29.29,0,0,0,.07.17,1.56,1.56,0,0,1,.43.37.9.9,0,0,0,.53.28Zm-.32,6.48a.55.55,0,0,0,.13-.34.34.34,0,0,0-.05-.17l-.08-.14a.35.35,0,0,0-.1-.12l-.44.12-.1.28a2.08,2.08,0,0,0,.13.37Zm0,1.63v-.71a.67.67,0,0,0-.25.46C168.45,104.8,168.53,104.89,168.7,104.91Zm.06,3.77.2-.09v-.21q-.36,0-.42.18a.33.33,0,0,0,.11.08Zm.58-13.6a.5.5,0,0,1,.16,0,.6.6,0,0,0,.19-.08c0-.1,0-.2-.05-.29a1.15,1.15,0,0,0-.08-.29.75.75,0,0,0-.08.14.48.48,0,0,1-.08.11l-.25-.31a1.39,1.39,0,0,1-.35,0v.31a3.23,3.23,0,0,1,.27.23A1.58,1.58,0,0,0,169.34,95.08ZM169,109.21l.35-.25h-.54Zm.38-7.25.49-.69a2.11,2.11,0,0,1,.59-.6h.67c0-.08.07-.13.11-.14l.11,0c.1,0,.17,0,.19,0a.1.1,0,0,0,.09,0l.23,0,.22,0a1.37,1.37,0,0,0-.16-.24l-.19,0a.92.92,0,0,1-.54-.25.73.73,0,0,0-.41-.35,3.59,3.59,0,0,1-.51-.2c-.07.14-.12.23-.18.25a.42.42,0,0,0-.14.09.79.79,0,0,1-.22.61c-.15.15-.42.43-.8.86l.19.46.13,0A.31.31,0,0,1,169.37,102Zm-.22,5.4.22-.18a2.29,2.29,0,0,1-.41,0A.67.67,0,0,0,169.15,107.36Zm.15-11.45v-.07a.17.17,0,0,1-.12,0v0Zm3,12a2.62,2.62,0,0,0,2-1.2q-1.51-2.37-3.59-5.47a4.47,4.47,0,0,0-1.43,3.32,7.2,7.2,0,0,0,.13,1,3.24,3.24,0,0,0,1.27,1.91A2.69,2.69,0,0,0,172.32,107.86Zm-2.7-9.1,0-.12a.15.15,0,0,0-.09-.14.21.21,0,0,1-.1-.2l0,.16a.27.27,0,0,0,0,.12A1,1,0,0,0,169.62,98.76Zm.13,9.1.19-.1-.16-.06q-.09,0-.09.06C169.69,107.82,169.71,107.86,169.75,107.86Zm.32-8.24a.92.92,0,0,1-.13-.3A.94.94,0,0,1,170,99a.32.32,0,0,1-.14,0,.32.32,0,0,0-.14,0A1.21,1.21,0,0,0,170.07,99.62Zm-.19,9.25.06,0a.09.09,0,0,1,0-.06.31.31,0,0,0,0-.08s0,0-.11,0l0,0Zm0-.62,0,0a0,0,0,0,0,0,0Zm.19-11h0V97l-.09.18S170,97.25,170,97.29Zm1.18,1.23a5.75,5.75,0,0,0,.95-1.17,4.73,4.73,0,0,0,.73-2.77c0-1.2-.45-1.81-1.36-1.81a1.23,1.23,0,0,0-1.14.92,1.91,1.91,0,0,0-.2.74.82.82,0,0,0,0,.28.88.88,0,0,1,0,.21,4.08,4.08,0,0,0,.16,1.11,10.32,10.32,0,0,0,.41,1.5Zm.13,2.42,0-.18-.13,0A.26.26,0,0,0,171.34,100.94Zm.25-1V99.9a.24.24,0,0,0-.19-.25.22.22,0,0,0-.16.22l0,.12Zm0-.71,0,0a0,0,0,0,0,0,0Zm.41,2.22-.12-.5-.35.25.19.25Zm-.25-1.36,0-.06a0,0,0,0,1,0,0Zm0,.77,0,0a0,0,0,0,0,0,0Zm1.05-2.7a.27.27,0,0,0,.22-.15.91.91,0,0,0-.19-.16l-.32.28Zm.19,4.48-.19-.18a1,1,0,0,1-.16.18Zm.09-1.1a0,0,0,0,1,0,0H173A0,0,0,0,0,173.05,101.59Zm.29.37-.22-.28,0,.12a.31.31,0,0,0,0,.08S173.19,101.94,173.34,102Zm1.08,2.88a1.79,1.79,0,0,1,.48-.1.82.82,0,0,0,.44-.2l-1.59-2.09-.09.06s0,0,0,.06,0,0,0,.06.05,0,.05.06a.13.13,0,0,1,0,.08l-.07.11a.47.47,0,0,1-.09.12c.08,0,.13.09.13.28a.55.55,0,0,0-.19-.06l-.32.18a1.08,1.08,0,0,1,.57.43,1.5,1.5,0,0,0-.16.28.42.42,0,0,1,.16.09.18.18,0,0,0,.13.06l.12,0C174.27,104.46,174.42,104.66,174.42,104.84ZM174,94.55v0h0Zm.06,10.26.06,0a.17.17,0,0,1,0-.12H174A.33.33,0,0,1,174.07,104.81Zm.13,3a.44.44,0,0,0,.27-.09.26.26,0,0,0,.11-.18l0-.1a3.17,3.17,0,0,1-.42.37Zm.35-12,0,0a0,0,0,0,1,0,0Zm.19,9.49v-.12c-.05,0-.07,0-.07.12Zm.47.53a.4.4,0,0,0,.07-.19.33.33,0,0,0-.07-.15.53.53,0,0,1-.06-.28.31.31,0,0,1-.13.08.25.25,0,0,0-.12.07.22.22,0,0,1,.12.19l0,.12C175,105.66,175.06,105.72,175.21,105.74Zm-.12,1.07v0h-.16v0ZM175,95.66l0,0,0,0Zm2,9.25.19-.43a.65.65,0,0,0,.25,0c0-.11-.08-.21-.12-.33s-.1-.23-.16-.35a.64.64,0,0,1-.05.31.14.14,0,0,1-.11.06.19.19,0,0,1-.13-.06,1.22,1.22,0,0,1-.13-.19l-.09.22A1.82,1.82,0,0,1,177,104.91Zm-.06-1.36.35-.18v-.06h-.42Zm1-.61a1.21,1.21,0,0,0,.05-.18,1.17,1.17,0,0,1,.08-.25,2.64,2.64,0,0,1-.45,0,.72.72,0,0,0-.09.28.13.13,0,0,0,0,.07S177.65,102.94,177.88,102.94Zm-.19.83v-.25a1,1,0,0,0-.13.19S177.61,103.75,177.69,103.77Zm.1-4.21.15-.15h-.31l.08.09A.14.14,0,0,0,177.79,99.56Zm-.1,1a0,0,0,0,1,0,0l0,0Zm.22,1.39h0v0A0,0,0,0,1,177.91,102Zm1.11-1.35a.51.51,0,0,0,.26-.07V99.19a.86.86,0,0,1-.35.09l-.22,0-.13.13.09.21-.12.19a1.07,1.07,0,0,0,.16.27l-.58.06a2.64,2.64,0,0,0,.29.25l.29.21H179S179,100.61,179,100.61Zm-.82.64,0,0,0,0Zm.47,7.43,0-.12h0v.12Z"/><path class="cls-1" d="M192.59,110.44c-2.18,0-3.49,0-3.91,0,0,0,0,0,0,0v-2.58a3.94,3.94,0,0,1,.57,0l.41,0a2.77,2.77,0,0,0,.42,0v-5.93a1.56,1.56,0,0,0-.77-1.32,1.62,1.62,0,0,1-.31-.24l-.15-.13a.35.35,0,0,1-.11-.21l.06-.09c.17-.17.33-.34.48-.52a4.3,4.3,0,0,1,.51-.54.91.91,0,0,0,.29-.69V93.32h-1.37a2.37,2.37,0,0,1-.06-.52l0-.49,0-.74,0-.21v-.62q.18-.09,6-.09l3.29,0h1.38c0,.21,0,2.06,0,5.56l-.11.06a.15.15,0,0,1-.11,0,2.11,2.11,0,0,0-.38,0,7.77,7.77,0,0,1-1.21.07,1.91,1.91,0,0,1-.64-.1V94.89l0-.12,0-.31a1.11,1.11,0,0,0-.28-.71,1.07,1.07,0,0,0-.61-.39,27.39,27.39,0,0,0-3-.07v5.23l.19,0a1.18,1.18,0,0,0,.73-.34,1.15,1.15,0,0,0,.38-.89,1.56,1.56,0,0,1,.66-.12c.28,0,.71,0,1.31.09a1.37,1.37,0,0,1,.12.55c0,2,0,3,0,3.06a1,1,0,0,0,0,.32.16.16,0,0,0,0,.11.13.13,0,0,1,0,.1.14.14,0,0,1,0,.11.15.15,0,0,0,0,.08l0,.06a.79.79,0,0,1,.06.28.67.67,0,0,1,0,.24.82.82,0,0,0,0,.28l0,.21h-2a1.29,1.29,0,0,0-.54-1,.94.94,0,0,0-.54-.22l-.25,0v6.29l.66,0,.48,0c.32,0,.59,0,.82,0h1.94a1.1,1.1,0,0,1,0-.18c0-.06,0-.5,0-1.31s0-1.24,0-1.32a1.64,1.64,0,0,0,0-.23l0-.4,0,0h2.35c0,.17.06,1.32.06,3.47q0,1.93,0,2.55C199.1,110.41,196.86,110.44,192.59,110.44Zm-2.93-17.79.2-.11a.42.42,0,0,0,.15-.11v-.3a1.51,1.51,0,0,0-.28-.22,2.14,2.14,0,0,1-.29.22v.3Zm.51,7.1.26,0-.32-.21A.7.7,0,0,0,190.17,99.75Zm.42-.74a3.22,3.22,0,0,1,.54,0,.38.38,0,0,1,.15-.09.49.49,0,0,0,.16-.1l.16.1a.24.24,0,0,1,.14-.25q.15-.06.15-.18l0-.13a1.43,1.43,0,0,1-.59-.23.88.88,0,0,0-.49-.17l-.19,0Zm5.11,3.16v-1.1a1.2,1.2,0,0,0-.57-.13.8.8,0,0,1-.07.28.71.71,0,0,0-.22-.15l.19-.19a.41.41,0,0,1-.16-.23.27.27,0,0,0-.19-.2l.07-.09-.19,0c-.07,0-.12-.06-.16-.17l.09-.24c0-.1,0-.2-.05-.28a.88.88,0,0,0,0-.2s-.05-.07-.07-.07c0,.18,0,.29-.09.32l-.16.08a3.69,3.69,0,0,0-.91-.43,2.57,2.57,0,0,0-.77-.1.65.65,0,0,1-.16-.46l0-.3,0-.25-.23.92a.3.3,0,0,0-.31.17.53.53,0,0,1-.23.26l-.38-.09a.94.94,0,0,0,.07.34.22.22,0,0,0-.08.1L191,100l.16.19-.57.18.57.4-.16.4.38.08a.22.22,0,0,1,.19.16c.17,0,.26,0,.26.14a1.43,1.43,0,0,0,0,.29l.41-.12v-.52a1.42,1.42,0,0,0,.22-.2l.16-.17h.22a1.86,1.86,0,0,1,1.91,1.32Zm-5-.61.19-.19h-.13A.51.51,0,0,0,190.65,101.56Zm0-10a0,0,0,0,1,0,0,0,0,0,0,0,0,0Zm.41.59.07-.37s0-.1-.13-.18l-.13.12Zm.07,11,.35-.19v-.3a.29.29,0,0,0-.08-.1l-.11-.09H191l-.1.46Zm-.19-10v0l0,0Zm.12,3.63.64-.25a2.75,2.75,0,0,0-.06-.43.39.39,0,0,0-.26-.12l-.32.12Zm.77,7.92a1.11,1.11,0,0,1,.25-.33l.19.06V104l-.29.24-.31-.21c-.24.08-.35.21-.35.4a.31.31,0,0,0,.05.18,1.34,1.34,0,0,1,.07.18Zm-.39-13.21,0,0s0,0,0,0l0,0Zm.26,3.23c.25-.06.39-.16.41-.31a1.06,1.06,0,0,1-.13-.18h-.34a1.06,1.06,0,0,1-.13.18.42.42,0,0,1,.09.16A.4.4,0,0,0,191.73,94.83Zm-.06-1.11a0,0,0,0,1,0,0l0,0Zm.25,2.8,0,0,0,0a0,0,0,0,0,0,0A0,0,0,0,1,191.92,96.52Zm.16-4.15s0-.07,0-.21h-.06Zm.22,13.06v-.37a.41.41,0,0,0-.19.18Zm-.06-8.85a.05.05,0,0,0,.06-.06s0,0-.06-.09-.08.06-.1.06Zm0,5.59.13-.06s-.07-.06-.09-.06a.18.18,0,0,0-.1.06Zm.8-10.84v0h-.16v0Zm0,1,0-.06-.06,0Zm1.11,7.86-.1-.09a0,0,0,0,0,.05,0,.05.05,0,0,1,.05,0l.09.06Q194.11,100.14,194.08,100.14Zm1.33-1.44a.59.59,0,0,0,.23-.37l-.39-.27a1.1,1.1,0,0,1-.28.12l-.13.34c0,.06,0,.12.16.18Zm0,1.94,0,0,0,0Zm2.42-5s0,0,.06-.09-.07-.06-.09-.06l-.1.09Z"/><path class="cls-1" d="M209.33,110.28l-.83,0h-1.68a10.26,10.26,0,0,1-.07-1.59,7.69,7.69,0,0,1,0-1h1.36l0-.21a.19.19,0,0,0,0-.13l-.6-2.85h-3.81a.33.33,0,0,0-.16.27l0,0a.77.77,0,0,1-.06.34l-.16.74a10.94,10.94,0,0,1-.29,1.44.12.12,0,0,0,0,.09l0,.1a.33.33,0,0,1,0,.15,2.22,2.22,0,0,0,.51.06l.25,0a4.16,4.16,0,0,1,.54,0l.1.06,0,.34a2.52,2.52,0,0,1,.06.52l-.06.37a1,1,0,0,0,0,.22,1.26,1.26,0,0,1,0,.3l0,.5-.07.3h-4.92v-2.64h1c.08-.33.17-.64.25-1a6.15,6.15,0,0,0,.19-1,4.76,4.76,0,0,1,.21-.94,5.69,5.69,0,0,0,.2-.91,3.44,3.44,0,0,1,.13-.61c.15-.55.3-1.21.45-2a.84.84,0,0,1-.08-.3,5.39,5.39,0,0,0-.94-1.17,5.14,5.14,0,0,1,.51-.43l.24-.25a1,1,0,0,1,.27-.21,1.86,1.86,0,0,0,.82-1.29l.29-1.32c.06-.35.22-1.06.48-2.12.1-.5.15-.77.15-.83a.64.64,0,0,1,0-.22h-1.4V90.53h5l.26,0,.51,0,.66,0,.58,0v2.61h-1.4l.06.28a5.46,5.46,0,0,0,.19,1,5.58,5.58,0,0,1,.16.68c0,.22.09.46.14.7s.1.48.15.71.09.46.14.71.1.48.14.7a2.57,2.57,0,0,0,.84,1.14l.94.8a4.14,4.14,0,0,0-.35.38,2.83,2.83,0,0,1-.32.36,1.92,1.92,0,0,0-.34.7,1.2,1.2,0,0,0,0,.28l.06.27.35,1.51c.15.72.26,1.24.35,1.58s.18.79.28,1.34l.32,1.38H212a2.25,2.25,0,0,1,.07.58l0,.74a3.94,3.94,0,0,1,0,.52l0,.74a4,4,0,0,1-.64,0Zm-8.17-2.67c.22,0,.34,0,.37,0a.67.67,0,0,0,.05-.35h-.29Zm.1.92c.27,0,.41-.06.41-.18a.16.16,0,0,0,0-.12l-.07-.13-.32.16A.91.91,0,0,1,201.26,108.53Zm.57-2.61s0,0,.1-.06h-.16Zm.95-.06c.05-.29.1-.57.16-.85a7.34,7.34,0,0,0,.16-.84,1.88,1.88,0,0,0,.35-.34l.41,0,0-.15-.35.06-.09-1.23a3.35,3.35,0,0,0-.08.54,2.74,2.74,0,0,1-.08.5,2.48,2.48,0,0,1-.32.17.44.44,0,0,0-.22.3,2.88,2.88,0,0,0-.48,0l.1.33-.16.1.22.24a.35.35,0,0,0-.16,0,.3.3,0,0,0-.14,0,.73.73,0,0,1-.21.07v.16l.48.27a1.46,1.46,0,0,0-.13.47,2.86,2.86,0,0,1,.51.06Zm-.54-2.4a.18.18,0,0,0,.13-.06.45.45,0,0,1,.22-.09l.16,0a2.43,2.43,0,0,0,.35-.4,2.07,2.07,0,0,0-.79-.46c0,.16-.09.31-.13.45a1.75,1.75,0,0,0-.06.5Zm.2,4.18a3.78,3.78,0,0,0,.06-.58l-.19,0c-.07,0-.13,0-.19.15v.37Zm.06-6.36a.35.35,0,0,1,.25-.09.56.56,0,0,1,.23.06l-.1-.55a.37.37,0,0,0-.22-.12l-.22,0Zm.32,8a1.18,1.18,0,0,1,.19-.11l.16-.1v-.37l-.26-.22-.19.11a.64.64,0,0,0-.16.11v.43a.28.28,0,0,0,.13.07A.38.38,0,0,1,202.82,109.33ZM203,99.25c.19,0,.28-.07.28-.21l0-.18-.22-.1-.29.28A.29.29,0,0,0,203,99.25Zm.41,9.28a0,0,0,0,0,0,0h-.06Zm.35-9,0,0,.18-.15-.35-.22a.78.78,0,0,0,0-.24h0v.52A.35.35,0,0,0,203.74,99.5Zm3.4,2.61c-.26-1.29-.5-2.56-.72-3.82s-.47-2.55-.74-3.86l-.32,1.81a4.87,4.87,0,0,0-.19.8c0,.27-.1.55-.16.83a10.3,10.3,0,0,0-.19,1.08l-.1.49a5.12,5.12,0,0,0-.25,1.29,5,5,0,0,1-.19.74,1.74,1.74,0,0,0-.07.64Zm-2.7,1.69,0,0,0,0,0,0ZM207,92.13l0,0,0,0,0,0A0,0,0,0,1,207,92.13Zm.54-.34v-.31h0v.31Zm.19,3.56-.07-.06-.06,0Zm.16,8.51v0s0,0,0,0Zm.38-12.22c.1-.11.16-.18.16-.22s-.07-.12-.19-.24l-.23.24A1.31,1.31,0,0,0,208.25,91.64Zm-.23,17.6a.23.23,0,0,1,.13,0v0H208Zm.55-9.16,0-.12c0-.1-.07-.17-.19-.21s-.16.13-.16.21l0,.12Zm0,1.26c.23,0,.35-.09.35-.27s-.08-.22-.23-.22-.25.11-.31.31S208.47,101.34,208.6,101.34Zm.28,1,.23-.53-.2-.18-.09.15-.1-.06-.22.25c0,.14,0,.23.07.26A1,1,0,0,0,208.88,102.33Zm-.31-10.72v0h0S208.54,91.61,208.57,91.61Zm.09,7.34,0,0a0,0,0,0,1,0,0Zm.45,10.69v-.25a2.21,2.21,0,0,1-.39,0,.17.17,0,0,0-.06.11.26.26,0,0,1,0,.11Zm-.23-3.2.19,0a2.13,2.13,0,0,1-.31-.18Q208.82,106.44,208.88,106.44Zm-.06-6.26.35,0L209,99.9Zm.25,4.11s0,0,0,0H209Zm.64,1.42a.34.34,0,0,0,.25-.13l-.19-.83a.94.94,0,0,0-.54-.09.64.64,0,0,0-.12.34.33.33,0,0,0,0,.15l.09.53.19,0a.53.53,0,0,1,.18,0Zm-.54-6.06a0,0,0,0,1,0,0l0,0,0,0A0,0,0,0,0,209.17,99.65Zm.16,8.54.12-.09,0-.06-.12.09Zm1.2.34.29,0a.78.78,0,0,0,.64-.27h-.61l-.38-.37-.35-1.54-.28-.15c-.05,0-.08.06-.1.06l.1.24-.19.22.19.21c-.3,0-.47.12-.51.22l.51.37-.16.37a.34.34,0,0,1,.19,0,.21.21,0,0,0,.12,0,.29.29,0,0,0,.16-.06l.1.24h.25A2.25,2.25,0,0,1,210.53,108.53Zm-.31,1.11.06-.12a.17.17,0,0,0-.08-.13l-.17-.15h-.26c-.15.1-.22.19-.22.28l0,.12Zm-.61-9.89s0,0,0,0l0,0Zm1.24,9.21v-.21h0V109Zm.41.52c.11-.06.16-.13.16-.21a.31.31,0,0,0-.06-.12.6.6,0,0,1-.06-.31L211,109a.33.33,0,0,1,.1.26A.23.23,0,0,0,211.26,109.48Z"/><path class="cls-1" d="M218.57,110.22h-6.16v-2.58h1.65v-5.87a1.87,1.87,0,0,0-.86-1.47,3,3,0,0,1-.51-.49.31.31,0,0,0,.1-.13s.32-.36.89-1a1.22,1.22,0,0,0,.35-.92c0-.78,0-2.34,0-4.7l-.32,0-.16,0a1.38,1.38,0,0,0-1.36,1.38v1.88a6.23,6.23,0,0,1-.89.06,4.86,4.86,0,0,1-1.11-.09V90.56h10.54v5.78h-2c-.08,0-.12-.53-.12-1.51l0-.67a1.06,1.06,0,0,0-.83-1,6.62,6.62,0,0,0-.92,0c0,2.36,0,3.89,0,4.61a1.72,1.72,0,0,0,.57,1.26l.8.83a5.14,5.14,0,0,0-.42.38,5.16,5.16,0,0,1-.41.39,1.57,1.57,0,0,0-.54,1.22c0,.93,0,2.87,0,5.84h1.62Zm-2.54-3.9v0h0A0,0,0,0,0,216,106.32Zm2.76-14.53.13,0a1.55,1.55,0,0,1-.29-.22C218.68,91.71,218.73,91.79,218.79,91.79Zm.38.52A1.3,1.3,0,0,1,219,92C219,92.21,219.05,92.31,219.17,92.31Z"/><path class="cls-1" d="M225.41,110.44q-3.27,0-3.9,0s0,0,0,0v-2.58a3.85,3.85,0,0,1,.57,0l.41,0a2.54,2.54,0,0,0,.41,0v-5.93a1.24,1.24,0,0,0-.46-1c-.31-.26-.51-.44-.62-.54l-.14-.13a.35.35,0,0,1-.11-.21l.06-.09c.17-.17.33-.34.48-.52a4.3,4.3,0,0,1,.51-.54.9.9,0,0,0,.28-.69V93.32h-1.36a1.91,1.91,0,0,1-.07-.52l0-.49,0-.74,0-.21v-.62q.18-.09,6-.09l3.28,0h1.39c0,.21,0,2.06,0,5.56l-.11.06a.17.17,0,0,1-.12,0,1.92,1.92,0,0,0-.38,0,7.55,7.55,0,0,1-1.2.07,1.83,1.83,0,0,1-.64-.1V94.89l0-.12,0-.31a1.11,1.11,0,0,0-.28-.71,1.13,1.13,0,0,0-.61-.39,27.51,27.51,0,0,0-3.05-.07v5.23l.19,0a1.13,1.13,0,0,0,.73-.34,1.12,1.12,0,0,0,.38-.89,1.61,1.61,0,0,1,.67-.12c.28,0,.71,0,1.3.09a1.23,1.23,0,0,1,.13.55c0,2,0,3,0,3.06a1,1,0,0,0,0,.32.15.15,0,0,0,0,.11.11.11,0,0,1,0,.1.12.12,0,0,1,0,.11.12.12,0,0,0,0,.08l0,.06a.79.79,0,0,1,.06.28.52.52,0,0,1,0,.24.82.82,0,0,0,0,.28l0,.21h-2a1.29,1.29,0,0,0-.54-1,.94.94,0,0,0-.54-.22l-.26,0v6.29l.67,0,.48,0c.31,0,.59,0,.82,0h1.94a.55.55,0,0,1,0-.18c0-.06,0-.5,0-1.31s0-1.24,0-1.32a1.69,1.69,0,0,0,0-.23l0-.4,0,0h2.35c0,.17.07,1.32.07,3.47q0,1.93,0,2.55C231.92,110.41,229.69,110.44,225.41,110.44Zm-2.92-17.79.19-.11a.38.38,0,0,0,.16-.11v-.3a1.65,1.65,0,0,0-.29-.22,1.51,1.51,0,0,1-.28.22v.3Zm.51,7.1.25,0-.31-.21A.7.7,0,0,0,223,99.75Zm.41-.74a3.39,3.39,0,0,1,.54,0,.42.42,0,0,1,.16-.09.49.49,0,0,0,.16-.1l.16.1a.24.24,0,0,1,.14-.25q.15-.06.15-.18l0-.13a1.49,1.49,0,0,1-.59-.23.83.83,0,0,0-.49-.17l-.19,0Zm5.12,3.16v-1.1a1.21,1.21,0,0,0-.58-.13,1,1,0,0,1-.06.28.86.86,0,0,0-.22-.15l.19-.19a.36.36,0,0,1-.16-.23.27.27,0,0,0-.19-.2l.06-.09-.19,0c-.06,0-.11-.06-.16-.17l.1-.24c0-.1,0-.2,0-.28a.83.83,0,0,0-.05-.2s0-.07-.06-.07c0,.18,0,.29-.1.32l-.15.08a4.06,4.06,0,0,0-.91-.43,2.59,2.59,0,0,0-.78-.1.69.69,0,0,1-.16-.46l0-.3,0-.25-.22.92a.31.31,0,0,0-.32.17.47.47,0,0,1-.22.26l-.38-.09a1.16,1.16,0,0,0,.06.34.26.26,0,0,0-.07.1,1.17,1.17,0,0,0,0,.11l.16.19-.58.18.58.4-.16.4.38.08a.23.23,0,0,1,.19.16c.17,0,.25,0,.25.14a1,1,0,0,0,0,.29l.41-.12v-.52a1.42,1.42,0,0,0,.22-.2l.16-.17h.22a1.86,1.86,0,0,1,1.91,1.32Zm-5.05-.61.19-.19h-.13A.51.51,0,0,0,223.48,101.56Zm0-10a0,0,0,0,1,0,0,0,0,0,0,0,0,0Zm.41.59.06-.37s0-.1-.12-.18l-.13.12Zm.06,11,.35-.19v-.3a.16.16,0,0,0-.08-.1l-.11-.09h-.32l-.09.46Zm-.19-10v0l0,0Zm.13,3.63.64-.25a3.22,3.22,0,0,0-.07-.43.37.37,0,0,0-.25-.12l-.32.12Zm.76,7.92a1.35,1.35,0,0,1,.26-.33l.19.06V104l-.29.24-.32-.21c-.23.08-.34.21-.34.4a.39.39,0,0,0,0,.18,1.42,1.42,0,0,1,.08.18ZM224.3,91.6l0,0a0,0,0,0,0,0,0l0,0Zm.26,3.23c.25-.06.39-.16.41-.31a.7.7,0,0,1-.13-.18h-.35a.7.7,0,0,1-.12.18.42.42,0,0,1,.09.16A.31.31,0,0,0,224.56,94.83Zm-.07-1.11a0,0,0,0,1,0,0l0,0Zm.26,2.8,0,0,0,0a0,0,0,0,0,0,0A0,0,0,0,1,224.75,96.52Zm.16-4.15s0-.07,0-.21h-.07Zm.22,13.06v-.37a.37.37,0,0,0-.19.18Zm-.07-8.85c.05,0,.07,0,.07-.06s0,0-.07-.09-.07.06-.09.06Zm0,5.59.13-.06a.18.18,0,0,0-.1-.06s-.05,0-.09.06Zm.8-10.84v0h-.16v0Zm0,1,0-.06-.07,0Zm1.12,7.86-.1-.09a.05.05,0,0,0,.05,0,.05.05,0,0,1,0,0l.09.06Q226.94,100.14,226.91,100.14Zm1.33-1.44a.57.57,0,0,0,.22-.37l-.38-.27a1.29,1.29,0,0,1-.28.12l-.13.34c0,.06.05.12.16.18Zm0,1.94,0,0,0,0Zm2.42-5s0,0,.06-.09a.18.18,0,0,0-.1-.06l-.09.09Z"/><path class="cls-1" d="M244.46,110.5h-2a1.86,1.86,0,0,1-1.37-.54,2.34,2.34,0,0,1-.54-1.71l0-1.72,0-2.15,0-1.41a1.78,1.78,0,0,0-.41-1.08.87.87,0,0,0-.32-.24,4.23,4.23,0,0,0-1.42-.22l-.67,0-.7,0c0,1.68,0,2.59,0,2.74a.49.49,0,0,1-.09.3v.13a.44.44,0,0,1,.09.27c0,.13,0,1.12,0,3h1.21a2.81,2.81,0,0,1,.06.59c0,.26,0,.93,0,2-.17,0-1.34.07-3.5.07-1.16,0-1.83,0-2,0v-2.58h1.31V102a1.58,1.58,0,0,0-.51-1.17c-.41-.39-.68-.67-.83-.83A6.11,6.11,0,0,0,234,98.65a2.91,2.91,0,0,0,.18-1.18c0-.39,0-.79,0-1.2l0-.61V93.41h-1.31V90.8c.07,0,1.06,0,3,0s3.27,0,3.59,0a4.81,4.81,0,0,1,3.05,1.09,3.61,3.61,0,0,1,.87,1.88c.1.68.15,1.28.18,1.8a7.59,7.59,0,0,1,0,.76c0,.37-.07.75-.08,1.12a3.45,3.45,0,0,1-.23,1.13,2.29,2.29,0,0,1-1.34,1.35l-.79.3a2.53,2.53,0,0,0,.44.19,2,2,0,0,1,.7.24,2.09,2.09,0,0,1,1.21,1.82l0,.43a3.63,3.63,0,0,1,.06.64,4.93,4.93,0,0,0,0,.65.75.75,0,0,1,0,.24.85.85,0,0,0,0,.25,1.48,1.48,0,0,1,.07.37,4,4,0,0,1,0,.64,6.7,6.7,0,0,0-.05,1,9,9,0,0,0,.06,1.19h1.31v2.61A.85.85,0,0,1,244.46,110.5Zm-6-11.59.63,0a1.31,1.31,0,0,0,1.24-.67,6.05,6.05,0,0,0,.28-2.25V95A1.45,1.45,0,0,0,239,93.41c-.28,0-.92,0-1.94,0q0,4.8,0,4.92a.2.2,0,0,1-.05.15.27.27,0,0,0,0,.16l.12.27h1Zm-.51,1.14v0h0S237.93,100.05,238,100.05Zm1.33-.49,0-.06a.15.15,0,0,0-.1,0v0Zm2,3.53,0-.18a.15.15,0,0,0-.06-.13.68.68,0,0,0-.07-.39v.21l0,.06a.12.12,0,0,0,.1.12Zm.09,4.89a2.23,2.23,0,0,1,.64-.16.65.65,0,0,0,.51-.37.44.44,0,0,1,.19.07.48.48,0,0,1,.19-.13v-1.6l-.32-.09-.19.22a.47.47,0,0,1-.19,0l.1-.28-.16-.31-.26.1a.14.14,0,0,1-.12-.13.09.09,0,0,1,0-.06.12.12,0,0,0,0-.09.2.2,0,0,0,0-.11.34.34,0,0,1,0-.17l0-.15a.12.12,0,0,0,0-.09l0-.28a.48.48,0,0,0-.06-.21l-.23,1.13-.25,0,0,.68,0,.8A5.57,5.57,0,0,0,241.34,108Zm-.12-3.2.19-.21-.19-.25Zm.41,3.56v-.12h0v.12Zm.51.56,0-.13a.32.32,0,0,0-.06-.18.31.31,0,0,1-.07-.21.78.78,0,0,0-.22,0,.21.21,0,0,1,.13.21l0,.09C241.92,108.8,242,108.86,242.14,108.9Zm.38-5.35.35-.18V103q-.09-.12-.48-.12a.38.38,0,0,0-.22.33l0,.16Zm0-9.92a.33.33,0,0,0,0-.15l-.06.06Zm.25,11.77s0,0,0,0a0,0,0,0,1,0,0ZM244,109a0,0,0,0,1,0,0v0h-.16V109Z"/><path class="cls-1" d="M254.09,115.32h-6.78l0-.47,0-.59,0-.8a.53.53,0,0,1,0-.23v-.7a7.55,7.55,0,0,1,.79,0,5.28,5.28,0,0,0,.79,0V103.7a2.17,2.17,0,0,0-.19-.9c-.28-.64-.53-1-.74-1l-1.74-1.06.81-1.23a1.78,1.78,0,0,0,.08-.47,16,16,0,0,0-.78-2.25c-.59-1.53-1-2.6-1.2-3.23h-1.2a6.66,6.66,0,0,1-.08-1.35,9.32,9.32,0,0,1,.08-1.47h6.13V93.5h-1.4l0,.13,0,.1a.11.11,0,0,0,0,.1l.39,1,1.78,5.22H251l2.56-6.55a5.72,5.72,0,0,0-.62,0l-.35,0-.47,0V90.71H258V93.5H256.8l-.73,1.76-1.36,3.12a1.88,1.88,0,0,0-.15.7l0,0a1.48,1.48,0,0,0,.46.9,1.93,1.93,0,0,1,.27.47l.12.19a3.27,3.27,0,0,1-.39.29l-.89.55a3.32,3.32,0,0,1-.6.31c-.25.1-.47.45-.68,1.05a3.17,3.17,0,0,1-.17.41q-.1.18-.1,9.18h1.55Zm-6.82-21.39v0h-.16v0Zm2-2.52s0,0,0,0l0,0a0,0,0,0,0,0,0Zm.74,22.71,0,0s0,0,0,0,0,0,0,0Zm.19-.1s0,0,0,0h0l-.08-.13-.11,0Zm.89-13a.81.81,0,0,0,.16-.16.19.19,0,0,1,.15-.1l0,0v0l0,0H251Zm.12,4.39v0l-.08,0Zm4.92-13.88-.11-.14-.08,0A.19.19,0,0,0,256.14,91.58Z"/></g></g></svg>