<svg xmlns="http://www.w3.org/2000/svg" viewBox="0 0 375.18 120.01"><defs><style>.cls-1{fill:#fff;}</style></defs><g id="Layer_2" data-name="Layer 2"><g id="Layer_1-2" data-name="Layer 1"><path class="cls-1" d="M90.55,76.06,87.47,76H81.2a38,38,0,0,1-.24-5.9,37.88,37.88,0,0,1,.12-3.86h5.09l.12-.79a.71.71,0,0,0-.12-.46L83.92,54.39H69.72a1.26,1.26,0,0,0-.59,1l.12.11A2.7,2.7,0,0,1,69,56.77l-.59,2.73a45.76,45.76,0,0,1-1.07,5.33.44.44,0,0,0-.12.34l.12.34a1.2,1.2,0,0,1-.12.57,8.15,8.15,0,0,0,1.9.22l.94-.11a16.45,16.45,0,0,1,2,.11l.35.23-.12,1.25a8.42,8.42,0,0,1,.24,1.93l-.24,1.36a3.1,3.1,0,0,0,.12.79A4.58,4.58,0,0,1,72.56,73l-.12,1.81L72.2,76H53.86V66.19h3.79c.31-1.21.63-2.38,1-3.52a26.27,26.27,0,0,0,.71-3.51,19.25,19.25,0,0,1,.76-3.47,19.25,19.25,0,0,0,.77-3.34,9.59,9.59,0,0,1,.48-2.27Q62.15,47,63,42.82a4,4,0,0,1-.29-1.14c0-.38-1.21-1.81-3.49-4.31a24.08,24.08,0,0,1,1.89-1.59c.31-.3.61-.6.89-.91a4.21,4.21,0,0,1,1-.79,6.88,6.88,0,0,0,3.08-4.77l1.07-4.87q.34-1.94,1.77-7.83c.39-1.82.59-2.84.59-3.07a3.16,3.16,0,0,1,.12-.79H64.39V3.11H83l1-.12,1.89.12L88.3,3l2.13.12v9.64H85.22l.24,1a17.21,17.21,0,0,0,.71,3.52c.23.83.43,1.66.59,2.49s.33,1.71.53,2.61.37,1.78.53,2.61.34,1.71.54,2.61.37,1.78.53,2.61A9.25,9.25,0,0,0,92,34.42l3.49,2.95a15.72,15.72,0,0,0-1.3,1.42A12.74,12.74,0,0,1,93,40.09a7.24,7.24,0,0,0-1.3,2.61,4,4,0,0,0,.12,1c.07.31.15.65.23,1l1.3,5.56c.56,2.64,1,4.59,1.31,5.84s.67,2.89,1.06,4.93l1.18,5.11h3.44a10,10,0,0,1,.23,2.16l-.12,2.72A13.16,13.16,0,0,1,100.6,73l-.12,2.72a13.67,13.67,0,0,1-2.36.11ZM60.13,66.19A2.86,2.86,0,0,0,61.49,66c.12-.11.18-.55.18-1.3H60.61Zm.36,3.4c1,0,1.54-.22,1.54-.68a.72.72,0,0,0-.18-.45,2.93,2.93,0,0,1-.3-.45l-1.18.56A3.29,3.29,0,0,1,60.49,69.59ZM62.62,60c.08,0,.19-.07.35-.23h-.59Zm3.55-.23c.16-1.06.35-2.1.59-3.12s.43-2.06.59-3.12a9.05,9.05,0,0,0,1.3-1.25l1.54-.11-.12-.57-1.3.23-.35-4.54a12,12,0,0,0-.3,2,10.56,10.56,0,0,1-.29,1.87c-.4.23-.79.44-1.19.62a1.65,1.65,0,0,0-.83,1.08,10.78,10.78,0,0,0-1.77.11l.35,1.25-.59.34.83.91A1.44,1.44,0,0,0,64,55.3a1,1,0,0,0-.53.17,3,3,0,0,1-.77.28v.57l1.77,1A5,5,0,0,0,64,59a10.79,10.79,0,0,1,1.89.23Zm-2-8.85a.7.7,0,0,0,.47-.22,1.54,1.54,0,0,1,.83-.34l.59.11a14,14,0,0,0,1.3-1.48,7.76,7.76,0,0,0-3-1.7c-.16.61-.31,1.16-.47,1.65a6.11,6.11,0,0,0-.24,1.87Zm.71,15.43a14,14,0,0,0,.23-2.15L64.39,64c-.23,0-.47.19-.71.57V66Zm.23-23.48a1.3,1.3,0,0,1,1-.34,2,2,0,0,1,.83.22l-.36-2a1.31,1.31,0,0,0-.82-.45l-.83.11Zm1.19,29.72a5.49,5.49,0,0,1,.71-.39,2.65,2.65,0,0,0,.59-.4V70.39l-1-.8a4.58,4.58,0,0,1-.71.4,2.35,2.35,0,0,0-.59.4V72a1.07,1.07,0,0,0,.47.28A1.1,1.1,0,0,1,66.29,72.54Zm.59-37.21c.71,0,1.06-.27,1.06-.8l-.11-.68L67,33.51l-1.07,1C66.17,35.06,66.48,35.33,66.88,35.33Zm1.54,34.26c.07,0,.12,0,.12-.11H68.3Zm1.3-33.35q.12-.12.18-.12a5,5,0,0,0,.65-.56l-1.3-.8a3.13,3.13,0,0,0-.12-.91H69v1.93C69.32,36.09,69.56,36.24,69.72,36.24Zm12.66,9.64c-.95-4.77-1.83-9.47-2.66-14.13S78,22.36,76.94,17.51l-1.19,6.7A21.07,21.07,0,0,0,75,27.16c-.16,1-.35,2-.59,3.06-.31,1.44-.55,2.76-.71,4L73.39,36a19.16,19.16,0,0,0-1,4.76,18.3,18.3,0,0,1-.71,2.73,7.41,7.41,0,0,0-.24,2.38ZM72.32,52.12l.12-.11-.12-.12L72.2,52ZM81.79,9l.12-.12-.12-.11-.12.11A.11.11,0,0,1,81.79,9Zm2-1.25V6.62h-.12V7.76Zm.71,13.16-.24-.23L84,20.8Zm.59,31.43v-.12a.11.11,0,0,0-.12.12ZM86.52,7.19c.4-.38.59-.64.59-.79s-.23-.46-.71-.91l-.83.91A3.63,3.63,0,0,0,86.52,7.19Zm-.83,65a.76.76,0,0,1,.48-.11V72h-.48Zm2-33.81.11-.45c0-.38-.23-.64-.71-.8a1,1,0,0,0-.59.8l.12.45ZM87.82,43c.87,0,1.3-.34,1.3-1s-.27-.79-.82-.79-1,.38-1.19,1.13C87.11,42.82,87.35,43,87.82,43Zm1.07,3.63.83-1.92L89,44.07l-.36.56-.35-.22-.83.9c0,.53.08.85.24,1A4.23,4.23,0,0,0,88.89,46.67ZM87.71,7.08V7h-.12A.11.11,0,0,0,87.71,7.08Zm.35,27.11-.12-.11c0,.08,0,.11-.12.11Zm1.66,39.49v-.91a7.38,7.38,0,0,1-1.42.11.65.65,0,0,0-.24.4.89.89,0,0,1-.12.4Zm-.83-11.8.71-.12a7.09,7.09,0,0,1-1.19-.68C88.57,61.61,88.73,61.88,88.89,61.88Zm-.24-23.15,1.3-.11-.71-.91Zm.95,15.21a.11.11,0,0,0,.12-.12h-.24ZM92,59.16a1.4,1.4,0,0,0,1-.46l-.71-3.06a3.49,3.49,0,0,0-2-.34,2.19,2.19,0,0,0-.47,1.25,1.33,1.33,0,0,0,.11.56L90.19,59l.71-.11a1.93,1.93,0,0,1,.65.11A1.42,1.42,0,0,0,92,59.16ZM90,36.8c0-.07,0-.11.12-.11L90,36.58l-.12.11C89.83,36.77,89.87,36.8,90,36.8Zm.6,31.55L91,68l-.12-.23-.47.34ZM95,69.59l1.07-.11a2.86,2.86,0,0,0,2.36-1H96.22L94.81,67.1,93.5,61.42l-1.06-.56a.66.66,0,0,1-.36.22l.36.91-.71.8.71.79c-1.11.15-1.74.42-1.89.79l1.89,1.37-.59,1.36a1.18,1.18,0,0,1,.71.17.8.8,0,0,0,.47.17,1.2,1.2,0,0,0,.59-.23l.36.91h.94A7.36,7.36,0,0,1,95,69.59Zm-1.18,4.09.23-.46a.59.59,0,0,0-.29-.45,6.15,6.15,0,0,1-.65-.57h-1c-.55.38-.83.72-.83,1l.12.46ZM91.61,37.14c0-.07,0-.11.12-.11l-.12-.11Zm4.61,34v-.79h-.11v.79Zm1.54,1.93c.4-.23.6-.49.6-.79a1.14,1.14,0,0,0-.24-.46,2,2,0,0,1-.24-1.13l-.95.57a1.25,1.25,0,0,1,.36,1A.85.85,0,0,0,97.76,73.11Z"/><path class="cls-1" d="M121.9,76q-19.29,0-19.52-.12V66.3h5.2V45.09a7,7,0,0,0-.65-3.41,9.19,9.19,0,0,0-2.42-2.49,25.17,25.17,0,0,1-2.13-1.82q1.77-2,3.67-3.86a4.4,4.4,0,0,0,1.42-3.29q.11-4.3.11-17.36h-5.2V3.22H123.2c.08.15.16.28.24.4s.12,3.15.12,9.13a12.51,12.51,0,0,1-1.78.11l-1.18-.11a18.6,18.6,0,0,0-2.25.11c0,8.48,0,14-.12,16.68a5.86,5.86,0,0,0,.6,2.67c.39.79,1.89,2.44,4.49,4.93a21.17,21.17,0,0,1-3.67,3.63,4,4,0,0,0-.88.91q-.42.57-.42,24.62c1.9,0,3.51,0,4.85-.11,1,0,1.78,0,2.49.11a6.37,6.37,0,0,0,4.2-1.64,6.94,6.94,0,0,0,2.43-3.58q.35-1,.35-7.71c.32-.38,1.38-.57,3.2-.57a12.26,12.26,0,0,1,2.84.23h.35a1.58,1.58,0,0,1,.95-.34,8.66,8.66,0,0,1,1.65.57V75.61Q141,75.94,121.9,76ZM105,71.41l.24-.11a.7.7,0,0,0-.48.11Zm-.24,2.27c.08,0,.12,0,.12-.11l-.12-.12ZM110,47.47l.12-.11a.11.11,0,0,0-.12-.12Zm1.42,22c0-.38-.24-.57-.71-.57Zm.71-6V62.9l-.83-.11Zm0-9.53-.12-.12a.11.11,0,0,0-.12.12ZM112.2,35v-.12l-.12.12Zm.47,12.93v-.11l-.12.11ZM115,35.56V35.1h-.83l-.12.23.12.23Zm.59-5.91V29.2l-.12-.11h-.71v.56Zm-.71,21.22v-.22l-.12.11C114.88,50.76,114.92,50.8,114.92,50.87Zm.59-5.9.12-.11c0-.08,0-.11-.12-.11l-.12.11Zm2,28v-.12c-.08,0-.11,0-.11.12Zm20.59-7.72.36-.34-.36-.34-.23.34C137.88,65,138,65.13,138.11,65.28Zm1.31-4.08.11-1.36-.23-1a10.5,10.5,0,0,0-.24,2.16.18.18,0,0,0,.12.17A.53.53,0,0,0,139.42,61.2Z"/><path class="cls-1" d="M163.79,77.31a33.1,33.1,0,0,1-5.8-.68,12.17,12.17,0,0,1-7.1-4.2,16.91,16.91,0,0,1-3.43-5.79,56.83,56.83,0,0,1-1.54-6.24q-.12-.9-.11-16.68a4,4,0,0,0-1.78-3.4,12.36,12.36,0,0,1-1.54-1.25c-.47-.45-.94-.87-1.42-1.25a.36.36,0,0,1-.12-.28.39.39,0,0,0-.11-.28q.94-1.14,1.89-2.16t2-2a3.46,3.46,0,0,0,1.07-2.61V25.34l-.12-1.58.12-3.3a23,23,0,0,1,3.55-12q4-6.69,14.31-6.7a16.72,16.72,0,0,1,9.94,3,17.6,17.6,0,0,1,3.79,4Q181,14.57,181,25.34a14.19,14.19,0,0,1-.24,3.18v.57a1.44,1.44,0,0,1,.36.91L181,31.13a2.91,2.91,0,0,0,1,2.1l1.95,2,2.07,2.16c-1,.91-2.11,1.8-3.25,2.67A4,4,0,0,0,181,43.38l.12,1.48a4.45,4.45,0,0,1-.36,1.59,18.62,18.62,0,0,1,.36,3.63L181,54.39q0,9.77-2.9,15a14,14,0,0,1-8.34,7,16.29,16.29,0,0,1-3.91.8A14.43,14.43,0,0,0,163.79,77.31ZM144.38,37.37v-.45h-.23l.12.45Zm3.79,1a3.78,3.78,0,0,0,.59-.45.72.72,0,0,1,.48-.23,1,1,0,0,1,.59.34,2.91,2.91,0,0,1,.59-.79,5,5,0,0,0,.59-.68,1.73,1.73,0,0,0-1-1c-.44-.16-.89-.35-1.37-.57a5.56,5.56,0,0,0-2.12-.57l-.6.57a8.63,8.63,0,0,0-.23,1.59,4.7,4.7,0,0,1,.29,1,2.64,2.64,0,0,0,.3.85Zm-.24,10.55a2.49,2.49,0,0,0,.36-.73c.08-.27.2-.59.35-1a1.49,1.49,0,0,0,1.07.46l.59-.12c.4.15.59.38.59.68s0,.5.12.57a4.31,4.31,0,0,0,1.78-.28,4.2,4.2,0,0,1,1.77-.29v-6.8L154,41a1.29,1.29,0,0,1,.41-.28.87.87,0,0,0,.3-.17,6,6,0,0,1-1-1.48l-1.06.34a2.62,2.62,0,0,0-.24-1.3,1,1,0,0,1,.12-1.42.6.6,0,0,1-.24-.4,1.15,1.15,0,0,0-.23-.51,10.12,10.12,0,0,0-.3,1.53,5.58,5.58,0,0,1-.3,1.31l-1.77.91c0,.3,0,.49-.12.56a16.36,16.36,0,0,1-2,.57,9.18,9.18,0,0,1,.24,1.7l.47.23a3.14,3.14,0,0,1-.59.79,4.74,4.74,0,0,1,.18.86,2.49,2.49,0,0,0,.29,1,.61.61,0,0,1-.12.45,2.19,2.19,0,0,0-.35,1.14l.12.45A13,13,0,0,1,147.93,48.94Zm.95,4.77.83-.8a2.18,2.18,0,0,0-.83-1.36h-1.06v2.16Zm-.71-22.81a8.19,8.19,0,0,0,1.19-.9l1.3.34a1.81,1.81,0,0,1-.36-1.14l.12-.34a1.62,1.62,0,0,0-.59-1.13h-1.66l-.24-.8ZM150.07,60a1.2,1.2,0,0,1,.88-.34c.36,0,.57-.23.65-.68l-.35-1.36a1.54,1.54,0,0,0-1.54-1.36,1.87,1.87,0,0,0-1.3.56v2.39Zm.35,6.69a2.76,2.76,0,0,1,.59-.9,1,1,0,0,0,.36-.68l-.12-.57-2.25-.8c.16.61.3,1.16.41,1.65A2.25,2.25,0,0,0,150.42,66.64Zm-.83-19.51-.12-.12c0-.07,0-.11.12-.11Zm2.25-23.49.59-.11-.83-.68V21.37l-1.06-.45a4.07,4.07,0,0,0-.71,1l.35.79a3.05,3.05,0,0,0,.95.12Zm-.71,27.91.71-.11.47-.79a2.78,2.78,0,0,0-.12-.91h-1.77L150.3,51A1,1,0,0,0,151.13,51.55Zm9,23.26a6.68,6.68,0,0,1-.47-1.36l-1,.23.71-1.25,1.54.34,1.18-.68-.7-.34V70.5a5.14,5.14,0,0,0-1.07-.79c-.16,0-.43.19-.83.56a1,1,0,0,1,.12.46,2.93,2.93,0,0,0,.12.68l-2.84-2h-1.19l-.35.56h-.83l.36-1.13-1.07-1a.7.7,0,0,1-.47.23l-.24-.12a2.87,2.87,0,0,1-.35-1.36l.23-1.81a4.38,4.38,0,0,0-.23-1.37l-.95,4.09a1.76,1.76,0,0,0-1.18.91Q153.5,73.57,160.12,74.81Zm-9-62.06a.44.44,0,0,0,.12-.34c-.08,0-.12,0-.12-.11Zm1.06,22.46v-.56l-.11.22Zm1.19-11.45a.84.84,0,0,0,.83-.57q-.12-.57-.54-.63a.76.76,0,0,1-.59-.34,1.86,1.86,0,0,1-.18-1l-.23.11v2.27Zm.12,28.7a3.92,3.92,0,0,0,1.06-.11v-.68L153,49.51l-.12,1.59A1.81,1.81,0,0,0,153.5,52.46Zm.59-39,.12-.23-.71-.45a.21.21,0,0,1-.24.23Zm.12,20.88-.12-.23-.12.11Zm.23-2.16V30.68h-.11v1.47Zm8.76,34.72q6.75-.34,6.74-9.3l-.11-6.81c0-2.34,0-4.65.11-6.92a4.27,4.27,0,0,0-1.42-3.18L165,37.14a.66.66,0,0,1,.42-.22A11.11,11.11,0,0,0,167.22,35a23.34,23.34,0,0,1,1.72-1.93,3.88,3.88,0,0,0,1-2.84l-.11-3.86c0-1.36,0-2.68.11-4q0-5.1-1.77-7.94-1.06-1.81-4.5-2.15-3.54,0-5.09,2.15A11.29,11.29,0,0,0,156.93,19a113.25,113.25,0,0,0-.36,11.57,3.5,3.5,0,0,0,1.19,2.61l3.9,4.09c-.63.6-1.28,1.19-1.95,1.76s-1.36,1.19-2.07,1.87a3.46,3.46,0,0,0-1.07,2.61l.12,4.2-.12,5.1q0,4.08.24,7c.63,3.55,1.93,5.75,3.9,6.58A7,7,0,0,0,163.2,66.87Zm-.95,8.28L161.43,74a1.68,1.68,0,0,1,.11.68h-.11C161.43,74.93,161.7,75.08,162.25,75.15Zm3-.45a7.8,7.8,0,0,1,1.18-.34,1.13,1.13,0,0,0,.83-.91v-.34a1.6,1.6,0,0,0-.71-1.25h-1.3a2.6,2.6,0,0,0-.47,1.48A2.4,2.4,0,0,0,165.21,74.7Zm3.31-2.27v-.11h-.47v.11Zm.95-33.92.47-1.14-.94-.45a1.51,1.51,0,0,0-.83.22Zm-.71,32.33c.08,0,.12,0,.12-.11l-.24.11Zm.83,1.93c0-.15,0-.23-.12-.23-.31,0-.47.08-.47.23Zm.35-5.45a4.36,4.36,0,0,1-.11-1.24l-.6.56a2.85,2.85,0,0,1,.48.68Zm6-4.42a2.26,2.26,0,0,1,1.77-.79,1.81,1.81,0,0,1-.47-1.14,1,1,0,0,0-.59-.91V60h.12a2.82,2.82,0,0,0-.12.91,2.08,2.08,0,0,1-1.12-.17,4,4,0,0,1-.54-1.08l-.23-.23-.6.23-.23-.34a5.13,5.13,0,0,1,.94-.91l1.19.34a5.36,5.36,0,0,0,1.42-.91h-.71l-.24.12a1.39,1.39,0,0,1-.53-.12c-.2-.07-.44-.15-.71-.22a1.48,1.48,0,0,1-.77-.63,2.9,2.9,0,0,0-.95-.85c-.39-.23-.9-.49-1.54-.79l.12,1.36a10,10,0,0,1-.17,1.81,9.44,9.44,0,0,0-.18,1.82l.12,1.36,1.18-1h1.54Zm-2.49-36.65a3.76,3.76,0,0,0-.23-1.13l-1.07,1A5.23,5.23,0,0,1,173.49,26.25Zm-1.06,20.2V45.09h-.12v1.36Zm.95,8.51.35-.68-.59-.12Zm.59,6.92.23-.57h-.94c0,.08,0,.11-.12.11Zm-.59-20.42v-.23l-.12.11Zm1.53,1.36c.79,0,1.19-.46,1.19-1.36l-.83-.46a1,1,0,0,1-.53.28,1.92,1.92,0,0,0-.65.29c.15.23.29.45.41.68A2.32,2.32,0,0,0,174.91,42.82Zm1.31,13.73a3.53,3.53,0,0,1-.48-1.37l-1.18,1.25A8.82,8.82,0,0,0,176.22,56.55Zm-.12,7.14c.16-.15.23-.26.23-.34a.18.18,0,0,1-.17-.11.46.46,0,0,1-.06-.23l-.24.46Zm.23,3.41v-.46h-.11v.46Zm.48-24.28.23-.12-.11-.45h-.12ZM177,53.6l-.11-.12-.12.12Zm1.31-26.21v-.12h-.24Q178.11,27.39,178.35,27.39Zm.82,12.25.48-.11V39.3c0-.38-.24-.68-.71-.91a1.76,1.76,0,0,0-.3.34.66.66,0,0,1-.29.23A.85.85,0,0,0,179.17,39.64Zm-.59-8.74v-.22h-.12v.11C178.46,30.87,178.5,30.9,178.58,30.9Z"/><path class="cls-1" d="M210.53,77.31a33.1,33.1,0,0,1-5.8-.68,12.17,12.17,0,0,1-7.1-4.2,16.91,16.91,0,0,1-3.43-5.79,56.83,56.83,0,0,1-1.54-6.24q-.12-.9-.12-16.68a4,4,0,0,0-1.77-3.4,11.67,11.67,0,0,1-1.54-1.25c-.47-.45-.95-.87-1.42-1.25a.36.36,0,0,1-.12-.28.36.36,0,0,0-.12-.28c.64-.76,1.27-1.48,1.9-2.16s1.3-1.36,2-2a3.45,3.45,0,0,0,1.06-2.61V25.34l-.11-1.58.11-3.3a23.18,23.18,0,0,1,3.55-12q4-6.69,14.32-6.7a16.72,16.72,0,0,1,9.94,3,17.6,17.6,0,0,1,3.79,4q3.56,5.91,3.55,16.68a14.19,14.19,0,0,1-.24,3.18v.57a1.44,1.44,0,0,1,.36.91l-.12,1.13a2.91,2.91,0,0,0,.95,2.1l2,2,2.07,2.16c-1,.91-2.11,1.8-3.26,2.67a4,4,0,0,0-1.71,3.34l.12,1.48a4.45,4.45,0,0,1-.36,1.59,18.62,18.62,0,0,1,.36,3.63l-.12,4.31q0,9.77-2.9,15a14,14,0,0,1-8.34,7,16.29,16.29,0,0,1-3.91.8A14.43,14.43,0,0,0,210.53,77.31ZM191.12,37.37v-.45h-.23l.12.45Zm3.79,1a3.78,3.78,0,0,0,.59-.45.72.72,0,0,1,.48-.23,1,1,0,0,1,.59.34,2.72,2.72,0,0,1,.59-.79,5,5,0,0,0,.59-.68,1.75,1.75,0,0,0-1-1c-.43-.16-.88-.35-1.36-.57a5.6,5.6,0,0,0-2.12-.57l-.6.57a8.63,8.63,0,0,0-.23,1.59,4.7,4.7,0,0,1,.29,1,2.64,2.64,0,0,0,.3.85Zm-.24,10.55a2.49,2.49,0,0,0,.36-.73c.08-.27.2-.59.35-1a1.49,1.49,0,0,0,1.07.46l.59-.12c.4.15.59.38.59.68s0,.5.12.57a4.31,4.31,0,0,0,1.78-.28,4.2,4.2,0,0,1,1.77-.29v-6.8l-.59-.46a1.19,1.19,0,0,1,.41-.28.87.87,0,0,0,.3-.17,6,6,0,0,1-.95-1.48l-1.06.34a2.62,2.62,0,0,0-.24-1.3,1,1,0,0,1,.12-1.42.6.6,0,0,1-.24-.4,1.15,1.15,0,0,0-.23-.51,10.12,10.12,0,0,0-.3,1.53,5.58,5.58,0,0,1-.3,1.31l-1.77.91c0,.3,0,.49-.12.56a16.36,16.36,0,0,1-2,.57,9.18,9.18,0,0,1,.24,1.7l.47.23a3.14,3.14,0,0,1-.59.79,4.74,4.74,0,0,1,.18.86,2.49,2.49,0,0,0,.29,1,.61.61,0,0,1-.12.45,2.19,2.19,0,0,0-.35,1.14l.12.45A13,13,0,0,1,194.67,48.94Zm1,4.77.83-.8a2.18,2.18,0,0,0-.83-1.36h-1.06v2.16Zm-.71-22.81a7.55,7.55,0,0,0,1.18-.9l1.31.34A1.81,1.81,0,0,1,197,29.2l.12-.34a1.62,1.62,0,0,0-.59-1.13h-1.66l-.24-.8ZM196.81,60a1.2,1.2,0,0,1,.88-.34c.36,0,.57-.23.65-.68L198,57.57a1.54,1.54,0,0,0-1.54-1.36,1.87,1.87,0,0,0-1.3.56v2.39Zm.35,6.69a2.61,2.61,0,0,1,.59-.9,1,1,0,0,0,.36-.68l-.12-.57-2.25-.8c.16.61.3,1.16.41,1.65A2.25,2.25,0,0,0,197.16,66.64Zm-.83-19.51-.12-.12c0-.07,0-.11.12-.11Zm2.25-23.49.59-.11-.83-.68V21.37l-1.06-.45a4.07,4.07,0,0,0-.71,1l.35.79a3.05,3.05,0,0,0,1,.12Zm-.71,27.91.71-.11.47-.79a2.78,2.78,0,0,0-.12-.91h-1.77L197,51A1,1,0,0,0,197.87,51.55Zm9,23.26a6.68,6.68,0,0,1-.47-1.36l-.95.23.71-1.25,1.54.34,1.18-.68-.71-.34V70.5a5,5,0,0,0-1.06-.79c-.16,0-.44.19-.83.56a1,1,0,0,1,.12.46,2.93,2.93,0,0,0,.12.68l-2.84-2h-1.19l-.35.56h-.83l.36-1.13-1.07-1a.72.72,0,0,1-.47.23l-.24-.12a2.87,2.87,0,0,1-.35-1.36l.23-1.81a4.38,4.38,0,0,0-.23-1.37l-.95,4.09a1.76,1.76,0,0,0-1.18.91Q200.24,73.57,206.86,74.81Zm-9-62.06a.44.44,0,0,0,.12-.34c-.08,0-.12,0-.12-.11Zm1.06,22.46v-.56l-.11.22Zm1.19-11.45a.84.84,0,0,0,.83-.57q-.12-.57-.54-.63a.76.76,0,0,1-.59-.34,1.86,1.86,0,0,1-.18-1l-.23.11v2.27Zm.12,28.7a4,4,0,0,0,1.06-.11v-.68l-1.54-2.16-.12,1.59A1.81,1.81,0,0,0,200.24,52.46Zm.59-39,.12-.23-.71-.45A.21.21,0,0,1,200,13ZM201,34.31l-.12-.23-.12.11Zm.23-2.16V30.68h-.12v1.47Zm8.76,34.72q6.75-.34,6.74-9.3l-.12-6.81q0-3.51.12-6.92a4.27,4.27,0,0,0-1.42-3.18l-3.55-3.52a.66.66,0,0,1,.42-.22A11.11,11.11,0,0,0,214,35a23.34,23.34,0,0,1,1.72-1.93,3.88,3.88,0,0,0,1-2.84l-.12-3.86c0-1.36,0-2.68.12-4q0-5.1-1.77-7.94-1.07-1.81-4.5-2.15-3.54,0-5.09,2.15A11.29,11.29,0,0,0,203.67,19a113.25,113.25,0,0,0-.36,11.57,3.5,3.5,0,0,0,1.19,2.61l3.9,4.09c-.63.6-1.28,1.19-2,1.76s-1.36,1.19-2.07,1.87a3.46,3.46,0,0,0-1.07,2.61l.12,4.2-.12,5.1q0,4.08.24,7c.63,3.55,1.93,5.75,3.9,6.58A7,7,0,0,0,209.94,66.87ZM209,75.15,208.16,74a1.5,1.5,0,0,1,.12.68h-.12C208.16,74.93,208.44,75.08,209,75.15Zm3-.45a7.48,7.48,0,0,1,1.18-.34,1.13,1.13,0,0,0,.83-.91v-.34a1.6,1.6,0,0,0-.71-1.25H212a2.6,2.6,0,0,0-.47,1.48A2.4,2.4,0,0,0,212,74.7Zm3.31-2.27v-.11h-.47v.11Zm1-33.92.47-1.14-.94-.45a1.51,1.51,0,0,0-.83.22Zm-.71,32.33c.08,0,.12,0,.12-.11l-.24.11Zm.83,1.93c0-.15,0-.23-.12-.23-.32,0-.47.08-.47.23Zm.35-5.45a4.25,4.25,0,0,1-.12-1.24l-.59.56a2.85,2.85,0,0,1,.48.68Zm6-4.42a2.27,2.27,0,0,1,1.78-.79A1.78,1.78,0,0,1,224,61a1,1,0,0,0-.59-.91V60h.12a2.82,2.82,0,0,0-.12.91,2.16,2.16,0,0,1-1.13-.17,4.42,4.42,0,0,1-.53-1.08l-.23-.23-.59.23-.24-.34a5.47,5.47,0,0,1,.94-.91l1.19.34a5.36,5.36,0,0,0,1.42-.91h-.71l-.24.12a1.39,1.39,0,0,1-.53-.12c-.2-.07-.44-.15-.71-.22a1.48,1.48,0,0,1-.77-.63,2.9,2.9,0,0,0-1-.85c-.39-.23-.91-.49-1.54-.79l.12,1.36a9.18,9.18,0,0,1-.18,1.81,10.28,10.28,0,0,0-.17,1.82l.12,1.36,1.18-1h1.54Zm-2.49-36.65a3.76,3.76,0,0,0-.23-1.13l-1.07,1A5.23,5.23,0,0,1,220.23,26.25Zm-1.06,20.2V45.09h-.12v1.36Zm.94,8.51.36-.68-.59-.12Zm.6,6.92.24-.57H220c0,.08,0,.11-.12.11Zm-.6-20.42v-.23l-.11.11Zm1.54,1.36c.79,0,1.19-.46,1.19-1.36L222,41a1,1,0,0,1-.53.28,1.92,1.92,0,0,0-.65.29c.15.23.29.45.41.68A2.09,2.09,0,0,0,221.65,42.82ZM223,56.55a3.53,3.53,0,0,1-.48-1.37l-1.18,1.25A8.82,8.82,0,0,0,223,56.55Zm-.12,7.14c.15-.15.23-.26.23-.34a.16.16,0,0,1-.17-.11.46.46,0,0,1-.06-.23l-.24.46Zm.23,3.41v-.46H223v.46Zm.48-24.28.23-.12-.12-.45h-.11Zm.23,10.78-.12-.12-.11.12Zm1.31-26.21v-.12h-.24Q224.85,27.39,225.09,27.39Zm.82,12.25.48-.11V39.3c0-.38-.24-.68-.71-.91a1.76,1.76,0,0,0-.3.34.66.66,0,0,1-.29.23A.85.85,0,0,0,225.91,39.64Zm-.59-8.74v-.22h-.12v.11C225.2,30.87,225.24,30.9,225.32,30.9Z"/><path class="cls-1" d="M280.7,75.83H266.26L249,24.1a22.51,22.51,0,0,0-.12,3.4c0,2,0,4.56-.06,7.54s-.06,7.85-.06,14.58q0,9.54.06,12.77c0,2.15.06,3.42.06,3.8h4.38v9.64h-18.7V66.3h5.09V44.52a7.34,7.34,0,0,0-.36-2.33,3.44,3.44,0,0,0-1.3-1.76,13.92,13.92,0,0,1-1.65-1.36c-.48-.45-1-.87-1.42-1.25l-.24-.45.36-.57a25.94,25.94,0,0,0,1.83-1.93q.88-1,1.83-1.92a2.8,2.8,0,0,0,.95-2.05v-18h-5.09V3.22h16.1L255.26,17c.63,1.81,1.2,3.63,1.71,5.44s1.09,3.63,1.72,5.45,1.24,3.65,1.83,5.5,1.21,3.69,1.84,5.51,1.22,3.61,1.77,5.39l1.66,5.27.83,2.61V12.86h-4.73V3.22h18.46l.35.45v9.08a14.43,14.43,0,0,1-2,.11l-1.78-.11-1.3.11a2.35,2.35,0,0,1-.06.51q-.06.29-.06,16.63a4.36,4.36,0,0,0,1.31,3.29,54.41,54.41,0,0,1,3.66,4.08l-3.66,3.4a3.86,3.86,0,0,0-1.31,2.84V66l.12.23h4.85a1.21,1.21,0,0,1,.6,1.13,9.36,9.36,0,0,0-.24,1.82l.12.23a8.41,8.41,0,0,0,.12,1.47,10.62,10.62,0,0,1,.11,1.59L281.06,75A1.49,1.49,0,0,1,280.7,75.83ZM245,7.42a3.48,3.48,0,0,0,1.19-.12c.16-.07.27-.3.35-.68a1.09,1.09,0,0,0-.71-1l-.94.46Zm.24,3.51c1.11,0,1.66-.18,1.66-.56a1.88,1.88,0,0,0-.06-.46c0-.15-.26-.34-.65-.56a1.09,1.09,0,0,0-1,.56Zm4.38-3.4a13.77,13.77,0,0,0-.83-2.16,1.36,1.36,0,0,0-.35.8.1.1,0,0,0,.11.11v.8a3.06,3.06,0,0,0,.48.17A2.3,2.3,0,0,1,249.58,7.53Zm2,6a4.49,4.49,0,0,1-.41-1.3,1.66,1.66,0,0,0-.53-1c-.4.31-.6.57-.6.8h.12a3.29,3.29,0,0,1-.12,1ZM253,24.89l-.24-.11C252.77,24.85,252.85,24.89,253,24.89Zm17.63-11.57a.21.21,0,0,0,.24-.23c0-.07-.08-.19-.24-.34-.16.15-.23.27-.23.34A.2.2,0,0,0,270.64,13.32Z"/><path class="cls-1" d="M303.09,28.45h-4.9L292.32,9.8a10.23,10.23,0,0,0,0,1.23c0,.73,0,1.64,0,2.72s0,2.83,0,5.25,0,3.83,0,4.6,0,1.24,0,1.37h1.49v3.48h-6.35V25h1.73V17.16a2.84,2.84,0,0,0-.12-.84,1.27,1.27,0,0,0-.44-.63,4.67,4.67,0,0,1-.56-.49l-.49-.45-.08-.16.12-.21c.22-.22.42-.45.63-.69a8.37,8.37,0,0,1,.62-.7,1,1,0,0,0,.32-.74V5.75h-1.73V2.28h5.46l1.57,4.94c.21.66.41,1.31.58,2s.37,1.31.59,2,.42,1.32.62,2,.41,1.33.62,2,.42,1.3.6,1.94.38,1.28.57,1.9l.28.94V5.75H296.7V2.28H303l.13.16V5.71a4.58,4.58,0,0,1-.69,0l-.6,0-.44,0a1.37,1.37,0,0,1,0,.19c0,.06,0,2.06,0,6a1.62,1.62,0,0,0,.44,1.18A18.5,18.5,0,0,1,303,14.59l-1.24,1.22a1.44,1.44,0,0,0-.44,1v8.05l0,.08H303a.45.45,0,0,1,.21.41,3.13,3.13,0,0,0-.08.66l0,.08a2.93,2.93,0,0,0,0,.53,4.78,4.78,0,0,1,0,.57l0,.94A.61.61,0,0,1,303.09,28.45ZM291,3.79a1.12,1.12,0,0,0,.4,0c.05,0,.09-.11.12-.25a.41.41,0,0,0-.24-.37l-.32.17ZM291,5.06c.37,0,.56-.07.56-.21a.88.88,0,0,0,0-.16c0-.06-.09-.12-.22-.21a.35.35,0,0,0-.32.21Zm1.48-1.23a3.94,3.94,0,0,0-.28-.78.53.53,0,0,0-.12.29s0,0,0,0v.29l.16.06A.62.62,0,0,1,292.52,3.83ZM293.21,6a1.68,1.68,0,0,1-.14-.47.61.61,0,0,0-.19-.35c-.13.11-.2.2-.2.29h0a1.11,1.11,0,0,1,0,.36Zm.48,4.09-.08,0S293.63,10.09,293.69,10.09Zm6-4.17c.06,0,.08,0,.08-.09s0-.06-.08-.12-.08.1-.08.12S299.62,5.92,299.67,5.92Z"/><path class="cls-1" d="M311.36,29a10.51,10.51,0,0,1-2-.24A4.06,4.06,0,0,1,307,27.22a6.08,6.08,0,0,1-1.16-2.08,21.62,21.62,0,0,1-.53-2.25c0-.22,0-2.22,0-6a1.45,1.45,0,0,0-.6-1.23,4.54,4.54,0,0,1-.52-.45q-.24-.24-.48-.45a.13.13,0,0,1,0-.1.15.15,0,0,0,0-.1c.21-.28.43-.54.64-.78s.44-.49.68-.74a1.28,1.28,0,0,0,.36-.94V10.25l0-.57,0-1.19a8.74,8.74,0,0,1,1.21-4.33q1.37-2.42,4.86-2.42a5.43,5.43,0,0,1,3.37,1.07A6.12,6.12,0,0,1,316,4.24a12.37,12.37,0,0,1,1.2,6,5.83,5.83,0,0,1-.08,1.15v.2a.56.56,0,0,1,.12.33l0,.41a1.1,1.1,0,0,0,.32.75l.67.72c.22.24.46.5.7.78q-.53.48-1.11,1a1.49,1.49,0,0,0-.58,1.2l0,.54a1.71,1.71,0,0,1-.12.57,7.17,7.17,0,0,1,.12,1.31l0,1.55a12.12,12.12,0,0,1-1,5.42,4.87,4.87,0,0,1-2.83,2.52,5.19,5.19,0,0,1-1.33.28A6.23,6.23,0,0,0,311.36,29Zm-6.59-14.39v-.17h-.08l0,.17Zm1.29.36a1.08,1.08,0,0,0,.2-.16.23.23,0,0,1,.16-.08.34.34,0,0,1,.2.12,1,1,0,0,1,.2-.28,2,2,0,0,0,.2-.25.63.63,0,0,0-.34-.37,3.57,3.57,0,0,1-.46-.2,1.83,1.83,0,0,0-.73-.21l-.2.21a3.87,3.87,0,0,0-.08.57,1.18,1.18,0,0,1,.1.35,1.32,1.32,0,0,0,.1.3ZM306,18.76a1.11,1.11,0,0,0,.12-.27,2.08,2.08,0,0,1,.12-.35.48.48,0,0,0,.36.17l.2,0a.26.26,0,0,1,.2.24c0,.11,0,.18,0,.21a1.31,1.31,0,0,0,.6-.11,1.57,1.57,0,0,1,.61-.1V16.06l-.21-.17a.77.77,0,0,1,.15-.1.21.21,0,0,0,.1-.06,2,2,0,0,1-.33-.53l-.36.12a.94.94,0,0,0-.08-.47.54.54,0,0,1-.08-.22.53.53,0,0,1,.12-.29.23.23,0,0,1-.08-.14.38.38,0,0,0-.08-.19,4,4,0,0,0-.1.56,2.2,2.2,0,0,1-.1.47l-.6.32c0,.11,0,.18,0,.21s-.36.12-.68.2a4,4,0,0,1,.08.62l.16.08a1.18,1.18,0,0,1-.2.28c0,.09,0,.19.06.31a.88.88,0,0,0,.1.35.28.28,0,0,1,0,.16.81.81,0,0,0-.12.41l0,.16A6.06,6.06,0,0,1,306,18.76Zm.32,1.72.28-.29a.81.81,0,0,0-.28-.49h-.36v.78Zm-.24-8.23a2.24,2.24,0,0,0,.4-.32l.44.12a.69.69,0,0,1-.12-.41l0-.12a.61.61,0,0,0-.2-.41h-.56l-.08-.29Zm.64,10.48a.38.38,0,0,1,.3-.13c.12,0,.19-.08.22-.24l-.12-.49c-.08-.33-.25-.49-.52-.49a.58.58,0,0,0-.44.2v.86Zm.12,2.41a.88.88,0,0,1,.2-.33.35.35,0,0,0,.12-.24l0-.21-.76-.29.14.6A.8.8,0,0,0,306.82,25.14Zm-.28-7,0,0a0,0,0,0,1,0,0Zm.76-8.46.2,0-.28-.25V8.82l-.36-.16a1.4,1.4,0,0,0-.24.36l.12.29a1,1,0,0,0,.32,0Zm-.24,10.06.24,0,.16-.29a1.06,1.06,0,0,0,0-.33h-.6l0,.45C306.86,19.63,307,19.7,307.06,19.7Zm3.05,8.38a3.51,3.51,0,0,1-.16-.49l-.32.08.24-.45.52.13.41-.25-.25-.12v-.45a1.68,1.68,0,0,0-.36-.29c-.05,0-.14.07-.28.21a.32.32,0,0,1,0,.16,1.76,1.76,0,0,0,0,.25l-1-.74h-.4l-.12.2h-.28l.12-.4-.37-.37a.23.23,0,0,1-.16.08l-.08,0a1.14,1.14,0,0,1-.12-.49l.08-.66a1.44,1.44,0,0,0-.08-.49l-.32,1.47a.64.64,0,0,0-.4.33A4.33,4.33,0,0,0,310.11,28.08ZM307.06,5.71a.16.16,0,0,0,0-.12,0,0,0,0,1,0,0Zm.36,8.1V13.6l0,.09Zm.4-4.13a.3.3,0,0,0,.29-.21c0-.13-.09-.21-.19-.22a.28.28,0,0,1-.2-.12.76.76,0,0,1-.06-.35l-.08,0v.82Zm0,10.35a1.13,1.13,0,0,0,.37-.05v-.24L307.7,19l0,.57A.7.7,0,0,0,307.86,20ZM308.06,6l.05-.09-.25-.16c0,.06,0,.08-.08.08Zm.05,7.52-.05-.08,0,0Zm.08-.78v-.53h0v.53Zm3,12.52c1.52-.08,2.29-1.2,2.29-3.35l0-2.46c0-.84,0-1.67,0-2.49a1.57,1.57,0,0,0-.49-1.15l-1.2-1.27a.23.23,0,0,1,.14-.08,3.69,3.69,0,0,0,.62-.69,8.15,8.15,0,0,1,.59-.7,1.46,1.46,0,0,0,.34-1l0-1.39c0-.49,0-1,0-1.43a5.62,5.62,0,0,0-.61-2.87,1.83,1.83,0,0,0-1.52-.77,1.94,1.94,0,0,0-1.73.77A4.35,4.35,0,0,0,309,8c-.08.65-.12,2.05-.12,4.17a1.28,1.28,0,0,0,.4.94l1.33,1.48-.67.63c-.23.2-.46.43-.7.67a1.3,1.3,0,0,0-.36.94l0,1.52,0,1.84c0,1,0,1.83.08,2.53.21,1.29.65,2.08,1.32,2.38A2.22,2.22,0,0,0,311.16,25.22Zm-.32,3-.29-.41a.48.48,0,0,1,.05.24h-.05C310.55,28.12,310.65,28.18,310.84,28.21Zm1-.17a3,3,0,0,1,.4-.12c.14,0,.23-.14.28-.33v-.12a.6.6,0,0,0-.24-.45h-.44a.92.92,0,0,0-.16.53A.86.86,0,0,0,311.84,28Zm1.12-.82v0h-.16v0ZM313.29,15l.16-.41-.32-.17a.55.55,0,0,0-.29.08ZM313,26.65s0,0,0,0l-.09,0Zm.29.7c0-.06,0-.09,0-.09s-.16,0-.16.09Zm.12-2a1.53,1.53,0,0,1,0-.45l-.2.21a1.09,1.09,0,0,1,.16.24Zm2-1.59a.79.79,0,0,1,.61-.29.63.63,0,0,1-.16-.41.37.37,0,0,0-.2-.32v0h0a1,1,0,0,0,0,.32.71.71,0,0,1-.39-.06,1.43,1.43,0,0,1-.18-.39l-.08-.08-.2.08-.08-.12a2,2,0,0,1,.32-.33l.4.13A1.88,1.88,0,0,0,316,22h-.24l-.08,0a.46.46,0,0,1-.19,0,1,1,0,0,0-.24-.08.55.55,0,0,1-.26-.23,1.06,1.06,0,0,0-.32-.31l-.52-.28,0,.49a3.49,3.49,0,0,1-.06.65,3.68,3.68,0,0,0-.06.66l0,.49.4-.37h.52Zm-.84-13.21a1.46,1.46,0,0,0-.08-.41l-.36.37A1.5,1.5,0,0,1,314.65,10.58Zm-.36,7.28v-.49h0v.49Zm.32,3.07.12-.25-.2,0Zm.2,2.49.08-.2h-.32a0,0,0,0,1,0,0Zm-.2-7.36V16l0,0Zm.52.49c.27,0,.4-.16.4-.49l-.28-.17a.34.34,0,0,1-.18.11.69.69,0,0,0-.22.1,1.49,1.49,0,0,1,.14.24A.85.85,0,0,0,315.13,16.55Zm.45,4.95a1.24,1.24,0,0,1-.17-.49l-.4.45A3.86,3.86,0,0,0,315.58,21.5Zm-.05,2.57q.09-.08.09-.12a.08.08,0,0,1-.07,0,.24.24,0,0,1,0-.08l-.08.16Zm.09,1.23v-.16h0v.16Zm.16-8.75.08,0,0-.17h0Zm.08,3.88,0,0,0,0ZM316.3,11v0h-.08S316.24,11,316.3,11Zm.28,4.41.16,0v-.08a.39.39,0,0,0-.24-.33.4.4,0,0,0-.1.13.49.49,0,0,1-.1.08C316.35,15.32,316.44,15.4,316.58,15.4Zm-.2-3.15v-.08h0v0S316.35,12.25,316.38,12.25Z"/><path class="cls-1" d="M320.15,28.7h-.92a2.6,2.6,0,0,1-.36-.27l-.36-.31a2.32,2.32,0,0,1-.69-1.71,2.5,2.5,0,0,1,.81-1.8,1.42,1.42,0,0,1,1.08-.54,1.71,1.71,0,0,1,1.33.66,2.23,2.23,0,0,1,.56,1.47l0,.37,0,.16A2,2,0,0,1,320.15,28.7ZM320,26.65v-.12l-.08,0v.16Z"/><path class="cls-1" d="M350.41,120a73.09,73.09,0,0,1-7.57-.36q-8.25-1.11-12.38-9.36c-1.27-2.08-2.38-5.42-3.36-10a89.43,89.43,0,0,1-1.46-17.9q.17-2.74.17-6.79l-.17-3.85.17-5.32a7.55,7.55,0,0,0-2.58-6.06l-1.89-1.83a14.92,14.92,0,0,1-2.92-3.3l6.7-7.9a7.61,7.61,0,0,0,.69-3.3l-.17-1.28.17-2.39v-11a53.59,53.59,0,0,1,.86-7,40.69,40.69,0,0,1,3.27-11.75q3.78-7,9.46-9.17Q341.82,0,347.48,0a28.34,28.34,0,0,1,8.09,2.2q11,6.24,11,25.51l-.17,4.59h-12a3.3,3.3,0,0,1-.35-1.47l.17-2.75q0-7.71-2.15-10.28t-3.44-2.57a10.72,10.72,0,0,1-2.15-.18c-2.75,0-4.59,1.47-5.5,4.4q-1.89,5.32-1.89,18.9l.17,8.08-.17,8.07,1.2-1.65a9.2,9.2,0,0,1,4-3.67,14.81,14.81,0,0,1,6.36-1.65,13.34,13.34,0,0,1,8.17,2.93,16.35,16.35,0,0,1,5.59,8.08q3.11,9.18,3.1,13.94a2.84,2.84,0,0,0,.51,1.66,13.83,13.83,0,0,0,3.62,5.13c1.26,1,2.46,2,3.61,2.94a3.59,3.59,0,0,1-1.81,1.93,5.56,5.56,0,0,0-2,1.37c-.57.62-1.14,1.2-1.72,1.75A14.85,14.85,0,0,0,368.12,89c-.57,5-1.09,8.62-1.54,10.83q-3.27,16.52-15.14,20Zm-22.7-60.74a2.26,2.26,0,0,0,.51-.09c.23-.06.46-.39.69-1a1.3,1.3,0,0,1-.52-.46,5.85,5.85,0,0,0-.68-.82v.55c0,.24-.15.36-.43.36a.84.84,0,0,0-.61.19l.17,1.1Zm4.81,22,1.72-.91a1.27,1.27,0,0,0,.52.18.48.48,0,0,1,.34.18,2.55,2.55,0,0,0,.69-1.83l-.17-2c-2.75-1.47-4.42-2.2-5-2.2a2.64,2.64,0,0,0-1.55,1.1v1.1l-.17.55.86,3.85Zm3.1,14.87V82.94a6.31,6.31,0,0,0-.86,1.47,12.29,12.29,0,0,0-2.41.19l.52,1.46-1,1.29L333,88.82a16.35,16.35,0,0,1-2.93.18v1.28c.69.25,1.29.5,1.81.74a2,2,0,0,1,.95,1.65l-.87,1.1a2,2,0,0,0,1.55.92l.86-.18A10.1,10.1,0,0,1,335.62,96.16ZM330.11,96q.69,0,.69-.36h-.69Zm2.58,10.28,1.89-.55v-2.39a2.56,2.56,0,0,0-1.54-.73,2.41,2.41,0,0,0-1.72.92Zm-.17-36.89a4.48,4.48,0,0,1,3.61-1.65,2.1,2.1,0,0,1,.18.92l.34-.18-.52-.74a6.27,6.27,0,0,0-.68-3.48,4.54,4.54,0,0,0-2.93.73ZM336,56.15V53.4a2.85,2.85,0,0,0-.69,1.65A1.47,1.47,0,0,0,336,56.15Zm.69,56.52c.11,0,.23-.12.34-.36h-.86v-.19C336.25,112.49,336.42,112.67,336.65,112.67Zm8.6-7.52q4,0,5.5-1.47a12.8,12.8,0,0,1,1.38-1.93q.86-1,1.72-5.59.34-1.84.34-21.66a19.81,19.81,0,0,0-2.06-8.81,5.62,5.62,0,0,0-5.33-3.48,12,12,0,0,0-3.27.73q-4.65,2-4.64,18c0,9.78.19,15.32.6,16.6s.83,2.48,1.29,3.58A7,7,0,0,0,345.25,105.15ZM348,11.56a1.11,1.11,0,0,0-.26-.82l-.43-.46-.34.18a4.37,4.37,0,0,1,.69,1.1Zm1.89,39.82V51.2H349v.18Zm3.79,56.89c.34,0,.63-.31.86-.92a1.07,1.07,0,0,0-.35-.46,1.34,1.34,0,0,1-.34-.27,1.59,1.59,0,0,1-.77.46,1.49,1.49,0,0,0-.78.45v.55h1.38Zm.17-46.61,1.55-1.47h1.89l.34.92.35-.19-.69-3.67c-.8-.85-1.38-1.28-1.72-1.28a4.74,4.74,0,0,0-1.89,1.65,6.69,6.69,0,0,0,.17,1.84Zm3.1,47a6.34,6.34,0,0,0,1.63-1.66,2.28,2.28,0,0,0,.26-.91,1.9,1.9,0,0,0-1.21-1.84h-1.37l-1.21,1.1a13,13,0,0,1,.17,2.39Zm3.95-18.17a24,24,0,0,0,4.64-3.86c1.38-1.46,2.81-2.93,4.31-4.4L365,77.44h-.52l-.86.92-1-.19a4.77,4.77,0,0,0,.52-1.46l-1.55-1.84a.5.5,0,0,1-.34.18c-.12,0-.29.13-.52.37a11.43,11.43,0,0,1-.52-3.49l.17-.91a19.74,19.74,0,0,0-.34-3.67l-1.2,7a3.71,3.71,0,0,0-1.21.18q-.51,1.65-.51,12.48l1.2,3.49a1,1,0,0,0,.6-.19,1,1,0,0,1,.61-.18A2.85,2.85,0,0,1,360.9,90.47Zm-3.78-18.54,1.2-1.46a3,3,0,0,1-.52-.74,4,4,0,0,0-.68-.92Zm2.75,20.92a1.06,1.06,0,0,1-.17-.73h-.17v.73ZM360,19.63l.17-.18-.17-.18Zm1.55,85.52.69-2.39-1.55-.73a6.14,6.14,0,0,1,.17,1.65l-.17.18A1.55,1.55,0,0,0,361.59,105.15Zm.34-8.81a3.07,3.07,0,0,0,.52-1.83,5.24,5.24,0,0,1-.34-1.84,4.78,4.78,0,0,1-1.21.92Z"/><path class="cls-1" d="M28.11,119.91a16.89,16.89,0,0,1-14.76-7.71,14.33,14.33,0,0,0-2.11-2.86v8.59H.88c-.59-.23-.88-.83-.88-1.79V81.92q1-.53,12-.53l.7,2.33a27.68,27.68,0,0,0,1.93,10,17.26,17.26,0,0,0,5.63,8.42,9.72,9.72,0,0,0,5.44,1.61,7.79,7.79,0,0,0,7.56-4.84A13.66,13.66,0,0,0,35,92.32,19.51,19.51,0,0,0,31.8,81.39a98.52,98.52,0,0,0-7.9-9.5c-2.11-2.39-4.16-4.59-6.15-6.63q-1.24-1.43-8.26-4.65c-3.28-1.44-5-2.33-5.1-2.69l.18-1.43a55.84,55.84,0,0,0,.35-6.28,10.36,10.36,0,0,0-1-4.3,27.2,27.2,0,0,1-1.49-4.12A55.25,55.25,0,0,1,.35,30.15a44,44,0,0,1,1.93-14,25.36,25.36,0,0,1,8.09-12A16.19,16.19,0,0,1,20.56.77q5.61,0,11.24,4.66l4,4.12V3.1h11.6V34.45H35.84l-.52-2A22.93,22.93,0,0,0,31.8,22.09q-3-5.39-8.61-5.38c-1.87,0-3.86,1.38-6,4.12a11.6,11.6,0,0,0-2.11,7.35q0,6.81,7.73,15.23a54.23,54.23,0,0,0,4.92,5.28q1.05.81,10,5.47a23.13,23.13,0,0,1,4,2.42.82.82,0,0,0,.44.44,19.22,19.22,0,0,0-1.06,5.38,5.53,5.53,0,0,0,1.06,3.4l3.51,5.73a31.42,31.42,0,0,1,3.78,10.39,54.1,54.1,0,0,1,1,8.43,48.14,48.14,0,0,1-1.58,11.82,25.39,25.39,0,0,1-8.43,13.44A18.92,18.92,0,0,1,28.11,119.91ZM39.71,102l-.35-.36L39,102Zm3-22a1.15,1.15,0,0,0,.88-.35,1.53,1.53,0,0,0-1-1.62l-1.41.72C41.7,79.54,42.22,80,42.69,80Zm-1.23-6.09.18-.18h-.35C41.29,73.8,41.35,73.86,41.46,73.86Zm1.41,16.31v-.72h-.18v.72Zm.53-59.66v-.36h-.18v.18A.16.16,0,0,0,43.4,30.51Zm1.93,60.37a1.12,1.12,0,0,0,1.05-.71l-1.05-1.44q-.53,1.08-1.23,1.08l-.18-.36.18.36-.35-.18.35.18v.71A2.79,2.79,0,0,0,45.33,90.88Z"/></g></g></svg>